0
SECTION
2
HEADER
9
$INSUNITS
70
4
9
$ACADVER
1
AC1014
9
$HANDSEED
5
FFFF
0
ENDSEC
0
SECTION
2
TABLES
0
TABLE
2
VPORT
5
8
100
AcDbSymbolTable
0
ENDTAB
0
TABLE
2
LTYPE
5
5
100
AcDbSymbolTable
0
LTYPE
5
14
100
AcDbSymbolTableRecord
100
AcDbLinetypeTableRecord
2
BYBLOCK
70
0
0
LTYPE
5
15
100
AcDbSymbolTableRecord
100
AcDbLinetypeTableRecord
2
BYLAYER
70
0
0
ENDTAB
0
TABLE
2
LAYER
5
2
100
AcDbSymbolTable
70
2
0
LAYER
5
50
100
AcDbSymbolTableRecord
100
AcDbLayerTableRecord
2
0
70
0
6
CONTINUOUS
0
ENDTAB
0
TABLE
2
STYLE
5
3
100
AcDbSymbolTable
70
1
0
STYLE
5
11
100
AcDbSymbolTableRecord
100
AcDbTextStyleTableRecord
2
STANDARD
70
0
0
ENDTAB
0
TABLE
2
VIEW
5
6
100
AcDbSymbolTable
70
0
0
ENDTAB
0
TABLE
2
UCS
5
7
100
AcDbSymbolTable
70
0
0
ENDTAB
0
TABLE
2
APPID
5
9
100
AcDbSymbolTable
70
2
0
APPID
5
12
100
AcDbSymbolTableRecord
100
AcDbRegAppTableRecord
2
ACAD
70
0
0
ENDTAB
0
TABLE
2
DIMSTYLE
5
A
100
AcDbSymbolTable
70
1
0
ENDTAB
0
TABLE
2
BLOCK_RECORD
5
1
100
AcDbSymbolTable
70
1
0
BLOCK_RECORD
5
1F
100
AcDbSymbolTableRecord
100
AcDbBlockTableRecord
2
*MODEL_SPACE
0
BLOCK_RECORD
5
1B
100
AcDbSymbolTableRecord
100
AcDbBlockTableRecord
2
*PAPER_SPACE
0
ENDTAB
0
ENDSEC
0
SECTION
2
BLOCKS
0
BLOCK
5
20
100
AcDbEntity
100
AcDbBlockBegin
2
*MODEL_SPACE
0
ENDBLK
5
21
100
AcDbEntity
100
AcDbBlockEnd
0
BLOCK
5
1C
100
AcDbEntity
100
AcDbBlockBegin
2
*PAPER_SPACE
0
ENDBLK
5
1D
100
AcDbEntity
100
AcDbBlockEnd
0
ENDSEC
0
SECTION
2
ENTITIES
0
LWPOLYLINE
5
100
100
AcDbEntity
8
0
100
AcDbPolyline
90
32
70
1
43
0.0
10
2.0843749999999757
20
16.437499999999698
42
0.41421356237309798
10
1.5843749999999757
20
16.937499999999702
10
-7.2156250000000233
20
16.937499999999702
42
0.41421356237309503
10
-7.7156250000000242
20
16.437499999999702
10
-7.7156250000000224
20
14.844354249479604
42
-0.6681786379188035
10
-9.4227317811856022
20
14.137247468292086
10
-9.8443046564571617
20
14.558820343562491
42
0.66817863791914123
10
-14.965625000015372
20
12.437499999999947
42
-0.41421356237316204
10
-15.965625000015375
20
11.437499999999709
10
-16.465624999999996
20
11.437499999999709
42
0.41421356237309503
10
-16.965624999999996
20
10.937499999999709
10
-16.965625000000031
20
-14.062500000000295
42
0.41421356237309503
10
-16.465625000000014
20
-14.562500000000316
10
-15.965625000015391
20
-14.562500000000293
42
-0.41421356237316265
10
-14.965625000015388
20
-15.562500000000533
42
0.66817863792128729
10
-9.8443046564410572
20
-17.683820343575071
10
-7.8910884595952977
20
-15.730604146720339
42
-0.34817333939932749
10
-6.6572184396410456
20
-15.587698874882163
42
0.2847350307289151
10
10.725968439648994
20
-15.587698874877239
42
-0.34817333939847112
10
11.959838459601166
20
-15.730604146712544
10
13.913054656457167
20
-17.683820343563085
42
0.99999999999999989
10
18.155695343574621
20
-13.441179656441518
10
16.202479146720041
20
-11.487963459595608
42
-0.34817333939932871
10
16.05957387488186
20
-10.254093439641359
42
0.28473503072891637
10
16.059573874876904
20
7.1290934396487486
42
-0.34817333939847867
10
16.202479146712228
20
8.3629634596009392
10
18.15569534356279
20
10.316179656456868
42
0.9999999925494194
10
13.91305465644114
20
14.558820343574386
10
11.95983845959524
20
12.605604146719756
42
-0.34817333939932271
10
10.725968439641003
20
12.462698874881596
42
0.13135513987716615
10
2.5681985294117355
20
14.928862358502567
42
-0.40476739795267919
10
2.0843749999999703
20
15.428600611790536
0
CIRCLE
5
101
100
AcDbEntity
8
0
100
AcDbCircle
10
2.0343750000000012
20
-1.5625000000003
30
0
40
10.500000000000004
210
0
220
0
230
1
0
ENDSEC
0
SECTION
2
OBJECTS
0
DICTIONARY
5
C
100
AcDbDictionary
3
ACAD_GROUP
350
D
3
ACAD_MLINESTYLE
350
17
0
DICTIONARY
5
D
100
AcDbDictionary
0
DICTIONARY
5
1A
330
C
100
AcDbDictionary
0
DICTIONARY
5
17
100
AcDbDictionary
0
ENDSEC
0
EOF
