0
SECTION
2
HEADER
9
$INSUNITS
70
4
9
$ACADVER
1
AC1014
9
$HANDSEED
5
FFFF
0
ENDSEC
0
SECTION
2
TABLES
0
TABLE
2
VPORT
5
8
100
AcDbSymbolTable
0
ENDTAB
0
TABLE
2
LTYPE
5
5
100
AcDbSymbolTable
0
LTYPE
5
14
100
AcDbSymbolTableRecord
100
AcDbLinetypeTableRecord
2
BYBLOCK
70
0
0
LTYPE
5
15
100
AcDbSymbolTableRecord
100
AcDbLinetypeTableRecord
2
BYLAYER
70
0
0
ENDTAB
0
TABLE
2
LAYER
5
2
100
AcDbSymbolTable
70
2
0
LAYER
5
50
100
AcDbSymbolTableRecord
100
AcDbLayerTableRecord
2
0
70
0
6
CONTINUOUS
0
ENDTAB
0
TABLE
2
STYLE
5
3
100
AcDbSymbolTable
70
1
0
STYLE
5
11
100
AcDbSymbolTableRecord
100
AcDbTextStyleTableRecord
2
STANDARD
70
0
0
ENDTAB
0
TABLE
2
VIEW
5
6
100
AcDbSymbolTable
70
0
0
ENDTAB
0
TABLE
2
UCS
5
7
100
AcDbSymbolTable
70
0
0
ENDTAB
0
TABLE
2
APPID
5
9
100
AcDbSymbolTable
70
2
0
APPID
5
12
100
AcDbSymbolTableRecord
100
AcDbRegAppTableRecord
2
ACAD
70
0
0
ENDTAB
0
TABLE
2
DIMSTYLE
5
A
100
AcDbSymbolTable
70
1
0
ENDTAB
0
TABLE
2
BLOCK_RECORD
5
1
100
AcDbSymbolTable
70
1
0
BLOCK_RECORD
5
1F
100
AcDbSymbolTableRecord
100
AcDbBlockTableRecord
2
*MODEL_SPACE
0
BLOCK_RECORD
5
1B
100
AcDbSymbolTableRecord
100
AcDbBlockTableRecord
2
*PAPER_SPACE
0
ENDTAB
0
ENDSEC
0
SECTION
2
BLOCKS
0
BLOCK
5
20
100
AcDbEntity
100
AcDbBlockBegin
2
*MODEL_SPACE
0
ENDBLK
5
21
100
AcDbEntity
100
AcDbBlockEnd
0
BLOCK
5
1C
100
AcDbEntity
100
AcDbBlockBegin
2
*PAPER_SPACE
0
ENDBLK
5
1D
100
AcDbEntity
100
AcDbBlockEnd
0
ENDSEC
0
SECTION
2
ENTITIES
0
CIRCLE
5
100
100
AcDbEntity
8
0
100
AcDbCircle
10
-13.168420795510787
20
13.640295795510491
30
0
40
1.0000000000000009
210
0
220
-0
230
1
0
CIRCLE
5
101
100
AcDbEntity
8
0
100
AcDbCircle
10
17.23717079551076
20
-16.765295795511083
30
0
40
0.99999999999999867
210
0
220
0
230
1
0
CIRCLE
5
102
100
AcDbEntity
8
0
100
AcDbCircle
10
-13.168420795510798
20
-16.765295795511065
30
0
40
0.99999999999999867
210
0
220
-0
230
1
0
CIRCLE
5
103
100
AcDbEntity
8
0
100
AcDbCircle
10
17.237170795510771
20
13.640295795510479
30
0
40
0.99999999999999867
210
0
220
0
230
1
0
CIRCLE
5
104
100
AcDbEntity
8
0
100
AcDbCircle
10
2.0343749999999861
20
-1.5625000000002942
30
0
40
11.500000000000002
210
0
220
0
230
1
0
LWPOLYLINE
5
105
100
AcDbEntity
8
0
100
AcDbPolyline
90
33
70
1
43
0.0
10
-16.465625000000017
20
-7.8625000000002903
10
-16.465625000000014
20
-14.062500000000291
42
0.18856472327750279
10
-16.200370258776935
20
-14.740843131980775
42
-0.27910976878834459
10
-15.993441837043248
20
-15.755713646848143
42
0.80018757975410504
10
-11.047100451951158
20
-18.886616139070707
10
-9.339674232706157
20
-17.179189919825713
42
-0.3549191627287851
10
-8.0855447616980936
20
-17.049178921473192
42
0.29776136071077752
10
12.154294761698051
20
-17.049178921473196
42
-0.35491916272878582
10
13.408424232706116
20
-17.179189919825724
10
15.115850451951111
20
-18.886616139070725
42
0.99999999999999989
10
19.358491139070402
20
-14.643975451951437
10
17.651064919825401
20
-12.936549232706438
42
-0.3549191627287856
10
17.52105392147288
20
-11.68241976169837
42
0.29776136071077741
10
17.521053921472888
20
8.5574197616977692
42
-0.35491916272878521
10
17.651064919825416
20
9.8115492327058327
10
19.358491139070416
20
11.518975451950833
42
0.99999999999999989
10
15.115850451951129
20
15.761616139070121
10
13.408424232706125
20
14.054189919825129
42
-0.35491916272878499
10
12.154294761698065
20
13.924178921472606
42
0.14571932967050027
10
2.0343749999999803
20
16.937499999999702
10
-6.7156250000000224
20
16.937499999999705
42
0.41421356237309503
10
-7.7156250000000242
20
15.937499999999705
10
-7.715625000000025
20
14.844354249492111
42
-0.66817863791929955
10
-9.4227317811865738
20
14.137247468305565
10
-11.047100451951138
20
15.761616139070131
42
0.80018757975410681
10
-15.993441837043243
20
12.630713646847557
42
-0.27910976878834554
10
-16.200370258776932
20
11.615843131980181
42
0.18856472327750146
10
-16.465625000000017
20
10.937499999999705
10
-16.465625000000017
20
4.7374999999997023
42
0.41421356237309503
10
-15.965625000000019
20
4.2374999999997023
42
-0.41421356237309176
10
-15.465625000000017
20
3.7374999999997027
10
-15.465625000000017
20
-6.8625000000002903
42
-0.41421356237309309
10
-15.965625000000017
20
-7.3625000000002903
42
0.41421356237309437
0
CIRCLE
5
106
100
AcDbEntity
8
0
100
AcDbCircle
10
-9.7196550757402314
20
7.7564472033373537
30
0
40
0.50000000000000078
210
0
220
-0
230
1
0
CIRCLE
5
107
100
AcDbEntity
8
0
100
AcDbCircle
10
7.2650254169467736
20
12.495959951775879
30
0
40
0.50000000000000078
210
0
220
-0
230
1
0
CIRCLE
5
108
100
AcDbEntity
8
0
100
AcDbCircle
10
17.021124816682129
20
-2.1928411236610588
30
0
40
0.50000000000000078
210
0
220
-0
230
1
0
CIRCLE
5
109
100
AcDbEntity
8
0
100
AcDbCircle
10
6.0660453506540177
20
-16.010532190705618
30
0
40
0.50000000000000078
210
0
220
-0
230
1
0
CIRCLE
5
110
100
AcDbEntity
8
0
100
AcDbCircle
10
-10.460665508542759
20
-9.8615338407480255
30
0
40
0.50000000000000078
210
0
220
-0
230
1
0
ENDSEC
0
SECTION
2
OBJECTS
0
DICTIONARY
5
C
100
AcDbDictionary
3
ACAD_GROUP
350
D
3
ACAD_MLINESTYLE
350
17
0
DICTIONARY
5
D
100
AcDbDictionary
0
DICTIONARY
5
1A
330
C
100
AcDbDictionary
0
DICTIONARY
5
17
100
AcDbDictionary
0
ENDSEC
0
EOF
