0
SECTION
2
HEADER
9
$INSUNITS
70
4
9
$ACADVER
1
AC1014
9
$HANDSEED
5
FFFF
0
ENDSEC
0
SECTION
2
TABLES
0
TABLE
2
VPORT
5
8
100
AcDbSymbolTable
0
ENDTAB
0
TABLE
2
LTYPE
5
5
100
AcDbSymbolTable
0
LTYPE
5
14
100
AcDbSymbolTableRecord
100
AcDbLinetypeTableRecord
2
BYBLOCK
70
0
0
LTYPE
5
15
100
AcDbSymbolTableRecord
100
AcDbLinetypeTableRecord
2
BYLAYER
70
0
0
ENDTAB
0
TABLE
2
LAYER
5
2
100
AcDbSymbolTable
70
2
0
LAYER
5
50
100
AcDbSymbolTableRecord
100
AcDbLayerTableRecord
2
0
70
0
6
CONTINUOUS
0
ENDTAB
0
TABLE
2
STYLE
5
3
100
AcDbSymbolTable
70
1
0
STYLE
5
11
100
AcDbSymbolTableRecord
100
AcDbTextStyleTableRecord
2
STANDARD
70
0
0
ENDTAB
0
TABLE
2
VIEW
5
6
100
AcDbSymbolTable
70
0
0
ENDTAB
0
TABLE
2
UCS
5
7
100
AcDbSymbolTable
70
0
0
ENDTAB
0
TABLE
2
APPID
5
9
100
AcDbSymbolTable
70
2
0
APPID
5
12
100
AcDbSymbolTableRecord
100
AcDbRegAppTableRecord
2
ACAD
70
0
0
ENDTAB
0
TABLE
2
DIMSTYLE
5
A
100
AcDbSymbolTable
70
1
0
ENDTAB
0
TABLE
2
BLOCK_RECORD
5
1
100
AcDbSymbolTable
70
1
0
BLOCK_RECORD
5
1F
100
AcDbSymbolTableRecord
100
AcDbBlockTableRecord
2
*MODEL_SPACE
0
BLOCK_RECORD
5
1B
100
AcDbSymbolTableRecord
100
AcDbBlockTableRecord
2
*PAPER_SPACE
0
ENDTAB
0
ENDSEC
0
SECTION
2
BLOCKS
0
BLOCK
5
20
100
AcDbEntity
100
AcDbBlockBegin
2
*MODEL_SPACE
0
ENDBLK
5
21
100
AcDbEntity
100
AcDbBlockEnd
0
BLOCK
5
1C
100
AcDbEntity
100
AcDbBlockBegin
2
*PAPER_SPACE
0
ENDBLK
5
1D
100
AcDbEntity
100
AcDbBlockEnd
0
ENDSEC
0
SECTION
2
ENTITIES
0
LWPOLYLINE
5
100
100
AcDbEntity
8
0
100
AcDbPolyline
90
49
70
1
43
0.0
10
-21.034374999999983
20
-12.993750000000301
42
0.41421356237309503
10
-20.53437499999999
20
-13.493750000000304
10
-18.784374999999976
20
-13.493750000000313
42
-0.4142135623730947
10
-16.712355831616495
20
-15.565769168383799
10
-16.712355831616495
20
-16.262500000000294
42
0.41421356237309431
10
-14.0123558316165
20
-18.962500000000301
10
-8.2593750000000128
20
-18.962499999998474
42
0.41421356237309503
10
-7.7593750000000083
20
-18.462499999998471
10
-7.7593750000000083
20
-14.712500000000301
42
0.4142135623730937
10
-8.2593750000000128
20
-14.212500000000299
10
-9.9593750000000014
20
-14.212500000000299
42
-0.41421356237309698
10
-10.459375000000007
20
-13.712500000000293
10
-10.459375000000023
20
3.7374999999996961
42
-0.41421356237309437
10
-9.959375000000021
20
4.2374999999996978
10
-8.5343750000000078
20
4.2374999999996978
42
0.41421356237309503
10
-6.7843750000000078
20
5.987499999999697
10
-6.7843750000000078
20
7.7374999999997032
42
-0.41421356237309631
10
-6.2843750000000078
20
8.2374999999997041
10
7.4406249999999838
20
8.2374999999997041
42
-0.41421356237309553
10
9.4406249999999865
20
6.2374999999997023
10
9.4406249999999865
20
-1.762500000000301
42
-0.4142135623730962
10
8.9406249999999847
20
-2.2625000000003013
10
7.4656249999999913
20
-2.2625000000003013
42
0.99999999999999989
10
7.4656249999999913
20
-5.7625000000003004
10
8.9406249999999847
20
-5.7625000000002995
42
-0.4142135623730957
10
9.4406249999999847
20
-6.2625000000003004
10
9.4406249999999865
20
-13.754242430504714
42
-0.29821662669860405
10
9.1406249999999893
20
-14.212500000000301
42
0.29821662669860355
10
8.8406249999999922
20
-14.670757569495885
10
8.8406249999999922
20
-18.462500000000297
42
0.41421356237309631
10
9.340624999999994
20
-18.962500000000301
10
14.012355831616492
20
-18.962500000000301
42
0.41421356237309503
10
16.712355831616495
20
-16.262500000000294
10
16.712355831616495
20
-15.565769168383788
42
-0.41421356237309598
10
18.784374999999983
20
-13.493750000000301
10
20.534374999999983
20
-13.493750000000301
42
0.41421356237309503
10
21.034374999999983
20
-12.993750000000301
10
21.034374999999979
20
12.506249999999707
42
0.41421356237309503
10
20.534374999999979
20
13.006249999999703
10
18.784374999999979
20
13.006249999999703
42
-0.4142135623730957
10
16.712355831616495
20
15.078269168383191
10
16.712355831616502
20
16.2625000000012
42
0.41421356237309531
10
14.012355831625262
20
18.962499999992438
10
-14.012355831625223
20
18.962499999992438
42
0.41421356237309459
10
-16.712355831616456
20
16.262500000001204
10
-16.712355831616456
20
15.078269168383187
42
-0.41421356237309315
10
-18.78437499999994
20
13.006249999999707
10
-20.534374999999979
20
13.006249999999703
42
0.41421356237309503
10
-21.034374999999983
20
12.506249999999707
0
CIRCLE
5
101
100
AcDbEntity
8
0
100
AcDbCircle
10
7.4656249999999913
20
-4.0125000000003013
30
0
40
0.74999999999999956
210
0
220
0
230
1
0
CIRCLE
5
102
100
AcDbEntity
8
0
100
AcDbCircle
10
-8.5343750000000078
20
5.987499999999697
30
0
40
0.75000000000000178
210
0
220
0
230
1
0
CIRCLE
5
103
100
AcDbEntity
8
0
100
AcDbCircle
10
14.012355831616492
20
-16.262500000000294
30
0
40
1.0000000000000009
210
0
220
0
230
1
0
CIRCLE
5
104
100
AcDbEntity
8
0
100
AcDbCircle
10
-14.012355831616492
20
-16.262500000000294
30
0
40
1.0000000000000009
210
0
220
0
230
1
0
CIRCLE
5
105
100
AcDbEntity
8
0
100
AcDbCircle
10
-14.012355831625221
20
16.2625000000012
30
0
40
1.0000000000000009
210
0
220
0
230
1
0
CIRCLE
5
106
100
AcDbEntity
8
0
100
AcDbCircle
10
14.012355831625262
20
16.262500000001204
30
0
40
1.0000000000000009
210
0
220
0
230
1
0
CIRCLE
5
107
100
AcDbEntity
8
0
100
AcDbCircle
10
17.784374999999976
20
11.756249999999703
30
0
40
0.49999999999999928
210
0
220
-0
230
1
0
ENDSEC
0
SECTION
2
OBJECTS
0
DICTIONARY
5
C
100
AcDbDictionary
3
ACAD_GROUP
350
D
3
ACAD_MLINESTYLE
350
17
0
DICTIONARY
5
D
100
AcDbDictionary
0
DICTIONARY
5
1A
330
C
100
AcDbDictionary
0
DICTIONARY
5
17
100
AcDbDictionary
0
ENDSEC
0
EOF
