0
SECTION
2
HEADER
9
$INSUNITS
70
4
9
$ACADVER
1
AC1014
9
$HANDSEED
5
FFFF
0
ENDSEC
0
SECTION
2
TABLES
0
TABLE
2
VPORT
5
8
100
AcDbSymbolTable
0
ENDTAB
0
TABLE
2
LTYPE
5
5
100
AcDbSymbolTable
0
LTYPE
5
14
100
AcDbSymbolTableRecord
100
AcDbLinetypeTableRecord
2
BYBLOCK
70
0
0
LTYPE
5
15
100
AcDbSymbolTableRecord
100
AcDbLinetypeTableRecord
2
BYLAYER
70
0
0
ENDTAB
0
TABLE
2
LAYER
5
2
100
AcDbSymbolTable
70
2
0
LAYER
5
50
100
AcDbSymbolTableRecord
100
AcDbLayerTableRecord
2
0
70
0
6
CONTINUOUS
0
ENDTAB
0
TABLE
2
STYLE
5
3
100
AcDbSymbolTable
70
1
0
STYLE
5
11
100
AcDbSymbolTableRecord
100
AcDbTextStyleTableRecord
2
STANDARD
70
0
0
ENDTAB
0
TABLE
2
VIEW
5
6
100
AcDbSymbolTable
70
0
0
ENDTAB
0
TABLE
2
UCS
5
7
100
AcDbSymbolTable
70
0
0
ENDTAB
0
TABLE
2
APPID
5
9
100
AcDbSymbolTable
70
2
0
APPID
5
12
100
AcDbSymbolTableRecord
100
AcDbRegAppTableRecord
2
ACAD
70
0
0
ENDTAB
0
TABLE
2
DIMSTYLE
5
A
100
AcDbSymbolTable
70
1
0
ENDTAB
0
TABLE
2
BLOCK_RECORD
5
1
100
AcDbSymbolTable
70
1
0
BLOCK_RECORD
5
1F
100
AcDbSymbolTableRecord
100
AcDbBlockTableRecord
2
*MODEL_SPACE
0
BLOCK_RECORD
5
1B
100
AcDbSymbolTableRecord
100
AcDbBlockTableRecord
2
*PAPER_SPACE
0
ENDTAB
0
ENDSEC
0
SECTION
2
BLOCKS
0
BLOCK
5
20
100
AcDbEntity
100
AcDbBlockBegin
2
*MODEL_SPACE
0
ENDBLK
5
21
100
AcDbEntity
100
AcDbBlockEnd
0
BLOCK
5
1C
100
AcDbEntity
100
AcDbBlockBegin
2
*PAPER_SPACE
0
ENDBLK
5
1D
100
AcDbEntity
100
AcDbBlockEnd
0
ENDSEC
0
SECTION
2
ENTITIES
0
LWPOLYLINE
5
100
100
AcDbEntity
8
0
100
AcDbPolyline
90
32
70
1
43
0.0
10
-23.003981781186521
20
13.579955310452936
42
0.19891236737966977
10
-23.296875
20
12.872848529266363
10
-23.296874999999986
20
-12.872848529266376
42
0.19891236737966489
10
-23.003981781186511
20
-13.579955310452954
10
-21.719403744698557
20
-14.864533346940805
42
0.3005270290315592
10
-20.639183296319107
20
-15.08521220444123
42
-0.66072876432015415
10
-17.268024704441146
20
-18.456370796318978
42
0.30052702903155287
10
-17.047345846940654
20
-19.536591244698403
10
-15.762767810452452
20
-20.821169281186567
42
0.19891236737965085
10
-15.055661029265915
20
-21.114062500000014
10
15.055661029265954
20
-21.114062499999985
42
0.1989123673796602
10
15.762767810452491
20
-20.821169281186549
10
17.047345846940711
20
-19.536591244698364
42
0.30052702903154876
10
17.268024704441196
20
-18.456370796318943
42
-0.66072876432015226
10
20.639183296319143
20
-15.085212204441182
42
0.3005270290315542
10
21.719403744698585
20
-14.864533346940751
10
23.003981781186532
20
-13.579955310452895
42
0.19891236737966272
10
23.296875000000004
20
-12.872848529266324
10
23.296875
20
12.872848529266356
42
0.19891236737966611
10
23.003981781186521
20
13.579955310452931
10
21.719403744698571
20
14.864533346940787
42
0.30052702903155343
10
20.639183296319125
20
15.085212204441214
42
-0.66072876432015237
10
17.268024704441171
20
18.456370796318971
42
0.30052702903155243
10
17.04734584694069
20
19.536591244698396
10
15.762767810452491
20
20.821169281186567
42
0.19891236737964965
10
15.055661029265954
20
21.114062500000017
10
-15.055661029265938
20
21.114062500000014
42
0.19891236737965881
10
-15.762767810452473
20
20.82116928118657
10
-17.047345846940676
20
19.536591244698403
42
0.3005270290315542
10
-17.26802470444116
20
18.456370796318975
42
-0.66072876432015493
10
-20.639183296319121
20
15.085212204441216
42
0.30052702903155531
10
-21.719403744698582
20
14.864533346940789
0
LWPOLYLINE
5
101
100
AcDbEntity
8
0
100
AcDbPolyline
90
21
70
1
43
0.0
10
7.9406249999999536
20
-2.2625000000002919
10
7.4656249999999957
20
-2.2625000000002919
42
0.99999999999999989
10
7.4656249999999966
20
-5.7625000000003013
10
7.9406249999999545
20
-5.7625000000003004
42
-0.4142135623730957
10
9.4406249999999901
20
-7.2625000000003368
10
9.4406249999999936
20
-18.462500000000318
42
-0.41421356237309698
10
8.4406249999999936
20
-19.462500000000322
10
-6.9593750000000121
20
-19.462500000000318
42
-0.41421356237309731
10
-7.9593750000000139
20
-18.462500000000322
10
-7.9593750000000139
20
-15.691519945775216
42
0.36597738186304413
10
-9.2093750000000156
20
-14.212500000000308
42
-0.36597738186304418
10
-10.459375000000016
20
-12.733480054225403
10
-10.459375000000017
20
2.7374999999997063
42
-0.41421356237309537
10
-8.9593750000000192
20
4.2374999999997076
10
-8.5343750000000167
20
4.2374999999997076
42
0.41421356237309453
10
-6.7843750000000149
20
5.9874999999997067
10
-6.7843750000000114
20
7.237499999999728
42
-0.41421356237309465
10
-5.2843750000000114
20
8.7374999999997254
10
7.9406249999999909
20
8.7374999999997254
42
-0.41421356237309481
10
9.4406249999999901
20
7.2374999999997254
10
9.4406249999999918
20
-0.76250000000025564
42
-0.41421356237309553
0
ENDSEC
0
SECTION
2
OBJECTS
0
DICTIONARY
5
C
100
AcDbDictionary
3
ACAD_GROUP
350
D
3
ACAD_MLINESTYLE
350
17
0
DICTIONARY
5
D
100
AcDbDictionary
0
DICTIONARY
5
1A
330
C
100
AcDbDictionary
0
DICTIONARY
5
17
100
AcDbDictionary
0
ENDSEC
0
EOF
