%TF.GenerationSoftware,KiCad,Pcbnew,(6.0.7)*%
%TF.CreationDate,2022-10-21T23:46:11+08:00*%
%TF.ProjectId,pcb_middle,7063625f-6d69-4646-946c-652e6b696361,rev?*%
%TF.SameCoordinates,Original*%
%TF.FileFunction,Copper,L1,Top*%
%TF.FilePolarity,Positive*%
%FSLAX46Y46*%
G04 Gerber Fmt 4.6, Leading zero omitted, Abs format (unit mm)*
G04 Created by KiCad (PCBNEW (6.0.7)) date 2022-10-21 23:46:11*
%MOMM*%
%LPD*%
G01*
G04 APERTURE LIST*
G04 Aperture macros list*
%AMRoundRect*
0 Rectangle with rounded corners*
0 $1 Rounding radius*
0 $2 $3 $4 $5 $6 $7 $8 $9 X,Y pos of 4 corners*
0 Add a 4 corners polygon primitive as box body*
4,1,4,$2,$3,$4,$5,$6,$7,$8,$9,$2,$3,0*
0 Add four circle primitives for the rounded corners*
1,1,$1+$1,$2,$3*
1,1,$1+$1,$4,$5*
1,1,$1+$1,$6,$7*
1,1,$1+$1,$8,$9*
0 Add four rect primitives between the rounded corners*
20,1,$1+$1,$2,$3,$4,$5,0*
20,1,$1+$1,$4,$5,$6,$7,0*
20,1,$1+$1,$6,$7,$8,$9,0*
20,1,$1+$1,$8,$9,$2,$3,0*%
%AMRotRect*
0 Rectangle, with rotation*
0 The origin of the aperture is its center*
0 $1 length*
0 $2 width*
0 $3 Rotation angle, in degrees counterclockwise*
0 Add horizontal line*
21,1,$1,$2,0,0,$3*%
G04 Aperture macros list end*
%TA.AperFunction,SMDPad,CuDef*%
%ADD10RoundRect,0.150000X0.625000X-0.150000X0.625000X0.150000X-0.625000X0.150000X-0.625000X-0.150000X0*%
%TD*%
%TA.AperFunction,SMDPad,CuDef*%
%ADD11RoundRect,0.250000X0.650000X-0.350000X0.650000X0.350000X-0.650000X0.350000X-0.650000X-0.350000X0*%
%TD*%
%TA.AperFunction,ConnectorPad*%
%ADD12C,3.800000*%
%TD*%
%TA.AperFunction,ComponentPad*%
%ADD13C,2.600000*%
%TD*%
%TA.AperFunction,SMDPad,CuDef*%
%ADD14RoundRect,0.135000X0.070317X-0.217958X0.229019X0.000477X-0.070317X0.217958X-0.229019X-0.000477X0*%
%TD*%
%TA.AperFunction,SMDPad,CuDef*%
%ADD15RoundRect,0.135000X-0.185000X0.135000X-0.185000X-0.135000X0.185000X-0.135000X0.185000X0.135000X0*%
%TD*%
%TA.AperFunction,SMDPad,CuDef*%
%ADD16RoundRect,0.150000X-0.150000X0.587500X-0.150000X-0.587500X0.150000X-0.587500X0.150000X0.587500X0*%
%TD*%
%TA.AperFunction,SMDPad,CuDef*%
%ADD17RoundRect,0.150000X0.587500X0.150000X-0.587500X0.150000X-0.587500X-0.150000X0.587500X-0.150000X0*%
%TD*%
%TA.AperFunction,SMDPad,CuDef*%
%ADD18RotRect,0.800000X2.000000X324.000000*%
%TD*%
%TA.AperFunction,SMDPad,CuDef*%
%ADD19RotRect,0.800000X1.200000X324.000000*%
%TD*%
%TA.AperFunction,SMDPad,CuDef*%
%ADD20R,1.000000X1.000000*%
%TD*%
%TA.AperFunction,SMDPad,CuDef*%
%ADD21RoundRect,0.135000X-0.135000X-0.185000X0.135000X-0.185000X0.135000X0.185000X-0.135000X0.185000X0*%
%TD*%
%TA.AperFunction,SMDPad,CuDef*%
%ADD22RoundRect,0.147500X-0.147500X-0.172500X0.147500X-0.172500X0.147500X0.172500X-0.147500X0.172500X0*%
%TD*%
%TA.AperFunction,SMDPad,CuDef*%
%ADD23RoundRect,0.150000X-0.150000X-0.625000X0.150000X-0.625000X0.150000X0.625000X-0.150000X0.625000X0*%
%TD*%
%TA.AperFunction,SMDPad,CuDef*%
%ADD24RoundRect,0.250000X-0.350000X-0.650000X0.350000X-0.650000X0.350000X0.650000X-0.350000X0.650000X0*%
%TD*%
%TA.AperFunction,SMDPad,CuDef*%
%ADD25RoundRect,0.135000X0.229019X-0.000477X0.070317X0.217958X-0.229019X0.000477X-0.070317X-0.217958X0*%
%TD*%
%TA.AperFunction,SMDPad,CuDef*%
%ADD26RotRect,1.350000X1.250000X198.000000*%
%TD*%
%TA.AperFunction,SMDPad,CuDef*%
%ADD27RoundRect,0.135000X-0.185561X-0.134228X0.071224X-0.217663X0.185561X0.134228X-0.071224X0.217663X0*%
%TD*%
%TA.AperFunction,SMDPad,CuDef*%
%ADD28RotRect,0.800000X2.000000X36.000000*%
%TD*%
%TA.AperFunction,SMDPad,CuDef*%
%ADD29RotRect,0.800000X1.200000X36.000000*%
%TD*%
%TA.AperFunction,SMDPad,CuDef*%
%ADD30R,0.800000X2.000000*%
%TD*%
%TA.AperFunction,SMDPad,CuDef*%
%ADD31R,0.800000X1.200000*%
%TD*%
%TA.AperFunction,SMDPad,CuDef*%
%ADD32RoundRect,0.135000X0.071224X0.217663X-0.185561X0.134228X-0.071224X-0.217663X0.185561X-0.134228X0*%
%TD*%
%TA.AperFunction,SMDPad,CuDef*%
%ADD33RotRect,1.350000X1.250000X342.000000*%
%TD*%
%TA.AperFunction,ViaPad*%
%ADD34C,0.600000*%
%TD*%
%TA.AperFunction,Conductor*%
%ADD35C,0.130000*%
%TD*%
%TA.AperFunction,Conductor*%
%ADD36C,0.300000*%
%TD*%
G04 APERTURE END LIST*
D10*
%TO.P,J3,1,Pin_1*%
%TO.N,+5V*%
X-14874999Y-3399999D03*
%TO.P,J3,2,Pin_2*%
%TO.N,Net-(D7-Pad2)*%
X-14874999Y-2399999D03*
D11*
%TO.P,J3,MP,MountPin*%
X-17399999Y-1099999D03*
X-17399999Y-4699999D03*
%TD*%
D12*
%TO.P,H1,1,1*%
%TO.N,GND*%
X14000000Y14000001D03*
D13*
X14000000Y14000001D03*
%TD*%
D14*
%TO.P,R3,1*%
%TO.N,+5V*%
X-10007974Y6640824D03*
%TO.P,R3,2*%
%TO.N,Net-(D2-Pad2)*%
X-9408434Y7466022D03*
%TD*%
D15*
%TO.P,R2,1*%
%TO.N,/PUMP1_ON*%
X-15500000Y10910000D03*
%TO.P,R2,2*%
%TO.N,GND*%
X-15500000Y9890000D03*
%TD*%
D16*
%TO.P,Q2,1*%
%TO.N,/LED_ON*%
X-5850000Y12137498D03*
%TO.P,Q2,2*%
%TO.N,GND*%
X-7750000Y12137498D03*
%TO.P,Q2,3*%
%TO.N,Net-(D1-Pad1)*%
X-6800000Y10262498D03*
%TD*%
D17*
%TO.P,Q3,1*%
%TO.N,/PUMP2_ON*%
X-15662500Y-8449998D03*
%TO.P,Q3,2*%
%TO.N,GND*%
X-15662500Y-6549998D03*
%TO.P,Q3,3*%
%TO.N,Net-(D7-Pad2)*%
X-17537500Y-7499998D03*
%TD*%
D18*
%TO.P,D2,1,K*%
%TO.N,Net-(D1-Pad1)*%
X-12247997Y7810951D03*
D19*
%TO.P,D2,2,A*%
%TO.N,Net-(D2-Pad2)*%
X-10984259Y9550338D03*
%TD*%
D15*
%TO.P,R1,1*%
%TO.N,+5V*%
X12000001Y510000D03*
%TO.P,R1,2*%
%TO.N,Net-(D1-Pad2)*%
X12000001Y-510000D03*
%TD*%
D20*
%TO.P,D7,1,K*%
%TO.N,+5V*%
X-12500001Y-4150000D03*
%TO.P,D7,2,A*%
%TO.N,Net-(D7-Pad2)*%
X-12500001Y-1650000D03*
%TD*%
D21*
%TO.P,R10,1*%
%TO.N,+5V*%
X-17510000Y-11000000D03*
%TO.P,R10,2*%
%TO.N,Net-(D9-Pad2)*%
X-16490000Y-11000000D03*
%TD*%
D22*
%TO.P,D8,1,K*%
%TO.N,Net-(D3-Pad2)*%
X-17685000Y9800001D03*
%TO.P,D8,2,A*%
%TO.N,Net-(D8-Pad2)*%
X-16715000Y9800001D03*
%TD*%
D20*
%TO.P,D3,1,K*%
%TO.N,+5V*%
X-12500000Y1650001D03*
%TO.P,D3,2,A*%
%TO.N,Net-(D3-Pad2)*%
X-12500000Y4150001D03*
%TD*%
D21*
%TO.P,R9,1*%
%TO.N,+5V*%
X-17710001Y11000000D03*
%TO.P,R9,2*%
%TO.N,Net-(D8-Pad2)*%
X-16690001Y11000000D03*
%TD*%
D23*
%TO.P,J1,1,Pin_1*%
%TO.N,+5V*%
X-7000002Y14575002D03*
%TO.P,J1,2,Pin_2*%
%TO.N,/PUMP2_ON*%
X-6000002Y14575002D03*
%TO.P,J1,3,Pin_3*%
%TO.N,/PUMP1_ON*%
X-5000002Y14575002D03*
%TO.P,J1,4,Pin_4*%
%TO.N,/LED_ON*%
X-4000002Y14575002D03*
%TO.P,J1,5,Pin_5*%
%TO.N,GND*%
X-3000002Y14575002D03*
D24*
%TO.P,J1,MP,MountPin*%
X-1700002Y17100002D03*
X-8300002Y17100002D03*
%TD*%
D22*
%TO.P,D9,1,K*%
%TO.N,Net-(D7-Pad2)*%
X-17484999Y-9800001D03*
%TO.P,D9,2,A*%
%TO.N,Net-(D9-Pad2)*%
X-16514999Y-9800001D03*
%TD*%
D13*
%TO.P,H3,1,1*%
%TO.N,GND*%
X-14000000Y-14000001D03*
D12*
X-14000000Y-14000001D03*
%TD*%
D25*
%TO.P,R4,1*%
%TO.N,+5V*%
X-9408434Y-7466022D03*
%TO.P,R4,2*%
%TO.N,Net-(D4-Pad2)*%
X-10007974Y-6640824D03*
%TD*%
D26*
%TO.P,D6,1,K*%
%TO.N,Net-(D1-Pad1)*%
X5598237Y-13427224D03*
%TO.P,D6,2,A*%
%TO.N,Net-(D6-Pad2)*%
X3363255Y-14153414D03*
%TD*%
D27*
%TO.P,R5,1*%
%TO.N,+5V*%
X3223165Y11570277D03*
%TO.P,R5,2*%
%TO.N,Net-(D5-Pad2)*%
X4193243Y11255079D03*
%TD*%
D12*
%TO.P,H4,1,1*%
%TO.N,GND*%
X-14000001Y14000000D03*
D13*
X-14000001Y14000000D03*
%TD*%
D28*
%TO.P,D4,1,K*%
%TO.N,Net-(D1-Pad1)*%
X-11213495Y-9234821D03*
D29*
%TO.P,D4,2,A*%
%TO.N,Net-(D4-Pad2)*%
X-12477233Y-7495434D03*
%TD*%
D30*
%TO.P,D1,1,K*%
%TO.N,Net-(D1-Pad1)*%
X14500000Y880000D03*
D31*
%TO.P,D1,2,A*%
%TO.N,Net-(D1-Pad2)*%
X14500000Y-1270000D03*
%TD*%
D17*
%TO.P,Q1,1*%
%TO.N,/PUMP1_ON*%
X-15662500Y6550000D03*
%TO.P,Q1,2*%
%TO.N,GND*%
X-15662500Y8450000D03*
%TO.P,Q1,3*%
%TO.N,Net-(D3-Pad2)*%
X-17537500Y7500000D03*
%TD*%
D32*
%TO.P,R8,1*%
%TO.N,+5V*%
X4193243Y-11255079D03*
%TO.P,R8,2*%
%TO.N,Net-(D6-Pad2)*%
X3223165Y-11570277D03*
%TD*%
D10*
%TO.P,J2,1,Pin_1*%
%TO.N,+5V*%
X-14874999Y2400001D03*
%TO.P,J2,2,Pin_2*%
%TO.N,Net-(D3-Pad2)*%
X-14874999Y3400001D03*
D11*
%TO.P,J2,MP,MountPin*%
X-17399999Y1100001D03*
X-17399999Y4700001D03*
%TD*%
D33*
%TO.P,D5,1,K*%
%TO.N,Net-(D1-Pad1)*%
X3363255Y14153414D03*
%TO.P,D5,2,A*%
%TO.N,Net-(D5-Pad2)*%
X5598237Y13427224D03*
%TD*%
D15*
%TO.P,R6,1*%
%TO.N,/LED_ON*%
X-4400001Y11710000D03*
%TO.P,R6,2*%
%TO.N,GND*%
X-4400001Y10690000D03*
%TD*%
%TO.P,R7,1*%
%TO.N,/PUMP2_ON*%
X-15300001Y-9890000D03*
%TO.P,R7,2*%
%TO.N,GND*%
X-15300001Y-10910000D03*
%TD*%
D13*
%TO.P,H2,1,1*%
%TO.N,GND*%
X14000001Y-14000000D03*
D12*
X14000001Y-14000000D03*
%TD*%
D34*
%TO.N,Net-(D1-Pad1)*%
X15600000Y0D03*
X-12620665Y9169450D03*
X-12620665Y-9169450D03*
X4820665Y14836482D03*
X4820665Y-14836482D03*
%TO.N,+5V*%
X-10816991Y7228609D03*
X-11200000Y-4150000D03*
X4502260Y-12206136D03*
X-17699998Y11999999D03*
X-17500000Y-12000000D03*
X3532182Y12521333D03*
X-11200000Y1650001D03*
X-15699999Y1400000D03*
X-8100000Y15100000D03*
X-15700000Y-4400000D03*
X-10217450Y-8053807D03*
X13000001Y510000D03*
%TO.N,/PUMP2_ON*%
X-14000000Y-8449998D03*
X-6599999Y13200000D03*
%TD*%
D35*
%TO.N,Net-(D1-Pad1)*%
X-12425981Y7940264D02*
X-12620665Y9169450D01*
X-12620665Y10279335D02*
X-12620665Y9169450D01*
X4385640Y13821221D02*
X3363254Y14153414D01*
X4511648Y13885425D02*
X4385640Y13821221D01*
X-6900000Y10700000D02*
X-12200000Y10700000D01*
X4542550Y-13980531D02*
X4670958Y-13728515D01*
X14500000Y300000D02*
X14800001Y0D01*
X4820665Y14836482D02*
X4511648Y13885425D01*
X14800001Y0D02*
X15600000Y0D01*
X-6800000Y10262498D02*
X-6800000Y10600000D01*
X-12200000Y10700000D02*
X-12620665Y10279335D01*
X-6800000Y10600000D02*
X-6900000Y10700000D01*
X-11213495Y-9234821D02*
X-11613189Y-8684689D01*
X4820665Y-14836482D02*
X4542550Y-13980531D01*
X14500000Y880000D02*
X14500000Y300000D01*
X4670958Y-13728515D02*
X5598238Y-13427224D01*
X-11613189Y-8684689D02*
X-11892550Y-8640443D01*
X-11892550Y-8640443D02*
X-12620665Y-9169450D01*
X-12247997Y7810951D02*
X-12425981Y7940264D01*
%TO.N,Net-(D1-Pad2)*%
X13000000Y-500000D02*
X12009999Y-499999D01*
X13770001Y-1270000D02*
X13000000Y-500000D01*
X12009999Y-499999D02*
X12000001Y-510001D01*
X14500000Y-1270000D02*
X13770001Y-1270000D01*
%TO.N,Net-(D2-Pad2)*%
X-10393677Y9121255D02*
X-10223328Y8045716D01*
X-9422401Y7463809D02*
X-9408433Y7466022D01*
X-10223328Y8045716D02*
X-9422401Y7463809D01*
X-10984261Y9550338D02*
X-10393677Y9121255D01*
D36*
%TO.N,+5V*%
X-15075000Y-3400000D02*
X-13250001Y-3400000D01*
X-13250001Y-3400000D02*
X-12500001Y-4150000D01*
D35*
X-17710000Y11990000D02*
X-17699998Y11999999D01*
X-9408434Y-7466022D02*
X-10217450Y-8053807D01*
X-17510000Y-11989999D02*
X-17500000Y-12000000D01*
X-10007975Y6640825D02*
X-10816991Y7228609D01*
D36*
X-15074999Y2400001D02*
X-13250001Y2400000D01*
X-15200000Y-4400000D02*
X-15700000Y-4400000D01*
X-11200000Y1650001D02*
X-12500000Y1650002D01*
D35*
X-17510000Y-11000000D02*
X-17510000Y-11989999D01*
D36*
X-12500001Y-4150000D02*
X-11200000Y-4150000D01*
X-13250001Y2400000D02*
X-12500002Y1650001D01*
D35*
X-17710000Y11000000D02*
X-17710000Y11990000D01*
D36*
X-14874999Y-4074998D02*
X-15200000Y-4400000D01*
D35*
X12000002Y510000D02*
X13000001Y510000D01*
D36*
X-15699999Y1400000D02*
X-15200000Y1400000D01*
X-15200000Y1400000D02*
X-14874999Y1725001D01*
X-7099999Y15099999D02*
X-8100000Y15100000D01*
D35*
X4193243Y-11255080D02*
X4502260Y-12206136D01*
D36*
X-14874999Y1725001D02*
X-14874999Y2400001D01*
D35*
X3223166Y11570278D02*
X3532182Y12521333D01*
D36*
X-14874999Y-3399999D02*
X-14874999Y-4074998D01*
D35*
%TO.N,Net-(D3-Pad2)*%
X-17685000Y7647500D02*
X-17537501Y7499999D01*
D36*
X-15074999Y3400001D02*
X-13250000Y3400002D01*
X-17600000Y4700001D02*
X-17599998Y7362503D01*
D35*
X-17685000Y9800002D02*
X-17685000Y7647500D01*
D36*
X-17600000Y1100000D02*
X-17600000Y4700001D01*
X-13250000Y3400002D02*
X-12500001Y4150001D01*
X-17600000Y4700001D02*
X-17599999Y3850000D01*
X-17150001Y3400001D02*
X-15074999Y3400001D01*
X-17599998Y7362503D02*
X-17737499Y7500001D01*
X-17599999Y3850000D02*
X-17150001Y3400001D01*
D35*
%TO.N,Net-(D4-Pad2)*%
X-10007973Y-6640826D02*
X-10825079Y-7234489D01*
X-10825079Y-7234489D02*
X-11886651Y-7066351D01*
X-11886651Y-7066351D02*
X-12477234Y-7495435D01*
%TO.N,Net-(D5-Pad2)*%
X4186822Y11267680D02*
X4193244Y11255081D01*
X4492749Y12209226D02*
X4186822Y11267680D01*
X5598239Y13427225D02*
X5343298Y12642602D01*
X5343298Y12642602D02*
X4492749Y12209226D01*
%TO.N,Net-(D6-Pad2)*%
X3108314Y-13368792D02*
X3541693Y-12518243D01*
X3541693Y-12518243D02*
X3235766Y-11576697D01*
X3235766Y-11576697D02*
X3223165Y-11570277D01*
X3363254Y-14153416D02*
X3108314Y-13368792D01*
D36*
%TO.N,Net-(D7-Pad2)*%
X-17599999Y-1100001D02*
X-17600002Y-4700000D01*
X-17600002Y-1949999D02*
X-17150000Y-2400002D01*
X-13250001Y-2400001D02*
X-12500001Y-1649999D01*
X-15075000Y-2400001D02*
X-13250001Y-2400001D01*
X-17599999Y-1100001D02*
X-17600002Y-1949999D01*
D35*
X-17485000Y-9799999D02*
X-17485001Y-7552498D01*
D36*
X-17600002Y-4700000D02*
X-17600000Y-7362497D01*
D35*
X-17485001Y-7552498D02*
X-17537500Y-7499999D01*
D36*
X-17150000Y-2400002D02*
X-15075000Y-2400001D01*
D35*
%TO.N,/PUMP2_ON*%
X-15300001Y-8600000D02*
X-15300000Y-9890000D01*
X-15662500Y-8449998D02*
X-14000000Y-8449998D01*
X-6599999Y13200000D02*
X-6000003Y13799998D01*
X-6000003Y13799998D02*
X-6000002Y14575001D01*
X-15450001Y-8449998D02*
X-15300001Y-8600000D01*
%TO.N,/PUMP1_ON*%
X-15310000Y11100000D02*
X-15500000Y10910000D01*
X-5200000Y15700000D02*
X-8400000Y15700001D01*
X-13800000Y11100000D02*
X-15310000Y11100000D01*
X-9800000Y11100000D02*
X-13800000Y11100000D01*
X-14200000Y6999999D02*
X-14200000Y10700000D01*
X-15662500Y6550000D02*
X-14650000Y6550000D01*
X-8400000Y15700001D02*
X-9400000Y14699999D01*
X-9400000Y14699999D02*
X-9399999Y11500001D01*
X-5000002Y14575001D02*
X-5000005Y15500002D01*
X-14200000Y10700000D02*
X-13800000Y11100000D01*
X-9399999Y11500001D02*
X-9800000Y11100000D01*
X-14650000Y6550000D02*
X-14200000Y6999999D01*
X-5000005Y15500002D02*
X-5200000Y15700000D01*
%TO.N,/LED_ON*%
X-4399999Y11710001D02*
X-4909999Y11710000D01*
X-5337502Y12137500D02*
X-5850000Y12137500D01*
X-5850000Y12137500D02*
X-5850000Y13050000D01*
X-4000004Y14574999D02*
X-4000001Y13599998D01*
X-4300000Y13300000D02*
X-4000001Y13599998D01*
X-5850000Y13050000D02*
X-5600000Y13299998D01*
X-5600000Y13299998D02*
X-4300000Y13300000D01*
X-4909999Y11710000D02*
X-5337502Y12137500D01*
%TO.N,Net-(D8-Pad2)*%
X-16690001Y9825000D02*
X-16715000Y9800001D01*
X-16690001Y11000000D02*
X-16690001Y9825000D01*
%TO.N,Net-(D9-Pad2)*%
X-16490001Y-9825000D02*
X-16515000Y-9800000D01*
X-16490000Y-11000001D02*
X-16490001Y-9825000D01*
%TD*%
%TA.AperFunction,Conductor*%
%TO.N,GND*%
G36*
X-8765878Y18281194D02*
G01*
X-8747572Y18237000D01*
X-8765878Y18192806D01*
X-8789364Y18178030D01*
X-8858539Y18153738D01*
X-8866709Y18149411D01*
X-8968037Y18074569D01*
X-8974569Y18068037D01*
X-9049411Y17966709D01*
X-9053738Y17958539D01*
X-9095762Y17838869D01*
X-9097382Y17831485D01*
X-9099864Y17805237D01*
X-9100002Y17802298D01*
X-9100002Y17177433D01*
X-9096361Y17168643D01*
X-9087571Y17165002D01*
X-7512434Y17165002D01*
X-7503644Y17168643D01*
X-7500003Y17177433D01*
X-7500003Y17802296D01*
X-7500142Y17805240D01*
X-7502622Y17831487D01*
X-7504241Y17838867D01*
X-7546266Y17958539D01*
X-7550593Y17966709D01*
X-7625435Y18068037D01*
X-7631967Y18074569D01*
X-7733295Y18149411D01*
X-7741465Y18153738D01*
X-7810640Y18178030D01*
X-7846273Y18209945D01*
X-7848902Y18257708D01*
X-7816987Y18293341D01*
X-7789932Y18299500D01*
X-2210072Y18299500D01*
X-2165878Y18281194D01*
X-2147572Y18237000D01*
X-2165878Y18192806D01*
X-2189364Y18178030D01*
X-2258539Y18153738D01*
X-2266709Y18149411D01*
X-2368037Y18074569D01*
X-2374569Y18068037D01*
X-2449411Y17966709D01*
X-2453738Y17958539D01*
X-2495762Y17838869D01*
X-2497382Y17831485D01*
X-2499864Y17805237D01*
X-2500002Y17802298D01*
X-2500002Y17177433D01*
X-2496361Y17168643D01*
X-2487571Y17165002D01*
X-912434Y17165002D01*
X-903644Y17168643D01*
X-900003Y17177433D01*
X-900003Y17802296D01*
X-900142Y17805240D01*
X-902622Y17831487D01*
X-904241Y17838867D01*
X-946266Y17958539D01*
X-950593Y17966709D01*
X-1025435Y18068037D01*
X-1031967Y18074569D01*
X-1133295Y18149411D01*
X-1141465Y18153738D01*
X-1210640Y18178030D01*
X-1246273Y18209945D01*
X-1248902Y18257708D01*
X-1216987Y18293341D01*
X-1189932Y18299500D01*
X-479876Y18299500D01*
X-465869Y18297910D01*
X-450362Y18294344D01*
X-443496Y18295898D01*
X-436460Y18295885D01*
X-436461Y18295157D01*
X-424954Y18295532D01*
X-367227Y18286388D01*
X-348634Y18280347D01*
X-282779Y18246792D01*
X-266960Y18235298D01*
X-214703Y18183041D01*
X-203210Y18167222D01*
X-169655Y18101369D01*
X-163611Y18082770D01*
X-154534Y18025456D01*
X-154919Y18014254D01*
X-154068Y18014253D01*
X-154080Y18007215D01*
X-155657Y18000357D01*
X-154104Y17993494D01*
X-154104Y17993493D01*
X-152042Y17984382D01*
X-150501Y17970588D01*
X-150500Y17021209D01*
X-152115Y17007095D01*
X-155655Y16991824D01*
X-155656Y16991106D01*
X-154872Y16987669D01*
X-154872Y16987668D01*
X-154464Y16985880D01*
X-153277Y16978838D01*
X-144623Y16900392D01*
X-137684Y16837485D01*
X-87653Y16691255D01*
X-6945Y16559451D01*
X100557Y16448412D01*
X103428Y16446524D01*
X103430Y16446522D01*
X163195Y16407213D01*
X229682Y16363482D01*
X374216Y16308746D01*
X513800Y16288758D01*
X521016Y16287286D01*
X523035Y16286748D01*
X523042Y16286747D01*
X526457Y16285838D01*
X526807Y16285826D01*
X526812Y16285825D01*
X526817Y16285826D01*
X527175Y16285814D01*
X540367Y16288377D01*
X555665Y16289432D01*
X1208031Y16254087D01*
X1234488Y16252654D01*
X1237201Y16252448D01*
X1940668Y16183526D01*
X1943370Y16183202D01*
X2643168Y16083730D01*
X2645852Y16083289D01*
X3340670Y15953453D01*
X3343333Y15952895D01*
X3754472Y15857380D01*
X4031851Y15792940D01*
X4034482Y15792267D01*
X4715338Y15602510D01*
X4717943Y15601723D01*
X5226439Y15435838D01*
X5372245Y15388272D01*
X5389941Y15382499D01*
X5392502Y15381601D01*
X6054309Y15133343D01*
X6056819Y15132339D01*
X6707204Y14855508D01*
X6709662Y14854399D01*
X7059821Y14686999D01*
X7347391Y14549521D01*
X7349820Y14548294D01*
X7973647Y14215964D01*
X7976020Y14214633D01*
X8175279Y14097074D01*
X8561156Y13869413D01*
X8573462Y13859905D01*
X8582651Y13850768D01*
X8583260Y13850389D01*
X8586607Y13849241D01*
X8587343Y13848891D01*
X8594229Y13845974D01*
X8737677Y13772921D01*
X8763426Y13759808D01*
X8765924Y13759026D01*
X8765928Y13759024D01*
X8952569Y13700572D01*
X8955778Y13699567D01*
X8996143Y13694044D01*
X9152884Y13672597D01*
X9152890Y13672597D01*
X9155482Y13672242D01*
X9240403Y13674922D01*
X9354330Y13678516D01*
X9354335Y13678517D01*
X9356946Y13678599D01*
X9359506Y13679115D01*
X9359511Y13679116D01*
X9510715Y13709619D01*
X9554531Y13718458D01*
X9742702Y13790705D01*
X9797264Y13822976D01*
X9913938Y13891983D01*
X9913940Y13891985D01*
X9916193Y13893317D01*
X9923257Y13899286D01*
X10052834Y14008790D01*
X10060444Y14015220D01*
X10066818Y14019864D01*
X10066872Y14019907D01*
X11895331Y14019907D01*
X11911568Y13738317D01*
X11912101Y13734095D01*
X11966408Y13457292D01*
X11967504Y13453201D01*
X12058877Y13186325D01*
X12060516Y13182423D01*
X12187261Y12930419D01*
X12189425Y12926760D01*
X12349189Y12694302D01*
X12351834Y12690964D01*
X12461242Y12570727D01*
X12469066Y12567045D01*
X12478942Y12570866D01*
X13899286Y13991211D01*
X13902927Y14000001D01*
X14097073Y14000001D01*
X14100714Y13991211D01*
X15521580Y12570344D01*
X15530104Y12566813D01*
X15539199Y12570664D01*
X15606247Y12639853D01*
X15608976Y12643083D01*
X15775969Y12870416D01*
X15778250Y12874009D01*
X15912843Y13121902D01*
X15914608Y13125757D01*
X16014317Y13389625D01*
X16015543Y13393686D01*
X16078520Y13668660D01*
X16079180Y13672826D01*
X16104336Y13954699D01*
X16104458Y13957143D01*
X16104894Y13998776D01*
X16104823Y14001232D01*
X16085578Y14283535D01*
X16084998Y14287767D01*
X16027800Y14563968D01*
X16026659Y14568055D01*
X15932497Y14833959D01*
X15930816Y14837842D01*
X15801435Y15088515D01*
X15799239Y15092141D01*
X15637039Y15322928D01*
X15634378Y15326214D01*
X15538683Y15429193D01*
X15530645Y15432873D01*
X15521008Y15429086D01*
X14539360Y14447437D01*
X14100714Y14008791D01*
X14097073Y14000001D01*
X13902927Y14000001D01*
X13899286Y14008791D01*
X12478576Y15429502D01*
X12470230Y15432959D01*
X12460935Y15428965D01*
X12379609Y15343266D01*
X12376895Y15339985D01*
X12212296Y15110920D01*
X12210061Y15107317D01*
X12078069Y14858026D01*
X12076340Y14854143D01*
X11979406Y14589259D01*
X11978215Y14585161D01*
X11918127Y14309571D01*
X11917507Y14305372D01*
X11895376Y14024175D01*
X11895331Y14019907D01*
X10066872Y14019907D01*
X10067368Y14020300D01*
X10070375Y14022176D01*
X10070883Y14022683D01*
X10079475Y14036353D01*
X10088197Y14047288D01*
X11573220Y15532311D01*
X12564278Y15532311D01*
X12567793Y15524131D01*
X13525873Y14566052D01*
X13991210Y14100715D01*
X14000000Y14097074D01*
X14008790Y14100715D01*
X15432879Y15524803D01*
X15436776Y15534211D01*
X15434700Y15539493D01*
X15220983Y15714418D01*
X15217515Y15716883D01*
X14977013Y15864263D01*
X14973244Y15866233D01*
X14714953Y15979616D01*
X14710972Y15981049D01*
X14439680Y16058328D01*
X14435525Y16059211D01*
X14156273Y16098954D01*
X14152028Y16099266D01*
X13869969Y16100743D01*
X13865712Y16100475D01*
X13586070Y16063660D01*
X13581891Y16062818D01*
X13309822Y15988388D01*
X13305805Y15986989D01*
X13046348Y15876321D01*
X13042566Y15874394D01*
X12800532Y15729540D01*
X12797038Y15727112D01*
X12576897Y15550746D01*
X12573775Y15547874D01*
X12567859Y15541640D01*
X12564278Y15532311D01*
X11573220Y15532311D01*
X11999327Y15958418D01*
X12010355Y15967198D01*
X12010702Y15967415D01*
X12023847Y15975645D01*
X12029091Y15983956D01*
X12040397Y15997292D01*
X12260934Y16193553D01*
X12266636Y16198061D01*
X12399306Y16290957D01*
X12527344Y16380610D01*
X12533526Y16384424D01*
X12552709Y16394767D01*
X12716621Y16483148D01*
X12813684Y16535484D01*
X12820272Y16538555D01*
X13116050Y16656060D01*
X13122949Y16658346D01*
X13430374Y16740720D01*
X13437492Y16742190D01*
X13631447Y16770600D01*
X13752405Y16788318D01*
X13759638Y16788952D01*
X13910194Y16793333D01*
X14077790Y16798209D01*
X14085055Y16797997D01*
X14189653Y16788846D01*
X14402112Y16770258D01*
X14409293Y16769207D01*
X14599664Y16729898D01*
X14720999Y16704844D01*
X14728019Y16702963D01*
X15030139Y16602851D01*
X15036893Y16600167D01*
X15325342Y16465662D01*
X15331737Y16462215D01*
X15422654Y16406136D01*
X15602628Y16295126D01*
X15608582Y16290957D01*
X15858243Y16093551D01*
X15863672Y16088719D01*
X16088719Y15863672D01*
X16093551Y15858243D01*
X16290957Y15608582D01*
X16295126Y15602628D01*
X16367761Y15484870D01*
X16459231Y15336575D01*
X16462213Y15331740D01*
X16465662Y15325342D01*
X16600167Y15036893D01*
X16602851Y15030139D01*
X16702963Y14728019D01*
X16704844Y14720999D01*
X16765549Y14427010D01*
X16769206Y14409298D01*
X16770258Y14402112D01*
X16782680Y14260130D01*
X16797997Y14085055D01*
X16798209Y14077790D01*
X16793591Y13919092D01*
X16789165Y13766949D01*
X16788952Y13759642D01*
X16788318Y13752405D01*
X16775475Y13664723D01*
X16742190Y13437492D01*
X16740720Y13430374D01*
X16658346Y13122949D01*
X16656060Y13116050D01*
X16538555Y12820272D01*
X16535484Y12813684D01*
X16473864Y12699402D01*
X16404276Y12570343D01*
X16384424Y12533526D01*
X16380610Y12527344D01*
X16319738Y12440410D01*
X16198061Y12266636D01*
X16193553Y12260934D01*
X16000930Y12044484D01*
X15997595Y12040737D01*
X15984072Y12029312D01*
X15976153Y12024355D01*
X15967410Y12010498D01*
X15958750Y11999660D01*
X14047617Y10088526D01*
X14036496Y10079688D01*
X14026201Y10073268D01*
X14026198Y10073266D01*
X14023192Y10071391D01*
X14022684Y10070884D01*
X14020809Y10067900D01*
X14020268Y10067223D01*
X14015907Y10061259D01*
X13895009Y9918202D01*
X13895002Y9918193D01*
X13893315Y9916196D01*
X13891983Y9913943D01*
X13891981Y9913941D01*
X13837223Y9821359D01*
X13790702Y9742704D01*
X13789764Y9740261D01*
X13734680Y9596792D01*
X13718454Y9554532D01*
X13678594Y9356947D01*
X13672237Y9155481D01*
X13672592Y9152889D01*
X13672592Y9152883D01*
X13674771Y9136960D01*
X13699563Y8955776D01*
X13700345Y8953279D01*
X13752297Y8787398D01*
X13759805Y8763424D01*
X13760993Y8761092D01*
X13760993Y8761091D01*
X13845512Y8595129D01*
X13848597Y8587812D01*
X13848884Y8587201D01*
X13850014Y8583870D01*
X13850200Y8583568D01*
X13850201Y8583566D01*
X13850203Y8583564D01*
X13850391Y8583259D01*
X13852879Y8580739D01*
X13852884Y8580733D01*
X13859640Y8573891D01*
X13869070Y8561611D01*
X14251944Y7909149D01*
X14253397Y7906529D01*
X14616765Y7212675D01*
X14618099Y7209972D01*
X14947581Y6499410D01*
X14948783Y6496645D01*
X15243619Y5771013D01*
X15244683Y5768201D01*
X15489253Y5071716D01*
X15504182Y5029200D01*
X15505108Y5026345D01*
X15725380Y4286729D01*
X15728668Y4275690D01*
X15729456Y4272793D01*
X15900425Y3577806D01*
X15916563Y3512203D01*
X15917208Y3509276D01*
X15947708Y3353189D01*
X16067413Y2740575D01*
X16067920Y2737603D01*
X16126533Y2335450D01*
X16180766Y1963347D01*
X16180884Y1962534D01*
X16181245Y1959552D01*
X16256697Y1179963D01*
X16256914Y1176968D01*
X16282476Y647509D01*
X16294685Y394637D01*
X16294758Y391623D01*
X16294758Y-391624D01*
X16294685Y-394638D01*
X16259022Y-1133323D01*
X16256915Y-1176957D01*
X16256698Y-1179953D01*
X16181353Y-1958438D01*
X16181246Y-1959541D01*
X16180885Y-1962523D01*
X16137732Y-2258606D01*
X16067919Y-2737604D01*
X16067412Y-2740576D01*
X16024773Y-2958791D01*
X15917957Y-3505448D01*
X15917212Y-3509260D01*
X15916567Y-3512187D01*
X15729459Y-4272781D01*
X15728671Y-4275677D01*
X15535057Y-4925786D01*
X15505112Y-5026333D01*
X15504186Y-5029189D01*
X15244686Y-5768194D01*
X15243622Y-5771007D01*
X15126436Y-6059417D01*
X14948783Y-6496645D01*
X14947581Y-6499410D01*
X14618099Y-7209972D01*
X14616765Y-7212675D01*
X14253396Y-7906530D01*
X14251943Y-7909150D01*
X13925923Y-8464727D01*
X13869303Y-8561214D01*
X13859719Y-8573650D01*
X13853265Y-8580140D01*
X13853262Y-8580144D01*
X13850766Y-8582654D01*
X13850387Y-8583264D01*
X13849242Y-8586602D01*
X13848858Y-8587411D01*
X13845993Y-8594171D01*
X13826110Y-8633216D01*
X13759802Y-8763426D01*
X13699563Y-8955778D01*
X13672241Y-9155482D01*
X13678598Y-9356946D01*
X13718459Y-9554530D01*
X13719398Y-9556975D01*
X13719398Y-9556976D01*
X13769136Y-9686521D01*
X13790706Y-9742701D01*
X13792038Y-9744953D01*
X13889516Y-9909765D01*
X13893317Y-9916192D01*
X13895009Y-9918194D01*
X13895011Y-9918197D01*
X14015216Y-10060439D01*
X14019859Y-10066811D01*
X14020299Y-10067365D01*
X14022175Y-10070374D01*
X14022682Y-10070882D01*
X14025661Y-10072754D01*
X14025663Y-10072756D01*
X14036354Y-10079476D01*
X14047289Y-10088198D01*
X15958418Y-11999327D01*
X15967198Y-12010355D01*
X15975645Y-12023847D01*
X15983956Y-12029091D01*
X15997292Y-12040397D01*
X16193553Y-12260934D01*
X16198061Y-12266636D01*
X16211658Y-12286054D01*
X16379290Y-12525458D01*
X16380608Y-12527341D01*
X16384423Y-12533524D01*
X16453737Y-12662075D01*
X16535484Y-12813684D01*
X16538555Y-12820272D01*
X16656060Y-13116050D01*
X16658346Y-13122949D01*
X16740720Y-13430374D01*
X16742190Y-13437492D01*
X16754227Y-13519666D01*
X16787326Y-13745627D01*
X16788318Y-13752402D01*
X16788952Y-13759638D01*
X16792803Y-13891982D01*
X16798209Y-14077790D01*
X16797997Y-14085055D01*
X16787808Y-14201517D01*
X16773682Y-14362986D01*
X16770259Y-14402106D01*
X16769207Y-14409293D01*
X16739256Y-14554342D01*
X16704844Y-14720999D01*
X16702963Y-14728019D01*
X16602851Y-15030139D01*
X16600167Y-15036893D01*
X16465662Y-15325342D01*
X16462215Y-15331737D01*
X16444690Y-15360149D01*
X16295126Y-15602628D01*
X16290957Y-15608582D01*
X16093551Y-15858243D01*
X16088719Y-15863672D01*
X15863672Y-16088719D01*
X15858243Y-16093551D01*
X15608582Y-16290957D01*
X15602628Y-16295126D01*
X15331740Y-16462213D01*
X15325342Y-16465662D01*
X15036893Y-16600167D01*
X15030139Y-16602851D01*
X14728019Y-16702963D01*
X14720999Y-16704844D01*
X14720452Y-16704957D01*
X14409293Y-16769207D01*
X14402112Y-16770258D01*
X14219047Y-16786274D01*
X14085055Y-16797997D01*
X14077790Y-16798209D01*
X13910194Y-16793333D01*
X13759638Y-16788952D01*
X13752405Y-16788318D01*
X13621927Y-16769206D01*
X13437492Y-16742190D01*
X13430374Y-16740720D01*
X13122949Y-16658346D01*
X13116050Y-16656060D01*
X12820272Y-16538555D01*
X12813684Y-16535484D01*
X12673605Y-16459954D01*
X12533524Y-16384423D01*
X12527341Y-16380608D01*
X12402531Y-16293215D01*
X12350690Y-16256916D01*
X12266636Y-16198061D01*
X12260934Y-16193553D01*
X12157795Y-16101767D01*
X12040736Y-15997594D01*
X12029312Y-15984071D01*
X12028091Y-15982121D01*
X12024355Y-15976153D01*
X12010498Y-15967410D01*
X11999660Y-15958750D01*
X11573619Y-15532709D01*
X12564364Y-15532709D01*
X12567093Y-15539296D01*
X12761137Y-15701542D01*
X12764574Y-15704039D01*
X13003522Y-15853930D01*
X13007262Y-15855936D01*
X13264347Y-15972014D01*
X13268336Y-15973497D01*
X13538790Y-16053610D01*
X13542931Y-16054535D01*
X13821765Y-16097203D01*
X13825996Y-16097558D01*
X14108036Y-16101989D01*
X14112275Y-16101766D01*
X14392305Y-16067879D01*
X14396482Y-16067082D01*
X14669326Y-15995503D01*
X14673339Y-15994153D01*
X14933961Y-15886200D01*
X14937750Y-15884319D01*
X15181294Y-15742003D01*
X15184811Y-15739613D01*
X15406777Y-15565570D01*
X15409948Y-15562715D01*
X15431241Y-15540742D01*
X15434849Y-15531629D01*
X15431280Y-15523202D01*
X14008791Y-14100714D01*
X14000001Y-14097073D01*
X13991211Y-14100714D01*
X13315468Y-14776457D01*
X12957018Y-15134906D01*
X12568005Y-15523919D01*
X12564364Y-15532709D01*
X11573619Y-15532709D01*
X10088526Y-14047617D01*
X10079688Y-14036497D01*
X10073266Y-14026199D01*
X10073264Y-14026197D01*
X10071389Y-14023190D01*
X10070882Y-14022682D01*
X10067905Y-14020811D01*
X10067200Y-14020248D01*
X10061272Y-14015914D01*
X10047365Y-14004161D01*
X10018886Y-13980094D01*
X11895332Y-13980094D01*
X11911569Y-14261684D01*
X11912102Y-14265906D01*
X11966409Y-14542709D01*
X11967505Y-14546800D01*
X12058878Y-14813676D01*
X12060517Y-14817578D01*
X12187262Y-15069582D01*
X12189426Y-15073241D01*
X12349190Y-15305699D01*
X12351835Y-15309037D01*
X12461243Y-15429274D01*
X12469067Y-15432956D01*
X12478943Y-15429135D01*
X13899287Y-14008790D01*
X13902928Y-14000000D01*
X14097074Y-14000000D01*
X14100715Y-14008790D01*
X15521581Y-15429657D01*
X15530105Y-15433188D01*
X15539200Y-15429337D01*
X15606248Y-15360148D01*
X15608977Y-15356918D01*
X15775970Y-15129585D01*
X15778251Y-15125992D01*
X15912844Y-14878099D01*
X15914609Y-14874244D01*
X16014318Y-14610376D01*
X16015544Y-14606315D01*
X16078521Y-14331341D01*
X16079181Y-14327175D01*
X16104337Y-14045302D01*
X16104459Y-14042858D01*
X16104895Y-14001225D01*
X16104824Y-13998769D01*
X16085579Y-13716466D01*
X16084999Y-13712234D01*
X16027801Y-13436033D01*
X16026660Y-13431946D01*
X15932498Y-13166042D01*
X15930817Y-13162159D01*
X15801436Y-12911486D01*
X15799240Y-12907860D01*
X15637040Y-12677073D01*
X15634379Y-12673787D01*
X15538684Y-12570808D01*
X15530646Y-12567128D01*
X15521009Y-12570915D01*
X14100715Y-13991210D01*
X14097074Y-14000000D01*
X13902928Y-14000000D01*
X13899287Y-13991210D01*
X12478577Y-12570499D01*
X12470231Y-12567042D01*
X12460936Y-12571036D01*
X12379610Y-12656735D01*
X12376896Y-12660016D01*
X12212297Y-12889081D01*
X12210062Y-12892684D01*
X12078070Y-13141975D01*
X12076341Y-13145858D01*
X11979407Y-13410742D01*
X11978216Y-13414840D01*
X11918128Y-13690430D01*
X11917508Y-13694629D01*
X11895377Y-13975826D01*
X11895332Y-13980094D01*
X10018886Y-13980094D01*
X9936759Y-13910691D01*
X9918199Y-13895006D01*
X9918195Y-13895003D01*
X9916195Y-13893313D01*
X9742703Y-13790702D01*
X9625301Y-13745627D01*
X9556977Y-13719395D01*
X9556976Y-13719395D01*
X9554531Y-13718456D01*
X9356946Y-13678596D01*
X9155482Y-13672240D01*
X9152890Y-13672595D01*
X9152884Y-13672595D01*
X9024545Y-13690156D01*
X8955778Y-13699565D01*
X8953281Y-13700347D01*
X8765927Y-13759022D01*
X8765923Y-13759024D01*
X8763425Y-13759806D01*
X8761093Y-13760993D01*
X8761087Y-13760996D01*
X8595133Y-13845509D01*
X8587900Y-13848559D01*
X8587246Y-13848868D01*
X8583872Y-13850012D01*
X8583567Y-13850201D01*
X8583566Y-13850201D01*
X8583565Y-13850202D01*
X8583261Y-13850390D01*
X8580754Y-13852866D01*
X8580752Y-13852867D01*
X8573895Y-13859637D01*
X8561615Y-13869067D01*
X7909149Y-14251943D01*
X7906547Y-14253387D01*
X7574368Y-14427348D01*
X7212676Y-14616765D01*
X7209972Y-14618099D01*
X6499410Y-14947581D01*
X6496645Y-14948783D01*
X6272564Y-15039831D01*
X5834727Y-15217732D01*
X5771013Y-15243620D01*
X5768201Y-15244684D01*
X5029188Y-15504187D01*
X5026345Y-15505109D01*
X4275677Y-15728671D01*
X4272793Y-15729456D01*
X3512186Y-15916567D01*
X3509276Y-15917208D01*
X3166844Y-15984120D01*
X2740575Y-16067413D01*
X2737603Y-16067920D01*
X2258186Y-16137794D01*
X1962523Y-16180885D01*
X1959552Y-16181245D01*
X1179952Y-16256699D01*
X1176968Y-16256915D01*
X425086Y-16293215D01*
X394638Y-16294685D01*
X391624Y-16294758D01*
X-391624Y-16294758D01*
X-394638Y-16294685D01*
X-396721Y-16294584D01*
X-1176969Y-16256914D01*
X-1179953Y-16256698D01*
X-1959552Y-16181245D01*
X-1962523Y-16180885D01*
X-2258677Y-16137722D01*
X-2737603Y-16067919D01*
X-2740575Y-16067412D01*
X-3128891Y-15991535D01*
X-3509276Y-15917207D01*
X-3512186Y-15916566D01*
X-4272793Y-15729455D01*
X-4275686Y-15728668D01*
X-5026345Y-15505108D01*
X-5029188Y-15504186D01*
X-5768201Y-15244683D01*
X-5771013Y-15243619D01*
X-5809807Y-15227856D01*
X-6279160Y-15037150D01*
X-6496645Y-14948782D01*
X-6499410Y-14947580D01*
X-7209972Y-14618098D01*
X-7212676Y-14616764D01*
X-7575012Y-14427010D01*
X-7906547Y-14253386D01*
X-7909149Y-14251942D01*
X-8561218Y-13869299D01*
X-8573654Y-13859715D01*
X-8580144Y-13853261D01*
X-8580148Y-13853258D01*
X-8582652Y-13850768D01*
X-8582954Y-13850580D01*
X-8582956Y-13850578D01*
X-8582959Y-13850577D01*
X-8583261Y-13850389D01*
X-8588797Y-13848490D01*
X-8589555Y-13847953D01*
X-8594188Y-13845990D01*
X-8763425Y-13759805D01*
X-8789780Y-13751551D01*
X2324358Y-13751551D01*
X2325081Y-13757660D01*
X2325081Y-13757662D01*
X2326526Y-13769871D01*
X2331367Y-13810767D01*
X2332315Y-13813685D01*
X2332316Y-13813689D01*
X2495822Y-14316908D01*
X2729843Y-15037150D01*
X2731342Y-15039827D01*
X2731344Y-15039831D01*
X2755971Y-15083805D01*
X2758979Y-15089176D01*
X2763813Y-15092987D01*
X2763814Y-15092988D01*
X2790299Y-15113867D01*
X2821619Y-15138557D01*
X2898388Y-15160209D01*
X2904497Y-15159486D01*
X2904499Y-15159486D01*
X2954554Y-15153561D01*
X2957604Y-15153200D01*
X2960522Y-15152252D01*
X2960526Y-15152251D01*
X4237720Y-14737265D01*
X4285408Y-14741018D01*
X4316475Y-14777392D01*
X4318790Y-14806321D01*
X4315056Y-14830305D01*
X4315633Y-14834718D01*
X4315633Y-14834720D01*
X4317164Y-14846424D01*
X4333645Y-14972461D01*
X4335438Y-14976536D01*
X4382638Y-15083805D01*
X4391385Y-15103685D01*
X4394249Y-15107092D01*
X4480772Y-15210025D01*
X4480775Y-15210028D01*
X4483635Y-15213430D01*
X4602978Y-15292872D01*
X4607229Y-15294200D01*
X4735570Y-15334296D01*
X4735573Y-15334296D01*
X4739822Y-15335624D01*
X4744274Y-15335706D01*
X4744276Y-15335706D01*
X4815307Y-15337008D01*
X4883164Y-15338252D01*
X5021482Y-15300542D01*
X5143656Y-15225527D01*
X5239865Y-15119236D01*
X5302375Y-14990215D01*
X5304677Y-14976536D01*
X5313979Y-14921243D01*
X5326161Y-14848836D01*
X5326312Y-14836482D01*
X5305988Y-14694564D01*
X5246649Y-14564054D01*
X5203915Y-14514459D01*
X5188935Y-14469029D01*
X5210465Y-14426313D01*
X5231948Y-14414220D01*
X6514075Y-13997632D01*
X6516752Y-13996133D01*
X6516756Y-13996131D01*
X6560730Y-13971504D01*
X6566101Y-13968496D01*
X6615482Y-13905856D01*
X6637134Y-13829087D01*
X6635312Y-13813689D01*
X6630486Y-13772921D01*
X6630125Y-13769871D01*
X6627242Y-13760996D01*
X6388871Y-13027368D01*
X6231649Y-12543488D01*
X6222607Y-12527341D01*
X6205521Y-12496833D01*
X6202513Y-12491462D01*
X6197679Y-12487651D01*
X6197678Y-12487650D01*
X6172358Y-12467690D01*
X12564279Y-12467690D01*
X12567794Y-12475870D01*
X13525817Y-13433892D01*
X13991211Y-13899286D01*
X14000001Y-13902927D01*
X14008791Y-13899286D01*
X14474185Y-13433892D01*
X15432880Y-12475198D01*
X15436777Y-12465790D01*
X15434701Y-12460508D01*
X15220984Y-12285583D01*
X15217516Y-12283118D01*
X14977014Y-12135738D01*
X14973245Y-12133768D01*
X14714954Y-12020385D01*
X14710973Y-12018952D01*
X14439681Y-11941673D01*
X14435526Y-11940790D01*
X14156274Y-11901047D01*
X14152029Y-11900735D01*
X13869970Y-11899258D01*
X13865713Y-11899526D01*
X13586071Y-11936341D01*
X13581892Y-11937183D01*
X13309823Y-12011613D01*
X13305806Y-12013012D01*
X13046349Y-12123680D01*
X13042567Y-12125607D01*
X12800533Y-12270461D01*
X12797039Y-12272889D01*
X12576898Y-12449255D01*
X12573776Y-12452127D01*
X12567860Y-12458361D01*
X12564279Y-12467690D01*
X6172358Y-12467690D01*
X6163248Y-12460508D01*
X6139873Y-12442081D01*
X6063104Y-12420429D01*
X6056995Y-12421152D01*
X6056993Y-12421152D01*
X6008167Y-12426932D01*
X6003888Y-12427438D01*
X6000970Y-12428386D01*
X6000966Y-12428387D01*
X5487628Y-12595181D01*
X4682399Y-12856816D01*
X4679722Y-12858315D01*
X4679718Y-12858317D01*
X4635744Y-12882944D01*
X4630373Y-12885952D01*
X4580992Y-12948592D01*
X4559340Y-13025361D01*
X4566349Y-13084577D01*
X4567297Y-13087495D01*
X4567298Y-13087499D01*
X4664229Y-13385821D01*
X4660476Y-13433509D01*
X4624101Y-13464576D01*
X4619637Y-13466027D01*
X4607675Y-13468651D01*
X4602411Y-13469274D01*
X4587306Y-13471062D01*
X4581939Y-13474068D01*
X4581938Y-13474068D01*
X4513094Y-13512624D01*
X4495152Y-13522672D01*
X4429761Y-13605619D01*
X4428091Y-13611540D01*
X4428089Y-13611544D01*
X4424193Y-13625358D01*
X4419728Y-13636767D01*
X4398415Y-13678596D01*
X4321737Y-13829087D01*
X4320655Y-13831210D01*
X4314049Y-13841529D01*
X4305166Y-13852797D01*
X4305164Y-13852800D01*
X4301353Y-13857635D01*
X4300219Y-13861656D01*
X4264612Y-13892069D01*
X4216924Y-13888317D01*
X4185856Y-13851942D01*
X4185475Y-13850768D01*
X3996667Y-13269678D01*
X3986843Y-13252135D01*
X3970539Y-13223023D01*
X3967531Y-13217652D01*
X3962697Y-13213841D01*
X3962696Y-13213840D01*
X3932916Y-13190364D01*
X3904891Y-13168271D01*
X3828122Y-13146619D01*
X3822013Y-13147342D01*
X3822011Y-13147342D01*
X3773185Y-13153122D01*
X3768906Y-13153628D01*
X3765988Y-13154576D01*
X3765984Y-13154577D01*
X3730696Y-13166043D01*
X3609236Y-13205508D01*
X3561549Y-13201755D01*
X3530482Y-13165381D01*
X3534235Y-13117692D01*
X3763591Y-12667559D01*
X3770197Y-12657241D01*
X3779080Y-12645973D01*
X3779082Y-12645970D01*
X3782890Y-12641139D01*
X3795195Y-12597510D01*
X3797542Y-12589186D01*
X3801291Y-12575892D01*
X3811560Y-12539482D01*
X3799146Y-12434592D01*
X3789125Y-12416698D01*
X3784215Y-12405473D01*
X3738134Y-12263651D01*
X3648801Y-11988712D01*
X3652554Y-11941025D01*
X3665617Y-11923689D01*
X3676802Y-11913259D01*
X3680802Y-11909529D01*
X3734516Y-11804110D01*
X3745846Y-11711832D01*
X3769401Y-11670198D01*
X3815497Y-11657415D01*
X3853589Y-11676824D01*
X3900913Y-11727572D01*
X3916995Y-11744818D01*
X3972004Y-11772846D01*
X4017542Y-11796049D01*
X4017544Y-11796050D01*
X4022414Y-11798531D01*
X4053975Y-11802406D01*
X4095608Y-11825961D01*
X4105797Y-11845124D01*
X4107543Y-11850497D01*
X4103792Y-11898185D01*
X4094949Y-11911185D01*
X4082587Y-11925183D01*
X4082585Y-11925186D01*
X4079637Y-11928524D01*
X4018707Y-12058299D01*
X3996651Y-12199959D01*
X3997228Y-12204372D01*
X3997228Y-12204374D01*
X3998759Y-12216078D01*
X4015240Y-12342115D01*
X4017033Y-12346190D01*
X4070495Y-12467691D01*
X4072980Y-12473339D01*
X4075844Y-12476746D01*
X4162367Y-12579679D01*
X4162370Y-12579682D01*
X4165230Y-12583084D01*
X4284573Y-12662526D01*
X4288824Y-12663854D01*
X4417165Y-12703950D01*
X4417168Y-12703950D01*
X4421417Y-12705278D01*
X4425869Y-12705360D01*
X4425871Y-12705360D01*
X4496902Y-12706662D01*
X4564759Y-12707906D01*
X4703077Y-12670196D01*
X4825251Y-12595181D01*
X4874468Y-12540807D01*
X4918473Y-12492190D01*
X4921460Y-12488890D01*
X4983970Y-12359869D01*
X4986272Y-12346190D01*
X4997618Y-12278747D01*
X5007756Y-12218490D01*
X5007907Y-12206136D01*
X4987583Y-12064218D01*
X4928244Y-11933708D01*
X4834660Y-11825099D01*
X4714355Y-11747121D01*
X4710093Y-11745846D01*
X4710090Y-11745845D01*
X4654852Y-11729326D01*
X4617755Y-11699125D01*
X4613319Y-11688764D01*
X4612640Y-11686675D01*
X4610810Y-11681042D01*
X4614560Y-11633356D01*
X4627626Y-11616016D01*
X4646878Y-11598064D01*
X4646881Y-11598060D01*
X4650880Y-11594331D01*
X4704594Y-11488912D01*
X4719013Y-11371477D01*
X4711618Y-11331575D01*
X4710407Y-11325041D01*
X4710406Y-11325038D01*
X4710033Y-11323024D01*
X4709401Y-11321078D01*
X4572028Y-10898287D01*
X4572026Y-10898283D01*
X4571398Y-10896349D01*
X4550183Y-10851871D01*
X4469491Y-10765340D01*
X4385400Y-10722494D01*
X4368944Y-10714109D01*
X4368942Y-10714108D01*
X4364072Y-10711627D01*
X4279200Y-10701205D01*
X4251386Y-10697790D01*
X4251385Y-10697790D01*
X4246637Y-10697207D01*
X4241932Y-10698079D01*
X4200201Y-10705813D01*
X4200198Y-10705814D01*
X4198184Y-10706187D01*
X4196242Y-10706818D01*
X4196238Y-10706819D01*
X3892415Y-10805538D01*
X3866615Y-10813921D01*
X3822137Y-10835136D01*
X3818642Y-10838395D01*
X3758787Y-10894210D01*
X3735606Y-10915827D01*
X3681892Y-11021246D01*
X3674121Y-11084541D01*
X3670562Y-11113524D01*
X3647007Y-11155158D01*
X3600911Y-11167941D01*
X3562819Y-11148532D01*
X3503146Y-11084541D01*
X3499413Y-11080538D01*
X3444404Y-11052510D01*
X3398866Y-11029307D01*
X3398864Y-11029306D01*
X3393994Y-11026825D01*
X3308907Y-11016377D01*
X3281308Y-11012988D01*
X3281307Y-11012988D01*
X3276559Y-11012405D01*
X3271854Y-11013277D01*
X3230123Y-11021011D01*
X3230120Y-11021012D01*
X3228106Y-11021385D01*
X3226164Y-11022016D01*
X3226160Y-11022017D01*
X3028359Y-11086287D01*
X2896537Y-11129119D01*
X2852059Y-11150334D01*
X2765528Y-11231025D01*
X2711814Y-11336444D01*
X2697395Y-11453879D01*
X2698267Y-11458584D01*
X2704081Y-11489952D01*
X2706375Y-11502332D01*
X2707006Y-11504274D01*
X2707007Y-11504278D01*
X2843768Y-11925183D01*
X2845010Y-11929007D01*
X2866225Y-11973485D01*
X2946917Y-12060016D01*
X3001926Y-12088044D01*
X3047464Y-12111247D01*
X3047466Y-12111248D01*
X3052336Y-12113729D01*
X3094848Y-12118949D01*
X3136482Y-12142504D01*
X3146671Y-12161668D01*
X3243771Y-12460508D01*
X3247204Y-12471074D01*
X3243451Y-12518762D01*
X3093180Y-12813684D01*
X2886419Y-13219473D01*
X2879813Y-13229792D01*
X2867117Y-13245896D01*
X2839570Y-13343573D01*
X2838448Y-13347553D01*
X2839171Y-13353662D01*
X2844773Y-13401002D01*
X2831788Y-13447041D01*
X2802020Y-13467788D01*
X2447417Y-13583006D01*
X2444740Y-13584505D01*
X2444736Y-13584507D01*
X2400762Y-13609134D01*
X2395391Y-13612142D01*
X2346010Y-13674782D01*
X2324358Y-13751551D01*
X-8789780Y-13751551D01*
X-8955778Y-13699564D01*
X-8958375Y-13699209D01*
X-8958378Y-13699208D01*
X-9022536Y-13690430D01*
X-9155482Y-13672240D01*
X-9356946Y-13678597D01*
X-9554531Y-13718457D01*
X-9742703Y-13790705D01*
X-9744956Y-13792037D01*
X-9744955Y-13792037D01*
X-9899249Y-13883294D01*
X-9916194Y-13893316D01*
X-9918190Y-13895003D01*
X-9918193Y-13895005D01*
X-10008714Y-13971504D01*
X-10052835Y-14008791D01*
X-10060444Y-14015221D01*
X-10066806Y-14019855D01*
X-10067366Y-14020299D01*
X-10070375Y-14022176D01*
X-10070883Y-14022683D01*
X-10072758Y-14025665D01*
X-10072758Y-14025666D01*
X-10079477Y-14036356D01*
X-10088199Y-14047291D01*
X-11999330Y-15958420D01*
X-12010352Y-15967196D01*
X-12023847Y-15975645D01*
X-12027604Y-15981600D01*
X-12027605Y-15981601D01*
X-12029194Y-15984120D01*
X-12040406Y-15997374D01*
X-12251925Y-16186399D01*
X-12257405Y-16190769D01*
X-12507722Y-16368378D01*
X-12513657Y-16372106D01*
X-12782269Y-16520563D01*
X-12788584Y-16523604D01*
X-13072144Y-16641059D01*
X-13078753Y-16643372D01*
X-13194547Y-16676731D01*
X-13373677Y-16728338D01*
X-13380510Y-16729898D01*
X-13527831Y-16754929D01*
X-13683100Y-16781310D01*
X-13690052Y-16782093D01*
X-13874949Y-16792477D01*
X-13996496Y-16799303D01*
X-14003504Y-16799303D01*
X-14125125Y-16792473D01*
X-14309949Y-16782093D01*
X-14316901Y-16781310D01*
X-14472170Y-16754929D01*
X-14619491Y-16729898D01*
X-14626324Y-16728338D01*
X-14804677Y-16676956D01*
X-14921247Y-16643373D01*
X-14927854Y-16641061D01*
X-15211417Y-16523605D01*
X-15217732Y-16520564D01*
X-15486350Y-16372104D01*
X-15492273Y-16368384D01*
X-15742606Y-16190762D01*
X-15748071Y-16186404D01*
X-15748076Y-16186399D01*
X-15976931Y-15981882D01*
X-15981884Y-15976929D01*
X-15993717Y-15963687D01*
X-16105626Y-15838461D01*
X-16186399Y-15748076D01*
X-16190769Y-15742596D01*
X-16339691Y-15532710D01*
X-15435637Y-15532710D01*
X-15432908Y-15539297D01*
X-15238864Y-15701543D01*
X-15235427Y-15704040D01*
X-14996479Y-15853931D01*
X-14992739Y-15855937D01*
X-14735654Y-15972015D01*
X-14731665Y-15973498D01*
X-14461211Y-16053611D01*
X-14457070Y-16054536D01*
X-14178236Y-16097204D01*
X-14174005Y-16097559D01*
X-13891965Y-16101990D01*
X-13887726Y-16101767D01*
X-13607696Y-16067880D01*
X-13603519Y-16067083D01*
X-13330675Y-15995504D01*
X-13326662Y-15994154D01*
X-13066040Y-15886201D01*
X-13062251Y-15884320D01*
X-12818707Y-15742004D01*
X-12815190Y-15739614D01*
X-12593224Y-15565571D01*
X-12590053Y-15562716D01*
X-12568760Y-15540743D01*
X-12565152Y-15531630D01*
X-12568721Y-15523203D01*
X-13991210Y-14100715D01*
X-14000000Y-14097074D01*
X-14008790Y-14100715D01*
X-14684532Y-14776457D01*
X-15042983Y-15134907D01*
X-15431996Y-15523920D01*
X-15435637Y-15532710D01*
X-16339691Y-15532710D01*
X-16368378Y-15492279D01*
X-16372106Y-15486344D01*
X-16520563Y-15217732D01*
X-16523604Y-15211418D01*
X-16595788Y-15037150D01*
X-16641060Y-14927854D01*
X-16643373Y-14921243D01*
X-16668299Y-14834720D01*
X-16700035Y-14724564D01*
X-16728337Y-14626323D01*
X-16729897Y-14619490D01*
X-16757770Y-14455445D01*
X-16781310Y-14316901D01*
X-16782094Y-14309943D01*
X-16782662Y-14299816D01*
X-16793843Y-14100714D01*
X-16797960Y-14027396D01*
X-16796445Y-14009782D01*
X-16796215Y-14008790D01*
X-16794344Y-14000718D01*
X-16794343Y-14000000D01*
X-16795533Y-13994784D01*
X-16796906Y-13985786D01*
X-16797354Y-13980095D01*
X-16104669Y-13980095D01*
X-16088432Y-14261685D01*
X-16087899Y-14265907D01*
X-16033592Y-14542710D01*
X-16032496Y-14546801D01*
X-15941123Y-14813677D01*
X-15939484Y-14817579D01*
X-15812739Y-15069583D01*
X-15810575Y-15073242D01*
X-15650811Y-15305700D01*
X-15648166Y-15309038D01*
X-15538758Y-15429275D01*
X-15530934Y-15432957D01*
X-15521058Y-15429136D01*
X-14100714Y-14008791D01*
X-14097073Y-14000001D01*
X-13902927Y-14000001D01*
X-13899286Y-14008791D01*
X-12478420Y-15429658D01*
X-12469896Y-15433189D01*
X-12460801Y-15429338D01*
X-12393753Y-15360149D01*
X-12391024Y-15356919D01*
X-12224031Y-15129586D01*
X-12221750Y-15125993D01*
X-12087157Y-14878100D01*
X-12085392Y-14874245D01*
X-11985683Y-14610377D01*
X-11984457Y-14606316D01*
X-11921480Y-14331342D01*
X-11920820Y-14327176D01*
X-11895664Y-14045303D01*
X-11895542Y-14042859D01*
X-11895106Y-14001226D01*
X-11895177Y-13998770D01*
X-11914422Y-13716467D01*
X-11915002Y-13712235D01*
X-11972200Y-13436034D01*
X-11973341Y-13431947D01*
X-12067503Y-13166043D01*
X-12069184Y-13162160D01*
X-12198565Y-12911487D01*
X-12200761Y-12907861D01*
X-12362961Y-12677074D01*
X-12365622Y-12673788D01*
X-12461317Y-12570809D01*
X-12469355Y-12567129D01*
X-12478992Y-12570916D01*
X-13899286Y-13991211D01*
X-13902927Y-14000001D01*
X-14097073Y-14000001D01*
X-14100714Y-13991211D01*
X-15521424Y-12570500D01*
X-15529770Y-12567043D01*
X-15539065Y-12571037D01*
X-15620391Y-12656736D01*
X-15623105Y-12660017D01*
X-15787704Y-12889082D01*
X-15789939Y-12892685D01*
X-15921931Y-13141976D01*
X-15923660Y-13145859D01*
X-16020594Y-13410743D01*
X-16021785Y-13414841D01*
X-16081873Y-13690431D01*
X-16082493Y-13694630D01*
X-16104624Y-13975827D01*
X-16104669Y-13980095D01*
X-16797354Y-13980095D01*
X-16803714Y-13899286D01*
X-16810613Y-13811620D01*
X-16854726Y-13627878D01*
X-16872691Y-13584507D01*
X-16926096Y-13455574D01*
X-16926100Y-13455567D01*
X-16927039Y-13453299D01*
X-16936725Y-13437492D01*
X-17024487Y-13294279D01*
X-17025772Y-13292182D01*
X-17148493Y-13148493D01*
X-17292182Y-13025772D01*
X-17408459Y-12954517D01*
X-17451200Y-12928325D01*
X-17451203Y-12928324D01*
X-17453299Y-12927039D01*
X-17455567Y-12926100D01*
X-17455574Y-12926096D01*
X-17622832Y-12856816D01*
X-17627878Y-12854726D01*
X-17811620Y-12810614D01*
X-17877703Y-12805413D01*
X-17984832Y-12796981D01*
X-17994035Y-12795561D01*
X-17995833Y-12795144D01*
X-17995836Y-12795144D01*
X-17999282Y-12794345D01*
X-18000000Y-12794344D01*
X-18015742Y-12797935D01*
X-18029642Y-12799500D01*
X-18470127Y-12799500D01*
X-18484133Y-12797910D01*
X-18486436Y-12797381D01*
X-18499641Y-12794344D01*
X-18506507Y-12795898D01*
X-18513543Y-12795885D01*
X-18513542Y-12795156D01*
X-18525049Y-12795532D01*
X-18582776Y-12786389D01*
X-18601368Y-12780348D01*
X-18667221Y-12746794D01*
X-18683040Y-12735301D01*
X-18735300Y-12683042D01*
X-18746794Y-12667222D01*
X-18752137Y-12656736D01*
X-18780348Y-12601369D01*
X-18786390Y-12582773D01*
X-18788248Y-12571037D01*
X-18792149Y-12546410D01*
X-18795467Y-12525458D01*
X-18795082Y-12514256D01*
X-18795933Y-12514255D01*
X-18795921Y-12507217D01*
X-18794344Y-12500359D01*
X-18797959Y-12484383D01*
X-18799500Y-12470589D01*
X-18799500Y-5103833D01*
X-18500499Y-5103833D01*
X-18497518Y-5135368D01*
X-18452633Y-5263183D01*
X-18372149Y-5372149D01*
X-18263183Y-5452633D01*
X-18258775Y-5454181D01*
X-18258773Y-5454182D01*
X-18189175Y-5478622D01*
X-18135368Y-5497518D01*
X-18118941Y-5499071D01*
X-18105297Y-5500361D01*
X-18105289Y-5500361D01*
X-18103833Y-5500499D01*
X-18013001Y-5500499D01*
X-17968807Y-5518805D01*
X-17950501Y-5562999D01*
X-17950500Y-6936998D01*
X-17968806Y-6981192D01*
X-18013000Y-6999498D01*
X-18158218Y-6999498D01*
X-18160465Y-6999829D01*
X-18160468Y-6999829D01*
X-18184662Y-7003391D01*
X-18227112Y-7009640D01*
X-18331855Y-7061066D01*
X-18335501Y-7064718D01*
X-18335502Y-7064719D01*
X-18410645Y-7139993D01*
X-18410647Y-7139995D01*
X-18414293Y-7143648D01*
X-18416561Y-7148288D01*
X-18463114Y-7243526D01*
X-18465536Y-7248480D01*
X-18475500Y-7316780D01*
X-18475500Y-7683216D01*
X-18465358Y-7752110D01*
X-18413932Y-7856853D01*
X-18410280Y-7860499D01*
X-18410279Y-7860500D01*
X-18335005Y-7935643D01*
X-18335003Y-7935645D01*
X-18331350Y-7939291D01*
X-18309691Y-7949878D01*
X-18231262Y-7988215D01*
X-18226518Y-7990534D01*
X-18221715Y-7991235D01*
X-18221714Y-7991235D01*
X-18206845Y-7993404D01*
X-18158218Y-8000498D01*
X-17813001Y-8000498D01*
X-17768807Y-8018804D01*
X-17750501Y-8062998D01*
X-17750500Y-9258788D01*
X-17768806Y-9302982D01*
X-17785456Y-9314891D01*
X-17833243Y-9338352D01*
X-17833247Y-9338355D01*
X-17837879Y-9340629D01*
X-17841525Y-9344281D01*
X-17841526Y-9344282D01*
X-17916081Y-9418967D01*
X-17916083Y-9418969D01*
X-17919729Y-9422622D01*
X-17927823Y-9439181D01*
X-17968187Y-9521757D01*
X-17970607Y-9526707D01*
X-17980499Y-9594515D01*
X-17980499Y-10005487D01*
X-17970430Y-10073885D01*
X-17919371Y-10177881D01*
X-17915719Y-10181527D01*
X-17915718Y-10181528D01*
X-17841033Y-10256083D01*
X-17841031Y-10256085D01*
X-17837378Y-10259731D01*
X-17832738Y-10261999D01*
X-17738035Y-10308291D01*
X-17733293Y-10310609D01*
X-17728490Y-10311310D01*
X-17728489Y-10311310D01*
X-17707734Y-10314338D01*
X-17665485Y-10320501D01*
X-17304513Y-10320501D01*
X-17302266Y-10320170D01*
X-17302263Y-10320170D01*
X-17278277Y-10316639D01*
X-17236115Y-10310432D01*
X-17132119Y-10259373D01*
X-17050269Y-10177380D01*
X-17049577Y-10175964D01*
X-17010318Y-10151431D01*
X-16963708Y-10162189D01*
X-16950700Y-10175173D01*
X-16949371Y-10177881D01*
X-16945718Y-10181528D01*
X-16945717Y-10181529D01*
X-16871033Y-10256083D01*
X-16871031Y-10256085D01*
X-16867378Y-10259731D01*
X-16837346Y-10274411D01*
X-16790554Y-10297284D01*
X-16758888Y-10333139D01*
X-16755501Y-10353434D01*
X-16755500Y-10465853D01*
X-16773805Y-10510048D01*
X-16791581Y-10522495D01*
X-16820404Y-10535935D01*
X-16904065Y-10619596D01*
X-16906377Y-10624554D01*
X-16943356Y-10703855D01*
X-16978624Y-10736172D01*
X-17026414Y-10734085D01*
X-17056644Y-10703855D01*
X-17093623Y-10624554D01*
X-17095935Y-10619596D01*
X-17179596Y-10535935D01*
X-17184551Y-10533624D01*
X-17184553Y-10533623D01*
X-17269442Y-10494039D01*
X-17286827Y-10485932D01*
X-17301122Y-10484050D01*
X-17333652Y-10479767D01*
X-17333660Y-10479766D01*
X-17335684Y-10479500D01*
X-17684316Y-10479500D01*
X-17686340Y-10479766D01*
X-17686348Y-10479767D01*
X-17718878Y-10484050D01*
X-17733173Y-10485932D01*
X-17750558Y-10494039D01*
X-17835447Y-10533623D01*
X-17835449Y-10533624D01*
X-17840404Y-10535935D01*
X-17924065Y-10619596D01*
X-17926376Y-10624551D01*
X-17926377Y-10624553D01*
X-17941914Y-10657873D01*
X-17974068Y-10726827D01*
X-17975512Y-10737793D01*
X-17980233Y-10773652D01*
X-17980234Y-10773660D01*
X-17980500Y-10775684D01*
X-17980500Y-11224316D01*
X-17980234Y-11226340D01*
X-17980233Y-11226348D01*
X-17977911Y-11243980D01*
X-17974068Y-11273173D01*
X-17972047Y-11277506D01*
X-17928190Y-11371557D01*
X-17924065Y-11380404D01*
X-17840404Y-11464065D01*
X-17811585Y-11477504D01*
X-17779270Y-11512769D01*
X-17775500Y-11534146D01*
X-17775500Y-11547515D01*
X-17793806Y-11591709D01*
X-17804649Y-11600373D01*
X-17817014Y-11608175D01*
X-17827720Y-11614930D01*
X-17830663Y-11618262D01*
X-17830665Y-11618264D01*
X-17891083Y-11686675D01*
X-17922623Y-11722388D01*
X-17983553Y-11852163D01*
X-18005609Y-11993823D01*
X-18005032Y-11998236D01*
X-18005032Y-11998238D01*
X-18000381Y-12033802D01*
X-17987020Y-12135979D01*
X-17985227Y-12140054D01*
X-17932038Y-12260934D01*
X-17929280Y-12267203D01*
X-17923750Y-12273782D01*
X-17839893Y-12373543D01*
X-17839890Y-12373546D01*
X-17837030Y-12376948D01*
X-17717687Y-12456390D01*
X-17700585Y-12461733D01*
X-17585095Y-12497814D01*
X-17585092Y-12497814D01*
X-17580843Y-12499142D01*
X-17576391Y-12499224D01*
X-17576389Y-12499224D01*
X-17505358Y-12500526D01*
X-17437501Y-12501770D01*
X-17312501Y-12467691D01*
X-15435722Y-12467691D01*
X-15432207Y-12475871D01*
X-14474185Y-13433892D01*
X-14008790Y-13899287D01*
X-14000000Y-13902928D01*
X-13991210Y-13899287D01*
X-13525815Y-13433892D01*
X-12567121Y-12475199D01*
X-12563224Y-12465791D01*
X-12565300Y-12460509D01*
X-12779017Y-12285584D01*
X-12782485Y-12283119D01*
X-13022987Y-12135739D01*
X-13026756Y-12133769D01*
X-13285047Y-12020386D01*
X-13289028Y-12018953D01*
X-13560320Y-11941674D01*
X-13564475Y-11940791D01*
X-13843727Y-11901048D01*
X-13847972Y-11900736D01*
X-14130031Y-11899259D01*
X-14134288Y-11899527D01*
X-14413930Y-11936342D01*
X-14418109Y-11937184D01*
X-14690178Y-12011614D01*
X-14694195Y-12013013D01*
X-14953652Y-12123681D01*
X-14957434Y-12125608D01*
X-15199468Y-12270462D01*
X-15202962Y-12272890D01*
X-15423103Y-12449256D01*
X-15426225Y-12452128D01*
X-15432141Y-12458362D01*
X-15435722Y-12467691D01*
X-17312501Y-12467691D01*
X-17299183Y-12464060D01*
X-17177009Y-12389045D01*
X-17080800Y-12282754D01*
X-17018290Y-12153733D01*
X-17015988Y-12140054D01*
X-17002234Y-12058299D01*
X-16994504Y-12012354D01*
X-16994353Y-12000000D01*
X-17014677Y-11858082D01*
X-17074016Y-11727572D01*
X-17167600Y-11618963D01*
X-17215994Y-11587595D01*
X-17243123Y-11548197D01*
X-17244500Y-11535149D01*
X-17244500Y-11534146D01*
X-17226194Y-11489952D01*
X-17208419Y-11477505D01*
X-17179596Y-11464065D01*
X-17095935Y-11380404D01*
X-17056644Y-11296145D01*
X-17021376Y-11263828D01*
X-16973586Y-11265915D01*
X-16943356Y-11296145D01*
X-16904065Y-11380404D01*
X-16820404Y-11464065D01*
X-16815450Y-11466375D01*
X-16815447Y-11466377D01*
X-16791591Y-11477501D01*
X-16713173Y-11514068D01*
X-16698878Y-11515950D01*
X-16666348Y-11520233D01*
X-16666340Y-11520234D01*
X-16664316Y-11520500D01*
X-16315684Y-11520500D01*
X-16313660Y-11520234D01*
X-16313652Y-11520233D01*
X-16281122Y-11515950D01*
X-16266827Y-11514068D01*
X-16188409Y-11477501D01*
X-16164553Y-11466377D01*
X-16164550Y-11466375D01*
X-16159596Y-11464065D01*
X-16075935Y-11380404D01*
X-16071809Y-11371557D01*
X-16027953Y-11277506D01*
X-16025932Y-11273173D01*
X-16022089Y-11243980D01*
X-16019767Y-11226348D01*
X-16019766Y-11226340D01*
X-16019500Y-11224316D01*
X-16019500Y-11082207D01*
X-15820000Y-11082207D01*
X-15819732Y-11086287D01*
X-15814202Y-11128302D01*
X-15811558Y-11137374D01*
X-15765962Y-11235155D01*
X-15759782Y-11243980D01*
X-15683981Y-11319781D01*
X-15675156Y-11325961D01*
X-15577376Y-11371556D01*
X-15568302Y-11374201D01*
X-15526287Y-11379733D01*
X-15522209Y-11380000D01*
X-15377432Y-11380000D01*
X-15368642Y-11376359D01*
X-15365001Y-11367569D01*
X-15365001Y-11367568D01*
X-15235001Y-11367568D01*
X-15231360Y-11376358D01*
X-15222570Y-11379999D01*
X-15077794Y-11379999D01*
X-15073714Y-11379731D01*
X-15031699Y-11374201D01*
X-15022627Y-11371557D01*
X-14924846Y-11325961D01*
X-14916021Y-11319781D01*
X-14840220Y-11243980D01*
X-14834040Y-11235155D01*
X-14788445Y-11137375D01*
X-14785800Y-11128301D01*
X-14780268Y-11086286D01*
X-14780001Y-11082208D01*
X-14780001Y-10987431D01*
X-14783642Y-10978641D01*
X-14792432Y-10975000D01*
X-15222570Y-10975000D01*
X-15231360Y-10978641D01*
X-15235001Y-10987431D01*
X-15235001Y-11367568D01*
X-15365001Y-11367568D01*
X-15365001Y-10987431D01*
X-15368642Y-10978641D01*
X-15377432Y-10975000D01*
X-15807569Y-10975000D01*
X-15816359Y-10978641D01*
X-15820000Y-10987431D01*
X-15820000Y-11082207D01*
X-16019500Y-11082207D01*
X-16019500Y-10775684D01*
X-16019766Y-10773660D01*
X-16019767Y-10773652D01*
X-16024488Y-10737793D01*
X-16025932Y-10726827D01*
X-16058086Y-10657873D01*
X-16073623Y-10624553D01*
X-16073624Y-10624551D01*
X-16075935Y-10619596D01*
X-16159596Y-10535935D01*
X-16164551Y-10533624D01*
X-16164553Y-10533623D01*
X-16177317Y-10527671D01*
X-16188415Y-10522496D01*
X-16220731Y-10487229D01*
X-16224500Y-10465853D01*
X-16224501Y-10328942D01*
X-16206195Y-10284748D01*
X-16189546Y-10272839D01*
X-16188575Y-10272362D01*
X-16162119Y-10259373D01*
X-16127079Y-10224272D01*
X-16083917Y-10181035D01*
X-16083915Y-10181033D01*
X-16080269Y-10177380D01*
X-16053401Y-10122414D01*
X-16031522Y-10077655D01*
X-16031522Y-10077654D01*
X-16029391Y-10073295D01*
X-16028377Y-10066348D01*
X-16020876Y-10014924D01*
X-16019499Y-10005487D01*
X-16019499Y-9594515D01*
X-16029568Y-9526117D01*
X-16080627Y-9422121D01*
X-16084281Y-9418473D01*
X-16158965Y-9343919D01*
X-16158967Y-9343917D01*
X-16162620Y-9340271D01*
X-16249651Y-9297729D01*
X-16262345Y-9291524D01*
X-16262346Y-9291524D01*
X-16266705Y-9289393D01*
X-16271508Y-9288692D01*
X-16271509Y-9288692D01*
X-16292264Y-9285664D01*
X-16334513Y-9279501D01*
X-16695485Y-9279501D01*
X-16697732Y-9279832D01*
X-16697735Y-9279832D01*
X-16721721Y-9283363D01*
X-16763883Y-9289570D01*
X-16867879Y-9340629D01*
X-16871525Y-9344281D01*
X-16871526Y-9344282D01*
X-16872636Y-9345394D01*
X-16949729Y-9422622D01*
X-16950421Y-9424038D01*
X-16989680Y-9448571D01*
X-17036290Y-9437813D01*
X-17049298Y-9424829D01*
X-17050627Y-9422121D01*
X-17054281Y-9418473D01*
X-17128965Y-9343919D01*
X-17128967Y-9343917D01*
X-17132620Y-9340271D01*
X-17176561Y-9318792D01*
X-17184447Y-9314937D01*
X-17216113Y-9279082D01*
X-17219500Y-9258786D01*
X-17219500Y-8661378D01*
X-17219500Y-8633216D01*
X-16600500Y-8633216D01*
X-16590358Y-8702110D01*
X-16538932Y-8806853D01*
X-16535280Y-8810499D01*
X-16535279Y-8810500D01*
X-16460005Y-8885643D01*
X-16460003Y-8885645D01*
X-16456350Y-8889291D01*
X-16451710Y-8891559D01*
X-16356262Y-8938215D01*
X-16351518Y-8940534D01*
X-16346715Y-8941235D01*
X-16346714Y-8941235D01*
X-16326752Y-8944147D01*
X-16283218Y-8950498D01*
X-15628001Y-8950498D01*
X-15583807Y-8968804D01*
X-15565501Y-9012998D01*
X-15565500Y-9382537D01*
X-15583806Y-9426731D01*
X-15601585Y-9439180D01*
X-15603471Y-9440060D01*
X-15675448Y-9473623D01*
X-15675450Y-9473624D01*
X-15680405Y-9475935D01*
X-15764066Y-9559596D01*
X-15814069Y-9666827D01*
X-15814693Y-9671568D01*
X-15820234Y-9713652D01*
X-15820235Y-9713660D01*
X-15820501Y-9715684D01*
X-15820501Y-10064316D01*
X-15820235Y-10066340D01*
X-15820234Y-10066348D01*
X-15817357Y-10088198D01*
X-15814069Y-10113173D01*
X-15800148Y-10143027D01*
X-15768271Y-10211386D01*
X-15764066Y-10220404D01*
X-15680405Y-10304065D01*
X-15675450Y-10306376D01*
X-15675448Y-10306377D01*
X-15595554Y-10343632D01*
X-15563237Y-10378900D01*
X-15565324Y-10426690D01*
X-15595554Y-10456920D01*
X-15675155Y-10494039D01*
X-15683981Y-10500219D01*
X-15759782Y-10576020D01*
X-15765962Y-10584845D01*
X-15811557Y-10682625D01*
X-15814202Y-10691699D01*
X-15819734Y-10733714D01*
X-15820001Y-10737792D01*
X-15820001Y-10832569D01*
X-15816360Y-10841359D01*
X-15807570Y-10845000D01*
X-14792433Y-10845000D01*
X-14783643Y-10841359D01*
X-14780002Y-10832569D01*
X-14780002Y-10737793D01*
X-14780270Y-10733713D01*
X-14785800Y-10691698D01*
X-14788444Y-10682626D01*
X-14834040Y-10584845D01*
X-14840220Y-10576020D01*
X-14916021Y-10500219D01*
X-14924847Y-10494039D01*
X-15004448Y-10456920D01*
X-15036765Y-10421652D01*
X-15034678Y-10373862D01*
X-15004448Y-10343632D01*
X-14924554Y-10306377D01*
X-14924552Y-10306376D01*
X-14919597Y-10304065D01*
X-14835936Y-10220404D01*
X-14831730Y-10211386D01*
X-14799854Y-10143027D01*
X-14785933Y-10113173D01*
X-14782645Y-10088198D01*
X-14779768Y-10066348D01*
X-14779767Y-10066340D01*
X-14779501Y-10064316D01*
X-14779501Y-9715684D01*
X-14779767Y-9713660D01*
X-14779768Y-9713652D01*
X-14785309Y-9671568D01*
X-14785933Y-9666827D01*
X-14835936Y-9559596D01*
X-14919597Y-9475935D01*
X-14924552Y-9473624D01*
X-14924554Y-9473623D01*
X-14996531Y-9440060D01*
X-14998414Y-9439182D01*
X-15030731Y-9403914D01*
X-15034500Y-9382538D01*
X-15034501Y-9163273D01*
X-13126274Y-9163273D01*
X-13125697Y-9167686D01*
X-13125697Y-9167688D01*
X-13123851Y-9181804D01*
X-13107685Y-9305429D01*
X-13105892Y-9309504D01*
X-13054077Y-9427262D01*
X-13049945Y-9436653D01*
X-13047081Y-9440060D01*
X-12960558Y-9542993D01*
X-12960555Y-9542996D01*
X-12957695Y-9546398D01*
X-12838352Y-9625840D01*
X-12834101Y-9627168D01*
X-12705760Y-9667264D01*
X-12705757Y-9667264D01*
X-12701508Y-9668592D01*
X-12697056Y-9668674D01*
X-12697054Y-9668674D01*
X-12626023Y-9669976D01*
X-12558166Y-9671220D01*
X-12419848Y-9633510D01*
X-12297674Y-9558495D01*
X-12273249Y-9531511D01*
X-12204452Y-9455504D01*
X-12201465Y-9452204D01*
X-12138955Y-9323183D01*
X-12137567Y-9314937D01*
X-12127584Y-9255596D01*
X-12117136Y-9193493D01*
X-12091751Y-9152949D01*
X-12045133Y-9142229D01*
X-12004938Y-9167126D01*
X-11101722Y-10410296D01*
X-11099917Y-10412780D01*
X-11056130Y-10453256D01*
X-11050357Y-10455386D01*
X-11050355Y-10455387D01*
X-11008705Y-10470752D01*
X-10981296Y-10480863D01*
X-10938462Y-10479180D01*
X-10907744Y-10477974D01*
X-10907742Y-10477974D01*
X-10901594Y-10477732D01*
X-10847442Y-10452768D01*
X-10844960Y-10450965D01*
X-10844957Y-10450963D01*
X-10170760Y-9961129D01*
X-10170758Y-9961128D01*
X-10168276Y-9959324D01*
X-10127800Y-9915537D01*
X-10100192Y-9840703D01*
X-10103323Y-9761001D01*
X-10128287Y-9706849D01*
X-10143365Y-9686095D01*
X-11325268Y-8059346D01*
X-11325269Y-8059344D01*
X-11327073Y-8056862D01*
X-11370860Y-8016386D01*
X-11376633Y-8014256D01*
X-11376635Y-8014255D01*
X-11425413Y-7996261D01*
X-11445694Y-7988779D01*
X-11488528Y-7990462D01*
X-11519246Y-7991668D01*
X-11519248Y-7991668D01*
X-11525396Y-7991910D01*
X-11579548Y-8016874D01*
X-11582030Y-8018677D01*
X-11582033Y-8018679D01*
X-12175691Y-8449998D01*
X-12258714Y-8510318D01*
X-12299190Y-8554105D01*
X-12308795Y-8580140D01*
X-12319645Y-8609550D01*
X-12341545Y-8638480D01*
X-12406229Y-8685476D01*
X-12452743Y-8696644D01*
X-12460870Y-8694794D01*
X-12545926Y-8669357D01*
X-12617608Y-8668919D01*
X-12684836Y-8668508D01*
X-12684837Y-8668508D01*
X-12689289Y-8668481D01*
X-12827136Y-8707878D01*
X-12948385Y-8784380D01*
X-12951328Y-8787712D01*
X-12951330Y-8787714D01*
X-13037494Y-8885277D01*
X-13043288Y-8891838D01*
X-13104218Y-9021613D01*
X-13126274Y-9163273D01*
X-15034501Y-9163273D01*
X-15034501Y-9003399D01*
X-15016195Y-8959205D01*
X-14981101Y-8941565D01*
X-14977695Y-8941064D01*
X-14977693Y-8941063D01*
X-14972888Y-8940356D01*
X-14868145Y-8888930D01*
X-14864498Y-8885277D01*
X-14789355Y-8810003D01*
X-14789353Y-8810001D01*
X-14785707Y-8806348D01*
X-14758433Y-8750551D01*
X-14722579Y-8718885D01*
X-14702282Y-8715498D01*
X-14459823Y-8715498D01*
X-14415629Y-8733804D01*
X-14411980Y-8737782D01*
X-14339893Y-8823541D01*
X-14339890Y-8823544D01*
X-14337030Y-8826946D01*
X-14217687Y-8906388D01*
X-14213436Y-8907716D01*
X-14085095Y-8947812D01*
X-14085092Y-8947812D01*
X-14080843Y-8949140D01*
X-14076391Y-8949222D01*
X-14076389Y-8949222D01*
X-14006772Y-8950498D01*
X-13937501Y-8951768D01*
X-13799183Y-8914058D01*
X-13677009Y-8839043D01*
X-13650723Y-8810003D01*
X-13583787Y-8736052D01*
X-13580800Y-8732752D01*
X-13518290Y-8603731D01*
X-13516681Y-8594171D01*
X-13503844Y-8517867D01*
X-13494504Y-8462352D01*
X-13494353Y-8449998D01*
X-13514677Y-8308080D01*
X-13574016Y-8177570D01*
X-13667600Y-8068961D01*
X-13787905Y-7990983D01*
X-13794465Y-7989021D01*
X-13853467Y-7971376D01*
X-13925261Y-7949905D01*
X-13996943Y-7949467D01*
X-14064171Y-7949056D01*
X-14064172Y-7949056D01*
X-14068624Y-7949029D01*
X-14206471Y-7988426D01*
X-14327720Y-8064928D01*
X-14330663Y-8068260D01*
X-14330665Y-8068262D01*
X-14414661Y-8163371D01*
X-14461507Y-8184498D01*
X-14702274Y-8184498D01*
X-14746468Y-8166192D01*
X-14758377Y-8149543D01*
X-14759224Y-8147817D01*
X-14786068Y-8093143D01*
X-14815513Y-8063749D01*
X-14864995Y-8014353D01*
X-14864997Y-8014351D01*
X-14868650Y-8010705D01*
X-14907100Y-7991910D01*
X-14969122Y-7961593D01*
X-14969123Y-7961593D01*
X-14973482Y-7959462D01*
X-14978285Y-7958761D01*
X-14978286Y-7958761D01*
X-14998248Y-7955849D01*
X-15041782Y-7949498D01*
X-16283218Y-7949498D01*
X-16285465Y-7949829D01*
X-16285468Y-7949829D01*
X-16294651Y-7951181D01*
X-16352112Y-7959640D01*
X-16456855Y-8011066D01*
X-16460501Y-8014718D01*
X-16460502Y-8014719D01*
X-16535645Y-8089993D01*
X-16535647Y-8089995D01*
X-16539293Y-8093648D01*
X-16541561Y-8098288D01*
X-16583701Y-8184498D01*
X-16590536Y-8198480D01*
X-16591237Y-8203283D01*
X-16591237Y-8203284D01*
X-16594149Y-8223246D01*
X-16600500Y-8266780D01*
X-16600500Y-8633216D01*
X-17219500Y-8633216D01*
X-17219501Y-8062998D01*
X-17201195Y-8018804D01*
X-17157001Y-8000498D01*
X-16916782Y-8000498D01*
X-16914535Y-8000167D01*
X-16914532Y-8000167D01*
X-16888000Y-7996261D01*
X-16847888Y-7990356D01*
X-16743145Y-7938930D01*
X-16735435Y-7931207D01*
X-16664355Y-7860003D01*
X-16664353Y-7860001D01*
X-16660707Y-7856348D01*
X-16619263Y-7771562D01*
X-16611595Y-7755876D01*
X-16611595Y-7755875D01*
X-16609464Y-7751516D01*
X-16599500Y-7683216D01*
X-16599500Y-7316780D01*
X-16602198Y-7298449D01*
X-16603926Y-7286712D01*
X-16609642Y-7247886D01*
X-16626693Y-7213158D01*
X-13355422Y-7213158D01*
X-13355180Y-7219306D01*
X-13352684Y-7282846D01*
X-13352291Y-7292861D01*
X-13327326Y-7347012D01*
X-13325528Y-7349487D01*
X-13325526Y-7349490D01*
X-12600574Y-8347302D01*
X-12598769Y-8349786D01*
X-12554982Y-8390262D01*
X-12549209Y-8392392D01*
X-12549207Y-8392393D01*
X-12507557Y-8407758D01*
X-12480148Y-8417869D01*
X-12437314Y-8416186D01*
X-12406596Y-8414980D01*
X-12406594Y-8414980D01*
X-12400446Y-8414738D01*
X-12346294Y-8389774D01*
X-12343812Y-8387971D01*
X-12343809Y-8387969D01*
X-11669612Y-7898135D01*
X-11669610Y-7898134D01*
X-11667128Y-7896330D01*
X-11649906Y-7877699D01*
X-11630829Y-7857063D01*
X-11630828Y-7857062D01*
X-11626652Y-7852544D01*
X-11599044Y-7777710D01*
X-11601467Y-7716019D01*
X-11601933Y-7704156D01*
X-11601934Y-7704154D01*
X-11602175Y-7698007D01*
X-11607958Y-7685462D01*
X-11625857Y-7646639D01*
X-11627140Y-7643856D01*
X-11662918Y-7594611D01*
X-11758148Y-7463539D01*
X-11769315Y-7417025D01*
X-11744321Y-7376238D01*
X-11697807Y-7365071D01*
X-10898519Y-7491667D01*
X-10886663Y-7494761D01*
X-10873203Y-7499727D01*
X-10873202Y-7499727D01*
X-10867426Y-7501858D01*
X-10820562Y-7500017D01*
X-10768035Y-7497953D01*
X-10768033Y-7497953D01*
X-10761885Y-7497711D01*
X-10744052Y-7489490D01*
X-10671558Y-7456071D01*
X-10671556Y-7456069D01*
X-10665965Y-7453492D01*
X-10652044Y-7438433D01*
X-10642887Y-7430296D01*
X-10284050Y-7169584D01*
X-10237536Y-7158416D01*
X-10217013Y-7165483D01*
X-10193988Y-7178246D01*
X-10193984Y-7178247D01*
X-10189204Y-7180897D01*
X-10072346Y-7199405D01*
X-10066985Y-7198363D01*
X-10066983Y-7198363D01*
X-9981086Y-7181667D01*
X-9934211Y-7191205D01*
X-9907809Y-7231094D01*
X-9914497Y-7273320D01*
X-9956506Y-7349107D01*
X-9959569Y-7354632D01*
X-9978077Y-7471490D01*
X-9977035Y-7476851D01*
X-9977035Y-7476853D01*
X-9972010Y-7502704D01*
X-9981548Y-7549579D01*
X-9996626Y-7565193D01*
X-10003014Y-7569834D01*
X-10049528Y-7581000D01*
X-10057658Y-7579150D01*
X-10104328Y-7565193D01*
X-10142711Y-7553714D01*
X-10214392Y-7553276D01*
X-10281621Y-7552865D01*
X-10281622Y-7552865D01*
X-10286074Y-7552838D01*
X-10423921Y-7592235D01*
X-10545170Y-7668737D01*
X-10548113Y-7672069D01*
X-10548115Y-7672071D01*
X-10618802Y-7752110D01*
X-10640073Y-7776195D01*
X-10701003Y-7905970D01*
X-10701688Y-7910368D01*
X-10701688Y-7910369D01*
X-10704932Y-7931207D01*
X-10723059Y-8047630D01*
X-10722482Y-8052043D01*
X-10722482Y-8052045D01*
X-10716501Y-8097778D01*
X-10704470Y-8189786D01*
X-10702677Y-8193861D01*
X-10650479Y-8312489D01*
X-10646730Y-8321010D01*
X-10643866Y-8324417D01*
X-10557343Y-8427350D01*
X-10557340Y-8427353D01*
X-10554480Y-8430755D01*
X-10435137Y-8510197D01*
X-10430886Y-8511525D01*
X-10302545Y-8551621D01*
X-10302542Y-8551621D01*
X-10298293Y-8552949D01*
X-10293841Y-8553031D01*
X-10293839Y-8553031D01*
X-10222808Y-8554333D01*
X-10154951Y-8555577D01*
X-10016633Y-8517867D01*
X-9894459Y-8442852D01*
X-9847580Y-8391061D01*
X-9801237Y-8339861D01*
X-9798250Y-8336561D01*
X-9735740Y-8207540D01*
X-9734215Y-8198480D01*
X-9717359Y-8098288D01*
X-9711954Y-8066161D01*
X-9711803Y-8053807D01*
X-9712145Y-8051418D01*
X-9712180Y-8050882D01*
X-9696782Y-8005592D01*
X-9686549Y-7996261D01*
X-9684512Y-7994781D01*
X-9637998Y-7983613D01*
X-9617475Y-7990680D01*
X-9594448Y-8003444D01*
X-9594444Y-8003445D01*
X-9589664Y-8006095D01*
X-9472806Y-8024603D01*
X-9467445Y-8023561D01*
X-9467443Y-8023561D01*
X-9361359Y-8002941D01*
X-9361358Y-8002941D01*
X-9356663Y-8002028D01*
X-9352458Y-7999745D01*
X-9315147Y-7979487D01*
X-9315141Y-7979483D01*
X-9313356Y-7978514D01*
X-9007739Y-7756470D01*
X-8952063Y-7716019D01*
X-8952062Y-7716018D01*
X-8950406Y-7714815D01*
X-8914660Y-7680894D01*
X-8895672Y-7646639D01*
X-8859949Y-7582193D01*
X-8859949Y-7582192D01*
X-8857299Y-7577412D01*
X-8838791Y-7460554D01*
X-8840163Y-7453492D01*
X-8860453Y-7349107D01*
X-8860453Y-7349106D01*
X-8861366Y-7344411D01*
X-8875132Y-7319057D01*
X-8883907Y-7302895D01*
X-8883911Y-7302889D01*
X-8884880Y-7301104D01*
X-9061188Y-7058437D01*
X-9088597Y-7020712D01*
X-9088598Y-7020711D01*
X-9089801Y-7019055D01*
X-9123722Y-6983310D01*
X-9174697Y-6955054D01*
X-9222423Y-6928599D01*
X-9222424Y-6928599D01*
X-9227204Y-6925949D01*
X-9344062Y-6907441D01*
X-9349423Y-6908483D01*
X-9349425Y-6908483D01*
X-9435322Y-6925179D01*
X-9482197Y-6915641D01*
X-9508599Y-6875752D01*
X-9501911Y-6833526D01*
X-9459489Y-6756995D01*
X-9459489Y-6756994D01*
X-9456839Y-6752214D01*
X-9438331Y-6635356D01*
X-9439871Y-6627429D01*
X-9459993Y-6523909D01*
X-9459993Y-6523908D01*
X-9460906Y-6519213D01*
X-9471658Y-6499410D01*
X-9483447Y-6477697D01*
X-9483451Y-6477691D01*
X-9484420Y-6475906D01*
X-9689341Y-6193857D01*
X-9723262Y-6158112D01*
X-9774827Y-6129529D01*
X-9821963Y-6103401D01*
X-9821964Y-6103401D01*
X-9826744Y-6100751D01*
X-9943602Y-6082243D01*
X-9948963Y-6083285D01*
X-9948965Y-6083285D01*
X-10055049Y-6103905D01*
X-10055050Y-6103905D01*
X-10059745Y-6104818D01*
X-10063949Y-6107101D01*
X-10063950Y-6107101D01*
X-10101261Y-6127359D01*
X-10101267Y-6127363D01*
X-10103052Y-6128332D01*
X-10466002Y-6392031D01*
X-10501748Y-6425952D01*
X-10504065Y-6430132D01*
X-10556046Y-6523909D01*
X-10559109Y-6529434D01*
X-10577617Y-6646292D01*
X-10576575Y-6651653D01*
X-10576575Y-6651654D01*
X-10571549Y-6677507D01*
X-10581086Y-6724382D01*
X-10596162Y-6739995D01*
X-10764646Y-6862406D01*
X-10871221Y-6939837D01*
X-10917735Y-6951004D01*
X-11813211Y-6809173D01*
X-11825067Y-6806079D01*
X-11838527Y-6801113D01*
X-11838528Y-6801113D01*
X-11844304Y-6798982D01*
X-11891168Y-6800823D01*
X-11943695Y-6802887D01*
X-11943697Y-6802887D01*
X-11949845Y-6803129D01*
X-11955435Y-6805706D01*
X-11960866Y-6808210D01*
X-12045765Y-6847349D01*
X-12059687Y-6862409D01*
X-12068836Y-6870540D01*
X-12096912Y-6890938D01*
X-12143425Y-6902105D01*
X-12184212Y-6877111D01*
X-12191612Y-6866925D01*
X-12274955Y-6752214D01*
X-12353892Y-6643566D01*
X-12353893Y-6643564D01*
X-12355697Y-6641082D01*
X-12399484Y-6600606D01*
X-12405257Y-6598476D01*
X-12405259Y-6598475D01*
X-12446909Y-6583110D01*
X-12474318Y-6572999D01*
X-12517152Y-6574682D01*
X-12547870Y-6575888D01*
X-12547872Y-6575888D01*
X-12554020Y-6576130D01*
X-12608172Y-6601094D01*
X-12610654Y-6602897D01*
X-12610657Y-6602899D01*
X-13238137Y-7058791D01*
X-13287338Y-7094538D01*
X-13327814Y-7138324D01*
X-13355422Y-7213158D01*
X-16626693Y-7213158D01*
X-16661068Y-7143143D01*
X-16670422Y-7133805D01*
X-16739995Y-7064353D01*
X-16739997Y-7064351D01*
X-16743650Y-7060705D01*
X-16818671Y-7024034D01*
X-16844122Y-7011593D01*
X-16844123Y-7011593D01*
X-16848482Y-7009462D01*
X-16853285Y-7008761D01*
X-16853286Y-7008761D01*
X-16873248Y-7005849D01*
X-16916782Y-6999498D01*
X-17187000Y-6999498D01*
X-17231194Y-6981192D01*
X-17249500Y-6936998D01*
X-17249500Y-6730895D01*
X-16599999Y-6730895D01*
X-16599667Y-6735427D01*
X-16590581Y-6797160D01*
X-16587734Y-6806324D01*
X-16540796Y-6901924D01*
X-16534868Y-6910206D01*
X-16459712Y-6985231D01*
X-16451417Y-6991147D01*
X-16355734Y-7037918D01*
X-16346570Y-7040750D01*
X-16285423Y-7049670D01*
X-16280910Y-7049998D01*
X-15739931Y-7049998D01*
X-15731141Y-7046357D01*
X-15727500Y-7037567D01*
X-15727500Y-7037566D01*
X-15597500Y-7037566D01*
X-15593859Y-7046356D01*
X-15585069Y-7049997D01*
X-15044103Y-7049997D01*
X-15039571Y-7049665D01*
X-14977838Y-7040579D01*
X-14968674Y-7037732D01*
X-14873074Y-6990794D01*
X-14864792Y-6984866D01*
X-14789767Y-6909710D01*
X-14783851Y-6901415D01*
X-14737080Y-6805732D01*
X-14734248Y-6796568D01*
X-14725328Y-6735421D01*
X-14725000Y-6730908D01*
X-14725000Y-6627429D01*
X-14728641Y-6618639D01*
X-14737431Y-6614998D01*
X-15585069Y-6614998D01*
X-15593859Y-6618639D01*
X-15597500Y-6627429D01*
X-15597500Y-7037566D01*
X-15727500Y-7037566D01*
X-15727500Y-6627429D01*
X-15731141Y-6618639D01*
X-15739931Y-6614998D01*
X-16587568Y-6614998D01*
X-16596358Y-6618639D01*
X-16599999Y-6627429D01*
X-16599999Y-6730895D01*
X-17249500Y-6730895D01*
X-17249500Y-6472567D01*
X-16600000Y-6472567D01*
X-16596359Y-6481357D01*
X-16587569Y-6484998D01*
X-15739931Y-6484998D01*
X-15731141Y-6481357D01*
X-15727500Y-6472567D01*
X-15597500Y-6472567D01*
X-15593859Y-6481357D01*
X-15585069Y-6484998D01*
X-14737432Y-6484998D01*
X-14728642Y-6481357D01*
X-14725001Y-6472567D01*
X-14725001Y-6369101D01*
X-14725333Y-6364569D01*
X-14734419Y-6302836D01*
X-14737266Y-6293672D01*
X-14784204Y-6198072D01*
X-14790132Y-6189790D01*
X-14865288Y-6114765D01*
X-14873583Y-6108849D01*
X-14969266Y-6062078D01*
X-14978430Y-6059246D01*
X-15039577Y-6050326D01*
X-15044090Y-6049998D01*
X-15585069Y-6049998D01*
X-15593859Y-6053639D01*
X-15597500Y-6062429D01*
X-15597500Y-6472567D01*
X-15727500Y-6472567D01*
X-15727500Y-6062430D01*
X-15731141Y-6053640D01*
X-15739931Y-6049999D01*
X-16280897Y-6049999D01*
X-16285429Y-6050331D01*
X-16347162Y-6059417D01*
X-16356326Y-6062264D01*
X-16451926Y-6109202D01*
X-16460208Y-6115130D01*
X-16535233Y-6190286D01*
X-16541149Y-6198581D01*
X-16587920Y-6294264D01*
X-16590752Y-6303428D01*
X-16599672Y-6364575D01*
X-16600000Y-6369088D01*
X-16600000Y-6472567D01*
X-17249500Y-6472567D01*
X-17249501Y-5562999D01*
X-17231195Y-5518805D01*
X-17187001Y-5500499D01*
X-16696165Y-5500499D01*
X-16694709Y-5500361D01*
X-16694701Y-5500361D01*
X-16681057Y-5499071D01*
X-16664630Y-5497518D01*
X-16610823Y-5478622D01*
X-16541225Y-5454182D01*
X-16541223Y-5454181D01*
X-16536815Y-5452633D01*
X-16427849Y-5372149D01*
X-16347365Y-5263183D01*
X-16302480Y-5135368D01*
X-16299499Y-5103833D01*
X-16299499Y-4577578D01*
X-16281193Y-4533384D01*
X-16236999Y-4515078D01*
X-16192805Y-4533384D01*
X-16179792Y-4552406D01*
X-16136586Y-4650598D01*
X-16129280Y-4667203D01*
X-16117869Y-4680778D01*
X-16039893Y-4773543D01*
X-16039890Y-4773546D01*
X-16037030Y-4776948D01*
X-15917687Y-4856390D01*
X-15913436Y-4857718D01*
X-15785095Y-4897814D01*
X-15785092Y-4897814D01*
X-15780843Y-4899142D01*
X-15776391Y-4899224D01*
X-15776389Y-4899224D01*
X-15705358Y-4900526D01*
X-15637501Y-4901770D01*
X-15499183Y-4864060D01*
X-15377009Y-4789045D01*
X-15360728Y-4771058D01*
X-15314391Y-4750500D01*
X-15244064Y-4750500D01*
X-15230912Y-4751900D01*
X-15216739Y-4754951D01*
X-15211610Y-4754344D01*
X-15211607Y-4754344D01*
X-15182791Y-4750933D01*
X-15175445Y-4750500D01*
X-15170885Y-4750500D01*
X-15168338Y-4750076D01*
X-15168337Y-4750076D01*
X-15152036Y-4747363D01*
X-15149121Y-4746948D01*
X-15105989Y-4741843D01*
X-15100861Y-4741236D01*
X-15096204Y-4739000D01*
X-15093085Y-4738094D01*
X-15089999Y-4737037D01*
X-15084897Y-4736188D01*
X-15042111Y-4713101D01*
X-15039485Y-4711764D01*
X-14999219Y-4692429D01*
X-14999217Y-4692428D01*
X-14995673Y-4690726D01*
X-14991725Y-4687407D01*
X-14991320Y-4687002D01*
X-14987993Y-4684194D01*
X-14986750Y-4683230D01*
X-14982206Y-4680778D01*
X-14978702Y-4676988D01*
X-14978700Y-4676986D01*
X-14947699Y-4643449D01*
X-14945998Y-4641680D01*
X-14658319Y-4354000D01*
X-14648027Y-4345688D01*
X-14640187Y-4340626D01*
X-14640184Y-4340624D01*
X-14635847Y-4337823D01*
X-14614684Y-4310978D01*
X-14609796Y-4305477D01*
X-14606570Y-4302251D01*
X-14595463Y-4286708D01*
X-14593694Y-4284353D01*
X-14566805Y-4250244D01*
X-14566804Y-4250243D01*
X-14563607Y-4246187D01*
X-14561897Y-4241319D01*
X-14560329Y-4238467D01*
X-14558889Y-4235527D01*
X-14555888Y-4231328D01*
X-14554410Y-4226386D01*
X-14554408Y-4226382D01*
X-14541961Y-4184759D01*
X-14541050Y-4181957D01*
X-14526246Y-4139803D01*
X-14526244Y-4139794D01*
X-14524944Y-4136092D01*
X-14524499Y-4130954D01*
X-14524499Y-4130380D01*
X-14524133Y-4126049D01*
X-14523935Y-4124484D01*
X-14522455Y-4119534D01*
X-14524451Y-4068730D01*
X-14524499Y-4066277D01*
X-14524499Y-3962999D01*
X-14506193Y-3918805D01*
X-14461999Y-3900499D01*
X-14216781Y-3900499D01*
X-14214534Y-3900168D01*
X-14214531Y-3900168D01*
X-14190337Y-3896606D01*
X-14147887Y-3890357D01*
X-14043144Y-3838931D01*
X-14003781Y-3799500D01*
X-13973179Y-3768844D01*
X-13928946Y-3750500D01*
X-13421071Y-3750500D01*
X-13376877Y-3768806D01*
X-13218807Y-3926876D01*
X-13200501Y-3971070D01*
X-13200501Y-4669748D01*
X-13199902Y-4672758D01*
X-13199902Y-4672761D01*
X-13192143Y-4711764D01*
X-13188868Y-4728231D01*
X-13185451Y-4733345D01*
X-13185450Y-4733347D01*
X-13158591Y-4773543D01*
X-13144553Y-4794552D01*
X-13139439Y-4797969D01*
X-13083348Y-4835449D01*
X-13083346Y-4835450D01*
X-13078232Y-4838867D01*
X-13072198Y-4840067D01*
X-13072196Y-4840068D01*
X-13022762Y-4849901D01*
X-13022759Y-4849901D01*
X-13019749Y-4850500D01*
X-11980253Y-4850500D01*
X-11977243Y-4849901D01*
X-11977240Y-4849901D01*
X-11927806Y-4840068D01*
X-11927804Y-4840067D01*
X-11921770Y-4838867D01*
X-11916656Y-4835450D01*
X-11916654Y-4835449D01*
X-11860563Y-4797969D01*
X-11855449Y-4794552D01*
X-11841411Y-4773543D01*
X-11814552Y-4733347D01*
X-11814551Y-4733345D01*
X-11811134Y-4728231D01*
X-11807858Y-4711764D01*
X-11800100Y-4672761D01*
X-11800100Y-4672758D01*
X-11799501Y-4669748D01*
X-11799501Y-4563000D01*
X-11781195Y-4518806D01*
X-11737001Y-4500500D01*
X-11588373Y-4500500D01*
X-11544179Y-4518806D01*
X-11540534Y-4522780D01*
X-11537030Y-4526948D01*
X-11417687Y-4606390D01*
X-11413436Y-4607718D01*
X-11285095Y-4647814D01*
X-11285092Y-4647814D01*
X-11280843Y-4649142D01*
X-11276391Y-4649224D01*
X-11276389Y-4649224D01*
X-11205358Y-4650526D01*
X-11137501Y-4651770D01*
X-10999183Y-4614060D01*
X-10877009Y-4539045D01*
X-10780800Y-4432754D01*
X-10718290Y-4303733D01*
X-10715425Y-4286708D01*
X-10708608Y-4246187D01*
X-10694504Y-4162354D01*
X-10694353Y-4150000D01*
X-10714677Y-4008082D01*
X-10774016Y-3877572D01*
X-10867600Y-3768963D01*
X-10987905Y-3690985D01*
X-11000544Y-3687205D01*
X-11083798Y-3662307D01*
X-11125261Y-3649907D01*
X-11196943Y-3649469D01*
X-11264171Y-3649058D01*
X-11264172Y-3649058D01*
X-11268624Y-3649031D01*
X-11406471Y-3688428D01*
X-11527720Y-3764930D01*
X-11531281Y-3768963D01*
X-11539591Y-3778372D01*
X-11586438Y-3799500D01*
X-11737001Y-3799500D01*
X-11781195Y-3781194D01*
X-11799501Y-3737000D01*
X-11799501Y-3630252D01*
X-11808409Y-3585467D01*
X-11809933Y-3577805D01*
X-11809934Y-3577803D01*
X-11811134Y-3571769D01*
X-11855449Y-3505448D01*
X-11872321Y-3494174D01*
X-11916654Y-3464551D01*
X-11916656Y-3464550D01*
X-11921770Y-3461133D01*
X-11927804Y-3459933D01*
X-11927806Y-3459932D01*
X-11977240Y-3450099D01*
X-11977243Y-3450099D01*
X-11980253Y-3449500D01*
X-12678931Y-3449500D01*
X-12723125Y-3431194D01*
X-12970999Y-3183320D01*
X-12979311Y-3173028D01*
X-12984373Y-3165188D01*
X-12984375Y-3165185D01*
X-12987176Y-3160848D01*
X-13014021Y-3139685D01*
X-13019522Y-3134797D01*
X-13022747Y-3131572D01*
X-13038290Y-3120465D01*
X-13040646Y-3118696D01*
X-13074755Y-3091806D01*
X-13074756Y-3091805D01*
X-13078812Y-3088608D01*
X-13083687Y-3086896D01*
X-13086556Y-3085319D01*
X-13089466Y-3083893D01*
X-13093670Y-3080889D01*
X-13098617Y-3079410D01*
X-13098620Y-3079408D01*
X-13140243Y-3066961D01*
X-13143045Y-3066050D01*
X-13185196Y-3051247D01*
X-13185205Y-3051245D01*
X-13188907Y-3049945D01*
X-13194045Y-3049500D01*
X-13194619Y-3049500D01*
X-13198950Y-3049134D01*
X-13200515Y-3048936D01*
X-13205465Y-3047456D01*
X-13256267Y-3049452D01*
X-13258721Y-3049500D01*
X-13928843Y-3049500D01*
X-13972999Y-3031233D01*
X-14039994Y-2964354D01*
X-14039996Y-2964352D01*
X-14043649Y-2960706D01*
X-14048287Y-2958439D01*
X-14048291Y-2958436D01*
X-14053063Y-2956104D01*
X-14084729Y-2920250D01*
X-14081768Y-2872507D01*
X-14053164Y-2843851D01*
X-14047779Y-2841207D01*
X-14047777Y-2841206D01*
X-14043144Y-2838931D01*
X-13973180Y-2768845D01*
X-13928947Y-2750501D01*
X-13294065Y-2750501D01*
X-13280913Y-2751901D01*
X-13266740Y-2754952D01*
X-13261611Y-2754345D01*
X-13261608Y-2754345D01*
X-13232792Y-2750934D01*
X-13225446Y-2750501D01*
X-13220886Y-2750501D01*
X-13218339Y-2750077D01*
X-13218338Y-2750077D01*
X-13202037Y-2747364D01*
X-13199122Y-2746949D01*
X-13155990Y-2741844D01*
X-13150862Y-2741237D01*
X-13146205Y-2739001D01*
X-13143086Y-2738095D01*
X-13140000Y-2737038D01*
X-13134898Y-2736189D01*
X-13092112Y-2713102D01*
X-13089486Y-2711765D01*
X-13087869Y-2710989D01*
X-13045674Y-2690727D01*
X-13041727Y-2687409D01*
X-13041317Y-2686999D01*
X-13037997Y-2684196D01*
X-13036757Y-2683234D01*
X-13032207Y-2680779D01*
X-12997700Y-2643450D01*
X-12995999Y-2641681D01*
X-12723125Y-2368806D01*
X-12678931Y-2350500D01*
X-11980253Y-2350500D01*
X-11977243Y-2349901D01*
X-11977240Y-2349901D01*
X-11927806Y-2340068D01*
X-11927804Y-2340067D01*
X-11921770Y-2338867D01*
X-11916656Y-2335450D01*
X-11916654Y-2335449D01*
X-11860563Y-2297969D01*
X-11855449Y-2294552D01*
X-11811134Y-2228231D01*
X-11799501Y-2169748D01*
X-11799501Y-1130252D01*
X-11811134Y-1071769D01*
X-11855449Y-1005448D01*
X-11882814Y-987163D01*
X-11916654Y-964551D01*
X-11916656Y-964550D01*
X-11921770Y-961133D01*
X-11927804Y-959933D01*
X-11927806Y-959932D01*
X-11977240Y-950099D01*
X-11977243Y-950099D01*
X-11980253Y-949500D01*
X-13019749Y-949500D01*
X-13022759Y-950099D01*
X-13022762Y-950099D01*
X-13072196Y-959932D01*
X-13072198Y-959933D01*
X-13078232Y-961133D01*
X-13083346Y-964550D01*
X-13083348Y-964551D01*
X-13117188Y-987163D01*
X-13144553Y-1005448D01*
X-13188868Y-1071769D01*
X-13200501Y-1130252D01*
X-13200501Y-1828930D01*
X-13218807Y-1873124D01*
X-13376877Y-2031195D01*
X-13421071Y-2049501D01*
X-13928842Y-2049501D01*
X-13972998Y-2031234D01*
X-14039994Y-1964354D01*
X-14039996Y-1964352D01*
X-14043649Y-1960706D01*
X-14081518Y-1942195D01*
X-14144121Y-1911594D01*
X-14144122Y-1911594D01*
X-14148481Y-1909463D01*
X-14153284Y-1908762D01*
X-14153285Y-1908762D01*
X-14173247Y-1905850D01*
X-14216781Y-1899499D01*
X-15533217Y-1899499D01*
X-15535464Y-1899830D01*
X-15535467Y-1899830D01*
X-15559661Y-1903392D01*
X-15602111Y-1909641D01*
X-15706854Y-1961067D01*
X-15710500Y-1964719D01*
X-15710501Y-1964720D01*
X-15776822Y-2031157D01*
X-15821055Y-2049501D01*
X-16431840Y-2049502D01*
X-16978931Y-2049502D01*
X-17023125Y-2031196D01*
X-17047128Y-2007193D01*
X-17065434Y-1962999D01*
X-17047128Y-1918805D01*
X-17002934Y-1900499D01*
X-16696165Y-1900499D01*
X-16694709Y-1900361D01*
X-16694701Y-1900361D01*
X-16681057Y-1899071D01*
X-16664630Y-1897518D01*
X-16595165Y-1873124D01*
X-16541225Y-1854182D01*
X-16541223Y-1854181D01*
X-16536815Y-1852633D01*
X-16427849Y-1772149D01*
X-16347365Y-1663183D01*
X-16302480Y-1535368D01*
X-16299499Y-1503833D01*
X-16299499Y-696165D01*
X-16302480Y-664630D01*
X-16329863Y-586653D01*
X-16345816Y-541225D01*
X-16345817Y-541223D01*
X-16347365Y-536815D01*
X-16427849Y-427849D01*
X-16536815Y-347365D01*
X-16541223Y-345817D01*
X-16541225Y-345816D01*
X-16632674Y-313702D01*
X-16664630Y-302480D01*
X-16681057Y-300927D01*
X-16694701Y-299637D01*
X-16694709Y-299637D01*
X-16696165Y-299499D01*
X-18103833Y-299499D01*
X-18105289Y-299637D01*
X-18105297Y-299637D01*
X-18118941Y-300927D01*
X-18135368Y-302480D01*
X-18167324Y-313702D01*
X-18258773Y-345816D01*
X-18258775Y-345817D01*
X-18263183Y-347365D01*
X-18372149Y-427849D01*
X-18452633Y-536815D01*
X-18454181Y-541223D01*
X-18454182Y-541225D01*
X-18470135Y-586653D01*
X-18497518Y-664630D01*
X-18500499Y-696165D01*
X-18500499Y-1503833D01*
X-18497518Y-1535368D01*
X-18452633Y-1663183D01*
X-18372149Y-1772149D01*
X-18263183Y-1852633D01*
X-18258775Y-1854181D01*
X-18258773Y-1854182D01*
X-18204833Y-1873124D01*
X-18135368Y-1897518D01*
X-18118941Y-1899071D01*
X-18105297Y-1900361D01*
X-18105289Y-1900361D01*
X-18103833Y-1900499D01*
X-18014370Y-1900499D01*
X-17970176Y-1918805D01*
X-17952303Y-1955651D01*
X-17950935Y-1967206D01*
X-17950502Y-1974554D01*
X-17950502Y-1979113D01*
X-17950501Y-1979122D01*
X-17950500Y-1979139D01*
X-17950501Y-3836999D01*
X-17968807Y-3881193D01*
X-18013001Y-3899499D01*
X-18103833Y-3899499D01*
X-18105289Y-3899637D01*
X-18105297Y-3899637D01*
X-18118941Y-3900927D01*
X-18135368Y-3902480D01*
X-18181855Y-3918805D01*
X-18258773Y-3945816D01*
X-18258775Y-3945817D01*
X-18263183Y-3947365D01*
X-18372149Y-4027849D01*
X-18452633Y-4136815D01*
X-18454181Y-4141223D01*
X-18454182Y-4141225D01*
X-18460755Y-4159942D01*
X-18497518Y-4264630D01*
X-18499071Y-4281057D01*
X-18499382Y-4284353D01*
X-18500499Y-4296165D01*
X-18500499Y-5103833D01*
X-18799500Y-5103833D01*
X-18799500Y696167D01*
X-18500499Y696167D01*
X-18497518Y664632D01*
X-18452633Y536817D01*
X-18372149Y427851D01*
X-18263183Y347367D01*
X-18258775Y345819D01*
X-18258773Y345818D01*
X-18224128Y333652D01*
X-18135368Y302482D01*
X-18118941Y300929D01*
X-18105297Y299639D01*
X-18105289Y299639D01*
X-18103833Y299501D01*
X-16696165Y299501D01*
X-16694709Y299639D01*
X-16694701Y299639D01*
X-16681057Y300929D01*
X-16664630Y302482D01*
X-16575870Y333652D01*
X-16541225Y345818D01*
X-16541223Y345819D01*
X-16536815Y347367D01*
X-16427849Y427851D01*
X-16347365Y536817D01*
X-16302480Y664632D01*
X-16299499Y696167D01*
X-16299499Y1222424D01*
X-16281193Y1266618D01*
X-16236999Y1284924D01*
X-16192805Y1266618D01*
X-16179792Y1247596D01*
X-16136070Y1148231D01*
X-16129279Y1132797D01*
X-16126415Y1129390D01*
X-16039892Y1026457D01*
X-16039889Y1026454D01*
X-16037029Y1023052D01*
X-15917686Y943610D01*
X-15913435Y942282D01*
X-15785094Y902186D01*
X-15785091Y902186D01*
X-15780842Y900858D01*
X-15776390Y900776D01*
X-15776388Y900776D01*
X-15705357Y899474D01*
X-15637500Y898230D01*
X-15499182Y935940D01*
X-15397389Y998441D01*
X-15380801Y1008626D01*
X-15377008Y1010955D01*
X-15360727Y1028942D01*
X-15314390Y1049500D01*
X-15244064Y1049500D01*
X-15230912Y1048100D01*
X-15216739Y1045049D01*
X-15211610Y1045656D01*
X-15211607Y1045656D01*
X-15182791Y1049067D01*
X-15175445Y1049500D01*
X-15170885Y1049500D01*
X-15152019Y1052640D01*
X-15149137Y1053050D01*
X-15100862Y1058764D01*
X-15096201Y1061002D01*
X-15093028Y1061924D01*
X-15089990Y1062964D01*
X-15084897Y1063812D01*
X-15042101Y1086904D01*
X-15039485Y1088236D01*
X-14999219Y1107571D01*
X-14999215Y1107574D01*
X-14995674Y1109274D01*
X-14991726Y1112592D01*
X-14991310Y1113008D01*
X-14987999Y1115802D01*
X-14986753Y1116768D01*
X-14982206Y1119222D01*
X-14947699Y1156551D01*
X-14945998Y1158320D01*
X-14658320Y1445999D01*
X-14648028Y1454311D01*
X-14640191Y1459371D01*
X-14640190Y1459372D01*
X-14635847Y1462176D01*
X-14632647Y1466235D01*
X-14632645Y1466237D01*
X-14614681Y1489025D01*
X-14609793Y1494526D01*
X-14606571Y1497748D01*
X-14601174Y1505299D01*
X-14595464Y1513290D01*
X-14593696Y1515644D01*
X-14575313Y1538963D01*
X-14563607Y1553812D01*
X-14561894Y1558689D01*
X-14560317Y1561558D01*
X-14558892Y1564466D01*
X-14555888Y1568670D01*
X-14554409Y1573617D01*
X-14554407Y1573620D01*
X-14541960Y1615243D01*
X-14541049Y1618045D01*
X-14526246Y1660196D01*
X-14526244Y1660205D01*
X-14524944Y1663907D01*
X-14524499Y1669045D01*
X-14524499Y1669619D01*
X-14524133Y1673950D01*
X-14523935Y1675515D01*
X-14522455Y1680465D01*
X-14524451Y1731268D01*
X-14524499Y1733721D01*
X-14524499Y1837001D01*
X-14506193Y1881195D01*
X-14461999Y1899501D01*
X-14216781Y1899501D01*
X-14214534Y1899832D01*
X-14214531Y1899832D01*
X-14190337Y1903394D01*
X-14147887Y1909643D01*
X-14043144Y1961069D01*
X-14003780Y2000501D01*
X-13973179Y2031156D01*
X-13928946Y2049500D01*
X-13421071Y2049500D01*
X-13376877Y2031194D01*
X-13218806Y1873123D01*
X-13200500Y1828929D01*
X-13200500Y1130253D01*
X-13199901Y1127243D01*
X-13199901Y1127240D01*
X-13191876Y1086899D01*
X-13188867Y1071770D01*
X-13185450Y1066656D01*
X-13185449Y1066654D01*
X-13160250Y1028942D01*
X-13144552Y1005449D01*
X-13139438Y1002032D01*
X-13083347Y964552D01*
X-13083345Y964551D01*
X-13078231Y961134D01*
X-13072197Y959934D01*
X-13072195Y959933D01*
X-13022761Y950100D01*
X-13022758Y950100D01*
X-13019748Y949501D01*
X-11980252Y949501D01*
X-11977242Y950100D01*
X-11977239Y950100D01*
X-11927805Y959933D01*
X-11927803Y959934D01*
X-11921769Y961134D01*
X-11916655Y964551D01*
X-11916653Y964552D01*
X-11860562Y1002032D01*
X-11855448Y1005449D01*
X-11839750Y1028942D01*
X-11814551Y1066654D01*
X-11814550Y1066656D01*
X-11811133Y1071770D01*
X-11808123Y1086899D01*
X-11800099Y1127240D01*
X-11800099Y1127243D01*
X-11799500Y1130253D01*
X-11799500Y1237001D01*
X-11781194Y1281195D01*
X-11737000Y1299501D01*
X-11588373Y1299501D01*
X-11544179Y1281195D01*
X-11540534Y1277221D01*
X-11537030Y1273053D01*
X-11417687Y1193611D01*
X-11413436Y1192283D01*
X-11285095Y1152187D01*
X-11285092Y1152187D01*
X-11280843Y1150859D01*
X-11276391Y1150777D01*
X-11276389Y1150777D01*
X-11205358Y1149475D01*
X-11137501Y1148231D01*
X-10999183Y1185941D01*
X-10877009Y1260956D01*
X-10780800Y1367247D01*
X-10719363Y1494053D01*
X-10683621Y1525842D01*
X-10635867Y1523047D01*
X-10604077Y1487304D01*
X-10601273Y1457779D01*
X-10629539Y1264021D01*
X-10634437Y1230446D01*
X-10643027Y1130253D01*
X-10677068Y733173D01*
X-10688692Y597591D01*
X-10696495Y299639D01*
X-10697281Y269609D01*
X-10704363Y-870D01*
X-10705319Y-37369D01*
X-10684259Y-672197D01*
X-10684174Y-673114D01*
X-10684173Y-673129D01*
X-10636002Y-1192401D01*
X-10625588Y-1304658D01*
X-10590864Y-1531577D01*
X-10532684Y-1911782D01*
X-10529510Y-1932527D01*
X-10396365Y-2553592D01*
X-10226622Y-3165668D01*
X-10020877Y-3766600D01*
X-9779855Y-4354272D01*
X-9504405Y-4926615D01*
X-9503963Y-4927409D01*
X-9503961Y-4927413D01*
X-9195939Y-5480820D01*
X-9195931Y-5480833D01*
X-9195496Y-5481615D01*
X-8854215Y-6017318D01*
X-8481765Y-6531838D01*
X-8481173Y-6532561D01*
X-8481164Y-6532573D01*
X-8088937Y-7011781D01*
X-8079456Y-7023364D01*
X-8078842Y-7024029D01*
X-8078838Y-7024034D01*
X-7722994Y-7409658D01*
X-7648704Y-7490165D01*
X-7191027Y-7930598D01*
X-7190315Y-7931206D01*
X-7190314Y-7931207D01*
X-7040282Y-8059346D01*
X-6708034Y-8343112D01*
X-6547230Y-8464727D01*
X-6211173Y-8718885D01*
X-6201427Y-8726256D01*
X-6200670Y-8726761D01*
X-6200667Y-8726763D01*
X-6117834Y-8782006D01*
X-5672989Y-9078681D01*
X-5546007Y-9152883D01*
X-5153001Y-9382537D01*
X-5124580Y-9399145D01*
X-5123743Y-9399570D01*
X-5123735Y-9399574D01*
X-4882899Y-9521757D01*
X-4558131Y-9686521D01*
X-4557286Y-9686889D01*
X-4557272Y-9686895D01*
X-4223029Y-9832227D01*
X-3975635Y-9939797D01*
X-3974754Y-9940119D01*
X-3974755Y-9940119D01*
X-3380028Y-10157759D01*
X-3380013Y-10157764D01*
X-3379144Y-10158082D01*
X-3378264Y-10158346D01*
X-3378249Y-10158351D01*
X-2771622Y-10340348D01*
X-2771606Y-10340352D01*
X-2770757Y-10340607D01*
X-2769887Y-10340813D01*
X-2769882Y-10340814D01*
X-2608766Y-10378900D01*
X-2152616Y-10486729D01*
X-1526898Y-10595935D01*
X-1525979Y-10596040D01*
X-1525970Y-10596041D01*
X-896734Y-10667733D01*
X-896732Y-10667733D01*
X-895803Y-10667839D01*
X-821119Y-10671884D01*
X-262485Y-10702138D01*
X-262475Y-10702138D01*
X-261556Y-10702188D01*
X-67113Y-10701170D01*
X372690Y-10698868D01*
X372696Y-10698868D01*
X373613Y-10698863D01*
X374523Y-10698804D01*
X374527Y-10698804D01*
X646292Y-10681229D01*
X1007466Y-10657873D01*
X1008384Y-10657759D01*
X1008391Y-10657758D01*
X1636844Y-10579480D01*
X1636858Y-10579478D01*
X1637772Y-10579364D01*
X1638690Y-10579194D01*
X1638702Y-10579192D01*
X2170541Y-10480621D01*
X2262313Y-10463612D01*
X2263184Y-10463396D01*
X2263200Y-10463393D01*
X2604619Y-10378900D01*
X2878890Y-10311025D01*
X2887068Y-10308478D01*
X3055288Y-10256083D01*
X3485332Y-10122139D01*
X3769069Y-10014924D01*
X4078635Y-9897949D01*
X4078642Y-9897946D01*
X4079505Y-9897620D01*
X4490771Y-9713652D01*
X4658454Y-9638644D01*
X4658465Y-9638639D01*
X4659316Y-9638258D01*
X5072222Y-9423313D01*
X5221903Y-9345394D01*
X5221905Y-9345393D01*
X5222725Y-9344966D01*
X5223868Y-9344282D01*
X5766948Y-9019255D01*
X5766953Y-9019252D01*
X5767748Y-9018776D01*
X6292467Y-8660838D01*
X6698135Y-8347302D01*
X6794298Y-8272979D01*
X6794301Y-8272976D01*
X6795034Y-8272410D01*
X6935879Y-8149543D01*
X7272994Y-7855459D01*
X7273004Y-7855449D01*
X7273680Y-7854860D01*
X7274321Y-7854230D01*
X7274333Y-7854219D01*
X7581019Y-7552838D01*
X7726720Y-7409658D01*
X7727334Y-7408979D01*
X7727346Y-7408966D01*
X8013084Y-7092733D01*
X8152560Y-6938372D01*
X8549700Y-6442661D01*
X8601784Y-6369101D01*
X8916214Y-5925015D01*
X8916217Y-5925011D01*
X8916742Y-5924269D01*
X9252394Y-5385022D01*
X9555474Y-4826817D01*
X9692928Y-4533384D01*
X9824525Y-4252456D01*
X9824527Y-4252452D01*
X9824916Y-4251621D01*
X9989914Y-3836999D01*
X10059432Y-3662307D01*
X10059435Y-3662299D01*
X10059770Y-3661457D01*
X10069075Y-3633323D01*
X10258921Y-3059281D01*
X10258921Y-3059280D01*
X10259211Y-3058404D01*
X10351445Y-2711765D01*
X10422302Y-2445465D01*
X10422305Y-2445452D01*
X10422536Y-2444584D01*
X10422721Y-2443676D01*
X10548985Y-1823069D01*
X10548987Y-1823058D01*
X10549170Y-1822158D01*
X10638667Y-1193318D01*
X10680515Y-684316D01*
X11479501Y-684316D01*
X11479767Y-686340D01*
X11479768Y-686348D01*
X11480868Y-694701D01*
X11485933Y-733173D01*
X11535936Y-840404D01*
X11619597Y-924065D01*
X11624552Y-926376D01*
X11624554Y-926377D01*
X11644415Y-935638D01*
X11726828Y-974068D01*
X11741123Y-975950D01*
X11773653Y-980233D01*
X11773661Y-980234D01*
X11775685Y-980500D01*
X12224317Y-980500D01*
X12226341Y-980234D01*
X12226349Y-980233D01*
X12258879Y-975950D01*
X12273174Y-974068D01*
X12355587Y-935638D01*
X12375448Y-926377D01*
X12375450Y-926376D01*
X12380405Y-924065D01*
X12464066Y-840404D01*
X12482167Y-801585D01*
X12517436Y-769268D01*
X12538811Y-765499D01*
X12735959Y-765500D01*
X12864139Y-765500D01*
X12908333Y-783806D01*
X13559420Y-1434893D01*
X13567193Y-1444364D01*
X13578586Y-1461415D01*
X13600753Y-1476226D01*
X13666408Y-1520095D01*
X13672445Y-1521296D01*
X13763963Y-1539501D01*
X13770001Y-1540702D01*
X13790115Y-1536701D01*
X13802308Y-1535500D01*
X13837000Y-1535500D01*
X13881194Y-1553806D01*
X13899500Y-1598000D01*
X13899500Y-1889748D01*
X13900099Y-1892758D01*
X13900099Y-1892761D01*
X13905280Y-1918805D01*
X13911133Y-1948231D01*
X13914550Y-1953345D01*
X13914551Y-1953347D01*
X13931768Y-1979113D01*
X13955448Y-2014552D01*
X13960562Y-2017969D01*
X14016653Y-2055449D01*
X14016655Y-2055450D01*
X14021769Y-2058867D01*
X14027803Y-2060067D01*
X14027805Y-2060068D01*
X14077239Y-2069901D01*
X14077242Y-2069901D01*
X14080252Y-2070500D01*
X14919748Y-2070500D01*
X14922758Y-2069901D01*
X14922761Y-2069901D01*
X14972195Y-2060068D01*
X14972197Y-2060067D01*
X14978231Y-2058867D01*
X14983345Y-2055450D01*
X14983347Y-2055449D01*
X15039438Y-2017969D01*
X15044552Y-2014552D01*
X15068232Y-1979113D01*
X15085449Y-1953347D01*
X15085450Y-1953345D01*
X15088867Y-1948231D01*
X15094721Y-1918805D01*
X15099901Y-1892761D01*
X15099901Y-1892758D01*
X15100500Y-1889748D01*
X15100500Y-650252D01*
X15088867Y-591769D01*
X15067825Y-560277D01*
X15047969Y-530562D01*
X15044552Y-525448D01*
X15009116Y-501770D01*
X14983347Y-484551D01*
X14983345Y-484550D01*
X14978231Y-481133D01*
X14972197Y-479933D01*
X14972195Y-479932D01*
X14922761Y-470099D01*
X14922758Y-470099D01*
X14919748Y-469500D01*
X14080252Y-469500D01*
X14077242Y-470099D01*
X14077239Y-470099D01*
X14027805Y-479932D01*
X14027803Y-479933D01*
X14021769Y-481133D01*
X14016655Y-484550D01*
X14016653Y-484551D01*
X13990884Y-501770D01*
X13955448Y-525448D01*
X13952031Y-530562D01*
X13932176Y-560277D01*
X13911133Y-591769D01*
X13899500Y-650252D01*
X13899500Y-873138D01*
X13881194Y-917332D01*
X13837000Y-935638D01*
X13792806Y-917332D01*
X13210581Y-335107D01*
X13202808Y-325636D01*
X13194834Y-313702D01*
X13191415Y-308585D01*
X13103593Y-249905D01*
X13086787Y-246562D01*
X13000000Y-229298D01*
X12979887Y-233299D01*
X12967693Y-234500D01*
X12909015Y-234500D01*
X12529485Y-234499D01*
X12485291Y-216193D01*
X12472841Y-198414D01*
X12466378Y-184553D01*
X12464066Y-179596D01*
X12424218Y-139748D01*
X13899500Y-139748D01*
X13900099Y-142758D01*
X13900099Y-142761D01*
X13902282Y-153733D01*
X13911133Y-198231D01*
X13914550Y-203345D01*
X13914551Y-203347D01*
X13943427Y-246562D01*
X13955448Y-264552D01*
X13960562Y-267969D01*
X14016653Y-305449D01*
X14016655Y-305450D01*
X14021769Y-308867D01*
X14027803Y-310067D01*
X14027805Y-310068D01*
X14077239Y-319901D01*
X14077242Y-319901D01*
X14080252Y-320500D01*
X14919748Y-320500D01*
X14922758Y-319901D01*
X14922761Y-319901D01*
X14972195Y-310068D01*
X14972197Y-310067D01*
X14978231Y-308867D01*
X14983348Y-305448D01*
X14983350Y-305447D01*
X15027371Y-276033D01*
X15062094Y-265500D01*
X15140177Y-265500D01*
X15184371Y-283806D01*
X15188020Y-287784D01*
X15260107Y-373543D01*
X15260110Y-373546D01*
X15262970Y-376948D01*
X15382313Y-456390D01*
X15386564Y-457718D01*
X15514905Y-497814D01*
X15514908Y-497814D01*
X15519157Y-499142D01*
X15523609Y-499224D01*
X15523611Y-499224D01*
X15594642Y-500526D01*
X15662499Y-501770D01*
X15800817Y-464060D01*
X15913882Y-394638D01*
X15919198Y-391374D01*
X15922991Y-389045D01*
X15980386Y-325636D01*
X16016213Y-286054D01*
X16019200Y-282754D01*
X16081710Y-153733D01*
X16105496Y-12354D01*
X16105647Y0D01*
X16085323Y141918D01*
X16025984Y272428D01*
X15932400Y381037D01*
X15812095Y459015D01*
X15799456Y462795D01*
X15765663Y472901D01*
X15674739Y500093D01*
X15603057Y500531D01*
X15535829Y500942D01*
X15535828Y500942D01*
X15531376Y500969D01*
X15393529Y461572D01*
X15272280Y385070D01*
X15269337Y381738D01*
X15269335Y381736D01*
X15238982Y347367D01*
X15226870Y333652D01*
X15209846Y314376D01*
X15166870Y293369D01*
X15121627Y308903D01*
X15100500Y355749D01*
X15100500Y1899748D01*
X15099901Y1902761D01*
X15090068Y1952195D01*
X15090067Y1952197D01*
X15088867Y1958231D01*
X15044552Y2024552D01*
X15009788Y2047781D01*
X14983347Y2065449D01*
X14983345Y2065450D01*
X14978231Y2068867D01*
X14972197Y2070067D01*
X14972195Y2070068D01*
X14922761Y2079901D01*
X14922758Y2079901D01*
X14919748Y2080500D01*
X14080252Y2080500D01*
X14077242Y2079901D01*
X14077239Y2079901D01*
X14027805Y2070068D01*
X14027803Y2070067D01*
X14021769Y2068867D01*
X14016655Y2065450D01*
X14016653Y2065449D01*
X13990212Y2047781D01*
X13955448Y2024552D01*
X13911133Y1958231D01*
X13909933Y1952197D01*
X13909932Y1952195D01*
X13900099Y1902761D01*
X13899500Y1899748D01*
X13899500Y-139748D01*
X12424218Y-139748D01*
X12380405Y-95935D01*
X12296146Y-56644D01*
X12263829Y-21376D01*
X12265916Y26414D01*
X12296146Y56644D01*
X12375447Y93623D01*
X12380405Y95935D01*
X12464066Y179596D01*
X12477505Y208415D01*
X12512770Y240730D01*
X12534147Y244500D01*
X12540178Y244500D01*
X12584372Y226194D01*
X12588021Y222216D01*
X12660108Y136457D01*
X12660111Y136454D01*
X12662971Y133052D01*
X12782314Y53610D01*
X12786565Y52282D01*
X12914906Y12186D01*
X12914909Y12186D01*
X12919158Y10858D01*
X12923610Y10776D01*
X12923612Y10776D01*
X12994643Y9474D01*
X13062500Y8230D01*
X13200818Y45940D01*
X13322992Y120955D01*
X13419201Y227246D01*
X13481711Y356267D01*
X13485879Y381037D01*
X13493754Y427851D01*
X13505497Y497646D01*
X13505648Y510000D01*
X13485324Y651918D01*
X13425985Y782428D01*
X13332401Y891037D01*
X13212096Y969015D01*
X13199457Y972795D01*
X13101694Y1002032D01*
X13074740Y1010093D01*
X13003058Y1010531D01*
X12935830Y1010942D01*
X12935829Y1010942D01*
X12931377Y1010969D01*
X12793530Y971572D01*
X12672281Y895070D01*
X12669338Y891738D01*
X12669336Y891736D01*
X12585340Y796627D01*
X12538494Y775500D01*
X12534147Y775500D01*
X12489953Y793806D01*
X12477506Y811581D01*
X12464066Y840404D01*
X12380405Y924065D01*
X12375450Y926376D01*
X12375448Y926377D01*
X12303486Y959933D01*
X12273174Y974068D01*
X12258879Y975950D01*
X12226349Y980233D01*
X12226341Y980234D01*
X12224317Y980500D01*
X11775685Y980500D01*
X11773661Y980234D01*
X11773653Y980233D01*
X11741123Y975950D01*
X11726828Y974068D01*
X11696516Y959933D01*
X11624554Y926377D01*
X11624552Y926376D01*
X11619597Y924065D01*
X11535936Y840404D01*
X11533625Y835449D01*
X11533624Y835447D01*
X11510473Y785799D01*
X11485933Y733173D01*
X11485309Y728432D01*
X11479768Y686348D01*
X11479767Y686340D01*
X11479501Y684316D01*
X11479501Y335684D01*
X11479767Y333660D01*
X11479768Y333652D01*
X11482306Y314376D01*
X11485933Y286827D01*
X11535936Y179596D01*
X11619597Y95935D01*
X11624555Y93623D01*
X11703856Y56644D01*
X11736173Y21376D01*
X11734086Y-26414D01*
X11703856Y-56644D01*
X11619597Y-95935D01*
X11535936Y-179596D01*
X11533625Y-184551D01*
X11533624Y-184553D01*
X11518870Y-216193D01*
X11485933Y-286827D01*
X11485309Y-291568D01*
X11479768Y-333652D01*
X11479767Y-333660D01*
X11479501Y-335684D01*
X11479501Y-684316D01*
X10680515Y-684316D01*
X10688124Y-591769D01*
X10690643Y-561129D01*
X10690643Y-561127D01*
X10690713Y-560277D01*
X10705384Y0D01*
X10705138Y8312D01*
X10686569Y633959D01*
X10686569Y633963D01*
X10686541Y634898D01*
X10685416Y647509D01*
X10667855Y844272D01*
X10630077Y1267560D01*
X10629625Y1270588D01*
X10536329Y1894844D01*
X10536328Y1894847D01*
X10536192Y1895760D01*
X10442562Y2340069D01*
X10405405Y2516392D01*
X10405402Y2516405D01*
X10405216Y2517287D01*
X10368494Y2651519D01*
X10237856Y3129054D01*
X10237850Y3129073D01*
X10237610Y3129951D01*
X10033964Y3731598D01*
X9794995Y4320107D01*
X9521544Y4893409D01*
X9290310Y5312289D01*
X9215009Y5448697D01*
X9215001Y5448711D01*
X9214574Y5449484D01*
X9182323Y5500501D01*
X8875654Y5985603D01*
X8875166Y5986375D01*
X8583673Y6392031D01*
X8505062Y6501430D01*
X8505055Y6501440D01*
X8504514Y6502192D01*
X8490682Y6519213D01*
X8104510Y6994396D01*
X8104506Y6994401D01*
X8103923Y6995118D01*
X7838505Y7284771D01*
X7675421Y7462746D01*
X7675414Y7462753D01*
X7674803Y7463420D01*
X7672044Y7466094D01*
X7219319Y7904816D01*
X7219305Y7904829D01*
X7218666Y7905448D01*
X6795878Y8269103D01*
X6737836Y8319027D01*
X6737830Y8319032D01*
X6737116Y8319646D01*
X6656107Y8381359D01*
X6232592Y8703991D01*
X6232586Y8703995D01*
X6231850Y8704556D01*
X5704645Y9058823D01*
X5338991Y9274210D01*
X5158162Y9380727D01*
X5158147Y9380735D01*
X5157358Y9381200D01*
X5152295Y9383791D01*
X4592739Y9670130D01*
X4592721Y9670138D01*
X4591915Y9670551D01*
X4589300Y9671699D01*
X4011141Y9925493D01*
X4011138Y9925494D01*
X4010307Y9925859D01*
X4009453Y9926175D01*
X3415442Y10145907D01*
X3415438Y10145908D01*
X3414582Y10146225D01*
X2806836Y10330872D01*
X2220249Y10471699D01*
X2190105Y10478936D01*
X2190101Y10478937D01*
X2189209Y10479151D01*
X2188315Y10479310D01*
X2188297Y10479314D01*
X1564813Y10590373D01*
X1564810Y10590373D01*
X1563875Y10590540D01*
X1168849Y10636945D01*
X933949Y10664540D01*
X933941Y10664541D01*
X933036Y10664647D01*
X424599Y10693963D01*
X299832Y10701157D01*
X299830Y10701157D01*
X298912Y10701210D01*
X-31417Y10700634D01*
X-335332Y10700104D01*
X-335345Y10700104D01*
X-336264Y10700102D01*
X-337188Y10700045D01*
X-337203Y10700045D01*
X-969317Y10661383D01*
X-969334Y10661381D01*
X-970257Y10661325D01*
X-971190Y10661212D01*
X-971191Y10661212D01*
X-1599918Y10585128D01*
X-1599927Y10585127D01*
X-1600833Y10585017D01*
X-2225774Y10471446D01*
X-2330437Y10445932D01*
X-2810132Y10328995D01*
X-2842880Y10321012D01*
X-3449978Y10134244D01*
X-3450831Y10133925D01*
X-3450843Y10133921D01*
X-3624267Y10069080D01*
X-4044931Y9911800D01*
X-4625644Y9654463D01*
X-5190073Y9363140D01*
X-5190836Y9362687D01*
X-5190854Y9362677D01*
X-5719818Y9048601D01*
X-5736232Y9038855D01*
X-5881382Y8940581D01*
X-6227375Y8706326D01*
X-6262197Y8682750D01*
X-6766116Y8296078D01*
X-7246217Y7880202D01*
X-7246864Y7879570D01*
X-7246869Y7879566D01*
X-7670570Y7466094D01*
X-7700809Y7436585D01*
X-7701433Y7435899D01*
X-7701439Y7435893D01*
X-8115365Y6980993D01*
X-8128291Y6966788D01*
X-8128862Y6966080D01*
X-8128870Y6966071D01*
X-8321906Y6726839D01*
X-8527159Y6472466D01*
X-8527695Y6471715D01*
X-8527700Y6471708D01*
X-8895469Y5956114D01*
X-8896008Y5955358D01*
X-8896502Y5954570D01*
X-8896503Y5954569D01*
X-9213342Y5449484D01*
X-9233540Y5417286D01*
X-9233984Y5416475D01*
X-9446789Y5027778D01*
X-9538567Y4860143D01*
X-9538958Y4859317D01*
X-9538961Y4859310D01*
X-9550300Y4835322D01*
X-9810015Y4285890D01*
X-9810355Y4285043D01*
X-9810359Y4285035D01*
X-10025240Y3750501D01*
X-10046928Y3696550D01*
X-10135715Y3431195D01*
X-10227308Y3157450D01*
X-10248473Y3094196D01*
X-10248714Y3093304D01*
X-10248717Y3093293D01*
X-10293453Y2927493D01*
X-10413939Y2480950D01*
X-10542745Y1858970D01*
X-10571934Y1658885D01*
X-10596427Y1617796D01*
X-10642801Y1606062D01*
X-10683890Y1630555D01*
X-10695648Y1659047D01*
X-10706166Y1732489D01*
X-10714677Y1791919D01*
X-10774016Y1922429D01*
X-10867600Y2031038D01*
X-10987905Y2109016D01*
X-11000544Y2112796D01*
X-11034337Y2122902D01*
X-11125261Y2150094D01*
X-11196942Y2150532D01*
X-11264171Y2150943D01*
X-11264172Y2150943D01*
X-11268624Y2150970D01*
X-11406471Y2111573D01*
X-11527720Y2035071D01*
X-11531281Y2031038D01*
X-11539591Y2021629D01*
X-11586438Y2000501D01*
X-11737000Y2000501D01*
X-11781194Y2018807D01*
X-11799500Y2063001D01*
X-11799500Y2169749D01*
X-11808408Y2214533D01*
X-11809932Y2222196D01*
X-11809933Y2222198D01*
X-11811133Y2228232D01*
X-11855448Y2294553D01*
X-11877826Y2309506D01*
X-11916653Y2335450D01*
X-11916655Y2335451D01*
X-11921769Y2338868D01*
X-11927803Y2340068D01*
X-11927805Y2340069D01*
X-11977239Y2349902D01*
X-11977242Y2349902D01*
X-11980252Y2350501D01*
X-12678932Y2350501D01*
X-12723126Y2368807D01*
X-12970999Y2616680D01*
X-12979311Y2626972D01*
X-12984373Y2634812D01*
X-12984375Y2634815D01*
X-12987176Y2639152D01*
X-13014021Y2660315D01*
X-13019522Y2665203D01*
X-13022747Y2668428D01*
X-13038290Y2679535D01*
X-13040646Y2681304D01*
X-13074755Y2708194D01*
X-13074756Y2708195D01*
X-13078812Y2711392D01*
X-13083687Y2713104D01*
X-13086556Y2714681D01*
X-13089466Y2716107D01*
X-13093670Y2719111D01*
X-13098617Y2720590D01*
X-13098620Y2720592D01*
X-13140243Y2733039D01*
X-13143045Y2733950D01*
X-13185196Y2748753D01*
X-13185205Y2748755D01*
X-13188907Y2750055D01*
X-13194045Y2750500D01*
X-13194619Y2750500D01*
X-13198950Y2750866D01*
X-13200515Y2751064D01*
X-13205465Y2752544D01*
X-13256266Y2750548D01*
X-13258720Y2750500D01*
X-13928843Y2750500D01*
X-13972999Y2768767D01*
X-14039994Y2835646D01*
X-14039996Y2835648D01*
X-14043649Y2839294D01*
X-14048287Y2841561D01*
X-14048291Y2841564D01*
X-14053063Y2843896D01*
X-14084729Y2879750D01*
X-14081768Y2927493D01*
X-14053164Y2956149D01*
X-14047779Y2958793D01*
X-14047777Y2958794D01*
X-14043144Y2961069D01*
X-13973177Y3031158D01*
X-13928944Y3049502D01*
X-13294064Y3049502D01*
X-13280912Y3048102D01*
X-13266739Y3045051D01*
X-13261610Y3045658D01*
X-13261607Y3045658D01*
X-13232791Y3049069D01*
X-13225445Y3049502D01*
X-13220885Y3049502D01*
X-13202019Y3052642D01*
X-13199137Y3053052D01*
X-13150862Y3058766D01*
X-13146201Y3061004D01*
X-13143028Y3061926D01*
X-13139990Y3062966D01*
X-13134897Y3063814D01*
X-13092101Y3086906D01*
X-13089485Y3088238D01*
X-13049219Y3107573D01*
X-13049215Y3107576D01*
X-13045674Y3109276D01*
X-13041726Y3112594D01*
X-13041310Y3113010D01*
X-13037999Y3115804D01*
X-13036753Y3116770D01*
X-13032206Y3119224D01*
X-12997701Y3156551D01*
X-12996000Y3158320D01*
X-12723125Y3431195D01*
X-12678931Y3449501D01*
X-11980252Y3449501D01*
X-11977242Y3450100D01*
X-11977239Y3450100D01*
X-11927805Y3459933D01*
X-11927803Y3459934D01*
X-11921769Y3461134D01*
X-11916655Y3464551D01*
X-11916653Y3464552D01*
X-11860562Y3502032D01*
X-11855448Y3505449D01*
X-11811133Y3571770D01*
X-11799500Y3630253D01*
X-11799500Y4669749D01*
X-11811133Y4728232D01*
X-11855448Y4794553D01*
X-11872320Y4805827D01*
X-11916653Y4835450D01*
X-11916655Y4835451D01*
X-11921769Y4838868D01*
X-11927803Y4840068D01*
X-11927805Y4840069D01*
X-11977239Y4849902D01*
X-11977242Y4849902D01*
X-11980252Y4850501D01*
X-13019748Y4850501D01*
X-13022758Y4849902D01*
X-13022761Y4849902D01*
X-13072195Y4840069D01*
X-13072197Y4840068D01*
X-13078231Y4838868D01*
X-13083345Y4835451D01*
X-13083347Y4835450D01*
X-13127680Y4805827D01*
X-13144552Y4794553D01*
X-13188867Y4728232D01*
X-13200500Y4669749D01*
X-13200500Y3971072D01*
X-13218806Y3926878D01*
X-13376876Y3768808D01*
X-13421070Y3750502D01*
X-13928845Y3750502D01*
X-13973001Y3768769D01*
X-14039994Y3835646D01*
X-14039996Y3835648D01*
X-14043649Y3839294D01*
X-14074674Y3854459D01*
X-14144121Y3888406D01*
X-14144122Y3888406D01*
X-14148481Y3890537D01*
X-14153284Y3891238D01*
X-14153285Y3891238D01*
X-14173247Y3894150D01*
X-14216781Y3900501D01*
X-15533217Y3900501D01*
X-15535464Y3900170D01*
X-15535467Y3900170D01*
X-15559661Y3896608D01*
X-15602111Y3890359D01*
X-15706854Y3838933D01*
X-15710500Y3835281D01*
X-15710501Y3835280D01*
X-15776820Y3768845D01*
X-15821053Y3750501D01*
X-16978931Y3750501D01*
X-17023125Y3768807D01*
X-17047125Y3792807D01*
X-17065431Y3837001D01*
X-17047125Y3881195D01*
X-17002931Y3899501D01*
X-16696165Y3899501D01*
X-16694709Y3899639D01*
X-16694701Y3899639D01*
X-16681057Y3900929D01*
X-16664630Y3902482D01*
X-16610823Y3921378D01*
X-16541225Y3945818D01*
X-16541223Y3945819D01*
X-16536815Y3947367D01*
X-16427849Y4027851D01*
X-16347365Y4136817D01*
X-16302480Y4264632D01*
X-16299499Y4296167D01*
X-16299499Y5103835D01*
X-16302480Y5135370D01*
X-16347365Y5263185D01*
X-16427849Y5372151D01*
X-16536815Y5452635D01*
X-16541223Y5454183D01*
X-16541225Y5454184D01*
X-16610823Y5478624D01*
X-16664630Y5497520D01*
X-16681057Y5499073D01*
X-16694701Y5500363D01*
X-16694709Y5500363D01*
X-16696165Y5500501D01*
X-17186999Y5500501D01*
X-17231193Y5518807D01*
X-17249499Y5563001D01*
X-17249498Y6366782D01*
X-16600500Y6366782D01*
X-16590358Y6297888D01*
X-16538932Y6193145D01*
X-16535280Y6189499D01*
X-16535279Y6189498D01*
X-16460005Y6114355D01*
X-16460003Y6114353D01*
X-16456350Y6110707D01*
X-16435982Y6100751D01*
X-16356262Y6061783D01*
X-16351518Y6059464D01*
X-16346715Y6058763D01*
X-16346714Y6058763D01*
X-16326752Y6055851D01*
X-16283218Y6049500D01*
X-15041782Y6049500D01*
X-15039535Y6049831D01*
X-15039532Y6049831D01*
X-15015338Y6053393D01*
X-14972888Y6059642D01*
X-14868145Y6111068D01*
X-14864498Y6114721D01*
X-14789355Y6189995D01*
X-14789353Y6189997D01*
X-14785707Y6193650D01*
X-14758433Y6249447D01*
X-14722579Y6281113D01*
X-14702282Y6284500D01*
X-14682307Y6284500D01*
X-14670114Y6283299D01*
X-14650000Y6279298D01*
X-14643963Y6280499D01*
X-14623849Y6284500D01*
X-14563213Y6296562D01*
X-14546407Y6299905D01*
X-14458585Y6358585D01*
X-14447192Y6375636D01*
X-14439419Y6385107D01*
X-14035107Y6789418D01*
X-14025636Y6797191D01*
X-14013702Y6805165D01*
X-14008585Y6808584D01*
X-13949905Y6896406D01*
X-13947710Y6907441D01*
X-13929299Y6999998D01*
X-13933299Y7020107D01*
X-13934500Y7032300D01*
X-13934500Y10564138D01*
X-13916194Y10608332D01*
X-13708333Y10816194D01*
X-13664139Y10834500D01*
X-12591861Y10834500D01*
X-12547667Y10816194D01*
X-12529361Y10772000D01*
X-12547667Y10727807D01*
X-12785558Y10489916D01*
X-12795029Y10482143D01*
X-12812080Y10470750D01*
X-12832960Y10439500D01*
X-12870760Y10382928D01*
X-12871961Y10376891D01*
X-12887300Y10299781D01*
X-12891367Y10279335D01*
X-12890166Y10273298D01*
X-12887366Y10259222D01*
X-12886165Y10247028D01*
X-12886165Y9628244D01*
X-12904471Y9584050D01*
X-12915312Y9575387D01*
X-12925245Y9569120D01*
X-12944623Y9556894D01*
X-12944625Y9556893D01*
X-12948385Y9554520D01*
X-12951328Y9551188D01*
X-12951330Y9551186D01*
X-13014005Y9480219D01*
X-13043288Y9447062D01*
X-13104218Y9317287D01*
X-13126274Y9175627D01*
X-13125697Y9171214D01*
X-13125697Y9171212D01*
X-13123300Y9152883D01*
X-13107685Y9033471D01*
X-13105892Y9029396D01*
X-13064014Y8934222D01*
X-13049945Y8902247D01*
X-13047081Y8898840D01*
X-12960558Y8795907D01*
X-12960555Y8795904D01*
X-12957695Y8792502D01*
X-12914012Y8763424D01*
X-12838352Y8713060D01*
X-12839761Y8710944D01*
X-12813255Y8681516D01*
X-12810437Y8670422D01*
X-12781210Y8485895D01*
X-12734908Y8193553D01*
X-12746075Y8147039D01*
X-13325265Y7349851D01*
X-13333205Y7338923D01*
X-13358169Y7284771D01*
X-13361300Y7205069D01*
X-13333692Y7130235D01*
X-13293216Y7086448D01*
X-13290734Y7084644D01*
X-13290732Y7084643D01*
X-12616535Y6594809D01*
X-12616532Y6594807D01*
X-12614050Y6593004D01*
X-12559898Y6568040D01*
X-12553750Y6567798D01*
X-12553748Y6567798D01*
X-12523030Y6566592D01*
X-12480196Y6564909D01*
X-12452787Y6575020D01*
X-12411137Y6590385D01*
X-12411135Y6590386D01*
X-12405362Y6592516D01*
X-12361575Y6632992D01*
X-12351912Y6646292D01*
X-11164594Y8280494D01*
X-11164592Y8280497D01*
X-11162789Y8282979D01*
X-11137825Y8337131D01*
X-11134694Y8416833D01*
X-11162302Y8491667D01*
X-11202778Y8535454D01*
X-11207207Y8538672D01*
X-11879459Y9027093D01*
X-11879462Y9027095D01*
X-11881944Y9028898D01*
X-11936096Y9053862D01*
X-11942244Y9054104D01*
X-11942246Y9054104D01*
X-11972964Y9055310D01*
X-12015798Y9056993D01*
X-12021571Y9054863D01*
X-12021573Y9054863D01*
X-12038548Y9048601D01*
X-12086346Y9050480D01*
X-12118816Y9085607D01*
X-12121813Y9117608D01*
X-12119579Y9130881D01*
X-12115169Y9157096D01*
X-12115018Y9169450D01*
X-12135342Y9311368D01*
X-12194681Y9441878D01*
X-12288265Y9550487D01*
X-12294487Y9554520D01*
X-12326660Y9575374D01*
X-12353788Y9614773D01*
X-12355165Y9627820D01*
X-12355165Y10143473D01*
X-12336859Y10187667D01*
X-12108333Y10416194D01*
X-12064139Y10434500D01*
X-11206801Y10434500D01*
X-11162607Y10416194D01*
X-11144301Y10372000D01*
X-11156237Y10335263D01*
X-11832552Y9404394D01*
X-11834352Y9401916D01*
X-11859317Y9347765D01*
X-11859558Y9341618D01*
X-11859559Y9341616D01*
X-11860687Y9312888D01*
X-11862448Y9268062D01*
X-11834840Y9193228D01*
X-11830664Y9188710D01*
X-11830663Y9188709D01*
X-11812794Y9169379D01*
X-11794364Y9149442D01*
X-11791882Y9147638D01*
X-11791880Y9147637D01*
X-11117683Y8657803D01*
X-11117680Y8657801D01*
X-11115198Y8655998D01*
X-11061046Y8631034D01*
X-11054898Y8630792D01*
X-11054896Y8630792D01*
X-11024178Y8629586D01*
X-10981344Y8627903D01*
X-10953935Y8638014D01*
X-10912285Y8653379D01*
X-10912283Y8653380D01*
X-10906510Y8655510D01*
X-10862723Y8695986D01*
X-10856496Y8704556D01*
X-10731715Y8876303D01*
X-10690928Y8901297D01*
X-10644414Y8890130D01*
X-10619420Y8849343D01*
X-10584805Y8630792D01*
X-10490613Y8036090D01*
X-10489892Y8023859D01*
X-10490090Y8018806D01*
X-10490697Y8003369D01*
X-10454139Y7904275D01*
X-10437801Y7886601D01*
X-10386622Y7831234D01*
X-10386619Y7831232D01*
X-10382442Y7826713D01*
X-10376850Y7824135D01*
X-10363818Y7818127D01*
X-10353250Y7811934D01*
X-9998729Y7554360D01*
X-9973736Y7513574D01*
X-9974115Y7491873D01*
X-9978077Y7471490D01*
X-9959569Y7354632D01*
X-9956919Y7349852D01*
X-9956919Y7349851D01*
X-9914497Y7273320D01*
X-9909082Y7225792D01*
X-9938860Y7188355D01*
X-9981086Y7181667D01*
X-10066983Y7198363D01*
X-10066985Y7198363D01*
X-10072346Y7199405D01*
X-10189204Y7180897D01*
X-10193984Y7178247D01*
X-10193988Y7178246D01*
X-10217015Y7165482D01*
X-10264543Y7160067D01*
X-10284038Y7169573D01*
X-10285652Y7170745D01*
X-10310657Y7211525D01*
X-10311424Y7222084D01*
X-10311344Y7228609D01*
X-10331668Y7370527D01*
X-10391007Y7501037D01*
X-10484591Y7609646D01*
X-10604896Y7687624D01*
X-10617535Y7691404D01*
X-10699843Y7716019D01*
X-10742252Y7728702D01*
X-10813933Y7729140D01*
X-10881162Y7729551D01*
X-10881163Y7729551D01*
X-10885615Y7729578D01*
X-11023462Y7690181D01*
X-11144711Y7613679D01*
X-11147654Y7610347D01*
X-11147656Y7610345D01*
X-11217768Y7530957D01*
X-11239614Y7506221D01*
X-11300544Y7376446D01*
X-11322600Y7234786D01*
X-11322023Y7230373D01*
X-11322023Y7230371D01*
X-11315665Y7181752D01*
X-11304011Y7092630D01*
X-11302218Y7088555D01*
X-11248639Y6966788D01*
X-11246271Y6961406D01*
X-11231661Y6944026D01*
X-11156884Y6855066D01*
X-11156881Y6855063D01*
X-11154021Y6851661D01*
X-11034678Y6772219D01*
X-11030427Y6770891D01*
X-10902086Y6730795D01*
X-10902083Y6730795D01*
X-10897834Y6729467D01*
X-10893382Y6729385D01*
X-10893380Y6729385D01*
X-10822349Y6728083D01*
X-10754492Y6726839D01*
X-10750194Y6728011D01*
X-10750192Y6728011D01*
X-10655122Y6753930D01*
X-10607669Y6747893D01*
X-10601949Y6744197D01*
X-10596166Y6739994D01*
X-10571172Y6699209D01*
X-10571550Y6677506D01*
X-10577617Y6646292D01*
X-10559109Y6529434D01*
X-10556459Y6524654D01*
X-10556459Y6524653D01*
X-10541708Y6498041D01*
X-10501748Y6425952D01*
X-10466002Y6392031D01*
X-10103052Y6128332D01*
X-10101267Y6127363D01*
X-10101261Y6127359D01*
X-10077984Y6114721D01*
X-10059745Y6104818D01*
X-10055050Y6103905D01*
X-10055049Y6103905D01*
X-9948965Y6083285D01*
X-9948963Y6083285D01*
X-9943602Y6082243D01*
X-9826744Y6100751D01*
X-9808131Y6111068D01*
X-9727442Y6155795D01*
X-9723262Y6158112D01*
X-9689341Y6193857D01*
X-9484420Y6475906D01*
X-9483451Y6477691D01*
X-9483447Y6477697D01*
X-9463189Y6515008D01*
X-9463189Y6515009D01*
X-9460906Y6519213D01*
X-9459993Y6523909D01*
X-9439373Y6629993D01*
X-9439373Y6629995D01*
X-9438331Y6635356D01*
X-9456839Y6752214D01*
X-9477461Y6789418D01*
X-9501911Y6833526D01*
X-9507326Y6881054D01*
X-9477548Y6918491D01*
X-9435322Y6925179D01*
X-9349425Y6908483D01*
X-9349423Y6908483D01*
X-9344062Y6907441D01*
X-9227204Y6925949D01*
X-9177446Y6953530D01*
X-9127902Y6980993D01*
X-9123722Y6983310D01*
X-9089801Y7019055D01*
X-8884880Y7301104D01*
X-8883911Y7302889D01*
X-8883907Y7302895D01*
X-8863649Y7340206D01*
X-8863649Y7340207D01*
X-8861366Y7344411D01*
X-8860453Y7349107D01*
X-8839833Y7455191D01*
X-8839833Y7455193D01*
X-8838791Y7460554D01*
X-8857299Y7577412D01*
X-8875166Y7609646D01*
X-8912343Y7676714D01*
X-8914660Y7680894D01*
X-8950406Y7714815D01*
X-8967763Y7727426D01*
X-9138826Y7851710D01*
X-9313356Y7978514D01*
X-9315141Y7979483D01*
X-9315147Y7979487D01*
X-9352458Y7999745D01*
X-9352459Y7999745D01*
X-9356663Y8002028D01*
X-9361358Y8002941D01*
X-9361359Y8002941D01*
X-9467443Y8023561D01*
X-9467445Y8023561D01*
X-9472806Y8024603D01*
X-9589664Y8006095D01*
X-9600349Y8000172D01*
X-9627124Y7985331D01*
X-9674652Y7979916D01*
X-9694160Y7989431D01*
X-9957355Y8180652D01*
X-9982350Y8221439D01*
X-9997904Y8319646D01*
X-10039705Y8583564D01*
X-10126392Y9130881D01*
X-10127113Y9143111D01*
X-10126550Y9157452D01*
X-10126308Y9163603D01*
X-10132367Y9180025D01*
X-10160737Y9256924D01*
X-10160738Y9256926D01*
X-10162867Y9262696D01*
X-10178015Y9279084D01*
X-10216467Y9320681D01*
X-10216469Y9320683D01*
X-10217054Y9321316D01*
X-10234563Y9340257D01*
X-10253181Y9348840D01*
X-10263750Y9355034D01*
X-10291823Y9375430D01*
X-10316817Y9416217D01*
X-10305651Y9462731D01*
X-10135966Y9696282D01*
X-10135964Y9696285D01*
X-10134166Y9698760D01*
X-10109201Y9752911D01*
X-10106070Y9832614D01*
X-10133678Y9907448D01*
X-10141764Y9916196D01*
X-10172067Y9948976D01*
X-10174154Y9951234D01*
X-10184348Y9958641D01*
X-10683692Y10321436D01*
X-10708686Y10362223D01*
X-10697519Y10408737D01*
X-10656732Y10433731D01*
X-10646955Y10434500D01*
X-7363000Y10434500D01*
X-7318806Y10416194D01*
X-7300500Y10372000D01*
X-7300500Y9641780D01*
X-7290358Y9572886D01*
X-7238932Y9468143D01*
X-7235280Y9464497D01*
X-7235279Y9464496D01*
X-7160005Y9389353D01*
X-7160003Y9389351D01*
X-7156350Y9385705D01*
X-7151710Y9383437D01*
X-7056262Y9336781D01*
X-7051518Y9334462D01*
X-7046715Y9333761D01*
X-7046714Y9333761D01*
X-7026752Y9330849D01*
X-6983218Y9324498D01*
X-6616782Y9324498D01*
X-6614535Y9324829D01*
X-6614532Y9324829D01*
X-6590338Y9328391D01*
X-6547888Y9334640D01*
X-6443145Y9386066D01*
X-6439498Y9389719D01*
X-6364355Y9464993D01*
X-6364353Y9464995D01*
X-6360707Y9468648D01*
X-6332990Y9525351D01*
X-6311595Y9569120D01*
X-6311595Y9569121D01*
X-6309464Y9573480D01*
X-6306723Y9592265D01*
X-6301475Y9628244D01*
X-6299500Y9641780D01*
X-6299500Y10517793D01*
X-4920000Y10517793D01*
X-4919732Y10513713D01*
X-4914202Y10471698D01*
X-4911558Y10462626D01*
X-4865962Y10364845D01*
X-4859782Y10356020D01*
X-4783981Y10280219D01*
X-4775156Y10274039D01*
X-4677376Y10228444D01*
X-4668302Y10225799D01*
X-4626287Y10220267D01*
X-4622209Y10220000D01*
X-4477432Y10220000D01*
X-4468642Y10223641D01*
X-4465001Y10232431D01*
X-4465001Y10232432D01*
X-4335001Y10232432D01*
X-4331360Y10223642D01*
X-4322570Y10220001D01*
X-4177794Y10220001D01*
X-4173714Y10220269D01*
X-4131699Y10225799D01*
X-4122627Y10228443D01*
X-4024846Y10274039D01*
X-4016021Y10280219D01*
X-3940220Y10356020D01*
X-3934040Y10364845D01*
X-3888445Y10462625D01*
X-3885800Y10471699D01*
X-3880268Y10513714D01*
X-3880001Y10517792D01*
X-3880001Y10612569D01*
X-3883642Y10621359D01*
X-3892432Y10625000D01*
X-4322570Y10625000D01*
X-4331360Y10621359D01*
X-4335001Y10612569D01*
X-4335001Y10232432D01*
X-4465001Y10232432D01*
X-4465001Y10612569D01*
X-4468642Y10621359D01*
X-4477432Y10625000D01*
X-4907569Y10625000D01*
X-4916359Y10621359D01*
X-4920000Y10612569D01*
X-4920000Y10517793D01*
X-6299500Y10517793D01*
X-6299500Y10883216D01*
X-6309642Y10952110D01*
X-6361068Y11056853D01*
X-6364721Y11060500D01*
X-6439995Y11135643D01*
X-6439997Y11135645D01*
X-6443650Y11139291D01*
X-6541526Y11187134D01*
X-6544122Y11188403D01*
X-6544123Y11188403D01*
X-6548482Y11190534D01*
X-6553285Y11191235D01*
X-6553286Y11191235D01*
X-6573248Y11194147D01*
X-6616782Y11200498D01*
X-6983218Y11200498D01*
X-6985465Y11200167D01*
X-6985468Y11200167D01*
X-7009662Y11196605D01*
X-7052112Y11190356D01*
X-7156855Y11138930D01*
X-7160501Y11135278D01*
X-7160502Y11135277D01*
X-7235645Y11060003D01*
X-7235647Y11060001D01*
X-7239293Y11056348D01*
X-7241561Y11051708D01*
X-7266566Y11000553D01*
X-7302420Y10968887D01*
X-7322717Y10965500D01*
X-9408138Y10965500D01*
X-9452332Y10983806D01*
X-9470638Y11028000D01*
X-9452332Y11072194D01*
X-9235106Y11289420D01*
X-9225635Y11297193D01*
X-9213701Y11305167D01*
X-9208584Y11308586D01*
X-9149904Y11396408D01*
X-9144310Y11424533D01*
X-9140338Y11444499D01*
X-9140338Y11444500D01*
X-9130498Y11493964D01*
X-9129297Y11500001D01*
X-9133096Y11519101D01*
X-8249999Y11519101D01*
X-8249667Y11514569D01*
X-8240581Y11452836D01*
X-8237734Y11443672D01*
X-8190796Y11348072D01*
X-8184868Y11339790D01*
X-8109712Y11264765D01*
X-8101417Y11258849D01*
X-8005734Y11212078D01*
X-7996570Y11209246D01*
X-7935423Y11200326D01*
X-7930910Y11199998D01*
X-7827431Y11199998D01*
X-7818641Y11203639D01*
X-7815000Y11212429D01*
X-7815000Y11212430D01*
X-7685000Y11212430D01*
X-7681359Y11203640D01*
X-7672569Y11199999D01*
X-7569103Y11199999D01*
X-7564571Y11200331D01*
X-7502838Y11209417D01*
X-7493674Y11212264D01*
X-7398074Y11259202D01*
X-7389792Y11265130D01*
X-7314767Y11340286D01*
X-7308851Y11348581D01*
X-7262080Y11444264D01*
X-7259248Y11453428D01*
X-7250328Y11514575D01*
X-7250000Y11519088D01*
X-7250000Y12060067D01*
X-7253641Y12068857D01*
X-7262431Y12072498D01*
X-7672569Y12072498D01*
X-7681359Y12068857D01*
X-7685000Y12060067D01*
X-7685000Y11212430D01*
X-7815000Y11212430D01*
X-7815000Y12060067D01*
X-7818641Y12068857D01*
X-7827431Y12072498D01*
X-8237568Y12072498D01*
X-8246358Y12068857D01*
X-8249999Y12060067D01*
X-8249999Y11519101D01*
X-9133096Y11519101D01*
X-9133298Y11520115D01*
X-9134499Y11532308D01*
X-9134499Y12214929D01*
X-8250000Y12214929D01*
X-8246359Y12206139D01*
X-8237569Y12202498D01*
X-7827431Y12202498D01*
X-7818641Y12206139D01*
X-7815000Y12214929D01*
X-7685000Y12214929D01*
X-7681359Y12206139D01*
X-7672569Y12202498D01*
X-7262432Y12202498D01*
X-7253642Y12206139D01*
X-7250001Y12214929D01*
X-7250001Y12755895D01*
X-7250333Y12760427D01*
X-7259419Y12822160D01*
X-7262266Y12831324D01*
X-7309204Y12926924D01*
X-7315132Y12935206D01*
X-7390288Y13010231D01*
X-7398583Y13016147D01*
X-7494266Y13062918D01*
X-7503430Y13065750D01*
X-7564577Y13074670D01*
X-7569090Y13074998D01*
X-7672569Y13074998D01*
X-7681359Y13071357D01*
X-7685000Y13062567D01*
X-7685000Y12214929D01*
X-7815000Y12214929D01*
X-7815000Y13062566D01*
X-7818641Y13071356D01*
X-7827431Y13074997D01*
X-7930897Y13074997D01*
X-7935429Y13074665D01*
X-7997162Y13065579D01*
X-8006326Y13062732D01*
X-8101926Y13015794D01*
X-8110208Y13009866D01*
X-8185233Y12934710D01*
X-8191149Y12926415D01*
X-8237920Y12830732D01*
X-8240752Y12821568D01*
X-8249672Y12760421D01*
X-8250000Y12755908D01*
X-8250000Y12214929D01*
X-9134499Y12214929D01*
X-9134499Y13046562D01*
X-9134500Y14564138D01*
X-9116194Y14608332D01*
X-8915815Y14808711D01*
X-8696798Y15027729D01*
X-8652604Y15046035D01*
X-8608410Y15027729D01*
X-8590632Y14991640D01*
X-8587020Y14964021D01*
X-8585227Y14959946D01*
X-8531499Y14837841D01*
X-8529280Y14832797D01*
X-8526416Y14829390D01*
X-8439893Y14726457D01*
X-8439890Y14726454D01*
X-8437030Y14723052D01*
X-8317687Y14643610D01*
X-8313436Y14642282D01*
X-8185095Y14602186D01*
X-8185092Y14602186D01*
X-8180843Y14600858D01*
X-8176391Y14600776D01*
X-8176389Y14600776D01*
X-8105358Y14599474D01*
X-8037501Y14598230D01*
X-7899183Y14635940D01*
X-7777009Y14710955D01*
X-7761563Y14728019D01*
X-7760728Y14728942D01*
X-7714391Y14749500D01*
X-7667866Y14749500D01*
X-7563002Y14749499D01*
X-7518808Y14731193D01*
X-7500502Y14686999D01*
X-7500502Y13916784D01*
X-7490360Y13847890D01*
X-7438934Y13743147D01*
X-7435282Y13739501D01*
X-7435281Y13739500D01*
X-7360007Y13664357D01*
X-7360005Y13664355D01*
X-7356352Y13660709D01*
X-7351712Y13658441D01*
X-7257252Y13612268D01*
X-7251520Y13609466D01*
X-7246717Y13608765D01*
X-7246716Y13608765D01*
X-7226754Y13605853D01*
X-7183220Y13599502D01*
X-7053556Y13599502D01*
X-7009362Y13581196D01*
X-6991056Y13537002D01*
X-7006710Y13495629D01*
X-7022622Y13477612D01*
X-7083552Y13347837D01*
X-7084237Y13343439D01*
X-7084237Y13343438D01*
X-7088841Y13313868D01*
X-7105608Y13206177D01*
X-7105031Y13201764D01*
X-7105031Y13201762D01*
X-7103540Y13190364D01*
X-7087019Y13064021D01*
X-7085226Y13059946D01*
X-7071740Y13029298D01*
X-7029279Y12932797D01*
X-7023914Y12926415D01*
X-6939892Y12826457D01*
X-6939889Y12826454D01*
X-6937029Y12823052D01*
X-6817686Y12743610D01*
X-6813435Y12742282D01*
X-6685094Y12702186D01*
X-6685091Y12702186D01*
X-6680842Y12700858D01*
X-6676390Y12700776D01*
X-6676388Y12700776D01*
X-6605357Y12699474D01*
X-6537500Y12698230D01*
X-6429439Y12727691D01*
X-6381987Y12721655D01*
X-6352701Y12683832D01*
X-6350500Y12667392D01*
X-6350500Y11516780D01*
X-6350169Y11514534D01*
X-6350169Y11514530D01*
X-6346607Y11490336D01*
X-6340358Y11447886D01*
X-6288932Y11343143D01*
X-6285280Y11339497D01*
X-6285279Y11339496D01*
X-6210005Y11264353D01*
X-6210003Y11264351D01*
X-6206350Y11260705D01*
X-6201710Y11258437D01*
X-6106262Y11211781D01*
X-6101518Y11209462D01*
X-6096715Y11208761D01*
X-6096714Y11208761D01*
X-6076752Y11205849D01*
X-6033218Y11199498D01*
X-5666782Y11199498D01*
X-5664535Y11199829D01*
X-5664532Y11199829D01*
X-5640338Y11203391D01*
X-5597888Y11209640D01*
X-5493145Y11261066D01*
X-5488304Y11265915D01*
X-5414355Y11339993D01*
X-5414353Y11339995D01*
X-5410707Y11343648D01*
X-5362342Y11442592D01*
X-5361595Y11444120D01*
X-5361595Y11444121D01*
X-5359464Y11448480D01*
X-5349500Y11516780D01*
X-5349500Y11623138D01*
X-5331194Y11667332D01*
X-5287000Y11685638D01*
X-5242806Y11667332D01*
X-5173534Y11598061D01*
X-5120577Y11545104D01*
X-5112804Y11535632D01*
X-5101414Y11518585D01*
X-5096297Y11515166D01*
X-5096296Y11515165D01*
X-5094654Y11514068D01*
X-5013592Y11459905D01*
X-4936145Y11444500D01*
X-4921121Y11441512D01*
X-4881348Y11414936D01*
X-4876671Y11406627D01*
X-4864066Y11379596D01*
X-4780405Y11295935D01*
X-4775450Y11293624D01*
X-4775448Y11293623D01*
X-4695554Y11256368D01*
X-4663237Y11221100D01*
X-4665324Y11173310D01*
X-4695554Y11143080D01*
X-4775155Y11105961D01*
X-4783981Y11099781D01*
X-4859782Y11023980D01*
X-4865962Y11015155D01*
X-4911557Y10917375D01*
X-4914202Y10908301D01*
X-4919734Y10866286D01*
X-4920001Y10862208D01*
X-4920001Y10767431D01*
X-4916360Y10758641D01*
X-4907570Y10755000D01*
X-3892433Y10755000D01*
X-3883643Y10758641D01*
X-3880002Y10767431D01*
X-3880002Y10862207D01*
X-3880270Y10866287D01*
X-3885800Y10908302D01*
X-3888444Y10917374D01*
X-3934040Y11015155D01*
X-3940220Y11023980D01*
X-4016021Y11099781D01*
X-4024847Y11105961D01*
X-4104448Y11143080D01*
X-4136765Y11178348D01*
X-4134678Y11226138D01*
X-4104448Y11256368D01*
X-4024554Y11293623D01*
X-4024552Y11293624D01*
X-4019597Y11295935D01*
X-3935936Y11379596D01*
X-3919456Y11414936D01*
X-3901851Y11452691D01*
X-3885933Y11486827D01*
X-3882280Y11514575D01*
X-3879768Y11533652D01*
X-3879767Y11533660D01*
X-3879501Y11535684D01*
X-3879501Y11884316D01*
X-3879767Y11886340D01*
X-3879768Y11886348D01*
X-3884051Y11918878D01*
X-3885933Y11933173D01*
X-3915340Y11996236D01*
X-3933624Y12035447D01*
X-3933625Y12035449D01*
X-3935936Y12040404D01*
X-4019597Y12124065D01*
X-4024552Y12126376D01*
X-4024554Y12126377D01*
X-4097365Y12160329D01*
X-4126828Y12174068D01*
X-4141123Y12175950D01*
X-4173653Y12180233D01*
X-4173661Y12180234D01*
X-4175685Y12180500D01*
X-4624317Y12180500D01*
X-4626341Y12180234D01*
X-4626349Y12180233D01*
X-4658879Y12175950D01*
X-4673174Y12174068D01*
X-4702637Y12160329D01*
X-4775448Y12126377D01*
X-4775450Y12126376D01*
X-4780405Y12124065D01*
X-4820304Y12084166D01*
X-4864498Y12065860D01*
X-4908692Y12084166D01*
X-5126922Y12302393D01*
X-5134695Y12311865D01*
X-5142667Y12323796D01*
X-5146087Y12328915D01*
X-5217379Y12376550D01*
X-5233910Y12387596D01*
X-5287322Y12398220D01*
X-5299194Y12400582D01*
X-5338967Y12427158D01*
X-5349500Y12461881D01*
X-5349500Y12758216D01*
X-5351141Y12769367D01*
X-5354818Y12794343D01*
X-5359642Y12827110D01*
X-5411068Y12931853D01*
X-5414722Y12935501D01*
X-5414804Y12935615D01*
X-5425647Y12982205D01*
X-5400369Y13022816D01*
X-5363986Y13034498D01*
X-4380356Y13034500D01*
X-4332307Y13034500D01*
X-4320112Y13033299D01*
X-4300000Y13029298D01*
X-4293963Y13030499D01*
X-4289071Y13031472D01*
X-4213213Y13046562D01*
X-4196407Y13049905D01*
X-4108585Y13108585D01*
X-4097192Y13125636D01*
X-4089419Y13135107D01*
X-3835111Y13389415D01*
X-3825645Y13397185D01*
X-3808585Y13408584D01*
X-3762463Y13477612D01*
X-3749906Y13496405D01*
X-3731187Y13590508D01*
X-3704611Y13630281D01*
X-3697433Y13634417D01*
X-3688789Y13638661D01*
X-3643147Y13661070D01*
X-3631994Y13672242D01*
X-3564357Y13739997D01*
X-3564355Y13739999D01*
X-3560709Y13743652D01*
X-3555830Y13753633D01*
X-3519977Y13785299D01*
X-3472233Y13782338D01*
X-3443577Y13753734D01*
X-3440799Y13748076D01*
X-3434870Y13739794D01*
X-3359714Y13664769D01*
X-3351419Y13658853D01*
X-3255736Y13612082D01*
X-3246572Y13609250D01*
X-3185425Y13600330D01*
X-3180912Y13600002D01*
X-3077433Y13600002D01*
X-3068643Y13603643D01*
X-3065002Y13612433D01*
X-3065002Y13612434D01*
X-2935002Y13612434D01*
X-2931361Y13603644D01*
X-2922571Y13600003D01*
X-2819105Y13600003D01*
X-2814573Y13600335D01*
X-2752840Y13609421D01*
X-2743676Y13612268D01*
X-2648076Y13659206D01*
X-2639794Y13665134D01*
X-2564769Y13740290D01*
X-2558853Y13748585D01*
X-2557403Y13751551D01*
X2324358Y13751551D01*
X2346010Y13674782D01*
X2358613Y13658795D01*
X2391482Y13617101D01*
X2395391Y13612142D01*
X2400762Y13609134D01*
X2444736Y13584507D01*
X2444740Y13584505D01*
X2447417Y13583006D01*
X2994749Y13405167D01*
X3765984Y13154577D01*
X3765988Y13154576D01*
X3768906Y13153628D01*
X3771956Y13153267D01*
X3822011Y13147342D01*
X3822013Y13147342D01*
X3828122Y13146619D01*
X3904891Y13168271D01*
X3936211Y13192961D01*
X3962696Y13213840D01*
X3962697Y13213841D01*
X3967531Y13217652D01*
X3996667Y13269678D01*
X4092785Y13565498D01*
X4094548Y13570924D01*
X4125615Y13607298D01*
X4173301Y13611051D01*
X4272877Y13578697D01*
X4284098Y13573788D01*
X4296616Y13566777D01*
X4296618Y13566776D01*
X4301988Y13563769D01*
X4308099Y13563046D01*
X4308101Y13563045D01*
X4400767Y13552077D01*
X4400769Y13552077D01*
X4406878Y13551354D01*
X4475474Y13570700D01*
X4508536Y13580024D01*
X4524639Y13592719D01*
X4534958Y13599325D01*
X4603397Y13634196D01*
X4614805Y13638661D01*
X4628620Y13642557D01*
X4628621Y13642558D01*
X4634544Y13644228D01*
X4637825Y13646814D01*
X4684506Y13650490D01*
X4720882Y13619424D01*
X4724636Y13571734D01*
X4718557Y13553025D01*
X4573039Y13105166D01*
X4566349Y13084577D01*
X4565988Y13081527D01*
X4560280Y13033299D01*
X4559340Y13025361D01*
X4580992Y12948592D01*
X4630373Y12885952D01*
X4635744Y12882944D01*
X4679718Y12858317D01*
X4679722Y12858315D01*
X4682399Y12856816D01*
X4789059Y12822160D01*
X4842068Y12804936D01*
X4878442Y12773869D01*
X4882195Y12726181D01*
X4851128Y12689807D01*
X4400999Y12460455D01*
X4389590Y12455989D01*
X4369853Y12450423D01*
X4348917Y12433918D01*
X4286906Y12385032D01*
X4283898Y12379661D01*
X4277143Y12367600D01*
X4235296Y12292878D01*
X4233884Y12280948D01*
X4232885Y12272509D01*
X4230259Y12260543D01*
X4094846Y11843782D01*
X4063780Y11807407D01*
X4043023Y11801061D01*
X4022414Y11798531D01*
X4017544Y11796050D01*
X4017542Y11796049D01*
X3974318Y11774025D01*
X3916995Y11744818D01*
X3913262Y11740815D01*
X3853589Y11676824D01*
X3810061Y11656987D01*
X3765255Y11673740D01*
X3745846Y11711832D01*
X3745182Y11717245D01*
X3734516Y11804110D01*
X3680802Y11909529D01*
X3676802Y11913259D01*
X3676799Y11913263D01*
X3657548Y11931215D01*
X3637711Y11974743D01*
X3640731Y11996236D01*
X3641294Y11997969D01*
X3643090Y12003498D01*
X3674156Y12039872D01*
X3686092Y12044484D01*
X3728377Y12056013D01*
X3732999Y12057273D01*
X3839162Y12122457D01*
X3851380Y12129959D01*
X3855173Y12132288D01*
X3865265Y12143437D01*
X3948395Y12235279D01*
X3951382Y12238579D01*
X4013892Y12367600D01*
X4016194Y12381279D01*
X4024119Y12428387D01*
X4037678Y12508979D01*
X4037829Y12521333D01*
X4017505Y12663251D01*
X3958166Y12793761D01*
X3864582Y12902370D01*
X3744277Y12980348D01*
X3731638Y12984128D01*
X3645575Y13009866D01*
X3606921Y13021426D01*
X3535240Y13021864D01*
X3468011Y13022275D01*
X3468010Y13022275D01*
X3463558Y13022302D01*
X3325711Y12982905D01*
X3204462Y12906403D01*
X3201519Y12903071D01*
X3201517Y12903069D01*
X3119864Y12810613D01*
X3109559Y12798945D01*
X3048629Y12669170D01*
X3026573Y12527510D01*
X3027150Y12523097D01*
X3027150Y12523095D01*
X3028445Y12513192D01*
X3045162Y12385354D01*
X3046955Y12381279D01*
X3100149Y12260387D01*
X3102902Y12254130D01*
X3105766Y12250723D01*
X3126238Y12226368D01*
X3140662Y12180759D01*
X3137837Y12166843D01*
X3135721Y12160329D01*
X3104657Y12123952D01*
X3083898Y12117604D01*
X3052336Y12113729D01*
X3047466Y12111248D01*
X3047464Y12111247D01*
X3001926Y12088044D01*
X2946917Y12060016D01*
X2866225Y11973485D01*
X2845010Y11929007D01*
X2844382Y11927073D01*
X2844380Y11927069D01*
X2707579Y11506038D01*
X2706375Y11502332D01*
X2706002Y11500318D01*
X2706001Y11500315D01*
X2701773Y11477503D01*
X2697395Y11453879D01*
X2697978Y11449131D01*
X2697978Y11449130D01*
X2703197Y11406627D01*
X2711814Y11336444D01*
X2733556Y11293774D01*
X2748337Y11264765D01*
X2765528Y11231025D01*
X2770769Y11226138D01*
X2808950Y11190534D01*
X2852059Y11150334D01*
X2896537Y11129119D01*
X2898476Y11128489D01*
X3226160Y11022017D01*
X3226164Y11022016D01*
X3228106Y11021385D01*
X3230120Y11021012D01*
X3230123Y11021011D01*
X3276559Y11012405D01*
X3281307Y11012988D01*
X3281308Y11012988D01*
X3309122Y11016403D01*
X3393994Y11026825D01*
X3398864Y11029306D01*
X3398866Y11029307D01*
X3459110Y11060003D01*
X3499413Y11080538D01*
X3517358Y11099781D01*
X3562819Y11148532D01*
X3606347Y11168369D01*
X3651153Y11151616D01*
X3670562Y11113524D01*
X3681892Y11021246D01*
X3735606Y10915827D01*
X3739606Y10912097D01*
X3799564Y10856186D01*
X3822137Y10835136D01*
X3866615Y10813921D01*
X3868554Y10813291D01*
X4196238Y10706819D01*
X4196242Y10706818D01*
X4198184Y10706187D01*
X4200198Y10705814D01*
X4200201Y10705813D01*
X4231324Y10700045D01*
X4246637Y10697207D01*
X4251385Y10697790D01*
X4251386Y10697790D01*
X4279237Y10701210D01*
X4364072Y10711627D01*
X4368942Y10714108D01*
X4368944Y10714109D01*
X4456343Y10758641D01*
X4469491Y10765340D01*
X4550183Y10851871D01*
X4571398Y10896349D01*
X4575282Y10908301D01*
X4709401Y11321078D01*
X4709402Y11321082D01*
X4710033Y11323024D01*
X4710655Y11326377D01*
X4718141Y11366772D01*
X4719013Y11371477D01*
X4717408Y11384553D01*
X4709041Y11452691D01*
X4704594Y11488912D01*
X4667905Y11560917D01*
X4653363Y11589458D01*
X4650880Y11594331D01*
X4619555Y11623542D01*
X4599718Y11667071D01*
X4602739Y11688566D01*
X4612058Y11717245D01*
X4703270Y11997969D01*
X4734337Y12034343D01*
X5184378Y12263651D01*
X5435048Y12391374D01*
X5446457Y12395839D01*
X5460270Y12399734D01*
X5460272Y12399735D01*
X5466194Y12401405D01*
X5523540Y12446613D01*
X5544306Y12462984D01*
X5549140Y12466795D01*
X5575438Y12513754D01*
X5613004Y12543368D01*
X5649282Y12542656D01*
X5752930Y12508979D01*
X6000966Y12428387D01*
X6000970Y12428386D01*
X6003888Y12427438D01*
X6006938Y12427077D01*
X6056993Y12421152D01*
X6056995Y12421152D01*
X6063104Y12420429D01*
X6139873Y12442081D01*
X6171853Y12467292D01*
X12564363Y12467292D01*
X12567092Y12460705D01*
X12761136Y12298459D01*
X12764573Y12295962D01*
X13003521Y12146071D01*
X13007261Y12144065D01*
X13264346Y12027987D01*
X13268335Y12026504D01*
X13538789Y11946391D01*
X13542930Y11945466D01*
X13821764Y11902798D01*
X13825995Y11902443D01*
X14108035Y11898012D01*
X14112274Y11898235D01*
X14392304Y11932122D01*
X14396481Y11932919D01*
X14669325Y12004498D01*
X14673338Y12005848D01*
X14933960Y12113801D01*
X14937749Y12115682D01*
X15181293Y12257998D01*
X15184810Y12260388D01*
X15406776Y12434431D01*
X15409947Y12437286D01*
X15431240Y12459259D01*
X15434848Y12468372D01*
X15431279Y12476799D01*
X14008790Y13899287D01*
X14000000Y13902928D01*
X13991210Y13899287D01*
X13318387Y13226464D01*
X12957017Y12865095D01*
X12568004Y12476082D01*
X12564363Y12467292D01*
X6171853Y12467292D01*
X6173223Y12468372D01*
X6197678Y12487650D01*
X6197679Y12487651D01*
X6202513Y12491462D01*
X6205521Y12496833D01*
X6230148Y12540807D01*
X6230150Y12540811D01*
X6231649Y12543488D01*
X6466731Y13266997D01*
X6629176Y13766949D01*
X6629177Y13766953D01*
X6630125Y13769871D01*
X6635067Y13811620D01*
X6636411Y13822976D01*
X6636411Y13822978D01*
X6637134Y13829087D01*
X6615482Y13905856D01*
X6590792Y13937176D01*
X6569913Y13963661D01*
X6569912Y13963662D01*
X6566101Y13968496D01*
X6560730Y13971504D01*
X6516756Y13996131D01*
X6516752Y13996133D01*
X6514075Y13997632D01*
X5232282Y14414112D01*
X5195908Y14445179D01*
X5192155Y14492867D01*
X5205259Y14515495D01*
X5236877Y14550427D01*
X5239865Y14553728D01*
X5302375Y14682749D01*
X5304384Y14694686D01*
X5325761Y14821753D01*
X5326161Y14824128D01*
X5326312Y14836482D01*
X5305988Y14978400D01*
X5246649Y15108910D01*
X5153065Y15217519D01*
X5032760Y15295497D01*
X5020121Y15299277D01*
X4941040Y15322927D01*
X4895404Y15336575D01*
X4823722Y15337013D01*
X4756494Y15337424D01*
X4756493Y15337424D01*
X4752041Y15337451D01*
X4614194Y15298054D01*
X4492945Y15221552D01*
X4490002Y15218220D01*
X4490000Y15218218D01*
X4404377Y15121267D01*
X4398042Y15114094D01*
X4337112Y14984319D01*
X4315056Y14842659D01*
X4315633Y14838246D01*
X4315633Y14838245D01*
X4320050Y14804471D01*
X4307630Y14758277D01*
X4266182Y14734395D01*
X4238764Y14736926D01*
X2960526Y15152251D01*
X2960522Y15152252D01*
X2957604Y15153200D01*
X2953325Y15153706D01*
X2904499Y15159486D01*
X2904497Y15159486D01*
X2898388Y15160209D01*
X2821619Y15138557D01*
X2813728Y15132336D01*
X2763814Y15092988D01*
X2763813Y15092987D01*
X2758979Y15089176D01*
X2755971Y15083805D01*
X2734819Y15046035D01*
X2729843Y15037150D01*
X2576774Y14566052D01*
X2332442Y13814075D01*
X2331367Y13810767D01*
X2331006Y13807717D01*
X2325243Y13759024D01*
X2324358Y13751551D01*
X-2557403Y13751551D01*
X-2512082Y13844268D01*
X-2509250Y13853432D01*
X-2500330Y13914579D01*
X-2500002Y13919092D01*
X-2500002Y14497571D01*
X-2503643Y14506361D01*
X-2512433Y14510002D01*
X-2922571Y14510002D01*
X-2931361Y14506361D01*
X-2935002Y14497571D01*
X-2935002Y13612434D01*
X-3065002Y13612434D01*
X-3065002Y14652433D01*
X-2935002Y14652433D01*
X-2931361Y14643643D01*
X-2922571Y14640002D01*
X-2512434Y14640002D01*
X-2503644Y14643643D01*
X-2500003Y14652433D01*
X-2500003Y15230899D01*
X-2500335Y15235431D01*
X-2509421Y15297164D01*
X-2512268Y15306328D01*
X-2559206Y15401928D01*
X-2565134Y15410210D01*
X-2640290Y15485235D01*
X-2648585Y15491151D01*
X-2744268Y15537922D01*
X-2753432Y15540754D01*
X-2814579Y15549674D01*
X-2819092Y15550002D01*
X-2922571Y15550002D01*
X-2931361Y15546361D01*
X-2935002Y15537571D01*
X-2935002Y14652433D01*
X-3065002Y14652433D01*
X-3065002Y15537570D01*
X-3068643Y15546360D01*
X-3077433Y15550001D01*
X-3180899Y15550001D01*
X-3185431Y15549669D01*
X-3247164Y15540583D01*
X-3256328Y15537736D01*
X-3351928Y15490798D01*
X-3360210Y15484870D01*
X-3435235Y15409714D01*
X-3441151Y15401419D01*
X-3443619Y15396370D01*
X-3479473Y15364705D01*
X-3527217Y15367666D01*
X-3555873Y15396272D01*
X-3556200Y15396938D01*
X-3561070Y15406857D01*
X-3580183Y15425937D01*
X-3639997Y15485647D01*
X-3639999Y15485649D01*
X-3643652Y15489295D01*
X-3682888Y15508474D01*
X-3744124Y15538407D01*
X-3744125Y15538407D01*
X-3748484Y15540538D01*
X-3753287Y15541239D01*
X-3753288Y15541239D01*
X-3773250Y15544151D01*
X-3816784Y15550502D01*
X-4183220Y15550502D01*
X-4185467Y15550171D01*
X-4185470Y15550171D01*
X-4201072Y15547874D01*
X-4252114Y15540360D01*
X-4356857Y15488934D01*
X-4360503Y15485282D01*
X-4360504Y15485281D01*
X-4435647Y15410007D01*
X-4435649Y15410005D01*
X-4439295Y15406352D01*
X-4441562Y15401714D01*
X-4441565Y15401710D01*
X-4443897Y15396938D01*
X-4479751Y15365272D01*
X-4527494Y15368233D01*
X-4556150Y15396837D01*
X-4558794Y15402222D01*
X-4558795Y15402224D01*
X-4561070Y15406857D01*
X-4580183Y15425937D01*
X-4639997Y15485647D01*
X-4639999Y15485649D01*
X-4643652Y15489295D01*
X-4708357Y15520924D01*
X-4740022Y15556777D01*
X-4742209Y15564881D01*
X-4748100Y15594500D01*
X-4748100Y15594501D01*
X-4749909Y15603593D01*
X-4749910Y15603594D01*
X-4749910Y15603596D01*
X-4808591Y15691418D01*
X-4825642Y15702811D01*
X-4835113Y15710584D01*
X-4872604Y15748076D01*
X-4948578Y15824050D01*
X-4989420Y15864893D01*
X-4997193Y15874365D01*
X-5005165Y15886296D01*
X-5008585Y15891415D01*
X-5096407Y15950095D01*
X-5133684Y15957510D01*
X-5199998Y15970702D01*
X-5206036Y15969501D01*
X-5220112Y15966701D01*
X-5232305Y15965500D01*
X-5253009Y15965500D01*
X-7658685Y15965501D01*
X-7702879Y15983807D01*
X-7721185Y16028001D01*
X-7702879Y16072195D01*
X-7695818Y16078274D01*
X-7631967Y16125435D01*
X-7625435Y16131967D01*
X-7550593Y16233295D01*
X-7546266Y16241465D01*
X-7504242Y16361135D01*
X-7502622Y16368519D01*
X-7500140Y16394767D01*
X-7500002Y16397706D01*
X-7500002Y16397708D01*
X-2500001Y16397708D01*
X-2499862Y16394764D01*
X-2497382Y16368517D01*
X-2495763Y16361137D01*
X-2453738Y16241465D01*
X-2449411Y16233295D01*
X-2374569Y16131967D01*
X-2368037Y16125435D01*
X-2266709Y16050593D01*
X-2258539Y16046266D01*
X-2138869Y16004242D01*
X-2131485Y16002622D01*
X-2105237Y16000140D01*
X-2102298Y16000002D01*
X-1777433Y16000002D01*
X-1768643Y16003643D01*
X-1765002Y16012433D01*
X-1765002Y16012434D01*
X-1635002Y16012434D01*
X-1631361Y16003644D01*
X-1622571Y16000003D01*
X-1297708Y16000003D01*
X-1294764Y16000142D01*
X-1268517Y16002622D01*
X-1261137Y16004241D01*
X-1141465Y16046266D01*
X-1133295Y16050593D01*
X-1031967Y16125435D01*
X-1025435Y16131967D01*
X-950593Y16233295D01*
X-946266Y16241465D01*
X-904242Y16361135D01*
X-902622Y16368519D01*
X-900140Y16394767D01*
X-900002Y16397706D01*
X-900002Y17022571D01*
X-903643Y17031361D01*
X-912433Y17035002D01*
X-1622571Y17035002D01*
X-1631361Y17031361D01*
X-1635002Y17022571D01*
X-1635002Y16012434D01*
X-1765002Y16012434D01*
X-1765002Y17022571D01*
X-1768643Y17031361D01*
X-1777433Y17035002D01*
X-2487570Y17035002D01*
X-2496360Y17031361D01*
X-2500001Y17022571D01*
X-2500001Y16397708D01*
X-7500002Y16397708D01*
X-7500002Y17022571D01*
X-7503643Y17031361D01*
X-7512433Y17035002D01*
X-9087570Y17035002D01*
X-9096360Y17031361D01*
X-9100001Y17022571D01*
X-9100001Y16397708D01*
X-9099862Y16394764D01*
X-9097382Y16368517D01*
X-9095763Y16361137D01*
X-9053738Y16241465D01*
X-9049411Y16233295D01*
X-8974569Y16131967D01*
X-8968037Y16125435D01*
X-8866709Y16050593D01*
X-8858539Y16046266D01*
X-8738869Y16004242D01*
X-8731485Y16002622D01*
X-8705237Y16000140D01*
X-8702298Y16000002D01*
X-8632019Y16000002D01*
X-8587825Y15981696D01*
X-8569519Y15937502D01*
X-8587535Y15894009D01*
X-8591415Y15891416D01*
X-8594834Y15886299D01*
X-8602810Y15874362D01*
X-8610583Y15864891D01*
X-9564893Y14910580D01*
X-9574364Y14902807D01*
X-9591415Y14891414D01*
X-9650095Y14803592D01*
X-9653438Y14786786D01*
X-9670702Y14699999D01*
X-9666741Y14680086D01*
X-9666701Y14679886D01*
X-9665500Y14667692D01*
X-9665499Y13146619D01*
X-9665499Y11635863D01*
X-9683805Y11591669D01*
X-9891668Y11383806D01*
X-9935862Y11365500D01*
X-13767698Y11365500D01*
X-13779891Y11366701D01*
X-13793962Y11369500D01*
X-13800000Y11370701D01*
X-13806038Y11369500D01*
X-13820109Y11366701D01*
X-13832302Y11365500D01*
X-15194597Y11365500D01*
X-15221010Y11371356D01*
X-15222491Y11372046D01*
X-15226827Y11374068D01*
X-15243219Y11376226D01*
X-15273652Y11380233D01*
X-15273660Y11380234D01*
X-15275684Y11380500D01*
X-15724316Y11380500D01*
X-15726340Y11380234D01*
X-15726348Y11380233D01*
X-15756781Y11376226D01*
X-15773173Y11374068D01*
X-15825371Y11349728D01*
X-15875447Y11326377D01*
X-15875449Y11326376D01*
X-15880404Y11324065D01*
X-15964065Y11240404D01*
X-15966376Y11235449D01*
X-15966377Y11235447D01*
X-15982754Y11200326D01*
X-16014068Y11133173D01*
X-16014692Y11128432D01*
X-16020233Y11086348D01*
X-16020234Y11086340D01*
X-16020500Y11084316D01*
X-16020500Y10735684D01*
X-16020234Y10733660D01*
X-16020233Y10733652D01*
X-16016310Y10703855D01*
X-16014068Y10686827D01*
X-16003750Y10664700D01*
X-15966516Y10584853D01*
X-15964065Y10579596D01*
X-15880404Y10495935D01*
X-15875449Y10493624D01*
X-15875447Y10493623D01*
X-15795553Y10456368D01*
X-15763236Y10421100D01*
X-15765323Y10373310D01*
X-15795553Y10343080D01*
X-15875154Y10305961D01*
X-15883980Y10299781D01*
X-15959781Y10223980D01*
X-15965961Y10215155D01*
X-16011556Y10117375D01*
X-16014201Y10108301D01*
X-16019733Y10066286D01*
X-16020000Y10062208D01*
X-16020000Y9967431D01*
X-16016359Y9958641D01*
X-16007569Y9955000D01*
X-14992432Y9955000D01*
X-14983642Y9958641D01*
X-14980001Y9967431D01*
X-14980001Y10062207D01*
X-14980269Y10066287D01*
X-14985799Y10108302D01*
X-14988443Y10117374D01*
X-15034039Y10215155D01*
X-15040219Y10223980D01*
X-15116020Y10299781D01*
X-15124846Y10305961D01*
X-15204447Y10343080D01*
X-15236764Y10378348D01*
X-15234677Y10426138D01*
X-15204447Y10456368D01*
X-15124553Y10493623D01*
X-15124551Y10493624D01*
X-15119596Y10495935D01*
X-15035935Y10579596D01*
X-15033483Y10584853D01*
X-14996250Y10664700D01*
X-14985932Y10686827D01*
X-14983690Y10703855D01*
X-14979767Y10733652D01*
X-14979766Y10733660D01*
X-14979500Y10735684D01*
X-14979500Y10772000D01*
X-14961194Y10816194D01*
X-14917000Y10834500D01*
X-14520104Y10834500D01*
X-14475910Y10816194D01*
X-14457604Y10772000D01*
X-14458805Y10759808D01*
X-14470702Y10700000D01*
X-14469501Y10693963D01*
X-14466701Y10679887D01*
X-14465500Y10667693D01*
X-14465500Y7135860D01*
X-14483806Y7091666D01*
X-14685605Y6889868D01*
X-14729799Y6871562D01*
X-14773993Y6889868D01*
X-14780149Y6898473D01*
X-14780784Y6898018D01*
X-14783793Y6902221D01*
X-14786068Y6906855D01*
X-14797724Y6918491D01*
X-14864995Y6985645D01*
X-14864997Y6985647D01*
X-14868650Y6989293D01*
X-14926490Y7017566D01*
X-14969122Y7038405D01*
X-14969123Y7038405D01*
X-14973482Y7040536D01*
X-14978285Y7041237D01*
X-14978286Y7041237D01*
X-14998248Y7044149D01*
X-15041782Y7050500D01*
X-16283218Y7050500D01*
X-16285465Y7050169D01*
X-16285468Y7050169D01*
X-16309662Y7046607D01*
X-16352112Y7040358D01*
X-16456855Y6988932D01*
X-16460501Y6985280D01*
X-16460502Y6985279D01*
X-16535645Y6910005D01*
X-16535647Y6910003D01*
X-16539293Y6906350D01*
X-16541561Y6901710D01*
X-16567230Y6849196D01*
X-16590536Y6801518D01*
X-16600500Y6733218D01*
X-16600500Y6366782D01*
X-17249498Y6366782D01*
X-17249498Y6937000D01*
X-17231192Y6981194D01*
X-17186998Y6999500D01*
X-16916782Y6999500D01*
X-16914535Y6999831D01*
X-16914532Y6999831D01*
X-16890338Y7003393D01*
X-16847888Y7009642D01*
X-16743145Y7061068D01*
X-16717809Y7086448D01*
X-16664355Y7139995D01*
X-16664353Y7139997D01*
X-16660707Y7143650D01*
X-16628288Y7209972D01*
X-16611595Y7244122D01*
X-16611595Y7244123D01*
X-16609464Y7248482D01*
X-16599500Y7316782D01*
X-16599500Y7683218D01*
X-16600148Y7687624D01*
X-16606325Y7729578D01*
X-16609642Y7752112D01*
X-16661068Y7856855D01*
X-16664721Y7860502D01*
X-16739995Y7935645D01*
X-16739997Y7935647D01*
X-16743650Y7939293D01*
X-16821439Y7977317D01*
X-16844122Y7988405D01*
X-16844123Y7988405D01*
X-16848482Y7990536D01*
X-16853285Y7991237D01*
X-16853286Y7991237D01*
X-16873248Y7994149D01*
X-16916782Y8000500D01*
X-17357000Y8000500D01*
X-17401194Y8018806D01*
X-17419500Y8063000D01*
X-17419500Y8269103D01*
X-16599999Y8269103D01*
X-16599667Y8264571D01*
X-16590581Y8202838D01*
X-16587734Y8193674D01*
X-16540796Y8098074D01*
X-16534868Y8089792D01*
X-16459712Y8014767D01*
X-16451417Y8008851D01*
X-16355734Y7962080D01*
X-16346570Y7959248D01*
X-16285423Y7950328D01*
X-16280910Y7950000D01*
X-15739931Y7950000D01*
X-15731141Y7953641D01*
X-15727500Y7962431D01*
X-15727500Y7962432D01*
X-15597500Y7962432D01*
X-15593859Y7953642D01*
X-15585069Y7950001D01*
X-15044103Y7950001D01*
X-15039571Y7950333D01*
X-14977838Y7959419D01*
X-14968674Y7962266D01*
X-14873074Y8009204D01*
X-14864792Y8015132D01*
X-14789767Y8090288D01*
X-14783851Y8098583D01*
X-14737080Y8194266D01*
X-14734248Y8203430D01*
X-14725328Y8264577D01*
X-14725000Y8269090D01*
X-14725000Y8372569D01*
X-14728641Y8381359D01*
X-14737431Y8385000D01*
X-15585069Y8385000D01*
X-15593859Y8381359D01*
X-15597500Y8372569D01*
X-15597500Y7962432D01*
X-15727500Y7962432D01*
X-15727500Y8372569D01*
X-15731141Y8381359D01*
X-15739931Y8385000D01*
X-16587568Y8385000D01*
X-16596358Y8381359D01*
X-16599999Y8372569D01*
X-16599999Y8269103D01*
X-17419500Y8269103D01*
X-17419500Y8527431D01*
X-16600000Y8527431D01*
X-16596359Y8518641D01*
X-16587569Y8515000D01*
X-15739931Y8515000D01*
X-15731141Y8518641D01*
X-15727500Y8527431D01*
X-15597500Y8527431D01*
X-15593859Y8518641D01*
X-15585069Y8515000D01*
X-14737432Y8515000D01*
X-14728642Y8518641D01*
X-14725001Y8527431D01*
X-14725001Y8630897D01*
X-14725333Y8635429D01*
X-14734419Y8697162D01*
X-14737266Y8706326D01*
X-14784204Y8801926D01*
X-14790132Y8810208D01*
X-14865288Y8885233D01*
X-14873583Y8891149D01*
X-14969266Y8937920D01*
X-14978430Y8940752D01*
X-15039577Y8949672D01*
X-15044090Y8950000D01*
X-15585069Y8950000D01*
X-15593859Y8946359D01*
X-15597500Y8937569D01*
X-15597500Y8527431D01*
X-15727500Y8527431D01*
X-15727500Y8937568D01*
X-15731141Y8946358D01*
X-15739931Y8949999D01*
X-16280897Y8949999D01*
X-16285429Y8949667D01*
X-16347162Y8940581D01*
X-16356326Y8937734D01*
X-16451926Y8890796D01*
X-16460208Y8884868D01*
X-16535233Y8809712D01*
X-16541149Y8801417D01*
X-16587920Y8705734D01*
X-16590752Y8696570D01*
X-16599672Y8635423D01*
X-16600000Y8630910D01*
X-16600000Y8527431D01*
X-17419500Y8527431D01*
X-17419500Y9258787D01*
X-17401194Y9302981D01*
X-17384545Y9314890D01*
X-17372746Y9320683D01*
X-17332120Y9340629D01*
X-17250270Y9422622D01*
X-17249578Y9424038D01*
X-17210319Y9448571D01*
X-17163709Y9437813D01*
X-17150701Y9424829D01*
X-17149372Y9422121D01*
X-17145719Y9418474D01*
X-17145718Y9418473D01*
X-17071034Y9343919D01*
X-17071032Y9343917D01*
X-17067379Y9340271D01*
X-17058105Y9335738D01*
X-16968036Y9291711D01*
X-16963294Y9289393D01*
X-16958491Y9288692D01*
X-16958490Y9288692D01*
X-16937735Y9285664D01*
X-16895486Y9279501D01*
X-16534514Y9279501D01*
X-16532267Y9279832D01*
X-16532264Y9279832D01*
X-16508278Y9283363D01*
X-16466116Y9289570D01*
X-16362120Y9340629D01*
X-16353924Y9348839D01*
X-16283918Y9418967D01*
X-16283916Y9418969D01*
X-16280270Y9422622D01*
X-16252116Y9480219D01*
X-16231523Y9522347D01*
X-16231523Y9522348D01*
X-16229392Y9526707D01*
X-16219500Y9594515D01*
X-16219500Y9717793D01*
X-16019999Y9717793D01*
X-16019731Y9713713D01*
X-16014201Y9671698D01*
X-16011557Y9662626D01*
X-15965961Y9564845D01*
X-15959781Y9556020D01*
X-15883980Y9480219D01*
X-15875155Y9474039D01*
X-15777375Y9428444D01*
X-15768301Y9425799D01*
X-15726286Y9420267D01*
X-15722208Y9420000D01*
X-15577431Y9420000D01*
X-15568641Y9423641D01*
X-15565000Y9432431D01*
X-15565000Y9432432D01*
X-15435000Y9432432D01*
X-15431359Y9423642D01*
X-15422569Y9420001D01*
X-15277793Y9420001D01*
X-15273713Y9420269D01*
X-15231698Y9425799D01*
X-15222626Y9428443D01*
X-15124845Y9474039D01*
X-15116020Y9480219D01*
X-15040219Y9556020D01*
X-15034039Y9564845D01*
X-14988444Y9662625D01*
X-14985799Y9671699D01*
X-14980267Y9713714D01*
X-14980000Y9717792D01*
X-14980000Y9812569D01*
X-14983641Y9821359D01*
X-14992431Y9825000D01*
X-15422569Y9825000D01*
X-15431359Y9821359D01*
X-15435000Y9812569D01*
X-15435000Y9432432D01*
X-15565000Y9432432D01*
X-15565000Y9812569D01*
X-15568641Y9821359D01*
X-15577431Y9825000D01*
X-16007568Y9825000D01*
X-16016358Y9821359D01*
X-16019999Y9812569D01*
X-16019999Y9717793D01*
X-16219500Y9717793D01*
X-16219500Y10005487D01*
X-16229569Y10073885D01*
X-16280628Y10177881D01*
X-16317967Y10215155D01*
X-16358966Y10256083D01*
X-16358968Y10256085D01*
X-16362621Y10259731D01*
X-16389449Y10272845D01*
X-16421113Y10308698D01*
X-16424501Y10328995D01*
X-16424501Y10465854D01*
X-16406195Y10510048D01*
X-16388420Y10522495D01*
X-16359597Y10535935D01*
X-16275936Y10619596D01*
X-16254903Y10664700D01*
X-16246606Y10682494D01*
X-16225933Y10726827D01*
X-16222224Y10755000D01*
X-16219768Y10773652D01*
X-16219767Y10773660D01*
X-16219501Y10775684D01*
X-16219501Y11224316D01*
X-16219767Y11226340D01*
X-16219768Y11226348D01*
X-16224874Y11265130D01*
X-16225933Y11273173D01*
X-16257092Y11339993D01*
X-16273624Y11375447D01*
X-16273625Y11375449D01*
X-16275936Y11380404D01*
X-16359597Y11464065D01*
X-16364552Y11466376D01*
X-16364554Y11466377D01*
X-16424502Y11494331D01*
X-16466828Y11514068D01*
X-16481123Y11515950D01*
X-16513653Y11520233D01*
X-16513661Y11520234D01*
X-16515685Y11520500D01*
X-16864317Y11520500D01*
X-16866341Y11520234D01*
X-16866349Y11520233D01*
X-16898879Y11515950D01*
X-16913174Y11514068D01*
X-16955500Y11494331D01*
X-17015448Y11466377D01*
X-17015450Y11466376D01*
X-17020405Y11464065D01*
X-17104066Y11380404D01*
X-17106378Y11375446D01*
X-17143357Y11296145D01*
X-17178625Y11263828D01*
X-17226415Y11265915D01*
X-17256645Y11296145D01*
X-17293624Y11375446D01*
X-17295936Y11380404D01*
X-17379597Y11464065D01*
X-17384555Y11466377D01*
X-17408414Y11477503D01*
X-17440731Y11512771D01*
X-17444500Y11534147D01*
X-17444500Y11534547D01*
X-17426194Y11578741D01*
X-17414703Y11587808D01*
X-17380805Y11608622D01*
X-17377007Y11610954D01*
X-17280798Y11717245D01*
X-17218288Y11846266D01*
X-17215986Y11859945D01*
X-17208464Y11904656D01*
X-17194502Y11987645D01*
X-17194351Y11999999D01*
X-17214675Y12141917D01*
X-17274014Y12272427D01*
X-17367598Y12381036D01*
X-17487903Y12459014D01*
X-17497489Y12461881D01*
X-17515579Y12467291D01*
X-15435638Y12467291D01*
X-15432909Y12460704D01*
X-15238865Y12298458D01*
X-15235428Y12295961D01*
X-14996480Y12146070D01*
X-14992740Y12144064D01*
X-14735655Y12027986D01*
X-14731666Y12026503D01*
X-14461212Y11946390D01*
X-14457071Y11945465D01*
X-14178237Y11902797D01*
X-14174006Y11902442D01*
X-13891966Y11898011D01*
X-13887727Y11898234D01*
X-13607697Y11932121D01*
X-13603520Y11932918D01*
X-13330676Y12004497D01*
X-13326663Y12005847D01*
X-13066041Y12113800D01*
X-13062252Y12115681D01*
X-12818708Y12257997D01*
X-12815191Y12260387D01*
X-12593225Y12434430D01*
X-12590054Y12437285D01*
X-12568761Y12459258D01*
X-12565153Y12468371D01*
X-12568722Y12476798D01*
X-13991211Y13899286D01*
X-14000001Y13902927D01*
X-14008791Y13899286D01*
X-14681613Y13226464D01*
X-15042984Y12865094D01*
X-15431997Y12476081D01*
X-15435638Y12467291D01*
X-17515579Y12467291D01*
X-17583656Y12487650D01*
X-17625259Y12500092D01*
X-17696940Y12500530D01*
X-17764169Y12500941D01*
X-17764170Y12500941D01*
X-17768622Y12500968D01*
X-17906469Y12461571D01*
X-18027718Y12385069D01*
X-18030661Y12381737D01*
X-18030663Y12381735D01*
X-18104209Y12298459D01*
X-18122621Y12277611D01*
X-18183551Y12147836D01*
X-18205607Y12006176D01*
X-18205030Y12001763D01*
X-18205030Y12001761D01*
X-18204307Y11996236D01*
X-18187018Y11864020D01*
X-18185225Y11859945D01*
X-18132806Y11740815D01*
X-18129278Y11732796D01*
X-18126414Y11729389D01*
X-18039891Y11626456D01*
X-18039888Y11626453D01*
X-18037028Y11623051D01*
X-18023144Y11613809D01*
X-18003367Y11600644D01*
X-17976722Y11560917D01*
X-17975500Y11548617D01*
X-17975500Y11534148D01*
X-17993806Y11489954D01*
X-18011586Y11477504D01*
X-18035447Y11466377D01*
X-18040405Y11464065D01*
X-18124066Y11380404D01*
X-18126377Y11375449D01*
X-18126378Y11375447D01*
X-18142910Y11339993D01*
X-18174069Y11273173D01*
X-18175128Y11265130D01*
X-18180234Y11226348D01*
X-18180235Y11226340D01*
X-18180501Y11224316D01*
X-18180501Y10775684D01*
X-18180235Y10773660D01*
X-18180234Y10773652D01*
X-18177778Y10755000D01*
X-18174069Y10726827D01*
X-18153396Y10682494D01*
X-18145098Y10664700D01*
X-18124066Y10619596D01*
X-18040405Y10535935D01*
X-18035451Y10533625D01*
X-18035448Y10533623D01*
X-17992752Y10513714D01*
X-17933174Y10485932D01*
X-17918879Y10484050D01*
X-17886349Y10479767D01*
X-17886341Y10479766D01*
X-17884317Y10479500D01*
X-17535685Y10479500D01*
X-17533661Y10479766D01*
X-17533653Y10479767D01*
X-17501123Y10484050D01*
X-17486828Y10485932D01*
X-17427250Y10513714D01*
X-17384554Y10533623D01*
X-17384551Y10533625D01*
X-17379597Y10535935D01*
X-17295936Y10619596D01*
X-17274928Y10664647D01*
X-17256645Y10703855D01*
X-17221377Y10736172D01*
X-17173587Y10734085D01*
X-17143357Y10703855D01*
X-17125074Y10664647D01*
X-17104066Y10619596D01*
X-17020405Y10535935D01*
X-16991586Y10522496D01*
X-16959271Y10487231D01*
X-16955501Y10465854D01*
X-16955501Y10353489D01*
X-16973807Y10309295D01*
X-16990456Y10297386D01*
X-17067880Y10259373D01*
X-17071526Y10255721D01*
X-17071527Y10255720D01*
X-17103211Y10223980D01*
X-17149730Y10177380D01*
X-17150422Y10175964D01*
X-17189681Y10151431D01*
X-17236291Y10162189D01*
X-17249299Y10175173D01*
X-17250628Y10177881D01*
X-17287967Y10215155D01*
X-17328966Y10256083D01*
X-17328968Y10256085D01*
X-17332621Y10259731D01*
X-17393925Y10289697D01*
X-17432346Y10308478D01*
X-17432347Y10308478D01*
X-17436706Y10310609D01*
X-17441509Y10311310D01*
X-17441510Y10311310D01*
X-17462265Y10314338D01*
X-17504514Y10320501D01*
X-17865486Y10320501D01*
X-17867733Y10320170D01*
X-17867736Y10320170D01*
X-17891722Y10316639D01*
X-17933884Y10310432D01*
X-18037880Y10259373D01*
X-18041526Y10255721D01*
X-18041527Y10255720D01*
X-18116082Y10181035D01*
X-18116084Y10181033D01*
X-18119730Y10177380D01*
X-18129081Y10158249D01*
X-18168188Y10078245D01*
X-18170608Y10073295D01*
X-18171309Y10068492D01*
X-18171309Y10068491D01*
X-18172226Y10062207D01*
X-18180500Y10005487D01*
X-18180500Y9594515D01*
X-18180169Y9592269D01*
X-18180169Y9592265D01*
X-18178111Y9578284D01*
X-18170431Y9526117D01*
X-18119372Y9422121D01*
X-18115720Y9418475D01*
X-18115719Y9418474D01*
X-18041034Y9343919D01*
X-18041032Y9343917D01*
X-18037379Y9340271D01*
X-17985552Y9314937D01*
X-17953887Y9279084D01*
X-17950500Y9258787D01*
X-17950500Y8063000D01*
X-17968806Y8018806D01*
X-18013000Y8000500D01*
X-18158218Y8000500D01*
X-18160465Y8000169D01*
X-18160468Y8000169D01*
X-18177945Y7997596D01*
X-18227112Y7990358D01*
X-18331855Y7938932D01*
X-18335501Y7935280D01*
X-18335502Y7935279D01*
X-18410645Y7860005D01*
X-18410647Y7860003D01*
X-18414293Y7856350D01*
X-18416561Y7851710D01*
X-18463114Y7756472D01*
X-18465536Y7751518D01*
X-18475500Y7683218D01*
X-18475500Y7316782D01*
X-18465358Y7247888D01*
X-18413932Y7143145D01*
X-18410280Y7139499D01*
X-18410279Y7139498D01*
X-18335005Y7064355D01*
X-18335003Y7064353D01*
X-18331350Y7060707D01*
X-18300325Y7045542D01*
X-18231262Y7011783D01*
X-18226518Y7009464D01*
X-18221715Y7008763D01*
X-18221714Y7008763D01*
X-18203020Y7006036D01*
X-18158218Y6999500D01*
X-18012998Y6999500D01*
X-17968804Y6981194D01*
X-17950498Y6937000D01*
X-17950499Y5563001D01*
X-17968805Y5518807D01*
X-18012999Y5500501D01*
X-18103833Y5500501D01*
X-18105289Y5500363D01*
X-18105297Y5500363D01*
X-18118941Y5499073D01*
X-18135368Y5497520D01*
X-18189175Y5478624D01*
X-18258773Y5454184D01*
X-18258775Y5454183D01*
X-18263183Y5452635D01*
X-18372149Y5372151D01*
X-18452633Y5263185D01*
X-18497518Y5135370D01*
X-18500499Y5103835D01*
X-18500499Y4296167D01*
X-18497518Y4264632D01*
X-18452633Y4136817D01*
X-18372149Y4027851D01*
X-18263183Y3947367D01*
X-18258775Y3945819D01*
X-18258773Y3945818D01*
X-18189175Y3921378D01*
X-18135368Y3902482D01*
X-18118941Y3900929D01*
X-18105297Y3899639D01*
X-18105289Y3899639D01*
X-18103833Y3899501D01*
X-18014367Y3899501D01*
X-17970173Y3881195D01*
X-17952300Y3844349D01*
X-17950933Y3832802D01*
X-17950500Y3825454D01*
X-17950500Y1963001D01*
X-17968806Y1918807D01*
X-18013000Y1900501D01*
X-18103833Y1900501D01*
X-18105289Y1900363D01*
X-18105297Y1900363D01*
X-18118941Y1899073D01*
X-18135368Y1897520D01*
X-18142988Y1894844D01*
X-18258773Y1854184D01*
X-18258775Y1854183D01*
X-18263183Y1852635D01*
X-18372149Y1772151D01*
X-18452633Y1663185D01*
X-18497518Y1535370D01*
X-18500499Y1503835D01*
X-18500499Y696167D01*
X-18799500Y696167D01*
X-18799500Y12470127D01*
X-18797910Y12484133D01*
X-18795922Y12492780D01*
X-18794344Y12499641D01*
X-18795898Y12506507D01*
X-18795885Y12513543D01*
X-18795156Y12513542D01*
X-18795532Y12525049D01*
X-18793036Y12540807D01*
X-18786389Y12582776D01*
X-18780348Y12601368D01*
X-18746793Y12667223D01*
X-18735299Y12683042D01*
X-18683042Y12735299D01*
X-18667223Y12746793D01*
X-18665160Y12747844D01*
X-18601368Y12780348D01*
X-18582774Y12786389D01*
X-18559346Y12790100D01*
X-18525458Y12795467D01*
X-18514256Y12795082D01*
X-18514255Y12795933D01*
X-18507217Y12795921D01*
X-18500359Y12794344D01*
X-18493496Y12795897D01*
X-18493495Y12795897D01*
X-18484384Y12797959D01*
X-18470590Y12799500D01*
X-18252936Y12799500D01*
X-18030108Y12799499D01*
X-18015995Y12797885D01*
X-18000718Y12794344D01*
X-18000000Y12794343D01*
X-17994784Y12795533D01*
X-17985786Y12796906D01*
X-17952826Y12799500D01*
X-17811620Y12810613D01*
X-17627878Y12854726D01*
X-17581327Y12874008D01*
X-17455574Y12926096D01*
X-17455567Y12926100D01*
X-17453299Y12927039D01*
X-17449462Y12929390D01*
X-17294279Y13024487D01*
X-17292182Y13025772D01*
X-17148493Y13148493D01*
X-17025772Y13292182D01*
X-16966059Y13389624D01*
X-16928325Y13451200D01*
X-16928324Y13451203D01*
X-16927039Y13453299D01*
X-16926100Y13455567D01*
X-16926096Y13455574D01*
X-16855668Y13625604D01*
X-16854726Y13627878D01*
X-16810614Y13811620D01*
X-16802619Y13913205D01*
X-16796981Y13984832D01*
X-16795561Y13994035D01*
X-16795144Y13995833D01*
X-16795144Y13995836D01*
X-16794345Y13999282D01*
X-16794344Y14000000D01*
X-16796520Y14009542D01*
X-16797394Y14019906D01*
X-16104670Y14019906D01*
X-16088433Y13738316D01*
X-16087900Y13734094D01*
X-16033593Y13457291D01*
X-16032497Y13453200D01*
X-15941124Y13186324D01*
X-15939485Y13182422D01*
X-15812740Y12930418D01*
X-15810576Y12926759D01*
X-15650812Y12694301D01*
X-15648167Y12690963D01*
X-15538759Y12570726D01*
X-15530935Y12567044D01*
X-15521059Y12570865D01*
X-14100715Y13991210D01*
X-14097074Y14000000D01*
X-13902928Y14000000D01*
X-13899287Y13991210D01*
X-12478421Y12570343D01*
X-12469897Y12566812D01*
X-12460802Y12570663D01*
X-12393754Y12639852D01*
X-12391025Y12643082D01*
X-12224032Y12870415D01*
X-12221751Y12874008D01*
X-12087158Y13121901D01*
X-12085393Y13125756D01*
X-11985684Y13389624D01*
X-11984458Y13393685D01*
X-11921481Y13668659D01*
X-11920821Y13672825D01*
X-11895665Y13954698D01*
X-11895543Y13957142D01*
X-11895107Y13998775D01*
X-11895178Y14001231D01*
X-11914423Y14283534D01*
X-11915003Y14287766D01*
X-11972201Y14563967D01*
X-11973342Y14568054D01*
X-12067504Y14833958D01*
X-12069185Y14837841D01*
X-12198566Y15088514D01*
X-12200762Y15092140D01*
X-12362962Y15322927D01*
X-12365623Y15326213D01*
X-12461318Y15429192D01*
X-12469356Y15432872D01*
X-12478993Y15429085D01*
X-13899287Y14008790D01*
X-13902928Y14000000D01*
X-14097074Y14000000D01*
X-14100715Y14008790D01*
X-15521425Y15429501D01*
X-15529771Y15432958D01*
X-15539066Y15428964D01*
X-15620392Y15343265D01*
X-15623106Y15339984D01*
X-15787705Y15110919D01*
X-15789940Y15107316D01*
X-15921932Y14858025D01*
X-15923661Y14854142D01*
X-16020595Y14589258D01*
X-16021786Y14585160D01*
X-16081874Y14309570D01*
X-16082494Y14305371D01*
X-16104625Y14024174D01*
X-16104670Y14019906D01*
X-16797394Y14019906D01*
X-16797987Y14026941D01*
X-16792316Y14127908D01*
X-16782093Y14309949D01*
X-16781309Y14316908D01*
X-16729898Y14619490D01*
X-16728338Y14626323D01*
X-16669836Y14829390D01*
X-16643373Y14921247D01*
X-16641059Y14927859D01*
X-16619494Y14979920D01*
X-16523605Y15211418D01*
X-16520564Y15217732D01*
X-16372107Y15486344D01*
X-16368379Y15492279D01*
X-16339976Y15532310D01*
X-15435723Y15532310D01*
X-15432208Y15524130D01*
X-14474129Y14566052D01*
X-14008791Y14100714D01*
X-14000001Y14097073D01*
X-13991211Y14100714D01*
X-13525873Y14566052D01*
X-12567122Y15524802D01*
X-12563225Y15534210D01*
X-12565301Y15539492D01*
X-12779018Y15714417D01*
X-12782486Y15716882D01*
X-13022988Y15864262D01*
X-13026757Y15866232D01*
X-13285048Y15979615D01*
X-13289029Y15981048D01*
X-13560321Y16058327D01*
X-13564476Y16059210D01*
X-13843728Y16098953D01*
X-13847973Y16099265D01*
X-14130032Y16100742D01*
X-14134289Y16100474D01*
X-14413931Y16063659D01*
X-14418110Y16062817D01*
X-14690179Y15988387D01*
X-14694196Y15986988D01*
X-14953653Y15876320D01*
X-14957435Y15874393D01*
X-15199469Y15729539D01*
X-15202963Y15727111D01*
X-15423104Y15550745D01*
X-15426226Y15547873D01*
X-15432142Y15541639D01*
X-15435723Y15532310D01*
X-16339976Y15532310D01*
X-16190770Y15742596D01*
X-16186400Y15748076D01*
X-16102893Y15841521D01*
X-15981882Y15976932D01*
X-15976929Y15981885D01*
X-15974778Y15983807D01*
X-15748068Y16186407D01*
X-15742606Y16190762D01*
X-15492273Y16368384D01*
X-15486350Y16372104D01*
X-15369841Y16436496D01*
X-15217733Y16520564D01*
X-15211418Y16523605D01*
X-15062029Y16585484D01*
X-14927855Y16641061D01*
X-14921248Y16643373D01*
X-14804374Y16677043D01*
X-14626324Y16728338D01*
X-14619491Y16729898D01*
X-14472170Y16754929D01*
X-14316901Y16781310D01*
X-14309949Y16782093D01*
X-14125125Y16792473D01*
X-14003504Y16799303D01*
X-13996496Y16799303D01*
X-13874949Y16792477D01*
X-13690052Y16782093D01*
X-13683100Y16781310D01*
X-13527831Y16754929D01*
X-13380510Y16729898D01*
X-13373677Y16728338D01*
X-13256233Y16694503D01*
X-13078753Y16643372D01*
X-13072146Y16641060D01*
X-12977140Y16601707D01*
X-12788583Y16523604D01*
X-12782269Y16520563D01*
X-12513657Y16372106D01*
X-12507722Y16368378D01*
X-12257405Y16190769D01*
X-12251925Y16186399D01*
X-12204302Y16143841D01*
X-12040744Y15997676D01*
X-12029418Y15984240D01*
X-12024355Y15976153D01*
X-12010498Y15967410D01*
X-11999660Y15958750D01*
X-11620171Y15579260D01*
X-11611333Y15568139D01*
X-11603036Y15554835D01*
X-11602529Y15554326D01*
X-11599534Y15552444D01*
X-11596862Y15550308D01*
X-11594248Y15548397D01*
X-11447208Y15424233D01*
X-11444940Y15422895D01*
X-11444937Y15422893D01*
X-11376459Y15382499D01*
X-11272762Y15321330D01*
X-11083544Y15249101D01*
X-11020857Y15236632D01*
X-10887480Y15210102D01*
X-10887478Y15210102D01*
X-10884900Y15209589D01*
X-10882270Y15209515D01*
X-10882268Y15209515D01*
X-10685083Y15203982D01*
X-10682445Y15203908D01*
X-10648988Y15208632D01*
X-10484509Y15231852D01*
X-10484503Y15231853D01*
X-10481899Y15232221D01*
X-10288928Y15293726D01*
X-10286594Y15294932D01*
X-10286591Y15294933D01*
X-10111329Y15385476D01*
X-10111328Y15385477D01*
X-10108987Y15386686D01*
X-10106882Y15388270D01*
X-10106879Y15388272D01*
X-9949262Y15506891D01*
X-9949260Y15506893D01*
X-9947159Y15508474D01*
X-9935389Y15520923D01*
X-9809828Y15653733D01*
X-9809825Y15653736D01*
X-9808018Y15655648D01*
X-9806555Y15657837D01*
X-9696956Y15821864D01*
X-9696953Y15821869D01*
X-9695496Y15824050D01*
X-9612772Y16008920D01*
X-9562183Y16205036D01*
X-9546099Y16395720D01*
X-9545529Y16399342D01*
X-9545145Y16402685D01*
X-9544345Y16406136D01*
X-9544344Y16406854D01*
X-9547935Y16422597D01*
X-9549500Y16436496D01*
X-9549500Y17970127D01*
X-9547910Y17984133D01*
X-9545922Y17992780D01*
X-9544344Y17999641D01*
X-9545898Y18006507D01*
X-9545885Y18013543D01*
X-9545156Y18013542D01*
X-9545532Y18025049D01*
X-9544731Y18030107D01*
X-9536389Y18082776D01*
X-9530348Y18101368D01*
X-9496793Y18167223D01*
X-9485299Y18183042D01*
X-9433042Y18235299D01*
X-9417223Y18246793D01*
X-9415160Y18247844D01*
X-9351368Y18280348D01*
X-9332774Y18286389D01*
X-9309346Y18290100D01*
X-9275458Y18295467D01*
X-9264256Y18295082D01*
X-9264255Y18295933D01*
X-9257217Y18295921D01*
X-9250359Y18294344D01*
X-9243496Y18295897D01*
X-9243495Y18295897D01*
X-9234383Y18297959D01*
X-9220589Y18299500D01*
X-8810072Y18299500D01*
X-8765878Y18281194D01*
G37*
%TD.AperFunction*%
%TD*%
M02*
