%TF.GenerationSoftware,KiCad,Pcbnew,(6.0.7)*%
%TF.CreationDate,2022-10-21T23:46:12+08:00*%
%TF.ProjectId,pcb_middle,7063625f-6d69-4646-946c-652e6b696361,rev?*%
%TF.SameCoordinates,Original*%
%TF.FileFunction,Drillmap*%
%TF.FilePolarity,Positive*%
%FSLAX45Y45*%
G04 Gerber Fmt 4.5, Leading zero omitted, Abs format (unit mm)*
G04 Created by KiCad (PCBNEW (6.0.7)) date 2022-10-21 23:46:12*
%MOMM*%
%LPD*%
G01*
G04 APERTURE LIST*
%ADD10C,0.200000*%
G04 APERTURE END LIST*
D10*
X1402520Y-869159D02*
G75*
G03*
X1402520Y869159I-1402520J869159D01*
G01*
X-1700000Y-1400000D02*
G75*
G03*
X-1800000Y-1300000I-100000J0D01*
G01*
X-1900000Y-1250000D02*
G75*
G03*
X-1850000Y-1300000I50000J0D01*
G01*
X-1900000Y1250000D02*
X-1900000Y-1250000D01*
X992546Y-1416810D02*
X1187868Y-1612132D01*
X-1145711Y1569975D02*
X-1187868Y1612132D01*
X-975000Y1800000D02*
X-975000Y1640685D01*
X-925000Y1850000D02*
G75*
G03*
X-975000Y1800000I0J-50000D01*
G01*
X-1187868Y1612132D02*
G75*
G03*
X-1700000Y1400000I-212132J-212132D01*
G01*
X5000Y1699110D02*
G75*
G03*
X53382Y1649136I49999J-1D01*
G01*
X-1187868Y-1612132D02*
X-992546Y-1416810D01*
X1612132Y1187868D02*
G75*
G03*
X1187868Y1612132I-212132J212132D01*
G01*
X869159Y1402520D02*
G75*
G03*
X992546Y1416810I52677J85001D01*
G01*
X5000Y1800000D02*
G75*
G03*
X-45000Y1850000I-50001J-1D01*
G01*
X-45000Y1850000D02*
X-925000Y1850000D01*
X-1700000Y-1400000D02*
G75*
G03*
X-1187868Y-1612132I300000J0D01*
G01*
X869159Y1402520D02*
G75*
G03*
X53382Y1649136I-869158J-1402516D01*
G01*
X-1145711Y1569975D02*
G75*
G03*
X-975000Y1640685I70711J70711D01*
G01*
X1612132Y-1187868D02*
X1416810Y-992546D01*
X-869159Y-1402520D02*
G75*
G03*
X-992546Y-1416810I-52676J-85002D01*
G01*
X1402519Y-869159D02*
G75*
G03*
X1416810Y-992546I85004J-52676D01*
G01*
X-1800000Y1300000D02*
G75*
G03*
X-1700000Y1400000I0J100000D01*
G01*
X-1800000Y1300000D02*
X-1850000Y1300000D01*
X-869159Y-1402520D02*
G75*
G03*
X869159Y-1402520I869159J1402519D01*
G01*
X-1850000Y-1300000D02*
X-1800000Y-1300000D01*
X1187868Y-1612132D02*
G75*
G03*
X1612132Y-1187868I212132J212132D01*
G01*
X5000Y1699110D02*
X5000Y1800000D01*
X1187868Y1612132D02*
X992546Y1416810D01*
X1050000Y0D02*
G75*
G03*
X1050000Y0I-1050000J0D01*
G01*
X992547Y-1416810D02*
G75*
G03*
X869159Y-1402520I-70711J-70712D01*
G01*
X1416810Y992546D02*
X1612132Y1187868D01*
X1416810Y992546D02*
G75*
G03*
X1402520Y869159I70710J-70711D01*
G01*
X-1850000Y1300000D02*
G75*
G03*
X-1900000Y1250000I0J-50000D01*
G01*
X-1652381Y-2020476D02*
X-1652381Y-1820476D01*
X-1604762Y-1820476D01*
X-1576190Y-1830000D01*
X-1557143Y-1849048D01*
X-1547619Y-1868095D01*
X-1538095Y-1906190D01*
X-1538095Y-1934762D01*
X-1547619Y-1972857D01*
X-1557143Y-1991905D01*
X-1576190Y-2010952D01*
X-1604762Y-2020476D01*
X-1652381Y-2020476D01*
X-1452381Y-2020476D02*
X-1452381Y-1887143D01*
X-1452381Y-1925238D02*
X-1442857Y-1906190D01*
X-1433333Y-1896667D01*
X-1414286Y-1887143D01*
X-1395238Y-1887143D01*
X-1328571Y-2020476D02*
X-1328571Y-1887143D01*
X-1328571Y-1820476D02*
X-1338095Y-1830000D01*
X-1328571Y-1839524D01*
X-1319048Y-1830000D01*
X-1328571Y-1820476D01*
X-1328571Y-1839524D01*
X-1204762Y-2020476D02*
X-1223810Y-2010952D01*
X-1233333Y-1991905D01*
X-1233333Y-1820476D01*
X-1100000Y-2020476D02*
X-1119048Y-2010952D01*
X-1128571Y-1991905D01*
X-1128571Y-1820476D01*
X-871428Y-2020476D02*
X-871428Y-1820476D01*
X-804762Y-1963333D01*
X-738095Y-1820476D01*
X-738095Y-2020476D01*
X-557143Y-2020476D02*
X-557143Y-1915714D01*
X-566667Y-1896667D01*
X-585714Y-1887143D01*
X-623810Y-1887143D01*
X-642857Y-1896667D01*
X-557143Y-2010952D02*
X-576190Y-2020476D01*
X-623810Y-2020476D01*
X-642857Y-2010952D01*
X-652381Y-1991905D01*
X-652381Y-1972857D01*
X-642857Y-1953810D01*
X-623810Y-1944286D01*
X-576190Y-1944286D01*
X-557143Y-1934762D01*
X-461905Y-1887143D02*
X-461905Y-2087143D01*
X-461905Y-1896667D02*
X-442857Y-1887143D01*
X-404762Y-1887143D01*
X-385714Y-1896667D01*
X-376190Y-1906190D01*
X-366667Y-1925238D01*
X-366667Y-1982381D01*
X-376190Y-2001429D01*
X-385714Y-2010952D01*
X-404762Y-2020476D01*
X-442857Y-2020476D01*
X-461905Y-2010952D01*
X-280952Y-2001429D02*
X-271429Y-2010952D01*
X-280952Y-2020476D01*
X-290476Y-2010952D01*
X-280952Y-2001429D01*
X-280952Y-2020476D01*
X-280952Y-1896667D02*
X-271429Y-1906190D01*
X-280952Y-1915714D01*
X-290476Y-1906190D01*
X-280952Y-1896667D01*
X-280952Y-1915714D01*
M02*
