%TF.GenerationSoftware,KiCad,Pcbnew,(6.0.7)*%
%TF.CreationDate,2022-10-21T23:46:11+08:00*%
%TF.ProjectId,pcb_middle,7063625f-6d69-4646-946c-652e6b696361,rev?*%
%TF.SameCoordinates,Original*%
%TF.FileFunction,Legend,Top*%
%TF.FilePolarity,Positive*%
%FSLAX46Y46*%
G04 Gerber Fmt 4.6, Leading zero omitted, Abs format (unit mm)*
G04 Created by KiCad (PCBNEW (6.0.7)) date 2022-10-21 23:46:11*
%MOMM*%
%LPD*%
G01*
G04 APERTURE LIST*
%ADD10C,0.150000*%
%ADD11C,0.120000*%
%ADD12C,0.200000*%
%ADD13C,0.100000*%
G04 APERTURE END LIST*
D10*
X-13847619Y-1014285D02*
X-13800000Y-1061904D01*
X-13752380Y-1157142D01*
X-13752380Y-1395238D01*
X-13800000Y-1490476D01*
X-13847619Y-1538095D01*
X-13942857Y-1585714D01*
X-14038095Y-1585714D01*
X-14180952Y-1538095D01*
X-14752380Y-966666D01*
X-14752380Y-1585714D01*
X-14752380Y4214285D02*
X-14752380Y4785714D01*
X-14752380Y4500000D02*
X-13752380Y4500000D01*
X-13895238Y4595238D01*
X-13990476Y4690476D01*
X-14038095Y4785714D01*
D11*
%TO.C,J3*%
X-18209999Y-3839999D02*
X-18209999Y-1959999D01*
X-15089999Y-3959999D02*
X-14099999Y-3959999D01*
X-15089999Y-789999D02*
X-15089999Y-1839999D01*
X-16239999Y-5009999D02*
X-15089999Y-5009999D01*
X-16239999Y-789999D02*
X-15089999Y-789999D01*
X-15089999Y-5009999D02*
X-15089999Y-3959999D01*
%TO.C,R3*%
X-10105938Y7152483D02*
X-9925323Y7401080D01*
X-9491085Y6705766D02*
X-9310470Y6954363D01*
%TO.C,R2*%
X-15880000Y10553641D02*
X-15880000Y10246359D01*
X-15120000Y10553641D02*
X-15120000Y10246359D01*
%TO.C,Q2*%
X-5240000Y11199998D02*
X-5240000Y10549998D01*
X-8360000Y11199998D02*
X-8360000Y10549998D01*
X-8360000Y11199998D02*
X-8360000Y11849998D01*
X-5240000Y11199998D02*
X-5240000Y12874998D01*
%TO.C,Q3*%
X-16600000Y-9059998D02*
X-14925000Y-9059998D01*
X-16600000Y-5939998D02*
X-17250000Y-5939998D01*
X-16600000Y-9059998D02*
X-17250000Y-9059998D01*
X-16600000Y-5939998D02*
X-15950000Y-5939998D01*
D12*
%TO.C,D2*%
X-13354422Y6117958D02*
X-13354422Y6117958D01*
D13*
X-11415380Y10147861D02*
X-11415380Y10147861D01*
D12*
X-13295643Y6198860D02*
X-13295643Y6198860D01*
D13*
X-11415380Y10147861D02*
X-13178736Y7720810D01*
X-13178736Y7720810D02*
X-11415380Y10147861D01*
X-12046112Y6897911D02*
X-10282756Y9324962D01*
X-10282756Y9324962D02*
X-12046112Y6897911D01*
X-13178736Y7720810D02*
X-13178736Y7720810D01*
D12*
X-13295643Y6198860D02*
X-13295643Y6198860D01*
D13*
X-12046112Y6897911D02*
X-12046112Y6897911D01*
X-10282756Y9324962D02*
X-10282756Y9324962D01*
D12*
X-13295642Y6198861D02*
G75*
G03*
X-13354422Y6117958I-29390J-40452D01*
G01*
X-13354422Y6117958D02*
G75*
G03*
X-13295643Y6198860I29390J40451D01*
G01*
X-13295642Y6198861D02*
G75*
G03*
X-13354422Y6117958I-29390J-40452D01*
G01*
D11*
%TO.C,R1*%
X11620001Y153641D02*
X11620001Y-153641D01*
X12380001Y153641D02*
X12380001Y-153641D01*
%TO.C,D7*%
X-13350001Y-4800000D02*
X-11650001Y-4800000D01*
X-13350001Y-4800000D02*
X-13350001Y-1650000D01*
X-11650001Y-4800000D02*
X-11650001Y-1650000D01*
%TO.C,R10*%
X-17153641Y-11380000D02*
X-16846359Y-11380000D01*
X-17153641Y-10620000D02*
X-16846359Y-10620000D01*
D13*
%TO.C,D8*%
X-18240000Y9800001D02*
G75*
G03*
X-18240000Y9800001I-50000J0D01*
G01*
D11*
%TO.C,D3*%
X-13350000Y1000001D02*
X-13350000Y4150001D01*
X-11650000Y1000001D02*
X-11650000Y4150001D01*
X-13350000Y1000001D02*
X-11650000Y1000001D01*
%TO.C,R9*%
X-17353642Y10620000D02*
X-17046360Y10620000D01*
X-17353642Y11380000D02*
X-17046360Y11380000D01*
%TO.C,J1*%
X-8610002Y15940002D02*
X-8610002Y14790002D01*
X-7440002Y17910002D02*
X-2560002Y17910002D01*
X-8610002Y14790002D02*
X-7560002Y14790002D01*
X-1390002Y14790002D02*
X-2440002Y14790002D01*
X-1390002Y15940002D02*
X-1390002Y14790002D01*
X-7560002Y14790002D02*
X-7560002Y13800002D01*
D13*
%TO.C,D9*%
X-18039999Y-9800001D02*
G75*
G03*
X-18039999Y-9800001I-50000J0D01*
G01*
D11*
%TO.C,R4*%
X-9310470Y-6954363D02*
X-9491085Y-6705766D01*
X-9925323Y-7401080D02*
X-10105938Y-7152483D01*
%TO.C,D6*%
X5653937Y-12546927D02*
X2800767Y-13473978D01*
X6160725Y-14106660D02*
X3307555Y-15033711D01*
%TO.C,R5*%
X3444656Y11098754D02*
X3736899Y11003799D01*
X3679509Y11821557D02*
X3971752Y11726602D01*
D13*
%TO.C,D4*%
X-11415380Y-10147861D02*
X-13178736Y-7720810D01*
X-10282756Y-9324962D02*
X-12046112Y-6897911D01*
D12*
X-9945267Y-10810257D02*
X-9945267Y-10810257D01*
X-10004046Y-10729355D02*
X-10004046Y-10729355D01*
D13*
X-11415380Y-10147861D02*
X-11415380Y-10147861D01*
X-12046112Y-6897911D02*
X-12046112Y-6897911D01*
X-13178736Y-7720810D02*
X-11415380Y-10147861D01*
X-13178736Y-7720810D02*
X-13178736Y-7720810D01*
X-12046112Y-6897911D02*
X-10282756Y-9324962D01*
X-10282756Y-9324962D02*
X-10282756Y-9324962D01*
D12*
X-10004046Y-10729355D02*
X-10004046Y-10729355D01*
X-10004046Y-10729355D02*
G75*
G03*
X-9945267Y-10810257I29390J-40451D01*
G01*
X-10004046Y-10729355D02*
G75*
G03*
X-9945267Y-10810257I29390J-40451D01*
G01*
X-9945266Y-10810258D02*
G75*
G03*
X-10004046Y-10729355I-29390J40452D01*
G01*
D13*
%TO.C,D1*%
X13800000Y1500000D02*
X13800000Y1500000D01*
X13800000Y-1500000D02*
X13800000Y1500000D01*
X13800000Y1500000D02*
X13800000Y-1500000D01*
X13800000Y-1500000D02*
X13800000Y-1500000D01*
D12*
X14400000Y2800000D02*
X14400000Y2800000D01*
D13*
X15200000Y1500000D02*
X15200000Y-1500000D01*
D12*
X14400000Y2900000D02*
X14400000Y2900000D01*
D13*
X15200000Y-1500000D02*
X15200000Y1500000D01*
X15200000Y-1500000D02*
X15200000Y-1500000D01*
X15200000Y1500000D02*
X15200000Y1500000D01*
D12*
X14400000Y2800000D02*
X14400000Y2800000D01*
X14400000Y2800000D02*
G75*
G03*
X14400000Y2900000I0J50000D01*
G01*
X14400000Y2900000D02*
G75*
G03*
X14400000Y2800000I0J-50000D01*
G01*
X14400000Y2800000D02*
G75*
G03*
X14400000Y2900000I0J50000D01*
G01*
D11*
%TO.C,Q1*%
X-16600000Y9060000D02*
X-15950000Y9060000D01*
X-16600000Y5940000D02*
X-14925000Y5940000D01*
X-16600000Y5940000D02*
X-17250000Y5940000D01*
X-16600000Y9060000D02*
X-17250000Y9060000D01*
%TO.C,R8*%
X3736899Y-11003799D02*
X3444656Y-11098754D01*
X3971752Y-11726602D02*
X3679509Y-11821557D01*
%TO.C,J2*%
X-15089999Y790001D02*
X-15089999Y1840001D01*
X-15089999Y5010001D02*
X-15089999Y3960001D01*
X-18209999Y1960001D02*
X-18209999Y3840001D01*
X-16239999Y5010001D02*
X-15089999Y5010001D01*
X-15089999Y1840001D02*
X-14099999Y1840001D01*
X-16239999Y790001D02*
X-15089999Y790001D01*
%TO.C,D5*%
X3307555Y15033711D02*
X6160725Y14106660D01*
X2800767Y13473978D02*
X5653937Y12546927D01*
%TO.C,R6*%
X-4020001Y11353641D02*
X-4020001Y11046359D01*
X-4780001Y11353641D02*
X-4780001Y11046359D01*
%TO.C,R7*%
X-15680001Y-10246359D02*
X-15680001Y-10553641D01*
X-14920001Y-10246359D02*
X-14920001Y-10553641D01*
%TD*%
M02*
