%TF.GenerationSoftware,KiCad,Pcbnew,(6.0.7)*%
%TF.CreationDate,2022-10-21T23:46:11+08:00*%
%TF.ProjectId,pcb_middle,7063625f-6d69-4646-946c-652e6b696361,rev?*%
%TF.SameCoordinates,Original*%
%TF.FileFunction,Legend,Bot*%
%TF.FilePolarity,Positive*%
%FSLAX46Y46*%
G04 Gerber Fmt 4.6, Leading zero omitted, Abs format (unit mm)*
G04 Created by KiCad (PCBNEW (6.0.7)) date 2022-10-21 23:46:11*
%MOMM*%
%LPD*%
G01*
G04 APERTURE LIST*
%ADD10C,0.150000*%
G04 APERTURE END LIST*
D10*
X-17561904Y4692976D02*
X-18133333Y4692976D01*
X-18247619Y4654880D01*
X-18323809Y4578690D01*
X-18361904Y4464404D01*
X-18361904Y4388214D01*
X-18361904Y5454880D02*
X-18361904Y5073928D01*
X-17561904Y5073928D01*
X-18285714Y6178690D02*
X-18323809Y6140595D01*
X-18361904Y6026309D01*
X-18361904Y5950119D01*
X-18323809Y5835833D01*
X-18247619Y5759642D01*
X-18171428Y5721547D01*
X-18019047Y5683452D01*
X-17904761Y5683452D01*
X-17752380Y5721547D01*
X-17676190Y5759642D01*
X-17600000Y5835833D01*
X-17561904Y5950119D01*
X-17561904Y6026309D01*
X-17600000Y6140595D01*
X-17638095Y6178690D01*
X-17561904Y6750119D02*
X-18133333Y6750119D01*
X-18247619Y6712023D01*
X-18323809Y6635833D01*
X-18361904Y6521547D01*
X-18361904Y6445357D01*
X-18361904Y7512023D02*
X-18361904Y7131071D01*
X-17561904Y7131071D01*
X-18285714Y8235833D02*
X-18323809Y8197738D01*
X-18361904Y8083452D01*
X-18361904Y8007261D01*
X-18323809Y7892976D01*
X-18247619Y7816785D01*
X-18171428Y7778690D01*
X-18019047Y7740595D01*
X-17904761Y7740595D01*
X-17752380Y7778690D01*
X-17676190Y7816785D01*
X-17600000Y7892976D01*
X-17561904Y8007261D01*
X-17561904Y8083452D01*
X-17600000Y8197738D01*
X-17638095Y8235833D01*
X-17561904Y8807261D02*
X-18133333Y8807261D01*
X-18247619Y8769166D01*
X-18323809Y8692976D01*
X-18361904Y8578690D01*
X-18361904Y8502500D01*
X-18361904Y9569166D02*
X-18361904Y9188214D01*
X-17561904Y9188214D01*
X-18285714Y10292976D02*
X-18323809Y10254880D01*
X-18361904Y10140595D01*
X-18361904Y10064404D01*
X-18323809Y9950119D01*
X-18247619Y9873928D01*
X-18171428Y9835833D01*
X-18019047Y9797738D01*
X-17904761Y9797738D01*
X-17752380Y9835833D01*
X-17676190Y9873928D01*
X-17600000Y9950119D01*
X-17561904Y10064404D01*
X-17561904Y10140595D01*
X-17600000Y10254880D01*
X-17638095Y10292976D01*
X-17561904Y10864404D02*
X-18133333Y10864404D01*
X-18247619Y10826309D01*
X-18323809Y10750119D01*
X-18361904Y10635833D01*
X-18361904Y10559642D01*
X-18361904Y11626309D02*
X-18361904Y11245357D01*
X-17561904Y11245357D01*
X-18285714Y12350119D02*
X-18323809Y12312023D01*
X-18361904Y12197738D01*
X-18361904Y12121547D01*
X-18323809Y12007261D01*
X-18247619Y11931071D01*
X-18171428Y11892976D01*
X-18019047Y11854880D01*
X-17904761Y11854880D01*
X-17752380Y11892976D01*
X-17676190Y11931071D01*
X-17600000Y12007261D01*
X-17561904Y12121547D01*
X-17561904Y12197738D01*
X-17600000Y12312023D01*
X-17638095Y12350119D01*
X-18323809Y-12350119D02*
X-18361904Y-12235833D01*
X-18361904Y-12045357D01*
X-18323809Y-11969166D01*
X-18285714Y-11931071D01*
X-18209523Y-11892976D01*
X-18133333Y-11892976D01*
X-18057142Y-11931071D01*
X-18019047Y-11969166D01*
X-17980952Y-12045357D01*
X-17942857Y-12197738D01*
X-17904761Y-12273928D01*
X-17866666Y-12312023D01*
X-17790476Y-12350119D01*
X-17714285Y-12350119D01*
X-17638095Y-12312023D01*
X-17600000Y-12273928D01*
X-17561904Y-12197738D01*
X-17561904Y-12007261D01*
X-17600000Y-11892976D01*
X-18133333Y-11588214D02*
X-18133333Y-11207261D01*
X-18361904Y-11664404D02*
X-17561904Y-11397738D01*
X-18361904Y-11131071D01*
X-18323809Y-10902500D02*
X-18361904Y-10788214D01*
X-18361904Y-10597738D01*
X-18323809Y-10521547D01*
X-18285714Y-10483452D01*
X-18209523Y-10445357D01*
X-18133333Y-10445357D01*
X-18057142Y-10483452D01*
X-18019047Y-10521547D01*
X-17980952Y-10597738D01*
X-17942857Y-10750119D01*
X-17904761Y-10826309D01*
X-17866666Y-10864404D01*
X-17790476Y-10902500D01*
X-17714285Y-10902500D01*
X-17638095Y-10864404D01*
X-17600000Y-10826309D01*
X-17561904Y-10750119D01*
X-17561904Y-10559642D01*
X-17600000Y-10445357D01*
X-18323809Y-9531071D02*
X-18361904Y-9416785D01*
X-18361904Y-9226309D01*
X-18323809Y-9150119D01*
X-18285714Y-9112023D01*
X-18209523Y-9073928D01*
X-18133333Y-9073928D01*
X-18057142Y-9112023D01*
X-18019047Y-9150119D01*
X-17980952Y-9226309D01*
X-17942857Y-9378690D01*
X-17904761Y-9454880D01*
X-17866666Y-9492976D01*
X-17790476Y-9531071D01*
X-17714285Y-9531071D01*
X-17638095Y-9492976D01*
X-17600000Y-9454880D01*
X-17561904Y-9378690D01*
X-17561904Y-9188214D01*
X-17600000Y-9073928D01*
X-17828571Y-8731071D02*
X-18628571Y-8731071D01*
X-17866666Y-8731071D02*
X-17828571Y-8654880D01*
X-17828571Y-8502500D01*
X-17866666Y-8426309D01*
X-17904761Y-8388214D01*
X-17980952Y-8350119D01*
X-18209523Y-8350119D01*
X-18285714Y-8388214D01*
X-18323809Y-8426309D01*
X-18361904Y-8502500D01*
X-18361904Y-8654880D01*
X-18323809Y-8731071D01*
X-18361904Y-7664404D02*
X-17942857Y-7664404D01*
X-17866666Y-7702500D01*
X-17828571Y-7778690D01*
X-17828571Y-7931071D01*
X-17866666Y-8007261D01*
X-18323809Y-7664404D02*
X-18361904Y-7740595D01*
X-18361904Y-7931071D01*
X-18323809Y-8007261D01*
X-18247619Y-8045357D01*
X-18171428Y-8045357D01*
X-18095238Y-8007261D01*
X-18057142Y-7931071D01*
X-18057142Y-7740595D01*
X-18019047Y-7664404D01*
X-18323809Y-6940595D02*
X-18361904Y-7016785D01*
X-18361904Y-7169166D01*
X-18323809Y-7245357D01*
X-18285714Y-7283452D01*
X-18209523Y-7321547D01*
X-17980952Y-7321547D01*
X-17904761Y-7283452D01*
X-17866666Y-7245357D01*
X-17828571Y-7169166D01*
X-17828571Y-7016785D01*
X-17866666Y-6940595D01*
X-18323809Y-6292976D02*
X-18361904Y-6369166D01*
X-18361904Y-6521547D01*
X-18323809Y-6597738D01*
X-18247619Y-6635833D01*
X-17942857Y-6635833D01*
X-17866666Y-6597738D01*
X-17828571Y-6521547D01*
X-17828571Y-6369166D01*
X-17866666Y-6292976D01*
X-17942857Y-6254880D01*
X-18019047Y-6254880D01*
X-18095238Y-6635833D01*
X-18361904Y-5531071D02*
X-18361904Y-5912023D01*
X-17561904Y-5912023D01*
X-18361904Y-4921547D02*
X-17942857Y-4921547D01*
X-17866666Y-4959642D01*
X-17828571Y-5035833D01*
X-17828571Y-5188214D01*
X-17866666Y-5264404D01*
X-18323809Y-4921547D02*
X-18361904Y-4997738D01*
X-18361904Y-5188214D01*
X-18323809Y-5264404D01*
X-18247619Y-5302500D01*
X-18171428Y-5302500D01*
X-18095238Y-5264404D01*
X-18057142Y-5188214D01*
X-18057142Y-4997738D01*
X-18019047Y-4921547D01*
X-18361904Y-4540595D02*
X-17561904Y-4540595D01*
X-17866666Y-4540595D02*
X-17828571Y-4464404D01*
X-17828571Y-4312023D01*
X-17866666Y-4235833D01*
X-17904761Y-4197738D01*
X-17980952Y-4159642D01*
X-18209523Y-4159642D01*
X-18285714Y-4197738D01*
X-18323809Y-4235833D01*
X-18361904Y-4312023D01*
X-18361904Y-4464404D01*
X-18323809Y-4540595D01*
X-17638095Y-3245357D02*
X-17600000Y-3207261D01*
X-17561904Y-3131071D01*
X-17561904Y-2940595D01*
X-17600000Y-2864404D01*
X-17638095Y-2826309D01*
X-17714285Y-2788214D01*
X-17790476Y-2788214D01*
X-17904761Y-2826309D01*
X-18361904Y-3283452D01*
X-18361904Y-2788214D01*
X-17561904Y-2292976D02*
X-17561904Y-2216785D01*
X-17599999Y-2140595D01*
X-17638095Y-2102500D01*
X-17714285Y-2064404D01*
X-17866666Y-2026309D01*
X-18057142Y-2026309D01*
X-18209523Y-2064404D01*
X-18285714Y-2102500D01*
X-18323809Y-2140595D01*
X-18361904Y-2216785D01*
X-18361904Y-2292976D01*
X-18323809Y-2369166D01*
X-18285714Y-2407261D01*
X-18209523Y-2445357D01*
X-18057142Y-2483452D01*
X-17866666Y-2483452D01*
X-17714285Y-2445357D01*
X-17638095Y-2407261D01*
X-17600000Y-2369166D01*
X-17561904Y-2292976D01*
X-17638095Y-1721547D02*
X-17599999Y-1683452D01*
X-17561904Y-1607261D01*
X-17561904Y-1416785D01*
X-17599999Y-1340595D01*
X-17638095Y-1302500D01*
X-17714285Y-1264404D01*
X-17790476Y-1264404D01*
X-17904761Y-1302500D01*
X-18361904Y-1759642D01*
X-18361904Y-1264404D01*
X-17561904Y-997738D02*
X-17561904Y-502500D01*
X-17866666Y-769166D01*
X-17866666Y-654880D01*
X-17904761Y-578690D01*
X-17942857Y-540595D01*
X-18019047Y-502500D01*
X-18209523Y-502500D01*
X-18285714Y-540595D01*
X-18323809Y-578690D01*
X-18361904Y-654880D01*
X-18361904Y-883452D01*
X-18323809Y-959642D01*
X-18285714Y-997738D01*
M02*
