%TF.GenerationSoftware,KiCad,Pcbnew,(6.0.7)*%
%TF.CreationDate,2022-10-21T23:46:11+08:00*%
%TF.ProjectId,pcb_middle,7063625f-6d69-4646-946c-652e6b696361,rev?*%
%TF.SameCoordinates,Original*%
%TF.FileFunction,Paste,Top*%
%TF.FilePolarity,Positive*%
%FSLAX46Y46*%
G04 Gerber Fmt 4.6, Leading zero omitted, Abs format (unit mm)*
G04 Created by KiCad (PCBNEW (6.0.7)) date 2022-10-21 23:46:11*
%MOMM*%
%LPD*%
G01*
G04 APERTURE LIST*
G04 Aperture macros list*
%AMRoundRect*
0 Rectangle with rounded corners*
0 $1 Rounding radius*
0 $2 $3 $4 $5 $6 $7 $8 $9 X,Y pos of 4 corners*
0 Add a 4 corners polygon primitive as box body*
4,1,4,$2,$3,$4,$5,$6,$7,$8,$9,$2,$3,0*
0 Add four circle primitives for the rounded corners*
1,1,$1+$1,$2,$3*
1,1,$1+$1,$4,$5*
1,1,$1+$1,$6,$7*
1,1,$1+$1,$8,$9*
0 Add four rect primitives between the rounded corners*
20,1,$1+$1,$2,$3,$4,$5,0*
20,1,$1+$1,$4,$5,$6,$7,0*
20,1,$1+$1,$6,$7,$8,$9,0*
20,1,$1+$1,$8,$9,$2,$3,0*%
%AMRotRect*
0 Rectangle, with rotation*
0 The origin of the aperture is its center*
0 $1 length*
0 $2 width*
0 $3 Rotation angle, in degrees counterclockwise*
0 Add horizontal line*
21,1,$1,$2,0,0,$3*%
G04 Aperture macros list end*
%ADD10RoundRect,0.150000X0.625000X-0.150000X0.625000X0.150000X-0.625000X0.150000X-0.625000X-0.150000X0*%
%ADD11RoundRect,0.250000X0.650000X-0.350000X0.650000X0.350000X-0.650000X0.350000X-0.650000X-0.350000X0*%
%ADD12RoundRect,0.135000X0.070317X-0.217958X0.229019X0.000477X-0.070317X0.217958X-0.229019X-0.000477X0*%
%ADD13RoundRect,0.135000X-0.185000X0.135000X-0.185000X-0.135000X0.185000X-0.135000X0.185000X0.135000X0*%
%ADD14RoundRect,0.150000X-0.150000X0.587500X-0.150000X-0.587500X0.150000X-0.587500X0.150000X0.587500X0*%
%ADD15RoundRect,0.150000X0.587500X0.150000X-0.587500X0.150000X-0.587500X-0.150000X0.587500X-0.150000X0*%
%ADD16RotRect,0.800000X2.000000X324.000000*%
%ADD17RotRect,0.800000X1.200000X324.000000*%
%ADD18R,1.000000X1.000000*%
%ADD19RoundRect,0.135000X-0.135000X-0.185000X0.135000X-0.185000X0.135000X0.185000X-0.135000X0.185000X0*%
%ADD20RoundRect,0.147500X-0.147500X-0.172500X0.147500X-0.172500X0.147500X0.172500X-0.147500X0.172500X0*%
%ADD21RoundRect,0.150000X-0.150000X-0.625000X0.150000X-0.625000X0.150000X0.625000X-0.150000X0.625000X0*%
%ADD22RoundRect,0.250000X-0.350000X-0.650000X0.350000X-0.650000X0.350000X0.650000X-0.350000X0.650000X0*%
%ADD23RoundRect,0.135000X0.229019X-0.000477X0.070317X0.217958X-0.229019X0.000477X-0.070317X-0.217958X0*%
%ADD24RotRect,1.350000X1.250000X198.000000*%
%ADD25RoundRect,0.135000X-0.185561X-0.134228X0.071224X-0.217663X0.185561X0.134228X-0.071224X0.217663X0*%
%ADD26RotRect,0.800000X2.000000X36.000000*%
%ADD27RotRect,0.800000X1.200000X36.000000*%
%ADD28R,0.800000X2.000000*%
%ADD29R,0.800000X1.200000*%
%ADD30RoundRect,0.135000X0.071224X0.217663X-0.185561X0.134228X-0.071224X-0.217663X0.185561X-0.134228X0*%
%ADD31RotRect,1.350000X1.250000X342.000000*%
G04 APERTURE END LIST*
D10*
%TO.C,J3*%
X-14874999Y-3399999D03*
X-14874999Y-2399999D03*
D11*
X-17399999Y-1099999D03*
X-17399999Y-4699999D03*
%TD*%
D12*
%TO.C,R3*%
X-10007974Y6640824D03*
X-9408434Y7466022D03*
%TD*%
D13*
%TO.C,R2*%
X-15500000Y10910000D03*
X-15500000Y9890000D03*
%TD*%
D14*
%TO.C,Q2*%
X-5850000Y12137498D03*
X-7750000Y12137498D03*
X-6800000Y10262498D03*
%TD*%
D15*
%TO.C,Q3*%
X-15662500Y-8449998D03*
X-15662500Y-6549998D03*
X-17537500Y-7499998D03*
%TD*%
D16*
%TO.C,D2*%
X-12247997Y7810951D03*
D17*
X-10984259Y9550338D03*
%TD*%
D13*
%TO.C,R1*%
X12000001Y510000D03*
X12000001Y-510000D03*
%TD*%
D18*
%TO.C,D7*%
X-12500001Y-4150000D03*
X-12500001Y-1650000D03*
%TD*%
D19*
%TO.C,R10*%
X-17510000Y-11000000D03*
X-16490000Y-11000000D03*
%TD*%
D20*
%TO.C,D8*%
X-17685000Y9800001D03*
X-16715000Y9800001D03*
%TD*%
D18*
%TO.C,D3*%
X-12500000Y1650001D03*
X-12500000Y4150001D03*
%TD*%
D19*
%TO.C,R9*%
X-17710001Y11000000D03*
X-16690001Y11000000D03*
%TD*%
D21*
%TO.C,J1*%
X-7000002Y14575002D03*
X-6000002Y14575002D03*
X-5000002Y14575002D03*
X-4000002Y14575002D03*
X-3000002Y14575002D03*
D22*
X-1700002Y17100002D03*
X-8300002Y17100002D03*
%TD*%
D20*
%TO.C,D9*%
X-17484999Y-9800001D03*
X-16514999Y-9800001D03*
%TD*%
D23*
%TO.C,R4*%
X-9408434Y-7466022D03*
X-10007974Y-6640824D03*
%TD*%
D24*
%TO.C,D6*%
X5598237Y-13427224D03*
X3363255Y-14153414D03*
%TD*%
D25*
%TO.C,R5*%
X3223165Y11570277D03*
X4193243Y11255079D03*
%TD*%
D26*
%TO.C,D4*%
X-11213495Y-9234821D03*
D27*
X-12477233Y-7495434D03*
%TD*%
D28*
%TO.C,D1*%
X14500000Y880000D03*
D29*
X14500000Y-1270000D03*
%TD*%
D15*
%TO.C,Q1*%
X-15662500Y6550000D03*
X-15662500Y8450000D03*
X-17537500Y7500000D03*
%TD*%
D30*
%TO.C,R8*%
X4193243Y-11255079D03*
X3223165Y-11570277D03*
%TD*%
D10*
%TO.C,J2*%
X-14874999Y2400001D03*
X-14874999Y3400001D03*
D11*
X-17399999Y1100001D03*
X-17399999Y4700001D03*
%TD*%
D31*
%TO.C,D5*%
X3363255Y14153414D03*
X5598237Y13427224D03*
%TD*%
D13*
%TO.C,R6*%
X-4400001Y11710000D03*
X-4400001Y10690000D03*
%TD*%
%TO.C,R7*%
X-15300001Y-9890000D03*
X-15300001Y-10910000D03*
%TD*%
M02*
