%TF.GenerationSoftware,KiCad,Pcbnew,(6.0.7)*%
%TF.CreationDate,2022-10-21T23:46:11+08:00*%
%TF.ProjectId,pcb_middle,7063625f-6d69-4646-946c-652e6b696361,rev?*%
%TF.SameCoordinates,Original*%
%TF.FileFunction,Profile,NP*%
%FSLAX46Y46*%
G04 Gerber Fmt 4.6, Leading zero omitted, Abs format (unit mm)*
G04 Created by KiCad (PCBNEW (6.0.7)) date 2022-10-21 23:46:11*
%MOMM*%
%LPD*%
G01*
G04 APERTURE LIST*
%TA.AperFunction,Profile*%
%ADD10C,0.200000*%
%TD*%
G04 APERTURE END LIST*
D10*
X14025200Y-8691594D02*
G75*
G03*
X14025200Y8691593I-14025200J8691594D01*
G01*
X-16999999Y-14000000D02*
G75*
G03*
X-18000000Y-13000000I-1000001J-1D01*
G01*
X-19000000Y-12500001D02*
G75*
G03*
X-18500000Y-13000000I500001J2D01*
G01*
X-19000000Y12500000D02*
X-19000000Y-12500001D01*
X9925463Y-14168104D02*
X11878680Y-16121320D01*
X-11457108Y15699747D02*
X-11878680Y16121320D01*
X-9750000Y18000000D02*
X-9750000Y16406854D01*
X-9250000Y18500000D02*
G75*
G03*
X-9750000Y18000000I1J-500001D01*
G01*
X-11878680Y16121320D02*
G75*
G03*
X-17000000Y14000000I-2121321J-2121319D01*
G01*
X50001Y16991101D02*
G75*
G03*
X533824Y16491362I499989J-11D01*
G01*
X-11878680Y-16121320D02*
X-9925463Y-14168104D01*
X16121320Y11878680D02*
G75*
G03*
X11878680Y16121320I-2121320J2121320D01*
G01*
X8691595Y14025202D02*
G75*
G03*
X9925463Y14168104I526765J850008D01*
G01*
X49999Y18000000D02*
G75*
G03*
X-450000Y18500000I-500006J-6D01*
G01*
X-450000Y18500000D02*
X-9250000Y18500000D01*
X-17000000Y-14000000D02*
G75*
G03*
X-11878680Y-16121320I2999999J-2D01*
G01*
X8691592Y14025198D02*
G75*
G03*
X533824Y16491362I-8691582J-14025158D01*
G01*
X-11457108Y15699747D02*
G75*
G03*
X-9750000Y16406854I707107J707107D01*
G01*
X16121320Y-11878680D02*
X14168104Y-9925463D01*
X-8691593Y-14025199D02*
G75*
G03*
X-9925463Y-14168104I-526763J-850016D01*
G01*
X14025195Y-8691590D02*
G75*
G03*
X14168104Y-9925463I850035J-526760D01*
G01*
X-18000000Y12999999D02*
G75*
G03*
X-17000000Y14000000I-1J1000001D01*
G01*
X-18000000Y12999999D02*
X-18500000Y13000000D01*
X-8691593Y-14025199D02*
G75*
G03*
X8691593Y-14025200I8691594J14025194D01*
G01*
X-18500000Y-13000000D02*
X-18000000Y-13000000D01*
X11878680Y-16121320D02*
G75*
G03*
X16121320Y-11878680I2121320J2121320D01*
G01*
X50000Y16991101D02*
X49999Y18000000D01*
X11878680Y16121320D02*
X9925463Y14168104D01*
X10500000Y0D02*
G75*
G03*
X10500000Y0I-10500000J0D01*
G01*
X9925467Y-14168100D02*
G75*
G03*
X8691593Y-14025200I-707107J-707120D01*
G01*
X14168104Y9925463D02*
X16121320Y11878680D01*
X14168102Y9925465D02*
G75*
G03*
X14025200Y8691593I707098J-707105D01*
G01*
X-18500000Y13000000D02*
G75*
G03*
X-19000000Y12500000I1J-500001D01*
G01*
M02*
