M48
; DRILL file {KiCad (6.0.7)} date Fri Oct 21 23:47:17 2022
; FORMAT={-:-/ absolute / metric / decimal}
; #@! TF.CreationDate,2022-10-21T23:47:17+08:00
; #@! TF.GenerationSoftware,Kicad,Pcbnew,(6.0.7)
; #@! TF.FileFunction,Plated,1,2,PTH
FMAT,2
METRIC
; #@! TA.AperFunction,Plated,PTH,ComponentDrill
T1C0.800
; #@! TA.AperFunction,Plated,PTH,ViaDrill
T2C1.600
; #@! TA.AperFunction,Plated,PTH,ComponentDrill
T3C2.200
%
G90
G05
T1
X0.0Y0.0
X0.0Y-2.0
X0.0Y-4.0
X0.0Y-6.0
X0.0Y-8.0
X0.0Y-10.0
X0.0Y-12.0
X0.0Y-14.0
X0.0Y-16.0
X0.0Y-18.0
X0.0Y-20.0
X0.0Y-22.0
X0.0Y-24.0
X2.0Y0.0
X2.0Y-2.0
X2.0Y-4.0
X2.0Y-6.0
X2.0Y-8.0
X2.0Y-10.0
X2.0Y-12.0
X2.0Y-14.0
X2.0Y-16.0
X2.0Y-18.0
X2.0Y-20.0
X2.0Y-22.0
X2.0Y-24.0
T2
X9.75Y-8.188
X25.75Y-18.188
T3
X5.75Y0.25
X5.75Y-30.614
X25.5Y-30.614
T0
M30
