G04 #@! TF.GenerationSoftware,KiCad,Pcbnew,(6.0.7)*
G04 #@! TF.CreationDate,2022-10-09T17:58:56+08:00*
G04 #@! TF.ProjectId,pcb_front,7063625f-6672-46f6-9e74-2e6b69636164,rev?*
G04 #@! TF.SameCoordinates,Original*
G04 #@! TF.FileFunction,Paste,Top*
G04 #@! TF.FilePolarity,Positive*
%FSLAX46Y46*%
G04 Gerber Fmt 4.6, Leading zero omitted, Abs format (unit mm)*
G04 Created by KiCad (PCBNEW (6.0.7)) date 2022-10-09 17:58:56*
%MOMM*%
%LPD*%
G01*
G04 APERTURE LIST*
G04 Aperture macros list*
%AMRoundRect*
0 Rectangle with rounded corners*
0 $1 Rounding radius*
0 $2 $3 $4 $5 $6 $7 $8 $9 X,Y pos of 4 corners*
0 Add a 4 corners polygon primitive as box body*
4,1,4,$2,$3,$4,$5,$6,$7,$8,$9,$2,$3,0*
0 Add four circle primitives for the rounded corners*
1,1,$1+$1,$2,$3*
1,1,$1+$1,$4,$5*
1,1,$1+$1,$6,$7*
1,1,$1+$1,$8,$9*
0 Add four rect primitives between the rounded corners*
20,1,$1+$1,$2,$3,$4,$5,0*
20,1,$1+$1,$4,$5,$6,$7,0*
20,1,$1+$1,$6,$7,$8,$9,0*
20,1,$1+$1,$8,$9,$2,$3,0*%
G04 Aperture macros list end*
%ADD10RoundRect,0.218750X-0.218750X-0.256250X0.218750X-0.256250X0.218750X0.256250X-0.218750X0.256250X0*%
%ADD11RoundRect,0.150000X0.625000X-0.150000X0.625000X0.150000X-0.625000X0.150000X-0.625000X-0.150000X0*%
%ADD12RoundRect,0.250000X0.650000X-0.350000X0.650000X0.350000X-0.650000X0.350000X-0.650000X-0.350000X0*%
%ADD13RoundRect,0.200000X0.200000X0.275000X-0.200000X0.275000X-0.200000X-0.275000X0.200000X-0.275000X0*%
%ADD14RoundRect,0.218750X0.218750X0.256250X-0.218750X0.256250X-0.218750X-0.256250X0.218750X-0.256250X0*%
G04 APERTURE END LIST*
D10*
X148527500Y-89020000D03*
X150102500Y-89020000D03*
D11*
X163700000Y-111000000D03*
X163700000Y-110000000D03*
X163700000Y-109000000D03*
X163700000Y-108000000D03*
X163700000Y-107000000D03*
X163700000Y-106000000D03*
X163700000Y-105000000D03*
D12*
X167575000Y-103700000D03*
X167575000Y-112300000D03*
D13*
X155475000Y-111610000D03*
X157125000Y-111610000D03*
D14*
X158687500Y-111610000D03*
X160262500Y-111610000D03*
D12*
X167575000Y-97300000D03*
X167575000Y-90700000D03*
D11*
X163700000Y-92000000D03*
X163700000Y-93000000D03*
X163700000Y-94000000D03*
X163700000Y-95000000D03*
X163700000Y-96000000D03*
D13*
X155475000Y-109120000D03*
X157125000Y-109120000D03*
X155475000Y-106580000D03*
X157125000Y-106580000D03*
X157125000Y-104040000D03*
X155475000Y-104040000D03*
X157125000Y-101500000D03*
X155475000Y-101500000D03*
X157125000Y-98960000D03*
X155475000Y-98960000D03*
X157125000Y-96420000D03*
X155475000Y-96420000D03*
X155475000Y-93880000D03*
X157125000Y-93880000D03*
X157125000Y-91340000D03*
X155475000Y-91340000D03*
D14*
X158687500Y-109120000D03*
X160262500Y-109120000D03*
X160262500Y-106580000D03*
X158687500Y-106580000D03*
X160262500Y-104040000D03*
X158687500Y-104040000D03*
X158527500Y-101500000D03*
X160102500Y-101500000D03*
X158687500Y-98960000D03*
X160262500Y-98960000D03*
X158687500Y-96420000D03*
X160262500Y-96420000D03*
X158687500Y-93880000D03*
X160262500Y-93880000D03*
X158687500Y-91340000D03*
X160262500Y-91340000D03*
M02*
