G04 #@! TF.GenerationSoftware,KiCad,Pcbnew,(6.0.7)*
G04 #@! TF.CreationDate,2022-10-21T23:47:13+08:00*
G04 #@! TF.ProjectId,pcb_front,7063625f-6672-46f6-9e74-2e6b69636164,rev?*
G04 #@! TF.SameCoordinates,Original*
G04 #@! TF.FileFunction,Copper,L2,Bot*
G04 #@! TF.FilePolarity,Positive*
%FSLAX46Y46*%
G04 Gerber Fmt 4.6, Leading zero omitted, Abs format (unit mm)*
G04 Created by KiCad (PCBNEW (6.0.7)) date 2022-10-21 23:47:13*
%MOMM*%
%LPD*%
G01*
G04 APERTURE LIST*
G04 #@! TA.AperFunction,ComponentPad*
%ADD10C,3.200000*%
G04 #@! TD*
G04 #@! TA.AperFunction,ComponentPad*
%ADD11R,1.350000X1.350000*%
G04 #@! TD*
G04 #@! TA.AperFunction,ComponentPad*
%ADD12O,1.350000X1.350000*%
G04 #@! TD*
G04 #@! TA.AperFunction,ViaPad*
%ADD13C,2.300000*%
G04 #@! TD*
G04 APERTURE END LIST*
D10*
X5750000Y-30614100D03*
X5750000Y250000D03*
X25500000Y-30614100D03*
D11*
X2000000Y0D03*
D12*
X0Y0D03*
X2000000Y-2000000D03*
X0Y-2000000D03*
X2000000Y-4000000D03*
X0Y-4000000D03*
X2000000Y-6000000D03*
X0Y-6000000D03*
X2000000Y-8000000D03*
X0Y-8000000D03*
X2000000Y-10000000D03*
X0Y-10000000D03*
X2000000Y-12000000D03*
X0Y-12000000D03*
X2000000Y-14000000D03*
X0Y-14000000D03*
X2000000Y-16000000D03*
X0Y-16000000D03*
X2000000Y-18000000D03*
X0Y-18000000D03*
X2000000Y-20000000D03*
X0Y-20000000D03*
X2000000Y-22000000D03*
X0Y-22000000D03*
X2000000Y-24000000D03*
X0Y-24000000D03*
D13*
X25750000Y-18187500D03*
X9750000Y-8187500D03*
G04 #@! TA.AperFunction,Conductor*
G36*
X5347587Y2031194D02*
G01*
X5365893Y1987000D01*
X5347587Y1942806D01*
X5320882Y1926997D01*
X5144666Y1875635D01*
X5140339Y1874018D01*
X4911040Y1768309D01*
X4906983Y1766060D01*
X4695830Y1627622D01*
X4692159Y1624805D01*
X4581404Y1525953D01*
X4577724Y1518323D01*
X4581573Y1508229D01*
X5750000Y339803D01*
X7009144Y-919342D01*
X7016819Y-922521D01*
X7026834Y-917983D01*
X7133987Y-795800D01*
X7136766Y-792112D01*
X7273362Y-579750D01*
X7275570Y-575682D01*
X7379271Y-345475D01*
X7380859Y-341113D01*
X7426847Y-178051D01*
X7456461Y-140485D01*
X7503965Y-134863D01*
X7541531Y-164477D01*
X7549500Y-195016D01*
X7549500Y-5907627D01*
X7547910Y-5921633D01*
X7544344Y-5937141D01*
X7545897Y-5944004D01*
X7545897Y-5944006D01*
X7546552Y-5946900D01*
X7547791Y-5954564D01*
X7552587Y-6003254D01*
X7559636Y-6074822D01*
X7560526Y-6077756D01*
X7598801Y-6203935D01*
X7598803Y-6203940D01*
X7599691Y-6206867D01*
X7664738Y-6328560D01*
X7752275Y-6435225D01*
X7858940Y-6522762D01*
X7980633Y-6587809D01*
X7983560Y-6588697D01*
X7983565Y-6588699D01*
X8109744Y-6626974D01*
X8112678Y-6627864D01*
X8115726Y-6628164D01*
X8115730Y-6628165D01*
X8231471Y-6639564D01*
X8239449Y-6640876D01*
X8249282Y-6643155D01*
X8250000Y-6643156D01*
X8265743Y-6639565D01*
X8279642Y-6638000D01*
X9720127Y-6638000D01*
X9734133Y-6639590D01*
X9736436Y-6640119D01*
X9749641Y-6643156D01*
X9756505Y-6641603D01*
X9756508Y-6641603D01*
X9757722Y-6641328D01*
X9776181Y-6639963D01*
X9976269Y-6654957D01*
X9985506Y-6656349D01*
X10202153Y-6705797D01*
X10211080Y-6708550D01*
X10417943Y-6789738D01*
X10426359Y-6793791D01*
X10618808Y-6904901D01*
X10626526Y-6910164D01*
X10800266Y-7048717D01*
X10807114Y-7055070D01*
X10861127Y-7113282D01*
X10906407Y-7162082D01*
X10958265Y-7217972D01*
X10964086Y-7225272D01*
X11044946Y-7343872D01*
X11089268Y-7408881D01*
X11093938Y-7416970D01*
X11190357Y-7617184D01*
X11193768Y-7625876D01*
X11253718Y-7820227D01*
X11259270Y-7838226D01*
X11261349Y-7847333D01*
X11294469Y-8067075D01*
X11295167Y-8076390D01*
X11295167Y-8298610D01*
X11294469Y-8307925D01*
X11263318Y-8514606D01*
X11261349Y-8527667D01*
X11259271Y-8536771D01*
X11223047Y-8654207D01*
X11193770Y-8749120D01*
X11190358Y-8757813D01*
X11149715Y-8842209D01*
X11093938Y-8958030D01*
X11089268Y-8966119D01*
X11006885Y-9086954D01*
X10964089Y-9149724D01*
X10958268Y-9157024D01*
X10883487Y-9237619D01*
X10807114Y-9319930D01*
X10800266Y-9326283D01*
X10626526Y-9464836D01*
X10618811Y-9470097D01*
X10592316Y-9485394D01*
X10426359Y-9581209D01*
X10417943Y-9585262D01*
X10211080Y-9666450D01*
X10202153Y-9669203D01*
X9985506Y-9718651D01*
X9976270Y-9720043D01*
X9776629Y-9735004D01*
X9757953Y-9733590D01*
X9757829Y-9733562D01*
X9750359Y-9731844D01*
X9743496Y-9733397D01*
X9743495Y-9733397D01*
X9734383Y-9735459D01*
X9720589Y-9737000D01*
X8280107Y-9737000D01*
X8265994Y-9735386D01*
X8264130Y-9734954D01*
X8250718Y-9731845D01*
X8250000Y-9731844D01*
X8240208Y-9734078D01*
X8232447Y-9735340D01*
X8180208Y-9740485D01*
X8115730Y-9746835D01*
X8115726Y-9746836D01*
X8112678Y-9747136D01*
X8109744Y-9748026D01*
X7983565Y-9786301D01*
X7983560Y-9786303D01*
X7980633Y-9787191D01*
X7858940Y-9852238D01*
X7752275Y-9939775D01*
X7664738Y-10046440D01*
X7599691Y-10168133D01*
X7598803Y-10171060D01*
X7598801Y-10171065D01*
X7571381Y-10261458D01*
X7559636Y-10300178D01*
X7559336Y-10303226D01*
X7559335Y-10303230D01*
X7547889Y-10419448D01*
X7546600Y-10427328D01*
X7545922Y-10430278D01*
X7544344Y-10437141D01*
X7545897Y-10444004D01*
X7545897Y-10444006D01*
X7547959Y-10453117D01*
X7549500Y-10466911D01*
X7549500Y-19907627D01*
X7547910Y-19921633D01*
X7544344Y-19937141D01*
X7545897Y-19944004D01*
X7545897Y-19944006D01*
X7546552Y-19946900D01*
X7547791Y-19954564D01*
X7552587Y-20003254D01*
X7559636Y-20074822D01*
X7560526Y-20077756D01*
X7598801Y-20203935D01*
X7598803Y-20203940D01*
X7599691Y-20206867D01*
X7664738Y-20328560D01*
X7752275Y-20435225D01*
X7858940Y-20522762D01*
X7980633Y-20587809D01*
X7983560Y-20588697D01*
X7983565Y-20588699D01*
X8109744Y-20626974D01*
X8112678Y-20627864D01*
X8115726Y-20628164D01*
X8115730Y-20628165D01*
X8231471Y-20639564D01*
X8239449Y-20640876D01*
X8249282Y-20643155D01*
X8250000Y-20643156D01*
X8265743Y-20639565D01*
X8279642Y-20638000D01*
X23469893Y-20638000D01*
X23484006Y-20639614D01*
X23499282Y-20643155D01*
X23500000Y-20643156D01*
X23509792Y-20640922D01*
X23517553Y-20639660D01*
X23569792Y-20634515D01*
X23634270Y-20628165D01*
X23634274Y-20628164D01*
X23637322Y-20627864D01*
X23640256Y-20626974D01*
X23766435Y-20588699D01*
X23766440Y-20588697D01*
X23769367Y-20587809D01*
X23891060Y-20522762D01*
X23997725Y-20435225D01*
X24085262Y-20328560D01*
X24150309Y-20206867D01*
X24151197Y-20203940D01*
X24151199Y-20203935D01*
X24189474Y-20077756D01*
X24190364Y-20074822D01*
X24194774Y-20030051D01*
X24202064Y-19956029D01*
X24203376Y-19948051D01*
X24205655Y-19938218D01*
X24205656Y-19937500D01*
X24202065Y-19921757D01*
X24200500Y-19907858D01*
X24200500Y-18217607D01*
X24202114Y-18203494D01*
X24202201Y-18203117D01*
X24205655Y-18188218D01*
X24205656Y-18187500D01*
X24204873Y-18184067D01*
X24204872Y-18184059D01*
X24203869Y-18179663D01*
X24202479Y-18161094D01*
X24217457Y-17961230D01*
X24218849Y-17951994D01*
X24268297Y-17735347D01*
X24271050Y-17726420D01*
X24352238Y-17519557D01*
X24356291Y-17511141D01*
X24451754Y-17345793D01*
X24467403Y-17318689D01*
X24472664Y-17310974D01*
X24611217Y-17137234D01*
X24617570Y-17130386D01*
X24675782Y-17076373D01*
X24780476Y-16979232D01*
X24787772Y-16973414D01*
X24971381Y-16848232D01*
X24979470Y-16843562D01*
X25145281Y-16763711D01*
X25179687Y-16747142D01*
X25188376Y-16743732D01*
X25400729Y-16678229D01*
X25409829Y-16676152D01*
X25629575Y-16643031D01*
X25638890Y-16642333D01*
X25861110Y-16642333D01*
X25870425Y-16643031D01*
X26090171Y-16676152D01*
X26099271Y-16678229D01*
X26311624Y-16743732D01*
X26320313Y-16747142D01*
X26354719Y-16763711D01*
X26520530Y-16843562D01*
X26528619Y-16848232D01*
X26712228Y-16973414D01*
X26719524Y-16979232D01*
X26824218Y-17076373D01*
X26882430Y-17130386D01*
X26888783Y-17137234D01*
X27027336Y-17310974D01*
X27032597Y-17318689D01*
X27048246Y-17345793D01*
X27143709Y-17511141D01*
X27147762Y-17519557D01*
X27228950Y-17726420D01*
X27231703Y-17735347D01*
X27281151Y-17951994D01*
X27282543Y-17961230D01*
X27297504Y-18160871D01*
X27296090Y-18179547D01*
X27294344Y-18187141D01*
X27295897Y-18194004D01*
X27295897Y-18194005D01*
X27297959Y-18203117D01*
X27299500Y-18216911D01*
X27299500Y-30168192D01*
X27281194Y-30212386D01*
X27237000Y-30230692D01*
X27192806Y-30212386D01*
X27176041Y-30181986D01*
X27159556Y-30109132D01*
X27158209Y-30104727D01*
X27066690Y-29869385D01*
X27064701Y-29865214D01*
X26939408Y-29645998D01*
X26936820Y-29642161D01*
X26780505Y-29443877D01*
X26778854Y-29442075D01*
X26769831Y-29438656D01*
X26761755Y-29442147D01*
X25500000Y-30703903D01*
X24330523Y-31873379D01*
X24326913Y-31882096D01*
X24330611Y-31890970D01*
X24371659Y-31931660D01*
X24375173Y-31934661D01*
X24578801Y-32083968D01*
X24582718Y-32086415D01*
X24806176Y-32203983D01*
X24810422Y-32205828D01*
X25048797Y-32289072D01*
X25054844Y-32290692D01*
X25092795Y-32319812D01*
X25099040Y-32367238D01*
X25069920Y-32405189D01*
X25038669Y-32413563D01*
X6193270Y-32413563D01*
X6149076Y-32395257D01*
X6130770Y-32351063D01*
X6149076Y-32306869D01*
X6177357Y-32290623D01*
X6312568Y-32255025D01*
X6316946Y-32253517D01*
X6548921Y-32153853D01*
X6553047Y-32151706D01*
X6767744Y-32018847D01*
X6771492Y-32016124D01*
X6919447Y-31890871D01*
X6923804Y-31882411D01*
X6921589Y-31875491D01*
X5660197Y-30614100D01*
X5844952Y-30614100D01*
X5848593Y-30622890D01*
X7009144Y-31783442D01*
X7016819Y-31786621D01*
X7026834Y-31782083D01*
X7133987Y-31659900D01*
X7136766Y-31656212D01*
X7273362Y-31443850D01*
X7275570Y-31439782D01*
X7379271Y-31209575D01*
X7380859Y-31205213D01*
X7449393Y-30962209D01*
X7450316Y-30957671D01*
X7482276Y-30706447D01*
X7482514Y-30703338D01*
X7484810Y-30615665D01*
X7484735Y-30612534D01*
X7481649Y-30571007D01*
X23765854Y-30571007D01*
X23777969Y-30823208D01*
X23778533Y-30827800D01*
X23827793Y-31075448D01*
X23829028Y-31079900D01*
X23914350Y-31317540D01*
X23916233Y-31321771D01*
X24035745Y-31544193D01*
X24038231Y-31548095D01*
X24189299Y-31750400D01*
X24192340Y-31753900D01*
X24222710Y-31784006D01*
X24231590Y-31787639D01*
X24240280Y-31784017D01*
X25401407Y-30622890D01*
X25405048Y-30614100D01*
X25401407Y-30605310D01*
X24239510Y-29443412D01*
X24230720Y-29439771D01*
X24224187Y-29442478D01*
X24089110Y-29604889D01*
X24086429Y-29608647D01*
X23955439Y-29824512D01*
X23953340Y-29828630D01*
X23855693Y-30061493D01*
X23854231Y-30065864D01*
X23792075Y-30310603D01*
X23791273Y-30315146D01*
X23765975Y-30566380D01*
X23765854Y-30571007D01*
X7481649Y-30571007D01*
X7465967Y-30359989D01*
X7465283Y-30355410D01*
X7409556Y-30109132D01*
X7408209Y-30104727D01*
X7316690Y-29869385D01*
X7314701Y-29865214D01*
X7189408Y-29645998D01*
X7186820Y-29642161D01*
X7030505Y-29443877D01*
X7028854Y-29442075D01*
X7019831Y-29438656D01*
X7011755Y-29442147D01*
X5848593Y-30605310D01*
X5844952Y-30614100D01*
X5660197Y-30614100D01*
X4489510Y-29443412D01*
X4480720Y-29439771D01*
X4474187Y-29442478D01*
X4339110Y-29604889D01*
X4336429Y-29608647D01*
X4205439Y-29824512D01*
X4203340Y-29828630D01*
X4105693Y-30061493D01*
X4104231Y-30065864D01*
X4073577Y-30186564D01*
X4044956Y-30224892D01*
X3997615Y-30231756D01*
X3959287Y-30203135D01*
X3950500Y-30171179D01*
X3950500Y-29345777D01*
X4577724Y-29345777D01*
X4581573Y-29355871D01*
X5741210Y-30515507D01*
X5750000Y-30519148D01*
X5758790Y-30515507D01*
X6918859Y-29355439D01*
X6922285Y-29347167D01*
X6921684Y-29345777D01*
X24327724Y-29345777D01*
X24331573Y-29355871D01*
X25491210Y-30515507D01*
X25500000Y-30519148D01*
X25508790Y-30515507D01*
X26668859Y-29355439D01*
X26672285Y-29347167D01*
X26668232Y-29337791D01*
X26593463Y-29267454D01*
X26589876Y-29264550D01*
X26382406Y-29120622D01*
X26378422Y-29118276D01*
X26151972Y-29006602D01*
X26147678Y-29004867D01*
X25907198Y-28927889D01*
X25902703Y-28926810D01*
X25653496Y-28886225D01*
X25648882Y-28885821D01*
X25396403Y-28882515D01*
X25391795Y-28882797D01*
X25141603Y-28916847D01*
X25137077Y-28917809D01*
X24894666Y-28988465D01*
X24890339Y-28990082D01*
X24661040Y-29095791D01*
X24656983Y-29098040D01*
X24445830Y-29236478D01*
X24442159Y-29239295D01*
X24331404Y-29338147D01*
X24327724Y-29345777D01*
X6921684Y-29345777D01*
X6918232Y-29337791D01*
X6843463Y-29267454D01*
X6839876Y-29264550D01*
X6632406Y-29120622D01*
X6628422Y-29118276D01*
X6401972Y-29006602D01*
X6397678Y-29004867D01*
X6157198Y-28927889D01*
X6152703Y-28926810D01*
X5903496Y-28886225D01*
X5898882Y-28885821D01*
X5646403Y-28882515D01*
X5641795Y-28882797D01*
X5391603Y-28916847D01*
X5387077Y-28917809D01*
X5144666Y-28988465D01*
X5140339Y-28990082D01*
X4911040Y-29095791D01*
X4906983Y-29098040D01*
X4695830Y-29236478D01*
X4692159Y-29239295D01*
X4581404Y-29338147D01*
X4577724Y-29345777D01*
X3950500Y-29345777D01*
X3950500Y-27280100D01*
X3952114Y-27265990D01*
X3954855Y-27254160D01*
X3955655Y-27250710D01*
X3955656Y-27249992D01*
X3954466Y-27244775D01*
X3953093Y-27235779D01*
X3943098Y-27108836D01*
X3939380Y-27061615D01*
X3895263Y-26877878D01*
X3894325Y-26875613D01*
X3823889Y-26705575D01*
X3823888Y-26705572D01*
X3822948Y-26703304D01*
X3724215Y-26542191D01*
X3647219Y-26452040D01*
X3603087Y-26400369D01*
X3601495Y-26398505D01*
X3513061Y-26322975D01*
X3459677Y-26277380D01*
X3459674Y-26277378D01*
X3457809Y-26275785D01*
X3296696Y-26177052D01*
X3294428Y-26176112D01*
X3294425Y-26176111D01*
X3124387Y-26105675D01*
X3124384Y-26105674D01*
X3122122Y-26104737D01*
X2938385Y-26060620D01*
X2886488Y-26056534D01*
X2765183Y-26046983D01*
X2755973Y-26045561D01*
X2754179Y-26045145D01*
X2754173Y-26045144D01*
X2750726Y-26044345D01*
X2750008Y-26044344D01*
X2740046Y-26046616D01*
X2734262Y-26047935D01*
X2720365Y-26049500D01*
X-1220131Y-26049500D01*
X-1234135Y-26047911D01*
X-1242790Y-26045921D01*
X-1242791Y-26045921D01*
X-1249650Y-26044344D01*
X-1256516Y-26045898D01*
X-1258408Y-26045895D01*
X-1275697Y-26046971D01*
X-1399858Y-26034747D01*
X-1411875Y-26032357D01*
X-1550074Y-25990439D01*
X-1561394Y-25985751D01*
X-1688768Y-25917670D01*
X-1698943Y-25910871D01*
X-1810587Y-25819248D01*
X-1819249Y-25810586D01*
X-1830640Y-25796706D01*
X-1910871Y-25698943D01*
X-1917670Y-25688768D01*
X-1985752Y-25561392D01*
X-1990439Y-25550074D01*
X-2032357Y-25411875D01*
X-2034747Y-25399858D01*
X-2046929Y-25276130D01*
X-2045928Y-25260519D01*
X-2045922Y-25257229D01*
X-2044344Y-25250368D01*
X-2047959Y-25234389D01*
X-2049500Y-25220598D01*
X-2049500Y-24000000D01*
X-880322Y-24000000D01*
X-861085Y-24183029D01*
X-804214Y-24358059D01*
X-712195Y-24517440D01*
X-589050Y-24654207D01*
X-440161Y-24762381D01*
X-272034Y-24837236D01*
X-268827Y-24837918D01*
X-268826Y-24837918D01*
X-95228Y-24874818D01*
X-92019Y-24875500D01*
X92019Y-24875500D01*
X95228Y-24874818D01*
X268826Y-24837918D01*
X268827Y-24837918D01*
X272034Y-24837236D01*
X440161Y-24762381D01*
X589050Y-24654207D01*
X712195Y-24517440D01*
X804214Y-24358059D01*
X861085Y-24183029D01*
X880322Y-24000000D01*
X1119678Y-24000000D01*
X1138915Y-24183029D01*
X1195786Y-24358059D01*
X1287805Y-24517440D01*
X1410950Y-24654207D01*
X1559839Y-24762381D01*
X1727966Y-24837236D01*
X1731173Y-24837918D01*
X1731174Y-24837918D01*
X1904772Y-24874818D01*
X1907981Y-24875500D01*
X2092019Y-24875500D01*
X2095228Y-24874818D01*
X2268826Y-24837918D01*
X2268827Y-24837918D01*
X2272034Y-24837236D01*
X2440161Y-24762381D01*
X2589050Y-24654207D01*
X2712195Y-24517440D01*
X2804214Y-24358059D01*
X2861085Y-24183029D01*
X2880322Y-24000000D01*
X2861085Y-23816971D01*
X2804214Y-23641941D01*
X2712195Y-23482560D01*
X2589050Y-23345793D01*
X2440161Y-23237619D01*
X2272034Y-23162764D01*
X2268827Y-23162082D01*
X2268826Y-23162082D01*
X2095228Y-23125182D01*
X2095227Y-23125182D01*
X2092019Y-23124500D01*
X1907981Y-23124500D01*
X1904773Y-23125182D01*
X1904772Y-23125182D01*
X1731174Y-23162082D01*
X1731173Y-23162082D01*
X1727966Y-23162764D01*
X1559839Y-23237619D01*
X1410950Y-23345793D01*
X1287805Y-23482560D01*
X1195786Y-23641941D01*
X1138915Y-23816971D01*
X1119678Y-24000000D01*
X880322Y-24000000D01*
X861085Y-23816971D01*
X804214Y-23641941D01*
X712195Y-23482560D01*
X589050Y-23345793D01*
X440161Y-23237619D01*
X272034Y-23162764D01*
X268827Y-23162082D01*
X268826Y-23162082D01*
X95228Y-23125182D01*
X95227Y-23125182D01*
X92019Y-23124500D01*
X-92019Y-23124500D01*
X-95227Y-23125182D01*
X-95228Y-23125182D01*
X-268826Y-23162082D01*
X-268827Y-23162082D01*
X-272034Y-23162764D01*
X-440161Y-23237619D01*
X-589050Y-23345793D01*
X-712195Y-23482560D01*
X-804214Y-23641941D01*
X-861085Y-23816971D01*
X-880322Y-24000000D01*
X-2049500Y-24000000D01*
X-2049500Y-22000000D01*
X-880322Y-22000000D01*
X-861085Y-22183029D01*
X-804214Y-22358059D01*
X-712195Y-22517440D01*
X-589050Y-22654207D01*
X-440161Y-22762381D01*
X-272034Y-22837236D01*
X-268827Y-22837918D01*
X-268826Y-22837918D01*
X-95228Y-22874818D01*
X-92019Y-22875500D01*
X92019Y-22875500D01*
X95228Y-22874818D01*
X268826Y-22837918D01*
X268827Y-22837918D01*
X272034Y-22837236D01*
X440161Y-22762381D01*
X589050Y-22654207D01*
X712195Y-22517440D01*
X804214Y-22358059D01*
X861085Y-22183029D01*
X880322Y-22000000D01*
X1119678Y-22000000D01*
X1138915Y-22183029D01*
X1195786Y-22358059D01*
X1287805Y-22517440D01*
X1410950Y-22654207D01*
X1559839Y-22762381D01*
X1727966Y-22837236D01*
X1731173Y-22837918D01*
X1731174Y-22837918D01*
X1904772Y-22874818D01*
X1907981Y-22875500D01*
X2092019Y-22875500D01*
X2095228Y-22874818D01*
X2268826Y-22837918D01*
X2268827Y-22837918D01*
X2272034Y-22837236D01*
X2440161Y-22762381D01*
X2589050Y-22654207D01*
X2712195Y-22517440D01*
X2804214Y-22358059D01*
X2861085Y-22183029D01*
X2880322Y-22000000D01*
X2861085Y-21816971D01*
X2804214Y-21641941D01*
X2712195Y-21482560D01*
X2589050Y-21345793D01*
X2440161Y-21237619D01*
X2272034Y-21162764D01*
X2268827Y-21162082D01*
X2268826Y-21162082D01*
X2095228Y-21125182D01*
X2095227Y-21125182D01*
X2092019Y-21124500D01*
X1907981Y-21124500D01*
X1904773Y-21125182D01*
X1904772Y-21125182D01*
X1731174Y-21162082D01*
X1731173Y-21162082D01*
X1727966Y-21162764D01*
X1559839Y-21237619D01*
X1410950Y-21345793D01*
X1287805Y-21482560D01*
X1195786Y-21641941D01*
X1138915Y-21816971D01*
X1119678Y-22000000D01*
X880322Y-22000000D01*
X861085Y-21816971D01*
X804214Y-21641941D01*
X712195Y-21482560D01*
X589050Y-21345793D01*
X440161Y-21237619D01*
X272034Y-21162764D01*
X268827Y-21162082D01*
X268826Y-21162082D01*
X95228Y-21125182D01*
X95227Y-21125182D01*
X92019Y-21124500D01*
X-92019Y-21124500D01*
X-95227Y-21125182D01*
X-95228Y-21125182D01*
X-268826Y-21162082D01*
X-268827Y-21162082D01*
X-272034Y-21162764D01*
X-440161Y-21237619D01*
X-589050Y-21345793D01*
X-712195Y-21482560D01*
X-804214Y-21641941D01*
X-861085Y-21816971D01*
X-880322Y-22000000D01*
X-2049500Y-22000000D01*
X-2049500Y-20000000D01*
X-880322Y-20000000D01*
X-861085Y-20183029D01*
X-804214Y-20358059D01*
X-712195Y-20517440D01*
X-589050Y-20654207D01*
X-440161Y-20762381D01*
X-272034Y-20837236D01*
X-268827Y-20837918D01*
X-268826Y-20837918D01*
X-95228Y-20874818D01*
X-92019Y-20875500D01*
X92019Y-20875500D01*
X95228Y-20874818D01*
X268826Y-20837918D01*
X268827Y-20837918D01*
X272034Y-20837236D01*
X440161Y-20762381D01*
X589050Y-20654207D01*
X712195Y-20517440D01*
X804214Y-20358059D01*
X861085Y-20183029D01*
X880322Y-20000000D01*
X1119678Y-20000000D01*
X1138915Y-20183029D01*
X1195786Y-20358059D01*
X1287805Y-20517440D01*
X1410950Y-20654207D01*
X1559839Y-20762381D01*
X1727966Y-20837236D01*
X1731173Y-20837918D01*
X1731174Y-20837918D01*
X1904772Y-20874818D01*
X1907981Y-20875500D01*
X2092019Y-20875500D01*
X2095228Y-20874818D01*
X2268826Y-20837918D01*
X2268827Y-20837918D01*
X2272034Y-20837236D01*
X2440161Y-20762381D01*
X2589050Y-20654207D01*
X2712195Y-20517440D01*
X2804214Y-20358059D01*
X2861085Y-20183029D01*
X2880322Y-20000000D01*
X2861085Y-19816971D01*
X2804214Y-19641941D01*
X2712195Y-19482560D01*
X2589050Y-19345793D01*
X2440161Y-19237619D01*
X2272034Y-19162764D01*
X2268827Y-19162082D01*
X2268826Y-19162082D01*
X2095228Y-19125182D01*
X2095227Y-19125182D01*
X2092019Y-19124500D01*
X1907981Y-19124500D01*
X1904773Y-19125182D01*
X1904772Y-19125182D01*
X1731174Y-19162082D01*
X1731173Y-19162082D01*
X1727966Y-19162764D01*
X1559839Y-19237619D01*
X1410950Y-19345793D01*
X1287805Y-19482560D01*
X1195786Y-19641941D01*
X1138915Y-19816971D01*
X1119678Y-20000000D01*
X880322Y-20000000D01*
X861085Y-19816971D01*
X804214Y-19641941D01*
X712195Y-19482560D01*
X589050Y-19345793D01*
X440161Y-19237619D01*
X272034Y-19162764D01*
X268827Y-19162082D01*
X268826Y-19162082D01*
X95228Y-19125182D01*
X95227Y-19125182D01*
X92019Y-19124500D01*
X-92019Y-19124500D01*
X-95227Y-19125182D01*
X-95228Y-19125182D01*
X-268826Y-19162082D01*
X-268827Y-19162082D01*
X-272034Y-19162764D01*
X-440161Y-19237619D01*
X-589050Y-19345793D01*
X-712195Y-19482560D01*
X-804214Y-19641941D01*
X-861085Y-19816971D01*
X-880322Y-20000000D01*
X-2049500Y-20000000D01*
X-2049500Y-18000000D01*
X-880322Y-18000000D01*
X-861085Y-18183029D01*
X-860073Y-18186143D01*
X-860073Y-18186144D01*
X-852345Y-18209927D01*
X-804214Y-18358059D01*
X-712195Y-18517440D01*
X-589050Y-18654207D01*
X-440161Y-18762381D01*
X-272034Y-18837236D01*
X-268827Y-18837918D01*
X-268826Y-18837918D01*
X-95228Y-18874818D01*
X-92019Y-18875500D01*
X92019Y-18875500D01*
X95228Y-18874818D01*
X268826Y-18837918D01*
X268827Y-18837918D01*
X272034Y-18837236D01*
X440161Y-18762381D01*
X589050Y-18654207D01*
X712195Y-18517440D01*
X804214Y-18358059D01*
X852345Y-18209927D01*
X860073Y-18186144D01*
X860073Y-18186143D01*
X861085Y-18183029D01*
X880322Y-18000000D01*
X1119678Y-18000000D01*
X1138915Y-18183029D01*
X1139927Y-18186143D01*
X1139927Y-18186144D01*
X1147655Y-18209927D01*
X1195786Y-18358059D01*
X1287805Y-18517440D01*
X1410950Y-18654207D01*
X1559839Y-18762381D01*
X1727966Y-18837236D01*
X1731173Y-18837918D01*
X1731174Y-18837918D01*
X1904772Y-18874818D01*
X1907981Y-18875500D01*
X2092019Y-18875500D01*
X2095228Y-18874818D01*
X2268826Y-18837918D01*
X2268827Y-18837918D01*
X2272034Y-18837236D01*
X2440161Y-18762381D01*
X2589050Y-18654207D01*
X2712195Y-18517440D01*
X2804214Y-18358059D01*
X2852345Y-18209927D01*
X2860073Y-18186144D01*
X2860073Y-18186143D01*
X2861085Y-18183029D01*
X2880322Y-18000000D01*
X2861085Y-17816971D01*
X2804214Y-17641941D01*
X2712195Y-17482560D01*
X2589050Y-17345793D01*
X2440161Y-17237619D01*
X2272034Y-17162764D01*
X2268827Y-17162082D01*
X2268826Y-17162082D01*
X2095228Y-17125182D01*
X2095227Y-17125182D01*
X2092019Y-17124500D01*
X1907981Y-17124500D01*
X1904773Y-17125182D01*
X1904772Y-17125182D01*
X1731174Y-17162082D01*
X1731173Y-17162082D01*
X1727966Y-17162764D01*
X1559839Y-17237619D01*
X1410950Y-17345793D01*
X1287805Y-17482560D01*
X1195786Y-17641941D01*
X1138915Y-17816971D01*
X1119678Y-18000000D01*
X880322Y-18000000D01*
X861085Y-17816971D01*
X804214Y-17641941D01*
X712195Y-17482560D01*
X589050Y-17345793D01*
X440161Y-17237619D01*
X272034Y-17162764D01*
X268827Y-17162082D01*
X268826Y-17162082D01*
X95228Y-17125182D01*
X95227Y-17125182D01*
X92019Y-17124500D01*
X-92019Y-17124500D01*
X-95227Y-17125182D01*
X-95228Y-17125182D01*
X-268826Y-17162082D01*
X-268827Y-17162082D01*
X-272034Y-17162764D01*
X-440161Y-17237619D01*
X-589050Y-17345793D01*
X-712195Y-17482560D01*
X-804214Y-17641941D01*
X-861085Y-17816971D01*
X-880322Y-18000000D01*
X-2049500Y-18000000D01*
X-2049500Y-16000000D01*
X-880322Y-16000000D01*
X-861085Y-16183029D01*
X-804214Y-16358059D01*
X-712195Y-16517440D01*
X-589050Y-16654207D01*
X-440161Y-16762381D01*
X-272034Y-16837236D01*
X-268827Y-16837918D01*
X-268826Y-16837918D01*
X-220303Y-16848232D01*
X-92019Y-16875500D01*
X92019Y-16875500D01*
X220303Y-16848232D01*
X268826Y-16837918D01*
X268827Y-16837918D01*
X272034Y-16837236D01*
X440161Y-16762381D01*
X589050Y-16654207D01*
X712195Y-16517440D01*
X804214Y-16358059D01*
X861085Y-16183029D01*
X880322Y-16000000D01*
X1119678Y-16000000D01*
X1138915Y-16183029D01*
X1195786Y-16358059D01*
X1287805Y-16517440D01*
X1410950Y-16654207D01*
X1559839Y-16762381D01*
X1727966Y-16837236D01*
X1731173Y-16837918D01*
X1731174Y-16837918D01*
X1779697Y-16848232D01*
X1907981Y-16875500D01*
X2092019Y-16875500D01*
X2220303Y-16848232D01*
X2268826Y-16837918D01*
X2268827Y-16837918D01*
X2272034Y-16837236D01*
X2440161Y-16762381D01*
X2589050Y-16654207D01*
X2712195Y-16517440D01*
X2804214Y-16358059D01*
X2861085Y-16183029D01*
X2880322Y-16000000D01*
X2861085Y-15816971D01*
X2804214Y-15641941D01*
X2712195Y-15482560D01*
X2589050Y-15345793D01*
X2440161Y-15237619D01*
X2272034Y-15162764D01*
X2268827Y-15162082D01*
X2268826Y-15162082D01*
X2095228Y-15125182D01*
X2095227Y-15125182D01*
X2092019Y-15124500D01*
X1907981Y-15124500D01*
X1904773Y-15125182D01*
X1904772Y-15125182D01*
X1731174Y-15162082D01*
X1731173Y-15162082D01*
X1727966Y-15162764D01*
X1559839Y-15237619D01*
X1410950Y-15345793D01*
X1287805Y-15482560D01*
X1195786Y-15641941D01*
X1138915Y-15816971D01*
X1119678Y-16000000D01*
X880322Y-16000000D01*
X861085Y-15816971D01*
X804214Y-15641941D01*
X712195Y-15482560D01*
X589050Y-15345793D01*
X440161Y-15237619D01*
X272034Y-15162764D01*
X268827Y-15162082D01*
X268826Y-15162082D01*
X95228Y-15125182D01*
X95227Y-15125182D01*
X92019Y-15124500D01*
X-92019Y-15124500D01*
X-95227Y-15125182D01*
X-95228Y-15125182D01*
X-268826Y-15162082D01*
X-268827Y-15162082D01*
X-272034Y-15162764D01*
X-440161Y-15237619D01*
X-589050Y-15345793D01*
X-712195Y-15482560D01*
X-804214Y-15641941D01*
X-861085Y-15816971D01*
X-880322Y-16000000D01*
X-2049500Y-16000000D01*
X-2049500Y-14000000D01*
X-880322Y-14000000D01*
X-861085Y-14183029D01*
X-804214Y-14358059D01*
X-802579Y-14360891D01*
X-802578Y-14360893D01*
X-795472Y-14373201D01*
X-712195Y-14517440D01*
X-589050Y-14654207D01*
X-440161Y-14762381D01*
X-272034Y-14837236D01*
X-268827Y-14837918D01*
X-268826Y-14837918D01*
X-95228Y-14874818D01*
X-92019Y-14875500D01*
X92019Y-14875500D01*
X95228Y-14874818D01*
X268826Y-14837918D01*
X268827Y-14837918D01*
X272034Y-14837236D01*
X440161Y-14762381D01*
X589050Y-14654207D01*
X712195Y-14517440D01*
X795472Y-14373201D01*
X802578Y-14360893D01*
X802579Y-14360891D01*
X804214Y-14358059D01*
X861085Y-14183029D01*
X872591Y-14073552D01*
X1198306Y-14073552D01*
X1207267Y-14164954D01*
X1208710Y-14171741D01*
X1263511Y-14336478D01*
X1266427Y-14342788D01*
X1356361Y-14491287D01*
X1360597Y-14496787D01*
X1481202Y-14621676D01*
X1486547Y-14626099D01*
X1631829Y-14721168D01*
X1638017Y-14724294D01*
X1800750Y-14784814D01*
X1807480Y-14786493D01*
X1924176Y-14802063D01*
X1933373Y-14799615D01*
X1936500Y-14794221D01*
X1936500Y-14790162D01*
X2063500Y-14790162D01*
X2067141Y-14798952D01*
X2073692Y-14801665D01*
X2159416Y-14793864D01*
X2166212Y-14792469D01*
X2331329Y-14738819D01*
X2337655Y-14735949D01*
X2486780Y-14647054D01*
X2492313Y-14642853D01*
X2618039Y-14523127D01*
X2622500Y-14517810D01*
X2718578Y-14373201D01*
X2721751Y-14367027D01*
X2783402Y-14204728D01*
X2785129Y-14198001D01*
X2802302Y-14075810D01*
X2799920Y-14066598D01*
X2794660Y-14063500D01*
X2075931Y-14063500D01*
X2067141Y-14067141D01*
X2063500Y-14075931D01*
X2063500Y-14790162D01*
X1936500Y-14790162D01*
X1936500Y-14075931D01*
X1932859Y-14067141D01*
X1924069Y-14063500D01*
X1209751Y-14063500D01*
X1200961Y-14067141D01*
X1198306Y-14073552D01*
X872591Y-14073552D01*
X880322Y-14000000D01*
X872352Y-13924166D01*
X1198136Y-13924166D01*
X1200647Y-13933344D01*
X1206180Y-13936500D01*
X1924069Y-13936500D01*
X1932859Y-13932859D01*
X1936500Y-13924069D01*
X2063500Y-13924069D01*
X2067141Y-13932859D01*
X2075931Y-13936500D01*
X2790540Y-13936500D01*
X2799330Y-13932859D01*
X2801874Y-13926718D01*
X2790352Y-13823998D01*
X2788813Y-13817221D01*
X2731720Y-13653276D01*
X2728715Y-13647003D01*
X2636718Y-13499777D01*
X2632401Y-13494331D01*
X2510071Y-13371143D01*
X2504654Y-13366788D01*
X2358076Y-13273767D01*
X2351831Y-13270720D01*
X2188279Y-13212483D01*
X2181511Y-13210896D01*
X2075844Y-13198296D01*
X2066685Y-13200870D01*
X2063500Y-13206546D01*
X2063500Y-13924069D01*
X1936500Y-13924069D01*
X1936500Y-13209626D01*
X1932859Y-13200836D01*
X1926585Y-13198237D01*
X1829513Y-13208439D01*
X1822742Y-13209928D01*
X1658385Y-13265880D01*
X1652103Y-13268836D01*
X1504234Y-13359805D01*
X1498756Y-13364085D01*
X1374721Y-13485550D01*
X1370328Y-13490936D01*
X1276281Y-13636868D01*
X1273195Y-13643085D01*
X1213815Y-13806229D01*
X1212182Y-13812982D01*
X1198136Y-13924166D01*
X872352Y-13924166D01*
X861085Y-13816971D01*
X804214Y-13641941D01*
X712195Y-13482560D01*
X589050Y-13345793D01*
X440161Y-13237619D01*
X272034Y-13162764D01*
X268827Y-13162082D01*
X268826Y-13162082D01*
X95228Y-13125182D01*
X95227Y-13125182D01*
X92019Y-13124500D01*
X-92019Y-13124500D01*
X-95227Y-13125182D01*
X-95228Y-13125182D01*
X-268826Y-13162082D01*
X-268827Y-13162082D01*
X-272034Y-13162764D01*
X-440161Y-13237619D01*
X-589050Y-13345793D01*
X-712195Y-13482560D01*
X-804214Y-13641941D01*
X-861085Y-13816971D01*
X-880322Y-14000000D01*
X-2049500Y-14000000D01*
X-2049500Y-12073552D01*
X-801694Y-12073552D01*
X-792733Y-12164954D01*
X-791290Y-12171741D01*
X-736489Y-12336478D01*
X-733573Y-12342788D01*
X-643639Y-12491287D01*
X-639403Y-12496787D01*
X-518798Y-12621676D01*
X-513453Y-12626099D01*
X-368171Y-12721168D01*
X-361983Y-12724294D01*
X-199250Y-12784814D01*
X-192520Y-12786493D01*
X-75824Y-12802063D01*
X-66627Y-12799615D01*
X-63500Y-12794221D01*
X-63500Y-12790162D01*
X63500Y-12790162D01*
X67141Y-12798952D01*
X73692Y-12801665D01*
X159416Y-12793864D01*
X166212Y-12792469D01*
X331329Y-12738819D01*
X337655Y-12735949D01*
X486780Y-12647054D01*
X492313Y-12642853D01*
X618039Y-12523127D01*
X622500Y-12517810D01*
X718578Y-12373201D01*
X721751Y-12367027D01*
X783402Y-12204728D01*
X785129Y-12198001D01*
X802302Y-12075810D01*
X799920Y-12066598D01*
X794660Y-12063500D01*
X75931Y-12063500D01*
X67141Y-12067141D01*
X63500Y-12075931D01*
X63500Y-12790162D01*
X-63500Y-12790162D01*
X-63500Y-12075931D01*
X-67141Y-12067141D01*
X-75931Y-12063500D01*
X-790249Y-12063500D01*
X-799039Y-12067141D01*
X-801694Y-12073552D01*
X-2049500Y-12073552D01*
X-2049500Y-12000000D01*
X1119678Y-12000000D01*
X1138915Y-12183029D01*
X1195786Y-12358059D01*
X1197421Y-12360891D01*
X1197422Y-12360893D01*
X1204528Y-12373201D01*
X1287805Y-12517440D01*
X1410950Y-12654207D01*
X1559839Y-12762381D01*
X1727966Y-12837236D01*
X1731173Y-12837918D01*
X1731174Y-12837918D01*
X1904772Y-12874818D01*
X1907981Y-12875500D01*
X2092019Y-12875500D01*
X2095228Y-12874818D01*
X2268826Y-12837918D01*
X2268827Y-12837918D01*
X2272034Y-12837236D01*
X2440161Y-12762381D01*
X2589050Y-12654207D01*
X2712195Y-12517440D01*
X2795472Y-12373201D01*
X2802578Y-12360893D01*
X2802579Y-12360891D01*
X2804214Y-12358059D01*
X2861085Y-12183029D01*
X2880322Y-12000000D01*
X2861085Y-11816971D01*
X2804214Y-11641941D01*
X2712195Y-11482560D01*
X2589050Y-11345793D01*
X2440161Y-11237619D01*
X2272034Y-11162764D01*
X2268827Y-11162082D01*
X2268826Y-11162082D01*
X2095228Y-11125182D01*
X2095227Y-11125182D01*
X2092019Y-11124500D01*
X1907981Y-11124500D01*
X1904773Y-11125182D01*
X1904772Y-11125182D01*
X1731174Y-11162082D01*
X1731173Y-11162082D01*
X1727966Y-11162764D01*
X1559839Y-11237619D01*
X1410950Y-11345793D01*
X1287805Y-11482560D01*
X1195786Y-11641941D01*
X1138915Y-11816971D01*
X1119678Y-12000000D01*
X-2049500Y-12000000D01*
X-2049500Y-11924166D01*
X-801864Y-11924166D01*
X-799353Y-11933344D01*
X-793820Y-11936500D01*
X-75931Y-11936500D01*
X-67141Y-11932859D01*
X-63500Y-11924069D01*
X63500Y-11924069D01*
X67141Y-11932859D01*
X75931Y-11936500D01*
X790540Y-11936500D01*
X799330Y-11932859D01*
X801874Y-11926718D01*
X790352Y-11823998D01*
X788813Y-11817221D01*
X731720Y-11653276D01*
X728715Y-11647003D01*
X636718Y-11499777D01*
X632401Y-11494331D01*
X510071Y-11371143D01*
X504654Y-11366788D01*
X358076Y-11273767D01*
X351831Y-11270720D01*
X188279Y-11212483D01*
X181511Y-11210896D01*
X75844Y-11198296D01*
X66685Y-11200870D01*
X63500Y-11206546D01*
X63500Y-11924069D01*
X-63500Y-11924069D01*
X-63500Y-11209626D01*
X-67141Y-11200836D01*
X-73415Y-11198237D01*
X-170487Y-11208439D01*
X-177258Y-11209928D01*
X-341615Y-11265880D01*
X-347897Y-11268836D01*
X-495766Y-11359805D01*
X-501244Y-11364085D01*
X-625279Y-11485550D01*
X-629672Y-11490936D01*
X-723719Y-11636868D01*
X-726805Y-11643085D01*
X-786185Y-11806229D01*
X-787818Y-11812982D01*
X-801864Y-11924166D01*
X-2049500Y-11924166D01*
X-2049500Y-10000000D01*
X-880322Y-10000000D01*
X-861085Y-10183029D01*
X-804214Y-10358059D01*
X-712195Y-10517440D01*
X-589050Y-10654207D01*
X-440161Y-10762381D01*
X-272034Y-10837236D01*
X-268827Y-10837918D01*
X-268826Y-10837918D01*
X-95228Y-10874818D01*
X-92019Y-10875500D01*
X92019Y-10875500D01*
X95228Y-10874818D01*
X268826Y-10837918D01*
X268827Y-10837918D01*
X272034Y-10837236D01*
X440161Y-10762381D01*
X589050Y-10654207D01*
X712195Y-10517440D01*
X804214Y-10358059D01*
X861085Y-10183029D01*
X880322Y-10000000D01*
X1119678Y-10000000D01*
X1138915Y-10183029D01*
X1195786Y-10358059D01*
X1287805Y-10517440D01*
X1410950Y-10654207D01*
X1559839Y-10762381D01*
X1727966Y-10837236D01*
X1731173Y-10837918D01*
X1731174Y-10837918D01*
X1904772Y-10874818D01*
X1907981Y-10875500D01*
X2092019Y-10875500D01*
X2095228Y-10874818D01*
X2268826Y-10837918D01*
X2268827Y-10837918D01*
X2272034Y-10837236D01*
X2440161Y-10762381D01*
X2589050Y-10654207D01*
X2712195Y-10517440D01*
X2804214Y-10358059D01*
X2861085Y-10183029D01*
X2880322Y-10000000D01*
X2861085Y-9816971D01*
X2804214Y-9641941D01*
X2712195Y-9482560D01*
X2589050Y-9345793D01*
X2440161Y-9237619D01*
X2272034Y-9162764D01*
X2268827Y-9162082D01*
X2268826Y-9162082D01*
X2095228Y-9125182D01*
X2095227Y-9125182D01*
X2092019Y-9124500D01*
X1907981Y-9124500D01*
X1904773Y-9125182D01*
X1904772Y-9125182D01*
X1731174Y-9162082D01*
X1731173Y-9162082D01*
X1727966Y-9162764D01*
X1559839Y-9237619D01*
X1410950Y-9345793D01*
X1287805Y-9482560D01*
X1195786Y-9641941D01*
X1138915Y-9816971D01*
X1119678Y-10000000D01*
X880322Y-10000000D01*
X861085Y-9816971D01*
X804214Y-9641941D01*
X712195Y-9482560D01*
X589050Y-9345793D01*
X440161Y-9237619D01*
X272034Y-9162764D01*
X268827Y-9162082D01*
X268826Y-9162082D01*
X95228Y-9125182D01*
X95227Y-9125182D01*
X92019Y-9124500D01*
X-92019Y-9124500D01*
X-95227Y-9125182D01*
X-95228Y-9125182D01*
X-268826Y-9162082D01*
X-268827Y-9162082D01*
X-272034Y-9162764D01*
X-440161Y-9237619D01*
X-589050Y-9345793D01*
X-712195Y-9482560D01*
X-804214Y-9641941D01*
X-861085Y-9816971D01*
X-880322Y-10000000D01*
X-2049500Y-10000000D01*
X-2049500Y-8000000D01*
X-880322Y-8000000D01*
X-861085Y-8183029D01*
X-804214Y-8358059D01*
X-712195Y-8517440D01*
X-589050Y-8654207D01*
X-440161Y-8762381D01*
X-272034Y-8837236D01*
X-268827Y-8837918D01*
X-268826Y-8837918D01*
X-95228Y-8874818D01*
X-92019Y-8875500D01*
X92019Y-8875500D01*
X95228Y-8874818D01*
X268826Y-8837918D01*
X268827Y-8837918D01*
X272034Y-8837236D01*
X440161Y-8762381D01*
X589050Y-8654207D01*
X712195Y-8517440D01*
X804214Y-8358059D01*
X861085Y-8183029D01*
X880322Y-8000000D01*
X1119678Y-8000000D01*
X1138915Y-8183029D01*
X1195786Y-8358059D01*
X1287805Y-8517440D01*
X1410950Y-8654207D01*
X1559839Y-8762381D01*
X1727966Y-8837236D01*
X1731173Y-8837918D01*
X1731174Y-8837918D01*
X1904772Y-8874818D01*
X1907981Y-8875500D01*
X2092019Y-8875500D01*
X2095228Y-8874818D01*
X2268826Y-8837918D01*
X2268827Y-8837918D01*
X2272034Y-8837236D01*
X2440161Y-8762381D01*
X2589050Y-8654207D01*
X2712195Y-8517440D01*
X2804214Y-8358059D01*
X2861085Y-8183029D01*
X2880322Y-8000000D01*
X2861085Y-7816971D01*
X2852235Y-7789732D01*
X2805225Y-7645054D01*
X2804214Y-7641941D01*
X2789921Y-7617184D01*
X2713831Y-7485394D01*
X2712195Y-7482560D01*
X2589050Y-7345793D01*
X2440161Y-7237619D01*
X2272034Y-7162764D01*
X2268827Y-7162082D01*
X2268826Y-7162082D01*
X2095228Y-7125182D01*
X2095227Y-7125182D01*
X2092019Y-7124500D01*
X1907981Y-7124500D01*
X1904773Y-7125182D01*
X1904772Y-7125182D01*
X1731174Y-7162082D01*
X1731173Y-7162082D01*
X1727966Y-7162764D01*
X1559839Y-7237619D01*
X1410950Y-7345793D01*
X1287805Y-7482560D01*
X1286169Y-7485394D01*
X1210080Y-7617184D01*
X1195786Y-7641941D01*
X1194775Y-7645054D01*
X1147766Y-7789732D01*
X1138915Y-7816971D01*
X1119678Y-8000000D01*
X880322Y-8000000D01*
X861085Y-7816971D01*
X852235Y-7789732D01*
X805225Y-7645054D01*
X804214Y-7641941D01*
X789921Y-7617184D01*
X713831Y-7485394D01*
X712195Y-7482560D01*
X589050Y-7345793D01*
X440161Y-7237619D01*
X272034Y-7162764D01*
X268827Y-7162082D01*
X268826Y-7162082D01*
X95228Y-7125182D01*
X95227Y-7125182D01*
X92019Y-7124500D01*
X-92019Y-7124500D01*
X-95227Y-7125182D01*
X-95228Y-7125182D01*
X-268826Y-7162082D01*
X-268827Y-7162082D01*
X-272034Y-7162764D01*
X-440161Y-7237619D01*
X-589050Y-7345793D01*
X-712195Y-7482560D01*
X-713831Y-7485394D01*
X-789920Y-7617184D01*
X-804214Y-7641941D01*
X-805225Y-7645054D01*
X-852234Y-7789732D01*
X-861085Y-7816971D01*
X-880322Y-8000000D01*
X-2049500Y-8000000D01*
X-2049500Y-6000000D01*
X-880322Y-6000000D01*
X-861085Y-6183029D01*
X-804214Y-6358059D01*
X-712195Y-6517440D01*
X-589050Y-6654207D01*
X-440161Y-6762381D01*
X-272034Y-6837236D01*
X-268827Y-6837918D01*
X-268826Y-6837918D01*
X-197547Y-6853069D01*
X-92019Y-6875500D01*
X92019Y-6875500D01*
X197547Y-6853069D01*
X268826Y-6837918D01*
X268827Y-6837918D01*
X272034Y-6837236D01*
X440161Y-6762381D01*
X589050Y-6654207D01*
X712195Y-6517440D01*
X804214Y-6358059D01*
X861085Y-6183029D01*
X880322Y-6000000D01*
X1119678Y-6000000D01*
X1138915Y-6183029D01*
X1195786Y-6358059D01*
X1287805Y-6517440D01*
X1410950Y-6654207D01*
X1559839Y-6762381D01*
X1727966Y-6837236D01*
X1731173Y-6837918D01*
X1731174Y-6837918D01*
X1802453Y-6853069D01*
X1907981Y-6875500D01*
X2092019Y-6875500D01*
X2197547Y-6853069D01*
X2268826Y-6837918D01*
X2268827Y-6837918D01*
X2272034Y-6837236D01*
X2440161Y-6762381D01*
X2589050Y-6654207D01*
X2712195Y-6517440D01*
X2804214Y-6358059D01*
X2861085Y-6183029D01*
X2880322Y-6000000D01*
X2861085Y-5816971D01*
X2804214Y-5641941D01*
X2712195Y-5482560D01*
X2589050Y-5345793D01*
X2440161Y-5237619D01*
X2272034Y-5162764D01*
X2268827Y-5162082D01*
X2268826Y-5162082D01*
X2095228Y-5125182D01*
X2095227Y-5125182D01*
X2092019Y-5124500D01*
X1907981Y-5124500D01*
X1904773Y-5125182D01*
X1904772Y-5125182D01*
X1731174Y-5162082D01*
X1731173Y-5162082D01*
X1727966Y-5162764D01*
X1559839Y-5237619D01*
X1410950Y-5345793D01*
X1287805Y-5482560D01*
X1195786Y-5641941D01*
X1138915Y-5816971D01*
X1119678Y-6000000D01*
X880322Y-6000000D01*
X861085Y-5816971D01*
X804214Y-5641941D01*
X712195Y-5482560D01*
X589050Y-5345793D01*
X440161Y-5237619D01*
X272034Y-5162764D01*
X268827Y-5162082D01*
X268826Y-5162082D01*
X95228Y-5125182D01*
X95227Y-5125182D01*
X92019Y-5124500D01*
X-92019Y-5124500D01*
X-95227Y-5125182D01*
X-95228Y-5125182D01*
X-268826Y-5162082D01*
X-268827Y-5162082D01*
X-272034Y-5162764D01*
X-440161Y-5237619D01*
X-589050Y-5345793D01*
X-712195Y-5482560D01*
X-804214Y-5641941D01*
X-861085Y-5816971D01*
X-880322Y-6000000D01*
X-2049500Y-6000000D01*
X-2049500Y-4000000D01*
X-880322Y-4000000D01*
X-861085Y-4183029D01*
X-804214Y-4358059D01*
X-712195Y-4517440D01*
X-589050Y-4654207D01*
X-440161Y-4762381D01*
X-272034Y-4837236D01*
X-268827Y-4837918D01*
X-268826Y-4837918D01*
X-95228Y-4874818D01*
X-92019Y-4875500D01*
X92019Y-4875500D01*
X95228Y-4874818D01*
X268826Y-4837918D01*
X268827Y-4837918D01*
X272034Y-4837236D01*
X440161Y-4762381D01*
X589050Y-4654207D01*
X712195Y-4517440D01*
X804214Y-4358059D01*
X861085Y-4183029D01*
X880322Y-4000000D01*
X1119678Y-4000000D01*
X1138915Y-4183029D01*
X1195786Y-4358059D01*
X1287805Y-4517440D01*
X1410950Y-4654207D01*
X1559839Y-4762381D01*
X1727966Y-4837236D01*
X1731173Y-4837918D01*
X1731174Y-4837918D01*
X1904772Y-4874818D01*
X1907981Y-4875500D01*
X2092019Y-4875500D01*
X2095228Y-4874818D01*
X2268826Y-4837918D01*
X2268827Y-4837918D01*
X2272034Y-4837236D01*
X2440161Y-4762381D01*
X2589050Y-4654207D01*
X2712195Y-4517440D01*
X2804214Y-4358059D01*
X2861085Y-4183029D01*
X2880322Y-4000000D01*
X2861085Y-3816971D01*
X2804214Y-3641941D01*
X2712195Y-3482560D01*
X2589050Y-3345793D01*
X2440161Y-3237619D01*
X2272034Y-3162764D01*
X2268827Y-3162082D01*
X2268826Y-3162082D01*
X2095228Y-3125182D01*
X2095227Y-3125182D01*
X2092019Y-3124500D01*
X1907981Y-3124500D01*
X1904773Y-3125182D01*
X1904772Y-3125182D01*
X1731174Y-3162082D01*
X1731173Y-3162082D01*
X1727966Y-3162764D01*
X1559839Y-3237619D01*
X1410950Y-3345793D01*
X1287805Y-3482560D01*
X1195786Y-3641941D01*
X1138915Y-3816971D01*
X1119678Y-4000000D01*
X880322Y-4000000D01*
X861085Y-3816971D01*
X804214Y-3641941D01*
X712195Y-3482560D01*
X589050Y-3345793D01*
X440161Y-3237619D01*
X272034Y-3162764D01*
X268827Y-3162082D01*
X268826Y-3162082D01*
X95228Y-3125182D01*
X95227Y-3125182D01*
X92019Y-3124500D01*
X-92019Y-3124500D01*
X-95227Y-3125182D01*
X-95228Y-3125182D01*
X-268826Y-3162082D01*
X-268827Y-3162082D01*
X-272034Y-3162764D01*
X-440161Y-3237619D01*
X-589050Y-3345793D01*
X-712195Y-3482560D01*
X-804214Y-3641941D01*
X-861085Y-3816971D01*
X-880322Y-4000000D01*
X-2049500Y-4000000D01*
X-2049500Y-2000000D01*
X-880322Y-2000000D01*
X-861085Y-2183029D01*
X-804214Y-2358059D01*
X-712195Y-2517440D01*
X-589050Y-2654207D01*
X-440161Y-2762381D01*
X-272034Y-2837236D01*
X-268827Y-2837918D01*
X-268826Y-2837918D01*
X-95228Y-2874818D01*
X-92019Y-2875500D01*
X92019Y-2875500D01*
X95228Y-2874818D01*
X268826Y-2837918D01*
X268827Y-2837918D01*
X272034Y-2837236D01*
X440161Y-2762381D01*
X589050Y-2654207D01*
X712195Y-2517440D01*
X804214Y-2358059D01*
X861085Y-2183029D01*
X880322Y-2000000D01*
X1119678Y-2000000D01*
X1138915Y-2183029D01*
X1195786Y-2358059D01*
X1287805Y-2517440D01*
X1410950Y-2654207D01*
X1559839Y-2762381D01*
X1727966Y-2837236D01*
X1731173Y-2837918D01*
X1731174Y-2837918D01*
X1904772Y-2874818D01*
X1907981Y-2875500D01*
X2092019Y-2875500D01*
X2095228Y-2874818D01*
X2268826Y-2837918D01*
X2268827Y-2837918D01*
X2272034Y-2837236D01*
X2440161Y-2762381D01*
X2589050Y-2654207D01*
X2712195Y-2517440D01*
X2804214Y-2358059D01*
X2861085Y-2183029D01*
X2880322Y-2000000D01*
X2861085Y-1816971D01*
X2804214Y-1641941D01*
X2712195Y-1482560D01*
X2589050Y-1345793D01*
X2440161Y-1237619D01*
X2272034Y-1162764D01*
X2268827Y-1162082D01*
X2268826Y-1162082D01*
X2095228Y-1125182D01*
X2095227Y-1125182D01*
X2092019Y-1124500D01*
X1907981Y-1124500D01*
X1904773Y-1125182D01*
X1904772Y-1125182D01*
X1731174Y-1162082D01*
X1731173Y-1162082D01*
X1727966Y-1162764D01*
X1559839Y-1237619D01*
X1410950Y-1345793D01*
X1287805Y-1482560D01*
X1195786Y-1641941D01*
X1138915Y-1816971D01*
X1119678Y-2000000D01*
X880322Y-2000000D01*
X861085Y-1816971D01*
X804214Y-1641941D01*
X712195Y-1482560D01*
X589050Y-1345793D01*
X440161Y-1237619D01*
X272034Y-1162764D01*
X268827Y-1162082D01*
X268826Y-1162082D01*
X95228Y-1125182D01*
X95227Y-1125182D01*
X92019Y-1124500D01*
X-92019Y-1124500D01*
X-95227Y-1125182D01*
X-95228Y-1125182D01*
X-268826Y-1162082D01*
X-268827Y-1162082D01*
X-272034Y-1162764D01*
X-440161Y-1237619D01*
X-589050Y-1345793D01*
X-712195Y-1482560D01*
X-804214Y-1641941D01*
X-861085Y-1816971D01*
X-880322Y-2000000D01*
X-2049500Y-2000000D01*
X-2049500Y-1017996D01*
X4576913Y-1017996D01*
X4580611Y-1026870D01*
X4621659Y-1067560D01*
X4625173Y-1070561D01*
X4828801Y-1219868D01*
X4832718Y-1222315D01*
X5056176Y-1339883D01*
X5060422Y-1341728D01*
X5298800Y-1424973D01*
X5303267Y-1426170D01*
X5551331Y-1473266D01*
X5555924Y-1473790D01*
X5808231Y-1483703D01*
X5812845Y-1483542D01*
X6063842Y-1456054D01*
X6068402Y-1455208D01*
X6312568Y-1390925D01*
X6316946Y-1389417D01*
X6548921Y-1289753D01*
X6553047Y-1287606D01*
X6767744Y-1154747D01*
X6771492Y-1152024D01*
X6919447Y-1026771D01*
X6923804Y-1018311D01*
X6921589Y-1011391D01*
X5758790Y151407D01*
X5750000Y155048D01*
X5741210Y151407D01*
X4580523Y-1009279D01*
X4576913Y-1017996D01*
X-2049500Y-1017996D01*
X-2049500Y0D01*
X-880322Y0D01*
X-861085Y-183029D01*
X-804214Y-358059D01*
X-712195Y-517440D01*
X-589050Y-654207D01*
X-440161Y-762381D01*
X-272034Y-837236D01*
X-268827Y-837918D01*
X-268826Y-837918D01*
X-141097Y-865068D01*
X-92019Y-875500D01*
X92019Y-875500D01*
X141097Y-865068D01*
X268826Y-837918D01*
X268827Y-837918D01*
X272034Y-837236D01*
X440161Y-762381D01*
X533250Y-694748D01*
X1124500Y-694748D01*
X1136133Y-753231D01*
X1139550Y-758345D01*
X1139551Y-758347D01*
X1162113Y-792112D01*
X1180448Y-819552D01*
X1185562Y-822969D01*
X1241653Y-860449D01*
X1241655Y-860450D01*
X1246769Y-863867D01*
X1252803Y-865067D01*
X1252805Y-865068D01*
X1302239Y-874901D01*
X1302242Y-874901D01*
X1305252Y-875500D01*
X2694748Y-875500D01*
X2697758Y-874901D01*
X2697761Y-874901D01*
X2747195Y-865068D01*
X2747197Y-865067D01*
X2753231Y-863867D01*
X2758345Y-860450D01*
X2758347Y-860449D01*
X2814438Y-822969D01*
X2819552Y-819552D01*
X2837887Y-792112D01*
X2860449Y-758347D01*
X2860450Y-758345D01*
X2863867Y-753231D01*
X2875500Y-694748D01*
X2875500Y293093D01*
X4015854Y293093D01*
X4027969Y40892D01*
X4028533Y36300D01*
X4077793Y-211348D01*
X4079028Y-215800D01*
X4164350Y-453440D01*
X4166233Y-457671D01*
X4285745Y-680093D01*
X4288231Y-683995D01*
X4439299Y-886300D01*
X4442340Y-889800D01*
X4472710Y-919906D01*
X4481590Y-923539D01*
X4490280Y-919917D01*
X5651407Y241210D01*
X5655048Y250000D01*
X5651407Y258790D01*
X4489510Y1420688D01*
X4480720Y1424329D01*
X4474187Y1421622D01*
X4339110Y1259211D01*
X4336429Y1255453D01*
X4205439Y1039588D01*
X4203340Y1035470D01*
X4105693Y802607D01*
X4104231Y798236D01*
X4042075Y553497D01*
X4041273Y548954D01*
X4015975Y297720D01*
X4015854Y293093D01*
X2875500Y293093D01*
X2875500Y694748D01*
X2874901Y697761D01*
X2865068Y747195D01*
X2865067Y747197D01*
X2863867Y753231D01*
X2859038Y760459D01*
X2822969Y814438D01*
X2819552Y819552D01*
X2802680Y830826D01*
X2758347Y860449D01*
X2758345Y860450D01*
X2753231Y863867D01*
X2747197Y865067D01*
X2747195Y865068D01*
X2697761Y874901D01*
X2697758Y874901D01*
X2694748Y875500D01*
X1305252Y875500D01*
X1302242Y874901D01*
X1302239Y874901D01*
X1252805Y865068D01*
X1252803Y865067D01*
X1246769Y863867D01*
X1241655Y860450D01*
X1241653Y860449D01*
X1197320Y830826D01*
X1180448Y819552D01*
X1177031Y814438D01*
X1140963Y760459D01*
X1136133Y753231D01*
X1134933Y747197D01*
X1134932Y747195D01*
X1125099Y697761D01*
X1124500Y694748D01*
X1124500Y-694748D01*
X533250Y-694748D01*
X589050Y-654207D01*
X712195Y-517440D01*
X804214Y-358059D01*
X861085Y-183029D01*
X880322Y0D01*
X861085Y183029D01*
X804214Y358059D01*
X712195Y517440D01*
X589050Y654207D01*
X440161Y762381D01*
X272034Y837236D01*
X268827Y837918D01*
X268826Y837918D01*
X95228Y874818D01*
X95227Y874818D01*
X92019Y875500D01*
X-92019Y875500D01*
X-95227Y874818D01*
X-95228Y874818D01*
X-268826Y837918D01*
X-268827Y837918D01*
X-272034Y837236D01*
X-440161Y762381D01*
X-589050Y654207D01*
X-712195Y517440D01*
X-804214Y358059D01*
X-861085Y183029D01*
X-880322Y0D01*
X-2049500Y0D01*
X-2049500Y1220123D01*
X-2047910Y1234131D01*
X-2045922Y1242777D01*
X-2044344Y1249637D01*
X-2045897Y1256502D01*
X-2045894Y1258397D01*
X-2046970Y1275682D01*
X-2034738Y1399848D01*
X-2032349Y1411860D01*
X-2029387Y1421622D01*
X-1990425Y1550060D01*
X-1985736Y1561380D01*
X-1917655Y1688748D01*
X-1910853Y1698928D01*
X-1819231Y1810570D01*
X-1810569Y1819232D01*
X-1698928Y1910853D01*
X-1688748Y1917655D01*
X-1671270Y1926997D01*
X-1561381Y1985736D01*
X-1550060Y1990425D01*
X-1534506Y1995143D01*
X-1411856Y2032350D01*
X-1399848Y2034738D01*
X-1302338Y2044344D01*
X-1276116Y2046927D01*
X-1260494Y2045928D01*
X-1257219Y2045922D01*
X-1250355Y2044344D01*
X-1234384Y2047958D01*
X-1220591Y2049500D01*
X5303393Y2049500D01*
X5347587Y2031194D01*
G37*
G04 #@! TD.AperFunction*
M02*
