%TF.GenerationSoftware,KiCad,Pcbnew,(6.0.7)*%
%TF.CreationDate,2022-10-21T23:47:18+08:00*%
%TF.ProjectId,pcb_front,7063625f-6672-46f6-9e74-2e6b69636164,rev?*%
%TF.SameCoordinates,Original*%
%TF.FileFunction,Drillmap*%
%TF.FilePolarity,Positive*%
%FSLAX45Y45*%
G04 Gerber Fmt 4.5, Leading zero omitted, Abs format (unit mm)*
G04 Created by KiCad (PCBNEW (6.0.7)) date 2022-10-21 23:47:18*
%MOMM*%
%LPD*%
G01*
G04 APERTURE LIST*
%ADD10C,0.200000*%
%ADD11C,0.080000*%
%ADD12C,0.160000*%
%ADD13C,0.220000*%
G04 APERTURE END LIST*
D10*
X975000Y-643750D02*
X825000Y-643750D01*
X2350000Y-2043750D02*
X825000Y-2043750D01*
X2550000Y-3261406D02*
G75*
G03*
X2750000Y-3061406I0J200000D01*
G01*
X-225000Y-2525000D02*
G75*
G03*
X-125000Y-2625000I99996J-4D01*
G01*
X-225000Y125000D02*
X-225000Y-2525000D01*
X375000Y-2725000D02*
G75*
G03*
X275000Y-2625000I-100004J-4D01*
G01*
X375000Y-2725000D02*
X375000Y-3061406D01*
X2750000Y-1818750D02*
G75*
G03*
X2400000Y-1818750I-175000J0D01*
G01*
X825000Y-993750D02*
X975000Y-993750D01*
X2400000Y-1818750D02*
X2400000Y-1993750D01*
X975000Y-993750D02*
G75*
G03*
X975000Y-643750I0J175000D01*
G01*
X775000Y-1993750D02*
G75*
G03*
X825000Y-2043750I50000J0D01*
G01*
X2750000Y-3061406D02*
X2750000Y-1818750D01*
X775000Y25000D02*
G75*
G03*
X575000Y225000I-200000J0D01*
G01*
X775000Y-593750D02*
G75*
G03*
X825000Y-643750I50000J0D01*
G01*
X825000Y-993750D02*
G75*
G03*
X775000Y-1043750I0J-50000D01*
G01*
X-125000Y-2625000D02*
X275000Y-2625000D01*
X575000Y225000D02*
X-125000Y225000D01*
X2350000Y-2043750D02*
G75*
G03*
X2400000Y-1993750I0J50000D01*
G01*
X575000Y-3261406D02*
X2550000Y-3261406D01*
X-125000Y225000D02*
G75*
G03*
X-225000Y125000I2J-100002D01*
G01*
X775000Y-1993750D02*
X775000Y-1043750D01*
X775000Y-593750D02*
X775000Y25000D01*
X375000Y-3061406D02*
G75*
G03*
X575000Y-3261406I200000J0D01*
G01*
D11*
X-40000Y40000D02*
X40000Y-40000D01*
X40000Y40000D02*
X-40000Y-40000D01*
X-40000Y-160000D02*
X40000Y-240000D01*
X40000Y-160000D02*
X-40000Y-240000D01*
X-40000Y-360000D02*
X40000Y-440000D01*
X40000Y-360000D02*
X-40000Y-440000D01*
X-40000Y-560000D02*
X40000Y-640000D01*
X40000Y-560000D02*
X-40000Y-640000D01*
X-40000Y-760000D02*
X40000Y-840000D01*
X40000Y-760000D02*
X-40000Y-840000D01*
X-40000Y-960000D02*
X40000Y-1040000D01*
X40000Y-960000D02*
X-40000Y-1040000D01*
X-40000Y-1160000D02*
X40000Y-1240000D01*
X40000Y-1160000D02*
X-40000Y-1240000D01*
X-40000Y-1360000D02*
X40000Y-1440000D01*
X40000Y-1360000D02*
X-40000Y-1440000D01*
X-40000Y-1560000D02*
X40000Y-1640000D01*
X40000Y-1560000D02*
X-40000Y-1640000D01*
X-40000Y-1760000D02*
X40000Y-1840000D01*
X40000Y-1760000D02*
X-40000Y-1840000D01*
X-40000Y-1960000D02*
X40000Y-2040000D01*
X40000Y-1960000D02*
X-40000Y-2040000D01*
X-40000Y-2160000D02*
X40000Y-2240000D01*
X40000Y-2160000D02*
X-40000Y-2240000D01*
X-40000Y-2360000D02*
X40000Y-2440000D01*
X40000Y-2360000D02*
X-40000Y-2440000D01*
X160000Y40000D02*
X240000Y-40000D01*
X240000Y40000D02*
X160000Y-40000D01*
X160000Y-160000D02*
X240000Y-240000D01*
X240000Y-160000D02*
X160000Y-240000D01*
X160000Y-360000D02*
X240000Y-440000D01*
X240000Y-360000D02*
X160000Y-440000D01*
X160000Y-560000D02*
X240000Y-640000D01*
X240000Y-560000D02*
X160000Y-640000D01*
X160000Y-760000D02*
X240000Y-840000D01*
X240000Y-760000D02*
X160000Y-840000D01*
X160000Y-960000D02*
X240000Y-1040000D01*
X240000Y-960000D02*
X160000Y-1040000D01*
X160000Y-1160000D02*
X240000Y-1240000D01*
X240000Y-1160000D02*
X160000Y-1240000D01*
X160000Y-1360000D02*
X240000Y-1440000D01*
X240000Y-1360000D02*
X160000Y-1440000D01*
X160000Y-1560000D02*
X240000Y-1640000D01*
X240000Y-1560000D02*
X160000Y-1640000D01*
X160000Y-1760000D02*
X240000Y-1840000D01*
X240000Y-1760000D02*
X160000Y-1840000D01*
X160000Y-1960000D02*
X240000Y-2040000D01*
X240000Y-1960000D02*
X160000Y-2040000D01*
X160000Y-2160000D02*
X240000Y-2240000D01*
X240000Y-2160000D02*
X160000Y-2240000D01*
X160000Y-2360000D02*
X240000Y-2440000D01*
X240000Y-2360000D02*
X160000Y-2440000D01*
D12*
X1055000Y-818750D02*
G75*
G03*
X1055000Y-818750I-80000J0D01*
G01*
X2655000Y-1818750D02*
G75*
G03*
X2655000Y-1818750I-80000J0D01*
G01*
D13*
X575000Y135000D02*
X575000Y-85000D01*
X465000Y25000D02*
X685000Y25000D01*
X575000Y-2951410D02*
X575000Y-3171410D01*
X465000Y-3061410D02*
X685000Y-3061410D01*
X2550000Y-2951410D02*
X2550000Y-3171410D01*
X2440000Y-3061410D02*
X2660000Y-3061410D01*
D10*
X22619Y-3581882D02*
X22619Y-3381882D01*
X70238Y-3381882D01*
X98809Y-3391406D01*
X117857Y-3410454D01*
X127381Y-3429501D01*
X136905Y-3467597D01*
X136905Y-3496168D01*
X127381Y-3534263D01*
X117857Y-3553311D01*
X98809Y-3572359D01*
X70238Y-3581882D01*
X22619Y-3581882D01*
X222619Y-3581882D02*
X222619Y-3448549D01*
X222619Y-3486644D02*
X232143Y-3467597D01*
X241667Y-3458073D01*
X260714Y-3448549D01*
X279762Y-3448549D01*
X346429Y-3581882D02*
X346429Y-3448549D01*
X346429Y-3381882D02*
X336905Y-3391406D01*
X346429Y-3400930D01*
X355952Y-3391406D01*
X346429Y-3381882D01*
X346429Y-3400930D01*
X470238Y-3581882D02*
X451190Y-3572359D01*
X441667Y-3553311D01*
X441667Y-3381882D01*
X575000Y-3581882D02*
X555952Y-3572359D01*
X546429Y-3553311D01*
X546429Y-3381882D01*
X803571Y-3581882D02*
X803571Y-3381882D01*
X870238Y-3524740D01*
X936905Y-3381882D01*
X936905Y-3581882D01*
X1117857Y-3581882D02*
X1117857Y-3477120D01*
X1108333Y-3458073D01*
X1089286Y-3448549D01*
X1051190Y-3448549D01*
X1032143Y-3458073D01*
X1117857Y-3572359D02*
X1098810Y-3581882D01*
X1051190Y-3581882D01*
X1032143Y-3572359D01*
X1022619Y-3553311D01*
X1022619Y-3534263D01*
X1032143Y-3515216D01*
X1051190Y-3505692D01*
X1098810Y-3505692D01*
X1117857Y-3496168D01*
X1213095Y-3448549D02*
X1213095Y-3648549D01*
X1213095Y-3458073D02*
X1232143Y-3448549D01*
X1270238Y-3448549D01*
X1289286Y-3458073D01*
X1298810Y-3467597D01*
X1308333Y-3486644D01*
X1308333Y-3543787D01*
X1298810Y-3562835D01*
X1289286Y-3572359D01*
X1270238Y-3581882D01*
X1232143Y-3581882D01*
X1213095Y-3572359D01*
X1394048Y-3562835D02*
X1403571Y-3572359D01*
X1394048Y-3581882D01*
X1384524Y-3572359D01*
X1394048Y-3562835D01*
X1394048Y-3581882D01*
X1394048Y-3458073D02*
X1403571Y-3467597D01*
X1394048Y-3477120D01*
X1384524Y-3467597D01*
X1394048Y-3458073D01*
X1394048Y-3477120D01*
D11*
X-315000Y-3871406D02*
X-235000Y-3951406D01*
X-235000Y-3871406D02*
X-315000Y-3951406D01*
D10*
X60714Y-3801882D02*
X79762Y-3801882D01*
X98809Y-3811406D01*
X108333Y-3820930D01*
X117857Y-3839978D01*
X127381Y-3878073D01*
X127381Y-3925692D01*
X117857Y-3963787D01*
X108333Y-3982835D01*
X98809Y-3992359D01*
X79762Y-4001882D01*
X60714Y-4001882D01*
X41667Y-3992359D01*
X32143Y-3982835D01*
X22619Y-3963787D01*
X13095Y-3925692D01*
X13095Y-3878073D01*
X22619Y-3839978D01*
X32143Y-3820930D01*
X41667Y-3811406D01*
X60714Y-3801882D01*
X213095Y-3982835D02*
X222619Y-3992359D01*
X213095Y-4001882D01*
X203571Y-3992359D01*
X213095Y-3982835D01*
X213095Y-4001882D01*
X336905Y-3887597D02*
X317857Y-3878073D01*
X308333Y-3868549D01*
X298810Y-3849501D01*
X298810Y-3839978D01*
X308333Y-3820930D01*
X317857Y-3811406D01*
X336905Y-3801882D01*
X375000Y-3801882D01*
X394048Y-3811406D01*
X403571Y-3820930D01*
X413095Y-3839978D01*
X413095Y-3849501D01*
X403571Y-3868549D01*
X394048Y-3878073D01*
X375000Y-3887597D01*
X336905Y-3887597D01*
X317857Y-3897120D01*
X308333Y-3906644D01*
X298810Y-3925692D01*
X298810Y-3963787D01*
X308333Y-3982835D01*
X317857Y-3992359D01*
X336905Y-4001882D01*
X375000Y-4001882D01*
X394048Y-3992359D01*
X403571Y-3982835D01*
X413095Y-3963787D01*
X413095Y-3925692D01*
X403571Y-3906644D01*
X394048Y-3897120D01*
X375000Y-3887597D01*
X536905Y-3801882D02*
X555952Y-3801882D01*
X575000Y-3811406D01*
X584524Y-3820930D01*
X594048Y-3839978D01*
X603571Y-3878073D01*
X603571Y-3925692D01*
X594048Y-3963787D01*
X584524Y-3982835D01*
X575000Y-3992359D01*
X555952Y-4001882D01*
X536905Y-4001882D01*
X517857Y-3992359D01*
X508333Y-3982835D01*
X498809Y-3963787D01*
X489286Y-3925692D01*
X489286Y-3878073D01*
X498809Y-3839978D01*
X508333Y-3820930D01*
X517857Y-3811406D01*
X536905Y-3801882D01*
X727381Y-3801882D02*
X746428Y-3801882D01*
X765476Y-3811406D01*
X775000Y-3820930D01*
X784524Y-3839978D01*
X794048Y-3878073D01*
X794048Y-3925692D01*
X784524Y-3963787D01*
X775000Y-3982835D01*
X765476Y-3992359D01*
X746428Y-4001882D01*
X727381Y-4001882D01*
X708333Y-3992359D01*
X698810Y-3982835D01*
X689286Y-3963787D01*
X679762Y-3925692D01*
X679762Y-3878073D01*
X689286Y-3839978D01*
X698810Y-3820930D01*
X708333Y-3811406D01*
X727381Y-3801882D01*
X879762Y-4001882D02*
X879762Y-3868549D01*
X879762Y-3887597D02*
X889286Y-3878073D01*
X908333Y-3868549D01*
X936905Y-3868549D01*
X955952Y-3878073D01*
X965476Y-3897120D01*
X965476Y-4001882D01*
X965476Y-3897120D02*
X975000Y-3878073D01*
X994048Y-3868549D01*
X1022619Y-3868549D01*
X1041667Y-3878073D01*
X1051190Y-3897120D01*
X1051190Y-4001882D01*
X1146429Y-4001882D02*
X1146429Y-3868549D01*
X1146429Y-3887597D02*
X1155952Y-3878073D01*
X1175000Y-3868549D01*
X1203571Y-3868549D01*
X1222619Y-3878073D01*
X1232143Y-3897120D01*
X1232143Y-4001882D01*
X1232143Y-3897120D02*
X1241667Y-3878073D01*
X1260714Y-3868549D01*
X1289286Y-3868549D01*
X1308333Y-3878073D01*
X1317857Y-3897120D01*
X1317857Y-4001882D01*
X1708333Y-3792359D02*
X1536905Y-4049501D01*
X1965476Y-3801882D02*
X1984524Y-3801882D01*
X2003571Y-3811406D01*
X2013095Y-3820930D01*
X2022619Y-3839978D01*
X2032143Y-3878073D01*
X2032143Y-3925692D01*
X2022619Y-3963787D01*
X2013095Y-3982835D01*
X2003571Y-3992359D01*
X1984524Y-4001882D01*
X1965476Y-4001882D01*
X1946428Y-3992359D01*
X1936905Y-3982835D01*
X1927381Y-3963787D01*
X1917857Y-3925692D01*
X1917857Y-3878073D01*
X1927381Y-3839978D01*
X1936905Y-3820930D01*
X1946428Y-3811406D01*
X1965476Y-3801882D01*
X2117857Y-3982835D02*
X2127381Y-3992359D01*
X2117857Y-4001882D01*
X2108333Y-3992359D01*
X2117857Y-3982835D01*
X2117857Y-4001882D01*
X2251190Y-3801882D02*
X2270238Y-3801882D01*
X2289286Y-3811406D01*
X2298810Y-3820930D01*
X2308333Y-3839978D01*
X2317857Y-3878073D01*
X2317857Y-3925692D01*
X2308333Y-3963787D01*
X2298810Y-3982835D01*
X2289286Y-3992359D01*
X2270238Y-4001882D01*
X2251190Y-4001882D01*
X2232143Y-3992359D01*
X2222619Y-3982835D01*
X2213095Y-3963787D01*
X2203571Y-3925692D01*
X2203571Y-3878073D01*
X2213095Y-3839978D01*
X2222619Y-3820930D01*
X2232143Y-3811406D01*
X2251190Y-3801882D01*
X2384524Y-3801882D02*
X2508333Y-3801882D01*
X2441667Y-3878073D01*
X2470238Y-3878073D01*
X2489286Y-3887597D01*
X2498810Y-3897120D01*
X2508333Y-3916168D01*
X2508333Y-3963787D01*
X2498810Y-3982835D01*
X2489286Y-3992359D01*
X2470238Y-4001882D01*
X2413095Y-4001882D01*
X2394048Y-3992359D01*
X2384524Y-3982835D01*
X2698810Y-4001882D02*
X2584524Y-4001882D01*
X2641667Y-4001882D02*
X2641667Y-3801882D01*
X2622619Y-3830454D01*
X2603571Y-3849501D01*
X2584524Y-3859025D01*
X2879762Y-3801882D02*
X2784524Y-3801882D01*
X2775000Y-3897120D01*
X2784524Y-3887597D01*
X2803571Y-3878073D01*
X2851190Y-3878073D01*
X2870238Y-3887597D01*
X2879762Y-3897120D01*
X2889286Y-3916168D01*
X2889286Y-3963787D01*
X2879762Y-3982835D01*
X2870238Y-3992359D01*
X2851190Y-4001882D01*
X2803571Y-4001882D01*
X2784524Y-3992359D01*
X2775000Y-3982835D01*
X2965476Y-3801882D02*
X2965476Y-3839978D01*
X3041667Y-3801882D02*
X3041667Y-3839978D01*
X3336905Y-4078073D02*
X3327381Y-4068549D01*
X3308333Y-4039978D01*
X3298809Y-4020930D01*
X3289286Y-3992359D01*
X3279762Y-3944740D01*
X3279762Y-3906644D01*
X3289286Y-3859025D01*
X3298809Y-3830454D01*
X3308333Y-3811406D01*
X3327381Y-3782835D01*
X3336905Y-3773311D01*
X3403571Y-3820930D02*
X3413095Y-3811406D01*
X3432143Y-3801882D01*
X3479762Y-3801882D01*
X3498809Y-3811406D01*
X3508333Y-3820930D01*
X3517857Y-3839978D01*
X3517857Y-3859025D01*
X3508333Y-3887597D01*
X3394048Y-4001882D01*
X3517857Y-4001882D01*
X3689286Y-3801882D02*
X3651190Y-3801882D01*
X3632143Y-3811406D01*
X3622619Y-3820930D01*
X3603571Y-3849501D01*
X3594048Y-3887597D01*
X3594048Y-3963787D01*
X3603571Y-3982835D01*
X3613095Y-3992359D01*
X3632143Y-4001882D01*
X3670238Y-4001882D01*
X3689286Y-3992359D01*
X3698809Y-3982835D01*
X3708333Y-3963787D01*
X3708333Y-3916168D01*
X3698809Y-3897120D01*
X3689286Y-3887597D01*
X3670238Y-3878073D01*
X3632143Y-3878073D01*
X3613095Y-3887597D01*
X3603571Y-3897120D01*
X3594048Y-3916168D01*
X3946428Y-4001882D02*
X3946428Y-3801882D01*
X4032143Y-4001882D02*
X4032143Y-3897120D01*
X4022619Y-3878073D01*
X4003571Y-3868549D01*
X3975000Y-3868549D01*
X3955952Y-3878073D01*
X3946428Y-3887597D01*
X4155952Y-4001882D02*
X4136905Y-3992359D01*
X4127381Y-3982835D01*
X4117857Y-3963787D01*
X4117857Y-3906644D01*
X4127381Y-3887597D01*
X4136905Y-3878073D01*
X4155952Y-3868549D01*
X4184524Y-3868549D01*
X4203571Y-3878073D01*
X4213095Y-3887597D01*
X4222619Y-3906644D01*
X4222619Y-3963787D01*
X4213095Y-3982835D01*
X4203571Y-3992359D01*
X4184524Y-4001882D01*
X4155952Y-4001882D01*
X4336905Y-4001882D02*
X4317857Y-3992359D01*
X4308333Y-3973311D01*
X4308333Y-3801882D01*
X4489286Y-3992359D02*
X4470238Y-4001882D01*
X4432143Y-4001882D01*
X4413095Y-3992359D01*
X4403571Y-3973311D01*
X4403571Y-3897120D01*
X4413095Y-3878073D01*
X4432143Y-3868549D01*
X4470238Y-3868549D01*
X4489286Y-3878073D01*
X4498810Y-3897120D01*
X4498810Y-3916168D01*
X4403571Y-3935216D01*
X4575000Y-3992359D02*
X4594048Y-4001882D01*
X4632143Y-4001882D01*
X4651190Y-3992359D01*
X4660714Y-3973311D01*
X4660714Y-3963787D01*
X4651190Y-3944740D01*
X4632143Y-3935216D01*
X4603571Y-3935216D01*
X4584524Y-3925692D01*
X4575000Y-3906644D01*
X4575000Y-3897120D01*
X4584524Y-3878073D01*
X4603571Y-3868549D01*
X4632143Y-3868549D01*
X4651190Y-3878073D01*
X4727381Y-4078073D02*
X4736905Y-4068549D01*
X4755952Y-4039978D01*
X4765476Y-4020930D01*
X4775000Y-3992359D01*
X4784524Y-3944740D01*
X4784524Y-3906644D01*
X4775000Y-3859025D01*
X4765476Y-3830454D01*
X4755952Y-3811406D01*
X4736905Y-3782835D01*
X4727381Y-3773311D01*
D12*
X-235000Y-4175406D02*
G75*
G03*
X-235000Y-4175406I-80000J0D01*
G01*
D10*
X127381Y-4265882D02*
X13095Y-4265882D01*
X70238Y-4265882D02*
X70238Y-4065882D01*
X51190Y-4094454D01*
X32143Y-4113501D01*
X13095Y-4123025D01*
X213095Y-4246835D02*
X222619Y-4256359D01*
X213095Y-4265882D01*
X203571Y-4256359D01*
X213095Y-4246835D01*
X213095Y-4265882D01*
X394048Y-4065882D02*
X355952Y-4065882D01*
X336905Y-4075406D01*
X327381Y-4084930D01*
X308333Y-4113501D01*
X298810Y-4151597D01*
X298810Y-4227787D01*
X308333Y-4246835D01*
X317857Y-4256359D01*
X336905Y-4265882D01*
X375000Y-4265882D01*
X394048Y-4256359D01*
X403571Y-4246835D01*
X413095Y-4227787D01*
X413095Y-4180168D01*
X403571Y-4161120D01*
X394048Y-4151597D01*
X375000Y-4142073D01*
X336905Y-4142073D01*
X317857Y-4151597D01*
X308333Y-4161120D01*
X298810Y-4180168D01*
X536905Y-4065882D02*
X555952Y-4065882D01*
X575000Y-4075406D01*
X584524Y-4084930D01*
X594048Y-4103978D01*
X603571Y-4142073D01*
X603571Y-4189692D01*
X594048Y-4227787D01*
X584524Y-4246835D01*
X575000Y-4256359D01*
X555952Y-4265882D01*
X536905Y-4265882D01*
X517857Y-4256359D01*
X508333Y-4246835D01*
X498809Y-4227787D01*
X489286Y-4189692D01*
X489286Y-4142073D01*
X498809Y-4103978D01*
X508333Y-4084930D01*
X517857Y-4075406D01*
X536905Y-4065882D01*
X727381Y-4065882D02*
X746428Y-4065882D01*
X765476Y-4075406D01*
X775000Y-4084930D01*
X784524Y-4103978D01*
X794048Y-4142073D01*
X794048Y-4189692D01*
X784524Y-4227787D01*
X775000Y-4246835D01*
X765476Y-4256359D01*
X746428Y-4265882D01*
X727381Y-4265882D01*
X708333Y-4256359D01*
X698810Y-4246835D01*
X689286Y-4227787D01*
X679762Y-4189692D01*
X679762Y-4142073D01*
X689286Y-4103978D01*
X698810Y-4084930D01*
X708333Y-4075406D01*
X727381Y-4065882D01*
X879762Y-4265882D02*
X879762Y-4132549D01*
X879762Y-4151597D02*
X889286Y-4142073D01*
X908333Y-4132549D01*
X936905Y-4132549D01*
X955952Y-4142073D01*
X965476Y-4161120D01*
X965476Y-4265882D01*
X965476Y-4161120D02*
X975000Y-4142073D01*
X994048Y-4132549D01*
X1022619Y-4132549D01*
X1041667Y-4142073D01*
X1051190Y-4161120D01*
X1051190Y-4265882D01*
X1146429Y-4265882D02*
X1146429Y-4132549D01*
X1146429Y-4151597D02*
X1155952Y-4142073D01*
X1175000Y-4132549D01*
X1203571Y-4132549D01*
X1222619Y-4142073D01*
X1232143Y-4161120D01*
X1232143Y-4265882D01*
X1232143Y-4161120D02*
X1241667Y-4142073D01*
X1260714Y-4132549D01*
X1289286Y-4132549D01*
X1308333Y-4142073D01*
X1317857Y-4161120D01*
X1317857Y-4265882D01*
X1708333Y-4056359D02*
X1536905Y-4313502D01*
X1965476Y-4065882D02*
X1984524Y-4065882D01*
X2003571Y-4075406D01*
X2013095Y-4084930D01*
X2022619Y-4103978D01*
X2032143Y-4142073D01*
X2032143Y-4189692D01*
X2022619Y-4227787D01*
X2013095Y-4246835D01*
X2003571Y-4256359D01*
X1984524Y-4265882D01*
X1965476Y-4265882D01*
X1946428Y-4256359D01*
X1936905Y-4246835D01*
X1927381Y-4227787D01*
X1917857Y-4189692D01*
X1917857Y-4142073D01*
X1927381Y-4103978D01*
X1936905Y-4084930D01*
X1946428Y-4075406D01*
X1965476Y-4065882D01*
X2117857Y-4246835D02*
X2127381Y-4256359D01*
X2117857Y-4265882D01*
X2108333Y-4256359D01*
X2117857Y-4246835D01*
X2117857Y-4265882D01*
X2251190Y-4065882D02*
X2270238Y-4065882D01*
X2289286Y-4075406D01*
X2298810Y-4084930D01*
X2308333Y-4103978D01*
X2317857Y-4142073D01*
X2317857Y-4189692D01*
X2308333Y-4227787D01*
X2298810Y-4246835D01*
X2289286Y-4256359D01*
X2270238Y-4265882D01*
X2251190Y-4265882D01*
X2232143Y-4256359D01*
X2222619Y-4246835D01*
X2213095Y-4227787D01*
X2203571Y-4189692D01*
X2203571Y-4142073D01*
X2213095Y-4103978D01*
X2222619Y-4084930D01*
X2232143Y-4075406D01*
X2251190Y-4065882D01*
X2489286Y-4065882D02*
X2451190Y-4065882D01*
X2432143Y-4075406D01*
X2422619Y-4084930D01*
X2403571Y-4113501D01*
X2394048Y-4151597D01*
X2394048Y-4227787D01*
X2403571Y-4246835D01*
X2413095Y-4256359D01*
X2432143Y-4265882D01*
X2470238Y-4265882D01*
X2489286Y-4256359D01*
X2498810Y-4246835D01*
X2508333Y-4227787D01*
X2508333Y-4180168D01*
X2498810Y-4161120D01*
X2489286Y-4151597D01*
X2470238Y-4142073D01*
X2432143Y-4142073D01*
X2413095Y-4151597D01*
X2403571Y-4161120D01*
X2394048Y-4180168D01*
X2575000Y-4065882D02*
X2698810Y-4065882D01*
X2632143Y-4142073D01*
X2660714Y-4142073D01*
X2679762Y-4151597D01*
X2689286Y-4161120D01*
X2698810Y-4180168D01*
X2698810Y-4227787D01*
X2689286Y-4246835D01*
X2679762Y-4256359D01*
X2660714Y-4265882D01*
X2603571Y-4265882D01*
X2584524Y-4256359D01*
X2575000Y-4246835D01*
X2822619Y-4065882D02*
X2841667Y-4065882D01*
X2860714Y-4075406D01*
X2870238Y-4084930D01*
X2879762Y-4103978D01*
X2889286Y-4142073D01*
X2889286Y-4189692D01*
X2879762Y-4227787D01*
X2870238Y-4246835D01*
X2860714Y-4256359D01*
X2841667Y-4265882D01*
X2822619Y-4265882D01*
X2803571Y-4256359D01*
X2794048Y-4246835D01*
X2784524Y-4227787D01*
X2775000Y-4189692D01*
X2775000Y-4142073D01*
X2784524Y-4103978D01*
X2794048Y-4084930D01*
X2803571Y-4075406D01*
X2822619Y-4065882D01*
X2965476Y-4065882D02*
X2965476Y-4103978D01*
X3041667Y-4065882D02*
X3041667Y-4103978D01*
X3336905Y-4342073D02*
X3327381Y-4332549D01*
X3308333Y-4303978D01*
X3298809Y-4284930D01*
X3289286Y-4256359D01*
X3279762Y-4208740D01*
X3279762Y-4170644D01*
X3289286Y-4123025D01*
X3298809Y-4094454D01*
X3308333Y-4075406D01*
X3327381Y-4046835D01*
X3336905Y-4037311D01*
X3403571Y-4084930D02*
X3413095Y-4075406D01*
X3432143Y-4065882D01*
X3479762Y-4065882D01*
X3498809Y-4075406D01*
X3508333Y-4084930D01*
X3517857Y-4103978D01*
X3517857Y-4123025D01*
X3508333Y-4151597D01*
X3394048Y-4265882D01*
X3517857Y-4265882D01*
X3755952Y-4265882D02*
X3755952Y-4065882D01*
X3841667Y-4265882D02*
X3841667Y-4161120D01*
X3832143Y-4142073D01*
X3813095Y-4132549D01*
X3784524Y-4132549D01*
X3765476Y-4142073D01*
X3755952Y-4151597D01*
X3965476Y-4265882D02*
X3946428Y-4256359D01*
X3936905Y-4246835D01*
X3927381Y-4227787D01*
X3927381Y-4170644D01*
X3936905Y-4151597D01*
X3946428Y-4142073D01*
X3965476Y-4132549D01*
X3994048Y-4132549D01*
X4013095Y-4142073D01*
X4022619Y-4151597D01*
X4032143Y-4170644D01*
X4032143Y-4227787D01*
X4022619Y-4246835D01*
X4013095Y-4256359D01*
X3994048Y-4265882D01*
X3965476Y-4265882D01*
X4146428Y-4265882D02*
X4127381Y-4256359D01*
X4117857Y-4237311D01*
X4117857Y-4065882D01*
X4298810Y-4256359D02*
X4279762Y-4265882D01*
X4241667Y-4265882D01*
X4222619Y-4256359D01*
X4213095Y-4237311D01*
X4213095Y-4161120D01*
X4222619Y-4142073D01*
X4241667Y-4132549D01*
X4279762Y-4132549D01*
X4298810Y-4142073D01*
X4308333Y-4161120D01*
X4308333Y-4180168D01*
X4213095Y-4199216D01*
X4384524Y-4256359D02*
X4403571Y-4265882D01*
X4441667Y-4265882D01*
X4460714Y-4256359D01*
X4470238Y-4237311D01*
X4470238Y-4227787D01*
X4460714Y-4208740D01*
X4441667Y-4199216D01*
X4413095Y-4199216D01*
X4394048Y-4189692D01*
X4384524Y-4170644D01*
X4384524Y-4161120D01*
X4394048Y-4142073D01*
X4413095Y-4132549D01*
X4441667Y-4132549D01*
X4460714Y-4142073D01*
X4536905Y-4342073D02*
X4546429Y-4332549D01*
X4565476Y-4303978D01*
X4575000Y-4284930D01*
X4584524Y-4256359D01*
X4594048Y-4208740D01*
X4594048Y-4170644D01*
X4584524Y-4123025D01*
X4575000Y-4094454D01*
X4565476Y-4075406D01*
X4546429Y-4046835D01*
X4536905Y-4037311D01*
X-335000Y-4355406D02*
X-335000Y-4555406D01*
X-435000Y-4455406D02*
X-235000Y-4455406D01*
X13095Y-4364930D02*
X22619Y-4355406D01*
X41667Y-4345882D01*
X89286Y-4345882D01*
X108333Y-4355406D01*
X117857Y-4364930D01*
X127381Y-4383978D01*
X127381Y-4403025D01*
X117857Y-4431597D01*
X3571Y-4545882D01*
X127381Y-4545882D01*
X213095Y-4526835D02*
X222619Y-4536359D01*
X213095Y-4545882D01*
X203571Y-4536359D01*
X213095Y-4526835D01*
X213095Y-4545882D01*
X298810Y-4364930D02*
X308333Y-4355406D01*
X327381Y-4345882D01*
X375000Y-4345882D01*
X394048Y-4355406D01*
X403571Y-4364930D01*
X413095Y-4383978D01*
X413095Y-4403025D01*
X403571Y-4431597D01*
X289286Y-4545882D01*
X413095Y-4545882D01*
X536905Y-4345882D02*
X555952Y-4345882D01*
X575000Y-4355406D01*
X584524Y-4364930D01*
X594048Y-4383978D01*
X603571Y-4422073D01*
X603571Y-4469692D01*
X594048Y-4507787D01*
X584524Y-4526835D01*
X575000Y-4536359D01*
X555952Y-4545882D01*
X536905Y-4545882D01*
X517857Y-4536359D01*
X508333Y-4526835D01*
X498809Y-4507787D01*
X489286Y-4469692D01*
X489286Y-4422073D01*
X498809Y-4383978D01*
X508333Y-4364930D01*
X517857Y-4355406D01*
X536905Y-4345882D01*
X727381Y-4345882D02*
X746428Y-4345882D01*
X765476Y-4355406D01*
X775000Y-4364930D01*
X784524Y-4383978D01*
X794048Y-4422073D01*
X794048Y-4469692D01*
X784524Y-4507787D01*
X775000Y-4526835D01*
X765476Y-4536359D01*
X746428Y-4545882D01*
X727381Y-4545882D01*
X708333Y-4536359D01*
X698810Y-4526835D01*
X689286Y-4507787D01*
X679762Y-4469692D01*
X679762Y-4422073D01*
X689286Y-4383978D01*
X698810Y-4364930D01*
X708333Y-4355406D01*
X727381Y-4345882D01*
X879762Y-4545882D02*
X879762Y-4412549D01*
X879762Y-4431597D02*
X889286Y-4422073D01*
X908333Y-4412549D01*
X936905Y-4412549D01*
X955952Y-4422073D01*
X965476Y-4441121D01*
X965476Y-4545882D01*
X965476Y-4441121D02*
X975000Y-4422073D01*
X994048Y-4412549D01*
X1022619Y-4412549D01*
X1041667Y-4422073D01*
X1051190Y-4441121D01*
X1051190Y-4545882D01*
X1146429Y-4545882D02*
X1146429Y-4412549D01*
X1146429Y-4431597D02*
X1155952Y-4422073D01*
X1175000Y-4412549D01*
X1203571Y-4412549D01*
X1222619Y-4422073D01*
X1232143Y-4441121D01*
X1232143Y-4545882D01*
X1232143Y-4441121D02*
X1241667Y-4422073D01*
X1260714Y-4412549D01*
X1289286Y-4412549D01*
X1308333Y-4422073D01*
X1317857Y-4441121D01*
X1317857Y-4545882D01*
X1708333Y-4336359D02*
X1536905Y-4593502D01*
X1965476Y-4345882D02*
X1984524Y-4345882D01*
X2003571Y-4355406D01*
X2013095Y-4364930D01*
X2022619Y-4383978D01*
X2032143Y-4422073D01*
X2032143Y-4469692D01*
X2022619Y-4507787D01*
X2013095Y-4526835D01*
X2003571Y-4536359D01*
X1984524Y-4545882D01*
X1965476Y-4545882D01*
X1946428Y-4536359D01*
X1936905Y-4526835D01*
X1927381Y-4507787D01*
X1917857Y-4469692D01*
X1917857Y-4422073D01*
X1927381Y-4383978D01*
X1936905Y-4364930D01*
X1946428Y-4355406D01*
X1965476Y-4345882D01*
X2117857Y-4526835D02*
X2127381Y-4536359D01*
X2117857Y-4545882D01*
X2108333Y-4536359D01*
X2117857Y-4526835D01*
X2117857Y-4545882D01*
X2251190Y-4345882D02*
X2270238Y-4345882D01*
X2289286Y-4355406D01*
X2298810Y-4364930D01*
X2308333Y-4383978D01*
X2317857Y-4422073D01*
X2317857Y-4469692D01*
X2308333Y-4507787D01*
X2298810Y-4526835D01*
X2289286Y-4536359D01*
X2270238Y-4545882D01*
X2251190Y-4545882D01*
X2232143Y-4536359D01*
X2222619Y-4526835D01*
X2213095Y-4507787D01*
X2203571Y-4469692D01*
X2203571Y-4422073D01*
X2213095Y-4383978D01*
X2222619Y-4364930D01*
X2232143Y-4355406D01*
X2251190Y-4345882D01*
X2432143Y-4431597D02*
X2413095Y-4422073D01*
X2403571Y-4412549D01*
X2394048Y-4393502D01*
X2394048Y-4383978D01*
X2403571Y-4364930D01*
X2413095Y-4355406D01*
X2432143Y-4345882D01*
X2470238Y-4345882D01*
X2489286Y-4355406D01*
X2498810Y-4364930D01*
X2508333Y-4383978D01*
X2508333Y-4393502D01*
X2498810Y-4412549D01*
X2489286Y-4422073D01*
X2470238Y-4431597D01*
X2432143Y-4431597D01*
X2413095Y-4441121D01*
X2403571Y-4450644D01*
X2394048Y-4469692D01*
X2394048Y-4507787D01*
X2403571Y-4526835D01*
X2413095Y-4536359D01*
X2432143Y-4545882D01*
X2470238Y-4545882D01*
X2489286Y-4536359D01*
X2498810Y-4526835D01*
X2508333Y-4507787D01*
X2508333Y-4469692D01*
X2498810Y-4450644D01*
X2489286Y-4441121D01*
X2470238Y-4431597D01*
X2679762Y-4345882D02*
X2641667Y-4345882D01*
X2622619Y-4355406D01*
X2613095Y-4364930D01*
X2594048Y-4393502D01*
X2584524Y-4431597D01*
X2584524Y-4507787D01*
X2594048Y-4526835D01*
X2603571Y-4536359D01*
X2622619Y-4545882D01*
X2660714Y-4545882D01*
X2679762Y-4536359D01*
X2689286Y-4526835D01*
X2698810Y-4507787D01*
X2698810Y-4460168D01*
X2689286Y-4441121D01*
X2679762Y-4431597D01*
X2660714Y-4422073D01*
X2622619Y-4422073D01*
X2603571Y-4431597D01*
X2594048Y-4441121D01*
X2584524Y-4460168D01*
X2870238Y-4345882D02*
X2832143Y-4345882D01*
X2813095Y-4355406D01*
X2803571Y-4364930D01*
X2784524Y-4393502D01*
X2775000Y-4431597D01*
X2775000Y-4507787D01*
X2784524Y-4526835D01*
X2794048Y-4536359D01*
X2813095Y-4545882D01*
X2851190Y-4545882D01*
X2870238Y-4536359D01*
X2879762Y-4526835D01*
X2889286Y-4507787D01*
X2889286Y-4460168D01*
X2879762Y-4441121D01*
X2870238Y-4431597D01*
X2851190Y-4422073D01*
X2813095Y-4422073D01*
X2794048Y-4431597D01*
X2784524Y-4441121D01*
X2775000Y-4460168D01*
X2965476Y-4345882D02*
X2965476Y-4383978D01*
X3041667Y-4345882D02*
X3041667Y-4383978D01*
X3336905Y-4622073D02*
X3327381Y-4612549D01*
X3308333Y-4583978D01*
X3298809Y-4564930D01*
X3289286Y-4536359D01*
X3279762Y-4488740D01*
X3279762Y-4450644D01*
X3289286Y-4403025D01*
X3298809Y-4374454D01*
X3308333Y-4355406D01*
X3327381Y-4326835D01*
X3336905Y-4317311D01*
X3394048Y-4345882D02*
X3517857Y-4345882D01*
X3451190Y-4422073D01*
X3479762Y-4422073D01*
X3498809Y-4431597D01*
X3508333Y-4441121D01*
X3517857Y-4460168D01*
X3517857Y-4507787D01*
X3508333Y-4526835D01*
X3498809Y-4536359D01*
X3479762Y-4545882D01*
X3422619Y-4545882D01*
X3403571Y-4536359D01*
X3394048Y-4526835D01*
X3755952Y-4545882D02*
X3755952Y-4345882D01*
X3841667Y-4545882D02*
X3841667Y-4441121D01*
X3832143Y-4422073D01*
X3813095Y-4412549D01*
X3784524Y-4412549D01*
X3765476Y-4422073D01*
X3755952Y-4431597D01*
X3965476Y-4545882D02*
X3946428Y-4536359D01*
X3936905Y-4526835D01*
X3927381Y-4507787D01*
X3927381Y-4450644D01*
X3936905Y-4431597D01*
X3946428Y-4422073D01*
X3965476Y-4412549D01*
X3994048Y-4412549D01*
X4013095Y-4422073D01*
X4022619Y-4431597D01*
X4032143Y-4450644D01*
X4032143Y-4507787D01*
X4022619Y-4526835D01*
X4013095Y-4536359D01*
X3994048Y-4545882D01*
X3965476Y-4545882D01*
X4146428Y-4545882D02*
X4127381Y-4536359D01*
X4117857Y-4517311D01*
X4117857Y-4345882D01*
X4298810Y-4536359D02*
X4279762Y-4545882D01*
X4241667Y-4545882D01*
X4222619Y-4536359D01*
X4213095Y-4517311D01*
X4213095Y-4441121D01*
X4222619Y-4422073D01*
X4241667Y-4412549D01*
X4279762Y-4412549D01*
X4298810Y-4422073D01*
X4308333Y-4441121D01*
X4308333Y-4460168D01*
X4213095Y-4479216D01*
X4384524Y-4536359D02*
X4403571Y-4545882D01*
X4441667Y-4545882D01*
X4460714Y-4536359D01*
X4470238Y-4517311D01*
X4470238Y-4507787D01*
X4460714Y-4488740D01*
X4441667Y-4479216D01*
X4413095Y-4479216D01*
X4394048Y-4469692D01*
X4384524Y-4450644D01*
X4384524Y-4441121D01*
X4394048Y-4422073D01*
X4413095Y-4412549D01*
X4441667Y-4412549D01*
X4460714Y-4422073D01*
X4536905Y-4622073D02*
X4546429Y-4612549D01*
X4565476Y-4583978D01*
X4575000Y-4564930D01*
X4584524Y-4536359D01*
X4594048Y-4488740D01*
X4594048Y-4450644D01*
X4584524Y-4403025D01*
X4575000Y-4374454D01*
X4565476Y-4355406D01*
X4546429Y-4326835D01*
X4536905Y-4317311D01*
M02*
