G04 #@! TF.GenerationSoftware,KiCad,Pcbnew,(6.0.7)*
G04 #@! TF.CreationDate,2022-10-21T23:47:13+08:00*
G04 #@! TF.ProjectId,pcb_front,7063625f-6672-46f6-9e74-2e6b69636164,rev?*
G04 #@! TF.SameCoordinates,Original*
G04 #@! TF.FileFunction,Copper,L1,Top*
G04 #@! TF.FilePolarity,Positive*
%FSLAX46Y46*%
G04 Gerber Fmt 4.6, Leading zero omitted, Abs format (unit mm)*
G04 Created by KiCad (PCBNEW (6.0.7)) date 2022-10-21 23:47:13*
%MOMM*%
%LPD*%
G01*
G04 APERTURE LIST*
G04 Aperture macros list*
%AMRoundRect*
0 Rectangle with rounded corners*
0 $1 Rounding radius*
0 $2 $3 $4 $5 $6 $7 $8 $9 X,Y pos of 4 corners*
0 Add a 4 corners polygon primitive as box body*
4,1,4,$2,$3,$4,$5,$6,$7,$8,$9,$2,$3,0*
0 Add four circle primitives for the rounded corners*
1,1,$1+$1,$2,$3*
1,1,$1+$1,$4,$5*
1,1,$1+$1,$6,$7*
1,1,$1+$1,$8,$9*
0 Add four rect primitives between the rounded corners*
20,1,$1+$1,$2,$3,$4,$5,0*
20,1,$1+$1,$4,$5,$6,$7,0*
20,1,$1+$1,$6,$7,$8,$9,0*
20,1,$1+$1,$8,$9,$2,$3,0*%
G04 Aperture macros list end*
G04 #@! TA.AperFunction,ComponentPad*
%ADD10C,3.200000*%
G04 #@! TD*
G04 #@! TA.AperFunction,SMDPad,CuDef*
%ADD11RoundRect,0.160000X-0.197500X-0.160000X0.197500X-0.160000X0.197500X0.160000X-0.197500X0.160000X0*%
G04 #@! TD*
G04 #@! TA.AperFunction,SMDPad,CuDef*
%ADD12RoundRect,0.150000X0.150000X0.625000X-0.150000X0.625000X-0.150000X-0.625000X0.150000X-0.625000X0*%
G04 #@! TD*
G04 #@! TA.AperFunction,SMDPad,CuDef*
%ADD13RoundRect,0.250000X0.350000X0.650000X-0.350000X0.650000X-0.350000X-0.650000X0.350000X-0.650000X0*%
G04 #@! TD*
G04 #@! TA.AperFunction,SMDPad,CuDef*
%ADD14RoundRect,0.160000X-0.222500X-0.160000X0.222500X-0.160000X0.222500X0.160000X-0.222500X0.160000X0*%
G04 #@! TD*
G04 #@! TA.AperFunction,ComponentPad*
%ADD15R,1.350000X1.350000*%
G04 #@! TD*
G04 #@! TA.AperFunction,ComponentPad*
%ADD16O,1.350000X1.350000*%
G04 #@! TD*
G04 #@! TA.AperFunction,ViaPad*
%ADD17C,2.300000*%
G04 #@! TD*
G04 #@! TA.AperFunction,Conductor*
%ADD18C,0.300000*%
G04 #@! TD*
G04 #@! TA.AperFunction,Conductor*
%ADD19C,0.127000*%
G04 #@! TD*
G04 APERTURE END LIST*
D10*
X5750000Y-30614100D03*
D11*
X1702500Y1650000D03*
X2897500Y1650000D03*
D10*
X5750000Y250000D03*
D12*
X13000000Y-28825000D03*
X12000000Y-28825000D03*
X11000000Y-28825000D03*
X10000000Y-28825000D03*
D13*
X8700000Y-31350000D03*
X14300000Y-31350000D03*
D10*
X25500000Y-30614100D03*
D14*
X-845000Y1650000D03*
X300000Y1650000D03*
D12*
X21250000Y-28825000D03*
X20250000Y-28825000D03*
X19250000Y-28825000D03*
X18250000Y-28825000D03*
X17250000Y-28825000D03*
D13*
X15950000Y-31350000D03*
X22550000Y-31350000D03*
D15*
X2000000Y0D03*
D16*
X0Y0D03*
X2000000Y-2000000D03*
X0Y-2000000D03*
X2000000Y-4000000D03*
X0Y-4000000D03*
X2000000Y-6000000D03*
X0Y-6000000D03*
X2000000Y-8000000D03*
X0Y-8000000D03*
X2000000Y-10000000D03*
X0Y-10000000D03*
X2000000Y-12000000D03*
X0Y-12000000D03*
X2000000Y-14000000D03*
X0Y-14000000D03*
X2000000Y-16000000D03*
X0Y-16000000D03*
X2000000Y-18000000D03*
X0Y-18000000D03*
X2000000Y-20000000D03*
X0Y-20000000D03*
X2000000Y-22000000D03*
X0Y-22000000D03*
X2000000Y-24000000D03*
X0Y-24000000D03*
D17*
X25750000Y-18187500D03*
X9750000Y-8187500D03*
D18*
X2000000Y0D02*
X3200000Y0D01*
X19100000Y-24400000D02*
X21250000Y-26550000D01*
X21250000Y-28825000D02*
X21250000Y-29700000D01*
D19*
X2000000Y0D02*
X2897500Y897500D01*
D18*
X3500000Y-7000000D02*
X6100000Y-9600000D01*
X6100000Y-9600000D02*
X6100000Y-23600000D01*
X13250000Y-30000000D02*
X13000000Y-29750000D01*
X3500000Y-300000D02*
X3500000Y-7000000D01*
X3200000Y0D02*
X3500000Y-300000D01*
X21250000Y-29700000D02*
X20950000Y-30000000D01*
X21250000Y-26550000D02*
X21250000Y-28825000D01*
X13750000Y-30000000D02*
X13500000Y-30000000D01*
X6900000Y-24400000D02*
X19100000Y-24400000D01*
X13750000Y-30000000D02*
X13250000Y-30000000D01*
X13000000Y-29750000D02*
X13000000Y-28825000D01*
X2000000Y0D02*
X0Y0D01*
X20950000Y-30000000D02*
X13750000Y-30000000D01*
D19*
X2897500Y897500D02*
X2897500Y1650000D01*
D18*
X6100000Y-23600000D02*
X6900000Y-24400000D01*
D19*
X5500000Y-11500000D02*
X5500000Y-24000000D01*
X20250000Y-28825000D02*
X20250000Y-26600000D01*
X20250000Y-26600000D02*
X18650000Y-25000000D01*
X20250000Y-28825000D02*
X20250000Y-26550000D01*
X2000000Y-8000000D02*
X5500000Y-11500000D01*
X6500000Y-25000000D02*
X18650000Y-25000000D01*
X5500000Y-24000000D02*
X6500000Y-25000000D01*
X5000000Y-13000000D02*
X5000000Y-24250000D01*
X19250000Y-26600000D02*
X18150000Y-25500000D01*
X19250000Y-28825000D02*
X19250000Y-26600000D01*
X6250000Y-25500000D02*
X18150000Y-25500000D01*
X5000000Y-24250000D02*
X6250000Y-25500000D01*
X2000000Y-10000000D02*
X5000000Y-13000000D01*
X6000000Y-26000000D02*
X17650000Y-26000000D01*
X4500000Y-24500000D02*
X6000000Y-26000000D01*
X18250000Y-26600000D02*
X17650000Y-26000000D01*
X2000000Y-12000000D02*
X4500000Y-14500000D01*
X4500000Y-14500000D02*
X4500000Y-24500000D01*
X18250000Y-28825000D02*
X18250000Y-26600000D01*
X3500000Y-20500000D02*
X3500000Y-23750000D01*
X3500000Y-23750000D02*
X3500000Y-25000000D01*
X3000000Y-20000000D02*
X3500000Y-20500000D01*
X5500000Y-27000000D02*
X10450000Y-27000000D01*
X2000000Y-20000000D02*
X3000000Y-20000000D01*
X11000000Y-28825000D02*
X11000000Y-27550000D01*
X3500000Y-25000000D02*
X5500000Y-27000000D01*
X11000000Y-27550000D02*
X10450000Y-27000000D01*
X10950000Y-26500000D02*
X5750000Y-26500000D01*
X4000000Y-24750000D02*
X4000000Y-20250000D01*
X1000000Y-19000000D02*
X0Y-20000000D01*
X12000000Y-28825000D02*
X12000000Y-27550000D01*
X2750000Y-19000000D02*
X1000000Y-19000000D01*
X4000000Y-20250000D02*
X2750000Y-19000000D01*
X12000000Y-27550000D02*
X10950000Y-26500000D01*
X5750000Y-26500000D02*
X4000000Y-24750000D01*
X300000Y1650000D02*
X1702500Y1650000D01*
G04 #@! TA.AperFunction,Conductor*
G36*
X5347587Y2031194D02*
G01*
X5365893Y1987000D01*
X5347587Y1942806D01*
X5320882Y1926997D01*
X5144666Y1875635D01*
X5140339Y1874018D01*
X4911040Y1768309D01*
X4906983Y1766060D01*
X4695830Y1627622D01*
X4692159Y1624805D01*
X4581404Y1525953D01*
X4577724Y1518323D01*
X4581573Y1508229D01*
X5750000Y339803D01*
X7009144Y-919342D01*
X7016819Y-922521D01*
X7026834Y-917983D01*
X7133987Y-795800D01*
X7136766Y-792112D01*
X7273362Y-579750D01*
X7275570Y-575682D01*
X7379271Y-345475D01*
X7380859Y-341113D01*
X7426847Y-178051D01*
X7456461Y-140485D01*
X7503965Y-134863D01*
X7541531Y-164477D01*
X7549500Y-195016D01*
X7549500Y-5907627D01*
X7547910Y-5921633D01*
X7544344Y-5937141D01*
X7545897Y-5944004D01*
X7545897Y-5944006D01*
X7546552Y-5946900D01*
X7547791Y-5954564D01*
X7552587Y-6003254D01*
X7559636Y-6074822D01*
X7560526Y-6077756D01*
X7598801Y-6203935D01*
X7598803Y-6203940D01*
X7599691Y-6206867D01*
X7664738Y-6328560D01*
X7752275Y-6435225D01*
X7858940Y-6522762D01*
X7980633Y-6587809D01*
X7983560Y-6588697D01*
X7983565Y-6588699D01*
X8109744Y-6626974D01*
X8112678Y-6627864D01*
X8115726Y-6628164D01*
X8115730Y-6628165D01*
X8231471Y-6639564D01*
X8239449Y-6640876D01*
X8249282Y-6643155D01*
X8250000Y-6643156D01*
X8265743Y-6639565D01*
X8279642Y-6638000D01*
X9720127Y-6638000D01*
X9734133Y-6639590D01*
X9736436Y-6640119D01*
X9749641Y-6643156D01*
X9756505Y-6641603D01*
X9756508Y-6641603D01*
X9757722Y-6641328D01*
X9776181Y-6639963D01*
X9976269Y-6654957D01*
X9985506Y-6656349D01*
X10202153Y-6705797D01*
X10211080Y-6708550D01*
X10417943Y-6789738D01*
X10426359Y-6793791D01*
X10618808Y-6904901D01*
X10626526Y-6910164D01*
X10800266Y-7048717D01*
X10807114Y-7055070D01*
X10843242Y-7094007D01*
X10958100Y-7217794D01*
X10958265Y-7217972D01*
X10964086Y-7225272D01*
X11044946Y-7343872D01*
X11089268Y-7408881D01*
X11093938Y-7416970D01*
X11190357Y-7617184D01*
X11193768Y-7625876D01*
X11253718Y-7820227D01*
X11259270Y-7838226D01*
X11261349Y-7847333D01*
X11294469Y-8067075D01*
X11295167Y-8076390D01*
X11295167Y-8298610D01*
X11294469Y-8307925D01*
X11263318Y-8514606D01*
X11261349Y-8527667D01*
X11259271Y-8536771D01*
X11223047Y-8654207D01*
X11193770Y-8749120D01*
X11190358Y-8757813D01*
X11149715Y-8842209D01*
X11093938Y-8958030D01*
X11089268Y-8966119D01*
X11006885Y-9086954D01*
X10964089Y-9149724D01*
X10958268Y-9157024D01*
X10883487Y-9237619D01*
X10807114Y-9319930D01*
X10800266Y-9326283D01*
X10626526Y-9464836D01*
X10618811Y-9470097D01*
X10565526Y-9500861D01*
X10426359Y-9581209D01*
X10417943Y-9585262D01*
X10211080Y-9666450D01*
X10202153Y-9669203D01*
X9985506Y-9718651D01*
X9976270Y-9720043D01*
X9776629Y-9735004D01*
X9757953Y-9733590D01*
X9757829Y-9733562D01*
X9750359Y-9731844D01*
X9743496Y-9733397D01*
X9743495Y-9733397D01*
X9734383Y-9735459D01*
X9720589Y-9737000D01*
X8280107Y-9737000D01*
X8265994Y-9735386D01*
X8264130Y-9734954D01*
X8250718Y-9731845D01*
X8250000Y-9731844D01*
X8240208Y-9734078D01*
X8232447Y-9735340D01*
X8180208Y-9740485D01*
X8115730Y-9746835D01*
X8115726Y-9746836D01*
X8112678Y-9747136D01*
X8109744Y-9748026D01*
X7983565Y-9786301D01*
X7983560Y-9786303D01*
X7980633Y-9787191D01*
X7858940Y-9852238D01*
X7752275Y-9939775D01*
X7664738Y-10046440D01*
X7599691Y-10168133D01*
X7598803Y-10171060D01*
X7598801Y-10171065D01*
X7571381Y-10261458D01*
X7559636Y-10300178D01*
X7559336Y-10303226D01*
X7559335Y-10303230D01*
X7547889Y-10419448D01*
X7546600Y-10427328D01*
X7545922Y-10430278D01*
X7544344Y-10437141D01*
X7545897Y-10444004D01*
X7545897Y-10444006D01*
X7547959Y-10453117D01*
X7549500Y-10466911D01*
X7549500Y-19907627D01*
X7547910Y-19921633D01*
X7544344Y-19937141D01*
X7545897Y-19944004D01*
X7545897Y-19944006D01*
X7546552Y-19946900D01*
X7547791Y-19954564D01*
X7558143Y-20059667D01*
X7559636Y-20074822D01*
X7560526Y-20077756D01*
X7598801Y-20203935D01*
X7598803Y-20203940D01*
X7599691Y-20206867D01*
X7664738Y-20328560D01*
X7752275Y-20435225D01*
X7858940Y-20522762D01*
X7980633Y-20587809D01*
X7983560Y-20588697D01*
X7983565Y-20588699D01*
X8109744Y-20626974D01*
X8112678Y-20627864D01*
X8115726Y-20628164D01*
X8115730Y-20628165D01*
X8231471Y-20639564D01*
X8239449Y-20640876D01*
X8249282Y-20643155D01*
X8250000Y-20643156D01*
X8265743Y-20639565D01*
X8279642Y-20638000D01*
X23469893Y-20638000D01*
X23484006Y-20639614D01*
X23499282Y-20643155D01*
X23500000Y-20643156D01*
X23509792Y-20640922D01*
X23517553Y-20639660D01*
X23569792Y-20634515D01*
X23634270Y-20628165D01*
X23634274Y-20628164D01*
X23637322Y-20627864D01*
X23640256Y-20626974D01*
X23766435Y-20588699D01*
X23766440Y-20588697D01*
X23769367Y-20587809D01*
X23891060Y-20522762D01*
X23997725Y-20435225D01*
X24085262Y-20328560D01*
X24150309Y-20206867D01*
X24151197Y-20203940D01*
X24151199Y-20203935D01*
X24189474Y-20077756D01*
X24190364Y-20074822D01*
X24193308Y-20044938D01*
X24202064Y-19956029D01*
X24203376Y-19948051D01*
X24205655Y-19938218D01*
X24205656Y-19937500D01*
X24202065Y-19921757D01*
X24200500Y-19907858D01*
X24200500Y-18217607D01*
X24202114Y-18203494D01*
X24202201Y-18203117D01*
X24205655Y-18188218D01*
X24205656Y-18187500D01*
X24204873Y-18184067D01*
X24204872Y-18184059D01*
X24203869Y-18179663D01*
X24202479Y-18161094D01*
X24217457Y-17961230D01*
X24218849Y-17951994D01*
X24268297Y-17735347D01*
X24271050Y-17726420D01*
X24352238Y-17519557D01*
X24356291Y-17511141D01*
X24451754Y-17345793D01*
X24467403Y-17318689D01*
X24472664Y-17310974D01*
X24611217Y-17137234D01*
X24617570Y-17130386D01*
X24675782Y-17076373D01*
X24780476Y-16979232D01*
X24787772Y-16973414D01*
X24971381Y-16848232D01*
X24979470Y-16843562D01*
X25145281Y-16763711D01*
X25179687Y-16747142D01*
X25188376Y-16743732D01*
X25400729Y-16678229D01*
X25409829Y-16676152D01*
X25629575Y-16643031D01*
X25638890Y-16642333D01*
X25861110Y-16642333D01*
X25870425Y-16643031D01*
X26090171Y-16676152D01*
X26099271Y-16678229D01*
X26311624Y-16743732D01*
X26320313Y-16747142D01*
X26354719Y-16763711D01*
X26520530Y-16843562D01*
X26528619Y-16848232D01*
X26712228Y-16973414D01*
X26719524Y-16979232D01*
X26824218Y-17076373D01*
X26882430Y-17130386D01*
X26888783Y-17137234D01*
X27027336Y-17310974D01*
X27032597Y-17318689D01*
X27048246Y-17345793D01*
X27143709Y-17511141D01*
X27147762Y-17519557D01*
X27228950Y-17726420D01*
X27231703Y-17735347D01*
X27281151Y-17951994D01*
X27282543Y-17961230D01*
X27297504Y-18160871D01*
X27296090Y-18179547D01*
X27294344Y-18187141D01*
X27295897Y-18194004D01*
X27295897Y-18194005D01*
X27297959Y-18203117D01*
X27299500Y-18216911D01*
X27299500Y-30168192D01*
X27281194Y-30212386D01*
X27237000Y-30230692D01*
X27192806Y-30212386D01*
X27176041Y-30181986D01*
X27159556Y-30109132D01*
X27158209Y-30104727D01*
X27066690Y-29869385D01*
X27064701Y-29865214D01*
X26939408Y-29645998D01*
X26936820Y-29642161D01*
X26780505Y-29443877D01*
X26778854Y-29442075D01*
X26769831Y-29438656D01*
X26761755Y-29442147D01*
X25500000Y-30703903D01*
X24330523Y-31873379D01*
X24326913Y-31882096D01*
X24330611Y-31890970D01*
X24371659Y-31931660D01*
X24375173Y-31934661D01*
X24578801Y-32083968D01*
X24582718Y-32086415D01*
X24806176Y-32203983D01*
X24810422Y-32205828D01*
X25048797Y-32289072D01*
X25054844Y-32290692D01*
X25092795Y-32319812D01*
X25099040Y-32367238D01*
X25069920Y-32405189D01*
X25038669Y-32413563D01*
X23174830Y-32413563D01*
X23130636Y-32395257D01*
X23112330Y-32351063D01*
X23130597Y-32306907D01*
X23209992Y-32227374D01*
X23215909Y-32219078D01*
X23267068Y-32114420D01*
X23269898Y-32105261D01*
X23279672Y-32038262D01*
X23280000Y-32033749D01*
X23280000Y-31425931D01*
X23276359Y-31417141D01*
X23267569Y-31413500D01*
X21832431Y-31413500D01*
X21823641Y-31417141D01*
X21820000Y-31425931D01*
X21820000Y-32033737D01*
X21820332Y-32038268D01*
X21830288Y-32105901D01*
X21833136Y-32115068D01*
X21884474Y-32219630D01*
X21890403Y-32227912D01*
X21969459Y-32306830D01*
X21987803Y-32351009D01*
X21969536Y-32395219D01*
X21925303Y-32413563D01*
X16574830Y-32413563D01*
X16530636Y-32395257D01*
X16512330Y-32351063D01*
X16530597Y-32306907D01*
X16609992Y-32227374D01*
X16615909Y-32219078D01*
X16667068Y-32114420D01*
X16669898Y-32105261D01*
X16679672Y-32038262D01*
X16680000Y-32033749D01*
X16680000Y-31425931D01*
X16676359Y-31417141D01*
X16667569Y-31413500D01*
X15232431Y-31413500D01*
X15223641Y-31417141D01*
X15220000Y-31425931D01*
X15220000Y-32033737D01*
X15220332Y-32038268D01*
X15230288Y-32105901D01*
X15233136Y-32115068D01*
X15284474Y-32219630D01*
X15290403Y-32227912D01*
X15369459Y-32306830D01*
X15387803Y-32351009D01*
X15369536Y-32395219D01*
X15325303Y-32413563D01*
X14924830Y-32413563D01*
X14880636Y-32395257D01*
X14862330Y-32351063D01*
X14880597Y-32306907D01*
X14959992Y-32227374D01*
X14965909Y-32219078D01*
X15017068Y-32114420D01*
X15019898Y-32105261D01*
X15029672Y-32038262D01*
X15030000Y-32033749D01*
X15030000Y-31425931D01*
X15026359Y-31417141D01*
X15017569Y-31413500D01*
X13582431Y-31413500D01*
X13573641Y-31417141D01*
X13570000Y-31425931D01*
X13570000Y-32033737D01*
X13570332Y-32038268D01*
X13580288Y-32105901D01*
X13583136Y-32115068D01*
X13634474Y-32219630D01*
X13640403Y-32227912D01*
X13719459Y-32306830D01*
X13737803Y-32351009D01*
X13719536Y-32395219D01*
X13675303Y-32413563D01*
X9324830Y-32413563D01*
X9280636Y-32395257D01*
X9262330Y-32351063D01*
X9280597Y-32306907D01*
X9359992Y-32227374D01*
X9365909Y-32219078D01*
X9417068Y-32114420D01*
X9419898Y-32105261D01*
X9429672Y-32038262D01*
X9430000Y-32033749D01*
X9430000Y-31425931D01*
X9426359Y-31417141D01*
X9417569Y-31413500D01*
X7982431Y-31413500D01*
X7973641Y-31417141D01*
X7970000Y-31425931D01*
X7970000Y-32033737D01*
X7970332Y-32038268D01*
X7980288Y-32105901D01*
X7983136Y-32115068D01*
X8034474Y-32219630D01*
X8040403Y-32227912D01*
X8119459Y-32306830D01*
X8137803Y-32351009D01*
X8119536Y-32395219D01*
X8075303Y-32413563D01*
X6193270Y-32413563D01*
X6149076Y-32395257D01*
X6130770Y-32351063D01*
X6149076Y-32306869D01*
X6177357Y-32290623D01*
X6312568Y-32255025D01*
X6316946Y-32253517D01*
X6548921Y-32153853D01*
X6553047Y-32151706D01*
X6767744Y-32018847D01*
X6771492Y-32016124D01*
X6919447Y-31890871D01*
X6923804Y-31882411D01*
X6921589Y-31875491D01*
X5660197Y-30614100D01*
X5844952Y-30614100D01*
X5848593Y-30622890D01*
X7009144Y-31783442D01*
X7016819Y-31786621D01*
X7026834Y-31782083D01*
X7133987Y-31659900D01*
X7136766Y-31656212D01*
X7273362Y-31443850D01*
X7275570Y-31439782D01*
X7350218Y-31274069D01*
X7970000Y-31274069D01*
X7973641Y-31282859D01*
X7982431Y-31286500D01*
X8624069Y-31286500D01*
X8632859Y-31282859D01*
X8636500Y-31274069D01*
X8763500Y-31274069D01*
X8767141Y-31282859D01*
X8775931Y-31286500D01*
X9417569Y-31286500D01*
X9426359Y-31282859D01*
X9430000Y-31274069D01*
X9430000Y-30666263D01*
X9429668Y-30661732D01*
X9419712Y-30594099D01*
X9416864Y-30584932D01*
X9365526Y-30480370D01*
X9359597Y-30472088D01*
X9277374Y-30390008D01*
X9269078Y-30384091D01*
X9164420Y-30332932D01*
X9155261Y-30330102D01*
X9088262Y-30320328D01*
X9083749Y-30320000D01*
X8775931Y-30320000D01*
X8767141Y-30323641D01*
X8763500Y-30332431D01*
X8763500Y-31274069D01*
X8636500Y-31274069D01*
X8636500Y-30332431D01*
X8632859Y-30323641D01*
X8624069Y-30320000D01*
X8316263Y-30320000D01*
X8311732Y-30320332D01*
X8244099Y-30330288D01*
X8234932Y-30333136D01*
X8130370Y-30384474D01*
X8122088Y-30390403D01*
X8040008Y-30472626D01*
X8034091Y-30480922D01*
X7982932Y-30585580D01*
X7980102Y-30594739D01*
X7970328Y-30661738D01*
X7970000Y-30666251D01*
X7970000Y-31274069D01*
X7350218Y-31274069D01*
X7379271Y-31209575D01*
X7380859Y-31205213D01*
X7449393Y-30962209D01*
X7450316Y-30957671D01*
X7482276Y-30706447D01*
X7482514Y-30703338D01*
X7484810Y-30615665D01*
X7484735Y-30612534D01*
X7465967Y-30359989D01*
X7465283Y-30355410D01*
X7409556Y-30109132D01*
X7408209Y-30104727D01*
X7316690Y-29869385D01*
X7314701Y-29865214D01*
X7189408Y-29645998D01*
X7186820Y-29642161D01*
X7066672Y-29489755D01*
X9570000Y-29489755D01*
X9570218Y-29493434D01*
X9572351Y-29511354D01*
X9574809Y-29520300D01*
X9612906Y-29606068D01*
X9619331Y-29615417D01*
X9684985Y-29680957D01*
X9694349Y-29687368D01*
X9780168Y-29725308D01*
X9789143Y-29727755D01*
X9806584Y-29729788D01*
X9810224Y-29730000D01*
X9924069Y-29730000D01*
X9932859Y-29726359D01*
X9936500Y-29717569D01*
X9936500Y-28900931D01*
X9932859Y-28892141D01*
X9924069Y-28888500D01*
X9582431Y-28888500D01*
X9573641Y-28892141D01*
X9570000Y-28900931D01*
X9570000Y-29489755D01*
X7066672Y-29489755D01*
X7030505Y-29443877D01*
X7028854Y-29442075D01*
X7019831Y-29438656D01*
X7011755Y-29442147D01*
X5848593Y-30605310D01*
X5844952Y-30614100D01*
X5660197Y-30614100D01*
X4489510Y-29443412D01*
X4480720Y-29439771D01*
X4474187Y-29442478D01*
X4339110Y-29604889D01*
X4336429Y-29608647D01*
X4205439Y-29824512D01*
X4203340Y-29828630D01*
X4105693Y-30061493D01*
X4104231Y-30065864D01*
X4073577Y-30186564D01*
X4044956Y-30224892D01*
X3997615Y-30231756D01*
X3959287Y-30203135D01*
X3950500Y-30171179D01*
X3950500Y-29345777D01*
X4577724Y-29345777D01*
X4581573Y-29355871D01*
X5741210Y-30515507D01*
X5750000Y-30519148D01*
X5758790Y-30515507D01*
X6918859Y-29355439D01*
X6922285Y-29347167D01*
X6918232Y-29337791D01*
X6843463Y-29267454D01*
X6839876Y-29264550D01*
X6632406Y-29120622D01*
X6628422Y-29118276D01*
X6401972Y-29006602D01*
X6397678Y-29004867D01*
X6157198Y-28927889D01*
X6152703Y-28926810D01*
X5903496Y-28886225D01*
X5898882Y-28885821D01*
X5646403Y-28882515D01*
X5641795Y-28882797D01*
X5391603Y-28916847D01*
X5387077Y-28917809D01*
X5144666Y-28988465D01*
X5140339Y-28990082D01*
X4911040Y-29095791D01*
X4906983Y-29098040D01*
X4695830Y-29236478D01*
X4692159Y-29239295D01*
X4581404Y-29338147D01*
X4577724Y-29345777D01*
X3950500Y-29345777D01*
X3950500Y-28749069D01*
X9570000Y-28749069D01*
X9573641Y-28757859D01*
X9582431Y-28761500D01*
X9924069Y-28761500D01*
X9932859Y-28757859D01*
X9936500Y-28749069D01*
X9936500Y-27932431D01*
X9932859Y-27923641D01*
X9924069Y-27920000D01*
X9810245Y-27920000D01*
X9806566Y-27920218D01*
X9788646Y-27922351D01*
X9779700Y-27924809D01*
X9693932Y-27962906D01*
X9684583Y-27969331D01*
X9619043Y-28034985D01*
X9612632Y-28044349D01*
X9574692Y-28130168D01*
X9572245Y-28139143D01*
X9570212Y-28156584D01*
X9570000Y-28160224D01*
X9570000Y-28749069D01*
X3950500Y-28749069D01*
X3950500Y-27280100D01*
X3952114Y-27265990D01*
X3954855Y-27254160D01*
X3955655Y-27250710D01*
X3955656Y-27249992D01*
X3954466Y-27244775D01*
X3953093Y-27235779D01*
X3943098Y-27108836D01*
X3939380Y-27061615D01*
X3895263Y-26877878D01*
X3876139Y-26831710D01*
X3823889Y-26705575D01*
X3823888Y-26705572D01*
X3822948Y-26703304D01*
X3819958Y-26698424D01*
X3725497Y-26544283D01*
X3724215Y-26542191D01*
X3713063Y-26529133D01*
X3603087Y-26400369D01*
X3601495Y-26398505D01*
X3556022Y-26359667D01*
X3459677Y-26277380D01*
X3459674Y-26277378D01*
X3457809Y-26275785D01*
X3373701Y-26224242D01*
X3298790Y-26178335D01*
X3298788Y-26178334D01*
X3296696Y-26177052D01*
X3294428Y-26176112D01*
X3294425Y-26176111D01*
X3124387Y-26105675D01*
X3124384Y-26105674D01*
X3122122Y-26104737D01*
X2938385Y-26060620D01*
X2886488Y-26056534D01*
X2765183Y-26046983D01*
X2755973Y-26045561D01*
X2754179Y-26045145D01*
X2754173Y-26045144D01*
X2750726Y-26044345D01*
X2750008Y-26044344D01*
X2740046Y-26046616D01*
X2734262Y-26047935D01*
X2720365Y-26049500D01*
X-1220131Y-26049500D01*
X-1234135Y-26047911D01*
X-1242790Y-26045921D01*
X-1242791Y-26045921D01*
X-1249650Y-26044344D01*
X-1256516Y-26045898D01*
X-1258408Y-26045895D01*
X-1275697Y-26046971D01*
X-1399858Y-26034747D01*
X-1411875Y-26032357D01*
X-1550074Y-25990439D01*
X-1561394Y-25985751D01*
X-1688768Y-25917670D01*
X-1698943Y-25910871D01*
X-1810587Y-25819248D01*
X-1819249Y-25810586D01*
X-1830640Y-25796706D01*
X-1910871Y-25698943D01*
X-1917670Y-25688768D01*
X-1985752Y-25561392D01*
X-1990439Y-25550074D01*
X-2032357Y-25411875D01*
X-2034747Y-25399858D01*
X-2041457Y-25331710D01*
X-2046929Y-25276127D01*
X-2045928Y-25260519D01*
X-2045922Y-25257229D01*
X-2044344Y-25250368D01*
X-2047959Y-25234389D01*
X-2049500Y-25220598D01*
X-2049500Y-24000000D01*
X-880322Y-24000000D01*
X-861085Y-24183029D01*
X-804214Y-24358059D01*
X-802579Y-24360891D01*
X-802578Y-24360893D01*
X-785399Y-24390648D01*
X-712195Y-24517440D01*
X-589050Y-24654207D01*
X-440161Y-24762381D01*
X-272034Y-24837236D01*
X-268827Y-24837918D01*
X-268826Y-24837918D01*
X-178141Y-24857194D01*
X-92019Y-24875500D01*
X92019Y-24875500D01*
X178141Y-24857194D01*
X268826Y-24837918D01*
X268827Y-24837918D01*
X272034Y-24837236D01*
X440161Y-24762381D01*
X589050Y-24654207D01*
X712195Y-24517440D01*
X785399Y-24390648D01*
X802578Y-24360893D01*
X802579Y-24360891D01*
X804214Y-24358059D01*
X861085Y-24183029D01*
X880322Y-24000000D01*
X1119678Y-24000000D01*
X1138915Y-24183029D01*
X1195786Y-24358059D01*
X1197421Y-24360891D01*
X1197422Y-24360893D01*
X1214601Y-24390648D01*
X1287805Y-24517440D01*
X1410950Y-24654207D01*
X1559839Y-24762381D01*
X1727966Y-24837236D01*
X1731173Y-24837918D01*
X1731174Y-24837918D01*
X1821859Y-24857194D01*
X1907981Y-24875500D01*
X2092019Y-24875500D01*
X2178141Y-24857194D01*
X2268826Y-24837918D01*
X2268827Y-24837918D01*
X2272034Y-24837236D01*
X2440161Y-24762381D01*
X2589050Y-24654207D01*
X2712195Y-24517440D01*
X2785399Y-24390648D01*
X2802578Y-24360893D01*
X2802579Y-24360891D01*
X2804214Y-24358059D01*
X2861085Y-24183029D01*
X2880322Y-24000000D01*
X2861085Y-23816971D01*
X2804214Y-23641941D01*
X2712195Y-23482560D01*
X2589050Y-23345793D01*
X2440161Y-23237619D01*
X2272034Y-23162764D01*
X2268827Y-23162082D01*
X2268826Y-23162082D01*
X2095228Y-23125182D01*
X2095227Y-23125182D01*
X2092019Y-23124500D01*
X1907981Y-23124500D01*
X1904773Y-23125182D01*
X1904772Y-23125182D01*
X1731174Y-23162082D01*
X1731173Y-23162082D01*
X1727966Y-23162764D01*
X1559839Y-23237619D01*
X1410950Y-23345793D01*
X1287805Y-23482560D01*
X1195786Y-23641941D01*
X1138915Y-23816971D01*
X1119678Y-24000000D01*
X880322Y-24000000D01*
X861085Y-23816971D01*
X804214Y-23641941D01*
X712195Y-23482560D01*
X589050Y-23345793D01*
X440161Y-23237619D01*
X272034Y-23162764D01*
X268827Y-23162082D01*
X268826Y-23162082D01*
X95228Y-23125182D01*
X95227Y-23125182D01*
X92019Y-23124500D01*
X-92019Y-23124500D01*
X-95227Y-23125182D01*
X-95228Y-23125182D01*
X-268826Y-23162082D01*
X-268827Y-23162082D01*
X-272034Y-23162764D01*
X-440161Y-23237619D01*
X-589050Y-23345793D01*
X-712195Y-23482560D01*
X-804214Y-23641941D01*
X-861085Y-23816971D01*
X-880322Y-24000000D01*
X-2049500Y-24000000D01*
X-2049500Y-22000000D01*
X-880322Y-22000000D01*
X-861085Y-22183029D01*
X-804214Y-22358059D01*
X-712195Y-22517440D01*
X-589050Y-22654207D01*
X-440161Y-22762381D01*
X-272034Y-22837236D01*
X-268827Y-22837918D01*
X-268826Y-22837918D01*
X-95228Y-22874818D01*
X-92019Y-22875500D01*
X92019Y-22875500D01*
X95228Y-22874818D01*
X268826Y-22837918D01*
X268827Y-22837918D01*
X272034Y-22837236D01*
X440161Y-22762381D01*
X589050Y-22654207D01*
X712195Y-22517440D01*
X804214Y-22358059D01*
X861085Y-22183029D01*
X880322Y-22000000D01*
X1119678Y-22000000D01*
X1138915Y-22183029D01*
X1195786Y-22358059D01*
X1287805Y-22517440D01*
X1410950Y-22654207D01*
X1559839Y-22762381D01*
X1727966Y-22837236D01*
X1731173Y-22837918D01*
X1731174Y-22837918D01*
X1904772Y-22874818D01*
X1907981Y-22875500D01*
X2092019Y-22875500D01*
X2095228Y-22874818D01*
X2268826Y-22837918D01*
X2268827Y-22837918D01*
X2272034Y-22837236D01*
X2440161Y-22762381D01*
X2589050Y-22654207D01*
X2712195Y-22517440D01*
X2804214Y-22358059D01*
X2861085Y-22183029D01*
X2880322Y-22000000D01*
X2861085Y-21816971D01*
X2804214Y-21641941D01*
X2712195Y-21482560D01*
X2589050Y-21345793D01*
X2440161Y-21237619D01*
X2272034Y-21162764D01*
X2268827Y-21162082D01*
X2268826Y-21162082D01*
X2095228Y-21125182D01*
X2095227Y-21125182D01*
X2092019Y-21124500D01*
X1907981Y-21124500D01*
X1904773Y-21125182D01*
X1904772Y-21125182D01*
X1731174Y-21162082D01*
X1731173Y-21162082D01*
X1727966Y-21162764D01*
X1559839Y-21237619D01*
X1410950Y-21345793D01*
X1287805Y-21482560D01*
X1195786Y-21641941D01*
X1138915Y-21816971D01*
X1119678Y-22000000D01*
X880322Y-22000000D01*
X861085Y-21816971D01*
X804214Y-21641941D01*
X712195Y-21482560D01*
X589050Y-21345793D01*
X440161Y-21237619D01*
X272034Y-21162764D01*
X268827Y-21162082D01*
X268826Y-21162082D01*
X95228Y-21125182D01*
X95227Y-21125182D01*
X92019Y-21124500D01*
X-92019Y-21124500D01*
X-95227Y-21125182D01*
X-95228Y-21125182D01*
X-268826Y-21162082D01*
X-268827Y-21162082D01*
X-272034Y-21162764D01*
X-440161Y-21237619D01*
X-589050Y-21345793D01*
X-712195Y-21482560D01*
X-804214Y-21641941D01*
X-861085Y-21816971D01*
X-880322Y-22000000D01*
X-2049500Y-22000000D01*
X-2049500Y-18000000D01*
X-880322Y-18000000D01*
X-861085Y-18183029D01*
X-860073Y-18186143D01*
X-860073Y-18186144D01*
X-852345Y-18209927D01*
X-804214Y-18358059D01*
X-712195Y-18517440D01*
X-589050Y-18654207D01*
X-440161Y-18762381D01*
X-272034Y-18837236D01*
X-268827Y-18837918D01*
X-268826Y-18837918D01*
X-95228Y-18874818D01*
X-92019Y-18875500D01*
X92019Y-18875500D01*
X95228Y-18874818D01*
X268826Y-18837918D01*
X268827Y-18837918D01*
X272034Y-18837236D01*
X440161Y-18762381D01*
X589050Y-18654207D01*
X712195Y-18517440D01*
X804214Y-18358059D01*
X852345Y-18209927D01*
X860073Y-18186144D01*
X860073Y-18186143D01*
X861085Y-18183029D01*
X880322Y-18000000D01*
X861085Y-17816971D01*
X804214Y-17641941D01*
X712195Y-17482560D01*
X589050Y-17345793D01*
X440161Y-17237619D01*
X272034Y-17162764D01*
X268827Y-17162082D01*
X268826Y-17162082D01*
X95228Y-17125182D01*
X95227Y-17125182D01*
X92019Y-17124500D01*
X-92019Y-17124500D01*
X-95227Y-17125182D01*
X-95228Y-17125182D01*
X-268826Y-17162082D01*
X-268827Y-17162082D01*
X-272034Y-17162764D01*
X-440161Y-17237619D01*
X-589050Y-17345793D01*
X-712195Y-17482560D01*
X-804214Y-17641941D01*
X-861085Y-17816971D01*
X-880322Y-18000000D01*
X-2049500Y-18000000D01*
X-2049500Y-16000000D01*
X-880322Y-16000000D01*
X-861085Y-16183029D01*
X-804214Y-16358059D01*
X-712195Y-16517440D01*
X-589050Y-16654207D01*
X-440161Y-16762381D01*
X-272034Y-16837236D01*
X-268827Y-16837918D01*
X-268826Y-16837918D01*
X-220303Y-16848232D01*
X-92019Y-16875500D01*
X92019Y-16875500D01*
X220303Y-16848232D01*
X268826Y-16837918D01*
X268827Y-16837918D01*
X272034Y-16837236D01*
X440161Y-16762381D01*
X589050Y-16654207D01*
X712195Y-16517440D01*
X804214Y-16358059D01*
X861085Y-16183029D01*
X880322Y-16000000D01*
X1119678Y-16000000D01*
X1138915Y-16183029D01*
X1195786Y-16358059D01*
X1287805Y-16517440D01*
X1410950Y-16654207D01*
X1559839Y-16762381D01*
X1727966Y-16837236D01*
X1731173Y-16837918D01*
X1731174Y-16837918D01*
X1779697Y-16848232D01*
X1907981Y-16875500D01*
X2092019Y-16875500D01*
X2220303Y-16848232D01*
X2268826Y-16837918D01*
X2268827Y-16837918D01*
X2272034Y-16837236D01*
X2440161Y-16762381D01*
X2589050Y-16654207D01*
X2712195Y-16517440D01*
X2804214Y-16358059D01*
X2861085Y-16183029D01*
X2880322Y-16000000D01*
X2861085Y-15816971D01*
X2804214Y-15641941D01*
X2712195Y-15482560D01*
X2589050Y-15345793D01*
X2440161Y-15237619D01*
X2272034Y-15162764D01*
X2268827Y-15162082D01*
X2268826Y-15162082D01*
X2095228Y-15125182D01*
X2095227Y-15125182D01*
X2092019Y-15124500D01*
X1907981Y-15124500D01*
X1904773Y-15125182D01*
X1904772Y-15125182D01*
X1731174Y-15162082D01*
X1731173Y-15162082D01*
X1727966Y-15162764D01*
X1559839Y-15237619D01*
X1410950Y-15345793D01*
X1287805Y-15482560D01*
X1195786Y-15641941D01*
X1138915Y-15816971D01*
X1119678Y-16000000D01*
X880322Y-16000000D01*
X861085Y-15816971D01*
X804214Y-15641941D01*
X712195Y-15482560D01*
X589050Y-15345793D01*
X440161Y-15237619D01*
X272034Y-15162764D01*
X268827Y-15162082D01*
X268826Y-15162082D01*
X95228Y-15125182D01*
X95227Y-15125182D01*
X92019Y-15124500D01*
X-92019Y-15124500D01*
X-95227Y-15125182D01*
X-95228Y-15125182D01*
X-268826Y-15162082D01*
X-268827Y-15162082D01*
X-272034Y-15162764D01*
X-440161Y-15237619D01*
X-589050Y-15345793D01*
X-712195Y-15482560D01*
X-804214Y-15641941D01*
X-861085Y-15816971D01*
X-880322Y-16000000D01*
X-2049500Y-16000000D01*
X-2049500Y-14000000D01*
X-880322Y-14000000D01*
X-861085Y-14183029D01*
X-804214Y-14358059D01*
X-802579Y-14360891D01*
X-802578Y-14360893D01*
X-795472Y-14373201D01*
X-712195Y-14517440D01*
X-589050Y-14654207D01*
X-440161Y-14762381D01*
X-272034Y-14837236D01*
X-268827Y-14837918D01*
X-268826Y-14837918D01*
X-95228Y-14874818D01*
X-92019Y-14875500D01*
X92019Y-14875500D01*
X95228Y-14874818D01*
X268826Y-14837918D01*
X268827Y-14837918D01*
X272034Y-14837236D01*
X440161Y-14762381D01*
X589050Y-14654207D01*
X712195Y-14517440D01*
X795472Y-14373201D01*
X802578Y-14360893D01*
X802579Y-14360891D01*
X804214Y-14358059D01*
X861085Y-14183029D01*
X872591Y-14073552D01*
X1198306Y-14073552D01*
X1207267Y-14164954D01*
X1208710Y-14171741D01*
X1263511Y-14336478D01*
X1266427Y-14342788D01*
X1356361Y-14491287D01*
X1360597Y-14496787D01*
X1481202Y-14621676D01*
X1486547Y-14626099D01*
X1631829Y-14721168D01*
X1638017Y-14724294D01*
X1800750Y-14784814D01*
X1807480Y-14786493D01*
X1924176Y-14802063D01*
X1933373Y-14799615D01*
X1936500Y-14794221D01*
X1936500Y-14790162D01*
X2063500Y-14790162D01*
X2067141Y-14798952D01*
X2073692Y-14801665D01*
X2159416Y-14793864D01*
X2166212Y-14792469D01*
X2331329Y-14738819D01*
X2337655Y-14735949D01*
X2486780Y-14647054D01*
X2492313Y-14642853D01*
X2618039Y-14523127D01*
X2622500Y-14517810D01*
X2718578Y-14373201D01*
X2721751Y-14367027D01*
X2783402Y-14204728D01*
X2785129Y-14198001D01*
X2802302Y-14075810D01*
X2799920Y-14066598D01*
X2794660Y-14063500D01*
X2075931Y-14063500D01*
X2067141Y-14067141D01*
X2063500Y-14075931D01*
X2063500Y-14790162D01*
X1936500Y-14790162D01*
X1936500Y-14075931D01*
X1932859Y-14067141D01*
X1924069Y-14063500D01*
X1209751Y-14063500D01*
X1200961Y-14067141D01*
X1198306Y-14073552D01*
X872591Y-14073552D01*
X880322Y-14000000D01*
X872352Y-13924166D01*
X1198136Y-13924166D01*
X1200647Y-13933344D01*
X1206180Y-13936500D01*
X1924069Y-13936500D01*
X1932859Y-13932859D01*
X1936500Y-13924069D01*
X2063500Y-13924069D01*
X2067141Y-13932859D01*
X2075931Y-13936500D01*
X2790540Y-13936500D01*
X2799330Y-13932859D01*
X2801874Y-13926718D01*
X2790352Y-13823998D01*
X2788813Y-13817221D01*
X2731720Y-13653276D01*
X2728715Y-13647003D01*
X2636718Y-13499777D01*
X2632401Y-13494331D01*
X2510071Y-13371143D01*
X2504654Y-13366788D01*
X2358076Y-13273767D01*
X2351831Y-13270720D01*
X2188279Y-13212483D01*
X2181511Y-13210896D01*
X2075844Y-13198296D01*
X2066685Y-13200870D01*
X2063500Y-13206546D01*
X2063500Y-13924069D01*
X1936500Y-13924069D01*
X1936500Y-13209626D01*
X1932859Y-13200836D01*
X1926585Y-13198237D01*
X1829513Y-13208439D01*
X1822742Y-13209928D01*
X1658385Y-13265880D01*
X1652103Y-13268836D01*
X1504234Y-13359805D01*
X1498756Y-13364085D01*
X1374721Y-13485550D01*
X1370328Y-13490936D01*
X1276281Y-13636868D01*
X1273195Y-13643085D01*
X1213815Y-13806229D01*
X1212182Y-13812982D01*
X1198136Y-13924166D01*
X872352Y-13924166D01*
X861085Y-13816971D01*
X804214Y-13641941D01*
X712195Y-13482560D01*
X589050Y-13345793D01*
X440161Y-13237619D01*
X272034Y-13162764D01*
X268827Y-13162082D01*
X268826Y-13162082D01*
X95228Y-13125182D01*
X95227Y-13125182D01*
X92019Y-13124500D01*
X-92019Y-13124500D01*
X-95227Y-13125182D01*
X-95228Y-13125182D01*
X-268826Y-13162082D01*
X-268827Y-13162082D01*
X-272034Y-13162764D01*
X-440161Y-13237619D01*
X-589050Y-13345793D01*
X-712195Y-13482560D01*
X-804214Y-13641941D01*
X-861085Y-13816971D01*
X-880322Y-14000000D01*
X-2049500Y-14000000D01*
X-2049500Y-12073552D01*
X-801694Y-12073552D01*
X-792733Y-12164954D01*
X-791290Y-12171741D01*
X-736489Y-12336478D01*
X-733573Y-12342788D01*
X-643639Y-12491287D01*
X-639403Y-12496787D01*
X-518798Y-12621676D01*
X-513453Y-12626099D01*
X-368171Y-12721168D01*
X-361983Y-12724294D01*
X-199250Y-12784814D01*
X-192520Y-12786493D01*
X-75824Y-12802063D01*
X-66627Y-12799615D01*
X-63500Y-12794221D01*
X-63500Y-12790162D01*
X63500Y-12790162D01*
X67141Y-12798952D01*
X73692Y-12801665D01*
X159416Y-12793864D01*
X166212Y-12792469D01*
X331329Y-12738819D01*
X337655Y-12735949D01*
X486780Y-12647054D01*
X492313Y-12642853D01*
X618039Y-12523127D01*
X622500Y-12517810D01*
X718578Y-12373201D01*
X721751Y-12367027D01*
X783402Y-12204728D01*
X785129Y-12198001D01*
X802302Y-12075810D01*
X799920Y-12066598D01*
X794660Y-12063500D01*
X75931Y-12063500D01*
X67141Y-12067141D01*
X63500Y-12075931D01*
X63500Y-12790162D01*
X-63500Y-12790162D01*
X-63500Y-12075931D01*
X-67141Y-12067141D01*
X-75931Y-12063500D01*
X-790249Y-12063500D01*
X-799039Y-12067141D01*
X-801694Y-12073552D01*
X-2049500Y-12073552D01*
X-2049500Y-11924166D01*
X-801864Y-11924166D01*
X-799353Y-11933344D01*
X-793820Y-11936500D01*
X-75931Y-11936500D01*
X-67141Y-11932859D01*
X-63500Y-11924069D01*
X63500Y-11924069D01*
X67141Y-11932859D01*
X75931Y-11936500D01*
X790540Y-11936500D01*
X799330Y-11932859D01*
X801874Y-11926718D01*
X790352Y-11823998D01*
X788813Y-11817221D01*
X731720Y-11653276D01*
X728715Y-11647003D01*
X636718Y-11499777D01*
X632401Y-11494331D01*
X510071Y-11371143D01*
X504654Y-11366788D01*
X358076Y-11273767D01*
X351831Y-11270720D01*
X188279Y-11212483D01*
X181511Y-11210896D01*
X75844Y-11198296D01*
X66685Y-11200870D01*
X63500Y-11206546D01*
X63500Y-11924069D01*
X-63500Y-11924069D01*
X-63500Y-11209626D01*
X-67141Y-11200836D01*
X-73415Y-11198237D01*
X-170487Y-11208439D01*
X-177258Y-11209928D01*
X-341615Y-11265880D01*
X-347897Y-11268836D01*
X-495766Y-11359805D01*
X-501244Y-11364085D01*
X-625279Y-11485550D01*
X-629672Y-11490936D01*
X-723719Y-11636868D01*
X-726805Y-11643085D01*
X-786185Y-11806229D01*
X-787818Y-11812982D01*
X-801864Y-11924166D01*
X-2049500Y-11924166D01*
X-2049500Y-10000000D01*
X-880322Y-10000000D01*
X-861085Y-10183029D01*
X-804214Y-10358059D01*
X-712195Y-10517440D01*
X-589050Y-10654207D01*
X-440161Y-10762381D01*
X-272034Y-10837236D01*
X-268827Y-10837918D01*
X-268826Y-10837918D01*
X-95228Y-10874818D01*
X-92019Y-10875500D01*
X92019Y-10875500D01*
X95228Y-10874818D01*
X268826Y-10837918D01*
X268827Y-10837918D01*
X272034Y-10837236D01*
X440161Y-10762381D01*
X589050Y-10654207D01*
X712195Y-10517440D01*
X804214Y-10358059D01*
X861085Y-10183029D01*
X880322Y-10000000D01*
X861085Y-9816971D01*
X804214Y-9641941D01*
X712195Y-9482560D01*
X589050Y-9345793D01*
X440161Y-9237619D01*
X272034Y-9162764D01*
X268827Y-9162082D01*
X268826Y-9162082D01*
X95228Y-9125182D01*
X95227Y-9125182D01*
X92019Y-9124500D01*
X-92019Y-9124500D01*
X-95227Y-9125182D01*
X-95228Y-9125182D01*
X-268826Y-9162082D01*
X-268827Y-9162082D01*
X-272034Y-9162764D01*
X-440161Y-9237619D01*
X-589050Y-9345793D01*
X-712195Y-9482560D01*
X-804214Y-9641941D01*
X-861085Y-9816971D01*
X-880322Y-10000000D01*
X-2049500Y-10000000D01*
X-2049500Y-8000000D01*
X-880322Y-8000000D01*
X-861085Y-8183029D01*
X-804214Y-8358059D01*
X-712195Y-8517440D01*
X-589050Y-8654207D01*
X-440161Y-8762381D01*
X-272034Y-8837236D01*
X-268827Y-8837918D01*
X-268826Y-8837918D01*
X-95228Y-8874818D01*
X-92019Y-8875500D01*
X92019Y-8875500D01*
X95228Y-8874818D01*
X268826Y-8837918D01*
X268827Y-8837918D01*
X272034Y-8837236D01*
X440161Y-8762381D01*
X589050Y-8654207D01*
X712195Y-8517440D01*
X804214Y-8358059D01*
X861085Y-8183029D01*
X880322Y-8000000D01*
X861085Y-7816971D01*
X852235Y-7789732D01*
X805225Y-7645054D01*
X804214Y-7641941D01*
X789921Y-7617184D01*
X713831Y-7485394D01*
X712195Y-7482560D01*
X589050Y-7345793D01*
X440161Y-7237619D01*
X272034Y-7162764D01*
X268827Y-7162082D01*
X268826Y-7162082D01*
X95228Y-7125182D01*
X95227Y-7125182D01*
X92019Y-7124500D01*
X-92019Y-7124500D01*
X-95227Y-7125182D01*
X-95228Y-7125182D01*
X-268826Y-7162082D01*
X-268827Y-7162082D01*
X-272034Y-7162764D01*
X-440161Y-7237619D01*
X-589050Y-7345793D01*
X-712195Y-7482560D01*
X-713831Y-7485394D01*
X-789920Y-7617184D01*
X-804214Y-7641941D01*
X-805225Y-7645054D01*
X-852234Y-7789732D01*
X-861085Y-7816971D01*
X-880322Y-8000000D01*
X-2049500Y-8000000D01*
X-2049500Y-6000000D01*
X-880322Y-6000000D01*
X-861085Y-6183029D01*
X-804214Y-6358059D01*
X-712195Y-6517440D01*
X-589050Y-6654207D01*
X-440161Y-6762381D01*
X-272034Y-6837236D01*
X-268827Y-6837918D01*
X-268826Y-6837918D01*
X-95228Y-6874818D01*
X-92019Y-6875500D01*
X92019Y-6875500D01*
X95228Y-6874818D01*
X268826Y-6837918D01*
X268827Y-6837918D01*
X272034Y-6837236D01*
X440161Y-6762381D01*
X589050Y-6654207D01*
X712195Y-6517440D01*
X804214Y-6358059D01*
X861085Y-6183029D01*
X880322Y-6000000D01*
X1119678Y-6000000D01*
X1138915Y-6183029D01*
X1195786Y-6358059D01*
X1287805Y-6517440D01*
X1410950Y-6654207D01*
X1559839Y-6762381D01*
X1727966Y-6837236D01*
X1731173Y-6837918D01*
X1731174Y-6837918D01*
X1904772Y-6874818D01*
X1907981Y-6875500D01*
X2092019Y-6875500D01*
X2095228Y-6874818D01*
X2268826Y-6837918D01*
X2268827Y-6837918D01*
X2272034Y-6837236D01*
X2440161Y-6762381D01*
X2589050Y-6654207D01*
X2712195Y-6517440D01*
X2804214Y-6358059D01*
X2861085Y-6183029D01*
X2880322Y-6000000D01*
X2861085Y-5816971D01*
X2804214Y-5641941D01*
X2712195Y-5482560D01*
X2589050Y-5345793D01*
X2440161Y-5237619D01*
X2272034Y-5162764D01*
X2268827Y-5162082D01*
X2268826Y-5162082D01*
X2095228Y-5125182D01*
X2095227Y-5125182D01*
X2092019Y-5124500D01*
X1907981Y-5124500D01*
X1904773Y-5125182D01*
X1904772Y-5125182D01*
X1731174Y-5162082D01*
X1731173Y-5162082D01*
X1727966Y-5162764D01*
X1559839Y-5237619D01*
X1410950Y-5345793D01*
X1287805Y-5482560D01*
X1195786Y-5641941D01*
X1138915Y-5816971D01*
X1119678Y-6000000D01*
X880322Y-6000000D01*
X861085Y-5816971D01*
X804214Y-5641941D01*
X712195Y-5482560D01*
X589050Y-5345793D01*
X440161Y-5237619D01*
X272034Y-5162764D01*
X268827Y-5162082D01*
X268826Y-5162082D01*
X95228Y-5125182D01*
X95227Y-5125182D01*
X92019Y-5124500D01*
X-92019Y-5124500D01*
X-95227Y-5125182D01*
X-95228Y-5125182D01*
X-268826Y-5162082D01*
X-268827Y-5162082D01*
X-272034Y-5162764D01*
X-440161Y-5237619D01*
X-589050Y-5345793D01*
X-712195Y-5482560D01*
X-804214Y-5641941D01*
X-861085Y-5816971D01*
X-880322Y-6000000D01*
X-2049500Y-6000000D01*
X-2049500Y-4000000D01*
X-880322Y-4000000D01*
X-861085Y-4183029D01*
X-804214Y-4358059D01*
X-712195Y-4517440D01*
X-589050Y-4654207D01*
X-440161Y-4762381D01*
X-272034Y-4837236D01*
X-268827Y-4837918D01*
X-268826Y-4837918D01*
X-95228Y-4874818D01*
X-92019Y-4875500D01*
X92019Y-4875500D01*
X95228Y-4874818D01*
X268826Y-4837918D01*
X268827Y-4837918D01*
X272034Y-4837236D01*
X440161Y-4762381D01*
X589050Y-4654207D01*
X712195Y-4517440D01*
X804214Y-4358059D01*
X861085Y-4183029D01*
X880322Y-4000000D01*
X1119678Y-4000000D01*
X1138915Y-4183029D01*
X1195786Y-4358059D01*
X1287805Y-4517440D01*
X1410950Y-4654207D01*
X1559839Y-4762381D01*
X1727966Y-4837236D01*
X1731173Y-4837918D01*
X1731174Y-4837918D01*
X1904772Y-4874818D01*
X1907981Y-4875500D01*
X2092019Y-4875500D01*
X2095228Y-4874818D01*
X2268826Y-4837918D01*
X2268827Y-4837918D01*
X2272034Y-4837236D01*
X2440161Y-4762381D01*
X2589050Y-4654207D01*
X2712195Y-4517440D01*
X2804214Y-4358059D01*
X2861085Y-4183029D01*
X2880322Y-4000000D01*
X2861085Y-3816971D01*
X2804214Y-3641941D01*
X2712195Y-3482560D01*
X2589050Y-3345793D01*
X2440161Y-3237619D01*
X2272034Y-3162764D01*
X2268827Y-3162082D01*
X2268826Y-3162082D01*
X2095228Y-3125182D01*
X2095227Y-3125182D01*
X2092019Y-3124500D01*
X1907981Y-3124500D01*
X1904773Y-3125182D01*
X1904772Y-3125182D01*
X1731174Y-3162082D01*
X1731173Y-3162082D01*
X1727966Y-3162764D01*
X1559839Y-3237619D01*
X1410950Y-3345793D01*
X1287805Y-3482560D01*
X1195786Y-3641941D01*
X1138915Y-3816971D01*
X1119678Y-4000000D01*
X880322Y-4000000D01*
X861085Y-3816971D01*
X804214Y-3641941D01*
X712195Y-3482560D01*
X589050Y-3345793D01*
X440161Y-3237619D01*
X272034Y-3162764D01*
X268827Y-3162082D01*
X268826Y-3162082D01*
X95228Y-3125182D01*
X95227Y-3125182D01*
X92019Y-3124500D01*
X-92019Y-3124500D01*
X-95227Y-3125182D01*
X-95228Y-3125182D01*
X-268826Y-3162082D01*
X-268827Y-3162082D01*
X-272034Y-3162764D01*
X-440161Y-3237619D01*
X-589050Y-3345793D01*
X-712195Y-3482560D01*
X-804214Y-3641941D01*
X-861085Y-3816971D01*
X-880322Y-4000000D01*
X-2049500Y-4000000D01*
X-2049500Y-2000000D01*
X-880322Y-2000000D01*
X-861085Y-2183029D01*
X-804214Y-2358059D01*
X-712195Y-2517440D01*
X-589050Y-2654207D01*
X-440161Y-2762381D01*
X-272034Y-2837236D01*
X-268827Y-2837918D01*
X-268826Y-2837918D01*
X-95228Y-2874818D01*
X-92019Y-2875500D01*
X92019Y-2875500D01*
X95228Y-2874818D01*
X268826Y-2837918D01*
X268827Y-2837918D01*
X272034Y-2837236D01*
X440161Y-2762381D01*
X589050Y-2654207D01*
X712195Y-2517440D01*
X804214Y-2358059D01*
X861085Y-2183029D01*
X880322Y-2000000D01*
X1119678Y-2000000D01*
X1138915Y-2183029D01*
X1195786Y-2358059D01*
X1287805Y-2517440D01*
X1410950Y-2654207D01*
X1559839Y-2762381D01*
X1727966Y-2837236D01*
X1731173Y-2837918D01*
X1731174Y-2837918D01*
X1904772Y-2874818D01*
X1907981Y-2875500D01*
X2092019Y-2875500D01*
X2095228Y-2874818D01*
X2268826Y-2837918D01*
X2268827Y-2837918D01*
X2272034Y-2837236D01*
X2440161Y-2762381D01*
X2589050Y-2654207D01*
X2712195Y-2517440D01*
X2804214Y-2358059D01*
X2861085Y-2183029D01*
X2880322Y-2000000D01*
X2861085Y-1816971D01*
X2804214Y-1641941D01*
X2712195Y-1482560D01*
X2589050Y-1345793D01*
X2440161Y-1237619D01*
X2272034Y-1162764D01*
X2268827Y-1162082D01*
X2268826Y-1162082D01*
X2095228Y-1125182D01*
X2095227Y-1125182D01*
X2092019Y-1124500D01*
X1907981Y-1124500D01*
X1904773Y-1125182D01*
X1904772Y-1125182D01*
X1731174Y-1162082D01*
X1731173Y-1162082D01*
X1727966Y-1162764D01*
X1559839Y-1237619D01*
X1410950Y-1345793D01*
X1287805Y-1482560D01*
X1195786Y-1641941D01*
X1138915Y-1816971D01*
X1119678Y-2000000D01*
X880322Y-2000000D01*
X861085Y-1816971D01*
X804214Y-1641941D01*
X712195Y-1482560D01*
X589050Y-1345793D01*
X440161Y-1237619D01*
X272034Y-1162764D01*
X268827Y-1162082D01*
X268826Y-1162082D01*
X95228Y-1125182D01*
X95227Y-1125182D01*
X92019Y-1124500D01*
X-92019Y-1124500D01*
X-95227Y-1125182D01*
X-95228Y-1125182D01*
X-268826Y-1162082D01*
X-268827Y-1162082D01*
X-272034Y-1162764D01*
X-440161Y-1237619D01*
X-589050Y-1345793D01*
X-712195Y-1482560D01*
X-804214Y-1641941D01*
X-861085Y-1816971D01*
X-880322Y-2000000D01*
X-2049500Y-2000000D01*
X-2049500Y1220123D01*
X-2047910Y1234131D01*
X-2045922Y1242777D01*
X-2044344Y1249637D01*
X-2045897Y1256502D01*
X-2045894Y1258397D01*
X-2046970Y1275682D01*
X-2042679Y1319239D01*
X-2034738Y1399848D01*
X-2032349Y1411860D01*
X-2029387Y1421622D01*
X-2021153Y1448765D01*
X-1357500Y1448765D01*
X-1357282Y1445082D01*
X-1355046Y1426289D01*
X-1352587Y1417341D01*
X-1312978Y1328169D01*
X-1306553Y1318821D01*
X-1238261Y1250649D01*
X-1228902Y1244241D01*
X-1139668Y1204790D01*
X-1130704Y1202346D01*
X-1112377Y1200209D01*
X-1108771Y1200000D01*
X-920931Y1200000D01*
X-912141Y1203641D01*
X-908500Y1212431D01*
X-908500Y1574069D01*
X-912141Y1582859D01*
X-920931Y1586500D01*
X-1345069Y1586500D01*
X-1353859Y1582859D01*
X-1357500Y1574069D01*
X-1357500Y1448765D01*
X-2021153Y1448765D01*
X-1990425Y1550060D01*
X-1985736Y1561380D01*
X-1917655Y1688748D01*
X-1910853Y1698928D01*
X-1819231Y1810570D01*
X-1810569Y1819232D01*
X-1698928Y1910853D01*
X-1688748Y1917655D01*
X-1671270Y1926997D01*
X-1561381Y1985736D01*
X-1550060Y1990425D01*
X-1494785Y2007193D01*
X-1411856Y2032350D01*
X-1399846Y2034738D01*
X-1386643Y2036039D01*
X-1340867Y2022153D01*
X-1318318Y1979966D01*
X-1323354Y1948568D01*
X-1352710Y1882167D01*
X-1355154Y1873204D01*
X-1357291Y1854877D01*
X-1357500Y1851271D01*
X-1357500Y1725931D01*
X-1353859Y1717141D01*
X-1345069Y1713500D01*
X-844000Y1713500D01*
X-799806Y1695194D01*
X-781500Y1651000D01*
X-781500Y1212431D01*
X-777859Y1203641D01*
X-769069Y1200000D01*
X-581265Y1200000D01*
X-577582Y1200218D01*
X-558789Y1202454D01*
X-549841Y1204913D01*
X-460669Y1244522D01*
X-451321Y1250947D01*
X-383149Y1319239D01*
X-376741Y1328598D01*
X-368464Y1347319D01*
X-333852Y1380337D01*
X-286029Y1379210D01*
X-255198Y1349592D01*
X-222209Y1282403D01*
X-219676Y1277243D01*
X-216024Y1273597D01*
X-216023Y1273596D01*
X-138393Y1196101D01*
X-138391Y1196099D01*
X-134738Y1192453D01*
X-60232Y1156033D01*
X-31275Y1141878D01*
X-31274Y1141878D01*
X-26915Y1139747D01*
X-22112Y1139046D01*
X-22111Y1139046D01*
X351Y1135769D01*
X43328Y1129500D01*
X556672Y1129500D01*
X627526Y1139930D01*
X647527Y1149750D01*
X730622Y1190548D01*
X730623Y1190549D01*
X735257Y1192824D01*
X738904Y1196477D01*
X816399Y1274107D01*
X816401Y1274109D01*
X820047Y1277762D01*
X855821Y1350947D01*
X891676Y1382613D01*
X911972Y1386000D01*
X1115486Y1386000D01*
X1159680Y1367694D01*
X1171588Y1351047D01*
X1207824Y1277243D01*
X1211476Y1273597D01*
X1211477Y1273596D01*
X1289107Y1196101D01*
X1289109Y1196099D01*
X1292762Y1192453D01*
X1367268Y1156033D01*
X1396225Y1141878D01*
X1396226Y1141878D01*
X1400585Y1139747D01*
X1405388Y1139046D01*
X1405389Y1139046D01*
X1427851Y1135769D01*
X1470828Y1129500D01*
X1934172Y1129500D01*
X2005026Y1139930D01*
X2025027Y1149750D01*
X2108122Y1190548D01*
X2108123Y1190549D01*
X2112757Y1192824D01*
X2116404Y1196477D01*
X2193899Y1274107D01*
X2193901Y1274109D01*
X2197547Y1277762D01*
X2199817Y1282405D01*
X2243806Y1372394D01*
X2279660Y1404059D01*
X2327404Y1401096D01*
X2356059Y1372491D01*
X2400291Y1282403D01*
X2402824Y1277243D01*
X2406476Y1273597D01*
X2406477Y1273596D01*
X2484107Y1196101D01*
X2484109Y1196099D01*
X2487762Y1192453D01*
X2590831Y1142071D01*
X2595585Y1139747D01*
X2594747Y1138032D01*
X2626268Y1111895D01*
X2633500Y1082712D01*
X2633500Y1032741D01*
X2615194Y988547D01*
X2520453Y893806D01*
X2476259Y875500D01*
X1305252Y875500D01*
X1302242Y874901D01*
X1302239Y874901D01*
X1252805Y865068D01*
X1252803Y865067D01*
X1246769Y863867D01*
X1241655Y860450D01*
X1241653Y860449D01*
X1197320Y830826D01*
X1180448Y819552D01*
X1177031Y814438D01*
X1140963Y760459D01*
X1136133Y753231D01*
X1134933Y747197D01*
X1134932Y747195D01*
X1127988Y712285D01*
X1124500Y694748D01*
X1124500Y413000D01*
X1106194Y368806D01*
X1062000Y350500D01*
X844663Y350500D01*
X800469Y368806D01*
X790536Y381750D01*
X713831Y514606D01*
X712195Y517440D01*
X589050Y654207D01*
X440161Y762381D01*
X272034Y837236D01*
X268827Y837918D01*
X268826Y837918D01*
X95228Y874818D01*
X95227Y874818D01*
X92019Y875500D01*
X-92019Y875500D01*
X-95227Y874818D01*
X-95228Y874818D01*
X-268826Y837918D01*
X-268827Y837918D01*
X-272034Y837236D01*
X-440161Y762381D01*
X-589050Y654207D01*
X-712195Y517440D01*
X-804214Y358059D01*
X-861085Y183029D01*
X-880322Y0D01*
X-861085Y-183029D01*
X-804214Y-358059D01*
X-712195Y-517440D01*
X-589050Y-654207D01*
X-440161Y-762381D01*
X-272034Y-837236D01*
X-268827Y-837918D01*
X-268826Y-837918D01*
X-141097Y-865068D01*
X-92019Y-875500D01*
X92019Y-875500D01*
X141097Y-865068D01*
X268826Y-837918D01*
X268827Y-837918D01*
X272034Y-837236D01*
X440161Y-762381D01*
X589050Y-654207D01*
X712195Y-517440D01*
X790536Y-381750D01*
X828487Y-352630D01*
X844663Y-350500D01*
X1062000Y-350500D01*
X1106194Y-368806D01*
X1124500Y-413000D01*
X1124500Y-694748D01*
X1136133Y-753231D01*
X1139550Y-758345D01*
X1139551Y-758347D01*
X1162113Y-792112D01*
X1180448Y-819552D01*
X1185562Y-822969D01*
X1241653Y-860449D01*
X1241655Y-860450D01*
X1246769Y-863867D01*
X1252803Y-865067D01*
X1252805Y-865068D01*
X1302239Y-874901D01*
X1302242Y-874901D01*
X1305252Y-875500D01*
X2694748Y-875500D01*
X2697758Y-874901D01*
X2697761Y-874901D01*
X2747195Y-865068D01*
X2747197Y-865067D01*
X2753231Y-863867D01*
X2758345Y-860450D01*
X2758347Y-860449D01*
X2814438Y-822969D01*
X2819552Y-819552D01*
X2837887Y-792112D01*
X2860449Y-758347D01*
X2860450Y-758345D01*
X2863867Y-753231D01*
X2875500Y-694748D01*
X2875500Y-413000D01*
X2893806Y-368806D01*
X2938000Y-350500D01*
X3028930Y-350500D01*
X3073124Y-368806D01*
X3131194Y-426876D01*
X3149500Y-471070D01*
X3149500Y-6955936D01*
X3148100Y-6969088D01*
X3145049Y-6983261D01*
X3145656Y-6988390D01*
X3145656Y-6988393D01*
X3149067Y-7017209D01*
X3149500Y-7024555D01*
X3149500Y-7029115D01*
X3149924Y-7031660D01*
X3152637Y-7047960D01*
X3153050Y-7050863D01*
X3158764Y-7099138D01*
X3161002Y-7103799D01*
X3161924Y-7106972D01*
X3162964Y-7110010D01*
X3163812Y-7115103D01*
X3186899Y-7157890D01*
X3188236Y-7160515D01*
X3207571Y-7200781D01*
X3207574Y-7200785D01*
X3209274Y-7204326D01*
X3212592Y-7208274D01*
X3213008Y-7208690D01*
X3215802Y-7212001D01*
X3216768Y-7213247D01*
X3219222Y-7217794D01*
X3223017Y-7221302D01*
X3256549Y-7252299D01*
X3258318Y-7254000D01*
X5731194Y-9726876D01*
X5749500Y-9771070D01*
X5749500Y-11225260D01*
X5731194Y-11269454D01*
X5687000Y-11287760D01*
X5642806Y-11269454D01*
X2811477Y-8438125D01*
X2793171Y-8393931D01*
X2801546Y-8362679D01*
X2804214Y-8358059D01*
X2805224Y-8354950D01*
X2805226Y-8354946D01*
X2860073Y-8186144D01*
X2860073Y-8186143D01*
X2861085Y-8183029D01*
X2880322Y-8000000D01*
X2861085Y-7816971D01*
X2852235Y-7789732D01*
X2805225Y-7645054D01*
X2804214Y-7641941D01*
X2789921Y-7617184D01*
X2713831Y-7485394D01*
X2712195Y-7482560D01*
X2589050Y-7345793D01*
X2440161Y-7237619D01*
X2272034Y-7162764D01*
X2268827Y-7162082D01*
X2268826Y-7162082D01*
X2095228Y-7125182D01*
X2095227Y-7125182D01*
X2092019Y-7124500D01*
X1907981Y-7124500D01*
X1904773Y-7125182D01*
X1904772Y-7125182D01*
X1731174Y-7162082D01*
X1731173Y-7162082D01*
X1727966Y-7162764D01*
X1559839Y-7237619D01*
X1410950Y-7345793D01*
X1287805Y-7482560D01*
X1286169Y-7485394D01*
X1210080Y-7617184D01*
X1195786Y-7641941D01*
X1194775Y-7645054D01*
X1147766Y-7789732D01*
X1138915Y-7816971D01*
X1119678Y-8000000D01*
X1138915Y-8183029D01*
X1195786Y-8358059D01*
X1287805Y-8517440D01*
X1410950Y-8654207D01*
X1559839Y-8762381D01*
X1727966Y-8837236D01*
X1731173Y-8837918D01*
X1731174Y-8837918D01*
X1904772Y-8874818D01*
X1907981Y-8875500D01*
X2092019Y-8875500D01*
X2095228Y-8874818D01*
X2268826Y-8837918D01*
X2268827Y-8837918D01*
X2272034Y-8837236D01*
X2275031Y-8835902D01*
X2275036Y-8835900D01*
X2365540Y-8795605D01*
X2413359Y-8794352D01*
X2435155Y-8808507D01*
X5217694Y-11591046D01*
X5236000Y-11635240D01*
X5236000Y-12711759D01*
X5217694Y-12755953D01*
X5173500Y-12774259D01*
X5129306Y-12755953D01*
X2811477Y-10438125D01*
X2793171Y-10393931D01*
X2801546Y-10362679D01*
X2804214Y-10358059D01*
X2805224Y-10354950D01*
X2805226Y-10354946D01*
X2860073Y-10186144D01*
X2860073Y-10186143D01*
X2861085Y-10183029D01*
X2880322Y-10000000D01*
X2861085Y-9816971D01*
X2804214Y-9641941D01*
X2712195Y-9482560D01*
X2589050Y-9345793D01*
X2440161Y-9237619D01*
X2272034Y-9162764D01*
X2268827Y-9162082D01*
X2268826Y-9162082D01*
X2095228Y-9125182D01*
X2095227Y-9125182D01*
X2092019Y-9124500D01*
X1907981Y-9124500D01*
X1904773Y-9125182D01*
X1904772Y-9125182D01*
X1731174Y-9162082D01*
X1731173Y-9162082D01*
X1727966Y-9162764D01*
X1559839Y-9237619D01*
X1410950Y-9345793D01*
X1287805Y-9482560D01*
X1195786Y-9641941D01*
X1138915Y-9816971D01*
X1119678Y-10000000D01*
X1138915Y-10183029D01*
X1195786Y-10358059D01*
X1287805Y-10517440D01*
X1410950Y-10654207D01*
X1559839Y-10762381D01*
X1727966Y-10837236D01*
X1731173Y-10837918D01*
X1731174Y-10837918D01*
X1904772Y-10874818D01*
X1907981Y-10875500D01*
X2092019Y-10875500D01*
X2095228Y-10874818D01*
X2268826Y-10837918D01*
X2268827Y-10837918D01*
X2272034Y-10837236D01*
X2275031Y-10835902D01*
X2275036Y-10835900D01*
X2365540Y-10795605D01*
X2413359Y-10794352D01*
X2435155Y-10808507D01*
X4717694Y-13091047D01*
X4736000Y-13135241D01*
X4736000Y-14211760D01*
X4717694Y-14255954D01*
X4673500Y-14274260D01*
X4629306Y-14255954D01*
X2811477Y-12438125D01*
X2793171Y-12393931D01*
X2801546Y-12362679D01*
X2804214Y-12358059D01*
X2805224Y-12354950D01*
X2805226Y-12354946D01*
X2860073Y-12186144D01*
X2860073Y-12186143D01*
X2861085Y-12183029D01*
X2880322Y-12000000D01*
X2861085Y-11816971D01*
X2804214Y-11641941D01*
X2712195Y-11482560D01*
X2589050Y-11345793D01*
X2440161Y-11237619D01*
X2272034Y-11162764D01*
X2268827Y-11162082D01*
X2268826Y-11162082D01*
X2095228Y-11125182D01*
X2095227Y-11125182D01*
X2092019Y-11124500D01*
X1907981Y-11124500D01*
X1904773Y-11125182D01*
X1904772Y-11125182D01*
X1731174Y-11162082D01*
X1731173Y-11162082D01*
X1727966Y-11162764D01*
X1559839Y-11237619D01*
X1410950Y-11345793D01*
X1287805Y-11482560D01*
X1195786Y-11641941D01*
X1138915Y-11816971D01*
X1119678Y-12000000D01*
X1138915Y-12183029D01*
X1195786Y-12358059D01*
X1197421Y-12360891D01*
X1197422Y-12360893D01*
X1204528Y-12373201D01*
X1287805Y-12517440D01*
X1410950Y-12654207D01*
X1559839Y-12762381D01*
X1727966Y-12837236D01*
X1731173Y-12837918D01*
X1731174Y-12837918D01*
X1904772Y-12874818D01*
X1907981Y-12875500D01*
X2092019Y-12875500D01*
X2095228Y-12874818D01*
X2268826Y-12837918D01*
X2268827Y-12837918D01*
X2272034Y-12837236D01*
X2275031Y-12835902D01*
X2275036Y-12835900D01*
X2365540Y-12795605D01*
X2413359Y-12794352D01*
X2435155Y-12808507D01*
X4217694Y-14591046D01*
X4236000Y-14635240D01*
X4236000Y-19961760D01*
X4217694Y-20005954D01*
X4173500Y-20024260D01*
X4129306Y-20005954D01*
X2959415Y-18836063D01*
X2951643Y-18826593D01*
X2943753Y-18814785D01*
X2943752Y-18814784D01*
X2940333Y-18809667D01*
X2918289Y-18794937D01*
X2853008Y-18751317D01*
X2846972Y-18750116D01*
X2846971Y-18750116D01*
X2756038Y-18732029D01*
X2750000Y-18730828D01*
X2743962Y-18732029D01*
X2730036Y-18734799D01*
X2717843Y-18736000D01*
X2655781Y-18736000D01*
X2611587Y-18717694D01*
X2593281Y-18673500D01*
X2609334Y-18631679D01*
X2710006Y-18519871D01*
X2712195Y-18517440D01*
X2804214Y-18358059D01*
X2852345Y-18209927D01*
X2860073Y-18186144D01*
X2860073Y-18186143D01*
X2861085Y-18183029D01*
X2880322Y-18000000D01*
X2861085Y-17816971D01*
X2804214Y-17641941D01*
X2712195Y-17482560D01*
X2589050Y-17345793D01*
X2440161Y-17237619D01*
X2272034Y-17162764D01*
X2268827Y-17162082D01*
X2268826Y-17162082D01*
X2095228Y-17125182D01*
X2095227Y-17125182D01*
X2092019Y-17124500D01*
X1907981Y-17124500D01*
X1904773Y-17125182D01*
X1904772Y-17125182D01*
X1731174Y-17162082D01*
X1731173Y-17162082D01*
X1727966Y-17162764D01*
X1559839Y-17237619D01*
X1410950Y-17345793D01*
X1287805Y-17482560D01*
X1195786Y-17641941D01*
X1138915Y-17816971D01*
X1119678Y-18000000D01*
X1138915Y-18183029D01*
X1139927Y-18186143D01*
X1139927Y-18186144D01*
X1147655Y-18209927D01*
X1195786Y-18358059D01*
X1287805Y-18517440D01*
X1289994Y-18519871D01*
X1390666Y-18631679D01*
X1406633Y-18676771D01*
X1386040Y-18719947D01*
X1344219Y-18736000D01*
X1032157Y-18736000D01*
X1019964Y-18734799D01*
X1006038Y-18732029D01*
X1000000Y-18730828D01*
X993962Y-18732029D01*
X973998Y-18736000D01*
X903029Y-18750116D01*
X903028Y-18750116D01*
X896992Y-18751317D01*
X880434Y-18762381D01*
X831710Y-18794937D01*
X831702Y-18794943D01*
X814785Y-18806247D01*
X809667Y-18809667D01*
X806248Y-18814784D01*
X806247Y-18814785D01*
X798359Y-18826590D01*
X790587Y-18836060D01*
X435155Y-19191493D01*
X390961Y-19209799D01*
X365540Y-19204395D01*
X275036Y-19164100D01*
X275031Y-19164098D01*
X272034Y-19162764D01*
X268827Y-19162082D01*
X268826Y-19162082D01*
X95228Y-19125182D01*
X95227Y-19125182D01*
X92019Y-19124500D01*
X-92019Y-19124500D01*
X-95227Y-19125182D01*
X-95228Y-19125182D01*
X-268826Y-19162082D01*
X-268827Y-19162082D01*
X-272034Y-19162764D01*
X-440161Y-19237619D01*
X-589050Y-19345793D01*
X-712195Y-19482560D01*
X-748739Y-19545856D01*
X-800850Y-19636115D01*
X-804214Y-19641941D01*
X-861085Y-19816971D01*
X-880322Y-20000000D01*
X-861085Y-20183029D01*
X-804214Y-20358059D01*
X-712195Y-20517440D01*
X-589050Y-20654207D01*
X-440161Y-20762381D01*
X-272034Y-20837236D01*
X-268827Y-20837918D01*
X-268826Y-20837918D01*
X-95228Y-20874818D01*
X-92019Y-20875500D01*
X92019Y-20875500D01*
X95228Y-20874818D01*
X268826Y-20837918D01*
X268827Y-20837918D01*
X272034Y-20837236D01*
X440161Y-20762381D01*
X589050Y-20654207D01*
X712195Y-20517440D01*
X804214Y-20358059D01*
X861085Y-20183029D01*
X880322Y-20000000D01*
X861085Y-19816971D01*
X834776Y-19736000D01*
X805226Y-19645054D01*
X805224Y-19645050D01*
X804214Y-19641941D01*
X801547Y-19637321D01*
X801448Y-19636571D01*
X801245Y-19636115D01*
X801380Y-19636055D01*
X795299Y-19589898D01*
X811477Y-19561875D01*
X1091047Y-19282306D01*
X1135241Y-19264000D01*
X1344219Y-19264000D01*
X1388413Y-19282306D01*
X1406719Y-19326500D01*
X1390666Y-19368321D01*
X1287805Y-19482560D01*
X1251261Y-19545856D01*
X1199150Y-19636115D01*
X1195786Y-19641941D01*
X1138915Y-19816971D01*
X1119678Y-20000000D01*
X1138915Y-20183029D01*
X1195786Y-20358059D01*
X1287805Y-20517440D01*
X1410950Y-20654207D01*
X1559839Y-20762381D01*
X1727966Y-20837236D01*
X1731173Y-20837918D01*
X1731174Y-20837918D01*
X1904772Y-20874818D01*
X1907981Y-20875500D01*
X2092019Y-20875500D01*
X2095228Y-20874818D01*
X2268826Y-20837918D01*
X2268827Y-20837918D01*
X2272034Y-20837236D01*
X2440161Y-20762381D01*
X2589050Y-20654207D01*
X2712195Y-20517440D01*
X2804214Y-20358059D01*
X2816961Y-20318828D01*
X2848028Y-20282454D01*
X2895716Y-20278701D01*
X2920596Y-20293948D01*
X3104985Y-20478337D01*
X3217694Y-20591047D01*
X3236000Y-20635241D01*
X3236000Y-24967843D01*
X3234799Y-24980036D01*
X3230828Y-25000000D01*
X3236000Y-25026002D01*
X3251317Y-25103008D01*
X3309667Y-25190333D01*
X3314784Y-25193752D01*
X3314785Y-25193753D01*
X3326593Y-25201643D01*
X3336063Y-25209415D01*
X5290585Y-27163937D01*
X5298357Y-27173407D01*
X5309667Y-27190333D01*
X5396992Y-27248683D01*
X5403028Y-27249884D01*
X5403029Y-27249884D01*
X5473991Y-27263999D01*
X5473996Y-27264000D01*
X5473999Y-27264000D01*
X5474007Y-27264001D01*
X5500000Y-27269171D01*
X5506038Y-27267970D01*
X5519960Y-27265201D01*
X5532152Y-27264000D01*
X10314760Y-27264000D01*
X10358954Y-27282306D01*
X10717694Y-27641046D01*
X10736000Y-27685240D01*
X10736000Y-27826538D01*
X10717694Y-27870732D01*
X10701046Y-27882641D01*
X10643145Y-27911068D01*
X10639499Y-27914720D01*
X10639498Y-27914721D01*
X10564355Y-27989995D01*
X10564353Y-27989997D01*
X10560707Y-27993650D01*
X10558439Y-27998290D01*
X10516908Y-28083253D01*
X10481054Y-28114919D01*
X10433310Y-28111957D01*
X10403638Y-28081177D01*
X10387094Y-28043932D01*
X10380669Y-28034583D01*
X10315015Y-27969043D01*
X10305651Y-27962632D01*
X10219832Y-27924692D01*
X10210857Y-27922245D01*
X10193416Y-27920212D01*
X10189776Y-27920000D01*
X10075931Y-27920000D01*
X10067141Y-27923641D01*
X10063500Y-27932431D01*
X10063500Y-29717569D01*
X10067141Y-29726359D01*
X10075931Y-29730000D01*
X10189755Y-29730000D01*
X10193434Y-29729782D01*
X10211354Y-29727649D01*
X10220300Y-29725191D01*
X10306068Y-29687094D01*
X10315417Y-29680669D01*
X10380957Y-29615015D01*
X10387367Y-29605653D01*
X10403562Y-29569021D01*
X10438175Y-29536003D01*
X10485997Y-29537130D01*
X10516828Y-29566748D01*
X10561068Y-29656855D01*
X10564720Y-29660501D01*
X10564721Y-29660502D01*
X10639995Y-29735645D01*
X10639997Y-29735647D01*
X10643650Y-29739293D01*
X10648290Y-29741561D01*
X10743738Y-29788217D01*
X10748482Y-29790536D01*
X10753285Y-29791237D01*
X10753286Y-29791237D01*
X10773248Y-29794149D01*
X10816782Y-29800500D01*
X11183218Y-29800500D01*
X11185465Y-29800169D01*
X11185468Y-29800169D01*
X11209662Y-29796607D01*
X11252112Y-29790358D01*
X11356855Y-29738932D01*
X11360502Y-29735279D01*
X11435645Y-29660005D01*
X11435647Y-29660003D01*
X11439293Y-29656350D01*
X11441560Y-29651712D01*
X11441563Y-29651708D01*
X11443895Y-29646936D01*
X11479749Y-29615270D01*
X11527492Y-29618231D01*
X11556148Y-29646835D01*
X11558541Y-29651708D01*
X11561068Y-29656855D01*
X11564720Y-29660501D01*
X11564721Y-29660502D01*
X11639995Y-29735645D01*
X11639997Y-29735647D01*
X11643650Y-29739293D01*
X11648290Y-29741561D01*
X11743738Y-29788217D01*
X11748482Y-29790536D01*
X11753285Y-29791237D01*
X11753286Y-29791237D01*
X11773248Y-29794149D01*
X11816782Y-29800500D01*
X12183218Y-29800500D01*
X12185465Y-29800169D01*
X12185468Y-29800169D01*
X12209662Y-29796607D01*
X12252112Y-29790358D01*
X12356855Y-29738932D01*
X12360502Y-29735279D01*
X12435645Y-29660005D01*
X12435647Y-29660003D01*
X12439293Y-29656350D01*
X12441560Y-29651712D01*
X12441563Y-29651708D01*
X12443895Y-29646936D01*
X12479749Y-29615270D01*
X12527492Y-29618231D01*
X12556148Y-29646835D01*
X12558541Y-29651708D01*
X12561068Y-29656855D01*
X12564720Y-29660501D01*
X12564721Y-29660502D01*
X12630686Y-29726352D01*
X12648596Y-29763233D01*
X12649066Y-29767201D01*
X12649500Y-29774553D01*
X12649500Y-29779115D01*
X12651372Y-29790358D01*
X12652637Y-29797960D01*
X12653050Y-29800863D01*
X12658764Y-29849138D01*
X12661002Y-29853799D01*
X12661924Y-29856972D01*
X12662964Y-29860010D01*
X12663812Y-29865103D01*
X12686899Y-29907890D01*
X12688236Y-29910515D01*
X12707571Y-29950781D01*
X12707574Y-29950785D01*
X12709274Y-29954326D01*
X12712592Y-29958274D01*
X12713008Y-29958690D01*
X12715802Y-29962001D01*
X12716768Y-29963247D01*
X12719222Y-29967794D01*
X12723017Y-29971302D01*
X12756549Y-30002299D01*
X12758318Y-30004000D01*
X12970998Y-30216680D01*
X12979310Y-30226972D01*
X12984372Y-30234812D01*
X12984374Y-30234815D01*
X12987175Y-30239152D01*
X13011857Y-30258609D01*
X13014020Y-30260315D01*
X13019521Y-30265203D01*
X13022746Y-30268428D01*
X13024840Y-30269925D01*
X13024842Y-30269926D01*
X13038289Y-30279535D01*
X13040645Y-30281304D01*
X13052597Y-30290726D01*
X13078811Y-30311392D01*
X13083688Y-30313105D01*
X13086563Y-30314685D01*
X13089465Y-30316107D01*
X13093669Y-30319111D01*
X13140254Y-30333042D01*
X13143039Y-30333948D01*
X13185194Y-30348752D01*
X13185198Y-30348753D01*
X13188906Y-30350055D01*
X13194044Y-30350500D01*
X13194628Y-30350500D01*
X13198961Y-30350867D01*
X13200514Y-30351063D01*
X13205463Y-30352543D01*
X13256251Y-30350548D01*
X13258704Y-30350500D01*
X13611219Y-30350500D01*
X13655413Y-30368806D01*
X13673719Y-30413000D01*
X13655451Y-30457156D01*
X13640011Y-30472623D01*
X13634091Y-30480922D01*
X13582932Y-30585580D01*
X13580102Y-30594739D01*
X13570328Y-30661738D01*
X13570000Y-30666251D01*
X13570000Y-31274069D01*
X13573641Y-31282859D01*
X13582431Y-31286500D01*
X15017569Y-31286500D01*
X15026359Y-31282859D01*
X15030000Y-31274069D01*
X15030000Y-30666263D01*
X15029668Y-30661732D01*
X15019712Y-30594099D01*
X15016864Y-30584932D01*
X14965526Y-30480370D01*
X14959594Y-30472084D01*
X14944716Y-30457232D01*
X14926372Y-30413054D01*
X14944640Y-30368844D01*
X14988872Y-30350500D01*
X15261219Y-30350500D01*
X15305413Y-30368806D01*
X15323719Y-30413000D01*
X15305451Y-30457156D01*
X15290011Y-30472623D01*
X15284091Y-30480922D01*
X15232932Y-30585580D01*
X15230102Y-30594739D01*
X15220328Y-30661738D01*
X15220000Y-30666251D01*
X15220000Y-31274069D01*
X15223641Y-31282859D01*
X15232431Y-31286500D01*
X16667569Y-31286500D01*
X16676359Y-31282859D01*
X16680000Y-31274069D01*
X21820000Y-31274069D01*
X21823641Y-31282859D01*
X21832431Y-31286500D01*
X22474069Y-31286500D01*
X22482859Y-31282859D01*
X22486500Y-31274069D01*
X22613500Y-31274069D01*
X22617141Y-31282859D01*
X22625931Y-31286500D01*
X23267569Y-31286500D01*
X23276359Y-31282859D01*
X23280000Y-31274069D01*
X23280000Y-30666263D01*
X23279668Y-30661732D01*
X23269712Y-30594099D01*
X23266864Y-30584932D01*
X23260027Y-30571007D01*
X23765854Y-30571007D01*
X23777969Y-30823208D01*
X23778533Y-30827800D01*
X23827793Y-31075448D01*
X23829028Y-31079900D01*
X23914350Y-31317540D01*
X23916233Y-31321771D01*
X24035745Y-31544193D01*
X24038231Y-31548095D01*
X24189299Y-31750400D01*
X24192340Y-31753900D01*
X24222710Y-31784006D01*
X24231590Y-31787639D01*
X24240280Y-31784017D01*
X25401407Y-30622890D01*
X25405048Y-30614100D01*
X25401407Y-30605310D01*
X24239510Y-29443412D01*
X24230720Y-29439771D01*
X24224187Y-29442478D01*
X24089110Y-29604889D01*
X24086429Y-29608647D01*
X23955439Y-29824512D01*
X23953340Y-29828630D01*
X23855693Y-30061493D01*
X23854231Y-30065864D01*
X23792075Y-30310603D01*
X23791273Y-30315146D01*
X23765975Y-30566380D01*
X23765854Y-30571007D01*
X23260027Y-30571007D01*
X23215526Y-30480370D01*
X23209597Y-30472088D01*
X23127374Y-30390008D01*
X23119078Y-30384091D01*
X23014420Y-30332932D01*
X23005261Y-30330102D01*
X22938262Y-30320328D01*
X22933749Y-30320000D01*
X22625931Y-30320000D01*
X22617141Y-30323641D01*
X22613500Y-30332431D01*
X22613500Y-31274069D01*
X22486500Y-31274069D01*
X22486500Y-30332431D01*
X22482859Y-30323641D01*
X22474069Y-30320000D01*
X22166263Y-30320000D01*
X22161732Y-30320332D01*
X22094099Y-30330288D01*
X22084932Y-30333136D01*
X21980370Y-30384474D01*
X21972088Y-30390403D01*
X21890008Y-30472626D01*
X21884091Y-30480922D01*
X21832932Y-30585580D01*
X21830102Y-30594739D01*
X21820328Y-30661738D01*
X21820000Y-30666251D01*
X21820000Y-31274069D01*
X16680000Y-31274069D01*
X16680000Y-30666263D01*
X16679668Y-30661732D01*
X16669712Y-30594099D01*
X16666864Y-30584932D01*
X16615526Y-30480370D01*
X16609594Y-30472084D01*
X16594716Y-30457232D01*
X16576372Y-30413054D01*
X16594640Y-30368844D01*
X16638872Y-30350500D01*
X20905936Y-30350500D01*
X20919088Y-30351900D01*
X20933261Y-30354951D01*
X20938390Y-30354344D01*
X20938393Y-30354344D01*
X20967209Y-30350933D01*
X20974555Y-30350500D01*
X20979115Y-30350500D01*
X20997981Y-30347360D01*
X21000863Y-30346950D01*
X21049138Y-30341236D01*
X21053799Y-30338998D01*
X21056972Y-30338076D01*
X21060010Y-30337036D01*
X21065103Y-30336188D01*
X21107899Y-30313096D01*
X21110515Y-30311764D01*
X21150781Y-30292429D01*
X21150785Y-30292426D01*
X21154326Y-30290726D01*
X21158274Y-30287408D01*
X21158690Y-30286992D01*
X21162001Y-30284198D01*
X21163247Y-30283232D01*
X21167794Y-30280778D01*
X21202299Y-30243451D01*
X21204000Y-30241682D01*
X21466680Y-29979002D01*
X21476972Y-29970690D01*
X21484812Y-29965628D01*
X21484815Y-29965626D01*
X21489152Y-29962825D01*
X21510315Y-29935980D01*
X21515203Y-29930479D01*
X21518428Y-29927254D01*
X21529535Y-29911711D01*
X21531304Y-29909355D01*
X21558194Y-29875246D01*
X21558195Y-29875245D01*
X21561392Y-29871189D01*
X21563104Y-29866314D01*
X21564681Y-29863445D01*
X21566107Y-29860535D01*
X21569111Y-29856331D01*
X21570590Y-29851384D01*
X21570592Y-29851381D01*
X21583039Y-29809758D01*
X21583950Y-29806956D01*
X21598751Y-29764811D01*
X21598753Y-29764801D01*
X21600055Y-29761094D01*
X21600209Y-29759316D01*
X21616621Y-29729149D01*
X21685645Y-29660005D01*
X21685647Y-29660003D01*
X21689293Y-29656350D01*
X21707926Y-29618231D01*
X21738405Y-29555878D01*
X21738405Y-29555877D01*
X21740536Y-29551518D01*
X21750500Y-29483218D01*
X21750500Y-29345777D01*
X24327724Y-29345777D01*
X24331573Y-29355871D01*
X25491210Y-30515507D01*
X25500000Y-30519148D01*
X25508790Y-30515507D01*
X26668859Y-29355439D01*
X26672285Y-29347167D01*
X26668232Y-29337791D01*
X26593463Y-29267454D01*
X26589876Y-29264550D01*
X26382406Y-29120622D01*
X26378422Y-29118276D01*
X26151972Y-29006602D01*
X26147678Y-29004867D01*
X25907198Y-28927889D01*
X25902703Y-28926810D01*
X25653496Y-28886225D01*
X25648882Y-28885821D01*
X25396403Y-28882515D01*
X25391795Y-28882797D01*
X25141603Y-28916847D01*
X25137077Y-28917809D01*
X24894666Y-28988465D01*
X24890339Y-28990082D01*
X24661040Y-29095791D01*
X24656983Y-29098040D01*
X24445830Y-29236478D01*
X24442159Y-29239295D01*
X24331404Y-29338147D01*
X24327724Y-29345777D01*
X21750500Y-29345777D01*
X21750500Y-28166782D01*
X21740358Y-28097888D01*
X21688932Y-27993145D01*
X21665077Y-27969331D01*
X21618844Y-27923179D01*
X21600500Y-27878946D01*
X21600500Y-26594064D01*
X21601900Y-26580909D01*
X21603388Y-26573998D01*
X21604951Y-26566739D01*
X21601825Y-26540323D01*
X21600933Y-26532791D01*
X21600500Y-26525445D01*
X21600500Y-26520885D01*
X21597363Y-26502036D01*
X21596948Y-26499121D01*
X21591843Y-26455993D01*
X21591236Y-26450861D01*
X21588998Y-26446200D01*
X21588078Y-26443034D01*
X21587036Y-26439990D01*
X21586188Y-26434897D01*
X21563098Y-26392105D01*
X21561761Y-26389480D01*
X21542427Y-26349217D01*
X21540726Y-26345674D01*
X21537408Y-26341726D01*
X21536992Y-26341310D01*
X21534198Y-26337999D01*
X21533232Y-26336753D01*
X21530778Y-26332206D01*
X21493451Y-26297701D01*
X21491682Y-26296000D01*
X19379002Y-24183320D01*
X19370690Y-24173028D01*
X19365628Y-24165188D01*
X19365626Y-24165185D01*
X19362825Y-24160848D01*
X19335980Y-24139685D01*
X19330479Y-24134797D01*
X19327254Y-24131572D01*
X19311711Y-24120465D01*
X19309355Y-24118696D01*
X19275246Y-24091806D01*
X19275245Y-24091805D01*
X19271189Y-24088608D01*
X19266314Y-24086896D01*
X19263445Y-24085319D01*
X19260535Y-24083893D01*
X19256331Y-24080889D01*
X19251384Y-24079410D01*
X19251381Y-24079408D01*
X19209758Y-24066961D01*
X19206956Y-24066050D01*
X19164805Y-24051247D01*
X19164796Y-24051245D01*
X19161094Y-24049945D01*
X19155956Y-24049500D01*
X19155382Y-24049500D01*
X19151051Y-24049134D01*
X19149486Y-24048936D01*
X19144536Y-24047456D01*
X19093734Y-24049452D01*
X19091280Y-24049500D01*
X7071070Y-24049500D01*
X7026876Y-24031194D01*
X6468806Y-23473124D01*
X6450500Y-23428930D01*
X6450500Y-9644064D01*
X6451900Y-9630909D01*
X6454951Y-9616739D01*
X6450933Y-9582791D01*
X6450500Y-9575445D01*
X6450500Y-9570885D01*
X6447363Y-9552036D01*
X6446948Y-9549121D01*
X6441843Y-9505993D01*
X6441236Y-9500861D01*
X6438998Y-9496200D01*
X6438078Y-9493034D01*
X6437036Y-9489990D01*
X6436188Y-9484897D01*
X6413098Y-9442105D01*
X6411761Y-9439480D01*
X6392427Y-9399217D01*
X6390726Y-9395674D01*
X6387408Y-9391726D01*
X6386992Y-9391310D01*
X6384198Y-9387999D01*
X6383232Y-9386753D01*
X6380778Y-9382206D01*
X6343451Y-9347701D01*
X6341682Y-9346000D01*
X3868806Y-6873124D01*
X3850500Y-6828930D01*
X3850500Y-1017996D01*
X4576913Y-1017996D01*
X4580611Y-1026870D01*
X4621659Y-1067560D01*
X4625173Y-1070561D01*
X4828801Y-1219868D01*
X4832718Y-1222315D01*
X5056176Y-1339883D01*
X5060422Y-1341728D01*
X5298800Y-1424973D01*
X5303267Y-1426170D01*
X5551331Y-1473266D01*
X5555924Y-1473790D01*
X5808231Y-1483703D01*
X5812845Y-1483542D01*
X6063842Y-1456054D01*
X6068402Y-1455208D01*
X6312568Y-1390925D01*
X6316946Y-1389417D01*
X6548921Y-1289753D01*
X6553047Y-1287606D01*
X6767744Y-1154747D01*
X6771492Y-1152024D01*
X6919447Y-1026771D01*
X6923804Y-1018311D01*
X6921589Y-1011391D01*
X5758790Y151407D01*
X5750000Y155048D01*
X5741210Y151407D01*
X4580523Y-1009279D01*
X4576913Y-1017996D01*
X3850500Y-1017996D01*
X3850500Y-344064D01*
X3851900Y-330909D01*
X3854951Y-316739D01*
X3850933Y-282791D01*
X3850500Y-275445D01*
X3850500Y-270885D01*
X3847363Y-252036D01*
X3846948Y-249121D01*
X3841843Y-205993D01*
X3841236Y-200861D01*
X3838998Y-196200D01*
X3838078Y-193034D01*
X3837036Y-189990D01*
X3836188Y-184897D01*
X3813098Y-142105D01*
X3811761Y-139480D01*
X3792427Y-99217D01*
X3790726Y-95674D01*
X3787408Y-91726D01*
X3786992Y-91310D01*
X3784198Y-87999D01*
X3783232Y-86753D01*
X3780778Y-82206D01*
X3743451Y-47701D01*
X3741682Y-46000D01*
X3479002Y216680D01*
X3470690Y226972D01*
X3465628Y234812D01*
X3465626Y234815D01*
X3462825Y239152D01*
X3435980Y260315D01*
X3430479Y265203D01*
X3427254Y268428D01*
X3411711Y279535D01*
X3409355Y281304D01*
X3394401Y293093D01*
X4015854Y293093D01*
X4027969Y40892D01*
X4028533Y36300D01*
X4077793Y-211348D01*
X4079028Y-215800D01*
X4164350Y-453440D01*
X4166233Y-457671D01*
X4285745Y-680093D01*
X4288231Y-683995D01*
X4439299Y-886300D01*
X4442340Y-889800D01*
X4472710Y-919906D01*
X4481590Y-923539D01*
X4490280Y-919917D01*
X5651407Y241210D01*
X5655048Y250000D01*
X5651407Y258790D01*
X4489510Y1420688D01*
X4480720Y1424329D01*
X4474187Y1421622D01*
X4339110Y1259211D01*
X4336429Y1255453D01*
X4205439Y1039588D01*
X4203340Y1035470D01*
X4105693Y802607D01*
X4104231Y798236D01*
X4042075Y553497D01*
X4041273Y548954D01*
X4015975Y297720D01*
X4015854Y293093D01*
X3394401Y293093D01*
X3375246Y308194D01*
X3375245Y308195D01*
X3371189Y311392D01*
X3366314Y313104D01*
X3363445Y314681D01*
X3360535Y316107D01*
X3356331Y319111D01*
X3351384Y320590D01*
X3351381Y320592D01*
X3309758Y333039D01*
X3306956Y333950D01*
X3264805Y348753D01*
X3264796Y348755D01*
X3261094Y350055D01*
X3255956Y350500D01*
X3255382Y350500D01*
X3251051Y350866D01*
X3249486Y351064D01*
X3244536Y352544D01*
X3193734Y350548D01*
X3191280Y350500D01*
X2938000Y350500D01*
X2893806Y368806D01*
X2875500Y413000D01*
X2875500Y476259D01*
X2893806Y520453D01*
X3061440Y688087D01*
X3070910Y695859D01*
X3082715Y703747D01*
X3082716Y703748D01*
X3087833Y707167D01*
X3102557Y729202D01*
X3102566Y729214D01*
X3142763Y789373D01*
X3142764Y789375D01*
X3146183Y794492D01*
X3166672Y897500D01*
X3162701Y917464D01*
X3161500Y929657D01*
X3161500Y1082717D01*
X3179806Y1126911D01*
X3200331Y1139309D01*
X3200026Y1139930D01*
X3303122Y1190548D01*
X3303123Y1190549D01*
X3307757Y1192824D01*
X3311404Y1196477D01*
X3388899Y1274107D01*
X3388901Y1274109D01*
X3392547Y1277762D01*
X3438805Y1372394D01*
X3443122Y1381225D01*
X3443122Y1381226D01*
X3445253Y1385585D01*
X3455500Y1455828D01*
X3455500Y1844172D01*
X3445070Y1915026D01*
X3423256Y1959456D01*
X3420211Y2007193D01*
X3451813Y2043103D01*
X3479359Y2049500D01*
X5303393Y2049500D01*
X5347587Y2031194D01*
G37*
G04 #@! TD.AperFunction*
G04 #@! TA.AperFunction,Conductor*
G36*
X17558954Y-26282306D02*
G01*
X17967694Y-26691046D01*
X17986000Y-26735240D01*
X17986000Y-27826538D01*
X17967694Y-27870732D01*
X17951046Y-27882641D01*
X17893145Y-27911068D01*
X17889499Y-27914720D01*
X17889498Y-27914721D01*
X17814355Y-27989995D01*
X17814353Y-27989997D01*
X17810707Y-27993650D01*
X17808439Y-27998290D01*
X17766908Y-28083253D01*
X17731054Y-28114919D01*
X17683310Y-28111957D01*
X17653638Y-28081177D01*
X17637094Y-28043932D01*
X17630669Y-28034583D01*
X17565015Y-27969043D01*
X17555651Y-27962632D01*
X17469832Y-27924692D01*
X17460857Y-27922245D01*
X17443416Y-27920212D01*
X17439776Y-27920000D01*
X17325931Y-27920000D01*
X17317141Y-27923641D01*
X17313500Y-27932431D01*
X17313500Y-28826000D01*
X17295194Y-28870194D01*
X17251000Y-28888500D01*
X16832431Y-28888500D01*
X16823641Y-28892141D01*
X16820000Y-28900931D01*
X16820000Y-29489755D01*
X16820218Y-29493434D01*
X16822351Y-29511354D01*
X16824809Y-29520300D01*
X16843167Y-29561629D01*
X16844377Y-29609449D01*
X16811419Y-29644119D01*
X16786048Y-29649500D01*
X13542759Y-29649500D01*
X13498565Y-29631194D01*
X13480259Y-29587000D01*
X13486609Y-29559551D01*
X13488405Y-29555877D01*
X13490536Y-29551518D01*
X13500500Y-29483218D01*
X13500500Y-28749069D01*
X16820000Y-28749069D01*
X16823641Y-28757859D01*
X16832431Y-28761500D01*
X17174069Y-28761500D01*
X17182859Y-28757859D01*
X17186500Y-28749069D01*
X17186500Y-27932431D01*
X17182859Y-27923641D01*
X17174069Y-27920000D01*
X17060245Y-27920000D01*
X17056566Y-27920218D01*
X17038646Y-27922351D01*
X17029700Y-27924809D01*
X16943932Y-27962906D01*
X16934583Y-27969331D01*
X16869043Y-28034985D01*
X16862632Y-28044349D01*
X16824692Y-28130168D01*
X16822245Y-28139143D01*
X16820212Y-28156584D01*
X16820000Y-28160224D01*
X16820000Y-28749069D01*
X13500500Y-28749069D01*
X13500500Y-28166782D01*
X13490358Y-28097888D01*
X13438932Y-27993145D01*
X13435279Y-27989498D01*
X13360005Y-27914355D01*
X13360003Y-27914353D01*
X13356350Y-27910707D01*
X13291374Y-27878946D01*
X13255878Y-27861595D01*
X13255877Y-27861595D01*
X13251518Y-27859464D01*
X13246715Y-27858763D01*
X13246714Y-27858763D01*
X13226752Y-27855851D01*
X13183218Y-27849500D01*
X12816782Y-27849500D01*
X12814535Y-27849831D01*
X12814532Y-27849831D01*
X12790338Y-27853393D01*
X12747888Y-27859642D01*
X12643145Y-27911068D01*
X12639499Y-27914720D01*
X12639498Y-27914721D01*
X12564355Y-27989995D01*
X12564353Y-27989997D01*
X12560707Y-27993650D01*
X12558440Y-27998288D01*
X12558437Y-27998292D01*
X12556105Y-28003064D01*
X12520251Y-28034730D01*
X12472508Y-28031769D01*
X12443852Y-28003165D01*
X12441208Y-27997780D01*
X12441207Y-27997778D01*
X12438932Y-27993145D01*
X12435279Y-27989498D01*
X12360005Y-27914355D01*
X12360003Y-27914353D01*
X12356350Y-27910707D01*
X12299052Y-27882699D01*
X12267387Y-27846844D01*
X12264000Y-27826548D01*
X12264000Y-27582152D01*
X12265201Y-27569960D01*
X12267970Y-27556038D01*
X12269171Y-27550000D01*
X12264000Y-27524002D01*
X12264000Y-27523998D01*
X12248683Y-27446992D01*
X12190333Y-27359667D01*
X12173407Y-27348357D01*
X12163937Y-27340585D01*
X11194046Y-26370694D01*
X11175740Y-26326500D01*
X11194046Y-26282306D01*
X11238240Y-26264000D01*
X17514760Y-26264000D01*
X17558954Y-26282306D01*
G37*
G04 #@! TD.AperFunction*
M02*
