M48
; DRILL file {KiCad (6.0.7)} date Sun Oct  9 17:58:58 2022
; FORMAT={-:-/ absolute / metric / decimal}
; #@! TF.CreationDate,2022-10-09T17:58:58+08:00
; #@! TF.GenerationSoftware,Kicad,Pcbnew,(6.0.7)
; #@! TF.FileFunction,Plated,1,2,PTH
FMAT,2
METRIC
; #@! TA.AperFunction,Plated,PTH,ViaDrill
T1C0.400
; #@! TA.AperFunction,Plated,PTH,ComponentDrill
T2C0.800
%
G90
G05
T1
X165.265Y-93.0
X165.265Y-94.0
X165.265Y-95.0
X165.265Y-96.0
X165.265Y-106.0
X165.265Y-107.0
X165.265Y-108.0
X165.265Y-109.0
T2
X140.015Y-89.5
X140.015Y-91.5
X140.015Y-93.5
X140.015Y-95.5
X140.015Y-97.5
X140.015Y-99.5
X140.015Y-101.5
X140.015Y-103.5
X140.015Y-105.5
X140.015Y-107.5
X140.015Y-109.5
X140.015Y-111.5
X140.015Y-113.5
X142.015Y-89.5
X142.015Y-91.5
X142.015Y-93.5
X142.015Y-95.5
X142.015Y-97.5
X142.015Y-99.5
X142.015Y-101.5
X142.015Y-103.5
X142.015Y-105.5
X142.015Y-107.5
X142.015Y-109.5
X142.015Y-111.5
X142.015Y-113.5
X145.515Y-91.35
X145.515Y-93.89
X145.515Y-96.43
X145.515Y-98.97
X145.515Y-101.51
X145.515Y-104.05
X145.515Y-106.59
X145.515Y-109.13
X145.515Y-111.67
X153.135Y-91.35
X153.135Y-93.89
X153.135Y-96.43
X153.135Y-98.97
X153.135Y-101.51
X153.135Y-104.05
X153.135Y-106.59
X153.135Y-109.13
X153.135Y-111.67
T0
M30
