G04 #@! TF.GenerationSoftware,KiCad,Pcbnew,(6.0.7)*
G04 #@! TF.CreationDate,2022-10-21T23:47:13+08:00*
G04 #@! TF.ProjectId,pcb_front,7063625f-6672-46f6-9e74-2e6b69636164,rev?*
G04 #@! TF.SameCoordinates,Original*
G04 #@! TF.FileFunction,Legend,Top*
G04 #@! TF.FilePolarity,Positive*
%FSLAX46Y46*%
G04 Gerber Fmt 4.6, Leading zero omitted, Abs format (unit mm)*
G04 Created by KiCad (PCBNEW (6.0.7)) date 2022-10-21 23:47:13*
%MOMM*%
%LPD*%
G01*
G04 APERTURE LIST*
G04 Aperture macros list*
%AMRoundRect*
0 Rectangle with rounded corners*
0 $1 Rounding radius*
0 $2 $3 $4 $5 $6 $7 $8 $9 X,Y pos of 4 corners*
0 Add a 4 corners polygon primitive as box body*
4,1,4,$2,$3,$4,$5,$6,$7,$8,$9,$2,$3,0*
0 Add four circle primitives for the rounded corners*
1,1,$1+$1,$2,$3*
1,1,$1+$1,$4,$5*
1,1,$1+$1,$6,$7*
1,1,$1+$1,$8,$9*
0 Add four rect primitives between the rounded corners*
20,1,$1+$1,$2,$3,$4,$5,0*
20,1,$1+$1,$4,$5,$6,$7,0*
20,1,$1+$1,$6,$7,$8,$9,0*
20,1,$1+$1,$8,$9,$2,$3,0*%
G04 Aperture macros list end*
%ADD10C,0.150000*%
%ADD11C,0.120000*%
%ADD12C,0.100000*%
%ADD13C,3.200000*%
%ADD14RoundRect,0.160000X-0.197500X-0.160000X0.197500X-0.160000X0.197500X0.160000X-0.197500X0.160000X0*%
%ADD15RoundRect,0.150000X0.150000X0.625000X-0.150000X0.625000X-0.150000X-0.625000X0.150000X-0.625000X0*%
%ADD16RoundRect,0.250000X0.350000X0.650000X-0.350000X0.650000X-0.350000X-0.650000X0.350000X-0.650000X0*%
%ADD17RoundRect,0.160000X-0.222500X-0.160000X0.222500X-0.160000X0.222500X0.160000X-0.222500X0.160000X0*%
%ADD18R,1.350000X1.350000*%
%ADD19O,1.350000X1.350000*%
G04 APERTURE END LIST*
D10*
X18607142Y-27302380D02*
X18130952Y-27302380D01*
X18130952Y-26302380D01*
X18940476Y-26778571D02*
X19273809Y-26778571D01*
X19416666Y-27302380D02*
X18940476Y-27302380D01*
X18940476Y-26302380D01*
X19416666Y-26302380D01*
X19845238Y-27302380D02*
X19845238Y-26302380D01*
X20083333Y-26302380D01*
X20226190Y-26350000D01*
X20321428Y-26445238D01*
X20369047Y-26540476D01*
X20416666Y-26730952D01*
X20416666Y-26873809D01*
X20369047Y-27064285D01*
X20321428Y-27159523D01*
X20226190Y-27254761D01*
X20083333Y-27302380D01*
X19845238Y-27302380D01*
X4047619Y-8928571D02*
X5047619Y-8928571D01*
X4333333Y-9261904D01*
X5047619Y-9595238D01*
X4047619Y-9595238D01*
X4047619Y-10071428D02*
X4714285Y-10071428D01*
X5047619Y-10071428D02*
X5000000Y-10023809D01*
X4952380Y-10071428D01*
X5000000Y-10119047D01*
X5047619Y-10071428D01*
X4952380Y-10071428D01*
X4095238Y-10976190D02*
X4047619Y-10880952D01*
X4047619Y-10690476D01*
X4095238Y-10595238D01*
X4142857Y-10547619D01*
X4238095Y-10500000D01*
X4523809Y-10500000D01*
X4619047Y-10547619D01*
X4666666Y-10595238D01*
X4714285Y-10690476D01*
X4714285Y-10880952D01*
X4666666Y-10976190D01*
X4047619Y-11404761D02*
X4714285Y-11404761D01*
X4523809Y-11404761D02*
X4619047Y-11452380D01*
X4666666Y-11500000D01*
X4714285Y-11595238D01*
X4714285Y-11690476D01*
X4047619Y-12166666D02*
X4095238Y-12071428D01*
X4142857Y-12023809D01*
X4238095Y-11976190D01*
X4523809Y-11976190D01*
X4619047Y-12023809D01*
X4666666Y-12071428D01*
X4714285Y-12166666D01*
X4714285Y-12309523D01*
X4666666Y-12404761D01*
X4619047Y-12452380D01*
X4523809Y-12500000D01*
X4238095Y-12500000D01*
X4142857Y-12452380D01*
X4095238Y-12404761D01*
X4047619Y-12309523D01*
X4047619Y-12166666D01*
X4047619Y-13404761D02*
X4047619Y-12928571D01*
X5047619Y-12928571D01*
X4047619Y-14166666D02*
X4571428Y-14166666D01*
X4666666Y-14119047D01*
X4714285Y-14023809D01*
X4714285Y-13833333D01*
X4666666Y-13738095D01*
X4095238Y-14166666D02*
X4047619Y-14071428D01*
X4047619Y-13833333D01*
X4095238Y-13738095D01*
X4190476Y-13690476D01*
X4285714Y-13690476D01*
X4380952Y-13738095D01*
X4428571Y-13833333D01*
X4428571Y-14071428D01*
X4476190Y-14166666D01*
X4047619Y-14642857D02*
X5047619Y-14642857D01*
X4666666Y-14642857D02*
X4714285Y-14738095D01*
X4714285Y-14928571D01*
X4666666Y-15023809D01*
X4619047Y-15071428D01*
X4523809Y-15119047D01*
X4238095Y-15119047D01*
X4142857Y-15071428D01*
X4095238Y-15023809D01*
X4047619Y-14928571D01*
X4047619Y-14738095D01*
X4095238Y-14642857D01*
X12004761Y-22061904D02*
X12004761Y-22633333D01*
X11966666Y-22747619D01*
X11890476Y-22823809D01*
X11776190Y-22861904D01*
X11700000Y-22861904D01*
X12766666Y-22861904D02*
X12385714Y-22861904D01*
X12385714Y-22061904D01*
X13490476Y-22785714D02*
X13452380Y-22823809D01*
X13338095Y-22861904D01*
X13261904Y-22861904D01*
X13147619Y-22823809D01*
X13071428Y-22747619D01*
X13033333Y-22671428D01*
X12995238Y-22519047D01*
X12995238Y-22404761D01*
X13033333Y-22252380D01*
X13071428Y-22176190D01*
X13147619Y-22100000D01*
X13261904Y-22061904D01*
X13338095Y-22061904D01*
X13452380Y-22100000D01*
X13490476Y-22138095D01*
X14061904Y-22061904D02*
X14061904Y-22633333D01*
X14023809Y-22747619D01*
X13947619Y-22823809D01*
X13833333Y-22861904D01*
X13757142Y-22861904D01*
X14823809Y-22861904D02*
X14442857Y-22861904D01*
X14442857Y-22061904D01*
X15547619Y-22785714D02*
X15509523Y-22823809D01*
X15395238Y-22861904D01*
X15319047Y-22861904D01*
X15204761Y-22823809D01*
X15128571Y-22747619D01*
X15090476Y-22671428D01*
X15052380Y-22519047D01*
X15052380Y-22404761D01*
X15090476Y-22252380D01*
X15128571Y-22176190D01*
X15204761Y-22100000D01*
X15319047Y-22061904D01*
X15395238Y-22061904D01*
X15509523Y-22100000D01*
X15547619Y-22138095D01*
X16119047Y-22061904D02*
X16119047Y-22633333D01*
X16080952Y-22747619D01*
X16004761Y-22823809D01*
X15890476Y-22861904D01*
X15814285Y-22861904D01*
X16880952Y-22861904D02*
X16500000Y-22861904D01*
X16500000Y-22061904D01*
X17604761Y-22785714D02*
X17566666Y-22823809D01*
X17452380Y-22861904D01*
X17376190Y-22861904D01*
X17261904Y-22823809D01*
X17185714Y-22747619D01*
X17147619Y-22671428D01*
X17109523Y-22519047D01*
X17109523Y-22404761D01*
X17147619Y-22252380D01*
X17185714Y-22176190D01*
X17261904Y-22100000D01*
X17376190Y-22061904D01*
X17452380Y-22061904D01*
X17566666Y-22100000D01*
X17604761Y-22138095D01*
X18176190Y-22061904D02*
X18176190Y-22633333D01*
X18138095Y-22747619D01*
X18061904Y-22823809D01*
X17947619Y-22861904D01*
X17871428Y-22861904D01*
X18938095Y-22861904D02*
X18557142Y-22861904D01*
X18557142Y-22061904D01*
X19661904Y-22785714D02*
X19623809Y-22823809D01*
X19509523Y-22861904D01*
X19433333Y-22861904D01*
X19319047Y-22823809D01*
X19242857Y-22747619D01*
X19204761Y-22671428D01*
X19166666Y-22519047D01*
X19166666Y-22404761D01*
X19204761Y-22252380D01*
X19242857Y-22176190D01*
X19319047Y-22100000D01*
X19433333Y-22061904D01*
X19509523Y-22061904D01*
X19623809Y-22100000D01*
X19661904Y-22138095D01*
X8761904Y-27254761D02*
X8904761Y-27302380D01*
X9142857Y-27302380D01*
X9238095Y-27254761D01*
X9285714Y-27207142D01*
X9333333Y-27111904D01*
X9333333Y-27016666D01*
X9285714Y-26921428D01*
X9238095Y-26873809D01*
X9142857Y-26826190D01*
X8952380Y-26778571D01*
X8857142Y-26730952D01*
X8809523Y-26683333D01*
X8761904Y-26588095D01*
X8761904Y-26492857D01*
X8809523Y-26397619D01*
X8857142Y-26350000D01*
X8952380Y-26302380D01*
X9190476Y-26302380D01*
X9333333Y-26350000D01*
X10142857Y-27254761D02*
X10047619Y-27302380D01*
X9857142Y-27302380D01*
X9761904Y-27254761D01*
X9714285Y-27159523D01*
X9714285Y-26778571D01*
X9761904Y-26683333D01*
X9857142Y-26635714D01*
X10047619Y-26635714D01*
X10142857Y-26683333D01*
X10190476Y-26778571D01*
X10190476Y-26873809D01*
X9714285Y-26969047D01*
X10619047Y-26635714D02*
X10619047Y-27302380D01*
X10619047Y-26730952D02*
X10666666Y-26683333D01*
X10761904Y-26635714D01*
X10904761Y-26635714D01*
X11000000Y-26683333D01*
X11047619Y-26778571D01*
X11047619Y-27302380D01*
X11476190Y-27254761D02*
X11571428Y-27302380D01*
X11761904Y-27302380D01*
X11857142Y-27254761D01*
X11904761Y-27159523D01*
X11904761Y-27111904D01*
X11857142Y-27016666D01*
X11761904Y-26969047D01*
X11619047Y-26969047D01*
X11523809Y-26921428D01*
X11476190Y-26826190D01*
X11476190Y-26778571D01*
X11523809Y-26683333D01*
X11619047Y-26635714D01*
X11761904Y-26635714D01*
X11857142Y-26683333D01*
X12476190Y-27302380D02*
X12380952Y-27254761D01*
X12333333Y-27207142D01*
X12285714Y-27111904D01*
X12285714Y-26826190D01*
X12333333Y-26730952D01*
X12380952Y-26683333D01*
X12476190Y-26635714D01*
X12619047Y-26635714D01*
X12714285Y-26683333D01*
X12761904Y-26730952D01*
X12809523Y-26826190D01*
X12809523Y-27111904D01*
X12761904Y-27207142D01*
X12714285Y-27254761D01*
X12619047Y-27302380D01*
X12476190Y-27302380D01*
X13238095Y-27302380D02*
X13238095Y-26635714D01*
X13238095Y-26826190D02*
X13285714Y-26730952D01*
X13333333Y-26683333D01*
X13428571Y-26635714D01*
X13523809Y-26635714D01*
X13809523Y-27254761D02*
X13904761Y-27302380D01*
X14095238Y-27302380D01*
X14190476Y-27254761D01*
X14238095Y-27159523D01*
X14238095Y-27111904D01*
X14190476Y-27016666D01*
X14095238Y-26969047D01*
X13952380Y-26969047D01*
X13857142Y-26921428D01*
X13809523Y-26826190D01*
X13809523Y-26778571D01*
X13857142Y-26683333D01*
X13952380Y-26635714D01*
X14095238Y-26635714D01*
X14190476Y-26683333D01*
X2133333Y2367619D02*
X1800000Y2843809D01*
X1561904Y2367619D02*
X1561904Y3367619D01*
X1942857Y3367619D01*
X2038095Y3320000D01*
X2085714Y3272380D01*
X2133333Y3177142D01*
X2133333Y3034285D01*
X2085714Y2939047D01*
X2038095Y2891428D01*
X1942857Y2843809D01*
X1561904Y2843809D01*
X3085714Y2367619D02*
X2514285Y2367619D01*
X2800000Y2367619D02*
X2800000Y3367619D01*
X2704761Y3224761D01*
X2609523Y3129523D01*
X2514285Y3081904D01*
X11166666Y-32902380D02*
X11166666Y-33616666D01*
X11119047Y-33759523D01*
X11023809Y-33854761D01*
X10880952Y-33902380D01*
X10785714Y-33902380D01*
X11595238Y-32997619D02*
X11642857Y-32950000D01*
X11738095Y-32902380D01*
X11976190Y-32902380D01*
X12071428Y-32950000D01*
X12119047Y-32997619D01*
X12166666Y-33092857D01*
X12166666Y-33188095D01*
X12119047Y-33330952D01*
X11547619Y-33902380D01*
X12166666Y-33902380D01*
X-1010595Y2367619D02*
X-1010595Y3367619D01*
X-772500Y3367619D01*
X-629642Y3320000D01*
X-534404Y3224761D01*
X-486785Y3129523D01*
X-439166Y2939047D01*
X-439166Y2796190D01*
X-486785Y2605714D01*
X-534404Y2510476D01*
X-629642Y2415238D01*
X-772500Y2367619D01*
X-1010595Y2367619D01*
X513214Y2367619D02*
X-58214Y2367619D01*
X227499Y2367619D02*
X227499Y3367619D01*
X132261Y3224761D01*
X37023Y3129523D01*
X-58214Y3081904D01*
X18916666Y-32902380D02*
X18916666Y-33616666D01*
X18869047Y-33759523D01*
X18773809Y-33854761D01*
X18630952Y-33902380D01*
X18535714Y-33902380D01*
X19297619Y-32902380D02*
X19916666Y-32902380D01*
X19583333Y-33283333D01*
X19726190Y-33283333D01*
X19821428Y-33330952D01*
X19869047Y-33378571D01*
X19916666Y-33473809D01*
X19916666Y-33711904D01*
X19869047Y-33807142D01*
X19821428Y-33854761D01*
X19726190Y-33902380D01*
X19440476Y-33902380D01*
X19345238Y-33854761D01*
X19297619Y-33807142D01*
D11*
X2132379Y2030000D02*
X2467621Y2030000D01*
X2132379Y1270000D02*
X2467621Y1270000D01*
X8390000Y-30190000D02*
X8390000Y-29040000D01*
X13560000Y-29040000D02*
X13560000Y-28050000D01*
X8390000Y-29040000D02*
X9440000Y-29040000D01*
X13440000Y-32160000D02*
X9560000Y-32160000D01*
X14610000Y-29040000D02*
X13560000Y-29040000D01*
X14610000Y-30190000D02*
X14610000Y-29040000D01*
D12*
X-1487500Y1650000D02*
G75*
G03*
X-1487500Y1650000I-50000J0D01*
G01*
D11*
X15640000Y-30190000D02*
X15640000Y-29040000D01*
X21810000Y-29040000D02*
X21810000Y-28050000D01*
X22860000Y-30190000D02*
X22860000Y-29040000D01*
X22860000Y-29040000D02*
X21810000Y-29040000D01*
X21690000Y-32160000D02*
X16810000Y-32160000D01*
X15640000Y-29040000D02*
X16690000Y-29040000D01*
%LPC*%
D13*
X5750000Y-30614100D03*
D14*
X1702500Y1650000D03*
X2897500Y1650000D03*
D13*
X5750000Y250000D03*
D15*
X13000000Y-28825000D03*
X12000000Y-28825000D03*
X11000000Y-28825000D03*
X10000000Y-28825000D03*
D16*
X8700000Y-31350000D03*
X14300000Y-31350000D03*
D13*
X25500000Y-30614100D03*
D17*
X-845000Y1650000D03*
X300000Y1650000D03*
D15*
X21250000Y-28825000D03*
X20250000Y-28825000D03*
X19250000Y-28825000D03*
X18250000Y-28825000D03*
X17250000Y-28825000D03*
D16*
X15950000Y-31350000D03*
X22550000Y-31350000D03*
D18*
X2000000Y0D03*
D19*
X0Y0D03*
X2000000Y-2000000D03*
X0Y-2000000D03*
X2000000Y-4000000D03*
X0Y-4000000D03*
X2000000Y-6000000D03*
X0Y-6000000D03*
X2000000Y-8000000D03*
X0Y-8000000D03*
X2000000Y-10000000D03*
X0Y-10000000D03*
X2000000Y-12000000D03*
X0Y-12000000D03*
X2000000Y-14000000D03*
X0Y-14000000D03*
X2000000Y-16000000D03*
X0Y-16000000D03*
X2000000Y-18000000D03*
X0Y-18000000D03*
X2000000Y-20000000D03*
X0Y-20000000D03*
X2000000Y-22000000D03*
X0Y-22000000D03*
X2000000Y-24000000D03*
X0Y-24000000D03*
M02*
