G04 #@! TF.GenerationSoftware,KiCad,Pcbnew,(6.0.7)*
G04 #@! TF.CreationDate,2022-10-09T17:58:56+08:00*
G04 #@! TF.ProjectId,pcb_front,7063625f-6672-46f6-9e74-2e6b69636164,rev?*
G04 #@! TF.SameCoordinates,Original*
G04 #@! TF.FileFunction,Copper,L1,Top*
G04 #@! TF.FilePolarity,Positive*
%FSLAX46Y46*%
G04 Gerber Fmt 4.6, Leading zero omitted, Abs format (unit mm)*
G04 Created by KiCad (PCBNEW (6.0.7)) date 2022-10-09 17:58:56*
%MOMM*%
%LPD*%
G01*
G04 APERTURE LIST*
G04 Aperture macros list*
%AMRoundRect*
0 Rectangle with rounded corners*
0 $1 Rounding radius*
0 $2 $3 $4 $5 $6 $7 $8 $9 X,Y pos of 4 corners*
0 Add a 4 corners polygon primitive as box body*
4,1,4,$2,$3,$4,$5,$6,$7,$8,$9,$2,$3,0*
0 Add four circle primitives for the rounded corners*
1,1,$1+$1,$2,$3*
1,1,$1+$1,$4,$5*
1,1,$1+$1,$6,$7*
1,1,$1+$1,$8,$9*
0 Add four rect primitives between the rounded corners*
20,1,$1+$1,$2,$3,$4,$5,0*
20,1,$1+$1,$4,$5,$6,$7,0*
20,1,$1+$1,$6,$7,$8,$9,0*
20,1,$1+$1,$8,$9,$2,$3,0*%
%AMFreePoly0*
4,1,6,1.000000,0.000000,0.500000,-0.750000,-0.500000,-0.750000,-0.500000,0.750000,0.500000,0.750000,1.000000,0.000000,1.000000,0.000000,$1*%
%AMFreePoly1*
4,1,6,0.500000,-0.750000,-0.650000,-0.750000,-0.150000,0.000000,-0.650000,0.750000,0.500000,0.750000,0.500000,-0.750000,0.500000,-0.750000,$1*%
G04 Aperture macros list end*
G04 #@! TA.AperFunction,ComponentPad*
%ADD10O,1.350000X1.350000*%
G04 #@! TD*
G04 #@! TA.AperFunction,ComponentPad*
%ADD11R,1.350000X1.350000*%
G04 #@! TD*
G04 #@! TA.AperFunction,SMDPad,CuDef*
%ADD12RoundRect,0.218750X-0.218750X-0.256250X0.218750X-0.256250X0.218750X0.256250X-0.218750X0.256250X0*%
G04 #@! TD*
G04 #@! TA.AperFunction,SMDPad,CuDef*
%ADD13RoundRect,0.150000X0.625000X-0.150000X0.625000X0.150000X-0.625000X0.150000X-0.625000X-0.150000X0*%
G04 #@! TD*
G04 #@! TA.AperFunction,SMDPad,CuDef*
%ADD14RoundRect,0.250000X0.650000X-0.350000X0.650000X0.350000X-0.650000X0.350000X-0.650000X-0.350000X0*%
G04 #@! TD*
G04 #@! TA.AperFunction,ComponentPad*
%ADD15O,1.600000X1.600000*%
G04 #@! TD*
G04 #@! TA.AperFunction,ComponentPad*
%ADD16R,1.600000X1.600000*%
G04 #@! TD*
G04 #@! TA.AperFunction,SMDPad,CuDef*
%ADD17RoundRect,0.200000X0.200000X0.275000X-0.200000X0.275000X-0.200000X-0.275000X0.200000X-0.275000X0*%
G04 #@! TD*
G04 #@! TA.AperFunction,SMDPad,CuDef*
%ADD18RoundRect,0.218750X0.218750X0.256250X-0.218750X0.256250X-0.218750X-0.256250X0.218750X-0.256250X0*%
G04 #@! TD*
G04 #@! TA.AperFunction,SMDPad,CuDef*
%ADD19FreePoly0,180.000000*%
G04 #@! TD*
G04 #@! TA.AperFunction,SMDPad,CuDef*
%ADD20FreePoly1,180.000000*%
G04 #@! TD*
G04 #@! TA.AperFunction,ViaPad*
%ADD21C,0.800000*%
G04 #@! TD*
G04 #@! TA.AperFunction,Conductor*
%ADD22C,0.300000*%
G04 #@! TD*
G04 #@! TA.AperFunction,Conductor*
%ADD23C,0.127000*%
G04 #@! TD*
G04 APERTURE END LIST*
D10*
X140015000Y-113500000D03*
X142015000Y-113500000D03*
X140015000Y-111500000D03*
X142015000Y-111500000D03*
X140015000Y-109500000D03*
X142015000Y-109500000D03*
X140015000Y-107500000D03*
X142015000Y-107500000D03*
X140015000Y-105500000D03*
X142015000Y-105500000D03*
X140015000Y-103500000D03*
X142015000Y-103500000D03*
X140015000Y-101500000D03*
X142015000Y-101500000D03*
X140015000Y-99500000D03*
X142015000Y-99500000D03*
X140015000Y-97500000D03*
X142015000Y-97500000D03*
X140015000Y-95500000D03*
X142015000Y-95500000D03*
X140015000Y-93500000D03*
X142015000Y-93500000D03*
X140015000Y-91500000D03*
X142015000Y-91500000D03*
X140015000Y-89500000D03*
D11*
X142015000Y-89500000D03*
D12*
X148527500Y-89020000D03*
X150102500Y-89020000D03*
D13*
X163700000Y-111000000D03*
X163700000Y-110000000D03*
X163700000Y-109000000D03*
X163700000Y-108000000D03*
X163700000Y-107000000D03*
X163700000Y-106000000D03*
X163700000Y-105000000D03*
D14*
X167575000Y-103700000D03*
X167575000Y-112300000D03*
D15*
X153135000Y-91350000D03*
X153135000Y-93890000D03*
X153135000Y-96430000D03*
X153135000Y-98970000D03*
X153135000Y-101510000D03*
X153135000Y-104050000D03*
X153135000Y-106590000D03*
X153135000Y-109130000D03*
X153135000Y-111670000D03*
X145515000Y-111670000D03*
X145515000Y-109130000D03*
X145515000Y-106590000D03*
X145515000Y-104050000D03*
X145515000Y-101510000D03*
X145515000Y-98970000D03*
X145515000Y-96430000D03*
X145515000Y-93890000D03*
D16*
X145515000Y-91350000D03*
D17*
X155475000Y-111610000D03*
X157125000Y-111610000D03*
D18*
X158687500Y-111610000D03*
X160262500Y-111610000D03*
D14*
X167575000Y-97300000D03*
X167575000Y-90700000D03*
D13*
X163700000Y-92000000D03*
X163700000Y-93000000D03*
X163700000Y-94000000D03*
X163700000Y-95000000D03*
X163700000Y-96000000D03*
D17*
X155475000Y-109120000D03*
X157125000Y-109120000D03*
X155475000Y-106580000D03*
X157125000Y-106580000D03*
X157125000Y-104040000D03*
X155475000Y-104040000D03*
X157125000Y-101500000D03*
X155475000Y-101500000D03*
X157125000Y-98960000D03*
X155475000Y-98960000D03*
X157125000Y-96420000D03*
X155475000Y-96420000D03*
X155475000Y-93880000D03*
X157125000Y-93880000D03*
X157125000Y-91340000D03*
X155475000Y-91340000D03*
D19*
X158612500Y-89308000D03*
D20*
X157162500Y-89308000D03*
D18*
X158687500Y-109120000D03*
X160262500Y-109120000D03*
X160262500Y-106580000D03*
X158687500Y-106580000D03*
X160262500Y-104040000D03*
X158687500Y-104040000D03*
X158527500Y-101500000D03*
X160102500Y-101500000D03*
X158687500Y-98960000D03*
X160262500Y-98960000D03*
X158687500Y-96420000D03*
X160262500Y-96420000D03*
X158687500Y-93880000D03*
X160262500Y-93880000D03*
X158687500Y-91340000D03*
X160262500Y-91340000D03*
D21*
X165265000Y-93000000D03*
X165265000Y-94000497D03*
X165265000Y-95000000D03*
X165265000Y-96000000D03*
X165265000Y-106000000D03*
X165265000Y-107000000D03*
X165265000Y-108000000D03*
X165265000Y-109000000D03*
D22*
X150102500Y-107082500D02*
X150102500Y-89020000D01*
X145412000Y-89020000D02*
X145163500Y-89268500D01*
X148527500Y-89020000D02*
X145412000Y-89020000D01*
X145163500Y-89268500D02*
X145378000Y-89054000D01*
X144932000Y-89500000D02*
X145163500Y-89268500D01*
D23*
X157125000Y-111610000D02*
X158687500Y-111610000D01*
X158687500Y-109120000D02*
X157125000Y-109120000D01*
X157125000Y-106580000D02*
X158687500Y-106580000D01*
X157125000Y-104040000D02*
X158687500Y-104040000D01*
X158527500Y-101500000D02*
X157125000Y-101500000D01*
X157125000Y-98960000D02*
X158687500Y-98960000D01*
X157125000Y-96420000D02*
X158687500Y-96420000D01*
X157125000Y-93880000D02*
X158687500Y-93880000D01*
X157125000Y-91340000D02*
X158687500Y-91340000D01*
X165265000Y-93000000D02*
X163700000Y-93000000D01*
X163700497Y-94000497D02*
X163700000Y-94000000D01*
X165265000Y-94000497D02*
X163700497Y-94000497D01*
X165265000Y-95000000D02*
X163700000Y-95000000D01*
X165265000Y-96000000D02*
X163700000Y-96000000D01*
X153135000Y-91350000D02*
X155465000Y-91350000D01*
X155465000Y-91350000D02*
X155475000Y-91340000D01*
X153135000Y-93890000D02*
X155465000Y-93890000D01*
X155465000Y-93890000D02*
X155475000Y-93880000D01*
X155465000Y-96430000D02*
X155475000Y-96420000D01*
X153135000Y-96430000D02*
X155465000Y-96430000D01*
X155465000Y-98970000D02*
X155475000Y-98960000D01*
X153135000Y-98970000D02*
X155465000Y-98970000D01*
X155465000Y-101510000D02*
X155475000Y-101500000D01*
X153135000Y-101510000D02*
X155465000Y-101510000D01*
X155465000Y-104050000D02*
X155475000Y-104040000D01*
X153135000Y-104050000D02*
X155465000Y-104050000D01*
X155465000Y-106590000D02*
X155475000Y-106580000D01*
X153135000Y-106590000D02*
X155465000Y-106590000D01*
X155465000Y-109130000D02*
X155475000Y-109120000D01*
X153135000Y-109130000D02*
X155465000Y-109130000D01*
X165265000Y-106000000D02*
X163700000Y-106000000D01*
X165265000Y-107000000D02*
X163700000Y-107000000D01*
X165265000Y-108000000D02*
X163700000Y-108000000D01*
X165265000Y-109000000D02*
X163700000Y-109000000D01*
X163115000Y-110000000D02*
X161765000Y-111350000D01*
X163700000Y-110000000D02*
X163115000Y-110000000D01*
X161765000Y-111350000D02*
X161765000Y-113200000D01*
X162215000Y-113350000D02*
X162215000Y-111550000D01*
X161265000Y-114300000D02*
X162215000Y-113350000D01*
X160765000Y-114300000D02*
X161265000Y-114300000D01*
X162765000Y-111000000D02*
X163700000Y-111000000D01*
X143815000Y-114300000D02*
X160765000Y-114300000D01*
X162215000Y-111550000D02*
X162765000Y-111000000D01*
X161765000Y-113200000D02*
X161065000Y-113900000D01*
X144115000Y-113900000D02*
X161065000Y-113900000D01*
X143215000Y-113700000D02*
X143815000Y-114300000D01*
X143215000Y-111100000D02*
X143215000Y-113700000D01*
X143715000Y-113500000D02*
X144115000Y-113900000D01*
X143715000Y-110900000D02*
X143715000Y-113500000D01*
X142315000Y-109500000D02*
X143715000Y-110900000D01*
X142015000Y-109500000D02*
X142315000Y-109500000D01*
X142615000Y-110500000D02*
X143215000Y-111100000D01*
X140015000Y-109500000D02*
X141015000Y-110500000D01*
X141015000Y-110500000D02*
X142615000Y-110500000D01*
X154265000Y-110400000D02*
X146785000Y-110400000D01*
D22*
X146295000Y-110890000D02*
X145515000Y-111670000D01*
X150102500Y-107082500D02*
X146295000Y-110890000D01*
D23*
X155475000Y-111610000D02*
X154265000Y-110400000D01*
X146785000Y-110400000D02*
X146295000Y-110890000D01*
D22*
X160262500Y-91340000D02*
X160262500Y-111610000D01*
X160262500Y-90222500D02*
X159348000Y-89308000D01*
X160262500Y-91340000D02*
X160262500Y-90222500D01*
X159348000Y-89308000D02*
X158612500Y-89308000D01*
X142000000Y-89500000D02*
X144932000Y-89500000D01*
X140000000Y-89500000D02*
X142000000Y-89500000D01*
D23*
X144235000Y-95170000D02*
X145515000Y-93890000D01*
X144235000Y-96928000D02*
X144235000Y-95170000D01*
X142620017Y-98542983D02*
X144235000Y-96928000D01*
X140957017Y-98542983D02*
X142620017Y-98542983D01*
X140000000Y-99500000D02*
X140957017Y-98542983D01*
X146965500Y-96801000D02*
X146965500Y-92800500D01*
X144997000Y-97690000D02*
X146076500Y-97690000D01*
X143155500Y-99531500D02*
X144997000Y-97690000D01*
X143155500Y-100344500D02*
X143155500Y-99531500D01*
X142000000Y-101500000D02*
X143155500Y-100344500D01*
X146076500Y-97690000D02*
X146965500Y-96801000D01*
X146965500Y-92800500D02*
X145515000Y-91350000D01*
X142445000Y-99500000D02*
X142000000Y-99500000D01*
X145515000Y-96430000D02*
X142445000Y-99500000D01*
G04 #@! TA.AperFunction,Conductor*
G36*
X167984135Y-88202090D02*
G01*
X167999642Y-88205656D01*
X168006507Y-88204103D01*
X168008404Y-88204106D01*
X168025687Y-88203030D01*
X168052351Y-88205656D01*
X168149851Y-88215259D01*
X168161860Y-88217647D01*
X168267508Y-88249696D01*
X168300068Y-88259573D01*
X168311387Y-88264262D01*
X168438748Y-88332337D01*
X168448936Y-88339144D01*
X168560576Y-88430765D01*
X168569239Y-88439429D01*
X168660854Y-88551063D01*
X168667661Y-88561250D01*
X168735739Y-88688614D01*
X168740428Y-88699933D01*
X168772377Y-88805252D01*
X168782352Y-88838136D01*
X168784742Y-88850153D01*
X168796927Y-88973881D01*
X168795928Y-88989500D01*
X168795922Y-88992781D01*
X168794345Y-88999641D01*
X168795898Y-89006504D01*
X168795898Y-89006505D01*
X168797960Y-89015617D01*
X168799501Y-89029411D01*
X168799501Y-90282646D01*
X168781195Y-90326840D01*
X168737001Y-90345146D01*
X168692807Y-90326840D01*
X168674778Y-90288528D01*
X168672877Y-90268422D01*
X168672519Y-90264631D01*
X168651919Y-90205969D01*
X168629183Y-90141226D01*
X168629182Y-90141224D01*
X168627634Y-90136816D01*
X168547150Y-90027850D01*
X168438184Y-89947366D01*
X168433776Y-89945818D01*
X168433774Y-89945817D01*
X168340323Y-89913000D01*
X168310369Y-89902481D01*
X168293942Y-89900928D01*
X168280298Y-89899638D01*
X168280290Y-89899638D01*
X168278834Y-89899500D01*
X166871166Y-89899500D01*
X166869710Y-89899638D01*
X166869702Y-89899638D01*
X166856058Y-89900928D01*
X166839631Y-89902481D01*
X166809677Y-89913000D01*
X166716226Y-89945817D01*
X166716224Y-89945818D01*
X166711816Y-89947366D01*
X166602850Y-90027850D01*
X166522366Y-90136816D01*
X166520818Y-90141224D01*
X166520817Y-90141226D01*
X166498081Y-90205969D01*
X166477481Y-90264631D01*
X166474500Y-90296166D01*
X166474500Y-91103834D01*
X166477481Y-91135369D01*
X166522366Y-91263184D01*
X166602850Y-91372150D01*
X166711816Y-91452634D01*
X166716224Y-91454182D01*
X166716226Y-91454183D01*
X166785824Y-91478623D01*
X166839631Y-91497519D01*
X166856058Y-91499072D01*
X166869702Y-91500362D01*
X166869710Y-91500362D01*
X166871166Y-91500500D01*
X168278834Y-91500500D01*
X168280290Y-91500362D01*
X168280298Y-91500362D01*
X168293942Y-91499072D01*
X168310369Y-91497519D01*
X168364176Y-91478623D01*
X168433774Y-91454183D01*
X168433776Y-91454182D01*
X168438184Y-91452634D01*
X168547150Y-91372150D01*
X168627634Y-91263184D01*
X168672519Y-91135369D01*
X168674778Y-91111473D01*
X168697162Y-91069198D01*
X168742883Y-91055132D01*
X168785158Y-91077516D01*
X168799501Y-91117355D01*
X168799501Y-96882643D01*
X168781195Y-96926837D01*
X168737001Y-96945143D01*
X168692807Y-96926837D01*
X168674778Y-96888526D01*
X168672877Y-96868422D01*
X168672519Y-96864631D01*
X168652294Y-96807038D01*
X168629183Y-96741226D01*
X168629182Y-96741224D01*
X168627634Y-96736816D01*
X168547150Y-96627850D01*
X168542615Y-96624500D01*
X168516413Y-96605147D01*
X168438184Y-96547366D01*
X168433776Y-96545818D01*
X168433774Y-96545817D01*
X168364176Y-96521377D01*
X168310369Y-96502481D01*
X168293942Y-96500928D01*
X168280298Y-96499638D01*
X168280290Y-96499638D01*
X168278834Y-96499500D01*
X166871166Y-96499500D01*
X166869710Y-96499638D01*
X166869702Y-96499638D01*
X166856058Y-96500928D01*
X166839631Y-96502481D01*
X166785824Y-96521377D01*
X166716226Y-96545817D01*
X166716224Y-96545818D01*
X166711816Y-96547366D01*
X166633587Y-96605147D01*
X166607386Y-96624500D01*
X166602850Y-96627850D01*
X166522366Y-96736816D01*
X166520818Y-96741224D01*
X166520817Y-96741226D01*
X166497706Y-96807038D01*
X166477481Y-96864631D01*
X166474500Y-96896166D01*
X166474500Y-97703834D01*
X166477481Y-97735369D01*
X166478743Y-97738962D01*
X166519119Y-97853937D01*
X166522366Y-97863184D01*
X166602850Y-97972150D01*
X166711816Y-98052634D01*
X166716224Y-98054182D01*
X166716226Y-98054183D01*
X166765476Y-98071478D01*
X166839631Y-98097519D01*
X166856058Y-98099072D01*
X166869702Y-98100362D01*
X166869710Y-98100362D01*
X166871166Y-98100500D01*
X168278834Y-98100500D01*
X168280290Y-98100362D01*
X168280298Y-98100362D01*
X168293942Y-98099072D01*
X168310369Y-98097519D01*
X168384524Y-98071478D01*
X168433774Y-98054183D01*
X168433776Y-98054182D01*
X168438184Y-98052634D01*
X168547150Y-97972150D01*
X168627634Y-97863184D01*
X168630882Y-97853937D01*
X168671257Y-97738962D01*
X168672519Y-97735369D01*
X168674778Y-97711474D01*
X168697163Y-97669199D01*
X168742884Y-97655134D01*
X168785159Y-97677519D01*
X168799501Y-97717357D01*
X168799500Y-103282640D01*
X168781194Y-103326834D01*
X168737000Y-103345140D01*
X168692806Y-103326834D01*
X168674777Y-103288521D01*
X168672877Y-103268422D01*
X168672519Y-103264631D01*
X168633872Y-103154580D01*
X168629183Y-103141226D01*
X168629182Y-103141224D01*
X168627634Y-103136816D01*
X168547150Y-103027850D01*
X168438184Y-102947366D01*
X168433776Y-102945818D01*
X168433774Y-102945817D01*
X168364176Y-102921377D01*
X168310369Y-102902481D01*
X168293942Y-102900928D01*
X168280298Y-102899638D01*
X168280290Y-102899638D01*
X168278834Y-102899500D01*
X166871166Y-102899500D01*
X166869710Y-102899638D01*
X166869702Y-102899638D01*
X166856058Y-102900928D01*
X166839631Y-102902481D01*
X166785824Y-102921377D01*
X166716226Y-102945817D01*
X166716224Y-102945818D01*
X166711816Y-102947366D01*
X166602850Y-103027850D01*
X166522366Y-103136816D01*
X166520818Y-103141224D01*
X166520817Y-103141226D01*
X166516128Y-103154580D01*
X166477481Y-103264631D01*
X166477123Y-103268422D01*
X166475223Y-103288521D01*
X166474500Y-103296166D01*
X166474500Y-104103834D01*
X166474638Y-104105290D01*
X166474638Y-104105298D01*
X166475779Y-104117360D01*
X166477481Y-104135369D01*
X166484771Y-104156128D01*
X166512265Y-104234419D01*
X166522366Y-104263184D01*
X166602850Y-104372150D01*
X166606607Y-104374925D01*
X166609158Y-104376809D01*
X166711816Y-104452634D01*
X166716224Y-104454182D01*
X166716226Y-104454183D01*
X166737262Y-104461570D01*
X166839631Y-104497519D01*
X166856058Y-104499072D01*
X166869702Y-104500362D01*
X166869710Y-104500362D01*
X166871166Y-104500500D01*
X168278834Y-104500500D01*
X168280290Y-104500362D01*
X168280298Y-104500362D01*
X168293942Y-104499072D01*
X168310369Y-104497519D01*
X168412738Y-104461570D01*
X168433774Y-104454183D01*
X168433776Y-104454182D01*
X168438184Y-104452634D01*
X168540842Y-104376809D01*
X168543393Y-104374925D01*
X168547150Y-104372150D01*
X168627634Y-104263184D01*
X168637736Y-104234419D01*
X168665229Y-104156128D01*
X168672519Y-104135369D01*
X168674777Y-104111478D01*
X168697160Y-104069204D01*
X168742881Y-104055137D01*
X168785156Y-104077520D01*
X168799500Y-104117360D01*
X168799500Y-111882637D01*
X168781194Y-111926831D01*
X168737000Y-111945137D01*
X168692806Y-111926831D01*
X168674777Y-111888519D01*
X168674221Y-111882637D01*
X168672519Y-111864631D01*
X168630811Y-111745862D01*
X168629183Y-111741226D01*
X168629182Y-111741224D01*
X168627634Y-111736816D01*
X168547150Y-111627850D01*
X168438184Y-111547366D01*
X168433776Y-111545818D01*
X168433774Y-111545817D01*
X168364176Y-111521377D01*
X168310369Y-111502481D01*
X168293942Y-111500928D01*
X168280298Y-111499638D01*
X168280290Y-111499638D01*
X168278834Y-111499500D01*
X166871166Y-111499500D01*
X166869710Y-111499638D01*
X166869702Y-111499638D01*
X166856058Y-111500928D01*
X166839631Y-111502481D01*
X166785824Y-111521377D01*
X166716226Y-111545817D01*
X166716224Y-111545818D01*
X166711816Y-111547366D01*
X166602850Y-111627850D01*
X166522366Y-111736816D01*
X166520818Y-111741224D01*
X166520817Y-111741226D01*
X166519189Y-111745862D01*
X166477481Y-111864631D01*
X166475928Y-111881058D01*
X166474825Y-111892732D01*
X166474500Y-111896166D01*
X166474500Y-112703834D01*
X166477481Y-112735369D01*
X166478743Y-112738962D01*
X166517112Y-112848222D01*
X166522366Y-112863184D01*
X166602850Y-112972150D01*
X166711816Y-113052634D01*
X166716224Y-113054182D01*
X166716226Y-113054183D01*
X166746346Y-113064760D01*
X166839631Y-113097519D01*
X166856058Y-113099072D01*
X166869702Y-113100362D01*
X166869710Y-113100362D01*
X166871166Y-113100500D01*
X168278834Y-113100500D01*
X168280290Y-113100362D01*
X168280298Y-113100362D01*
X168293942Y-113099072D01*
X168310369Y-113097519D01*
X168403654Y-113064760D01*
X168433774Y-113054183D01*
X168433776Y-113054182D01*
X168438184Y-113052634D01*
X168547150Y-112972150D01*
X168627634Y-112863184D01*
X168632889Y-112848222D01*
X168671257Y-112738962D01*
X168672519Y-112735369D01*
X168674777Y-112711482D01*
X168697161Y-112669207D01*
X168742882Y-112655141D01*
X168785157Y-112677525D01*
X168799500Y-112717364D01*
X168799500Y-113970127D01*
X168797910Y-113984133D01*
X168794344Y-113999641D01*
X168795897Y-114006506D01*
X168795894Y-114008403D01*
X168796970Y-114025686D01*
X168784742Y-114149847D01*
X168782352Y-114161864D01*
X168740428Y-114300067D01*
X168735739Y-114311386D01*
X168667661Y-114438750D01*
X168660856Y-114448935D01*
X168578010Y-114549884D01*
X168569237Y-114560574D01*
X168560575Y-114569236D01*
X168448935Y-114660856D01*
X168438750Y-114667661D01*
X168311386Y-114735739D01*
X168300066Y-114740428D01*
X168161860Y-114782353D01*
X168149852Y-114784741D01*
X168080808Y-114791541D01*
X168026120Y-114796927D01*
X168010499Y-114795927D01*
X168007218Y-114795921D01*
X168000359Y-114794344D01*
X167993496Y-114795897D01*
X167993494Y-114795897D01*
X167984383Y-114797959D01*
X167970589Y-114799500D01*
X140029873Y-114799500D01*
X140015867Y-114797910D01*
X140013564Y-114797381D01*
X140000359Y-114794344D01*
X139993494Y-114795897D01*
X139991597Y-114795894D01*
X139974314Y-114796970D01*
X139937756Y-114793370D01*
X139850148Y-114784741D01*
X139838140Y-114782353D01*
X139699934Y-114740428D01*
X139688614Y-114735739D01*
X139561250Y-114667661D01*
X139551065Y-114660856D01*
X139439425Y-114569236D01*
X139430763Y-114560574D01*
X139421990Y-114549884D01*
X139339144Y-114448935D01*
X139332339Y-114438750D01*
X139264261Y-114311386D01*
X139259572Y-114300067D01*
X139217648Y-114161864D01*
X139215258Y-114149846D01*
X139208510Y-114081324D01*
X139222396Y-114035549D01*
X139264584Y-114013000D01*
X139310359Y-114026886D01*
X139317156Y-114033379D01*
X139423758Y-114151774D01*
X139423765Y-114151780D01*
X139425950Y-114154207D01*
X139574839Y-114262381D01*
X139742966Y-114337236D01*
X139746173Y-114337918D01*
X139746174Y-114337918D01*
X139907089Y-114372122D01*
X139922981Y-114375500D01*
X140107019Y-114375500D01*
X140122911Y-114372122D01*
X140283826Y-114337918D01*
X140283827Y-114337918D01*
X140287034Y-114337236D01*
X140455161Y-114262381D01*
X140604050Y-114154207D01*
X140727195Y-114017440D01*
X140773205Y-113937749D01*
X140817578Y-113860893D01*
X140817579Y-113860891D01*
X140819214Y-113858059D01*
X140876085Y-113683029D01*
X140895322Y-113500000D01*
X140876085Y-113316971D01*
X140819214Y-113141941D01*
X140727195Y-112982560D01*
X140604050Y-112845793D01*
X140455161Y-112737619D01*
X140287034Y-112662764D01*
X140283827Y-112662082D01*
X140283826Y-112662082D01*
X140110228Y-112625182D01*
X140110227Y-112625182D01*
X140107019Y-112624500D01*
X139922981Y-112624500D01*
X139919773Y-112625182D01*
X139919772Y-112625182D01*
X139746174Y-112662082D01*
X139746173Y-112662082D01*
X139742966Y-112662764D01*
X139574839Y-112737619D01*
X139425950Y-112845793D01*
X139423763Y-112848222D01*
X139309447Y-112975183D01*
X139266271Y-112995776D01*
X139221179Y-112979809D01*
X139200500Y-112933362D01*
X139200500Y-112066638D01*
X139218806Y-112022444D01*
X139263000Y-112004138D01*
X139309447Y-112024817D01*
X139333883Y-112051956D01*
X139425950Y-112154207D01*
X139574839Y-112262381D01*
X139742966Y-112337236D01*
X139746173Y-112337918D01*
X139746174Y-112337918D01*
X139919772Y-112374818D01*
X139922981Y-112375500D01*
X140107019Y-112375500D01*
X140110228Y-112374818D01*
X140283826Y-112337918D01*
X140283827Y-112337918D01*
X140287034Y-112337236D01*
X140455161Y-112262381D01*
X140604050Y-112154207D01*
X140727195Y-112017440D01*
X140798058Y-111894702D01*
X140817578Y-111860893D01*
X140817579Y-111860891D01*
X140819214Y-111858059D01*
X140876085Y-111683029D01*
X140895322Y-111500000D01*
X140876085Y-111316971D01*
X140872502Y-111305942D01*
X140861237Y-111271274D01*
X140819214Y-111141941D01*
X140797453Y-111104249D01*
X140741946Y-111008109D01*
X140727195Y-110982560D01*
X140604050Y-110845793D01*
X140455161Y-110737619D01*
X140287034Y-110662764D01*
X140283827Y-110662082D01*
X140283826Y-110662082D01*
X140110228Y-110625182D01*
X140110227Y-110625182D01*
X140107019Y-110624500D01*
X139922981Y-110624500D01*
X139919773Y-110625182D01*
X139919772Y-110625182D01*
X139746174Y-110662082D01*
X139746173Y-110662082D01*
X139742966Y-110662764D01*
X139574839Y-110737619D01*
X139425950Y-110845793D01*
X139423763Y-110848222D01*
X139309447Y-110975183D01*
X139266271Y-110995776D01*
X139221179Y-110979809D01*
X139200500Y-110933362D01*
X139200500Y-110066638D01*
X139218806Y-110022444D01*
X139263000Y-110004138D01*
X139309447Y-110024817D01*
X139386995Y-110110943D01*
X139425950Y-110154207D01*
X139574839Y-110262381D01*
X139742966Y-110337236D01*
X139746173Y-110337918D01*
X139746174Y-110337918D01*
X139919772Y-110374818D01*
X139922981Y-110375500D01*
X140107019Y-110375500D01*
X140110228Y-110374818D01*
X140283826Y-110337918D01*
X140283827Y-110337918D01*
X140287034Y-110337236D01*
X140290031Y-110335902D01*
X140290036Y-110335900D01*
X140380540Y-110295605D01*
X140428359Y-110294352D01*
X140450155Y-110308507D01*
X140805587Y-110663940D01*
X140813359Y-110673410D01*
X140824667Y-110690333D01*
X140829784Y-110693752D01*
X140829785Y-110693753D01*
X140846702Y-110705057D01*
X140846710Y-110705063D01*
X140885272Y-110730829D01*
X140906873Y-110745263D01*
X140906875Y-110745264D01*
X140911992Y-110748683D01*
X140988998Y-110764000D01*
X141015000Y-110769172D01*
X141034964Y-110765201D01*
X141047157Y-110764000D01*
X141359219Y-110764000D01*
X141403413Y-110782306D01*
X141421719Y-110826500D01*
X141405666Y-110868321D01*
X141302805Y-110982560D01*
X141288054Y-111008109D01*
X141232548Y-111104249D01*
X141210786Y-111141941D01*
X141168763Y-111271274D01*
X141157499Y-111305942D01*
X141153915Y-111316971D01*
X141134678Y-111500000D01*
X141153915Y-111683029D01*
X141210786Y-111858059D01*
X141212421Y-111860891D01*
X141212422Y-111860893D01*
X141231942Y-111894702D01*
X141302805Y-112017440D01*
X141425950Y-112154207D01*
X141574839Y-112262381D01*
X141742966Y-112337236D01*
X141746173Y-112337918D01*
X141746174Y-112337918D01*
X141919772Y-112374818D01*
X141922981Y-112375500D01*
X142107019Y-112375500D01*
X142110228Y-112374818D01*
X142283826Y-112337918D01*
X142283827Y-112337918D01*
X142287034Y-112337236D01*
X142455161Y-112262381D01*
X142604050Y-112154207D01*
X142727195Y-112017440D01*
X142798058Y-111894702D01*
X142817578Y-111860893D01*
X142817579Y-111860891D01*
X142819214Y-111858059D01*
X142820224Y-111854951D01*
X142820227Y-111854944D01*
X142829059Y-111827760D01*
X142860125Y-111791385D01*
X142907813Y-111787632D01*
X142944188Y-111818698D01*
X142951000Y-111847073D01*
X142951000Y-113152927D01*
X142932694Y-113197121D01*
X142888500Y-113215427D01*
X142844306Y-113197121D01*
X142829059Y-113172240D01*
X142820227Y-113145056D01*
X142820224Y-113145049D01*
X142819214Y-113141941D01*
X142727195Y-112982560D01*
X142604050Y-112845793D01*
X142455161Y-112737619D01*
X142287034Y-112662764D01*
X142283827Y-112662082D01*
X142283826Y-112662082D01*
X142110228Y-112625182D01*
X142110227Y-112625182D01*
X142107019Y-112624500D01*
X141922981Y-112624500D01*
X141919773Y-112625182D01*
X141919772Y-112625182D01*
X141746174Y-112662082D01*
X141746173Y-112662082D01*
X141742966Y-112662764D01*
X141574839Y-112737619D01*
X141425950Y-112845793D01*
X141302805Y-112982560D01*
X141210786Y-113141941D01*
X141153915Y-113316971D01*
X141134678Y-113500000D01*
X141153915Y-113683029D01*
X141210786Y-113858059D01*
X141212421Y-113860891D01*
X141212422Y-113860893D01*
X141256795Y-113937749D01*
X141302805Y-114017440D01*
X141425950Y-114154207D01*
X141574839Y-114262381D01*
X141742966Y-114337236D01*
X141746173Y-114337918D01*
X141746174Y-114337918D01*
X141907089Y-114372122D01*
X141922981Y-114375500D01*
X142107019Y-114375500D01*
X142122911Y-114372122D01*
X142283826Y-114337918D01*
X142283827Y-114337918D01*
X142287034Y-114337236D01*
X142455161Y-114262381D01*
X142604050Y-114154207D01*
X142727195Y-114017440D01*
X142773205Y-113937749D01*
X142817578Y-113860893D01*
X142817579Y-113860891D01*
X142819214Y-113858059D01*
X142843237Y-113784124D01*
X142874304Y-113747750D01*
X142921992Y-113743997D01*
X142958366Y-113775064D01*
X142963977Y-113791244D01*
X142966317Y-113803008D01*
X143024667Y-113890333D01*
X143029784Y-113893752D01*
X143029785Y-113893753D01*
X143041593Y-113901643D01*
X143051063Y-113909415D01*
X143605585Y-114463937D01*
X143613357Y-114473407D01*
X143624667Y-114490333D01*
X143711992Y-114548683D01*
X143718028Y-114549884D01*
X143718029Y-114549884D01*
X143788991Y-114563999D01*
X143788996Y-114564000D01*
X143788999Y-114564000D01*
X143789007Y-114564001D01*
X143815000Y-114569171D01*
X143821038Y-114567970D01*
X143834960Y-114565201D01*
X143847152Y-114564000D01*
X161232843Y-114564000D01*
X161245036Y-114565201D01*
X161265000Y-114569172D01*
X161291002Y-114564000D01*
X161308226Y-114560574D01*
X161361971Y-114549884D01*
X161361972Y-114549884D01*
X161368008Y-114548683D01*
X161455333Y-114490333D01*
X161466643Y-114473407D01*
X161474415Y-114463937D01*
X162378937Y-113559415D01*
X162388407Y-113551643D01*
X162400215Y-113543753D01*
X162400216Y-113543752D01*
X162405333Y-113540333D01*
X162463683Y-113453008D01*
X162479000Y-113376002D01*
X162484172Y-113350000D01*
X162480201Y-113330036D01*
X162479000Y-113317843D01*
X162479000Y-111685240D01*
X162497306Y-111641046D01*
X162739625Y-111398727D01*
X162783819Y-111380421D01*
X162827975Y-111398689D01*
X162864992Y-111435642D01*
X162864994Y-111435644D01*
X162868650Y-111439293D01*
X162873290Y-111441561D01*
X162968738Y-111488217D01*
X162973482Y-111490536D01*
X162978285Y-111491237D01*
X162978286Y-111491237D01*
X162998248Y-111494149D01*
X163041782Y-111500500D01*
X164358218Y-111500500D01*
X164360465Y-111500169D01*
X164360468Y-111500169D01*
X164384662Y-111496607D01*
X164427112Y-111490358D01*
X164531855Y-111438932D01*
X164535502Y-111435279D01*
X164610645Y-111360005D01*
X164610647Y-111360003D01*
X164614293Y-111356350D01*
X164638933Y-111305942D01*
X164663405Y-111255878D01*
X164663405Y-111255877D01*
X164665536Y-111251518D01*
X164675500Y-111183218D01*
X164675500Y-110816782D01*
X164673476Y-110803029D01*
X164668314Y-110767971D01*
X164665358Y-110747888D01*
X164613932Y-110643145D01*
X164595938Y-110625182D01*
X164535005Y-110564355D01*
X164535003Y-110564353D01*
X164531350Y-110560707D01*
X164526712Y-110558440D01*
X164526708Y-110558437D01*
X164521936Y-110556105D01*
X164490270Y-110520251D01*
X164493231Y-110472508D01*
X164521835Y-110443852D01*
X164527220Y-110441208D01*
X164527222Y-110441207D01*
X164531855Y-110438932D01*
X164535502Y-110435279D01*
X164610645Y-110360005D01*
X164610647Y-110360003D01*
X164614293Y-110356350D01*
X164665536Y-110251518D01*
X164666473Y-110245099D01*
X164675172Y-110185464D01*
X164675500Y-110183218D01*
X164675500Y-109816782D01*
X164672830Y-109798641D01*
X164671607Y-109790338D01*
X164665358Y-109747888D01*
X164613932Y-109643145D01*
X164599991Y-109629228D01*
X164535005Y-109564355D01*
X164535003Y-109564353D01*
X164531350Y-109560707D01*
X164526712Y-109558440D01*
X164526708Y-109558437D01*
X164521936Y-109556105D01*
X164490270Y-109520251D01*
X164493231Y-109472508D01*
X164521835Y-109443852D01*
X164527220Y-109441208D01*
X164527222Y-109441207D01*
X164531855Y-109438932D01*
X164541824Y-109428946D01*
X164610645Y-109360005D01*
X164610647Y-109360003D01*
X164614293Y-109356350D01*
X164635058Y-109313870D01*
X164670911Y-109282205D01*
X164718655Y-109285167D01*
X164740793Y-109303270D01*
X164824459Y-109412306D01*
X164836718Y-109428282D01*
X164962159Y-109524536D01*
X164965942Y-109526103D01*
X165104452Y-109583476D01*
X165104453Y-109583476D01*
X165108238Y-109585044D01*
X165112300Y-109585579D01*
X165112301Y-109585579D01*
X165260936Y-109605147D01*
X165265000Y-109605682D01*
X165269064Y-109605147D01*
X165417699Y-109585579D01*
X165417700Y-109585579D01*
X165421762Y-109585044D01*
X165425547Y-109583476D01*
X165425548Y-109583476D01*
X165564058Y-109526103D01*
X165567841Y-109524536D01*
X165693282Y-109428282D01*
X165789536Y-109302841D01*
X165798084Y-109282205D01*
X165848476Y-109160548D01*
X165848476Y-109160547D01*
X165850044Y-109156762D01*
X165853339Y-109131738D01*
X165870147Y-109004064D01*
X165870682Y-109000000D01*
X165850044Y-108843238D01*
X165841067Y-108821564D01*
X165791103Y-108700942D01*
X165789536Y-108697159D01*
X165693282Y-108571718D01*
X165690037Y-108569228D01*
X165690033Y-108569224D01*
X165664438Y-108549584D01*
X165640521Y-108508158D01*
X165652902Y-108461952D01*
X165664438Y-108450416D01*
X165690033Y-108430776D01*
X165690037Y-108430772D01*
X165693282Y-108428282D01*
X165704200Y-108414054D01*
X165751646Y-108352220D01*
X165789536Y-108302841D01*
X165798084Y-108282205D01*
X165848476Y-108160548D01*
X165848476Y-108160547D01*
X165850044Y-108156762D01*
X165851963Y-108142190D01*
X165870147Y-108004064D01*
X165870682Y-108000000D01*
X165850044Y-107843238D01*
X165805625Y-107736000D01*
X165791103Y-107700942D01*
X165789536Y-107697159D01*
X165705318Y-107587404D01*
X165695772Y-107574963D01*
X165693282Y-107571718D01*
X165690037Y-107569228D01*
X165690033Y-107569224D01*
X165664438Y-107549584D01*
X165640521Y-107508158D01*
X165652902Y-107461952D01*
X165664438Y-107450416D01*
X165690033Y-107430776D01*
X165690037Y-107430772D01*
X165693282Y-107428282D01*
X165789536Y-107302841D01*
X165799844Y-107277955D01*
X165848476Y-107160548D01*
X165848476Y-107160547D01*
X165850044Y-107156762D01*
X165851290Y-107147302D01*
X165870147Y-107004064D01*
X165870682Y-107000000D01*
X165865785Y-106962805D01*
X165850579Y-106847301D01*
X165850579Y-106847300D01*
X165850044Y-106843238D01*
X165836154Y-106809703D01*
X165791103Y-106700942D01*
X165789536Y-106697159D01*
X165693282Y-106571718D01*
X165690037Y-106569228D01*
X165690033Y-106569224D01*
X165664438Y-106549584D01*
X165640521Y-106508158D01*
X165652902Y-106461952D01*
X165664438Y-106450416D01*
X165690033Y-106430776D01*
X165690037Y-106430772D01*
X165693282Y-106428282D01*
X165789536Y-106302841D01*
X165802703Y-106271054D01*
X165848476Y-106160548D01*
X165848476Y-106160547D01*
X165850044Y-106156762D01*
X165860331Y-106078628D01*
X165870147Y-106004064D01*
X165870682Y-106000000D01*
X165850044Y-105843238D01*
X165805625Y-105736000D01*
X165791103Y-105700942D01*
X165789536Y-105697159D01*
X165693282Y-105571718D01*
X165567841Y-105475464D01*
X165461920Y-105431590D01*
X165425548Y-105416524D01*
X165425547Y-105416524D01*
X165421762Y-105414956D01*
X165417700Y-105414421D01*
X165417699Y-105414421D01*
X165269064Y-105394853D01*
X165265000Y-105394318D01*
X165260936Y-105394853D01*
X165112301Y-105414421D01*
X165112300Y-105414421D01*
X165108238Y-105414956D01*
X165104453Y-105416524D01*
X165104452Y-105416524D01*
X165068080Y-105431590D01*
X164962159Y-105475464D01*
X164836718Y-105571718D01*
X164834228Y-105574963D01*
X164740780Y-105696747D01*
X164699353Y-105720664D01*
X164653147Y-105708284D01*
X164635092Y-105686243D01*
X164616209Y-105647781D01*
X164616206Y-105647777D01*
X164613932Y-105643145D01*
X164610279Y-105639498D01*
X164535005Y-105564355D01*
X164535003Y-105564353D01*
X164531350Y-105560707D01*
X164438228Y-105515188D01*
X164406562Y-105479334D01*
X164409524Y-105431590D01*
X164440304Y-105401918D01*
X164479339Y-105384579D01*
X164488688Y-105378154D01*
X164553440Y-105313289D01*
X164559848Y-105303931D01*
X164597341Y-105219124D01*
X164599784Y-105210162D01*
X164601791Y-105192950D01*
X164602000Y-105189342D01*
X164602000Y-105075931D01*
X164598359Y-105067141D01*
X164589569Y-105063500D01*
X162810431Y-105063500D01*
X162801641Y-105067141D01*
X162798000Y-105075931D01*
X162798000Y-105189309D01*
X162798218Y-105192988D01*
X162800320Y-105210647D01*
X162802778Y-105219593D01*
X162840421Y-105304339D01*
X162846846Y-105313688D01*
X162911711Y-105378440D01*
X162921070Y-105384848D01*
X162959495Y-105401836D01*
X162992513Y-105436449D01*
X162991386Y-105484271D01*
X162961769Y-105515101D01*
X162868145Y-105561068D01*
X162864499Y-105564720D01*
X162864498Y-105564721D01*
X162789355Y-105639995D01*
X162789353Y-105639997D01*
X162785707Y-105643650D01*
X162734464Y-105748482D01*
X162724500Y-105816782D01*
X162724500Y-106183218D01*
X162734642Y-106252112D01*
X162786068Y-106356855D01*
X162789720Y-106360501D01*
X162789721Y-106360502D01*
X162864995Y-106435645D01*
X162864997Y-106435647D01*
X162868650Y-106439293D01*
X162873288Y-106441560D01*
X162873292Y-106441563D01*
X162878064Y-106443895D01*
X162909730Y-106479749D01*
X162906769Y-106527492D01*
X162878165Y-106556148D01*
X162872780Y-106558792D01*
X162872778Y-106558793D01*
X162868145Y-106561068D01*
X162864499Y-106564720D01*
X162864498Y-106564721D01*
X162789355Y-106639995D01*
X162789353Y-106639997D01*
X162785707Y-106643650D01*
X162734464Y-106748482D01*
X162724500Y-106816782D01*
X162724500Y-107183218D01*
X162734642Y-107252112D01*
X162786068Y-107356855D01*
X162789720Y-107360501D01*
X162789721Y-107360502D01*
X162864995Y-107435645D01*
X162864997Y-107435647D01*
X162868650Y-107439293D01*
X162873288Y-107441560D01*
X162873292Y-107441563D01*
X162878064Y-107443895D01*
X162909730Y-107479749D01*
X162906769Y-107527492D01*
X162878165Y-107556148D01*
X162872780Y-107558792D01*
X162872778Y-107558793D01*
X162868145Y-107561068D01*
X162864499Y-107564720D01*
X162864498Y-107564721D01*
X162789355Y-107639995D01*
X162789353Y-107639997D01*
X162785707Y-107643650D01*
X162734464Y-107748482D01*
X162724500Y-107816782D01*
X162724500Y-108183218D01*
X162734642Y-108252112D01*
X162786068Y-108356855D01*
X162789720Y-108360501D01*
X162789721Y-108360502D01*
X162864995Y-108435645D01*
X162864997Y-108435647D01*
X162868650Y-108439293D01*
X162873288Y-108441560D01*
X162873292Y-108441563D01*
X162878064Y-108443895D01*
X162909730Y-108479749D01*
X162906769Y-108527492D01*
X162878165Y-108556148D01*
X162872780Y-108558792D01*
X162872778Y-108558793D01*
X162868145Y-108561068D01*
X162864499Y-108564720D01*
X162864498Y-108564721D01*
X162789355Y-108639995D01*
X162789353Y-108639997D01*
X162785707Y-108643650D01*
X162783439Y-108648290D01*
X162740140Y-108736871D01*
X162734464Y-108748482D01*
X162724500Y-108816782D01*
X162724500Y-109183218D01*
X162734642Y-109252112D01*
X162786068Y-109356855D01*
X162789720Y-109360501D01*
X162789721Y-109360502D01*
X162864995Y-109435645D01*
X162864997Y-109435647D01*
X162868650Y-109439293D01*
X162873288Y-109441560D01*
X162873292Y-109441563D01*
X162878064Y-109443895D01*
X162909730Y-109479749D01*
X162906769Y-109527492D01*
X162878165Y-109556148D01*
X162872780Y-109558792D01*
X162872778Y-109558793D01*
X162868145Y-109561068D01*
X162864499Y-109564720D01*
X162864498Y-109564721D01*
X162789355Y-109639995D01*
X162789353Y-109639997D01*
X162785707Y-109643650D01*
X162783439Y-109648290D01*
X162736886Y-109743528D01*
X162734464Y-109748482D01*
X162724500Y-109816782D01*
X162724500Y-109991260D01*
X162706194Y-110035454D01*
X161601063Y-111140585D01*
X161591593Y-111148357D01*
X161574667Y-111159667D01*
X161559938Y-111181710D01*
X161516317Y-111246992D01*
X161515116Y-111253028D01*
X161515116Y-111253029D01*
X161505564Y-111301054D01*
X161495828Y-111350000D01*
X161497029Y-111356038D01*
X161499799Y-111369964D01*
X161501000Y-111382157D01*
X161501000Y-113064760D01*
X161482694Y-113108954D01*
X160973954Y-113617694D01*
X160929760Y-113636000D01*
X144250240Y-113636000D01*
X144206046Y-113617694D01*
X143997306Y-113408954D01*
X143979000Y-113364760D01*
X143979000Y-111655963D01*
X144509757Y-111655963D01*
X144510013Y-111659010D01*
X144525805Y-111847073D01*
X144526175Y-111851483D01*
X144527168Y-111854946D01*
X144569949Y-112004138D01*
X144580258Y-112040091D01*
X144669944Y-112214601D01*
X144671835Y-112216987D01*
X144671837Y-112216990D01*
X144726137Y-112285500D01*
X144791818Y-112368369D01*
X144941238Y-112495535D01*
X145112513Y-112591257D01*
X145115417Y-112592201D01*
X145115418Y-112592201D01*
X145296205Y-112650943D01*
X145296210Y-112650944D01*
X145299118Y-112651889D01*
X145493946Y-112675121D01*
X145496988Y-112674887D01*
X145496991Y-112674887D01*
X145686528Y-112660303D01*
X145686533Y-112660302D01*
X145689576Y-112660068D01*
X145717569Y-112652252D01*
X145875617Y-112608124D01*
X145875621Y-112608123D01*
X145878556Y-112607303D01*
X145977808Y-112557167D01*
X146050969Y-112520211D01*
X146053689Y-112518837D01*
X146056087Y-112516964D01*
X146056091Y-112516961D01*
X146136930Y-112453802D01*
X146208303Y-112398040D01*
X146228348Y-112374818D01*
X146334515Y-112251822D01*
X146334519Y-112251817D01*
X146336509Y-112249511D01*
X146338017Y-112246857D01*
X146431914Y-112081570D01*
X146431916Y-112081565D01*
X146433425Y-112078909D01*
X146495358Y-111892732D01*
X146495891Y-111888519D01*
X146514221Y-111743415D01*
X152210610Y-111743415D01*
X152222921Y-111860540D01*
X152224275Y-111866911D01*
X152282468Y-112046009D01*
X152285115Y-112051956D01*
X152379274Y-112215044D01*
X152383099Y-112220309D01*
X152509110Y-112360258D01*
X152513948Y-112364615D01*
X152666298Y-112475303D01*
X152671937Y-112478558D01*
X152843969Y-112555152D01*
X152850171Y-112557167D01*
X153034359Y-112596318D01*
X153040848Y-112597000D01*
X153059069Y-112597000D01*
X153067859Y-112593359D01*
X153071500Y-112584569D01*
X153198500Y-112584569D01*
X153202141Y-112593359D01*
X153210931Y-112597000D01*
X153229152Y-112597000D01*
X153235641Y-112596318D01*
X153419829Y-112557167D01*
X153426031Y-112555152D01*
X153598063Y-112478558D01*
X153603702Y-112475303D01*
X153756052Y-112364615D01*
X153760890Y-112360258D01*
X153886901Y-112220309D01*
X153890726Y-112215044D01*
X153984885Y-112051956D01*
X153987532Y-112046009D01*
X154045725Y-111866911D01*
X154047079Y-111860540D01*
X154059133Y-111745862D01*
X154056431Y-111736741D01*
X154050461Y-111733500D01*
X153210931Y-111733500D01*
X153202141Y-111737141D01*
X153198500Y-111745931D01*
X153198500Y-112584569D01*
X153071500Y-112584569D01*
X153071500Y-111745931D01*
X153067859Y-111737141D01*
X153059069Y-111733500D01*
X152221999Y-111733500D01*
X152213209Y-111737141D01*
X152210610Y-111743415D01*
X146514221Y-111743415D01*
X146519729Y-111699813D01*
X146519729Y-111699812D01*
X146519949Y-111698071D01*
X146520341Y-111670000D01*
X146519264Y-111659010D01*
X146503689Y-111500172D01*
X146501194Y-111474728D01*
X146444484Y-111286894D01*
X146445348Y-111286633D01*
X146445426Y-111241926D01*
X146458933Y-111221749D01*
X146998376Y-110682306D01*
X147042570Y-110664000D01*
X152821358Y-110664000D01*
X152865552Y-110682306D01*
X152883858Y-110726500D01*
X152865552Y-110770694D01*
X152846779Y-110783597D01*
X152671937Y-110861442D01*
X152666298Y-110864697D01*
X152513948Y-110975385D01*
X152509110Y-110979742D01*
X152383099Y-111119691D01*
X152379274Y-111124956D01*
X152285115Y-111288044D01*
X152282468Y-111293991D01*
X152224275Y-111473089D01*
X152222921Y-111479460D01*
X152210867Y-111594138D01*
X152213569Y-111603259D01*
X152219539Y-111606500D01*
X154048001Y-111606500D01*
X154056791Y-111602859D01*
X154059390Y-111596585D01*
X154047079Y-111479460D01*
X154045725Y-111473089D01*
X153987532Y-111293991D01*
X153984885Y-111288044D01*
X153890726Y-111124956D01*
X153886901Y-111119691D01*
X153760890Y-110979742D01*
X153756052Y-110975385D01*
X153603702Y-110864697D01*
X153598063Y-110861442D01*
X153423221Y-110783597D01*
X153390293Y-110748898D01*
X153391545Y-110701079D01*
X153426244Y-110668151D01*
X153448642Y-110664000D01*
X154129760Y-110664000D01*
X154173954Y-110682306D01*
X154856194Y-111364546D01*
X154874500Y-111408740D01*
X154874501Y-111668272D01*
X154874501Y-111916518D01*
X154889354Y-112010304D01*
X154946950Y-112123342D01*
X155036658Y-112213050D01*
X155149696Y-112270646D01*
X155189487Y-112276948D01*
X155241054Y-112285116D01*
X155241059Y-112285116D01*
X155243481Y-112285500D01*
X155475000Y-112285500D01*
X155706518Y-112285499D01*
X155800304Y-112270646D01*
X155913342Y-112213050D01*
X156003050Y-112123342D01*
X156060646Y-112010304D01*
X156066948Y-111970513D01*
X156075116Y-111918946D01*
X156075116Y-111918941D01*
X156075500Y-111916519D01*
X156075499Y-111303482D01*
X156075499Y-111303481D01*
X156524500Y-111303481D01*
X156524501Y-111916518D01*
X156539354Y-112010304D01*
X156596950Y-112123342D01*
X156686658Y-112213050D01*
X156799696Y-112270646D01*
X156839487Y-112276948D01*
X156891054Y-112285116D01*
X156891059Y-112285116D01*
X156893481Y-112285500D01*
X157125000Y-112285500D01*
X157356518Y-112285499D01*
X157450304Y-112270646D01*
X157563342Y-112213050D01*
X157653050Y-112123342D01*
X157710646Y-112010304D01*
X157723884Y-111926723D01*
X157748878Y-111885936D01*
X157785615Y-111874000D01*
X157992121Y-111874000D01*
X158036315Y-111892306D01*
X158053852Y-111926723D01*
X158065049Y-111997420D01*
X158125342Y-112115751D01*
X158219249Y-112209658D01*
X158337580Y-112269951D01*
X158378750Y-112276472D01*
X158433327Y-112285116D01*
X158433332Y-112285116D01*
X158435754Y-112285500D01*
X158939246Y-112285500D01*
X158941668Y-112285116D01*
X158941673Y-112285116D01*
X158996250Y-112276472D01*
X159037420Y-112269951D01*
X159155751Y-112209658D01*
X159249658Y-112115751D01*
X159309951Y-111997420D01*
X159322380Y-111918946D01*
X159325116Y-111901673D01*
X159325116Y-111901668D01*
X159325500Y-111899246D01*
X159325500Y-111320754D01*
X159324408Y-111313856D01*
X159314895Y-111253796D01*
X159309951Y-111222580D01*
X159249658Y-111104249D01*
X159155751Y-111010342D01*
X159037420Y-110950049D01*
X158996250Y-110943528D01*
X158941673Y-110934884D01*
X158941668Y-110934884D01*
X158939246Y-110934500D01*
X158435754Y-110934500D01*
X158433332Y-110934884D01*
X158433327Y-110934884D01*
X158378750Y-110943528D01*
X158337580Y-110950049D01*
X158219249Y-111010342D01*
X158125342Y-111104249D01*
X158065049Y-111222580D01*
X158060227Y-111253029D01*
X158053852Y-111293277D01*
X158028858Y-111334063D01*
X157992121Y-111346000D01*
X157785614Y-111346000D01*
X157741420Y-111327694D01*
X157723883Y-111293277D01*
X157711415Y-111214551D01*
X157711415Y-111214550D01*
X157710646Y-111209696D01*
X157653050Y-111096658D01*
X157563342Y-111006950D01*
X157450304Y-110949354D01*
X157410513Y-110943052D01*
X157358946Y-110934884D01*
X157358941Y-110934884D01*
X157356519Y-110934500D01*
X157354059Y-110934500D01*
X157125001Y-110934501D01*
X156893482Y-110934501D01*
X156799696Y-110949354D01*
X156686658Y-111006950D01*
X156596950Y-111096658D01*
X156539354Y-111209696D01*
X156536544Y-111227436D01*
X156526664Y-111289821D01*
X156524500Y-111303481D01*
X156075499Y-111303481D01*
X156060646Y-111209696D01*
X156003050Y-111096658D01*
X155913342Y-111006950D01*
X155800304Y-110949354D01*
X155760513Y-110943052D01*
X155708946Y-110934884D01*
X155708941Y-110934884D01*
X155706519Y-110934500D01*
X155704059Y-110934500D01*
X155475001Y-110934501D01*
X155243482Y-110934501D01*
X155218498Y-110938458D01*
X155213961Y-110939176D01*
X155167447Y-110928008D01*
X155159991Y-110921639D01*
X154474415Y-110236063D01*
X154466643Y-110226593D01*
X154458753Y-110214785D01*
X154458752Y-110214784D01*
X154455333Y-110209667D01*
X154433289Y-110194937D01*
X154368008Y-110151317D01*
X154361972Y-110150116D01*
X154361971Y-110150116D01*
X154271038Y-110132029D01*
X154265000Y-110130828D01*
X154258962Y-110132029D01*
X154245036Y-110134799D01*
X154232843Y-110136000D01*
X153624908Y-110136000D01*
X153580714Y-110117694D01*
X153562408Y-110073500D01*
X153580714Y-110029306D01*
X153596728Y-110017713D01*
X153670969Y-109980211D01*
X153673689Y-109978837D01*
X153676087Y-109976964D01*
X153676091Y-109976961D01*
X153782364Y-109893931D01*
X153828303Y-109858040D01*
X153830974Y-109854946D01*
X153954515Y-109711822D01*
X153954519Y-109711817D01*
X153956509Y-109709511D01*
X153958017Y-109706857D01*
X154051914Y-109541570D01*
X154051916Y-109541565D01*
X154053425Y-109538909D01*
X154085032Y-109443895D01*
X154087402Y-109436772D01*
X154118722Y-109400615D01*
X154146707Y-109394000D01*
X154815970Y-109394000D01*
X154860164Y-109412306D01*
X154877701Y-109446724D01*
X154889354Y-109520304D01*
X154946950Y-109633342D01*
X155036658Y-109723050D01*
X155149696Y-109780646D01*
X155189487Y-109786948D01*
X155241054Y-109795116D01*
X155241059Y-109795116D01*
X155243481Y-109795500D01*
X155475000Y-109795500D01*
X155706518Y-109795499D01*
X155800304Y-109780646D01*
X155913342Y-109723050D01*
X156003050Y-109633342D01*
X156060646Y-109520304D01*
X156072755Y-109443852D01*
X156075116Y-109428946D01*
X156075116Y-109428941D01*
X156075500Y-109426519D01*
X156075499Y-108813482D01*
X156075499Y-108813481D01*
X156524500Y-108813481D01*
X156524501Y-109426518D01*
X156539354Y-109520304D01*
X156596950Y-109633342D01*
X156686658Y-109723050D01*
X156799696Y-109780646D01*
X156839487Y-109786948D01*
X156891054Y-109795116D01*
X156891059Y-109795116D01*
X156893481Y-109795500D01*
X157125000Y-109795500D01*
X157356518Y-109795499D01*
X157450304Y-109780646D01*
X157563342Y-109723050D01*
X157653050Y-109633342D01*
X157710646Y-109520304D01*
X157723884Y-109436723D01*
X157748878Y-109395936D01*
X157785615Y-109384000D01*
X157992121Y-109384000D01*
X158036315Y-109402306D01*
X158053852Y-109436723D01*
X158065049Y-109507420D01*
X158125342Y-109625751D01*
X158219249Y-109719658D01*
X158337580Y-109779951D01*
X158378750Y-109786472D01*
X158433327Y-109795116D01*
X158433332Y-109795116D01*
X158435754Y-109795500D01*
X158939246Y-109795500D01*
X158941668Y-109795116D01*
X158941673Y-109795116D01*
X158996250Y-109786472D01*
X159037420Y-109779951D01*
X159155751Y-109719658D01*
X159249658Y-109625751D01*
X159309951Y-109507420D01*
X159320798Y-109438932D01*
X159325116Y-109411673D01*
X159325116Y-109411668D01*
X159325500Y-109409246D01*
X159325500Y-108830754D01*
X159324045Y-108821564D01*
X159312681Y-108749816D01*
X159309951Y-108732580D01*
X159249658Y-108614249D01*
X159155751Y-108520342D01*
X159037420Y-108460049D01*
X158996250Y-108453528D01*
X158941673Y-108444884D01*
X158941668Y-108444884D01*
X158939246Y-108444500D01*
X158435754Y-108444500D01*
X158433332Y-108444884D01*
X158433327Y-108444884D01*
X158378750Y-108453528D01*
X158337580Y-108460049D01*
X158219249Y-108520342D01*
X158125342Y-108614249D01*
X158065049Y-108732580D01*
X158062531Y-108748482D01*
X158053852Y-108803277D01*
X158028858Y-108844063D01*
X157992121Y-108856000D01*
X157785614Y-108856000D01*
X157741420Y-108837694D01*
X157723883Y-108803277D01*
X157711415Y-108724551D01*
X157711415Y-108724550D01*
X157710646Y-108719696D01*
X157653050Y-108606658D01*
X157563342Y-108516950D01*
X157450304Y-108459354D01*
X157410513Y-108453052D01*
X157358946Y-108444884D01*
X157358941Y-108444884D01*
X157356519Y-108444500D01*
X157354059Y-108444500D01*
X157125001Y-108444501D01*
X156893482Y-108444501D01*
X156799696Y-108459354D01*
X156686658Y-108516950D01*
X156596950Y-108606658D01*
X156539354Y-108719696D01*
X156524500Y-108813481D01*
X156075499Y-108813481D01*
X156060646Y-108719696D01*
X156003050Y-108606658D01*
X155913342Y-108516950D01*
X155800304Y-108459354D01*
X155760513Y-108453052D01*
X155708946Y-108444884D01*
X155708941Y-108444884D01*
X155706519Y-108444500D01*
X155704059Y-108444500D01*
X155475001Y-108444501D01*
X155243482Y-108444501D01*
X155149696Y-108459354D01*
X155036658Y-108516950D01*
X154946950Y-108606658D01*
X154889354Y-108719696D01*
X154888585Y-108724552D01*
X154888583Y-108724559D01*
X154874531Y-108813277D01*
X154849537Y-108854064D01*
X154812801Y-108866000D01*
X154146860Y-108866000D01*
X154102666Y-108847694D01*
X154087029Y-108821568D01*
X154064484Y-108746894D01*
X154007645Y-108639995D01*
X153973805Y-108576351D01*
X153973803Y-108576348D01*
X153972370Y-108573653D01*
X153848361Y-108421602D01*
X153718136Y-108313871D01*
X153699536Y-108298484D01*
X153697180Y-108296535D01*
X153694496Y-108295084D01*
X153694492Y-108295081D01*
X153527270Y-108204665D01*
X153524585Y-108203213D01*
X153430869Y-108174203D01*
X153340067Y-108146095D01*
X153340064Y-108146094D01*
X153337152Y-108145193D01*
X153334119Y-108144874D01*
X153334118Y-108144874D01*
X153287344Y-108139958D01*
X153142019Y-108124683D01*
X153138986Y-108124959D01*
X153138982Y-108124959D01*
X153054200Y-108132675D01*
X152946618Y-108142466D01*
X152943690Y-108143328D01*
X152943689Y-108143328D01*
X152934288Y-108146095D01*
X152758393Y-108197864D01*
X152584512Y-108288767D01*
X152431600Y-108411711D01*
X152305480Y-108562016D01*
X152276765Y-108614249D01*
X152216125Y-108724552D01*
X152210956Y-108733954D01*
X152151628Y-108920978D01*
X152151287Y-108924016D01*
X152151287Y-108924017D01*
X152144403Y-108985394D01*
X152129757Y-109115963D01*
X152130013Y-109119010D01*
X152145722Y-109306087D01*
X152146175Y-109311483D01*
X152200258Y-109500091D01*
X152289944Y-109674601D01*
X152291835Y-109676987D01*
X152291837Y-109676990D01*
X152327425Y-109721891D01*
X152411818Y-109828369D01*
X152414148Y-109830352D01*
X152450033Y-109860892D01*
X152561238Y-109955535D01*
X152605391Y-109980211D01*
X152674692Y-110018942D01*
X152704340Y-110056482D01*
X152698759Y-110103991D01*
X152661219Y-110133639D01*
X152644201Y-110136000D01*
X147695570Y-110136000D01*
X147651376Y-110117694D01*
X147633070Y-110073500D01*
X147651376Y-110029306D01*
X150319180Y-107361502D01*
X150329472Y-107353190D01*
X150337312Y-107348128D01*
X150337315Y-107348126D01*
X150341652Y-107345325D01*
X150362815Y-107318480D01*
X150367703Y-107312979D01*
X150370928Y-107309754D01*
X150373549Y-107306087D01*
X150382035Y-107294211D01*
X150383804Y-107291855D01*
X150410694Y-107257746D01*
X150410695Y-107257745D01*
X150413892Y-107253689D01*
X150415603Y-107248816D01*
X150417181Y-107245946D01*
X150418608Y-107243034D01*
X150421611Y-107238831D01*
X150423128Y-107233761D01*
X150435537Y-107192267D01*
X150436446Y-107189468D01*
X150451253Y-107147302D01*
X150451253Y-107147301D01*
X150452555Y-107143594D01*
X150453000Y-107138456D01*
X150453000Y-107137883D01*
X150453366Y-107133552D01*
X150453564Y-107131987D01*
X150455044Y-107127037D01*
X150453048Y-107076233D01*
X150453000Y-107073780D01*
X150453000Y-106575963D01*
X152129757Y-106575963D01*
X152130013Y-106579010D01*
X152144244Y-106748482D01*
X152146175Y-106771483D01*
X152165665Y-106839452D01*
X152192594Y-106933362D01*
X152200258Y-106960091D01*
X152289944Y-107134601D01*
X152291835Y-107136987D01*
X152291837Y-107136990D01*
X152335649Y-107192267D01*
X152411818Y-107288369D01*
X152561238Y-107415535D01*
X152732513Y-107511257D01*
X152735417Y-107512201D01*
X152735418Y-107512201D01*
X152916205Y-107570943D01*
X152916210Y-107570944D01*
X152919118Y-107571889D01*
X153113946Y-107595121D01*
X153116988Y-107594887D01*
X153116991Y-107594887D01*
X153306528Y-107580303D01*
X153306533Y-107580302D01*
X153309576Y-107580068D01*
X153337569Y-107572252D01*
X153495617Y-107528124D01*
X153495621Y-107528123D01*
X153498556Y-107527303D01*
X153627929Y-107461952D01*
X153670969Y-107440211D01*
X153673689Y-107438837D01*
X153676087Y-107436964D01*
X153676091Y-107436961D01*
X153789792Y-107348128D01*
X153828303Y-107318040D01*
X153833882Y-107311577D01*
X153954515Y-107171822D01*
X153954519Y-107171817D01*
X153956509Y-107169511D01*
X153961601Y-107160548D01*
X154051914Y-107001570D01*
X154051916Y-107001565D01*
X154053425Y-106998909D01*
X154087402Y-106896772D01*
X154118722Y-106860615D01*
X154146707Y-106854000D01*
X154815970Y-106854000D01*
X154860164Y-106872306D01*
X154877701Y-106906724D01*
X154889354Y-106980304D01*
X154946950Y-107093342D01*
X155036658Y-107183050D01*
X155149696Y-107240646D01*
X155181688Y-107245713D01*
X155241054Y-107255116D01*
X155241059Y-107255116D01*
X155243481Y-107255500D01*
X155475000Y-107255500D01*
X155706518Y-107255499D01*
X155800304Y-107240646D01*
X155913342Y-107183050D01*
X156003050Y-107093342D01*
X156060646Y-106980304D01*
X156075500Y-106886519D01*
X156075499Y-106273482D01*
X156075499Y-106273481D01*
X156524500Y-106273481D01*
X156524501Y-106886518D01*
X156539354Y-106980304D01*
X156596950Y-107093342D01*
X156686658Y-107183050D01*
X156799696Y-107240646D01*
X156831688Y-107245713D01*
X156891054Y-107255116D01*
X156891059Y-107255116D01*
X156893481Y-107255500D01*
X157125000Y-107255500D01*
X157356518Y-107255499D01*
X157450304Y-107240646D01*
X157563342Y-107183050D01*
X157653050Y-107093342D01*
X157710646Y-106980304D01*
X157723884Y-106896723D01*
X157748878Y-106855936D01*
X157785615Y-106844000D01*
X157992121Y-106844000D01*
X158036315Y-106862306D01*
X158053852Y-106896723D01*
X158065049Y-106967420D01*
X158125342Y-107085751D01*
X158219249Y-107179658D01*
X158337580Y-107239951D01*
X158375432Y-107245946D01*
X158433327Y-107255116D01*
X158433332Y-107255116D01*
X158435754Y-107255500D01*
X158939246Y-107255500D01*
X158941668Y-107255116D01*
X158941673Y-107255116D01*
X158999568Y-107245946D01*
X159037420Y-107239951D01*
X159155751Y-107179658D01*
X159249658Y-107085751D01*
X159309951Y-106967420D01*
X159319564Y-106906724D01*
X159325116Y-106871673D01*
X159325116Y-106871668D01*
X159325500Y-106869246D01*
X159325500Y-106290754D01*
X159324045Y-106281564D01*
X159310720Y-106197437D01*
X159310720Y-106197436D01*
X159309951Y-106192580D01*
X159249658Y-106074249D01*
X159155751Y-105980342D01*
X159037420Y-105920049D01*
X158996250Y-105913528D01*
X158941673Y-105904884D01*
X158941668Y-105904884D01*
X158939246Y-105904500D01*
X158435754Y-105904500D01*
X158433332Y-105904884D01*
X158433327Y-105904884D01*
X158378750Y-105913528D01*
X158337580Y-105920049D01*
X158219249Y-105980342D01*
X158125342Y-106074249D01*
X158065049Y-106192580D01*
X158064280Y-106197436D01*
X158053852Y-106263277D01*
X158028858Y-106304063D01*
X157992121Y-106316000D01*
X157785614Y-106316000D01*
X157741420Y-106297694D01*
X157723883Y-106263277D01*
X157711415Y-106184551D01*
X157711415Y-106184550D01*
X157710646Y-106179696D01*
X157653050Y-106066658D01*
X157563342Y-105976950D01*
X157450304Y-105919354D01*
X157410513Y-105913052D01*
X157358946Y-105904884D01*
X157358941Y-105904884D01*
X157356519Y-105904500D01*
X157354059Y-105904500D01*
X157125001Y-105904501D01*
X156893482Y-105904501D01*
X156799696Y-105919354D01*
X156686658Y-105976950D01*
X156596950Y-106066658D01*
X156539354Y-106179696D01*
X156534583Y-106209817D01*
X156526002Y-106264000D01*
X156524500Y-106273481D01*
X156075499Y-106273481D01*
X156060646Y-106179696D01*
X156003050Y-106066658D01*
X155913342Y-105976950D01*
X155800304Y-105919354D01*
X155760513Y-105913052D01*
X155708946Y-105904884D01*
X155708941Y-105904884D01*
X155706519Y-105904500D01*
X155704059Y-105904500D01*
X155475001Y-105904501D01*
X155243482Y-105904501D01*
X155149696Y-105919354D01*
X155036658Y-105976950D01*
X154946950Y-106066658D01*
X154889354Y-106179696D01*
X154888585Y-106184552D01*
X154888583Y-106184559D01*
X154874531Y-106273277D01*
X154849537Y-106314064D01*
X154812801Y-106326000D01*
X154146860Y-106326000D01*
X154102666Y-106307694D01*
X154087029Y-106281568D01*
X154064484Y-106206894D01*
X153996284Y-106078628D01*
X153973805Y-106036351D01*
X153973803Y-106036348D01*
X153972370Y-106033653D01*
X153848361Y-105881602D01*
X153697180Y-105756535D01*
X153694496Y-105755084D01*
X153694492Y-105755081D01*
X153527270Y-105664665D01*
X153524585Y-105663213D01*
X153430869Y-105634203D01*
X153340067Y-105606095D01*
X153340064Y-105606094D01*
X153337152Y-105605193D01*
X153334119Y-105604874D01*
X153334118Y-105604874D01*
X153287344Y-105599958D01*
X153142019Y-105584683D01*
X153138986Y-105584959D01*
X153138982Y-105584959D01*
X153054200Y-105592675D01*
X152946618Y-105602466D01*
X152943690Y-105603328D01*
X152943689Y-105603328D01*
X152934288Y-105606095D01*
X152758393Y-105657864D01*
X152584512Y-105748767D01*
X152431600Y-105871711D01*
X152305480Y-106022016D01*
X152276765Y-106074249D01*
X152216125Y-106184552D01*
X152210956Y-106193954D01*
X152151628Y-106380978D01*
X152151287Y-106384016D01*
X152151287Y-106384017D01*
X152131980Y-106556148D01*
X152129757Y-106575963D01*
X150453000Y-106575963D01*
X150453000Y-104035963D01*
X152129757Y-104035963D01*
X152130013Y-104039010D01*
X152145083Y-104218474D01*
X152146175Y-104231483D01*
X152200258Y-104420091D01*
X152289944Y-104594601D01*
X152291835Y-104596987D01*
X152291837Y-104596990D01*
X152370366Y-104696069D01*
X152411818Y-104748369D01*
X152414148Y-104750352D01*
X152485008Y-104810658D01*
X152561238Y-104875535D01*
X152732513Y-104971257D01*
X152735417Y-104972201D01*
X152735418Y-104972201D01*
X152916205Y-105030943D01*
X152916210Y-105030944D01*
X152919118Y-105031889D01*
X153113946Y-105055121D01*
X153116988Y-105054887D01*
X153116991Y-105054887D01*
X153306528Y-105040303D01*
X153306533Y-105040302D01*
X153309576Y-105040068D01*
X153337569Y-105032252D01*
X153495617Y-104988124D01*
X153495621Y-104988123D01*
X153498556Y-104987303D01*
X153673689Y-104898837D01*
X153676087Y-104896964D01*
X153676091Y-104896961D01*
X153786511Y-104810691D01*
X153828303Y-104778040D01*
X153830300Y-104775727D01*
X153954515Y-104631822D01*
X153954519Y-104631817D01*
X153956509Y-104629511D01*
X153958017Y-104626857D01*
X154051914Y-104461570D01*
X154051916Y-104461565D01*
X154053425Y-104458909D01*
X154081363Y-104374925D01*
X154087402Y-104356772D01*
X154118722Y-104320615D01*
X154146707Y-104314000D01*
X154815970Y-104314000D01*
X154860164Y-104332306D01*
X154877701Y-104366724D01*
X154889354Y-104440304D01*
X154946950Y-104553342D01*
X155036658Y-104643050D01*
X155149696Y-104700646D01*
X155189487Y-104706948D01*
X155241054Y-104715116D01*
X155241059Y-104715116D01*
X155243481Y-104715500D01*
X155475000Y-104715500D01*
X155706518Y-104715499D01*
X155800304Y-104700646D01*
X155913342Y-104643050D01*
X156003050Y-104553342D01*
X156060646Y-104440304D01*
X156071018Y-104374818D01*
X156075116Y-104348946D01*
X156075116Y-104348941D01*
X156075500Y-104346519D01*
X156075499Y-103733482D01*
X156075499Y-103733481D01*
X156524500Y-103733481D01*
X156524501Y-104346518D01*
X156539354Y-104440304D01*
X156596950Y-104553342D01*
X156686658Y-104643050D01*
X156799696Y-104700646D01*
X156839487Y-104706948D01*
X156891054Y-104715116D01*
X156891059Y-104715116D01*
X156893481Y-104715500D01*
X157125000Y-104715500D01*
X157356518Y-104715499D01*
X157450304Y-104700646D01*
X157563342Y-104643050D01*
X157653050Y-104553342D01*
X157710646Y-104440304D01*
X157721018Y-104374818D01*
X157723884Y-104356723D01*
X157748878Y-104315936D01*
X157785615Y-104304000D01*
X157992121Y-104304000D01*
X158036315Y-104322306D01*
X158053852Y-104356723D01*
X158065049Y-104427420D01*
X158125342Y-104545751D01*
X158219249Y-104639658D01*
X158337580Y-104699951D01*
X158378750Y-104706472D01*
X158433327Y-104715116D01*
X158433332Y-104715116D01*
X158435754Y-104715500D01*
X158939246Y-104715500D01*
X158941668Y-104715116D01*
X158941673Y-104715116D01*
X158996250Y-104706472D01*
X159037420Y-104699951D01*
X159155751Y-104639658D01*
X159249658Y-104545751D01*
X159309951Y-104427420D01*
X159319564Y-104366724D01*
X159325116Y-104331673D01*
X159325116Y-104331668D01*
X159325500Y-104329246D01*
X159325500Y-103750754D01*
X159324045Y-103741564D01*
X159315267Y-103686144D01*
X159309951Y-103652580D01*
X159249658Y-103534249D01*
X159155751Y-103440342D01*
X159037420Y-103380049D01*
X158996250Y-103373528D01*
X158941673Y-103364884D01*
X158941668Y-103364884D01*
X158939246Y-103364500D01*
X158435754Y-103364500D01*
X158433332Y-103364884D01*
X158433327Y-103364884D01*
X158378750Y-103373528D01*
X158337580Y-103380049D01*
X158219249Y-103440342D01*
X158125342Y-103534249D01*
X158065049Y-103652580D01*
X158060227Y-103683029D01*
X158053852Y-103723277D01*
X158028858Y-103764063D01*
X157992121Y-103776000D01*
X157785614Y-103776000D01*
X157741420Y-103757694D01*
X157723883Y-103723277D01*
X157711415Y-103644551D01*
X157711415Y-103644550D01*
X157710646Y-103639696D01*
X157653050Y-103526658D01*
X157563342Y-103436950D01*
X157450304Y-103379354D01*
X157410513Y-103373052D01*
X157358946Y-103364884D01*
X157358941Y-103364884D01*
X157356519Y-103364500D01*
X157354059Y-103364500D01*
X157125001Y-103364501D01*
X156893482Y-103364501D01*
X156799696Y-103379354D01*
X156686658Y-103436950D01*
X156596950Y-103526658D01*
X156539354Y-103639696D01*
X156524500Y-103733481D01*
X156075499Y-103733481D01*
X156060646Y-103639696D01*
X156003050Y-103526658D01*
X155913342Y-103436950D01*
X155800304Y-103379354D01*
X155760513Y-103373052D01*
X155708946Y-103364884D01*
X155708941Y-103364884D01*
X155706519Y-103364500D01*
X155704059Y-103364500D01*
X155475001Y-103364501D01*
X155243482Y-103364501D01*
X155149696Y-103379354D01*
X155036658Y-103436950D01*
X154946950Y-103526658D01*
X154889354Y-103639696D01*
X154888585Y-103644552D01*
X154888583Y-103644559D01*
X154874531Y-103733277D01*
X154849537Y-103774064D01*
X154812801Y-103786000D01*
X154146860Y-103786000D01*
X154102666Y-103767694D01*
X154087029Y-103741568D01*
X154064484Y-103666894D01*
X153996284Y-103538628D01*
X153973805Y-103496351D01*
X153973803Y-103496348D01*
X153972370Y-103493653D01*
X153848361Y-103341602D01*
X153697180Y-103216535D01*
X153694496Y-103215084D01*
X153694492Y-103215081D01*
X153527270Y-103124665D01*
X153524585Y-103123213D01*
X153430868Y-103094203D01*
X153340067Y-103066095D01*
X153340064Y-103066094D01*
X153337152Y-103065193D01*
X153334119Y-103064874D01*
X153334118Y-103064874D01*
X153287344Y-103059958D01*
X153142019Y-103044683D01*
X153138986Y-103044959D01*
X153138982Y-103044959D01*
X153054200Y-103052675D01*
X152946618Y-103062466D01*
X152943690Y-103063328D01*
X152943689Y-103063328D01*
X152934288Y-103066095D01*
X152758393Y-103117864D01*
X152584512Y-103208767D01*
X152431600Y-103331711D01*
X152305480Y-103482016D01*
X152258682Y-103567141D01*
X152216125Y-103644552D01*
X152210956Y-103653954D01*
X152151628Y-103840978D01*
X152151287Y-103844016D01*
X152151287Y-103844017D01*
X152131835Y-104017440D01*
X152129757Y-104035963D01*
X150453000Y-104035963D01*
X150453000Y-101495963D01*
X152129757Y-101495963D01*
X152130013Y-101499010D01*
X152145727Y-101686144D01*
X152146175Y-101691483D01*
X152147017Y-101694419D01*
X152197887Y-101871821D01*
X152200258Y-101880091D01*
X152289944Y-102054601D01*
X152291835Y-102056987D01*
X152291837Y-102056990D01*
X152357985Y-102140448D01*
X152411818Y-102208369D01*
X152561238Y-102335535D01*
X152732513Y-102431257D01*
X152735417Y-102432201D01*
X152735418Y-102432201D01*
X152916205Y-102490943D01*
X152916210Y-102490944D01*
X152919118Y-102491889D01*
X153113946Y-102515121D01*
X153116988Y-102514887D01*
X153116991Y-102514887D01*
X153306528Y-102500303D01*
X153306533Y-102500302D01*
X153309576Y-102500068D01*
X153337569Y-102492252D01*
X153495617Y-102448124D01*
X153495621Y-102448123D01*
X153498556Y-102447303D01*
X153673689Y-102358837D01*
X153676087Y-102356964D01*
X153676091Y-102356961D01*
X153795445Y-102263711D01*
X153828303Y-102238040D01*
X153845192Y-102218474D01*
X153954515Y-102091822D01*
X153954519Y-102091817D01*
X153956509Y-102089511D01*
X153995323Y-102021187D01*
X154051914Y-101921570D01*
X154051916Y-101921565D01*
X154053425Y-101918909D01*
X154087402Y-101816772D01*
X154118722Y-101780615D01*
X154146707Y-101774000D01*
X154815970Y-101774000D01*
X154860164Y-101792306D01*
X154877701Y-101826724D01*
X154889354Y-101900304D01*
X154946950Y-102013342D01*
X155036658Y-102103050D01*
X155149696Y-102160646D01*
X155189487Y-102166948D01*
X155241054Y-102175116D01*
X155241059Y-102175116D01*
X155243481Y-102175500D01*
X155475000Y-102175500D01*
X155706518Y-102175499D01*
X155800304Y-102160646D01*
X155913342Y-102103050D01*
X156003050Y-102013342D01*
X156060646Y-101900304D01*
X156075500Y-101806519D01*
X156075499Y-101193482D01*
X156075499Y-101193481D01*
X156524500Y-101193481D01*
X156524501Y-101806518D01*
X156539354Y-101900304D01*
X156596950Y-102013342D01*
X156686658Y-102103050D01*
X156799696Y-102160646D01*
X156839487Y-102166948D01*
X156891054Y-102175116D01*
X156891059Y-102175116D01*
X156893481Y-102175500D01*
X157125000Y-102175500D01*
X157356518Y-102175499D01*
X157450304Y-102160646D01*
X157563342Y-102103050D01*
X157653050Y-102013342D01*
X157710646Y-101900304D01*
X157723884Y-101816723D01*
X157748878Y-101775936D01*
X157785615Y-101764000D01*
X157832121Y-101764000D01*
X157876315Y-101782306D01*
X157893852Y-101816723D01*
X157905049Y-101887420D01*
X157965342Y-102005751D01*
X158059249Y-102099658D01*
X158177580Y-102159951D01*
X158218750Y-102166472D01*
X158273327Y-102175116D01*
X158273332Y-102175116D01*
X158275754Y-102175500D01*
X158779246Y-102175500D01*
X158781668Y-102175116D01*
X158781673Y-102175116D01*
X158836250Y-102166472D01*
X158877420Y-102159951D01*
X158995751Y-102099658D01*
X159089658Y-102005751D01*
X159149951Y-101887420D01*
X159159564Y-101826724D01*
X159165116Y-101791673D01*
X159165116Y-101791668D01*
X159165500Y-101789246D01*
X159165500Y-101210754D01*
X159164045Y-101201564D01*
X159156472Y-101153750D01*
X159149951Y-101112580D01*
X159089658Y-100994249D01*
X158995751Y-100900342D01*
X158877420Y-100840049D01*
X158836250Y-100833528D01*
X158781673Y-100824884D01*
X158781668Y-100824884D01*
X158779246Y-100824500D01*
X158275754Y-100824500D01*
X158273332Y-100824884D01*
X158273327Y-100824884D01*
X158218750Y-100833528D01*
X158177580Y-100840049D01*
X158059249Y-100900342D01*
X157965342Y-100994249D01*
X157905049Y-101112580D01*
X157899391Y-101148307D01*
X157893852Y-101183277D01*
X157868858Y-101224063D01*
X157832121Y-101236000D01*
X157785614Y-101236000D01*
X157741420Y-101217694D01*
X157723883Y-101183277D01*
X157711415Y-101104551D01*
X157711415Y-101104550D01*
X157710646Y-101099696D01*
X157653050Y-100986658D01*
X157563342Y-100896950D01*
X157450304Y-100839354D01*
X157410513Y-100833052D01*
X157358946Y-100824884D01*
X157358941Y-100824884D01*
X157356519Y-100824500D01*
X157354059Y-100824500D01*
X157125001Y-100824501D01*
X156893482Y-100824501D01*
X156799696Y-100839354D01*
X156686658Y-100896950D01*
X156596950Y-100986658D01*
X156539354Y-101099696D01*
X156524500Y-101193481D01*
X156075499Y-101193481D01*
X156060646Y-101099696D01*
X156003050Y-100986658D01*
X155913342Y-100896950D01*
X155800304Y-100839354D01*
X155760513Y-100833052D01*
X155708946Y-100824884D01*
X155708941Y-100824884D01*
X155706519Y-100824500D01*
X155704059Y-100824500D01*
X155475001Y-100824501D01*
X155243482Y-100824501D01*
X155149696Y-100839354D01*
X155036658Y-100896950D01*
X154946950Y-100986658D01*
X154889354Y-101099696D01*
X154888585Y-101104552D01*
X154888583Y-101104559D01*
X154874531Y-101193277D01*
X154849537Y-101234064D01*
X154812801Y-101246000D01*
X154146860Y-101246000D01*
X154102666Y-101227694D01*
X154087029Y-101201568D01*
X154064484Y-101126894D01*
X153994996Y-100996206D01*
X153973805Y-100956351D01*
X153973803Y-100956348D01*
X153972370Y-100953653D01*
X153848361Y-100801602D01*
X153730201Y-100703852D01*
X153699536Y-100678484D01*
X153697180Y-100676535D01*
X153694496Y-100675084D01*
X153694492Y-100675081D01*
X153527270Y-100584665D01*
X153524585Y-100583213D01*
X153429932Y-100553913D01*
X153340067Y-100526095D01*
X153340064Y-100526094D01*
X153337152Y-100525193D01*
X153334119Y-100524874D01*
X153334118Y-100524874D01*
X153287344Y-100519958D01*
X153142019Y-100504683D01*
X153138986Y-100504959D01*
X153138982Y-100504959D01*
X153054200Y-100512675D01*
X152946618Y-100522466D01*
X152943690Y-100523328D01*
X152943689Y-100523328D01*
X152934288Y-100526095D01*
X152758393Y-100577864D01*
X152584512Y-100668767D01*
X152431600Y-100791711D01*
X152305480Y-100942016D01*
X152277537Y-100992844D01*
X152216125Y-101104552D01*
X152210956Y-101113954D01*
X152151628Y-101300978D01*
X152151287Y-101304016D01*
X152151287Y-101304017D01*
X152149745Y-101317769D01*
X152129757Y-101495963D01*
X150453000Y-101495963D01*
X150453000Y-98955963D01*
X152129757Y-98955963D01*
X152130013Y-98959010D01*
X152145374Y-99141941D01*
X152146175Y-99151483D01*
X152200258Y-99340091D01*
X152289944Y-99514601D01*
X152291835Y-99516987D01*
X152291837Y-99516990D01*
X152327425Y-99561891D01*
X152411818Y-99668369D01*
X152561238Y-99795535D01*
X152732513Y-99891257D01*
X152735417Y-99892201D01*
X152735418Y-99892201D01*
X152916205Y-99950943D01*
X152916210Y-99950944D01*
X152919118Y-99951889D01*
X153113946Y-99975121D01*
X153116988Y-99974887D01*
X153116991Y-99974887D01*
X153306528Y-99960303D01*
X153306533Y-99960302D01*
X153309576Y-99960068D01*
X153337569Y-99952252D01*
X153495617Y-99908124D01*
X153495621Y-99908123D01*
X153498556Y-99907303D01*
X153673689Y-99818837D01*
X153676087Y-99816964D01*
X153676091Y-99816961D01*
X153756930Y-99753802D01*
X153828303Y-99698040D01*
X153830300Y-99695727D01*
X153954515Y-99551822D01*
X153954519Y-99551817D01*
X153956509Y-99549511D01*
X153982787Y-99503254D01*
X154051914Y-99381570D01*
X154051916Y-99381565D01*
X154053425Y-99378909D01*
X154087402Y-99276772D01*
X154118722Y-99240615D01*
X154146707Y-99234000D01*
X154815970Y-99234000D01*
X154860164Y-99252306D01*
X154877701Y-99286724D01*
X154889354Y-99360304D01*
X154946950Y-99473342D01*
X155036658Y-99563050D01*
X155149696Y-99620646D01*
X155189487Y-99626948D01*
X155241054Y-99635116D01*
X155241059Y-99635116D01*
X155243481Y-99635500D01*
X155475000Y-99635500D01*
X155706518Y-99635499D01*
X155800304Y-99620646D01*
X155913342Y-99563050D01*
X156003050Y-99473342D01*
X156060646Y-99360304D01*
X156075500Y-99266519D01*
X156075499Y-98653482D01*
X156075499Y-98653481D01*
X156524500Y-98653481D01*
X156524501Y-99266518D01*
X156539354Y-99360304D01*
X156596950Y-99473342D01*
X156686658Y-99563050D01*
X156799696Y-99620646D01*
X156839487Y-99626948D01*
X156891054Y-99635116D01*
X156891059Y-99635116D01*
X156893481Y-99635500D01*
X157125000Y-99635500D01*
X157356518Y-99635499D01*
X157450304Y-99620646D01*
X157563342Y-99563050D01*
X157653050Y-99473342D01*
X157710646Y-99360304D01*
X157723884Y-99276723D01*
X157748878Y-99235936D01*
X157785615Y-99224000D01*
X157992121Y-99224000D01*
X158036315Y-99242306D01*
X158053852Y-99276723D01*
X158065049Y-99347420D01*
X158125342Y-99465751D01*
X158219249Y-99559658D01*
X158337580Y-99619951D01*
X158378750Y-99626472D01*
X158433327Y-99635116D01*
X158433332Y-99635116D01*
X158435754Y-99635500D01*
X158939246Y-99635500D01*
X158941668Y-99635116D01*
X158941673Y-99635116D01*
X158996250Y-99626472D01*
X159037420Y-99619951D01*
X159155751Y-99559658D01*
X159249658Y-99465751D01*
X159309951Y-99347420D01*
X159319564Y-99286724D01*
X159325116Y-99251673D01*
X159325116Y-99251668D01*
X159325500Y-99249246D01*
X159325500Y-98670754D01*
X159324045Y-98661564D01*
X159311790Y-98584192D01*
X159309951Y-98572580D01*
X159249658Y-98454249D01*
X159155751Y-98360342D01*
X159037420Y-98300049D01*
X158993539Y-98293099D01*
X158941673Y-98284884D01*
X158941668Y-98284884D01*
X158939246Y-98284500D01*
X158435754Y-98284500D01*
X158433332Y-98284884D01*
X158433327Y-98284884D01*
X158381461Y-98293099D01*
X158337580Y-98300049D01*
X158219249Y-98360342D01*
X158125342Y-98454249D01*
X158065049Y-98572580D01*
X158064280Y-98577436D01*
X158053852Y-98643277D01*
X158028858Y-98684063D01*
X157992121Y-98696000D01*
X157785614Y-98696000D01*
X157741420Y-98677694D01*
X157723883Y-98643277D01*
X157711415Y-98564551D01*
X157711415Y-98564550D01*
X157710646Y-98559696D01*
X157653050Y-98446658D01*
X157563342Y-98356950D01*
X157450304Y-98299354D01*
X157410513Y-98293052D01*
X157358946Y-98284884D01*
X157358941Y-98284884D01*
X157356519Y-98284500D01*
X157354059Y-98284500D01*
X157125001Y-98284501D01*
X156893482Y-98284501D01*
X156799696Y-98299354D01*
X156686658Y-98356950D01*
X156596950Y-98446658D01*
X156539354Y-98559696D01*
X156534583Y-98589817D01*
X156525637Y-98646304D01*
X156524500Y-98653481D01*
X156075499Y-98653481D01*
X156060646Y-98559696D01*
X156003050Y-98446658D01*
X155913342Y-98356950D01*
X155800304Y-98299354D01*
X155760513Y-98293052D01*
X155708946Y-98284884D01*
X155708941Y-98284884D01*
X155706519Y-98284500D01*
X155704059Y-98284500D01*
X155475001Y-98284501D01*
X155243482Y-98284501D01*
X155149696Y-98299354D01*
X155036658Y-98356950D01*
X154946950Y-98446658D01*
X154889354Y-98559696D01*
X154888585Y-98564552D01*
X154888583Y-98564559D01*
X154874531Y-98653277D01*
X154849537Y-98694064D01*
X154812801Y-98706000D01*
X154146860Y-98706000D01*
X154102666Y-98687694D01*
X154087029Y-98661568D01*
X154064484Y-98586894D01*
X153996284Y-98458628D01*
X153973805Y-98416351D01*
X153973803Y-98416348D01*
X153972370Y-98413653D01*
X153848361Y-98261602D01*
X153697180Y-98136535D01*
X153694496Y-98135084D01*
X153694492Y-98135081D01*
X153572467Y-98069103D01*
X153524585Y-98043213D01*
X153398354Y-98004138D01*
X153340067Y-97986095D01*
X153340064Y-97986094D01*
X153337152Y-97985193D01*
X153334119Y-97984874D01*
X153334118Y-97984874D01*
X153287344Y-97979958D01*
X153142019Y-97964683D01*
X153138986Y-97964959D01*
X153138982Y-97964959D01*
X153059971Y-97972150D01*
X152946618Y-97982466D01*
X152943690Y-97983328D01*
X152943689Y-97983328D01*
X152934288Y-97986095D01*
X152758393Y-98037864D01*
X152584512Y-98128767D01*
X152431600Y-98251711D01*
X152305480Y-98402016D01*
X152276765Y-98454249D01*
X152216125Y-98564552D01*
X152210956Y-98573954D01*
X152151628Y-98760978D01*
X152151287Y-98764016D01*
X152151287Y-98764017D01*
X152142115Y-98845793D01*
X152129757Y-98955963D01*
X150453000Y-98955963D01*
X150453000Y-96415963D01*
X152129757Y-96415963D01*
X152133146Y-96456318D01*
X152145688Y-96605682D01*
X152146175Y-96611483D01*
X152200258Y-96800091D01*
X152289944Y-96974601D01*
X152291835Y-96976987D01*
X152291837Y-96976990D01*
X152327425Y-97021891D01*
X152411818Y-97128369D01*
X152561238Y-97255535D01*
X152732513Y-97351257D01*
X152735417Y-97352201D01*
X152735418Y-97352201D01*
X152916205Y-97410943D01*
X152916210Y-97410944D01*
X152919118Y-97411889D01*
X153113946Y-97435121D01*
X153116988Y-97434887D01*
X153116991Y-97434887D01*
X153306528Y-97420303D01*
X153306533Y-97420302D01*
X153309576Y-97420068D01*
X153337569Y-97412252D01*
X153495617Y-97368124D01*
X153495621Y-97368123D01*
X153498556Y-97367303D01*
X153673689Y-97278837D01*
X153676087Y-97276964D01*
X153676091Y-97276961D01*
X153756930Y-97213802D01*
X153828303Y-97158040D01*
X153830300Y-97155727D01*
X153954515Y-97011822D01*
X153954519Y-97011817D01*
X153956509Y-97009511D01*
X153958017Y-97006857D01*
X154051914Y-96841570D01*
X154051916Y-96841565D01*
X154053425Y-96838909D01*
X154072677Y-96781036D01*
X154087402Y-96736772D01*
X154118722Y-96700615D01*
X154146707Y-96694000D01*
X154815970Y-96694000D01*
X154860164Y-96712306D01*
X154877701Y-96746724D01*
X154889354Y-96820304D01*
X154946950Y-96933342D01*
X155036658Y-97023050D01*
X155149696Y-97080646D01*
X155189487Y-97086948D01*
X155241054Y-97095116D01*
X155241059Y-97095116D01*
X155243481Y-97095500D01*
X155475000Y-97095500D01*
X155706518Y-97095499D01*
X155800304Y-97080646D01*
X155913342Y-97023050D01*
X156003050Y-96933342D01*
X156060646Y-96820304D01*
X156075500Y-96726519D01*
X156075499Y-96113482D01*
X156075499Y-96113481D01*
X156524500Y-96113481D01*
X156524501Y-96726518D01*
X156539354Y-96820304D01*
X156596950Y-96933342D01*
X156686658Y-97023050D01*
X156799696Y-97080646D01*
X156839487Y-97086948D01*
X156891054Y-97095116D01*
X156891059Y-97095116D01*
X156893481Y-97095500D01*
X157125000Y-97095500D01*
X157356518Y-97095499D01*
X157450304Y-97080646D01*
X157563342Y-97023050D01*
X157653050Y-96933342D01*
X157710646Y-96820304D01*
X157723884Y-96736723D01*
X157748878Y-96695936D01*
X157785615Y-96684000D01*
X157992121Y-96684000D01*
X158036315Y-96702306D01*
X158053852Y-96736723D01*
X158065049Y-96807420D01*
X158125342Y-96925751D01*
X158219249Y-97019658D01*
X158337580Y-97079951D01*
X158378750Y-97086472D01*
X158433327Y-97095116D01*
X158433332Y-97095116D01*
X158435754Y-97095500D01*
X158939246Y-97095500D01*
X158941668Y-97095116D01*
X158941673Y-97095116D01*
X158996250Y-97086472D01*
X159037420Y-97079951D01*
X159155751Y-97019658D01*
X159249658Y-96925751D01*
X159309951Y-96807420D01*
X159321006Y-96737619D01*
X159325116Y-96711673D01*
X159325116Y-96711668D01*
X159325500Y-96709246D01*
X159325500Y-96130754D01*
X159324045Y-96121564D01*
X159310720Y-96037437D01*
X159310720Y-96037436D01*
X159309951Y-96032580D01*
X159249658Y-95914249D01*
X159155751Y-95820342D01*
X159037420Y-95760049D01*
X158996250Y-95753528D01*
X158941673Y-95744884D01*
X158941668Y-95744884D01*
X158939246Y-95744500D01*
X158435754Y-95744500D01*
X158433332Y-95744884D01*
X158433327Y-95744884D01*
X158378750Y-95753528D01*
X158337580Y-95760049D01*
X158219249Y-95820342D01*
X158125342Y-95914249D01*
X158065049Y-96032580D01*
X158064280Y-96037436D01*
X158053852Y-96103277D01*
X158028858Y-96144063D01*
X157992121Y-96156000D01*
X157785614Y-96156000D01*
X157741420Y-96137694D01*
X157723883Y-96103277D01*
X157711415Y-96024551D01*
X157711415Y-96024550D01*
X157710646Y-96019696D01*
X157653050Y-95906658D01*
X157563342Y-95816950D01*
X157450304Y-95759354D01*
X157410513Y-95753052D01*
X157358946Y-95744884D01*
X157358941Y-95744884D01*
X157356519Y-95744500D01*
X157354059Y-95744500D01*
X157125001Y-95744501D01*
X156893482Y-95744501D01*
X156799696Y-95759354D01*
X156686658Y-95816950D01*
X156596950Y-95906658D01*
X156539354Y-96019696D01*
X156524500Y-96113481D01*
X156075499Y-96113481D01*
X156060646Y-96019696D01*
X156003050Y-95906658D01*
X155913342Y-95816950D01*
X155800304Y-95759354D01*
X155760513Y-95753052D01*
X155708946Y-95744884D01*
X155708941Y-95744884D01*
X155706519Y-95744500D01*
X155704059Y-95744500D01*
X155475001Y-95744501D01*
X155243482Y-95744501D01*
X155149696Y-95759354D01*
X155036658Y-95816950D01*
X154946950Y-95906658D01*
X154889354Y-96019696D01*
X154888585Y-96024552D01*
X154888583Y-96024559D01*
X154874531Y-96113277D01*
X154849537Y-96154064D01*
X154812801Y-96166000D01*
X154146860Y-96166000D01*
X154102666Y-96147694D01*
X154087029Y-96121568D01*
X154064484Y-96046894D01*
X153996284Y-95918628D01*
X153973805Y-95876351D01*
X153973803Y-95876348D01*
X153972370Y-95873653D01*
X153848361Y-95721602D01*
X153697180Y-95596535D01*
X153694496Y-95595084D01*
X153694492Y-95595081D01*
X153536146Y-95509464D01*
X153524585Y-95503213D01*
X153391292Y-95461952D01*
X153340067Y-95446095D01*
X153340064Y-95446094D01*
X153337152Y-95445193D01*
X153334119Y-95444874D01*
X153334118Y-95444874D01*
X153281019Y-95439293D01*
X153142019Y-95424683D01*
X153138986Y-95424959D01*
X153138982Y-95424959D01*
X153054200Y-95432675D01*
X152946618Y-95442466D01*
X152943690Y-95443328D01*
X152943689Y-95443328D01*
X152934288Y-95446095D01*
X152758393Y-95497864D01*
X152584512Y-95588767D01*
X152431600Y-95711711D01*
X152305480Y-95862016D01*
X152276765Y-95914249D01*
X152216125Y-96024552D01*
X152210956Y-96033954D01*
X152151628Y-96220978D01*
X152151287Y-96224016D01*
X152151287Y-96224017D01*
X152134296Y-96375500D01*
X152129757Y-96415963D01*
X150453000Y-96415963D01*
X150453000Y-93875963D01*
X152129757Y-93875963D01*
X152146175Y-94071483D01*
X152200258Y-94260091D01*
X152289944Y-94434601D01*
X152291835Y-94436987D01*
X152291837Y-94436990D01*
X152348442Y-94508408D01*
X152411818Y-94588369D01*
X152414148Y-94590352D01*
X152472479Y-94639995D01*
X152561238Y-94715535D01*
X152732513Y-94811257D01*
X152735417Y-94812201D01*
X152735418Y-94812201D01*
X152916205Y-94870943D01*
X152916210Y-94870944D01*
X152919118Y-94871889D01*
X153113946Y-94895121D01*
X153116988Y-94894887D01*
X153116991Y-94894887D01*
X153306528Y-94880303D01*
X153306533Y-94880302D01*
X153309576Y-94880068D01*
X153337569Y-94872252D01*
X153495617Y-94828124D01*
X153495621Y-94828123D01*
X153498556Y-94827303D01*
X153654595Y-94748482D01*
X153670969Y-94740211D01*
X153673689Y-94738837D01*
X153676087Y-94736964D01*
X153676091Y-94736961D01*
X153769352Y-94664097D01*
X153828303Y-94618040D01*
X153830300Y-94615727D01*
X153954515Y-94471822D01*
X153954519Y-94471817D01*
X153956509Y-94469511D01*
X153967215Y-94450665D01*
X154051914Y-94301570D01*
X154051916Y-94301565D01*
X154053425Y-94298909D01*
X154087402Y-94196772D01*
X154118722Y-94160615D01*
X154146707Y-94154000D01*
X154815970Y-94154000D01*
X154860164Y-94172306D01*
X154877701Y-94206724D01*
X154889354Y-94280304D01*
X154946950Y-94393342D01*
X155036658Y-94483050D01*
X155149696Y-94540646D01*
X155189487Y-94546948D01*
X155241054Y-94555116D01*
X155241059Y-94555116D01*
X155243481Y-94555500D01*
X155475000Y-94555500D01*
X155706518Y-94555499D01*
X155800304Y-94540646D01*
X155913342Y-94483050D01*
X156003050Y-94393342D01*
X156060646Y-94280304D01*
X156075500Y-94186519D01*
X156075499Y-93573482D01*
X156075499Y-93573481D01*
X156524500Y-93573481D01*
X156524501Y-94186518D01*
X156539354Y-94280304D01*
X156596950Y-94393342D01*
X156686658Y-94483050D01*
X156799696Y-94540646D01*
X156839487Y-94546948D01*
X156891054Y-94555116D01*
X156891059Y-94555116D01*
X156893481Y-94555500D01*
X157125000Y-94555500D01*
X157356518Y-94555499D01*
X157450304Y-94540646D01*
X157563342Y-94483050D01*
X157653050Y-94393342D01*
X157710646Y-94280304D01*
X157723884Y-94196723D01*
X157748878Y-94155936D01*
X157785615Y-94144000D01*
X157992121Y-94144000D01*
X158036315Y-94162306D01*
X158053852Y-94196723D01*
X158065049Y-94267420D01*
X158125342Y-94385751D01*
X158219249Y-94479658D01*
X158337580Y-94539951D01*
X158378750Y-94546472D01*
X158433327Y-94555116D01*
X158433332Y-94555116D01*
X158435754Y-94555500D01*
X158939246Y-94555500D01*
X158941668Y-94555116D01*
X158941673Y-94555116D01*
X158996250Y-94546472D01*
X159037420Y-94539951D01*
X159155751Y-94479658D01*
X159249658Y-94385751D01*
X159309951Y-94267420D01*
X159319564Y-94206724D01*
X159325116Y-94171673D01*
X159325116Y-94171668D01*
X159325500Y-94169246D01*
X159325500Y-93590754D01*
X159324045Y-93581564D01*
X159315480Y-93527492D01*
X159309951Y-93492580D01*
X159249658Y-93374249D01*
X159155751Y-93280342D01*
X159037420Y-93220049D01*
X158996250Y-93213528D01*
X158941673Y-93204884D01*
X158941668Y-93204884D01*
X158939246Y-93204500D01*
X158435754Y-93204500D01*
X158433332Y-93204884D01*
X158433327Y-93204884D01*
X158378750Y-93213528D01*
X158337580Y-93220049D01*
X158219249Y-93280342D01*
X158125342Y-93374249D01*
X158065049Y-93492580D01*
X158054619Y-93558437D01*
X158053852Y-93563277D01*
X158028858Y-93604063D01*
X157992121Y-93616000D01*
X157785614Y-93616000D01*
X157741420Y-93597694D01*
X157723883Y-93563277D01*
X157711415Y-93484551D01*
X157711415Y-93484550D01*
X157710646Y-93479696D01*
X157653050Y-93366658D01*
X157563342Y-93276950D01*
X157450304Y-93219354D01*
X157410513Y-93213052D01*
X157358946Y-93204884D01*
X157358941Y-93204884D01*
X157356519Y-93204500D01*
X157354059Y-93204500D01*
X157125001Y-93204501D01*
X156893482Y-93204501D01*
X156799696Y-93219354D01*
X156686658Y-93276950D01*
X156596950Y-93366658D01*
X156539354Y-93479696D01*
X156534583Y-93509817D01*
X156526883Y-93558437D01*
X156524500Y-93573481D01*
X156075499Y-93573481D01*
X156060646Y-93479696D01*
X156003050Y-93366658D01*
X155913342Y-93276950D01*
X155800304Y-93219354D01*
X155760513Y-93213052D01*
X155708946Y-93204884D01*
X155708941Y-93204884D01*
X155706519Y-93204500D01*
X155704059Y-93204500D01*
X155475001Y-93204501D01*
X155243482Y-93204501D01*
X155149696Y-93219354D01*
X155036658Y-93276950D01*
X154946950Y-93366658D01*
X154889354Y-93479696D01*
X154888585Y-93484552D01*
X154888583Y-93484559D01*
X154874531Y-93573277D01*
X154849537Y-93614064D01*
X154812801Y-93626000D01*
X154146860Y-93626000D01*
X154102666Y-93607694D01*
X154087029Y-93581568D01*
X154064484Y-93506894D01*
X153996284Y-93378628D01*
X153973805Y-93336351D01*
X153973803Y-93336348D01*
X153972370Y-93333653D01*
X153848361Y-93181602D01*
X153697180Y-93056535D01*
X153694496Y-93055084D01*
X153694492Y-93055081D01*
X153555870Y-92980129D01*
X153524585Y-92963213D01*
X153428152Y-92933362D01*
X153340067Y-92906095D01*
X153340064Y-92906094D01*
X153337152Y-92905193D01*
X153334119Y-92904874D01*
X153334118Y-92904874D01*
X153287344Y-92899958D01*
X153142019Y-92884683D01*
X153138986Y-92884959D01*
X153138982Y-92884959D01*
X153054200Y-92892675D01*
X152946618Y-92902466D01*
X152943690Y-92903328D01*
X152943689Y-92903328D01*
X152934288Y-92906095D01*
X152758393Y-92957864D01*
X152584512Y-93048767D01*
X152431600Y-93171711D01*
X152305480Y-93322016D01*
X152276765Y-93374249D01*
X152216125Y-93484552D01*
X152210956Y-93493954D01*
X152151628Y-93680978D01*
X152151287Y-93684016D01*
X152151287Y-93684017D01*
X152133797Y-93839949D01*
X152129757Y-93875963D01*
X150453000Y-93875963D01*
X150453000Y-91335963D01*
X152129757Y-91335963D01*
X152130013Y-91339010D01*
X152143805Y-91503254D01*
X152146175Y-91531483D01*
X152166969Y-91604000D01*
X152189631Y-91683029D01*
X152200258Y-91720091D01*
X152289944Y-91894601D01*
X152291835Y-91896987D01*
X152291837Y-91896990D01*
X152327425Y-91941891D01*
X152411818Y-92048369D01*
X152414148Y-92050352D01*
X152557979Y-92172761D01*
X152561238Y-92175535D01*
X152732513Y-92271257D01*
X152735417Y-92272201D01*
X152735418Y-92272201D01*
X152916205Y-92330943D01*
X152916210Y-92330944D01*
X152919118Y-92331889D01*
X153113946Y-92355121D01*
X153116988Y-92354887D01*
X153116991Y-92354887D01*
X153306528Y-92340303D01*
X153306533Y-92340302D01*
X153309576Y-92340068D01*
X153337569Y-92332252D01*
X153495617Y-92288124D01*
X153495621Y-92288123D01*
X153498556Y-92287303D01*
X153673689Y-92198837D01*
X153676087Y-92196964D01*
X153676091Y-92196961D01*
X153756930Y-92133802D01*
X153828303Y-92078040D01*
X153840854Y-92063500D01*
X153954515Y-91931822D01*
X153954519Y-91931817D01*
X153956509Y-91929511D01*
X153997100Y-91858059D01*
X154051914Y-91761570D01*
X154051916Y-91761565D01*
X154053425Y-91758909D01*
X154087402Y-91656772D01*
X154118722Y-91620615D01*
X154146707Y-91614000D01*
X154815970Y-91614000D01*
X154860164Y-91632306D01*
X154877701Y-91666724D01*
X154889354Y-91740304D01*
X154946950Y-91853342D01*
X155036658Y-91943050D01*
X155149696Y-92000646D01*
X155189487Y-92006948D01*
X155241054Y-92015116D01*
X155241059Y-92015116D01*
X155243481Y-92015500D01*
X155475000Y-92015500D01*
X155706518Y-92015499D01*
X155800304Y-92000646D01*
X155913342Y-91943050D01*
X156003050Y-91853342D01*
X156060646Y-91740304D01*
X156069134Y-91686711D01*
X156075116Y-91648946D01*
X156075116Y-91648941D01*
X156075500Y-91646519D01*
X156075499Y-91033482D01*
X156075499Y-91033481D01*
X156524500Y-91033481D01*
X156524501Y-91646518D01*
X156539354Y-91740304D01*
X156596950Y-91853342D01*
X156686658Y-91943050D01*
X156799696Y-92000646D01*
X156839487Y-92006948D01*
X156891054Y-92015116D01*
X156891059Y-92015116D01*
X156893481Y-92015500D01*
X157125000Y-92015500D01*
X157356518Y-92015499D01*
X157450304Y-92000646D01*
X157563342Y-91943050D01*
X157653050Y-91853342D01*
X157710646Y-91740304D01*
X157723884Y-91656723D01*
X157748878Y-91615936D01*
X157785615Y-91604000D01*
X157992121Y-91604000D01*
X158036315Y-91622306D01*
X158053852Y-91656723D01*
X158065049Y-91727420D01*
X158125342Y-91845751D01*
X158219249Y-91939658D01*
X158337580Y-91999951D01*
X158378750Y-92006472D01*
X158433327Y-92015116D01*
X158433332Y-92015116D01*
X158435754Y-92015500D01*
X158939246Y-92015500D01*
X158941668Y-92015116D01*
X158941673Y-92015116D01*
X158996250Y-92006472D01*
X159037420Y-91999951D01*
X159155751Y-91939658D01*
X159249658Y-91845751D01*
X159309951Y-91727420D01*
X159319564Y-91666724D01*
X159325116Y-91631673D01*
X159325116Y-91631668D01*
X159325500Y-91629246D01*
X159325500Y-91050754D01*
X159324045Y-91041564D01*
X159314314Y-90980129D01*
X159309951Y-90952580D01*
X159249658Y-90834249D01*
X159155751Y-90740342D01*
X159037420Y-90680049D01*
X158996250Y-90673528D01*
X158941673Y-90664884D01*
X158941668Y-90664884D01*
X158939246Y-90664500D01*
X158435754Y-90664500D01*
X158433332Y-90664884D01*
X158433327Y-90664884D01*
X158378750Y-90673528D01*
X158337580Y-90680049D01*
X158219249Y-90740342D01*
X158125342Y-90834249D01*
X158065049Y-90952580D01*
X158060737Y-90979809D01*
X158053852Y-91023277D01*
X158028858Y-91064063D01*
X157992121Y-91076000D01*
X157785614Y-91076000D01*
X157741420Y-91057694D01*
X157723883Y-91023277D01*
X157711415Y-90944551D01*
X157711415Y-90944550D01*
X157710646Y-90939696D01*
X157653050Y-90826658D01*
X157563342Y-90736950D01*
X157450304Y-90679354D01*
X157410513Y-90673052D01*
X157358946Y-90664884D01*
X157358941Y-90664884D01*
X157356519Y-90664500D01*
X157354059Y-90664500D01*
X157125001Y-90664501D01*
X156893482Y-90664501D01*
X156799696Y-90679354D01*
X156686658Y-90736950D01*
X156596950Y-90826658D01*
X156539354Y-90939696D01*
X156524500Y-91033481D01*
X156075499Y-91033481D01*
X156060646Y-90939696D01*
X156003050Y-90826658D01*
X155913342Y-90736950D01*
X155800304Y-90679354D01*
X155760513Y-90673052D01*
X155708946Y-90664884D01*
X155708941Y-90664884D01*
X155706519Y-90664500D01*
X155704059Y-90664500D01*
X155475001Y-90664501D01*
X155243482Y-90664501D01*
X155149696Y-90679354D01*
X155036658Y-90736950D01*
X154946950Y-90826658D01*
X154889354Y-90939696D01*
X154888585Y-90944552D01*
X154888583Y-90944559D01*
X154874531Y-91033277D01*
X154849537Y-91074064D01*
X154812801Y-91086000D01*
X154146860Y-91086000D01*
X154102666Y-91067694D01*
X154087029Y-91041568D01*
X154064484Y-90966894D01*
X154001385Y-90848222D01*
X153973805Y-90796351D01*
X153973803Y-90796348D01*
X153972370Y-90793653D01*
X153848361Y-90641602D01*
X153697180Y-90516535D01*
X153694496Y-90515084D01*
X153694492Y-90515081D01*
X153527270Y-90424665D01*
X153524585Y-90423213D01*
X153368514Y-90374901D01*
X153340067Y-90366095D01*
X153340064Y-90366094D01*
X153337152Y-90365193D01*
X153334119Y-90364874D01*
X153334118Y-90364874D01*
X153287099Y-90359932D01*
X153142019Y-90344683D01*
X153138986Y-90344959D01*
X153138982Y-90344959D01*
X153054200Y-90352675D01*
X152946618Y-90362466D01*
X152943690Y-90363328D01*
X152943689Y-90363328D01*
X152934288Y-90366095D01*
X152758393Y-90417864D01*
X152584512Y-90508767D01*
X152431600Y-90631711D01*
X152305480Y-90782016D01*
X152270418Y-90845793D01*
X152216125Y-90944552D01*
X152210956Y-90953954D01*
X152151628Y-91140978D01*
X152151287Y-91144016D01*
X152151287Y-91144017D01*
X152132237Y-91313856D01*
X152129757Y-91335963D01*
X150453000Y-91335963D01*
X150453000Y-89717955D01*
X150471306Y-89673761D01*
X150487126Y-89662267D01*
X150566368Y-89621891D01*
X150570751Y-89619658D01*
X150664658Y-89525751D01*
X150724951Y-89407420D01*
X150734414Y-89347672D01*
X157411958Y-89347672D01*
X157414309Y-89353364D01*
X157438444Y-89411802D01*
X157442406Y-89421396D01*
X157444105Y-89423945D01*
X157444108Y-89423950D01*
X157941548Y-90170110D01*
X157941555Y-90170119D01*
X157942406Y-90171396D01*
X157967948Y-90202552D01*
X158002188Y-90225431D01*
X158029153Y-90243449D01*
X158029155Y-90243450D01*
X158034269Y-90246867D01*
X158040303Y-90248067D01*
X158040305Y-90248068D01*
X158109487Y-90261829D01*
X158109490Y-90261829D01*
X158112500Y-90262428D01*
X159112500Y-90262428D01*
X159115510Y-90261829D01*
X159115513Y-90261829D01*
X159184695Y-90248068D01*
X159184697Y-90248067D01*
X159190731Y-90246867D01*
X159195845Y-90243450D01*
X159195847Y-90243449D01*
X159251938Y-90205969D01*
X159257052Y-90202552D01*
X159277870Y-90171396D01*
X159297949Y-90141347D01*
X159297950Y-90141345D01*
X159301367Y-90136231D01*
X159302907Y-90128493D01*
X159316329Y-90061013D01*
X159316329Y-90061010D01*
X159316928Y-90058000D01*
X159316928Y-89923498D01*
X159335234Y-89879304D01*
X159379428Y-89860998D01*
X159423622Y-89879304D01*
X159893694Y-90349376D01*
X159912000Y-90393570D01*
X159912000Y-90642045D01*
X159893694Y-90686239D01*
X159877874Y-90697733D01*
X159794249Y-90740342D01*
X159700342Y-90834249D01*
X159640049Y-90952580D01*
X159635686Y-90980129D01*
X159625956Y-91041564D01*
X159624500Y-91050754D01*
X159624500Y-91629246D01*
X159624884Y-91631668D01*
X159624884Y-91631673D01*
X159630436Y-91666724D01*
X159640049Y-91727420D01*
X159700342Y-91845751D01*
X159794249Y-91939658D01*
X159867825Y-91977147D01*
X159877874Y-91982267D01*
X159908941Y-92018641D01*
X159912000Y-92037955D01*
X159912000Y-93182045D01*
X159893694Y-93226239D01*
X159877874Y-93237733D01*
X159794249Y-93280342D01*
X159700342Y-93374249D01*
X159640049Y-93492580D01*
X159634520Y-93527492D01*
X159625956Y-93581564D01*
X159624500Y-93590754D01*
X159624500Y-94169246D01*
X159624884Y-94171668D01*
X159624884Y-94171673D01*
X159630436Y-94206724D01*
X159640049Y-94267420D01*
X159700342Y-94385751D01*
X159794249Y-94479658D01*
X159834659Y-94500248D01*
X159877874Y-94522267D01*
X159908941Y-94558641D01*
X159912000Y-94577955D01*
X159912000Y-95722045D01*
X159893694Y-95766239D01*
X159877874Y-95777733D01*
X159794249Y-95820342D01*
X159700342Y-95914249D01*
X159640049Y-96032580D01*
X159639280Y-96037436D01*
X159639280Y-96037437D01*
X159625956Y-96121564D01*
X159624500Y-96130754D01*
X159624500Y-96709246D01*
X159624884Y-96711668D01*
X159624884Y-96711673D01*
X159628994Y-96737619D01*
X159640049Y-96807420D01*
X159700342Y-96925751D01*
X159794249Y-97019658D01*
X159805285Y-97025281D01*
X159877874Y-97062267D01*
X159908941Y-97098641D01*
X159912000Y-97117955D01*
X159912000Y-98262045D01*
X159893694Y-98306239D01*
X159877874Y-98317733D01*
X159794249Y-98360342D01*
X159700342Y-98454249D01*
X159640049Y-98572580D01*
X159638210Y-98584192D01*
X159625956Y-98661564D01*
X159624500Y-98670754D01*
X159624500Y-99249246D01*
X159624884Y-99251668D01*
X159624884Y-99251673D01*
X159630436Y-99286724D01*
X159640049Y-99347420D01*
X159700342Y-99465751D01*
X159794249Y-99559658D01*
X159805285Y-99565281D01*
X159877874Y-99602267D01*
X159908941Y-99638641D01*
X159912000Y-99657955D01*
X159912000Y-100762099D01*
X159893694Y-100806293D01*
X159854398Y-100824407D01*
X159853215Y-100824500D01*
X159850754Y-100824500D01*
X159848330Y-100824884D01*
X159848329Y-100824884D01*
X159827769Y-100828140D01*
X159752580Y-100840049D01*
X159634249Y-100900342D01*
X159540342Y-100994249D01*
X159480049Y-101112580D01*
X159473528Y-101153750D01*
X159465956Y-101201564D01*
X159464500Y-101210754D01*
X159464500Y-101789246D01*
X159464884Y-101791668D01*
X159464884Y-101791673D01*
X159470436Y-101826724D01*
X159480049Y-101887420D01*
X159540342Y-102005751D01*
X159634249Y-102099658D01*
X159752580Y-102159951D01*
X159827769Y-102171860D01*
X159848317Y-102175114D01*
X159850754Y-102175500D01*
X159853215Y-102175500D01*
X159854398Y-102175593D01*
X159897022Y-102197306D01*
X159912000Y-102237901D01*
X159912000Y-103342045D01*
X159893694Y-103386239D01*
X159877874Y-103397733D01*
X159794249Y-103440342D01*
X159700342Y-103534249D01*
X159640049Y-103652580D01*
X159634733Y-103686144D01*
X159625956Y-103741564D01*
X159624500Y-103750754D01*
X159624500Y-104329246D01*
X159624884Y-104331668D01*
X159624884Y-104331673D01*
X159630436Y-104366724D01*
X159640049Y-104427420D01*
X159700342Y-104545751D01*
X159794249Y-104639658D01*
X159869891Y-104678199D01*
X159877874Y-104682267D01*
X159908941Y-104718641D01*
X159912000Y-104737955D01*
X159912000Y-105882045D01*
X159893694Y-105926239D01*
X159877874Y-105937733D01*
X159794249Y-105980342D01*
X159700342Y-106074249D01*
X159640049Y-106192580D01*
X159639280Y-106197436D01*
X159639280Y-106197437D01*
X159625956Y-106281564D01*
X159624500Y-106290754D01*
X159624500Y-106869246D01*
X159624884Y-106871668D01*
X159624884Y-106871673D01*
X159630436Y-106906724D01*
X159640049Y-106967420D01*
X159700342Y-107085751D01*
X159794249Y-107179658D01*
X159816199Y-107190842D01*
X159877874Y-107222267D01*
X159908941Y-107258641D01*
X159912000Y-107277955D01*
X159912000Y-108422045D01*
X159893694Y-108466239D01*
X159877874Y-108477733D01*
X159794249Y-108520342D01*
X159700342Y-108614249D01*
X159640049Y-108732580D01*
X159637319Y-108749816D01*
X159625956Y-108821564D01*
X159624500Y-108830754D01*
X159624500Y-109409246D01*
X159624884Y-109411668D01*
X159624884Y-109411673D01*
X159629202Y-109438932D01*
X159640049Y-109507420D01*
X159700342Y-109625751D01*
X159794249Y-109719658D01*
X159859084Y-109752693D01*
X159877874Y-109762267D01*
X159908941Y-109798641D01*
X159912000Y-109817955D01*
X159912000Y-110912045D01*
X159893694Y-110956239D01*
X159877874Y-110967733D01*
X159794249Y-111010342D01*
X159700342Y-111104249D01*
X159640049Y-111222580D01*
X159635105Y-111253796D01*
X159625593Y-111313856D01*
X159624500Y-111320754D01*
X159624500Y-111899246D01*
X159624884Y-111901668D01*
X159624884Y-111901673D01*
X159627620Y-111918946D01*
X159640049Y-111997420D01*
X159700342Y-112115751D01*
X159794249Y-112209658D01*
X159912580Y-112269951D01*
X159953750Y-112276472D01*
X160008327Y-112285116D01*
X160008332Y-112285116D01*
X160010754Y-112285500D01*
X160514246Y-112285500D01*
X160516668Y-112285116D01*
X160516673Y-112285116D01*
X160571250Y-112276472D01*
X160612420Y-112269951D01*
X160730751Y-112209658D01*
X160824658Y-112115751D01*
X160884951Y-111997420D01*
X160897380Y-111918946D01*
X160900116Y-111901673D01*
X160900116Y-111901668D01*
X160900500Y-111899246D01*
X160900500Y-111320754D01*
X160899408Y-111313856D01*
X160889895Y-111253796D01*
X160884951Y-111222580D01*
X160824658Y-111104249D01*
X160730751Y-111010342D01*
X160647126Y-110967733D01*
X160616059Y-110931359D01*
X160613000Y-110912045D01*
X160613000Y-109817955D01*
X160631306Y-109773761D01*
X160647126Y-109762267D01*
X160665916Y-109752693D01*
X160730751Y-109719658D01*
X160824658Y-109625751D01*
X160884951Y-109507420D01*
X160895798Y-109438932D01*
X160900116Y-109411673D01*
X160900116Y-109411668D01*
X160900500Y-109409246D01*
X160900500Y-108830754D01*
X160899045Y-108821564D01*
X160887681Y-108749816D01*
X160884951Y-108732580D01*
X160824658Y-108614249D01*
X160730751Y-108520342D01*
X160647126Y-108477733D01*
X160616059Y-108441359D01*
X160613000Y-108422045D01*
X160613000Y-107277955D01*
X160631306Y-107233761D01*
X160647126Y-107222267D01*
X160708801Y-107190842D01*
X160730751Y-107179658D01*
X160824658Y-107085751D01*
X160884951Y-106967420D01*
X160894564Y-106906724D01*
X160900116Y-106871673D01*
X160900116Y-106871668D01*
X160900500Y-106869246D01*
X160900500Y-106290754D01*
X160899045Y-106281564D01*
X160885720Y-106197437D01*
X160885720Y-106197436D01*
X160884951Y-106192580D01*
X160824658Y-106074249D01*
X160730751Y-105980342D01*
X160647126Y-105937733D01*
X160616059Y-105901359D01*
X160613000Y-105882045D01*
X160613000Y-104924069D01*
X162798000Y-104924069D01*
X162801641Y-104932859D01*
X162810431Y-104936500D01*
X163624069Y-104936500D01*
X163632859Y-104932859D01*
X163636500Y-104924069D01*
X163763500Y-104924069D01*
X163767141Y-104932859D01*
X163775931Y-104936500D01*
X164589569Y-104936500D01*
X164598359Y-104932859D01*
X164602000Y-104924069D01*
X164602000Y-104810691D01*
X164601782Y-104807012D01*
X164599680Y-104789353D01*
X164597222Y-104780407D01*
X164559579Y-104695661D01*
X164553154Y-104686312D01*
X164488289Y-104621560D01*
X164478931Y-104615152D01*
X164394124Y-104577659D01*
X164385162Y-104575216D01*
X164367950Y-104573209D01*
X164364342Y-104573000D01*
X163775931Y-104573000D01*
X163767141Y-104576641D01*
X163763500Y-104585431D01*
X163763500Y-104924069D01*
X163636500Y-104924069D01*
X163636500Y-104585431D01*
X163632859Y-104576641D01*
X163624069Y-104573000D01*
X163035691Y-104573000D01*
X163032012Y-104573218D01*
X163014353Y-104575320D01*
X163005407Y-104577778D01*
X162920661Y-104615421D01*
X162911312Y-104621846D01*
X162846560Y-104686711D01*
X162840152Y-104696069D01*
X162802659Y-104780876D01*
X162800216Y-104789838D01*
X162798209Y-104807050D01*
X162798000Y-104810658D01*
X162798000Y-104924069D01*
X160613000Y-104924069D01*
X160613000Y-104737955D01*
X160631306Y-104693761D01*
X160647126Y-104682267D01*
X160655109Y-104678199D01*
X160730751Y-104639658D01*
X160824658Y-104545751D01*
X160884951Y-104427420D01*
X160894564Y-104366724D01*
X160900116Y-104331673D01*
X160900116Y-104331668D01*
X160900500Y-104329246D01*
X160900500Y-103750754D01*
X160899045Y-103741564D01*
X160890267Y-103686144D01*
X160884951Y-103652580D01*
X160824658Y-103534249D01*
X160730751Y-103440342D01*
X160647126Y-103397733D01*
X160616059Y-103361359D01*
X160613000Y-103342045D01*
X160613000Y-102083297D01*
X160631306Y-102039103D01*
X160664658Y-102005751D01*
X160724951Y-101887420D01*
X160734564Y-101826724D01*
X160740116Y-101791673D01*
X160740116Y-101791668D01*
X160740500Y-101789246D01*
X160740500Y-101210754D01*
X160739045Y-101201564D01*
X160731472Y-101153750D01*
X160724951Y-101112580D01*
X160664658Y-100994249D01*
X160631306Y-100960897D01*
X160613000Y-100916703D01*
X160613000Y-99657955D01*
X160631306Y-99613761D01*
X160647126Y-99602267D01*
X160719715Y-99565281D01*
X160730751Y-99559658D01*
X160824658Y-99465751D01*
X160884951Y-99347420D01*
X160894564Y-99286724D01*
X160900116Y-99251673D01*
X160900116Y-99251668D01*
X160900500Y-99249246D01*
X160900500Y-98670754D01*
X160899045Y-98661564D01*
X160886790Y-98584192D01*
X160884951Y-98572580D01*
X160824658Y-98454249D01*
X160730751Y-98360342D01*
X160647126Y-98317733D01*
X160616059Y-98281359D01*
X160613000Y-98262045D01*
X160613000Y-97117955D01*
X160631306Y-97073761D01*
X160647126Y-97062267D01*
X160719715Y-97025281D01*
X160730751Y-97019658D01*
X160824658Y-96925751D01*
X160884951Y-96807420D01*
X160896006Y-96737619D01*
X160900116Y-96711673D01*
X160900116Y-96711668D01*
X160900500Y-96709246D01*
X160900500Y-96183218D01*
X162724500Y-96183218D01*
X162734642Y-96252112D01*
X162786068Y-96356855D01*
X162789720Y-96360501D01*
X162789721Y-96360502D01*
X162864995Y-96435645D01*
X162864997Y-96435647D01*
X162868650Y-96439293D01*
X162873290Y-96441561D01*
X162968738Y-96488217D01*
X162973482Y-96490536D01*
X162978285Y-96491237D01*
X162978286Y-96491237D01*
X162998248Y-96494149D01*
X163041782Y-96500500D01*
X164358218Y-96500500D01*
X164360465Y-96500169D01*
X164360468Y-96500169D01*
X164384662Y-96496607D01*
X164427112Y-96490358D01*
X164531855Y-96438932D01*
X164535502Y-96435279D01*
X164610645Y-96360005D01*
X164610647Y-96360003D01*
X164614293Y-96356350D01*
X164635058Y-96313870D01*
X164670911Y-96282205D01*
X164718655Y-96285167D01*
X164740793Y-96303270D01*
X164765833Y-96335903D01*
X164836718Y-96428282D01*
X164962159Y-96524536D01*
X164965942Y-96526103D01*
X165104452Y-96583476D01*
X165104453Y-96583476D01*
X165108238Y-96585044D01*
X165112300Y-96585579D01*
X165112301Y-96585579D01*
X165260936Y-96605147D01*
X165265000Y-96605682D01*
X165269064Y-96605147D01*
X165417699Y-96585579D01*
X165417700Y-96585579D01*
X165421762Y-96585044D01*
X165425547Y-96583476D01*
X165425548Y-96583476D01*
X165564058Y-96526103D01*
X165567841Y-96524536D01*
X165693282Y-96428282D01*
X165789536Y-96302841D01*
X165798084Y-96282205D01*
X165848476Y-96160548D01*
X165848476Y-96160547D01*
X165850044Y-96156762D01*
X165865754Y-96037436D01*
X165870147Y-96004064D01*
X165870682Y-96000000D01*
X165850044Y-95843238D01*
X165842001Y-95823819D01*
X165791103Y-95700942D01*
X165789536Y-95697159D01*
X165693282Y-95571718D01*
X165690037Y-95569228D01*
X165690033Y-95569224D01*
X165664438Y-95549584D01*
X165640521Y-95508158D01*
X165652902Y-95461952D01*
X165664438Y-95450416D01*
X165690033Y-95430776D01*
X165690037Y-95430772D01*
X165693282Y-95428282D01*
X165789536Y-95302841D01*
X165798084Y-95282205D01*
X165848476Y-95160548D01*
X165848476Y-95160547D01*
X165850044Y-95156762D01*
X165870682Y-95000000D01*
X165861909Y-94933362D01*
X165850579Y-94847301D01*
X165850579Y-94847300D01*
X165850044Y-94843238D01*
X165843444Y-94827303D01*
X165791103Y-94700942D01*
X165789536Y-94697159D01*
X165727051Y-94615727D01*
X165695773Y-94574964D01*
X165695772Y-94574963D01*
X165693282Y-94571718D01*
X165664760Y-94549833D01*
X165640843Y-94508408D01*
X165653223Y-94462202D01*
X165664760Y-94450665D01*
X165690034Y-94431272D01*
X165690037Y-94431269D01*
X165693282Y-94428779D01*
X165723631Y-94389228D01*
X165787045Y-94306584D01*
X165789536Y-94303338D01*
X165804414Y-94267420D01*
X165848476Y-94161045D01*
X165848476Y-94161044D01*
X165850044Y-94157259D01*
X165870682Y-94000497D01*
X165860060Y-93919813D01*
X165850579Y-93847798D01*
X165850579Y-93847797D01*
X165850044Y-93843735D01*
X165842865Y-93826402D01*
X165791103Y-93701439D01*
X165789536Y-93697656D01*
X165709395Y-93593214D01*
X165695773Y-93575461D01*
X165695772Y-93575460D01*
X165693282Y-93572215D01*
X165664114Y-93549834D01*
X165640196Y-93508407D01*
X165652576Y-93462202D01*
X165664114Y-93450664D01*
X165690034Y-93430775D01*
X165690037Y-93430772D01*
X165693282Y-93428282D01*
X165789536Y-93302841D01*
X165801185Y-93274719D01*
X165848476Y-93160548D01*
X165848476Y-93160547D01*
X165850044Y-93156762D01*
X165862983Y-93058484D01*
X165870147Y-93004064D01*
X165870682Y-93000000D01*
X165858319Y-92906095D01*
X165850579Y-92847301D01*
X165850579Y-92847300D01*
X165850044Y-92843238D01*
X165834843Y-92806538D01*
X165791103Y-92700942D01*
X165789536Y-92697159D01*
X165693282Y-92571718D01*
X165567841Y-92475464D01*
X165461920Y-92431590D01*
X165425548Y-92416524D01*
X165425547Y-92416524D01*
X165421762Y-92414956D01*
X165417700Y-92414421D01*
X165417699Y-92414421D01*
X165269064Y-92394853D01*
X165265000Y-92394318D01*
X165260936Y-92394853D01*
X165112301Y-92414421D01*
X165112300Y-92414421D01*
X165108238Y-92414956D01*
X165104453Y-92416524D01*
X165104452Y-92416524D01*
X165068080Y-92431590D01*
X164962159Y-92475464D01*
X164836718Y-92571718D01*
X164834228Y-92574963D01*
X164740780Y-92696747D01*
X164699353Y-92720664D01*
X164653147Y-92708284D01*
X164635092Y-92686243D01*
X164616209Y-92647781D01*
X164616206Y-92647777D01*
X164613932Y-92643145D01*
X164595938Y-92625182D01*
X164535005Y-92564355D01*
X164535003Y-92564353D01*
X164531350Y-92560707D01*
X164438228Y-92515188D01*
X164406562Y-92479334D01*
X164409524Y-92431590D01*
X164440304Y-92401918D01*
X164479339Y-92384579D01*
X164488688Y-92378154D01*
X164553440Y-92313289D01*
X164559848Y-92303931D01*
X164597341Y-92219124D01*
X164599784Y-92210162D01*
X164601791Y-92192950D01*
X164602000Y-92189342D01*
X164602000Y-92075931D01*
X164598359Y-92067141D01*
X164589569Y-92063500D01*
X162810431Y-92063500D01*
X162801641Y-92067141D01*
X162798000Y-92075931D01*
X162798000Y-92189309D01*
X162798218Y-92192988D01*
X162800320Y-92210647D01*
X162802778Y-92219593D01*
X162840421Y-92304339D01*
X162846846Y-92313688D01*
X162911711Y-92378440D01*
X162921070Y-92384848D01*
X162959495Y-92401836D01*
X162992513Y-92436449D01*
X162991386Y-92484271D01*
X162961769Y-92515101D01*
X162868145Y-92561068D01*
X162864499Y-92564720D01*
X162864498Y-92564721D01*
X162789355Y-92639995D01*
X162789353Y-92639997D01*
X162785707Y-92643650D01*
X162783439Y-92648290D01*
X162756437Y-92703531D01*
X162734464Y-92748482D01*
X162724500Y-92816782D01*
X162724500Y-93183218D01*
X162724831Y-93185465D01*
X162724831Y-93185468D01*
X162727633Y-93204500D01*
X162734642Y-93252112D01*
X162786068Y-93356855D01*
X162789720Y-93360501D01*
X162789721Y-93360502D01*
X162864995Y-93435645D01*
X162864997Y-93435647D01*
X162868650Y-93439293D01*
X162873288Y-93441560D01*
X162873292Y-93441563D01*
X162878064Y-93443895D01*
X162909730Y-93479749D01*
X162906769Y-93527492D01*
X162878165Y-93556148D01*
X162872780Y-93558792D01*
X162872778Y-93558793D01*
X162868145Y-93561068D01*
X162864499Y-93564720D01*
X162864498Y-93564721D01*
X162789355Y-93639995D01*
X162789353Y-93639997D01*
X162785707Y-93643650D01*
X162783439Y-93648290D01*
X162747914Y-93720967D01*
X162734464Y-93748482D01*
X162724500Y-93816782D01*
X162724500Y-94183218D01*
X162734642Y-94252112D01*
X162786068Y-94356855D01*
X162789720Y-94360501D01*
X162789721Y-94360502D01*
X162864995Y-94435645D01*
X162864997Y-94435647D01*
X162868650Y-94439293D01*
X162873288Y-94441560D01*
X162873292Y-94441563D01*
X162878064Y-94443895D01*
X162909730Y-94479749D01*
X162906769Y-94527492D01*
X162878165Y-94556148D01*
X162872780Y-94558792D01*
X162872778Y-94558793D01*
X162868145Y-94561068D01*
X162864499Y-94564720D01*
X162864498Y-94564721D01*
X162789355Y-94639995D01*
X162789353Y-94639997D01*
X162785707Y-94643650D01*
X162783439Y-94648290D01*
X162739179Y-94738837D01*
X162734464Y-94748482D01*
X162724500Y-94816782D01*
X162724500Y-95183218D01*
X162734642Y-95252112D01*
X162786068Y-95356855D01*
X162789720Y-95360501D01*
X162789721Y-95360502D01*
X162864995Y-95435645D01*
X162864997Y-95435647D01*
X162868650Y-95439293D01*
X162873288Y-95441560D01*
X162873292Y-95441563D01*
X162878064Y-95443895D01*
X162909730Y-95479749D01*
X162906769Y-95527492D01*
X162878165Y-95556148D01*
X162872780Y-95558792D01*
X162872778Y-95558793D01*
X162868145Y-95561068D01*
X162864499Y-95564720D01*
X162864498Y-95564721D01*
X162789355Y-95639995D01*
X162789353Y-95639997D01*
X162785707Y-95643650D01*
X162734464Y-95748482D01*
X162733763Y-95753285D01*
X162733763Y-95753286D01*
X162730851Y-95773248D01*
X162724500Y-95816782D01*
X162724500Y-96183218D01*
X160900500Y-96183218D01*
X160900500Y-96130754D01*
X160899045Y-96121564D01*
X160885720Y-96037437D01*
X160885720Y-96037436D01*
X160884951Y-96032580D01*
X160824658Y-95914249D01*
X160730751Y-95820342D01*
X160647126Y-95777733D01*
X160616059Y-95741359D01*
X160613000Y-95722045D01*
X160613000Y-94577955D01*
X160631306Y-94533761D01*
X160647126Y-94522267D01*
X160690341Y-94500248D01*
X160730751Y-94479658D01*
X160824658Y-94385751D01*
X160884951Y-94267420D01*
X160894564Y-94206724D01*
X160900116Y-94171673D01*
X160900116Y-94171668D01*
X160900500Y-94169246D01*
X160900500Y-93590754D01*
X160899045Y-93581564D01*
X160890480Y-93527492D01*
X160884951Y-93492580D01*
X160824658Y-93374249D01*
X160730751Y-93280342D01*
X160647126Y-93237733D01*
X160616059Y-93201359D01*
X160613000Y-93182045D01*
X160613000Y-92037955D01*
X160631306Y-91993761D01*
X160647126Y-91982267D01*
X160657175Y-91977147D01*
X160730751Y-91939658D01*
X160746340Y-91924069D01*
X162798000Y-91924069D01*
X162801641Y-91932859D01*
X162810431Y-91936500D01*
X163624069Y-91936500D01*
X163632859Y-91932859D01*
X163636500Y-91924069D01*
X163763500Y-91924069D01*
X163767141Y-91932859D01*
X163775931Y-91936500D01*
X164589569Y-91936500D01*
X164598359Y-91932859D01*
X164602000Y-91924069D01*
X164602000Y-91810691D01*
X164601782Y-91807012D01*
X164599680Y-91789353D01*
X164597222Y-91780407D01*
X164559579Y-91695661D01*
X164553154Y-91686312D01*
X164488289Y-91621560D01*
X164478931Y-91615152D01*
X164394124Y-91577659D01*
X164385162Y-91575216D01*
X164367950Y-91573209D01*
X164364342Y-91573000D01*
X163775931Y-91573000D01*
X163767141Y-91576641D01*
X163763500Y-91585431D01*
X163763500Y-91924069D01*
X163636500Y-91924069D01*
X163636500Y-91585431D01*
X163632859Y-91576641D01*
X163624069Y-91573000D01*
X163035691Y-91573000D01*
X163032012Y-91573218D01*
X163014353Y-91575320D01*
X163005407Y-91577778D01*
X162920661Y-91615421D01*
X162911312Y-91621846D01*
X162846560Y-91686711D01*
X162840152Y-91696069D01*
X162802659Y-91780876D01*
X162800216Y-91789838D01*
X162798209Y-91807050D01*
X162798000Y-91810658D01*
X162798000Y-91924069D01*
X160746340Y-91924069D01*
X160824658Y-91845751D01*
X160884951Y-91727420D01*
X160894564Y-91666724D01*
X160900116Y-91631673D01*
X160900116Y-91631668D01*
X160900500Y-91629246D01*
X160900500Y-91050754D01*
X160899045Y-91041564D01*
X160889314Y-90980129D01*
X160884951Y-90952580D01*
X160824658Y-90834249D01*
X160730751Y-90740342D01*
X160647126Y-90697733D01*
X160616059Y-90661359D01*
X160613000Y-90642045D01*
X160613000Y-90266564D01*
X160614400Y-90253409D01*
X160617451Y-90239239D01*
X160613433Y-90205291D01*
X160613000Y-90197945D01*
X160613000Y-90193385D01*
X160609863Y-90174536D01*
X160609448Y-90171621D01*
X160604883Y-90133056D01*
X160603736Y-90123361D01*
X160601498Y-90118700D01*
X160600578Y-90115534D01*
X160599536Y-90112490D01*
X160598688Y-90107397D01*
X160575598Y-90064605D01*
X160574261Y-90061980D01*
X160557872Y-90027850D01*
X160553226Y-90018174D01*
X160549908Y-90014226D01*
X160549492Y-90013810D01*
X160546698Y-90010499D01*
X160545732Y-90009253D01*
X160543278Y-90004706D01*
X160505951Y-89970201D01*
X160504182Y-89968500D01*
X159627002Y-89091320D01*
X159618690Y-89081028D01*
X159613628Y-89073188D01*
X159613626Y-89073185D01*
X159610825Y-89068848D01*
X159583980Y-89047685D01*
X159578479Y-89042797D01*
X159575254Y-89039572D01*
X159559711Y-89028465D01*
X159557355Y-89026696D01*
X159523246Y-88999806D01*
X159523245Y-88999805D01*
X159519189Y-88996608D01*
X159514314Y-88994896D01*
X159511445Y-88993319D01*
X159508535Y-88991893D01*
X159504331Y-88988889D01*
X159499384Y-88987410D01*
X159499381Y-88987408D01*
X159457758Y-88974961D01*
X159454956Y-88974050D01*
X159412805Y-88959247D01*
X159412796Y-88959245D01*
X159409094Y-88957945D01*
X159403956Y-88957500D01*
X159403382Y-88957500D01*
X159399051Y-88957134D01*
X159397486Y-88956936D01*
X159392536Y-88955456D01*
X159381883Y-88955875D01*
X159337005Y-88939320D01*
X159316928Y-88893423D01*
X159316928Y-88558000D01*
X159315548Y-88551062D01*
X159302568Y-88485805D01*
X159302567Y-88485803D01*
X159301367Y-88479769D01*
X159279576Y-88447156D01*
X159260469Y-88418562D01*
X159257052Y-88413448D01*
X159215645Y-88385780D01*
X159195847Y-88372551D01*
X159195845Y-88372550D01*
X159190731Y-88369133D01*
X159184697Y-88367933D01*
X159184695Y-88367932D01*
X159115513Y-88354171D01*
X159115510Y-88354171D01*
X159112500Y-88353572D01*
X158112500Y-88353572D01*
X158093750Y-88355429D01*
X158077000Y-88357087D01*
X158076998Y-88357087D01*
X158072408Y-88357542D01*
X158068147Y-88359312D01*
X158068144Y-88359313D01*
X158004436Y-88385780D01*
X157998748Y-88388143D01*
X157942406Y-88444604D01*
X157820010Y-88628198D01*
X157477515Y-89141941D01*
X157442406Y-89194604D01*
X157412042Y-89267908D01*
X157411958Y-89347672D01*
X150734414Y-89347672D01*
X150740116Y-89311673D01*
X150740116Y-89311668D01*
X150740500Y-89309246D01*
X150740500Y-88730754D01*
X150739997Y-88727573D01*
X150730190Y-88665656D01*
X150724951Y-88632580D01*
X150664658Y-88514249D01*
X150570751Y-88420342D01*
X150452420Y-88360049D01*
X150411250Y-88353528D01*
X150356673Y-88344884D01*
X150356668Y-88344884D01*
X150354246Y-88344500D01*
X149850754Y-88344500D01*
X149848332Y-88344884D01*
X149848327Y-88344884D01*
X149793750Y-88353528D01*
X149752580Y-88360049D01*
X149634249Y-88420342D01*
X149540342Y-88514249D01*
X149480049Y-88632580D01*
X149474810Y-88665656D01*
X149465004Y-88727573D01*
X149464500Y-88730754D01*
X149464500Y-89309246D01*
X149464884Y-89311668D01*
X149464884Y-89311673D01*
X149470586Y-89347672D01*
X149480049Y-89407420D01*
X149540342Y-89525751D01*
X149634249Y-89619658D01*
X149638632Y-89621891D01*
X149717874Y-89662267D01*
X149748941Y-89698641D01*
X149752000Y-89717955D01*
X149752000Y-106911430D01*
X149733694Y-106955624D01*
X145962950Y-110726368D01*
X145918756Y-110744674D01*
X145900277Y-110741879D01*
X145781332Y-110705060D01*
X145720067Y-110686095D01*
X145720064Y-110686094D01*
X145717152Y-110685193D01*
X145714119Y-110684874D01*
X145714118Y-110684874D01*
X145667344Y-110679958D01*
X145522019Y-110664683D01*
X145518986Y-110664959D01*
X145518982Y-110664959D01*
X145434200Y-110672675D01*
X145326618Y-110682466D01*
X145323690Y-110683328D01*
X145323689Y-110683328D01*
X145317278Y-110685215D01*
X145138393Y-110737864D01*
X144964512Y-110828767D01*
X144811600Y-110951711D01*
X144685480Y-111102016D01*
X144642085Y-111180951D01*
X144602460Y-111253029D01*
X144590956Y-111273954D01*
X144531628Y-111460978D01*
X144531287Y-111464016D01*
X144531287Y-111464017D01*
X144513222Y-111625075D01*
X144509757Y-111655963D01*
X143979000Y-111655963D01*
X143979000Y-110932157D01*
X143980201Y-110919964D01*
X143982971Y-110906038D01*
X143984172Y-110900000D01*
X143968072Y-110819059D01*
X143964884Y-110803029D01*
X143964884Y-110803028D01*
X143963683Y-110796992D01*
X143920062Y-110731710D01*
X143905333Y-110709667D01*
X143898439Y-110705060D01*
X143888407Y-110698357D01*
X143878937Y-110690585D01*
X142896718Y-109708366D01*
X142878412Y-109664172D01*
X142878754Y-109657639D01*
X142894980Y-109503254D01*
X142895322Y-109500000D01*
X142876085Y-109316971D01*
X142819214Y-109141941D01*
X142804216Y-109115963D01*
X144509757Y-109115963D01*
X144510013Y-109119010D01*
X144525722Y-109306087D01*
X144526175Y-109311483D01*
X144580258Y-109500091D01*
X144669944Y-109674601D01*
X144671835Y-109676987D01*
X144671837Y-109676990D01*
X144707425Y-109721891D01*
X144791818Y-109828369D01*
X144794148Y-109830352D01*
X144830033Y-109860892D01*
X144941238Y-109955535D01*
X145112513Y-110051257D01*
X145115417Y-110052201D01*
X145115418Y-110052201D01*
X145296205Y-110110943D01*
X145296210Y-110110944D01*
X145299118Y-110111889D01*
X145493946Y-110135121D01*
X145496988Y-110134887D01*
X145496991Y-110134887D01*
X145686528Y-110120303D01*
X145686533Y-110120302D01*
X145689576Y-110120068D01*
X145717569Y-110112252D01*
X145875617Y-110068124D01*
X145875621Y-110068123D01*
X145878556Y-110067303D01*
X146053689Y-109978837D01*
X146056087Y-109976964D01*
X146056091Y-109976961D01*
X146162364Y-109893931D01*
X146208303Y-109858040D01*
X146210974Y-109854946D01*
X146334515Y-109711822D01*
X146334519Y-109711817D01*
X146336509Y-109709511D01*
X146338017Y-109706857D01*
X146431914Y-109541570D01*
X146431916Y-109541565D01*
X146433425Y-109538909D01*
X146495358Y-109352732D01*
X146499465Y-109320227D01*
X146519729Y-109159813D01*
X146519729Y-109159812D01*
X146519949Y-109158071D01*
X146520341Y-109130000D01*
X146519264Y-109119010D01*
X146501492Y-108937769D01*
X146501194Y-108934728D01*
X146444484Y-108746894D01*
X146420051Y-108700942D01*
X146353805Y-108576351D01*
X146353803Y-108576348D01*
X146352370Y-108573653D01*
X146228361Y-108421602D01*
X146098136Y-108313871D01*
X146079536Y-108298484D01*
X146077180Y-108296535D01*
X146074496Y-108295084D01*
X146074492Y-108295081D01*
X145907270Y-108204665D01*
X145904585Y-108203213D01*
X145810869Y-108174203D01*
X145720067Y-108146095D01*
X145720064Y-108146094D01*
X145717152Y-108145193D01*
X145714119Y-108144874D01*
X145714118Y-108144874D01*
X145667344Y-108139958D01*
X145522019Y-108124683D01*
X145518986Y-108124959D01*
X145518982Y-108124959D01*
X145434200Y-108132675D01*
X145326618Y-108142466D01*
X145323690Y-108143328D01*
X145323689Y-108143328D01*
X145314288Y-108146095D01*
X145138393Y-108197864D01*
X144964512Y-108288767D01*
X144811600Y-108411711D01*
X144685480Y-108562016D01*
X144656765Y-108614249D01*
X144596125Y-108724552D01*
X144590956Y-108733954D01*
X144531628Y-108920978D01*
X144531287Y-108924016D01*
X144531287Y-108924017D01*
X144524403Y-108985394D01*
X144509757Y-109115963D01*
X142804216Y-109115963D01*
X142727195Y-108982560D01*
X142604050Y-108845793D01*
X142455161Y-108737619D01*
X142287034Y-108662764D01*
X142283827Y-108662082D01*
X142283826Y-108662082D01*
X142110228Y-108625182D01*
X142110227Y-108625182D01*
X142107019Y-108624500D01*
X141922981Y-108624500D01*
X141919773Y-108625182D01*
X141919772Y-108625182D01*
X141746174Y-108662082D01*
X141746173Y-108662082D01*
X141742966Y-108662764D01*
X141574839Y-108737619D01*
X141425950Y-108845793D01*
X141302805Y-108982560D01*
X141210786Y-109141941D01*
X141153915Y-109316971D01*
X141134678Y-109500000D01*
X141153915Y-109683029D01*
X141154927Y-109686143D01*
X141154927Y-109686144D01*
X141162520Y-109709511D01*
X141210786Y-109858059D01*
X141302805Y-110017440D01*
X141353282Y-110073500D01*
X141405666Y-110131679D01*
X141421633Y-110176771D01*
X141401040Y-110219947D01*
X141359219Y-110236000D01*
X141150241Y-110236000D01*
X141106047Y-110217694D01*
X140992344Y-110103991D01*
X140826477Y-109938125D01*
X140808171Y-109893931D01*
X140816546Y-109862679D01*
X140819214Y-109858059D01*
X140820224Y-109854950D01*
X140820226Y-109854946D01*
X140875073Y-109686144D01*
X140875073Y-109686143D01*
X140876085Y-109683029D01*
X140895322Y-109500000D01*
X140876085Y-109316971D01*
X140819214Y-109141941D01*
X140727195Y-108982560D01*
X140604050Y-108845793D01*
X140455161Y-108737619D01*
X140287034Y-108662764D01*
X140283827Y-108662082D01*
X140283826Y-108662082D01*
X140110228Y-108625182D01*
X140110227Y-108625182D01*
X140107019Y-108624500D01*
X139922981Y-108624500D01*
X139919773Y-108625182D01*
X139919772Y-108625182D01*
X139746174Y-108662082D01*
X139746173Y-108662082D01*
X139742966Y-108662764D01*
X139574839Y-108737619D01*
X139425950Y-108845793D01*
X139423763Y-108848222D01*
X139309447Y-108975183D01*
X139266271Y-108995776D01*
X139221179Y-108979809D01*
X139200500Y-108933362D01*
X139200500Y-108066638D01*
X139218806Y-108022444D01*
X139263000Y-108004138D01*
X139309447Y-108024817D01*
X139425950Y-108154207D01*
X139574839Y-108262381D01*
X139742966Y-108337236D01*
X139746173Y-108337918D01*
X139746174Y-108337918D01*
X139852422Y-108360502D01*
X139922981Y-108375500D01*
X140107019Y-108375500D01*
X140177578Y-108360502D01*
X140283826Y-108337918D01*
X140283827Y-108337918D01*
X140287034Y-108337236D01*
X140455161Y-108262381D01*
X140604050Y-108154207D01*
X140727195Y-108017440D01*
X140819214Y-107858059D01*
X140876085Y-107683029D01*
X140895322Y-107500000D01*
X141134678Y-107500000D01*
X141153915Y-107683029D01*
X141210786Y-107858059D01*
X141302805Y-108017440D01*
X141425950Y-108154207D01*
X141574839Y-108262381D01*
X141742966Y-108337236D01*
X141746173Y-108337918D01*
X141746174Y-108337918D01*
X141852422Y-108360502D01*
X141922981Y-108375500D01*
X142107019Y-108375500D01*
X142177578Y-108360502D01*
X142283826Y-108337918D01*
X142283827Y-108337918D01*
X142287034Y-108337236D01*
X142455161Y-108262381D01*
X142604050Y-108154207D01*
X142727195Y-108017440D01*
X142819214Y-107858059D01*
X142876085Y-107683029D01*
X142895322Y-107500000D01*
X142876085Y-107316971D01*
X142819214Y-107141941D01*
X142814556Y-107133872D01*
X142736634Y-106998909D01*
X142727195Y-106982560D01*
X142604050Y-106845793D01*
X142455161Y-106737619D01*
X142287034Y-106662764D01*
X142283827Y-106662082D01*
X142283826Y-106662082D01*
X142110228Y-106625182D01*
X142110227Y-106625182D01*
X142107019Y-106624500D01*
X141922981Y-106624500D01*
X141919773Y-106625182D01*
X141919772Y-106625182D01*
X141746174Y-106662082D01*
X141746173Y-106662082D01*
X141742966Y-106662764D01*
X141574839Y-106737619D01*
X141425950Y-106845793D01*
X141302805Y-106982560D01*
X141293366Y-106998909D01*
X141215445Y-107133872D01*
X141210786Y-107141941D01*
X141153915Y-107316971D01*
X141134678Y-107500000D01*
X140895322Y-107500000D01*
X140876085Y-107316971D01*
X140819214Y-107141941D01*
X140814556Y-107133872D01*
X140736634Y-106998909D01*
X140727195Y-106982560D01*
X140604050Y-106845793D01*
X140455161Y-106737619D01*
X140287034Y-106662764D01*
X140283827Y-106662082D01*
X140283826Y-106662082D01*
X140110228Y-106625182D01*
X140110227Y-106625182D01*
X140107019Y-106624500D01*
X139922981Y-106624500D01*
X139919773Y-106625182D01*
X139919772Y-106625182D01*
X139746174Y-106662082D01*
X139746173Y-106662082D01*
X139742966Y-106662764D01*
X139574839Y-106737619D01*
X139425950Y-106845793D01*
X139423763Y-106848222D01*
X139309447Y-106975183D01*
X139266271Y-106995776D01*
X139221179Y-106979809D01*
X139200500Y-106933362D01*
X139200500Y-106575963D01*
X144509757Y-106575963D01*
X144510013Y-106579010D01*
X144524244Y-106748482D01*
X144526175Y-106771483D01*
X144545665Y-106839452D01*
X144572594Y-106933362D01*
X144580258Y-106960091D01*
X144669944Y-107134601D01*
X144671835Y-107136987D01*
X144671837Y-107136990D01*
X144715649Y-107192267D01*
X144791818Y-107288369D01*
X144941238Y-107415535D01*
X145112513Y-107511257D01*
X145115417Y-107512201D01*
X145115418Y-107512201D01*
X145296205Y-107570943D01*
X145296210Y-107570944D01*
X145299118Y-107571889D01*
X145493946Y-107595121D01*
X145496988Y-107594887D01*
X145496991Y-107594887D01*
X145686528Y-107580303D01*
X145686533Y-107580302D01*
X145689576Y-107580068D01*
X145717569Y-107572252D01*
X145875617Y-107528124D01*
X145875621Y-107528123D01*
X145878556Y-107527303D01*
X146007929Y-107461952D01*
X146050969Y-107440211D01*
X146053689Y-107438837D01*
X146056087Y-107436964D01*
X146056091Y-107436961D01*
X146169792Y-107348128D01*
X146208303Y-107318040D01*
X146213882Y-107311577D01*
X146334515Y-107171822D01*
X146334519Y-107171817D01*
X146336509Y-107169511D01*
X146341601Y-107160548D01*
X146431914Y-107001570D01*
X146431916Y-107001565D01*
X146433425Y-106998909D01*
X146495358Y-106812732D01*
X146500954Y-106768440D01*
X146519729Y-106619813D01*
X146519729Y-106619812D01*
X146519949Y-106618071D01*
X146520341Y-106590000D01*
X146519264Y-106579010D01*
X146505786Y-106441563D01*
X146501194Y-106394728D01*
X146444484Y-106206894D01*
X146376284Y-106078628D01*
X146353805Y-106036351D01*
X146353803Y-106036348D01*
X146352370Y-106033653D01*
X146228361Y-105881602D01*
X146077180Y-105756535D01*
X146074496Y-105755084D01*
X146074492Y-105755081D01*
X145907270Y-105664665D01*
X145904585Y-105663213D01*
X145810869Y-105634203D01*
X145720067Y-105606095D01*
X145720064Y-105606094D01*
X145717152Y-105605193D01*
X145714119Y-105604874D01*
X145714118Y-105604874D01*
X145667344Y-105599958D01*
X145522019Y-105584683D01*
X145518986Y-105584959D01*
X145518982Y-105584959D01*
X145434200Y-105592675D01*
X145326618Y-105602466D01*
X145323690Y-105603328D01*
X145323689Y-105603328D01*
X145314288Y-105606095D01*
X145138393Y-105657864D01*
X144964512Y-105748767D01*
X144811600Y-105871711D01*
X144685480Y-106022016D01*
X144656765Y-106074249D01*
X144596125Y-106184552D01*
X144590956Y-106193954D01*
X144531628Y-106380978D01*
X144531287Y-106384016D01*
X144531287Y-106384017D01*
X144511980Y-106556148D01*
X144509757Y-106575963D01*
X139200500Y-106575963D01*
X139200500Y-106066638D01*
X139218806Y-106022444D01*
X139263000Y-106004138D01*
X139309447Y-106024817D01*
X139425950Y-106154207D01*
X139574839Y-106262381D01*
X139742966Y-106337236D01*
X139746173Y-106337918D01*
X139746174Y-106337918D01*
X139852422Y-106360502D01*
X139922981Y-106375500D01*
X140107019Y-106375500D01*
X140177578Y-106360502D01*
X140283826Y-106337918D01*
X140283827Y-106337918D01*
X140287034Y-106337236D01*
X140455161Y-106262381D01*
X140604050Y-106154207D01*
X140727195Y-106017440D01*
X140792178Y-105904886D01*
X140817578Y-105860893D01*
X140817579Y-105860891D01*
X140819214Y-105858059D01*
X140876085Y-105683029D01*
X140895322Y-105500000D01*
X141134678Y-105500000D01*
X141153915Y-105683029D01*
X141210786Y-105858059D01*
X141212421Y-105860891D01*
X141212422Y-105860893D01*
X141237822Y-105904886D01*
X141302805Y-106017440D01*
X141425950Y-106154207D01*
X141574839Y-106262381D01*
X141742966Y-106337236D01*
X141746173Y-106337918D01*
X141746174Y-106337918D01*
X141852422Y-106360502D01*
X141922981Y-106375500D01*
X142107019Y-106375500D01*
X142177578Y-106360502D01*
X142283826Y-106337918D01*
X142283827Y-106337918D01*
X142287034Y-106337236D01*
X142455161Y-106262381D01*
X142604050Y-106154207D01*
X142727195Y-106017440D01*
X142792178Y-105904886D01*
X142817578Y-105860893D01*
X142817579Y-105860891D01*
X142819214Y-105858059D01*
X142876085Y-105683029D01*
X142895322Y-105500000D01*
X142876085Y-105316971D01*
X142819214Y-105141941D01*
X142727195Y-104982560D01*
X142604050Y-104845793D01*
X142455161Y-104737619D01*
X142287034Y-104662764D01*
X142283827Y-104662082D01*
X142283826Y-104662082D01*
X142110228Y-104625182D01*
X142110227Y-104625182D01*
X142107019Y-104624500D01*
X141922981Y-104624500D01*
X141919773Y-104625182D01*
X141919772Y-104625182D01*
X141746174Y-104662082D01*
X141746173Y-104662082D01*
X141742966Y-104662764D01*
X141574839Y-104737619D01*
X141425950Y-104845793D01*
X141302805Y-104982560D01*
X141210786Y-105141941D01*
X141153915Y-105316971D01*
X141134678Y-105500000D01*
X140895322Y-105500000D01*
X140876085Y-105316971D01*
X140819214Y-105141941D01*
X140727195Y-104982560D01*
X140604050Y-104845793D01*
X140455161Y-104737619D01*
X140287034Y-104662764D01*
X140283827Y-104662082D01*
X140283826Y-104662082D01*
X140110228Y-104625182D01*
X140110227Y-104625182D01*
X140107019Y-104624500D01*
X139922981Y-104624500D01*
X139919773Y-104625182D01*
X139919772Y-104625182D01*
X139746174Y-104662082D01*
X139746173Y-104662082D01*
X139742966Y-104662764D01*
X139574839Y-104737619D01*
X139425950Y-104845793D01*
X139423763Y-104848222D01*
X139309447Y-104975183D01*
X139266271Y-104995776D01*
X139221179Y-104979809D01*
X139200500Y-104933362D01*
X139200500Y-104066638D01*
X139218806Y-104022444D01*
X139263000Y-104004138D01*
X139309447Y-104024817D01*
X139330566Y-104048272D01*
X139425950Y-104154207D01*
X139574839Y-104262381D01*
X139742966Y-104337236D01*
X139746173Y-104337918D01*
X139746174Y-104337918D01*
X139919772Y-104374818D01*
X139922981Y-104375500D01*
X140107019Y-104375500D01*
X140110228Y-104374818D01*
X140283826Y-104337918D01*
X140283827Y-104337918D01*
X140287034Y-104337236D01*
X140455161Y-104262381D01*
X140604050Y-104154207D01*
X140727195Y-104017440D01*
X140773204Y-103937750D01*
X140817578Y-103860893D01*
X140817579Y-103860891D01*
X140819214Y-103858059D01*
X140876085Y-103683029D01*
X140887591Y-103573552D01*
X141216321Y-103573552D01*
X141225221Y-103664326D01*
X141226664Y-103671113D01*
X141281251Y-103835211D01*
X141284167Y-103841521D01*
X141373753Y-103989445D01*
X141377989Y-103994945D01*
X141498126Y-104119351D01*
X141503471Y-104123773D01*
X141648190Y-104218474D01*
X141654378Y-104221600D01*
X141816480Y-104281884D01*
X141823210Y-104283563D01*
X141939176Y-104299036D01*
X141948373Y-104296588D01*
X141951500Y-104291194D01*
X141951500Y-104287150D01*
X142078500Y-104287150D01*
X142082141Y-104295940D01*
X142088692Y-104298653D01*
X142173809Y-104290907D01*
X142180605Y-104289512D01*
X142345082Y-104236070D01*
X142351408Y-104233200D01*
X142499955Y-104144649D01*
X142505488Y-104140448D01*
X142615209Y-104035963D01*
X144509757Y-104035963D01*
X144510013Y-104039010D01*
X144525083Y-104218474D01*
X144526175Y-104231483D01*
X144580258Y-104420091D01*
X144669944Y-104594601D01*
X144671835Y-104596987D01*
X144671837Y-104596990D01*
X144750366Y-104696069D01*
X144791818Y-104748369D01*
X144794148Y-104750352D01*
X144865008Y-104810658D01*
X144941238Y-104875535D01*
X145112513Y-104971257D01*
X145115417Y-104972201D01*
X145115418Y-104972201D01*
X145296205Y-105030943D01*
X145296210Y-105030944D01*
X145299118Y-105031889D01*
X145493946Y-105055121D01*
X145496988Y-105054887D01*
X145496991Y-105054887D01*
X145686528Y-105040303D01*
X145686533Y-105040302D01*
X145689576Y-105040068D01*
X145717569Y-105032252D01*
X145875617Y-104988124D01*
X145875621Y-104988123D01*
X145878556Y-104987303D01*
X146053689Y-104898837D01*
X146056087Y-104896964D01*
X146056091Y-104896961D01*
X146166511Y-104810691D01*
X146208303Y-104778040D01*
X146210300Y-104775727D01*
X146334515Y-104631822D01*
X146334519Y-104631817D01*
X146336509Y-104629511D01*
X146338017Y-104626857D01*
X146431914Y-104461570D01*
X146431916Y-104461565D01*
X146433425Y-104458909D01*
X146495358Y-104272732D01*
X146496090Y-104266944D01*
X146519729Y-104079813D01*
X146519729Y-104079812D01*
X146519949Y-104078071D01*
X146520341Y-104050000D01*
X146519264Y-104039010D01*
X146502870Y-103871821D01*
X146501194Y-103854728D01*
X146444484Y-103666894D01*
X146394853Y-103573552D01*
X146353805Y-103496351D01*
X146353803Y-103496348D01*
X146352370Y-103493653D01*
X146228361Y-103341602D01*
X146077180Y-103216535D01*
X146074496Y-103215084D01*
X146074492Y-103215081D01*
X145907270Y-103124665D01*
X145904585Y-103123213D01*
X145810868Y-103094203D01*
X145720067Y-103066095D01*
X145720064Y-103066094D01*
X145717152Y-103065193D01*
X145714119Y-103064874D01*
X145714118Y-103064874D01*
X145667344Y-103059958D01*
X145522019Y-103044683D01*
X145518986Y-103044959D01*
X145518982Y-103044959D01*
X145434200Y-103052675D01*
X145326618Y-103062466D01*
X145323690Y-103063328D01*
X145323689Y-103063328D01*
X145314288Y-103066095D01*
X145138393Y-103117864D01*
X144964512Y-103208767D01*
X144811600Y-103331711D01*
X144685480Y-103482016D01*
X144638682Y-103567141D01*
X144596125Y-103644552D01*
X144590956Y-103653954D01*
X144531628Y-103840978D01*
X144531287Y-103844016D01*
X144531287Y-103844017D01*
X144511835Y-104017440D01*
X144509757Y-104035963D01*
X142615209Y-104035963D01*
X142630726Y-104021187D01*
X142635187Y-104015870D01*
X142730893Y-103871821D01*
X142734066Y-103865647D01*
X142795478Y-103703977D01*
X142797205Y-103697250D01*
X142814273Y-103575810D01*
X142811891Y-103566600D01*
X142806629Y-103563500D01*
X142090931Y-103563500D01*
X142082141Y-103567141D01*
X142078500Y-103575931D01*
X142078500Y-104287150D01*
X141951500Y-104287150D01*
X141951500Y-103575931D01*
X141947859Y-103567141D01*
X141939069Y-103563500D01*
X141227766Y-103563500D01*
X141218976Y-103567141D01*
X141216321Y-103573552D01*
X140887591Y-103573552D01*
X140895322Y-103500000D01*
X140887352Y-103424166D01*
X141216160Y-103424166D01*
X141218671Y-103433344D01*
X141224204Y-103436500D01*
X141939069Y-103436500D01*
X141947859Y-103432859D01*
X141951500Y-103424069D01*
X142078500Y-103424069D01*
X142082141Y-103432859D01*
X142090931Y-103436500D01*
X142802521Y-103436500D01*
X142811311Y-103432859D01*
X142813855Y-103426718D01*
X142802408Y-103324667D01*
X142800869Y-103317890D01*
X142743997Y-103154580D01*
X142740992Y-103148307D01*
X142649352Y-103001652D01*
X142645035Y-102996206D01*
X142523175Y-102873492D01*
X142517770Y-102869146D01*
X142371744Y-102776475D01*
X142365512Y-102773436D01*
X142202589Y-102715422D01*
X142195821Y-102713835D01*
X142090844Y-102701317D01*
X142081685Y-102703891D01*
X142078500Y-102709567D01*
X142078500Y-103424069D01*
X141951500Y-103424069D01*
X141951500Y-102712642D01*
X141947859Y-102703852D01*
X141941585Y-102701253D01*
X141845162Y-102711387D01*
X141838390Y-102712876D01*
X141674670Y-102768612D01*
X141668388Y-102771568D01*
X141521093Y-102862184D01*
X141515615Y-102866464D01*
X141392061Y-102987458D01*
X141387668Y-102992844D01*
X141293985Y-103138210D01*
X141290899Y-103144427D01*
X141231751Y-103306937D01*
X141230117Y-103313693D01*
X141216160Y-103424166D01*
X140887352Y-103424166D01*
X140876085Y-103316971D01*
X140819214Y-103141941D01*
X140808402Y-103123213D01*
X140738218Y-103001652D01*
X140727195Y-102982560D01*
X140604050Y-102845793D01*
X140455161Y-102737619D01*
X140287034Y-102662764D01*
X140283827Y-102662082D01*
X140283826Y-102662082D01*
X140110228Y-102625182D01*
X140110227Y-102625182D01*
X140107019Y-102624500D01*
X139922981Y-102624500D01*
X139919773Y-102625182D01*
X139919772Y-102625182D01*
X139746174Y-102662082D01*
X139746173Y-102662082D01*
X139742966Y-102662764D01*
X139574839Y-102737619D01*
X139425950Y-102845793D01*
X139423763Y-102848222D01*
X139309447Y-102975183D01*
X139266271Y-102995776D01*
X139221179Y-102979809D01*
X139200500Y-102933362D01*
X139200500Y-101927220D01*
X139218806Y-101883026D01*
X139263000Y-101864720D01*
X139307194Y-101883026D01*
X139316460Y-101894843D01*
X139373753Y-101989445D01*
X139377989Y-101994945D01*
X139498126Y-102119351D01*
X139503471Y-102123773D01*
X139648190Y-102218474D01*
X139654378Y-102221600D01*
X139816480Y-102281884D01*
X139823210Y-102283563D01*
X139939176Y-102299036D01*
X139948373Y-102296588D01*
X139951500Y-102291194D01*
X139951500Y-102287150D01*
X140078500Y-102287150D01*
X140082141Y-102295940D01*
X140088692Y-102298653D01*
X140173809Y-102290907D01*
X140180605Y-102289512D01*
X140345082Y-102236070D01*
X140351408Y-102233200D01*
X140499955Y-102144649D01*
X140505488Y-102140448D01*
X140630726Y-102021187D01*
X140635187Y-102015870D01*
X140730893Y-101871821D01*
X140734066Y-101865647D01*
X140795478Y-101703977D01*
X140797205Y-101697250D01*
X140814273Y-101575810D01*
X140811891Y-101566600D01*
X140806629Y-101563500D01*
X140090931Y-101563500D01*
X140082141Y-101567141D01*
X140078500Y-101575931D01*
X140078500Y-102287150D01*
X139951500Y-102287150D01*
X139951500Y-101424069D01*
X140078500Y-101424069D01*
X140082141Y-101432859D01*
X140090931Y-101436500D01*
X140802521Y-101436500D01*
X140811311Y-101432859D01*
X140813855Y-101426718D01*
X140802408Y-101324667D01*
X140800869Y-101317890D01*
X140743997Y-101154580D01*
X140740992Y-101148307D01*
X140649352Y-101001652D01*
X140645035Y-100996206D01*
X140523175Y-100873492D01*
X140517770Y-100869146D01*
X140371744Y-100776475D01*
X140365512Y-100773436D01*
X140202589Y-100715422D01*
X140195821Y-100713835D01*
X140090844Y-100701317D01*
X140081685Y-100703891D01*
X140078500Y-100709567D01*
X140078500Y-101424069D01*
X139951500Y-101424069D01*
X139951500Y-100712642D01*
X139947859Y-100703852D01*
X139941585Y-100701253D01*
X139845162Y-100711387D01*
X139838390Y-100712876D01*
X139674670Y-100768612D01*
X139668388Y-100771568D01*
X139521093Y-100862184D01*
X139515615Y-100866464D01*
X139392061Y-100987458D01*
X139387668Y-100992844D01*
X139315535Y-101104771D01*
X139276207Y-101132003D01*
X139229143Y-101123449D01*
X139201911Y-101084121D01*
X139200500Y-101070914D01*
X139200500Y-100066638D01*
X139218806Y-100022444D01*
X139263000Y-100004138D01*
X139309447Y-100024817D01*
X139425950Y-100154207D01*
X139574839Y-100262381D01*
X139742966Y-100337236D01*
X139746173Y-100337918D01*
X139746174Y-100337918D01*
X139919772Y-100374818D01*
X139922981Y-100375500D01*
X140107019Y-100375500D01*
X140110228Y-100374818D01*
X140283826Y-100337918D01*
X140283827Y-100337918D01*
X140287034Y-100337236D01*
X140455161Y-100262381D01*
X140604050Y-100154207D01*
X140727195Y-100017440D01*
X140819214Y-99858059D01*
X140876085Y-99683029D01*
X140895322Y-99500000D01*
X140876085Y-99316971D01*
X140819214Y-99141941D01*
X140817577Y-99139105D01*
X140811054Y-99127806D01*
X140804812Y-99080380D01*
X140820988Y-99052364D01*
X141048063Y-98825289D01*
X141092257Y-98806983D01*
X141320517Y-98806983D01*
X141364711Y-98825289D01*
X141383017Y-98869483D01*
X141366964Y-98911304D01*
X141302805Y-98982560D01*
X141210786Y-99141941D01*
X141153915Y-99316971D01*
X141134678Y-99500000D01*
X141153915Y-99683029D01*
X141210786Y-99858059D01*
X141302805Y-100017440D01*
X141425950Y-100154207D01*
X141574839Y-100262381D01*
X141742966Y-100337236D01*
X141746173Y-100337918D01*
X141746174Y-100337918D01*
X141919772Y-100374818D01*
X141922981Y-100375500D01*
X142107019Y-100375500D01*
X142110228Y-100374818D01*
X142283826Y-100337918D01*
X142283827Y-100337918D01*
X142287034Y-100337236D01*
X142455161Y-100262381D01*
X142604050Y-100154207D01*
X142727195Y-100017440D01*
X142728830Y-100014609D01*
X142728836Y-100014600D01*
X142774874Y-99934860D01*
X142812824Y-99905740D01*
X142860250Y-99911984D01*
X142889370Y-99949934D01*
X142891500Y-99966110D01*
X142891500Y-100209259D01*
X142873194Y-100253453D01*
X142439776Y-100686872D01*
X142395582Y-100705178D01*
X142370161Y-100699774D01*
X142290036Y-100664100D01*
X142290031Y-100664098D01*
X142287034Y-100662764D01*
X142283827Y-100662082D01*
X142283826Y-100662082D01*
X142110228Y-100625182D01*
X142110227Y-100625182D01*
X142107019Y-100624500D01*
X141922981Y-100624500D01*
X141919773Y-100625182D01*
X141919772Y-100625182D01*
X141746174Y-100662082D01*
X141746173Y-100662082D01*
X141742966Y-100662764D01*
X141574839Y-100737619D01*
X141425950Y-100845793D01*
X141302805Y-100982560D01*
X141293528Y-100998628D01*
X141221031Y-101124197D01*
X141210786Y-101141941D01*
X141153915Y-101316971D01*
X141134678Y-101500000D01*
X141153915Y-101683029D01*
X141210786Y-101858059D01*
X141212421Y-101860891D01*
X141212422Y-101860893D01*
X141232023Y-101894843D01*
X141302805Y-102017440D01*
X141425950Y-102154207D01*
X141574839Y-102262381D01*
X141742966Y-102337236D01*
X141746173Y-102337918D01*
X141746174Y-102337918D01*
X141835763Y-102356961D01*
X141922981Y-102375500D01*
X142107019Y-102375500D01*
X142194237Y-102356961D01*
X142283826Y-102337918D01*
X142283827Y-102337918D01*
X142287034Y-102337236D01*
X142455161Y-102262381D01*
X142604050Y-102154207D01*
X142727195Y-102017440D01*
X142797977Y-101894843D01*
X142817578Y-101860893D01*
X142817579Y-101860891D01*
X142819214Y-101858059D01*
X142876085Y-101683029D01*
X142895322Y-101500000D01*
X142894898Y-101495963D01*
X144509757Y-101495963D01*
X144510013Y-101499010D01*
X144525727Y-101686144D01*
X144526175Y-101691483D01*
X144527017Y-101694419D01*
X144577887Y-101871821D01*
X144580258Y-101880091D01*
X144669944Y-102054601D01*
X144671835Y-102056987D01*
X144671837Y-102056990D01*
X144737985Y-102140448D01*
X144791818Y-102208369D01*
X144941238Y-102335535D01*
X145112513Y-102431257D01*
X145115417Y-102432201D01*
X145115418Y-102432201D01*
X145296205Y-102490943D01*
X145296210Y-102490944D01*
X145299118Y-102491889D01*
X145493946Y-102515121D01*
X145496988Y-102514887D01*
X145496991Y-102514887D01*
X145686528Y-102500303D01*
X145686533Y-102500302D01*
X145689576Y-102500068D01*
X145717569Y-102492252D01*
X145875617Y-102448124D01*
X145875621Y-102448123D01*
X145878556Y-102447303D01*
X146053689Y-102358837D01*
X146056087Y-102356964D01*
X146056091Y-102356961D01*
X146175445Y-102263711D01*
X146208303Y-102238040D01*
X146225192Y-102218474D01*
X146334515Y-102091822D01*
X146334519Y-102091817D01*
X146336509Y-102089511D01*
X146375323Y-102021187D01*
X146431914Y-101921570D01*
X146431916Y-101921565D01*
X146433425Y-101918909D01*
X146495358Y-101732732D01*
X146499841Y-101697250D01*
X146519729Y-101539813D01*
X146519729Y-101539812D01*
X146519949Y-101538071D01*
X146520341Y-101510000D01*
X146519361Y-101500000D01*
X146506935Y-101373278D01*
X146501194Y-101314728D01*
X146444484Y-101126894D01*
X146374996Y-100996206D01*
X146353805Y-100956351D01*
X146353803Y-100956348D01*
X146352370Y-100953653D01*
X146228361Y-100801602D01*
X146110201Y-100703852D01*
X146079536Y-100678484D01*
X146077180Y-100676535D01*
X146074496Y-100675084D01*
X146074492Y-100675081D01*
X145907270Y-100584665D01*
X145904585Y-100583213D01*
X145809932Y-100553913D01*
X145720067Y-100526095D01*
X145720064Y-100526094D01*
X145717152Y-100525193D01*
X145714119Y-100524874D01*
X145714118Y-100524874D01*
X145667344Y-100519958D01*
X145522019Y-100504683D01*
X145518986Y-100504959D01*
X145518982Y-100504959D01*
X145434200Y-100512675D01*
X145326618Y-100522466D01*
X145323690Y-100523328D01*
X145323689Y-100523328D01*
X145314288Y-100526095D01*
X145138393Y-100577864D01*
X144964512Y-100668767D01*
X144811600Y-100791711D01*
X144685480Y-100942016D01*
X144657537Y-100992844D01*
X144596125Y-101104552D01*
X144590956Y-101113954D01*
X144531628Y-101300978D01*
X144531287Y-101304016D01*
X144531287Y-101304017D01*
X144529745Y-101317769D01*
X144509757Y-101495963D01*
X142894898Y-101495963D01*
X142876085Y-101316971D01*
X142870889Y-101300978D01*
X142820226Y-101145054D01*
X142820224Y-101145050D01*
X142819214Y-101141941D01*
X142811055Y-101127809D01*
X142804810Y-101080385D01*
X142820987Y-101052366D01*
X143319440Y-100553913D01*
X143328910Y-100546141D01*
X143340715Y-100538253D01*
X143340716Y-100538252D01*
X143345833Y-100534833D01*
X143351672Y-100526095D01*
X143360557Y-100512798D01*
X143360566Y-100512786D01*
X143400763Y-100452627D01*
X143400764Y-100452625D01*
X143404183Y-100447508D01*
X143424672Y-100344500D01*
X143420701Y-100324536D01*
X143419500Y-100312343D01*
X143419500Y-99666740D01*
X143437806Y-99622546D01*
X144458242Y-98602110D01*
X144502436Y-98583804D01*
X144546630Y-98602110D01*
X144564936Y-98646304D01*
X144562010Y-98665202D01*
X144558047Y-98677694D01*
X144531628Y-98760978D01*
X144531287Y-98764016D01*
X144531287Y-98764017D01*
X144522115Y-98845793D01*
X144509757Y-98955963D01*
X144510013Y-98959010D01*
X144525374Y-99141941D01*
X144526175Y-99151483D01*
X144580258Y-99340091D01*
X144669944Y-99514601D01*
X144671835Y-99516987D01*
X144671837Y-99516990D01*
X144707425Y-99561891D01*
X144791818Y-99668369D01*
X144941238Y-99795535D01*
X145112513Y-99891257D01*
X145115417Y-99892201D01*
X145115418Y-99892201D01*
X145296205Y-99950943D01*
X145296210Y-99950944D01*
X145299118Y-99951889D01*
X145493946Y-99975121D01*
X145496988Y-99974887D01*
X145496991Y-99974887D01*
X145686528Y-99960303D01*
X145686533Y-99960302D01*
X145689576Y-99960068D01*
X145717569Y-99952252D01*
X145875617Y-99908124D01*
X145875621Y-99908123D01*
X145878556Y-99907303D01*
X146053689Y-99818837D01*
X146056087Y-99816964D01*
X146056091Y-99816961D01*
X146136930Y-99753802D01*
X146208303Y-99698040D01*
X146210300Y-99695727D01*
X146334515Y-99551822D01*
X146334519Y-99551817D01*
X146336509Y-99549511D01*
X146362787Y-99503254D01*
X146431914Y-99381570D01*
X146431916Y-99381565D01*
X146433425Y-99378909D01*
X146495358Y-99192732D01*
X146500954Y-99148440D01*
X146519729Y-98999813D01*
X146519729Y-98999812D01*
X146519949Y-98998071D01*
X146520341Y-98970000D01*
X146519264Y-98959010D01*
X146501492Y-98777769D01*
X146501194Y-98774728D01*
X146444484Y-98586894D01*
X146376284Y-98458628D01*
X146353805Y-98416351D01*
X146353803Y-98416348D01*
X146352370Y-98413653D01*
X146228361Y-98261602D01*
X146077180Y-98136535D01*
X146074496Y-98135084D01*
X146074492Y-98135081D01*
X145956860Y-98071478D01*
X145926692Y-98034355D01*
X145931609Y-97986773D01*
X145968732Y-97956605D01*
X145986587Y-97954000D01*
X146044343Y-97954000D01*
X146056536Y-97955201D01*
X146076500Y-97959172D01*
X146102502Y-97954000D01*
X146173471Y-97939884D01*
X146173472Y-97939884D01*
X146179508Y-97938683D01*
X146266833Y-97880333D01*
X146275780Y-97866944D01*
X146278143Y-97863407D01*
X146285915Y-97853937D01*
X147129437Y-97010415D01*
X147138907Y-97002643D01*
X147150715Y-96994753D01*
X147150716Y-96994752D01*
X147155833Y-96991333D01*
X147214183Y-96904008D01*
X147215450Y-96897641D01*
X147229500Y-96827002D01*
X147233471Y-96807038D01*
X147234672Y-96801000D01*
X147230701Y-96781036D01*
X147229500Y-96768843D01*
X147229500Y-92832657D01*
X147230701Y-92820464D01*
X147233471Y-92806538D01*
X147234672Y-92800500D01*
X147214183Y-92697492D01*
X147170563Y-92632210D01*
X147170557Y-92632202D01*
X147159253Y-92615285D01*
X147159252Y-92615284D01*
X147155833Y-92610167D01*
X147138910Y-92598859D01*
X147129440Y-92591087D01*
X146533806Y-91995453D01*
X146515500Y-91951259D01*
X146515500Y-90530252D01*
X146514901Y-90527239D01*
X146505068Y-90477805D01*
X146505067Y-90477803D01*
X146503867Y-90471769D01*
X146459552Y-90405448D01*
X146441776Y-90393570D01*
X146398347Y-90364551D01*
X146398345Y-90364550D01*
X146393231Y-90361133D01*
X146387197Y-90359933D01*
X146387195Y-90359932D01*
X146337761Y-90350099D01*
X146337758Y-90350099D01*
X146334748Y-90349500D01*
X144695252Y-90349500D01*
X144692242Y-90350099D01*
X144692239Y-90350099D01*
X144642805Y-90359932D01*
X144642803Y-90359933D01*
X144636769Y-90361133D01*
X144631655Y-90364550D01*
X144631653Y-90364551D01*
X144588224Y-90393570D01*
X144570448Y-90405448D01*
X144526133Y-90471769D01*
X144524933Y-90477803D01*
X144524932Y-90477805D01*
X144515099Y-90527239D01*
X144514500Y-90530252D01*
X144514500Y-92169748D01*
X144515099Y-92172758D01*
X144515099Y-92172761D01*
X144524415Y-92219593D01*
X144526133Y-92228231D01*
X144529550Y-92233345D01*
X144529551Y-92233347D01*
X144555513Y-92272201D01*
X144570448Y-92294552D01*
X144575562Y-92297969D01*
X144631653Y-92335449D01*
X144631655Y-92335450D01*
X144636769Y-92338867D01*
X144642803Y-92340067D01*
X144642805Y-92340068D01*
X144692239Y-92349901D01*
X144692242Y-92349901D01*
X144695252Y-92350500D01*
X146116259Y-92350500D01*
X146160453Y-92368806D01*
X146683194Y-92891547D01*
X146701500Y-92935741D01*
X146701500Y-96665760D01*
X146683194Y-96709954D01*
X146560157Y-96832991D01*
X146515963Y-96851297D01*
X146471769Y-96832991D01*
X146453463Y-96788797D01*
X146456658Y-96769069D01*
X146494395Y-96655627D01*
X146495358Y-96652732D01*
X146498502Y-96627850D01*
X146519729Y-96459813D01*
X146519729Y-96459812D01*
X146519949Y-96458071D01*
X146520341Y-96430000D01*
X146519855Y-96425037D01*
X146503326Y-96256472D01*
X146501194Y-96234728D01*
X146444484Y-96046894D01*
X146434543Y-96028198D01*
X146353805Y-95876351D01*
X146353803Y-95876348D01*
X146352370Y-95873653D01*
X146228361Y-95721602D01*
X146077180Y-95596535D01*
X146074496Y-95595084D01*
X146074492Y-95595081D01*
X145916146Y-95509464D01*
X145904585Y-95503213D01*
X145771292Y-95461952D01*
X145720067Y-95446095D01*
X145720064Y-95446094D01*
X145717152Y-95445193D01*
X145714119Y-95444874D01*
X145714118Y-95444874D01*
X145661019Y-95439293D01*
X145522019Y-95424683D01*
X145518986Y-95424959D01*
X145518982Y-95424959D01*
X145434200Y-95432675D01*
X145326618Y-95442466D01*
X145323690Y-95443328D01*
X145323689Y-95443328D01*
X145314288Y-95446095D01*
X145138393Y-95497864D01*
X144964512Y-95588767D01*
X144811600Y-95711711D01*
X144685480Y-95862016D01*
X144632822Y-95957800D01*
X144616269Y-95987910D01*
X144578937Y-96017818D01*
X144531390Y-96012569D01*
X144501482Y-95975237D01*
X144499000Y-95957800D01*
X144499000Y-95305240D01*
X144517306Y-95261046D01*
X144985805Y-94792547D01*
X145029999Y-94774241D01*
X145060490Y-94782183D01*
X145079035Y-94792547D01*
X145112513Y-94811257D01*
X145115417Y-94812201D01*
X145115418Y-94812201D01*
X145296205Y-94870943D01*
X145296210Y-94870944D01*
X145299118Y-94871889D01*
X145493946Y-94895121D01*
X145496988Y-94894887D01*
X145496991Y-94894887D01*
X145686528Y-94880303D01*
X145686533Y-94880302D01*
X145689576Y-94880068D01*
X145717569Y-94872252D01*
X145875617Y-94828124D01*
X145875621Y-94828123D01*
X145878556Y-94827303D01*
X146034595Y-94748482D01*
X146050969Y-94740211D01*
X146053689Y-94738837D01*
X146056087Y-94736964D01*
X146056091Y-94736961D01*
X146149352Y-94664097D01*
X146208303Y-94618040D01*
X146210300Y-94615727D01*
X146334515Y-94471822D01*
X146334519Y-94471817D01*
X146336509Y-94469511D01*
X146347215Y-94450665D01*
X146431914Y-94301570D01*
X146431916Y-94301565D01*
X146433425Y-94298909D01*
X146495358Y-94112732D01*
X146500954Y-94068440D01*
X146519729Y-93919813D01*
X146519729Y-93919812D01*
X146519949Y-93918071D01*
X146520341Y-93890000D01*
X146519264Y-93879010D01*
X146501492Y-93697769D01*
X146501194Y-93694728D01*
X146444484Y-93506894D01*
X146376284Y-93378628D01*
X146353805Y-93336351D01*
X146353803Y-93336348D01*
X146352370Y-93333653D01*
X146228361Y-93181602D01*
X146077180Y-93056535D01*
X146074496Y-93055084D01*
X146074492Y-93055081D01*
X145935870Y-92980129D01*
X145904585Y-92963213D01*
X145808152Y-92933362D01*
X145720067Y-92906095D01*
X145720064Y-92906094D01*
X145717152Y-92905193D01*
X145714119Y-92904874D01*
X145714118Y-92904874D01*
X145667344Y-92899958D01*
X145522019Y-92884683D01*
X145518986Y-92884959D01*
X145518982Y-92884959D01*
X145434200Y-92892675D01*
X145326618Y-92902466D01*
X145323690Y-92903328D01*
X145323689Y-92903328D01*
X145314288Y-92906095D01*
X145138393Y-92957864D01*
X144964512Y-93048767D01*
X144811600Y-93171711D01*
X144685480Y-93322016D01*
X144656765Y-93374249D01*
X144596125Y-93484552D01*
X144590956Y-93493954D01*
X144531628Y-93680978D01*
X144531287Y-93684016D01*
X144531287Y-93684017D01*
X144513797Y-93839949D01*
X144509757Y-93875963D01*
X144526175Y-94071483D01*
X144580258Y-94260091D01*
X144624366Y-94345916D01*
X144628285Y-94393589D01*
X144612971Y-94418677D01*
X144071063Y-94960585D01*
X144061593Y-94968357D01*
X144051378Y-94975183D01*
X144044667Y-94979667D01*
X144029938Y-95001710D01*
X143986317Y-95066992D01*
X143965828Y-95170000D01*
X143967029Y-95176038D01*
X143969799Y-95189964D01*
X143971000Y-95202157D01*
X143971000Y-96792760D01*
X143952694Y-96836954D01*
X142949209Y-97840439D01*
X142905015Y-97858745D01*
X142860821Y-97840439D01*
X142842515Y-97796245D01*
X142845574Y-97776931D01*
X142875073Y-97686144D01*
X142875073Y-97686143D01*
X142876085Y-97683029D01*
X142895322Y-97500000D01*
X142876085Y-97316971D01*
X142819214Y-97141941D01*
X142809996Y-97125974D01*
X142773204Y-97062250D01*
X142727195Y-96982560D01*
X142604050Y-96845793D01*
X142455161Y-96737619D01*
X142287034Y-96662764D01*
X142283827Y-96662082D01*
X142283826Y-96662082D01*
X142110228Y-96625182D01*
X142110227Y-96625182D01*
X142107019Y-96624500D01*
X141922981Y-96624500D01*
X141919773Y-96625182D01*
X141919772Y-96625182D01*
X141746174Y-96662082D01*
X141746173Y-96662082D01*
X141742966Y-96662764D01*
X141574839Y-96737619D01*
X141425950Y-96845793D01*
X141302805Y-96982560D01*
X141256796Y-97062250D01*
X141220005Y-97125974D01*
X141210786Y-97141941D01*
X141153915Y-97316971D01*
X141134678Y-97500000D01*
X141153915Y-97683029D01*
X141210786Y-97858059D01*
X141212421Y-97860891D01*
X141212422Y-97860893D01*
X141215916Y-97866944D01*
X141302805Y-98017440D01*
X141425950Y-98154207D01*
X141428594Y-98156128D01*
X141428600Y-98156133D01*
X141442070Y-98165920D01*
X141467064Y-98206706D01*
X141455896Y-98253220D01*
X141415110Y-98278214D01*
X141405333Y-98278983D01*
X140989169Y-98278983D01*
X140976977Y-98277782D01*
X140963055Y-98275013D01*
X140957017Y-98273812D01*
X140950979Y-98275013D01*
X140931024Y-98278982D01*
X140931016Y-98278983D01*
X140931013Y-98278983D01*
X140931008Y-98278984D01*
X140860046Y-98293099D01*
X140860045Y-98293099D01*
X140854009Y-98294300D01*
X140766684Y-98352650D01*
X140763265Y-98357767D01*
X140763264Y-98357768D01*
X140755374Y-98369576D01*
X140747602Y-98379046D01*
X140439776Y-98686872D01*
X140395582Y-98705178D01*
X140370161Y-98699774D01*
X140290036Y-98664100D01*
X140290031Y-98664098D01*
X140287034Y-98662764D01*
X140283827Y-98662082D01*
X140283826Y-98662082D01*
X140110228Y-98625182D01*
X140110227Y-98625182D01*
X140107019Y-98624500D01*
X139922981Y-98624500D01*
X139919773Y-98625182D01*
X139919772Y-98625182D01*
X139746174Y-98662082D01*
X139746173Y-98662082D01*
X139742966Y-98662764D01*
X139574839Y-98737619D01*
X139425950Y-98845793D01*
X139423763Y-98848222D01*
X139309447Y-98975183D01*
X139266271Y-98995776D01*
X139221179Y-98979809D01*
X139200500Y-98933362D01*
X139200500Y-98066638D01*
X139218806Y-98022444D01*
X139263000Y-98004138D01*
X139309447Y-98024817D01*
X139335888Y-98054183D01*
X139425950Y-98154207D01*
X139574839Y-98262381D01*
X139742966Y-98337236D01*
X139746173Y-98337918D01*
X139746174Y-98337918D01*
X139895111Y-98369576D01*
X139922981Y-98375500D01*
X140107019Y-98375500D01*
X140134889Y-98369576D01*
X140283826Y-98337918D01*
X140283827Y-98337918D01*
X140287034Y-98337236D01*
X140455161Y-98262381D01*
X140604050Y-98154207D01*
X140727195Y-98017440D01*
X140814084Y-97866944D01*
X140817578Y-97860893D01*
X140817579Y-97860891D01*
X140819214Y-97858059D01*
X140876085Y-97683029D01*
X140895322Y-97500000D01*
X140876085Y-97316971D01*
X140819214Y-97141941D01*
X140809996Y-97125974D01*
X140773204Y-97062250D01*
X140727195Y-96982560D01*
X140604050Y-96845793D01*
X140455161Y-96737619D01*
X140287034Y-96662764D01*
X140283827Y-96662082D01*
X140283826Y-96662082D01*
X140110228Y-96625182D01*
X140110227Y-96625182D01*
X140107019Y-96624500D01*
X139922981Y-96624500D01*
X139919773Y-96625182D01*
X139919772Y-96625182D01*
X139746174Y-96662082D01*
X139746173Y-96662082D01*
X139742966Y-96662764D01*
X139574839Y-96737619D01*
X139425950Y-96845793D01*
X139423763Y-96848222D01*
X139309447Y-96975183D01*
X139266271Y-96995776D01*
X139221179Y-96979809D01*
X139200500Y-96933362D01*
X139200500Y-96066638D01*
X139218806Y-96022444D01*
X139263000Y-96004138D01*
X139309447Y-96024817D01*
X139320809Y-96037436D01*
X139425950Y-96154207D01*
X139574839Y-96262381D01*
X139742966Y-96337236D01*
X139746173Y-96337918D01*
X139746174Y-96337918D01*
X139852422Y-96360502D01*
X139922981Y-96375500D01*
X140107019Y-96375500D01*
X140177578Y-96360502D01*
X140283826Y-96337918D01*
X140283827Y-96337918D01*
X140287034Y-96337236D01*
X140455161Y-96262381D01*
X140604050Y-96154207D01*
X140727195Y-96017440D01*
X140810211Y-95873653D01*
X140817578Y-95860893D01*
X140817579Y-95860891D01*
X140819214Y-95858059D01*
X140876085Y-95683029D01*
X140895322Y-95500000D01*
X141134678Y-95500000D01*
X141153915Y-95683029D01*
X141210786Y-95858059D01*
X141212421Y-95860891D01*
X141212422Y-95860893D01*
X141219789Y-95873653D01*
X141302805Y-96017440D01*
X141425950Y-96154207D01*
X141574839Y-96262381D01*
X141742966Y-96337236D01*
X141746173Y-96337918D01*
X141746174Y-96337918D01*
X141852422Y-96360502D01*
X141922981Y-96375500D01*
X142107019Y-96375500D01*
X142177578Y-96360502D01*
X142283826Y-96337918D01*
X142283827Y-96337918D01*
X142287034Y-96337236D01*
X142455161Y-96262381D01*
X142604050Y-96154207D01*
X142727195Y-96017440D01*
X142810211Y-95873653D01*
X142817578Y-95860893D01*
X142817579Y-95860891D01*
X142819214Y-95858059D01*
X142876085Y-95683029D01*
X142895322Y-95500000D01*
X142876085Y-95316971D01*
X142819214Y-95141941D01*
X142779428Y-95073029D01*
X142737264Y-95000000D01*
X142727195Y-94982560D01*
X142604050Y-94845793D01*
X142455161Y-94737619D01*
X142287034Y-94662764D01*
X142283827Y-94662082D01*
X142283826Y-94662082D01*
X142110228Y-94625182D01*
X142110227Y-94625182D01*
X142107019Y-94624500D01*
X141922981Y-94624500D01*
X141919773Y-94625182D01*
X141919772Y-94625182D01*
X141746174Y-94662082D01*
X141746173Y-94662082D01*
X141742966Y-94662764D01*
X141574839Y-94737619D01*
X141425950Y-94845793D01*
X141302805Y-94982560D01*
X141292736Y-95000000D01*
X141250573Y-95073029D01*
X141210786Y-95141941D01*
X141153915Y-95316971D01*
X141134678Y-95500000D01*
X140895322Y-95500000D01*
X140876085Y-95316971D01*
X140819214Y-95141941D01*
X140779428Y-95073029D01*
X140737264Y-95000000D01*
X140727195Y-94982560D01*
X140604050Y-94845793D01*
X140455161Y-94737619D01*
X140287034Y-94662764D01*
X140283827Y-94662082D01*
X140283826Y-94662082D01*
X140110228Y-94625182D01*
X140110227Y-94625182D01*
X140107019Y-94624500D01*
X139922981Y-94624500D01*
X139919773Y-94625182D01*
X139919772Y-94625182D01*
X139746174Y-94662082D01*
X139746173Y-94662082D01*
X139742966Y-94662764D01*
X139574839Y-94737619D01*
X139425950Y-94845793D01*
X139423763Y-94848222D01*
X139309447Y-94975183D01*
X139266271Y-94995776D01*
X139221179Y-94979809D01*
X139200500Y-94933362D01*
X139200500Y-94066638D01*
X139218806Y-94022444D01*
X139263000Y-94004138D01*
X139309447Y-94024817D01*
X139425950Y-94154207D01*
X139574839Y-94262381D01*
X139742966Y-94337236D01*
X139746173Y-94337918D01*
X139746174Y-94337918D01*
X139852422Y-94360502D01*
X139922981Y-94375500D01*
X140107019Y-94375500D01*
X140177578Y-94360502D01*
X140283826Y-94337918D01*
X140283827Y-94337918D01*
X140287034Y-94337236D01*
X140455161Y-94262381D01*
X140604050Y-94154207D01*
X140727195Y-94017440D01*
X140800773Y-93890000D01*
X140817578Y-93860893D01*
X140817579Y-93860891D01*
X140819214Y-93858059D01*
X140876085Y-93683029D01*
X140895322Y-93500000D01*
X141134678Y-93500000D01*
X141153915Y-93683029D01*
X141210786Y-93858059D01*
X141212421Y-93860891D01*
X141212422Y-93860893D01*
X141229227Y-93890000D01*
X141302805Y-94017440D01*
X141425950Y-94154207D01*
X141574839Y-94262381D01*
X141742966Y-94337236D01*
X141746173Y-94337918D01*
X141746174Y-94337918D01*
X141852422Y-94360502D01*
X141922981Y-94375500D01*
X142107019Y-94375500D01*
X142177578Y-94360502D01*
X142283826Y-94337918D01*
X142283827Y-94337918D01*
X142287034Y-94337236D01*
X142455161Y-94262381D01*
X142604050Y-94154207D01*
X142727195Y-94017440D01*
X142800773Y-93890000D01*
X142817578Y-93860893D01*
X142817579Y-93860891D01*
X142819214Y-93858059D01*
X142876085Y-93683029D01*
X142895322Y-93500000D01*
X142876085Y-93316971D01*
X142819214Y-93141941D01*
X142727195Y-92982560D01*
X142604050Y-92845793D01*
X142455161Y-92737619D01*
X142287034Y-92662764D01*
X142283827Y-92662082D01*
X142283826Y-92662082D01*
X142110228Y-92625182D01*
X142110227Y-92625182D01*
X142107019Y-92624500D01*
X141922981Y-92624500D01*
X141919773Y-92625182D01*
X141919772Y-92625182D01*
X141746174Y-92662082D01*
X141746173Y-92662082D01*
X141742966Y-92662764D01*
X141574839Y-92737619D01*
X141425950Y-92845793D01*
X141302805Y-92982560D01*
X141210786Y-93141941D01*
X141153915Y-93316971D01*
X141134678Y-93500000D01*
X140895322Y-93500000D01*
X140876085Y-93316971D01*
X140819214Y-93141941D01*
X140727195Y-92982560D01*
X140604050Y-92845793D01*
X140455161Y-92737619D01*
X140287034Y-92662764D01*
X140283827Y-92662082D01*
X140283826Y-92662082D01*
X140110228Y-92625182D01*
X140110227Y-92625182D01*
X140107019Y-92624500D01*
X139922981Y-92624500D01*
X139919773Y-92625182D01*
X139919772Y-92625182D01*
X139746174Y-92662082D01*
X139746173Y-92662082D01*
X139742966Y-92662764D01*
X139574839Y-92737619D01*
X139425950Y-92845793D01*
X139423763Y-92848222D01*
X139309447Y-92975183D01*
X139266271Y-92995776D01*
X139221179Y-92979809D01*
X139200500Y-92933362D01*
X139200500Y-92066638D01*
X139218806Y-92022444D01*
X139263000Y-92004138D01*
X139309447Y-92024817D01*
X139355470Y-92075931D01*
X139425950Y-92154207D01*
X139574839Y-92262381D01*
X139742966Y-92337236D01*
X139746173Y-92337918D01*
X139746174Y-92337918D01*
X139919772Y-92374818D01*
X139922981Y-92375500D01*
X140107019Y-92375500D01*
X140110228Y-92374818D01*
X140283826Y-92337918D01*
X140283827Y-92337918D01*
X140287034Y-92337236D01*
X140455161Y-92262381D01*
X140604050Y-92154207D01*
X140727195Y-92017440D01*
X140796737Y-91896990D01*
X140817578Y-91860893D01*
X140817579Y-91860891D01*
X140819214Y-91858059D01*
X140876085Y-91683029D01*
X140895322Y-91500000D01*
X141134678Y-91500000D01*
X141153915Y-91683029D01*
X141210786Y-91858059D01*
X141212421Y-91860891D01*
X141212422Y-91860893D01*
X141233263Y-91896990D01*
X141302805Y-92017440D01*
X141425950Y-92154207D01*
X141574839Y-92262381D01*
X141742966Y-92337236D01*
X141746173Y-92337918D01*
X141746174Y-92337918D01*
X141919772Y-92374818D01*
X141922981Y-92375500D01*
X142107019Y-92375500D01*
X142110228Y-92374818D01*
X142283826Y-92337918D01*
X142283827Y-92337918D01*
X142287034Y-92337236D01*
X142455161Y-92262381D01*
X142604050Y-92154207D01*
X142727195Y-92017440D01*
X142796737Y-91896990D01*
X142817578Y-91860893D01*
X142817579Y-91860891D01*
X142819214Y-91858059D01*
X142876085Y-91683029D01*
X142895322Y-91500000D01*
X142876085Y-91316971D01*
X142819214Y-91141941D01*
X142727195Y-90982560D01*
X142604050Y-90845793D01*
X142455161Y-90737619D01*
X142287034Y-90662764D01*
X142283827Y-90662082D01*
X142283826Y-90662082D01*
X142110228Y-90625182D01*
X142110227Y-90625182D01*
X142107019Y-90624500D01*
X141922981Y-90624500D01*
X141919773Y-90625182D01*
X141919772Y-90625182D01*
X141746174Y-90662082D01*
X141746173Y-90662082D01*
X141742966Y-90662764D01*
X141574839Y-90737619D01*
X141425950Y-90845793D01*
X141302805Y-90982560D01*
X141210786Y-91141941D01*
X141153915Y-91316971D01*
X141134678Y-91500000D01*
X140895322Y-91500000D01*
X140876085Y-91316971D01*
X140819214Y-91141941D01*
X140727195Y-90982560D01*
X140604050Y-90845793D01*
X140455161Y-90737619D01*
X140287034Y-90662764D01*
X140283827Y-90662082D01*
X140283826Y-90662082D01*
X140110228Y-90625182D01*
X140110227Y-90625182D01*
X140107019Y-90624500D01*
X139922981Y-90624500D01*
X139919773Y-90625182D01*
X139919772Y-90625182D01*
X139746174Y-90662082D01*
X139746173Y-90662082D01*
X139742966Y-90662764D01*
X139574839Y-90737619D01*
X139425950Y-90845793D01*
X139423763Y-90848222D01*
X139309447Y-90975183D01*
X139266271Y-90995776D01*
X139221179Y-90979809D01*
X139200500Y-90933362D01*
X139200500Y-90066638D01*
X139218806Y-90022444D01*
X139263000Y-90004138D01*
X139309447Y-90024817D01*
X139345272Y-90064605D01*
X139425950Y-90154207D01*
X139574839Y-90262381D01*
X139742966Y-90337236D01*
X139746173Y-90337918D01*
X139746174Y-90337918D01*
X139919772Y-90374818D01*
X139922981Y-90375500D01*
X140107019Y-90375500D01*
X140110228Y-90374818D01*
X140283826Y-90337918D01*
X140283827Y-90337918D01*
X140287034Y-90337236D01*
X140455161Y-90262381D01*
X140604050Y-90154207D01*
X140727195Y-90017440D01*
X140805536Y-89881750D01*
X140843487Y-89852630D01*
X140859663Y-89850500D01*
X141077000Y-89850500D01*
X141121194Y-89868806D01*
X141139500Y-89913000D01*
X141139500Y-90194748D01*
X141140099Y-90197758D01*
X141140099Y-90197761D01*
X141149355Y-90244290D01*
X141151133Y-90253231D01*
X141154550Y-90258345D01*
X141154551Y-90258347D01*
X141158750Y-90264631D01*
X141195448Y-90319552D01*
X141200562Y-90322969D01*
X141256653Y-90360449D01*
X141256655Y-90360450D01*
X141261769Y-90363867D01*
X141267803Y-90365067D01*
X141267805Y-90365068D01*
X141317239Y-90374901D01*
X141317242Y-90374901D01*
X141320252Y-90375500D01*
X142709748Y-90375500D01*
X142712758Y-90374901D01*
X142712761Y-90374901D01*
X142762195Y-90365068D01*
X142762197Y-90365067D01*
X142768231Y-90363867D01*
X142773345Y-90360450D01*
X142773347Y-90360449D01*
X142829438Y-90322969D01*
X142834552Y-90319552D01*
X142871250Y-90264631D01*
X142875449Y-90258347D01*
X142875450Y-90258345D01*
X142878867Y-90253231D01*
X142880646Y-90244290D01*
X142889901Y-90197761D01*
X142889901Y-90197758D01*
X142890500Y-90194748D01*
X142890500Y-89913000D01*
X142908806Y-89868806D01*
X142953000Y-89850500D01*
X144887936Y-89850500D01*
X144901088Y-89851900D01*
X144915261Y-89854951D01*
X144920390Y-89854344D01*
X144920393Y-89854344D01*
X144949209Y-89850933D01*
X144956555Y-89850500D01*
X144961115Y-89850500D01*
X144979981Y-89847360D01*
X144982863Y-89846950D01*
X145031138Y-89841236D01*
X145035799Y-89838998D01*
X145038972Y-89838076D01*
X145042010Y-89837036D01*
X145047103Y-89836188D01*
X145089899Y-89813096D01*
X145092515Y-89811764D01*
X145132781Y-89792429D01*
X145132785Y-89792426D01*
X145136326Y-89790726D01*
X145140274Y-89787408D01*
X145140690Y-89786992D01*
X145144001Y-89784198D01*
X145145247Y-89783232D01*
X145149794Y-89780778D01*
X145184299Y-89743451D01*
X145186000Y-89741682D01*
X145538876Y-89388806D01*
X145583070Y-89370500D01*
X147848453Y-89370500D01*
X147892647Y-89388806D01*
X147904290Y-89407807D01*
X147905049Y-89407420D01*
X147965342Y-89525751D01*
X148059249Y-89619658D01*
X148177580Y-89679951D01*
X148218750Y-89686472D01*
X148273327Y-89695116D01*
X148273332Y-89695116D01*
X148275754Y-89695500D01*
X148779246Y-89695500D01*
X148781668Y-89695116D01*
X148781673Y-89695116D01*
X148836250Y-89686472D01*
X148877420Y-89679951D01*
X148995751Y-89619658D01*
X149089658Y-89525751D01*
X149149951Y-89407420D01*
X149159414Y-89347672D01*
X149165116Y-89311673D01*
X149165116Y-89311668D01*
X149165500Y-89309246D01*
X149165500Y-88730754D01*
X149164997Y-88727573D01*
X149155190Y-88665656D01*
X149149951Y-88632580D01*
X149089658Y-88514249D01*
X148995751Y-88420342D01*
X148877420Y-88360049D01*
X148836250Y-88353528D01*
X148781673Y-88344884D01*
X148781668Y-88344884D01*
X148779246Y-88344500D01*
X148275754Y-88344500D01*
X148273332Y-88344884D01*
X148273327Y-88344884D01*
X148218750Y-88353528D01*
X148177580Y-88360049D01*
X148059249Y-88420342D01*
X147965342Y-88514249D01*
X147905049Y-88632580D01*
X147903302Y-88631690D01*
X147876830Y-88662687D01*
X147848453Y-88669500D01*
X145456064Y-88669500D01*
X145442912Y-88668100D01*
X145428739Y-88665049D01*
X145423610Y-88665656D01*
X145423607Y-88665656D01*
X145394791Y-88669067D01*
X145387445Y-88669500D01*
X145382885Y-88669500D01*
X145380338Y-88669924D01*
X145380337Y-88669924D01*
X145364036Y-88672637D01*
X145361121Y-88673052D01*
X145349142Y-88674470D01*
X145312861Y-88678764D01*
X145308200Y-88681002D01*
X145305034Y-88681922D01*
X145301990Y-88682964D01*
X145296897Y-88683812D01*
X145257631Y-88704999D01*
X145254105Y-88706902D01*
X145251480Y-88708239D01*
X145207674Y-88729274D01*
X145203726Y-88732592D01*
X145203310Y-88733008D01*
X145199999Y-88735802D01*
X145198753Y-88736768D01*
X145194206Y-88739222D01*
X145190698Y-88743017D01*
X145159701Y-88776549D01*
X145158000Y-88778318D01*
X144895072Y-89041246D01*
X144895070Y-89041249D01*
X144805124Y-89131194D01*
X144760930Y-89149500D01*
X142953000Y-89149500D01*
X142908806Y-89131194D01*
X142890500Y-89087000D01*
X142890500Y-88805252D01*
X142889901Y-88802239D01*
X142880068Y-88752805D01*
X142880067Y-88752803D01*
X142878867Y-88746769D01*
X142874038Y-88739541D01*
X142837969Y-88685562D01*
X142834552Y-88680448D01*
X142811506Y-88665049D01*
X142773347Y-88639551D01*
X142773345Y-88639550D01*
X142768231Y-88636133D01*
X142762197Y-88634933D01*
X142762195Y-88634932D01*
X142712761Y-88625099D01*
X142712758Y-88625099D01*
X142709748Y-88624500D01*
X141320252Y-88624500D01*
X141317242Y-88625099D01*
X141317239Y-88625099D01*
X141267805Y-88634932D01*
X141267803Y-88634933D01*
X141261769Y-88636133D01*
X141256655Y-88639550D01*
X141256653Y-88639551D01*
X141218494Y-88665049D01*
X141195448Y-88680448D01*
X141192031Y-88685562D01*
X141155963Y-88739541D01*
X141151133Y-88746769D01*
X141149933Y-88752803D01*
X141149932Y-88752805D01*
X141140099Y-88802239D01*
X141139500Y-88805252D01*
X141139500Y-89087000D01*
X141121194Y-89131194D01*
X141077000Y-89149500D01*
X140859663Y-89149500D01*
X140815469Y-89131194D01*
X140805536Y-89118250D01*
X140761973Y-89042797D01*
X140727195Y-88982560D01*
X140604050Y-88845793D01*
X140455161Y-88737619D01*
X140287034Y-88662764D01*
X140283827Y-88662082D01*
X140283826Y-88662082D01*
X140110228Y-88625182D01*
X140110227Y-88625182D01*
X140107019Y-88624500D01*
X139922981Y-88624500D01*
X139919773Y-88625182D01*
X139919772Y-88625182D01*
X139746174Y-88662082D01*
X139746173Y-88662082D01*
X139742966Y-88662764D01*
X139574839Y-88737619D01*
X139425950Y-88845793D01*
X139423765Y-88848220D01*
X139423758Y-88848226D01*
X139317156Y-88966621D01*
X139273980Y-88987215D01*
X139228889Y-88971248D01*
X139208295Y-88928072D01*
X139208510Y-88918676D01*
X139215258Y-88850154D01*
X139217648Y-88838136D01*
X139227624Y-88805252D01*
X139259572Y-88699933D01*
X139264261Y-88688614D01*
X139332339Y-88561250D01*
X139339144Y-88551065D01*
X139430764Y-88439425D01*
X139439426Y-88430763D01*
X139551065Y-88339144D01*
X139561250Y-88332339D01*
X139688614Y-88264261D01*
X139699933Y-88259572D01*
X139728642Y-88250863D01*
X139838140Y-88217647D01*
X139850148Y-88215259D01*
X139919192Y-88208459D01*
X139973880Y-88203073D01*
X139989501Y-88204073D01*
X139992782Y-88204079D01*
X139999641Y-88205656D01*
X140006504Y-88204103D01*
X140006506Y-88204103D01*
X140015617Y-88202041D01*
X140029411Y-88200500D01*
X167970128Y-88200500D01*
X167984135Y-88202090D01*
G37*
G04 #@! TD.AperFunction*
M02*
