G04 #@! TF.GenerationSoftware,KiCad,Pcbnew,(6.0.7)*
G04 #@! TF.CreationDate,2022-10-21T23:47:13+08:00*
G04 #@! TF.ProjectId,pcb_front,7063625f-6672-46f6-9e74-2e6b69636164,rev?*
G04 #@! TF.SameCoordinates,Original*
G04 #@! TF.FileFunction,Soldermask,Top*
G04 #@! TF.FilePolarity,Negative*
%FSLAX46Y46*%
G04 Gerber Fmt 4.6, Leading zero omitted, Abs format (unit mm)*
G04 Created by KiCad (PCBNEW (6.0.7)) date 2022-10-21 23:47:13*
%MOMM*%
%LPD*%
G01*
G04 APERTURE LIST*
G04 Aperture macros list*
%AMRoundRect*
0 Rectangle with rounded corners*
0 $1 Rounding radius*
0 $2 $3 $4 $5 $6 $7 $8 $9 X,Y pos of 4 corners*
0 Add a 4 corners polygon primitive as box body*
4,1,4,$2,$3,$4,$5,$6,$7,$8,$9,$2,$3,0*
0 Add four circle primitives for the rounded corners*
1,1,$1+$1,$2,$3*
1,1,$1+$1,$4,$5*
1,1,$1+$1,$6,$7*
1,1,$1+$1,$8,$9*
0 Add four rect primitives between the rounded corners*
20,1,$1+$1,$2,$3,$4,$5,0*
20,1,$1+$1,$4,$5,$6,$7,0*
20,1,$1+$1,$6,$7,$8,$9,0*
20,1,$1+$1,$8,$9,$2,$3,0*%
G04 Aperture macros list end*
%ADD10C,3.200000*%
%ADD11RoundRect,0.160000X-0.197500X-0.160000X0.197500X-0.160000X0.197500X0.160000X-0.197500X0.160000X0*%
%ADD12RoundRect,0.150000X0.150000X0.625000X-0.150000X0.625000X-0.150000X-0.625000X0.150000X-0.625000X0*%
%ADD13RoundRect,0.250000X0.350000X0.650000X-0.350000X0.650000X-0.350000X-0.650000X0.350000X-0.650000X0*%
%ADD14RoundRect,0.160000X-0.222500X-0.160000X0.222500X-0.160000X0.222500X0.160000X-0.222500X0.160000X0*%
%ADD15R,1.350000X1.350000*%
%ADD16O,1.350000X1.350000*%
G04 APERTURE END LIST*
D10*
X5750000Y-30614100D03*
D11*
X1702500Y1650000D03*
X2897500Y1650000D03*
D10*
X5750000Y250000D03*
D12*
X13000000Y-28825000D03*
X12000000Y-28825000D03*
X11000000Y-28825000D03*
X10000000Y-28825000D03*
D13*
X8700000Y-31350000D03*
X14300000Y-31350000D03*
D10*
X25500000Y-30614100D03*
D14*
X-845000Y1650000D03*
X300000Y1650000D03*
D12*
X21250000Y-28825000D03*
X20250000Y-28825000D03*
X19250000Y-28825000D03*
X18250000Y-28825000D03*
X17250000Y-28825000D03*
D13*
X15950000Y-31350000D03*
X22550000Y-31350000D03*
D15*
X2000000Y0D03*
D16*
X0Y0D03*
X2000000Y-2000000D03*
X0Y-2000000D03*
X2000000Y-4000000D03*
X0Y-4000000D03*
X2000000Y-6000000D03*
X0Y-6000000D03*
X2000000Y-8000000D03*
X0Y-8000000D03*
X2000000Y-10000000D03*
X0Y-10000000D03*
X2000000Y-12000000D03*
X0Y-12000000D03*
X2000000Y-14000000D03*
X0Y-14000000D03*
X2000000Y-16000000D03*
X0Y-16000000D03*
X2000000Y-18000000D03*
X0Y-18000000D03*
X2000000Y-20000000D03*
X0Y-20000000D03*
X2000000Y-22000000D03*
X0Y-22000000D03*
X2000000Y-24000000D03*
X0Y-24000000D03*
M02*
