G04 #@! TF.GenerationSoftware,KiCad,Pcbnew,(6.0.7)*
G04 #@! TF.CreationDate,2022-10-09T17:58:56+08:00*
G04 #@! TF.ProjectId,pcb_front,7063625f-6672-46f6-9e74-2e6b69636164,rev?*
G04 #@! TF.SameCoordinates,Original*
G04 #@! TF.FileFunction,Legend,Bot*
G04 #@! TF.FilePolarity,Positive*
%FSLAX46Y46*%
G04 Gerber Fmt 4.6, Leading zero omitted, Abs format (unit mm)*
G04 Created by KiCad (PCBNEW (6.0.7)) date 2022-10-09 17:58:56*
%MOMM*%
%LPD*%
G01*
G04 APERTURE LIST*
%ADD10O,1.350000X1.350000*%
%ADD11R,1.350000X1.350000*%
%ADD12O,1.600000X1.600000*%
%ADD13R,1.600000X1.600000*%
G04 APERTURE END LIST*
%LPC*%
D10*
X140015000Y-113500000D03*
X142015000Y-113500000D03*
X140015000Y-111500000D03*
X142015000Y-111500000D03*
X140015000Y-109500000D03*
X142015000Y-109500000D03*
X140015000Y-107500000D03*
X142015000Y-107500000D03*
X140015000Y-105500000D03*
X142015000Y-105500000D03*
X140015000Y-103500000D03*
X142015000Y-103500000D03*
X140015000Y-101500000D03*
X142015000Y-101500000D03*
X140015000Y-99500000D03*
X142015000Y-99500000D03*
X140015000Y-97500000D03*
X142015000Y-97500000D03*
X140015000Y-95500000D03*
X142015000Y-95500000D03*
X140015000Y-93500000D03*
X142015000Y-93500000D03*
X140015000Y-91500000D03*
X142015000Y-91500000D03*
X140015000Y-89500000D03*
D11*
X142015000Y-89500000D03*
D12*
X153135000Y-91350000D03*
X153135000Y-93890000D03*
X153135000Y-96430000D03*
X153135000Y-98970000D03*
X153135000Y-101510000D03*
X153135000Y-104050000D03*
X153135000Y-106590000D03*
X153135000Y-109130000D03*
X153135000Y-111670000D03*
X145515000Y-111670000D03*
X145515000Y-109130000D03*
X145515000Y-106590000D03*
X145515000Y-104050000D03*
X145515000Y-101510000D03*
X145515000Y-98970000D03*
X145515000Y-96430000D03*
X145515000Y-93890000D03*
D13*
X145515000Y-91350000D03*
M02*
