G04 #@! TF.GenerationSoftware,KiCad,Pcbnew,(6.0.7)*
G04 #@! TF.CreationDate,2022-10-21T23:47:13+08:00*
G04 #@! TF.ProjectId,pcb_front,7063625f-6672-46f6-9e74-2e6b69636164,rev?*
G04 #@! TF.SameCoordinates,Original*
G04 #@! TF.FileFunction,Profile,NP*
%FSLAX46Y46*%
G04 Gerber Fmt 4.6, Leading zero omitted, Abs format (unit mm)*
G04 Created by KiCad (PCBNEW (6.0.7)) date 2022-10-21 23:47:13*
%MOMM*%
%LPD*%
G01*
G04 APERTURE LIST*
G04 #@! TA.AperFunction,Profile*
%ADD10C,0.200000*%
G04 #@! TD*
G04 APERTURE END LIST*
D10*
X9750000Y-6437500D02*
X8250000Y-6437500D01*
X23500000Y-20437500D02*
X8250000Y-20437500D01*
X25500000Y-32614060D02*
G75*
G03*
X27500000Y-30614063I0J2000000D01*
G01*
X-2250000Y-25250000D02*
G75*
G03*
X-1250000Y-26250000I999957J-43D01*
G01*
X-2250000Y1250000D02*
X-2250000Y-25250000D01*
X3750000Y-27250000D02*
G75*
G03*
X2750000Y-26250000I-1000040J-40D01*
G01*
X3750000Y-27250000D02*
X3750000Y-30614063D01*
X27500000Y-18187500D02*
G75*
G03*
X24000000Y-18187500I-1750000J0D01*
G01*
X8250000Y-9937500D02*
X9750000Y-9937500D01*
X24000000Y-18187500D02*
X24000000Y-19937500D01*
X9750000Y-9937500D02*
G75*
G03*
X9750000Y-6437500I0J1750000D01*
G01*
X7750000Y-19937500D02*
G75*
G03*
X8250000Y-20437500I500000J0D01*
G01*
X27500000Y-30614063D02*
X27500000Y-18187500D01*
X7750000Y250000D02*
G75*
G03*
X5750000Y2250000I-2000000J0D01*
G01*
X7750000Y-5937500D02*
G75*
G03*
X8250000Y-6437500I500000J0D01*
G01*
X8250000Y-9937500D02*
G75*
G03*
X7750000Y-10437500I0J-500000D01*
G01*
X-1250000Y-26250000D02*
X2750000Y-26250000D01*
X5750000Y2250000D02*
X-1250000Y2250000D01*
X23500000Y-20437500D02*
G75*
G03*
X24000000Y-19937500I0J500000D01*
G01*
X5750000Y-32614063D02*
X25500000Y-32614063D01*
X-1250000Y2250000D02*
G75*
G03*
X-2250000Y1250000I18J-1000018D01*
G01*
X7750000Y-19937500D02*
X7750000Y-10437500D01*
X7750000Y-5937500D02*
X7750000Y250000D01*
X3749997Y-30614063D02*
G75*
G03*
X5750000Y-32614063I2000003J3D01*
G01*
M02*
