%TF.GenerationSoftware,KiCad,Pcbnew,(6.0.7)*%
%TF.CreationDate,2022-10-09T17:58:59+08:00*%
%TF.ProjectId,pcb_front,7063625f-6672-46f6-9e74-2e6b69636164,rev?*%
%TF.SameCoordinates,Original*%
%TF.FileFunction,Drillmap*%
%TF.FilePolarity,Positive*%
%FSLAX45Y45*%
G04 Gerber Fmt 4.5, Leading zero omitted, Abs format (unit mm)*
G04 Created by KiCad (PCBNEW (6.0.7)) date 2022-10-09 17:58:59*
%MOMM*%
%LPD*%
G01*
G04 APERTURE LIST*
%ADD10C,0.100000*%
%ADD11C,0.200000*%
G04 APERTURE END LIST*
D10*
X16900000Y-8900000D02*
G75*
G03*
X16800000Y-8800000I-100000J0D01*
G01*
X16800000Y-11500000D02*
G75*
G03*
X16900000Y-11400000I0J100000D01*
G01*
X14000000Y-11500000D02*
X16800000Y-11500000D01*
X13900000Y-11400000D02*
G75*
G03*
X14000000Y-11500000I100000J0D01*
G01*
X16900000Y-8900000D02*
X16900000Y-11400000D01*
X14000000Y-8800000D02*
X16800000Y-8800000D01*
X14000000Y-8800000D02*
G75*
G03*
X13900000Y-8900000I0J-100000D01*
G01*
X13900000Y-11400000D02*
X13900000Y-8900000D01*
D11*
X14152619Y-11815476D02*
X14152619Y-11615476D01*
X14200238Y-11615476D01*
X14228809Y-11625000D01*
X14247857Y-11644048D01*
X14257381Y-11663095D01*
X14266905Y-11701190D01*
X14266905Y-11729762D01*
X14257381Y-11767857D01*
X14247857Y-11786905D01*
X14228809Y-11805952D01*
X14200238Y-11815476D01*
X14152619Y-11815476D01*
X14352619Y-11815476D02*
X14352619Y-11682143D01*
X14352619Y-11720238D02*
X14362143Y-11701190D01*
X14371667Y-11691667D01*
X14390714Y-11682143D01*
X14409762Y-11682143D01*
X14476428Y-11815476D02*
X14476428Y-11682143D01*
X14476428Y-11615476D02*
X14466905Y-11625000D01*
X14476428Y-11634524D01*
X14485952Y-11625000D01*
X14476428Y-11615476D01*
X14476428Y-11634524D01*
X14600238Y-11815476D02*
X14581190Y-11805952D01*
X14571667Y-11786905D01*
X14571667Y-11615476D01*
X14705000Y-11815476D02*
X14685952Y-11805952D01*
X14676428Y-11786905D01*
X14676428Y-11615476D01*
X14933571Y-11815476D02*
X14933571Y-11615476D01*
X15000238Y-11758333D01*
X15066905Y-11615476D01*
X15066905Y-11815476D01*
X15247857Y-11815476D02*
X15247857Y-11710714D01*
X15238333Y-11691667D01*
X15219286Y-11682143D01*
X15181190Y-11682143D01*
X15162143Y-11691667D01*
X15247857Y-11805952D02*
X15228809Y-11815476D01*
X15181190Y-11815476D01*
X15162143Y-11805952D01*
X15152619Y-11786905D01*
X15152619Y-11767857D01*
X15162143Y-11748809D01*
X15181190Y-11739286D01*
X15228809Y-11739286D01*
X15247857Y-11729762D01*
X15343095Y-11682143D02*
X15343095Y-11882143D01*
X15343095Y-11691667D02*
X15362143Y-11682143D01*
X15400238Y-11682143D01*
X15419286Y-11691667D01*
X15428809Y-11701190D01*
X15438333Y-11720238D01*
X15438333Y-11777381D01*
X15428809Y-11796428D01*
X15419286Y-11805952D01*
X15400238Y-11815476D01*
X15362143Y-11815476D01*
X15343095Y-11805952D01*
X15524048Y-11796428D02*
X15533571Y-11805952D01*
X15524048Y-11815476D01*
X15514524Y-11805952D01*
X15524048Y-11796428D01*
X15524048Y-11815476D01*
X15524048Y-11691667D02*
X15533571Y-11701190D01*
X15524048Y-11710714D01*
X15514524Y-11701190D01*
X15524048Y-11691667D01*
X15524048Y-11710714D01*
M02*
