%TF.GenerationSoftware,KiCad,Pcbnew,(6.0.7)*%
%TF.CreationDate,2022-10-22T00:01:00+08:00*%
%TF.ProjectId,pcb_rear,7063625f-7265-4617-922e-6b696361645f,rev?*%
%TF.SameCoordinates,Original*%
%TF.FileFunction,Legend,Bot*%
%TF.FilePolarity,Positive*%
%FSLAX46Y46*%
G04 Gerber Fmt 4.6, Leading zero omitted, Abs format (unit mm)*
G04 Created by KiCad (PCBNEW (6.0.7)) date 2022-10-22 00:01:00*
%MOMM*%
%LPD*%
G01*
G04 APERTURE LIST*
%ADD10C,0.200000*%
G04 APERTURE END LIST*
D10*
X-2804761Y-25873809D02*
X-2852380Y-25726666D01*
X-2852380Y-25481428D01*
X-2804761Y-25383333D01*
X-2757142Y-25334285D01*
X-2661904Y-25285238D01*
X-2566666Y-25285238D01*
X-2471428Y-25334285D01*
X-2423809Y-25383333D01*
X-2376190Y-25481428D01*
X-2328571Y-25677619D01*
X-2280952Y-25775714D01*
X-2233333Y-25824761D01*
X-2138095Y-25873809D01*
X-2042857Y-25873809D01*
X-1947619Y-25824761D01*
X-1900000Y-25775714D01*
X-1852380Y-25677619D01*
X-1852380Y-25432380D01*
X-1899999Y-25285238D01*
X-2566666Y-24892857D02*
X-2566666Y-24402380D01*
X-2852380Y-24990952D02*
X-1852380Y-24647619D01*
X-2852380Y-24304285D01*
X-2804761Y-24010000D02*
X-2852380Y-23862857D01*
X-2852380Y-23617619D01*
X-2804761Y-23519523D01*
X-2757142Y-23470476D01*
X-2661904Y-23421428D01*
X-2566666Y-23421428D01*
X-2471428Y-23470476D01*
X-2423809Y-23519523D01*
X-2376190Y-23617619D01*
X-2328571Y-23813809D01*
X-2280952Y-23911904D01*
X-2233333Y-23960952D01*
X-2138095Y-24010000D01*
X-2042857Y-24010000D01*
X-1947619Y-23960952D01*
X-1899999Y-23911904D01*
X-1852380Y-23813809D01*
X-1852380Y-23568571D01*
X-1899999Y-23421428D01*
X-2804761Y-22244285D02*
X-2852380Y-22097142D01*
X-2852380Y-21851904D01*
X-2804761Y-21753809D01*
X-2757142Y-21704761D01*
X-2661904Y-21655714D01*
X-2566666Y-21655714D01*
X-2471428Y-21704761D01*
X-2423809Y-21753809D01*
X-2376190Y-21851904D01*
X-2328571Y-22048095D01*
X-2280952Y-22146190D01*
X-2233333Y-22195238D01*
X-2138095Y-22244285D01*
X-2042857Y-22244285D01*
X-1947619Y-22195238D01*
X-1899999Y-22146190D01*
X-1852380Y-22048095D01*
X-1852380Y-21802857D01*
X-1899999Y-21655714D01*
X-2185714Y-21214285D02*
X-3185714Y-21214285D01*
X-2233333Y-21214285D02*
X-2185714Y-21116190D01*
X-2185714Y-20920000D01*
X-2233333Y-20821904D01*
X-2280952Y-20772857D01*
X-2376190Y-20723809D01*
X-2661904Y-20723809D01*
X-2757142Y-20772857D01*
X-2804761Y-20821904D01*
X-2852380Y-20920000D01*
X-2852380Y-21116190D01*
X-2804761Y-21214285D01*
X-2852380Y-19840952D02*
X-2328571Y-19840952D01*
X-2233333Y-19890000D01*
X-2185714Y-19988095D01*
X-2185714Y-20184285D01*
X-2233333Y-20282380D01*
X-2804761Y-19840952D02*
X-2852380Y-19939047D01*
X-2852380Y-20184285D01*
X-2804761Y-20282380D01*
X-2709523Y-20331428D01*
X-2614285Y-20331428D01*
X-2519047Y-20282380D01*
X-2471428Y-20184285D01*
X-2471428Y-19939047D01*
X-2423809Y-19840952D01*
X-2804761Y-18909047D02*
X-2852380Y-19007142D01*
X-2852380Y-19203333D01*
X-2804761Y-19301428D01*
X-2757142Y-19350476D01*
X-2661904Y-19399523D01*
X-2376190Y-19399523D01*
X-2280952Y-19350476D01*
X-2233333Y-19301428D01*
X-2185714Y-19203333D01*
X-2185714Y-19007142D01*
X-2233333Y-18909047D01*
X-2804761Y-18075238D02*
X-2852380Y-18173333D01*
X-2852380Y-18369523D01*
X-2804761Y-18467619D01*
X-2709523Y-18516666D01*
X-2328571Y-18516666D01*
X-2233333Y-18467619D01*
X-2185714Y-18369523D01*
X-2185714Y-18173333D01*
X-2233333Y-18075238D01*
X-2328571Y-18026190D01*
X-2423809Y-18026190D01*
X-2519047Y-18516666D01*
X-2852380Y-17094285D02*
X-2852380Y-17584761D01*
X-1852380Y-17584761D01*
X-2852380Y-16309523D02*
X-2328571Y-16309523D01*
X-2233333Y-16358571D01*
X-2185714Y-16456666D01*
X-2185714Y-16652857D01*
X-2233333Y-16750952D01*
X-2804761Y-16309523D02*
X-2852380Y-16407619D01*
X-2852380Y-16652857D01*
X-2804761Y-16750952D01*
X-2709523Y-16800000D01*
X-2614285Y-16800000D01*
X-2519047Y-16750952D01*
X-2471428Y-16652857D01*
X-2471428Y-16407619D01*
X-2423809Y-16309523D01*
X-2852380Y-15819047D02*
X-1852380Y-15819047D01*
X-2233333Y-15819047D02*
X-2185714Y-15720952D01*
X-2185714Y-15524761D01*
X-2233333Y-15426666D01*
X-2280952Y-15377619D01*
X-2376190Y-15328571D01*
X-2661904Y-15328571D01*
X-2757142Y-15377619D01*
X-2804761Y-15426666D01*
X-2852380Y-15524761D01*
X-2852380Y-15720952D01*
X-2804761Y-15819047D01*
X-1947619Y-14151428D02*
X-1899999Y-14102380D01*
X-1852380Y-14004285D01*
X-1852380Y-13759047D01*
X-1899999Y-13660952D01*
X-1947619Y-13611904D01*
X-2042857Y-13562857D01*
X-2138095Y-13562857D01*
X-2280952Y-13611904D01*
X-2852380Y-14200476D01*
X-2852380Y-13562857D01*
X-1852380Y-12925238D02*
X-1852380Y-12827142D01*
X-1899999Y-12729047D01*
X-1947619Y-12680000D01*
X-2042857Y-12630952D01*
X-2233333Y-12581904D01*
X-2471428Y-12581904D01*
X-2661904Y-12630952D01*
X-2757142Y-12680000D01*
X-2804761Y-12729047D01*
X-2852380Y-12827142D01*
X-2852380Y-12925238D01*
X-2804761Y-13023333D01*
X-2757142Y-13072380D01*
X-2661904Y-13121428D01*
X-2471428Y-13170476D01*
X-2233333Y-13170476D01*
X-2042857Y-13121428D01*
X-1947619Y-13072380D01*
X-1899999Y-13023333D01*
X-1852380Y-12925238D01*
X-1947619Y-12189523D02*
X-1899999Y-12140476D01*
X-1852380Y-12042380D01*
X-1852380Y-11797142D01*
X-1899999Y-11699047D01*
X-1947619Y-11650000D01*
X-2042857Y-11600952D01*
X-2138095Y-11600952D01*
X-2280952Y-11650000D01*
X-2852380Y-12238571D01*
X-2852380Y-11600952D01*
X-1852380Y-11257619D02*
X-1852380Y-10620000D01*
X-2233333Y-10963333D01*
X-2233333Y-10816190D01*
X-2280952Y-10718095D01*
X-2328571Y-10669047D01*
X-2423809Y-10620000D01*
X-2661904Y-10620000D01*
X-2757142Y-10669047D01*
X-2804761Y-10718095D01*
X-2852380Y-10816190D01*
X-2852380Y-11110476D01*
X-2804761Y-11208571D01*
X-2757142Y-11257619D01*
%TO.C,G\u002A\u002A\u002A*%
G36*
X-2334908Y-2080026D02*
G01*
X-2478003Y-2247202D01*
X-2623305Y-2416942D01*
X-2769136Y-2587284D01*
X-2913819Y-2756271D01*
X-3055673Y-2921941D01*
X-3193022Y-3082336D01*
X-3324187Y-3235494D01*
X-3447490Y-3379457D01*
X-3561252Y-3512264D01*
X-3663795Y-3631956D01*
X-3753441Y-3736572D01*
X-3828511Y-3824153D01*
X-3897143Y-3904383D01*
X-3992383Y-4016372D01*
X-4077907Y-4117747D01*
X-4152752Y-4207336D01*
X-4215954Y-4283969D01*
X-4266549Y-4346474D01*
X-4303573Y-4393678D01*
X-4326063Y-4424411D01*
X-4333054Y-4437500D01*
X-4329275Y-4449675D01*
X-4318503Y-4478979D01*
X-4318328Y-4479407D01*
X-4315550Y-4493637D01*
X-4326728Y-4498877D01*
X-4357241Y-4497729D01*
X-4405313Y-4493750D01*
X-4768689Y-3906250D01*
X-4839289Y-3792114D01*
X-4842123Y-3787533D01*
X-4924007Y-3655167D01*
X-5011844Y-3513192D01*
X-5100090Y-3370569D01*
X-5186032Y-3231682D01*
X-5199798Y-3209438D01*
X-5084308Y-3209438D01*
X-5084149Y-3211569D01*
X-5075697Y-3230732D01*
X-5056957Y-3265165D01*
X-5030474Y-3310772D01*
X-4998794Y-3363461D01*
X-4964463Y-3419135D01*
X-4930026Y-3473702D01*
X-4898027Y-3523066D01*
X-4871014Y-3563133D01*
X-4851531Y-3589809D01*
X-4842123Y-3598999D01*
X-4841463Y-3598448D01*
X-4828702Y-3584894D01*
X-4800584Y-3554004D01*
X-4758079Y-3506871D01*
X-4702155Y-3444584D01*
X-4633782Y-3368236D01*
X-4553929Y-3278916D01*
X-4463566Y-3177716D01*
X-4363661Y-3065727D01*
X-4255184Y-2944039D01*
X-4139104Y-2813745D01*
X-4016390Y-2675934D01*
X-3888012Y-2531699D01*
X-3754939Y-2382129D01*
X-3618140Y-2228316D01*
X-3478585Y-2071351D01*
X-3337242Y-1912324D01*
X-3195081Y-1752328D01*
X-3053072Y-1592452D01*
X-2912183Y-1433789D01*
X-2773384Y-1277428D01*
X-2637643Y-1124461D01*
X-2505931Y-975978D01*
X-2379217Y-833072D01*
X-2258469Y-696832D01*
X-2144657Y-568350D01*
X-2038751Y-448718D01*
X-1941719Y-339024D01*
X-1854531Y-240362D01*
X-1778157Y-153822D01*
X-1713564Y-80494D01*
X-1661724Y-21470D01*
X-1623604Y22159D01*
X-1600174Y49302D01*
X-1592404Y58869D01*
X-1593877Y58912D01*
X-1612178Y54568D01*
X-1646715Y44624D01*
X-1691729Y30715D01*
X-1744702Y15230D01*
X-1789357Y6812D01*
X-1835209Y4855D01*
X-1894012Y8041D01*
X-1991550Y9941D01*
X-2094482Y-126D01*
X-2189576Y-16392D01*
X-3635413Y-1608259D01*
X-3671754Y-1648272D01*
X-3825386Y-1817471D01*
X-3974254Y-1981490D01*
X-4117497Y-2139376D01*
X-4254254Y-2290179D01*
X-4383665Y-2432947D01*
X-4504867Y-2566730D01*
X-4617001Y-2690575D01*
X-4719206Y-2803532D01*
X-4810621Y-2904649D01*
X-4890385Y-2992974D01*
X-4957636Y-3067558D01*
X-5011516Y-3127447D01*
X-5051161Y-3171691D01*
X-5075712Y-3199338D01*
X-5084308Y-3209438D01*
X-5199798Y-3209438D01*
X-5266960Y-3100912D01*
X-5340162Y-2982641D01*
X-5402927Y-2881250D01*
X-5428807Y-2839390D01*
X-5485527Y-2747227D01*
X-5537346Y-2662454D01*
X-5582878Y-2587375D01*
X-5620735Y-2524295D01*
X-5649531Y-2475519D01*
X-5667880Y-2443351D01*
X-5674394Y-2430096D01*
X-5669399Y-2423779D01*
X-5648240Y-2400195D01*
X-5611242Y-2360018D01*
X-5559205Y-2304093D01*
X-5492929Y-2233269D01*
X-5413213Y-2148390D01*
X-5320857Y-2050304D01*
X-5216662Y-1939857D01*
X-5101428Y-1817896D01*
X-4975954Y-1685267D01*
X-4841040Y-1542817D01*
X-4697487Y-1391392D01*
X-4546094Y-1231838D01*
X-4387661Y-1065003D01*
X-4222989Y-891733D01*
X-4052877Y-712874D01*
X-3878125Y-529273D01*
X-3773427Y-419313D01*
X-3597615Y-234659D01*
X-3425402Y-53780D01*
X-3257699Y122370D01*
X-3095414Y292835D01*
X-2939458Y456659D01*
X-2790738Y612887D01*
X-2788166Y615589D01*
X-1614217Y615589D01*
X-1574729Y609793D01*
X-1572902Y609558D01*
X-1539910Y609546D01*
X-1490414Y613899D01*
X-1431695Y621665D01*
X-1371035Y631893D01*
X-1315716Y643633D01*
X-1287682Y650430D01*
X-1306665Y685848D01*
X-1099508Y685848D01*
X-1089071Y682212D01*
X-1063516Y685020D01*
X-1031063Y692411D01*
X-999935Y702523D01*
X-978353Y713492D01*
X-964156Y724220D01*
X-952203Y732801D01*
X-951841Y733484D01*
X-956072Y747935D01*
X-968430Y774382D01*
X-988704Y813588D01*
X-1043856Y753669D01*
X-1070716Y723578D01*
X-1091402Y698523D01*
X-1099503Y686053D01*
X-1099508Y685848D01*
X-1306665Y685848D01*
X-1312591Y696905D01*
X-1317389Y706095D01*
X-1334210Y749576D01*
X-1334058Y785869D01*
X-1317271Y824136D01*
X-1307842Y841782D01*
X-1303930Y864889D01*
X-1314789Y892250D01*
X-1332535Y926119D01*
X-1443560Y803684D01*
X-1447902Y798896D01*
X-1492163Y750091D01*
X-1532534Y705582D01*
X-1564714Y670111D01*
X-1584401Y648419D01*
X-1614217Y615589D01*
X-2788166Y615589D01*
X-2650165Y760564D01*
X-2518648Y898734D01*
X-2397096Y1026442D01*
X-2286419Y1142734D01*
X-2187526Y1246652D01*
X-2101326Y1337242D01*
X-2028728Y1413549D01*
X-1970643Y1474618D01*
X-1927978Y1519492D01*
X-1901645Y1547217D01*
X-1848733Y1602341D01*
X-1786953Y1664258D01*
X-1738904Y1708862D01*
X-1703320Y1737312D01*
X-1678932Y1750764D01*
X-1672564Y1752801D01*
X-1644883Y1759930D01*
X-1631306Y1760473D01*
X-1631266Y1760427D01*
X-1624592Y1747877D01*
X-1608225Y1715466D01*
X-1583413Y1665711D01*
X-1551405Y1601129D01*
X-1513448Y1524239D01*
X-1470789Y1437557D01*
X-1424677Y1343602D01*
X-1222567Y931250D01*
X-1154154Y1004652D01*
X-1130960Y1029260D01*
X-1103334Y1055964D01*
X-1082557Y1069609D01*
X-1062589Y1073657D01*
X-1037388Y1071570D01*
X-1022292Y1069968D01*
X-990151Y1072830D01*
X-967580Y1088792D01*
X-954613Y1100941D01*
X-926839Y1110918D01*
X-897018Y1098326D01*
X-862499Y1062500D01*
X-839292Y1036157D01*
X-809463Y1016750D01*
X-776068Y1016714D01*
X-731294Y1034375D01*
X-712941Y1043717D01*
X-695429Y1057618D01*
X-690751Y1077414D01*
X-694478Y1112500D01*
X-700174Y1140933D01*
X-714746Y1191827D01*
X-733068Y1241721D01*
X-738854Y1255957D01*
X-752605Y1301458D01*
X-750332Y1330362D01*
X-730974Y1345574D01*
X-693469Y1350000D01*
X-678669Y1351116D01*
X-661663Y1357063D01*
X-642392Y1370820D01*
X-617541Y1395334D01*
X-583798Y1433553D01*
X-537849Y1488424D01*
X-493443Y1542515D01*
X-462256Y1582304D01*
X-443025Y1610333D01*
X-433579Y1630246D01*
X-431745Y1645687D01*
X-435348Y1660299D01*
X-441592Y1675472D01*
X-457344Y1711838D01*
X-478006Y1758781D01*
X-384097Y1758781D01*
X-381461Y1740510D01*
X-369594Y1712705D01*
X-360822Y1691129D01*
X-363318Y1660970D01*
X-366396Y1653551D01*
X-361975Y1638646D01*
X-336942Y1624769D01*
X-327447Y1620409D01*
X-287397Y1591454D01*
X-257193Y1553023D01*
X-239528Y1511021D01*
X-237095Y1471349D01*
X-252589Y1439910D01*
X-253507Y1438972D01*
X-260050Y1423080D01*
X-246339Y1403482D01*
X-238852Y1396358D01*
X-223389Y1389046D01*
X-208108Y1400446D01*
X-207498Y1401117D01*
X-194383Y1415836D01*
X-166085Y1447732D01*
X-123789Y1495468D01*
X-68681Y1557702D01*
X-1946Y1633097D01*
X75231Y1720313D01*
X161665Y1818010D01*
X256170Y1924850D01*
X357563Y2039492D01*
X464657Y2160599D01*
X576267Y2286830D01*
X755236Y2489257D01*
X969181Y2731246D01*
X1167152Y2955170D01*
X1349477Y3161398D01*
X1516487Y3350305D01*
X1668508Y3522261D01*
X1805870Y3677637D01*
X1928902Y3816807D01*
X2037932Y3940141D01*
X2133288Y4048011D01*
X2215300Y4140790D01*
X2284295Y4218848D01*
X2340603Y4282558D01*
X2384553Y4332291D01*
X2416472Y4368419D01*
X2436690Y4391314D01*
X2445534Y4401347D01*
X2450135Y4408237D01*
X2452775Y4421819D01*
X2449778Y4443114D01*
X2440169Y4475972D01*
X2422970Y4524240D01*
X2397204Y4591767D01*
X2386519Y4619021D01*
X2363601Y4675125D01*
X2344043Y4719862D01*
X2329643Y4749215D01*
X2322201Y4759169D01*
X2320581Y4757713D01*
X2305000Y4741329D01*
X2273495Y4707275D01*
X2226659Y4656204D01*
X2165083Y4588770D01*
X2089359Y4505625D01*
X2000078Y4407423D01*
X1897832Y4294816D01*
X1783213Y4168458D01*
X1656813Y4029003D01*
X1519223Y3877102D01*
X1371035Y3713410D01*
X1212840Y3538579D01*
X1045231Y3353264D01*
X868798Y3158116D01*
X684135Y2953788D01*
X491831Y2740936D01*
X292480Y2520210D01*
X86673Y2292265D01*
X-125000Y2057753D01*
X-151279Y2028572D01*
X-213169Y1959330D01*
X-268588Y1896610D01*
X-315463Y1842803D01*
X-351722Y1800301D01*
X-375291Y1771496D01*
X-384097Y1758781D01*
X-478006Y1758781D01*
X-481040Y1765674D01*
X-511417Y1834136D01*
X-547211Y1914377D01*
X-587159Y2003550D01*
X-629998Y2098809D01*
X-668459Y2184452D01*
X-707625Y2272292D01*
X-742279Y2350670D01*
X-771256Y2416923D01*
X-793394Y2468392D01*
X-807529Y2502416D01*
X-812500Y2516333D01*
X-812407Y2516942D01*
X-802565Y2531827D01*
X-778836Y2560277D01*
X-744548Y2598455D01*
X-703030Y2642523D01*
X-681799Y2664698D01*
X-643338Y2705040D01*
X-590025Y2761060D01*
X-523081Y2831471D01*
X-443726Y2914988D01*
X-353179Y3010325D01*
X-252661Y3116195D01*
X-143391Y3231312D01*
X-26589Y3354391D01*
X96524Y3484145D01*
X224730Y3619289D01*
X356807Y3758536D01*
X491536Y3900600D01*
X627698Y4044195D01*
X764071Y4188035D01*
X899437Y4330834D01*
X1032575Y4471306D01*
X1162266Y4608165D01*
X1287288Y4740125D01*
X1406424Y4865900D01*
X1518452Y4984203D01*
X1622152Y5093750D01*
X1685441Y5160501D01*
X1777689Y5257157D01*
X1855291Y5337384D01*
X1919643Y5402435D01*
X1972137Y5453565D01*
X2014169Y5492029D01*
X2047133Y5519080D01*
X2072423Y5535974D01*
X2091434Y5543965D01*
X2105558Y5544307D01*
X2116192Y5538255D01*
X2116949Y5536973D01*
X2125104Y5518154D01*
X2141103Y5478767D01*
X2164105Y5420993D01*
X2193268Y5347016D01*
X2227749Y5259017D01*
X2266707Y5159180D01*
X2309300Y5049686D01*
X2354685Y4932719D01*
X2402021Y4810461D01*
X2450465Y4685094D01*
X2499176Y4558802D01*
X2547312Y4433765D01*
X2594030Y4312168D01*
X2638488Y4196193D01*
X2679846Y4088021D01*
X2717259Y3989836D01*
X2749887Y3903820D01*
X2776888Y3832156D01*
X2797419Y3777026D01*
X2810638Y3740613D01*
X2815704Y3725099D01*
X2809006Y3710312D01*
X2779593Y3700099D01*
X2776953Y3699495D01*
X2767214Y3694952D01*
X2754010Y3685405D01*
X2736292Y3669674D01*
X2713012Y3646579D01*
X2683122Y3614938D01*
X2645573Y3573571D01*
X2599317Y3521297D01*
X2543305Y3456936D01*
X2476489Y3379307D01*
X2397821Y3287230D01*
X2306252Y3179523D01*
X2200734Y3055006D01*
X2080219Y2912500D01*
X1939336Y2745790D01*
X1736449Y2505710D01*
X1548807Y2283674D01*
X1375875Y2079044D01*
X1217112Y1891186D01*
X1071982Y1719461D01*
X939946Y1563233D01*
X820466Y1421867D01*
X713005Y1294725D01*
X617023Y1181171D01*
X531983Y1080568D01*
X457347Y992280D01*
X392577Y915670D01*
X337135Y850102D01*
X290482Y794939D01*
X252081Y749544D01*
X221393Y713282D01*
X197881Y685516D01*
X181006Y665608D01*
X170230Y652923D01*
X165016Y646824D01*
X161326Y642334D01*
X152540Y620797D01*
X160595Y592940D01*
X164042Y585271D01*
X168764Y568630D01*
X158724Y563321D01*
X128860Y564865D01*
X82563Y568750D01*
X-110158Y977503D01*
X-223389Y1217660D01*
X-302880Y1386256D01*
X-357690Y1318971D01*
X-358382Y1318120D01*
X-385670Y1282839D01*
X-405098Y1254459D01*
X-412500Y1239051D01*
X-416904Y1228311D01*
X-434805Y1210083D01*
X-447957Y1194917D01*
X-453408Y1169724D01*
X-452301Y1127421D01*
X-447492Y1061093D01*
X-396901Y1064921D01*
X-346311Y1068750D01*
X-154865Y668750D01*
X-131480Y619849D01*
X-84953Y522113D01*
X-47844Y443135D01*
X-19095Y380317D01*
X2350Y331061D01*
X17550Y292770D01*
X27562Y262847D01*
X33443Y238693D01*
X36250Y217712D01*
X37040Y197305D01*
X37123Y190758D01*
X41449Y143467D01*
X54609Y99483D01*
X79887Y47305D01*
X91309Y25456D01*
X118357Y-29429D01*
X147981Y-92629D01*
X175555Y-154395D01*
X188833Y-184693D01*
X209412Y-228656D01*
X223768Y-253372D01*
X233665Y-261586D01*
X240866Y-256043D01*
X242608Y-252234D01*
X247681Y-222886D01*
X246340Y-185671D01*
X239785Y-136796D01*
X282393Y-144790D01*
X308268Y-148331D01*
X322010Y-143488D01*
X325000Y-125999D01*
X328354Y-108971D01*
X342449Y-92520D01*
X343011Y-92294D01*
X354474Y-75936D01*
X354459Y-39788D01*
X356388Y9158D01*
X379134Y56218D01*
X425183Y97613D01*
X455418Y114866D01*
X488831Y122879D01*
X534182Y121976D01*
X568651Y117077D01*
X614830Y100203D01*
X641574Y74239D01*
X646410Y40974D01*
X644851Y28327D01*
X651722Y15464D01*
X676904Y12500D01*
X706255Y8754D01*
X737670Y-3007D01*
X761787Y-12255D01*
X787331Y-3007D01*
X803091Y3515D01*
X838529Y10066D01*
X880774Y12555D01*
X921950Y11022D01*
X954183Y5508D01*
X969596Y-3947D01*
X969831Y-4625D01*
X968265Y-27034D01*
X956781Y-57072D01*
X943478Y-91276D01*
X937497Y-125000D01*
X934132Y-140749D01*
X916202Y-175681D01*
X886447Y-215625D01*
X877465Y-225942D01*
X847305Y-256186D01*
X822158Y-271044D01*
X795129Y-275000D01*
X769840Y-279573D01*
X734315Y-303458D01*
X709398Y-342508D01*
X700000Y-390744D01*
X695497Y-425932D01*
X676193Y-453522D01*
X640941Y-462500D01*
X619915Y-467742D01*
X600000Y-493750D01*
X598854Y-496724D01*
X591932Y-510187D01*
X580652Y-518515D01*
X559853Y-522939D01*
X524376Y-524690D01*
X469060Y-525000D01*
X438091Y-525276D01*
X392766Y-526867D01*
X361596Y-529558D01*
X350000Y-532985D01*
X354369Y-545804D01*
X367454Y-577178D01*
X387196Y-622339D01*
X411510Y-676727D01*
X438312Y-735782D01*
X465519Y-794943D01*
X491045Y-849651D01*
X512807Y-895345D01*
X528719Y-927466D01*
X536699Y-941453D01*
X544279Y-940048D01*
X561169Y-922417D01*
X581795Y-891453D01*
X587722Y-882114D01*
X614537Y-846226D01*
X653302Y-799532D01*
X699766Y-747035D01*
X749679Y-693741D01*
X811783Y-627196D01*
X869786Y-558194D01*
X920648Y-488141D01*
X971113Y-408345D01*
X1026601Y-321623D01*
X1100880Y-222204D01*
X1189286Y-120855D01*
X1238497Y-66079D01*
X1282266Y-11429D01*
X1732015Y-11429D01*
X1736765Y-22236D01*
X1760308Y-25000D01*
X1774201Y-23446D01*
X1801679Y-11133D01*
X1832256Y15236D01*
X1867838Y57794D01*
X1910333Y118671D01*
X1961648Y200000D01*
X1992685Y249696D01*
X2028599Y304844D01*
X2060663Y351756D01*
X2084440Y383791D01*
X2099858Y403982D01*
X2118000Y437114D01*
X2118936Y461916D01*
X2112303Y477214D01*
X2101922Y487500D01*
X2098672Y485972D01*
X2080593Y471300D01*
X2051613Y444398D01*
X2016237Y409375D01*
X1968819Y355078D01*
X1912179Y277308D01*
X1856036Y187500D01*
X1850500Y177976D01*
X1818538Y123685D01*
X1790380Y76950D01*
X1768897Y42484D01*
X1756965Y25000D01*
X1745807Y11192D01*
X1732015Y-11429D01*
X1282266Y-11429D01*
X1325570Y42640D01*
X1396474Y150000D01*
X1450201Y234000D01*
X1511274Y312706D01*
X1585153Y391560D01*
X1696124Y501870D01*
X1886339Y522289D01*
X1932617Y527376D01*
X1993165Y534770D01*
X2034001Y541223D01*
X2058400Y547440D01*
X2069636Y554124D01*
X2070982Y561979D01*
X2069183Y567315D01*
X2058677Y594209D01*
X2041822Y634921D01*
X2021296Y682933D01*
X1977183Y784617D01*
X2114953Y954808D01*
X2153610Y1002164D01*
X2194410Y1051186D01*
X2227653Y1090061D01*
X2250656Y1115661D01*
X2260737Y1124857D01*
X2263201Y1121770D01*
X2274238Y1099878D01*
X2292362Y1059739D01*
X2316149Y1004629D01*
X2344170Y937821D01*
X2375000Y862591D01*
X2384280Y839617D01*
X2416312Y759626D01*
X2441183Y699197D01*
X2461508Y655791D01*
X2479902Y626868D01*
X2498977Y609889D01*
X2521347Y602316D01*
X2549628Y601608D01*
X2586433Y605226D01*
X2634375Y610631D01*
X2640918Y611273D01*
X2683527Y614703D01*
X2713606Y615829D01*
X2725000Y614396D01*
X2721750Y609286D01*
X2705130Y588736D01*
X2677596Y556614D01*
X2642740Y517164D01*
X2626070Y498508D01*
X2594533Y462185D01*
X2576191Y437356D01*
X2568519Y418939D01*
X2568991Y401849D01*
X2575081Y381006D01*
X2589683Y336761D01*
X2625462Y384005D01*
X2641189Y403504D01*
X2674095Y441569D01*
X2715086Y487056D01*
X2758745Y533878D01*
X2856250Y636506D01*
X3057844Y655753D01*
X3100112Y659718D01*
X3167852Y665776D01*
X3226081Y670621D01*
X3269675Y673835D01*
X3293514Y675000D01*
X3327590Y675000D01*
X3288795Y630815D01*
X3276783Y616666D01*
X3257746Y591602D01*
X3250430Y577690D01*
X3250788Y577026D01*
X3264299Y566116D01*
X3294686Y544697D01*
X3338307Y515130D01*
X3391522Y479779D01*
X3450686Y441004D01*
X3512160Y401169D01*
X3572301Y362636D01*
X3627466Y327768D01*
X3674014Y298925D01*
X3708303Y278472D01*
X3726690Y268770D01*
X3731331Y267395D01*
X3745329Y273217D01*
X3754401Y300126D01*
X3755946Y306258D01*
X3772930Y342173D01*
X3798889Y375811D01*
X3825629Y396514D01*
X3878391Y412876D01*
X3940998Y406749D01*
X4012765Y378125D01*
X4035296Y365177D01*
X4086282Y321237D01*
X4115609Y266493D01*
X4125000Y198181D01*
X4125000Y198112D01*
X4122311Y158457D01*
X4110943Y131905D01*
X4085931Y106847D01*
X4076721Y98851D01*
X4057125Y79403D01*
X4051556Y69481D01*
X4056674Y65950D01*
X4080108Y50648D01*
X4119759Y25089D01*
X4172650Y-8817D01*
X4235806Y-49159D01*
X4306250Y-94028D01*
X4352177Y-123265D01*
X4418344Y-165478D01*
X4475342Y-201952D01*
X4520187Y-230772D01*
X4549893Y-250024D01*
X4561478Y-257792D01*
X4562278Y-264528D01*
X4552976Y-287566D01*
X4533475Y-320232D01*
X4507144Y-356411D01*
X4478794Y-391965D01*
X4236272Y-237668D01*
X4199986Y-214580D01*
X4131624Y-171071D01*
X4070828Y-132362D01*
X4020979Y-100607D01*
X3985461Y-77961D01*
X3967655Y-66578D01*
X3953409Y-59263D01*
X3939915Y-61220D01*
X3923835Y-77289D01*
X3899796Y-110988D01*
X3899216Y-111834D01*
X3855041Y-162929D01*
X3806350Y-197299D01*
X3790268Y-205346D01*
X3766396Y-221448D01*
X3756844Y-241212D01*
X3755460Y-273898D01*
X3755655Y-280247D01*
X3758947Y-303846D01*
X3768144Y-328645D01*
X3785756Y-359158D01*
X3814288Y-399902D01*
X3856250Y-455391D01*
X3862221Y-463130D01*
X3908165Y-520528D01*
X3943306Y-559581D01*
X3970041Y-582729D01*
X3990764Y-592413D01*
X4009766Y-598468D01*
X4036357Y-622484D01*
X4043095Y-659574D01*
X4029170Y-707316D01*
X4013549Y-733338D01*
X3982518Y-758162D01*
X3947668Y-759680D01*
X3912102Y-737102D01*
X3894803Y-713759D01*
X3892618Y-687743D01*
X3904911Y-650000D01*
X3903061Y-632931D01*
X3887549Y-599962D01*
X3860006Y-557142D01*
X3807355Y-483034D01*
X3791410Y-522111D01*
X3782568Y-538812D01*
X3760883Y-574707D01*
X3728929Y-625207D01*
X3688785Y-687077D01*
X3642533Y-757080D01*
X3592252Y-831980D01*
X3557033Y-883900D01*
X3507249Y-956453D01*
X3467937Y-1012128D01*
X3437074Y-1053461D01*
X3412637Y-1082989D01*
X3392602Y-1103249D01*
X3374946Y-1116778D01*
X3357645Y-1126112D01*
X3343917Y-1132059D01*
X3309545Y-1144601D01*
X3286494Y-1149726D01*
X3274151Y-1155449D01*
X3250599Y-1177126D01*
X3224519Y-1209375D01*
X3206775Y-1235753D01*
X3197242Y-1253486D01*
X3200525Y-1255086D01*
X3200580Y-1255045D01*
X3221472Y-1248412D01*
X3253323Y-1246557D01*
X3287169Y-1248870D01*
X3314049Y-1254741D01*
X3325001Y-1263559D01*
X3326818Y-1267437D01*
X3344130Y-1281982D01*
X3373819Y-1299398D01*
X3380853Y-1303087D01*
X3434250Y-1341572D01*
X3465086Y-1388233D01*
X3475000Y-1445436D01*
X3475645Y-1466814D01*
X3481221Y-1492424D01*
X3493750Y-1500000D01*
X3505981Y-1506117D01*
X3512500Y-1531250D01*
X3512474Y-1533829D01*
X3506056Y-1556444D01*
X3484375Y-1562692D01*
X3464842Y-1564291D01*
X3436302Y-1578022D01*
X3413230Y-1610688D01*
X3409272Y-1620783D01*
X3408090Y-1635819D01*
X3411719Y-1657261D01*
X3421188Y-1688413D01*
X3437527Y-1732581D01*
X3461763Y-1793071D01*
X3494926Y-1873188D01*
X3500539Y-1886604D01*
X3530632Y-1957109D01*
X3558131Y-2019282D01*
X3581328Y-2069418D01*
X3598518Y-2103809D01*
X3607994Y-2118750D01*
X3609241Y-2120036D01*
X3620555Y-2139490D01*
X3639046Y-2177900D01*
X3663285Y-2231776D01*
X3691847Y-2297626D01*
X3723304Y-2371959D01*
X3756232Y-2451285D01*
X3789202Y-2532111D01*
X3820788Y-2610946D01*
X3849565Y-2684300D01*
X3874105Y-2748681D01*
X3892981Y-2800598D01*
X3904769Y-2836560D01*
X3908040Y-2853074D01*
X3900700Y-2868374D01*
X3883020Y-2899640D01*
X3857618Y-2942537D01*
X3827062Y-2992929D01*
X3793923Y-3046679D01*
X3760770Y-3099653D01*
X3730171Y-3147715D01*
X3704698Y-3186729D01*
X3686919Y-3212559D01*
X3679403Y-3221070D01*
X3675321Y-3213894D01*
X3662494Y-3186452D01*
X3642751Y-3141854D01*
X3617488Y-3083445D01*
X3588101Y-3014569D01*
X3555986Y-2938573D01*
X3522538Y-2858801D01*
X3489154Y-2778597D01*
X3457229Y-2701308D01*
X3428160Y-2630277D01*
X3403341Y-2568851D01*
X3384169Y-2520374D01*
X3372040Y-2488192D01*
X3368350Y-2475649D01*
X3365886Y-2465128D01*
X3354658Y-2433910D01*
X3335496Y-2384770D01*
X3309479Y-2320378D01*
X3277687Y-2243403D01*
X3241201Y-2156514D01*
X3201100Y-2062378D01*
X3157073Y-1959865D01*
X3119289Y-1872514D01*
X3088921Y-1803534D01*
X3064748Y-1750556D01*
X3045548Y-1711211D01*
X3030102Y-1683128D01*
X3017187Y-1663939D01*
X3005584Y-1651274D01*
X2994071Y-1642764D01*
X2981427Y-1636038D01*
X2972524Y-1631613D01*
X2955465Y-1622339D01*
X2940114Y-1613993D01*
X2919095Y-1600287D01*
X2905826Y-1597226D01*
X2884170Y-1609160D01*
X2851370Y-1639072D01*
X2799460Y-1690982D01*
X3008246Y-1674042D01*
X3092329Y-1871659D01*
X3103089Y-1897181D01*
X3133089Y-1971588D01*
X3154437Y-2030148D01*
X3166368Y-2070652D01*
X3168119Y-2090889D01*
X3167331Y-2092755D01*
X3159967Y-2101397D01*
X3144604Y-2107132D01*
X3116994Y-2110537D01*
X3072888Y-2112191D01*
X3008038Y-2112671D01*
X2948411Y-2113288D01*
X2893599Y-2114918D01*
X2851728Y-2117305D01*
X2828826Y-2120196D01*
X2813206Y-2121974D01*
X2797662Y-2111814D01*
X2782589Y-2082525D01*
X2778708Y-2073519D01*
X2765974Y-2047827D01*
X2757968Y-2037500D01*
X2757824Y-2037546D01*
X2748499Y-2048552D01*
X2727264Y-2076771D01*
X2696322Y-2119088D01*
X2657875Y-2172387D01*
X2614126Y-2233553D01*
X2567277Y-2299471D01*
X2520140Y-2366163D01*
X2519529Y-2367027D01*
X2473085Y-2433104D01*
X2430147Y-2494587D01*
X2392917Y-2548362D01*
X2363598Y-2591314D01*
X2344392Y-2620326D01*
X2337500Y-2632285D01*
X2337791Y-2632736D01*
X2352899Y-2634724D01*
X2387563Y-2635079D01*
X2437112Y-2633839D01*
X2496876Y-2631040D01*
X2507865Y-2630440D01*
X2565119Y-2627977D01*
X2610532Y-2627133D01*
X2639736Y-2627926D01*
X2648363Y-2630377D01*
X2635954Y-2636810D01*
X2603296Y-2647996D01*
X2556842Y-2661512D01*
X2502448Y-2675885D01*
X2445971Y-2689638D01*
X2393269Y-2701296D01*
X2350197Y-2709384D01*
X2322613Y-2712427D01*
X2316024Y-2712568D01*
X2285153Y-2716959D01*
X2268401Y-2725567D01*
X2269155Y-2728265D01*
X2287043Y-2732506D01*
X2327560Y-2735009D01*
X2391477Y-2735810D01*
X2479569Y-2734942D01*
X2542304Y-2734196D01*
X2603482Y-2734179D01*
X2651019Y-2734970D01*
X2681130Y-2736500D01*
X2690031Y-2738702D01*
X2681318Y-2742563D01*
X2652215Y-2752068D01*
X2608343Y-2764875D01*
X2555211Y-2779327D01*
X2512491Y-2790122D01*
X2466113Y-2799947D01*
X2420962Y-2806434D01*
X2370483Y-2810246D01*
X2308121Y-2812047D01*
X2227324Y-2812500D01*
X2025477Y-2812500D01*
X2017882Y-2842762D01*
X2014096Y-2858911D01*
X2011604Y-2883325D01*
X2019192Y-2896621D01*
X2040367Y-2899921D01*
X2078635Y-2894345D01*
X2137500Y-2881016D01*
X2163908Y-2874977D01*
X2213706Y-2865514D01*
X2266364Y-2858568D01*
X2327417Y-2853624D01*
X2402399Y-2850171D01*
X2496843Y-2847694D01*
X2507214Y-2847490D01*
X2579183Y-2846525D01*
X2640120Y-2846477D01*
X2686535Y-2847291D01*
X2714939Y-2848910D01*
X2721843Y-2851281D01*
X2713145Y-2854788D01*
X2683096Y-2864529D01*
X2638635Y-2877670D01*
X2585812Y-2892384D01*
X2565044Y-2897919D01*
X2521757Y-2908392D01*
X2481524Y-2915778D01*
X2438736Y-2920604D01*
X2387782Y-2923398D01*
X2323053Y-2924688D01*
X2238937Y-2925000D01*
X2012500Y-2925000D01*
X2012500Y-2987500D01*
X2013700Y-3020144D01*
X2019459Y-3043310D01*
X2031250Y-3050000D01*
X2039870Y-3051362D01*
X2050001Y-3062084D01*
X2052563Y-3068712D01*
X2068347Y-3090253D01*
X2093751Y-3117917D01*
X2116714Y-3143382D01*
X2133167Y-3174110D01*
X2137500Y-3210523D01*
X2141976Y-3243656D01*
X2157663Y-3296663D01*
X2182555Y-3357815D01*
X2215217Y-3442514D01*
X2243675Y-3562500D01*
X2249721Y-3606433D01*
X2252702Y-3650715D01*
X2248309Y-3678863D01*
X2235525Y-3695684D01*
X2213334Y-3705986D01*
X2199128Y-3718500D01*
X2187075Y-3748700D01*
X2175828Y-3800220D01*
X2169592Y-3832605D01*
X2160471Y-3866311D01*
X2150343Y-3883005D01*
X2137072Y-3887500D01*
X2135042Y-3887368D01*
X2112939Y-3875413D01*
X2091762Y-3850000D01*
X2080002Y-3832591D01*
X2057683Y-3816464D01*
X2022745Y-3812500D01*
X2016707Y-3812423D01*
X1981774Y-3806063D01*
X1962500Y-3787500D01*
X1942957Y-3768799D01*
X1905811Y-3762500D01*
X1900491Y-3762555D01*
X1873495Y-3764920D01*
X1862500Y-3769702D01*
X1862791Y-3770916D01*
X1869267Y-3786770D01*
X1884463Y-3820891D01*
X1908664Y-3873894D01*
X1942156Y-3946397D01*
X1985225Y-4039018D01*
X2038157Y-4152372D01*
X2101238Y-4287077D01*
X2174754Y-4443750D01*
X2194493Y-4485868D01*
X2230301Y-4562567D01*
X2266269Y-4639902D01*
X2296983Y-4706250D01*
X2316821Y-4748756D01*
X2338524Y-4793989D01*
X2354928Y-4826721D01*
X2363515Y-4841819D01*
X2365477Y-4843139D01*
X2380069Y-4835635D01*
X2403618Y-4809201D01*
X2434257Y-4766565D01*
X2470123Y-4710459D01*
X2509350Y-4643610D01*
X2550073Y-4568750D01*
X2581464Y-4511899D01*
X2629127Y-4432309D01*
X2679657Y-4353689D01*
X2726289Y-4286861D01*
X2741458Y-4265885D01*
X2798802Y-4179347D01*
X2856011Y-4083051D01*
X2906558Y-3987823D01*
X2913900Y-3973121D01*
X2996950Y-3824529D01*
X3086308Y-3694713D01*
X3117436Y-3652455D01*
X3168125Y-3577729D01*
X3217183Y-3499404D01*
X3257327Y-3428801D01*
X3276214Y-3393828D01*
X3310861Y-3334949D01*
X3337763Y-3297374D01*
X3356250Y-3282096D01*
X3363631Y-3280848D01*
X3393500Y-3278645D01*
X3438759Y-3276990D01*
X3494362Y-3275892D01*
X3555260Y-3275358D01*
X3616405Y-3275397D01*
X3672750Y-3276017D01*
X3719246Y-3277226D01*
X3750846Y-3279032D01*
X3762500Y-3281443D01*
X3758780Y-3295347D01*
X3744059Y-3328984D01*
X3720390Y-3376232D01*
X3690186Y-3432784D01*
X3655857Y-3494336D01*
X3619815Y-3556583D01*
X3584471Y-3615221D01*
X3552238Y-3665945D01*
X3525527Y-3704449D01*
X3522477Y-3708563D01*
X3482884Y-3766489D01*
X3438571Y-3837963D01*
X3394633Y-3914471D01*
X3356163Y-3987500D01*
X3342343Y-4014687D01*
X3288851Y-4111601D01*
X3230840Y-4206063D01*
X3174703Y-4287500D01*
X3172983Y-4289820D01*
X3112018Y-4379001D01*
X3051145Y-4480053D01*
X2997441Y-4581250D01*
X2976117Y-4623140D01*
X2927355Y-4710765D01*
X2875422Y-4795241D01*
X2826374Y-4866468D01*
X2824004Y-4869656D01*
X2789736Y-4916499D01*
X2762396Y-4955262D01*
X2744705Y-4981996D01*
X2739385Y-4992750D01*
X2746456Y-4998383D01*
X2763769Y-5009180D01*
X2779949Y-5010917D01*
X2798177Y-5001375D01*
X2821640Y-4978333D01*
X2853521Y-4939573D01*
X2897004Y-4882875D01*
X2908450Y-4867588D01*
X3003129Y-4726256D01*
X3089379Y-4570765D01*
X3146847Y-4464230D01*
X3213368Y-4354972D01*
X3280037Y-4258265D01*
X3320740Y-4200854D01*
X3372377Y-4122304D01*
X3421661Y-4041981D01*
X3461897Y-3970480D01*
X3492727Y-3914798D01*
X3539444Y-3836793D01*
X3588644Y-3760154D01*
X3633704Y-3695480D01*
X3666414Y-3648928D01*
X3714984Y-3573596D01*
X3762058Y-3494516D01*
X3800893Y-3422688D01*
X3874379Y-3276626D01*
X3927815Y-3268904D01*
X3931479Y-3268430D01*
X3967430Y-3265961D01*
X4020743Y-3264485D01*
X4084839Y-3264115D01*
X4153135Y-3264967D01*
X4325020Y-3268750D01*
X4251820Y-3418750D01*
X4177736Y-3553805D01*
X4083322Y-3690270D01*
X4073104Y-3703483D01*
X3985334Y-3832536D01*
X3901581Y-3984020D01*
X3862395Y-4057847D01*
X3813900Y-4141680D01*
X3764138Y-4221355D01*
X3718754Y-4287500D01*
X3675834Y-4349865D01*
X3627403Y-4426876D01*
X3580458Y-4507281D01*
X3540950Y-4581250D01*
X3502596Y-4653147D01*
X3455749Y-4733511D01*
X3407249Y-4810740D01*
X3363051Y-4875000D01*
X3355999Y-4884719D01*
X3312020Y-4949448D01*
X3263585Y-5026314D01*
X3216098Y-5106516D01*
X3174966Y-5181250D01*
X3157963Y-5213544D01*
X3125334Y-5274496D01*
X3096171Y-5327704D01*
X3073137Y-5368344D01*
X3058895Y-5391589D01*
X3054494Y-5398157D01*
X3042675Y-5424148D01*
X3048381Y-5440881D01*
X3052961Y-5444201D01*
X3073243Y-5441257D01*
X3101044Y-5416117D01*
X3136617Y-5368457D01*
X3180215Y-5297950D01*
X3232092Y-5204270D01*
X3239784Y-5189964D01*
X3302690Y-5081037D01*
X3371786Y-4973338D01*
X3439927Y-4878080D01*
X3460896Y-4850132D01*
X3553520Y-4713012D01*
X3632819Y-4572843D01*
X3646636Y-4546258D01*
X3728199Y-4407196D01*
X3818727Y-4278608D01*
X3900111Y-4164363D01*
X3999797Y-3988938D01*
X4077684Y-3847962D01*
X4186058Y-3689370D01*
X4234760Y-3621745D01*
X4285709Y-3545229D01*
X4332853Y-3469228D01*
X4370152Y-3403136D01*
X4443750Y-3262521D01*
X4671972Y-3262511D01*
X4900193Y-3262500D01*
X4824894Y-3412713D01*
X4778250Y-3498774D01*
X4717014Y-3597527D01*
X4654865Y-3684588D01*
X4615568Y-3737953D01*
X4543215Y-3850639D01*
X4475186Y-3975000D01*
X4390299Y-4127282D01*
X4281722Y-4286344D01*
X4193568Y-4412772D01*
X4091570Y-4592594D01*
X4046895Y-4676546D01*
X3977539Y-4791600D01*
X3905625Y-4895740D01*
X3850532Y-4974175D01*
X3780157Y-5087283D01*
X3717825Y-5201990D01*
X3679391Y-5274186D01*
X3629223Y-5360606D01*
X3576258Y-5445567D01*
X3526951Y-5518366D01*
X3493508Y-5565403D01*
X3459735Y-5615172D01*
X3436241Y-5654382D01*
X3420228Y-5688378D01*
X3408900Y-5722507D01*
X3399460Y-5762116D01*
X3379351Y-5856250D01*
X3414416Y-5931303D01*
X3417507Y-5937978D01*
X3435847Y-5983121D01*
X3442552Y-6015841D01*
X3439318Y-6043803D01*
X3429154Y-6081250D01*
X2952682Y-6073976D01*
X2938550Y-6073760D01*
X3001314Y-6208755D01*
X3026081Y-6260477D01*
X3049733Y-6306873D01*
X3068467Y-6340466D01*
X3079624Y-6356250D01*
X3080521Y-6357048D01*
X3093979Y-6375963D01*
X3113233Y-6410260D01*
X3134429Y-6453125D01*
X3145668Y-6477024D01*
X3163278Y-6510754D01*
X3177947Y-6528845D01*
X3194451Y-6536145D01*
X3217567Y-6537500D01*
X3228634Y-6537253D01*
X3253048Y-6532001D01*
X3272175Y-6515528D01*
X3293912Y-6482102D01*
X3326378Y-6426704D01*
X3300000Y-6375000D01*
X3273623Y-6323297D01*
X3306089Y-6267899D01*
X3338554Y-6212500D01*
X3418569Y-6212500D01*
X3449489Y-6212936D01*
X3483244Y-6216352D01*
X3503866Y-6224901D01*
X3518622Y-6240625D01*
X3530131Y-6255674D01*
X3540764Y-6260597D01*
X3551202Y-6246875D01*
X3556274Y-6240089D01*
X3572798Y-6230872D01*
X3602718Y-6226260D01*
X3651792Y-6225000D01*
X3698181Y-6225796D01*
X3725896Y-6229217D01*
X3740049Y-6236779D01*
X3746379Y-6250000D01*
X3753395Y-6267137D01*
X3766644Y-6273610D01*
X3779521Y-6256250D01*
X3786298Y-6246702D01*
X3808983Y-6237428D01*
X3812878Y-6235853D01*
X3826099Y-6222185D01*
X3846859Y-6193515D01*
X3875880Y-6148678D01*
X3913883Y-6086505D01*
X3961590Y-6005830D01*
X4019721Y-5905485D01*
X4088998Y-5784303D01*
X4185002Y-5615553D01*
X4323411Y-5372283D01*
X4450309Y-5149288D01*
X4566210Y-4945687D01*
X4671633Y-4760598D01*
X4767092Y-4593137D01*
X4853104Y-4442424D01*
X4930186Y-4307575D01*
X4998853Y-4187708D01*
X5059623Y-4081942D01*
X5113010Y-3989393D01*
X5159532Y-3909179D01*
X5199704Y-3840419D01*
X5234044Y-3782230D01*
X5263067Y-3733729D01*
X5287289Y-3694035D01*
X5307227Y-3662265D01*
X5323396Y-3637537D01*
X5336314Y-3618968D01*
X5346497Y-3605677D01*
X5354460Y-3596781D01*
X5360720Y-3591397D01*
X5365794Y-3588644D01*
X5370197Y-3587639D01*
X5374445Y-3587500D01*
X5377602Y-3587570D01*
X5384990Y-3588937D01*
X5392505Y-3593471D01*
X5400960Y-3603004D01*
X5411168Y-3619363D01*
X5423942Y-3644381D01*
X5440094Y-3679885D01*
X5460439Y-3727707D01*
X5485788Y-3789677D01*
X5516954Y-3867623D01*
X5554751Y-3963377D01*
X5599992Y-4078768D01*
X5653489Y-4215625D01*
X5677123Y-4276127D01*
X5722545Y-4392432D01*
X5764933Y-4501003D01*
X5803420Y-4599620D01*
X5837141Y-4686061D01*
X5865228Y-4758103D01*
X5886816Y-4813526D01*
X5901037Y-4850108D01*
X5907024Y-4865625D01*
X5909335Y-4873835D01*
X5903673Y-4884737D01*
X5878485Y-4887500D01*
X5878224Y-4887501D01*
X5873117Y-4887951D01*
X5867646Y-4889937D01*
X5861239Y-4894484D01*
X5853327Y-4902620D01*
X5843340Y-4915370D01*
X5830709Y-4933760D01*
X5814865Y-4958817D01*
X5795236Y-4991568D01*
X5771254Y-5033038D01*
X5742349Y-5084254D01*
X5707951Y-5146242D01*
X5667490Y-5220028D01*
X5620397Y-5306639D01*
X5566102Y-5407102D01*
X5504035Y-5522441D01*
X5433627Y-5653684D01*
X5354307Y-5801857D01*
X5265507Y-5967987D01*
X5166656Y-6153099D01*
X5057184Y-6358220D01*
X4936523Y-6584375D01*
X4894881Y-6662447D01*
X4793851Y-6852002D01*
X4696352Y-7035127D01*
X4603021Y-7210619D01*
X4514491Y-7377278D01*
X4431398Y-7533902D01*
X4354377Y-7679290D01*
X4284063Y-7812241D01*
X4243179Y-7889703D01*
X4221090Y-7931554D01*
X4166094Y-8036026D01*
X4119709Y-8124458D01*
X4082572Y-8195648D01*
X4055315Y-8248394D01*
X4038575Y-8281495D01*
X4032987Y-8293750D01*
X4035108Y-8303102D01*
X4043699Y-8328125D01*
X4045847Y-8334189D01*
X4042835Y-8346784D01*
X4020088Y-8350000D01*
X3998263Y-8351736D01*
X3987500Y-8356701D01*
X3987899Y-8358989D01*
X3995538Y-8379539D01*
X4011153Y-8415584D01*
X4032457Y-8462342D01*
X4057163Y-8515030D01*
X4082983Y-8568864D01*
X4107630Y-8619061D01*
X4128816Y-8660839D01*
X4144255Y-8689413D01*
X4151660Y-8700000D01*
X4152080Y-8699917D01*
X4158874Y-8692394D01*
X4172025Y-8671758D01*
X4192247Y-8636698D01*
X4220254Y-8585907D01*
X4256756Y-8518075D01*
X4302469Y-8431894D01*
X4358103Y-8326055D01*
X4424373Y-8199249D01*
X4439203Y-8170845D01*
X4465481Y-8120561D01*
X4501810Y-8051071D01*
X4547397Y-7963891D01*
X4601448Y-7860540D01*
X4663169Y-7742534D01*
X4731767Y-7611391D01*
X4806448Y-7468628D01*
X4886417Y-7315763D01*
X4970883Y-7154312D01*
X5059050Y-6985794D01*
X5150126Y-6811725D01*
X5243316Y-6633624D01*
X5281863Y-6559959D01*
X5385786Y-6361425D01*
X5478976Y-6183538D01*
X5562048Y-6025170D01*
X5635619Y-5885193D01*
X5700306Y-5762480D01*
X5756725Y-5655902D01*
X5805492Y-5564332D01*
X5847225Y-5486642D01*
X5882539Y-5421704D01*
X5912052Y-5368390D01*
X5936378Y-5325572D01*
X5956136Y-5292122D01*
X5971942Y-5266914D01*
X5984411Y-5248817D01*
X5994161Y-5236706D01*
X6001808Y-5229451D01*
X6007969Y-5225925D01*
X6013259Y-5225000D01*
X6020302Y-5225602D01*
X6027824Y-5228782D01*
X6036012Y-5236422D01*
X6045712Y-5250405D01*
X6057770Y-5272612D01*
X6073034Y-5304924D01*
X6092349Y-5349222D01*
X6116562Y-5407387D01*
X6146519Y-5481301D01*
X6183066Y-5572844D01*
X6227051Y-5683898D01*
X6279319Y-5816345D01*
X6291977Y-5848459D01*
X6336602Y-5961880D01*
X6378082Y-6067626D01*
X6415552Y-6163471D01*
X6448148Y-6247193D01*
X6475006Y-6316565D01*
X6495260Y-6369365D01*
X6508046Y-6403366D01*
X6512501Y-6416345D01*
X6505859Y-6421833D01*
X6483395Y-6425000D01*
X6480462Y-6425188D01*
X6470889Y-6428890D01*
X6459801Y-6439093D01*
X6445878Y-6458090D01*
X6427799Y-6488178D01*
X6404242Y-6531650D01*
X6373886Y-6590802D01*
X6335411Y-6667929D01*
X6287495Y-6765326D01*
X6274981Y-6790836D01*
X6242333Y-6857263D01*
X6199972Y-6943330D01*
X6148808Y-7047198D01*
X6089747Y-7167025D01*
X6023699Y-7300970D01*
X5951570Y-7447195D01*
X5874269Y-7603857D01*
X5792703Y-7769116D01*
X5707781Y-7941132D01*
X5620411Y-8118064D01*
X5531501Y-8298072D01*
X5441958Y-8479315D01*
X5360951Y-8643340D01*
X5264727Y-8838444D01*
X5178821Y-9012991D01*
X5102746Y-9168000D01*
X5036014Y-9304493D01*
X4978139Y-9423492D01*
X4928632Y-9526016D01*
X4887006Y-9613087D01*
X4852774Y-9685727D01*
X4825449Y-9744955D01*
X4804542Y-9791793D01*
X4789567Y-9827263D01*
X4780037Y-9852384D01*
X4775462Y-9868179D01*
X4775358Y-9875668D01*
X4777385Y-9879541D01*
X4786446Y-9907098D01*
X4775877Y-9921101D01*
X4743441Y-9925000D01*
X4730375Y-9924603D01*
X4702949Y-9917127D01*
X4688323Y-9896875D01*
X4685009Y-9889053D01*
X4671316Y-9858795D01*
X4650055Y-9813033D01*
X4623414Y-9756455D01*
X4593580Y-9693750D01*
X4536415Y-9574208D01*
X4509895Y-9518750D01*
X4452844Y-9632944D01*
X4395793Y-9747137D01*
X4416647Y-9791083D01*
X4420544Y-9799615D01*
X4435986Y-9847928D01*
X4438779Y-9897744D01*
X4428154Y-9953547D01*
X4403344Y-10019822D01*
X4363582Y-10101052D01*
X4289664Y-10241439D01*
X4313462Y-10273845D01*
X4316388Y-10278231D01*
X4331892Y-10305356D01*
X4355571Y-10349942D01*
X4385443Y-10408142D01*
X4419525Y-10476111D01*
X4455833Y-10550000D01*
X4574407Y-10793750D01*
X4532673Y-10797528D01*
X4530102Y-10797766D01*
X4518129Y-10799612D01*
X4507207Y-10804286D01*
X4495839Y-10814246D01*
X4482523Y-10831946D01*
X4465761Y-10859844D01*
X4444053Y-10900395D01*
X4415900Y-10956055D01*
X4379803Y-11029281D01*
X4334261Y-11122528D01*
X4323246Y-11145097D01*
X4293497Y-11205987D01*
X4253946Y-11286879D01*
X4205390Y-11386145D01*
X4148624Y-11502158D01*
X4084447Y-11633289D01*
X4013655Y-11777910D01*
X3937046Y-11934394D01*
X3855415Y-12101113D01*
X3769561Y-12276438D01*
X3680280Y-12458743D01*
X3588368Y-12646398D01*
X3494624Y-12837777D01*
X3399843Y-13031250D01*
X3316809Y-13200727D01*
X3195229Y-13448843D01*
X3083904Y-13676014D01*
X2982393Y-13883167D01*
X2890257Y-14071229D01*
X2807054Y-14241127D01*
X2732345Y-14393786D01*
X2665690Y-14530134D01*
X2606648Y-14651098D01*
X2554779Y-14757603D01*
X2509644Y-14850578D01*
X2470801Y-14930948D01*
X2437811Y-14999640D01*
X2410234Y-15057581D01*
X2387628Y-15105698D01*
X2369555Y-15144917D01*
X2355574Y-15176166D01*
X2345245Y-15200370D01*
X2338127Y-15218456D01*
X2333781Y-15231352D01*
X2331766Y-15239983D01*
X2331642Y-15245278D01*
X2332968Y-15248161D01*
X2335306Y-15249560D01*
X2338214Y-15250403D01*
X2341252Y-15251614D01*
X2343980Y-15254122D01*
X2349270Y-15261882D01*
X2360819Y-15285841D01*
X2352351Y-15297052D01*
X2321875Y-15299608D01*
X2317429Y-15299499D01*
X2308495Y-15298235D01*
X2299181Y-15294178D01*
X2288333Y-15285647D01*
X2274796Y-15270957D01*
X2257416Y-15248425D01*
X2235041Y-15216368D01*
X2206515Y-15173102D01*
X2170686Y-15116944D01*
X2126398Y-15046210D01*
X2072499Y-14959217D01*
X2032310Y-14893999D01*
X2007835Y-14854281D01*
X1931250Y-14729720D01*
X1901274Y-14680919D01*
X1835647Y-14573900D01*
X1799107Y-14514170D01*
X1888340Y-14514170D01*
X1892717Y-14522255D01*
X1907990Y-14547829D01*
X1931586Y-14586374D01*
X1960745Y-14633349D01*
X2032310Y-14747947D01*
X3141669Y-12529187D01*
X3153468Y-12505588D01*
X3299723Y-12212886D01*
X3434830Y-11942160D01*
X3558933Y-11693109D01*
X3672182Y-11465435D01*
X3774721Y-11258840D01*
X3866698Y-11073025D01*
X3948260Y-10907690D01*
X4019554Y-10762537D01*
X4080726Y-10637268D01*
X4131923Y-10531583D01*
X4173292Y-10445183D01*
X4204979Y-10377770D01*
X4227132Y-10329045D01*
X4239897Y-10298710D01*
X4243422Y-10286464D01*
X4236093Y-10272867D01*
X4218867Y-10262500D01*
X4215006Y-10261926D01*
X4192035Y-10250857D01*
X4188154Y-10248043D01*
X4163460Y-10230139D01*
X4160935Y-10227979D01*
X4133006Y-10193702D01*
X4125849Y-10154323D01*
X4138287Y-10103939D01*
X4142898Y-10091503D01*
X4146894Y-10079885D01*
X4148751Y-10072807D01*
X4148032Y-10071113D01*
X4144303Y-10075651D01*
X4137128Y-10087266D01*
X4126071Y-10106805D01*
X4110697Y-10135114D01*
X4090571Y-10173039D01*
X4065256Y-10221426D01*
X4034319Y-10281121D01*
X3997322Y-10352971D01*
X3953830Y-10437821D01*
X3903409Y-10536517D01*
X3845622Y-10649907D01*
X3780034Y-10778835D01*
X3706209Y-10924149D01*
X3623713Y-11086694D01*
X3532109Y-11267316D01*
X3430962Y-11466861D01*
X3319836Y-11686177D01*
X3198296Y-11926108D01*
X3065908Y-12187500D01*
X3039663Y-12239312D01*
X2975896Y-12365147D01*
X2909880Y-12495347D01*
X2843872Y-12625469D01*
X2780127Y-12751065D01*
X2720901Y-12867691D01*
X2668450Y-12970902D01*
X2625031Y-13056250D01*
X2598800Y-13107795D01*
X2550262Y-13203250D01*
X2493941Y-13314081D01*
X2431973Y-13436083D01*
X2366495Y-13565049D01*
X2299642Y-13696772D01*
X2233549Y-13827048D01*
X2170352Y-13951670D01*
X2158261Y-13975526D01*
X2103578Y-14083557D01*
X2052742Y-14184223D01*
X2006820Y-14275392D01*
X1966882Y-14354931D01*
X1933997Y-14420711D01*
X1909232Y-14470598D01*
X1893657Y-14502461D01*
X1888340Y-14514170D01*
X1799107Y-14514170D01*
X1774163Y-14473396D01*
X1718104Y-14381516D01*
X1668753Y-14300371D01*
X1627389Y-14232069D01*
X1595297Y-14178720D01*
X1573756Y-14142436D01*
X1564050Y-14125324D01*
X1560827Y-14117697D01*
X1559041Y-14108083D01*
X1560007Y-14095444D01*
X1564606Y-14077863D01*
X1573716Y-14053427D01*
X1588217Y-14020222D01*
X1608988Y-13976331D01*
X1636909Y-13919840D01*
X1672859Y-13848836D01*
X1717718Y-13761402D01*
X1772366Y-13655624D01*
X1837681Y-13529587D01*
X1935894Y-13340186D01*
X2041736Y-13136057D01*
X2146285Y-12934404D01*
X2248691Y-12736871D01*
X2348100Y-12545100D01*
X2443663Y-12360735D01*
X2534526Y-12185418D01*
X2619840Y-12020793D01*
X2698752Y-11868502D01*
X2770411Y-11730189D01*
X2833966Y-11607496D01*
X2888564Y-11502066D01*
X2933355Y-11415543D01*
X2967486Y-11349570D01*
X3003603Y-11279728D01*
X3122051Y-11050738D01*
X3229722Y-10842709D01*
X3327135Y-10654660D01*
X3414811Y-10485610D01*
X3493269Y-10334578D01*
X3563032Y-10200583D01*
X3624619Y-10082642D01*
X3678551Y-9979776D01*
X3725347Y-9891002D01*
X3765530Y-9815340D01*
X3799618Y-9751809D01*
X3822643Y-9709512D01*
X4051029Y-9709512D01*
X4051511Y-9711854D01*
X4059594Y-9733303D01*
X4075461Y-9769038D01*
X4096505Y-9813772D01*
X4120120Y-9862223D01*
X4143699Y-9909105D01*
X4164635Y-9949135D01*
X4180322Y-9977028D01*
X4188154Y-9987500D01*
X4192242Y-9986796D01*
X4203490Y-9972612D01*
X4205268Y-9948695D01*
X4196111Y-9926318D01*
X4179423Y-9901184D01*
X4163702Y-9866355D01*
X4154710Y-9833928D01*
X4155784Y-9813255D01*
X4159468Y-9809983D01*
X4182718Y-9802846D01*
X4217551Y-9800000D01*
X4259930Y-9794602D01*
X4290638Y-9779814D01*
X4304234Y-9758866D01*
X4296775Y-9734993D01*
X4292925Y-9731210D01*
X4270073Y-9721092D01*
X4228717Y-9713538D01*
X4165625Y-9707878D01*
X4137362Y-9706299D01*
X4092686Y-9705164D01*
X4062105Y-9706261D01*
X4051029Y-9709512D01*
X3822643Y-9709512D01*
X3828133Y-9699426D01*
X3851595Y-9657212D01*
X3870525Y-9624184D01*
X3885443Y-9599361D01*
X3896869Y-9581763D01*
X3905324Y-9570407D01*
X3911328Y-9564314D01*
X3915403Y-9562500D01*
X3922260Y-9562418D01*
X3933294Y-9559814D01*
X3935268Y-9549681D01*
X3927872Y-9526890D01*
X3910797Y-9486311D01*
X3884093Y-9424237D01*
X3741066Y-9427744D01*
X3598039Y-9431250D01*
X3272674Y-10045144D01*
X2481722Y-11537500D01*
X1365404Y-13643750D01*
X1387914Y-13683330D01*
X1391206Y-13689346D01*
X1402382Y-13715728D01*
X1403129Y-13730205D01*
X1394226Y-13734942D01*
X1366534Y-13737506D01*
X1335819Y-13732733D01*
X1315304Y-13721875D01*
X1307783Y-13711043D01*
X1287988Y-13680371D01*
X1258003Y-13632851D01*
X1219202Y-13570725D01*
X1172955Y-13496235D01*
X1120637Y-13411623D01*
X1063619Y-13319131D01*
X1040524Y-13281574D01*
X1003275Y-13221001D01*
X940976Y-13119474D01*
X878097Y-13016793D01*
X816008Y-12915200D01*
X793635Y-12878514D01*
X888340Y-12878514D01*
X894725Y-12889719D01*
X911428Y-12917013D01*
X935084Y-12954999D01*
X962345Y-12998373D01*
X989866Y-13041832D01*
X1014300Y-13080073D01*
X1032301Y-13107793D01*
X1040524Y-13119690D01*
X1042600Y-13118383D01*
X1054929Y-13100887D01*
X1076453Y-13065760D01*
X1105386Y-13016043D01*
X1139943Y-12954778D01*
X1178339Y-12885006D01*
X1218385Y-12811376D01*
X1276103Y-12705220D01*
X1342376Y-12583295D01*
X1416128Y-12447587D01*
X1496278Y-12300082D01*
X1581750Y-12142767D01*
X1671463Y-11977626D01*
X1764340Y-11806647D01*
X1859301Y-11631815D01*
X1955269Y-11455116D01*
X2051165Y-11278537D01*
X2145910Y-11104063D01*
X2238426Y-10933681D01*
X2327633Y-10769376D01*
X2412454Y-10613136D01*
X2491810Y-10466945D01*
X2564622Y-10332790D01*
X2629812Y-10212657D01*
X2686301Y-10108532D01*
X2733010Y-10022401D01*
X2768861Y-9956250D01*
X2810930Y-9878623D01*
X2861480Y-9785416D01*
X2912408Y-9691573D01*
X2959621Y-9604637D01*
X2999028Y-9532147D01*
X3025088Y-9483309D01*
X3053729Y-9427011D01*
X3075420Y-9381210D01*
X3088399Y-9349673D01*
X3090897Y-9336166D01*
X3075779Y-9325441D01*
X3037246Y-9308160D01*
X2989952Y-9293432D01*
X2943862Y-9284157D01*
X2908946Y-9283235D01*
X2904076Y-9283852D01*
X2896179Y-9284440D01*
X2889107Y-9285657D01*
X2881864Y-9289136D01*
X2873453Y-9296510D01*
X2862878Y-9309411D01*
X2849142Y-9329474D01*
X2831247Y-9358331D01*
X2808198Y-9397615D01*
X2778997Y-9448960D01*
X2742649Y-9513998D01*
X2698156Y-9594363D01*
X2644521Y-9691688D01*
X2580749Y-9807606D01*
X2505842Y-9943750D01*
X2493862Y-9965497D01*
X2465722Y-10016528D01*
X2427501Y-10085800D01*
X2380432Y-10171078D01*
X2325748Y-10270129D01*
X2264685Y-10380717D01*
X2198476Y-10500608D01*
X2128354Y-10627567D01*
X2055554Y-10759359D01*
X1981309Y-10893750D01*
X1935714Y-10976280D01*
X1861860Y-11109975D01*
X1790041Y-11240003D01*
X1721514Y-11364085D01*
X1657537Y-11479947D01*
X1599366Y-11585310D01*
X1548259Y-11677899D01*
X1505472Y-11755436D01*
X1472263Y-11815646D01*
X1449888Y-11856250D01*
X1425210Y-11901058D01*
X1387564Y-11969368D01*
X1341829Y-12052326D01*
X1290132Y-12146076D01*
X1234597Y-12246762D01*
X1177353Y-12350526D01*
X1120526Y-12453514D01*
X1109191Y-12474059D01*
X1058227Y-12566562D01*
X1011569Y-12651453D01*
X970516Y-12726355D01*
X936369Y-12788889D01*
X910424Y-12836678D01*
X893982Y-12867346D01*
X888340Y-12878514D01*
X793635Y-12878514D01*
X756083Y-12816937D01*
X699695Y-12724245D01*
X648216Y-12639366D01*
X603019Y-12564543D01*
X565476Y-12502017D01*
X536960Y-12454031D01*
X518844Y-12422826D01*
X512500Y-12410644D01*
X518160Y-12396571D01*
X534375Y-12364316D01*
X559200Y-12317629D01*
X590690Y-12260172D01*
X626896Y-12195604D01*
X630792Y-12188729D01*
X692615Y-12079649D01*
X764260Y-11953248D01*
X843382Y-11813665D01*
X927637Y-11665036D01*
X1014678Y-11511500D01*
X1102160Y-11357192D01*
X1187738Y-11206250D01*
X1234494Y-11123775D01*
X1350729Y-10918671D01*
X1462972Y-10720503D01*
X1570627Y-10530329D01*
X1673098Y-10349205D01*
X1769788Y-10178190D01*
X1860100Y-10018340D01*
X1943438Y-9870714D01*
X2019206Y-9736369D01*
X2086807Y-9616362D01*
X2145645Y-9511751D01*
X2195122Y-9423593D01*
X2234643Y-9352946D01*
X2263611Y-9300867D01*
X2281429Y-9268414D01*
X2287501Y-9256644D01*
X2284212Y-9253117D01*
X2265625Y-9249770D01*
X2263253Y-9249387D01*
X2247952Y-9236890D01*
X2225752Y-9205689D01*
X2195719Y-9154338D01*
X2187613Y-9139097D01*
X4438619Y-9139097D01*
X4443902Y-9157735D01*
X4456882Y-9190646D01*
X4474673Y-9231477D01*
X4494399Y-9274025D01*
X4513183Y-9312087D01*
X4528147Y-9339460D01*
X4536415Y-9349942D01*
X4536838Y-9349835D01*
X4539485Y-9347235D01*
X4544122Y-9340444D01*
X4551235Y-9328507D01*
X4561309Y-9310467D01*
X4574831Y-9285370D01*
X4592287Y-9252261D01*
X4614161Y-9210184D01*
X4640941Y-9158184D01*
X4673111Y-9095307D01*
X4711157Y-9020595D01*
X4755566Y-8933096D01*
X4806822Y-8831852D01*
X4865413Y-8715910D01*
X4931823Y-8584313D01*
X5006538Y-8436107D01*
X5090044Y-8270336D01*
X5182827Y-8086045D01*
X5285373Y-7882279D01*
X5398167Y-7658082D01*
X5521695Y-7412500D01*
X6260425Y-5943750D01*
X6171291Y-5722274D01*
X6104034Y-5851762D01*
X6080740Y-5896956D01*
X6048143Y-5960715D01*
X6008820Y-6037981D01*
X5965036Y-6124296D01*
X5919053Y-6215205D01*
X5873137Y-6306250D01*
X5862832Y-6326707D01*
X5821423Y-6408669D01*
X5783750Y-6482873D01*
X5751308Y-6546401D01*
X5725591Y-6596335D01*
X5708093Y-6629758D01*
X5700309Y-6643750D01*
X5698032Y-6647709D01*
X5685564Y-6671318D01*
X5663436Y-6714104D01*
X5632716Y-6773973D01*
X5594475Y-6848830D01*
X5549781Y-6936581D01*
X5499703Y-7035131D01*
X5445310Y-7142386D01*
X5387672Y-7256250D01*
X5362789Y-7305433D01*
X5305046Y-7419434D01*
X5250255Y-7527428D01*
X5199603Y-7627084D01*
X5154278Y-7716073D01*
X5115468Y-7792064D01*
X5084360Y-7852728D01*
X5062141Y-7895733D01*
X5050000Y-7918750D01*
X5048338Y-7921822D01*
X5033838Y-7949454D01*
X5009535Y-7996491D01*
X4976657Y-8060531D01*
X4936432Y-8139167D01*
X4890089Y-8229996D01*
X4838857Y-8330614D01*
X4783964Y-8438615D01*
X4726638Y-8551597D01*
X4710122Y-8584208D01*
X4654967Y-8693580D01*
X4603750Y-8795854D01*
X4557533Y-8888861D01*
X4517378Y-8970438D01*
X4484347Y-9038416D01*
X4459502Y-9090629D01*
X4443906Y-9124912D01*
X4438619Y-9139097D01*
X2187613Y-9139097D01*
X2156920Y-9081392D01*
X2141072Y-9050419D01*
X2113721Y-8995431D01*
X2105610Y-8978328D01*
X3039288Y-8978328D01*
X3041005Y-8980663D01*
X3060489Y-8984550D01*
X3097106Y-8986696D01*
X3145538Y-8986683D01*
X3166869Y-8986278D01*
X3215815Y-8986103D01*
X3253345Y-8987023D01*
X3272674Y-8988919D01*
X3283976Y-8982001D01*
X3305443Y-8954590D01*
X3335026Y-8908332D01*
X3371372Y-8845196D01*
X3382149Y-8825664D01*
X3412477Y-8769166D01*
X3432045Y-8728870D01*
X3442458Y-8700678D01*
X3445322Y-8680492D01*
X3442240Y-8664212D01*
X3428633Y-8640224D01*
X3404251Y-8618528D01*
X3391566Y-8610751D01*
X3369276Y-8597084D01*
X3334223Y-8561187D01*
X3319038Y-8522733D01*
X3326011Y-8485611D01*
X3333342Y-8468793D01*
X3334561Y-8455395D01*
X3331148Y-8458977D01*
X3317103Y-8480723D01*
X3293913Y-8519537D01*
X3263298Y-8572471D01*
X3226978Y-8636576D01*
X3186674Y-8708904D01*
X3161073Y-8755249D01*
X3122920Y-8824500D01*
X3089925Y-8884616D01*
X3063827Y-8932414D01*
X3046367Y-8964712D01*
X3039288Y-8978328D01*
X2105610Y-8978328D01*
X2092483Y-8950650D01*
X2079209Y-8920045D01*
X2075753Y-8907581D01*
X2081206Y-8905545D01*
X2106958Y-8899952D01*
X2148484Y-8892645D01*
X2200084Y-8884673D01*
X2318750Y-8867428D01*
X2396524Y-8901784D01*
X2474297Y-8936139D01*
X2574171Y-8758695D01*
X2639497Y-8642680D01*
X2721515Y-8497227D01*
X2792742Y-8371248D01*
X2853996Y-8263367D01*
X2906095Y-8172207D01*
X2949855Y-8096394D01*
X2959933Y-8079195D01*
X3254452Y-8079195D01*
X3259580Y-8091638D01*
X3273807Y-8121766D01*
X3295037Y-8165225D01*
X3321174Y-8217659D01*
X3331923Y-8239056D01*
X3358328Y-8290521D01*
X3377193Y-8321705D01*
X3391566Y-8334019D01*
X3404499Y-8328878D01*
X3419039Y-8307693D01*
X3438238Y-8271875D01*
X3439853Y-8268881D01*
X3463675Y-8236629D01*
X3487017Y-8225000D01*
X3501102Y-8223039D01*
X3518750Y-8212500D01*
X3520204Y-8211282D01*
X3540804Y-8206664D01*
X3582282Y-8203104D01*
X3641315Y-8200812D01*
X3714576Y-8200000D01*
X3772184Y-8199840D01*
X3828166Y-8198963D01*
X3865105Y-8197003D01*
X3886376Y-8193607D01*
X3895356Y-8188423D01*
X3895422Y-8181098D01*
X3890444Y-8169525D01*
X3876086Y-8137614D01*
X3854528Y-8090386D01*
X3827662Y-8031977D01*
X3797376Y-7966523D01*
X3790517Y-7951743D01*
X3783595Y-7936893D01*
X3759439Y-7885072D01*
X3736980Y-7838280D01*
X3721542Y-7809002D01*
X3711524Y-7794878D01*
X3705325Y-7793545D01*
X3701345Y-7802640D01*
X3697984Y-7819801D01*
X3696768Y-7825550D01*
X3686642Y-7858098D01*
X3669935Y-7902119D01*
X3649219Y-7951805D01*
X3627070Y-8001347D01*
X3606062Y-8044938D01*
X3588769Y-8076770D01*
X3577766Y-8091034D01*
X3577365Y-8091185D01*
X3560208Y-8092081D01*
X3523629Y-8091465D01*
X3472717Y-8089483D01*
X3412559Y-8086282D01*
X3405957Y-8085890D01*
X3347450Y-8082604D01*
X3299503Y-8080233D01*
X3266913Y-8078995D01*
X3254477Y-8079108D01*
X3254452Y-8079195D01*
X2959933Y-8079195D01*
X2986094Y-8034551D01*
X3015629Y-7985302D01*
X3039278Y-7947273D01*
X3057858Y-7919086D01*
X3072187Y-7899367D01*
X3083081Y-7886739D01*
X3091358Y-7879828D01*
X3097836Y-7877256D01*
X3102510Y-7876565D01*
X3120435Y-7871972D01*
X3122676Y-7860808D01*
X3111935Y-7834964D01*
X3109257Y-7829339D01*
X3101478Y-7818495D01*
X3088416Y-7812029D01*
X3065147Y-7809101D01*
X3026747Y-7808875D01*
X2968292Y-7810510D01*
X2965463Y-7810602D01*
X2904890Y-7811909D01*
X2860238Y-7810356D01*
X2822814Y-7804639D01*
X2783926Y-7793456D01*
X2736294Y-7776019D01*
X2734881Y-7775502D01*
X2632050Y-7736235D01*
X2607443Y-7740094D01*
X2503019Y-7756468D01*
X2373987Y-7776701D01*
X2263792Y-7737284D01*
X2153597Y-7697866D01*
X2025510Y-7716880D01*
X1897423Y-7735895D01*
X1801837Y-7698451D01*
X1706250Y-7661007D01*
X1571504Y-7675965D01*
X1526117Y-7680681D01*
X1478665Y-7684782D01*
X1445442Y-7686651D01*
X1431745Y-7685912D01*
X1426167Y-7677337D01*
X1410998Y-7650479D01*
X1389019Y-7609968D01*
X1383134Y-7598913D01*
X3714870Y-7598913D01*
X3717414Y-7618154D01*
X3728360Y-7647750D01*
X3749005Y-7693750D01*
X3783595Y-7768750D01*
X3816798Y-7703541D01*
X3830909Y-7674596D01*
X3844676Y-7642867D01*
X3850000Y-7625416D01*
X3849667Y-7623815D01*
X3835431Y-7615775D01*
X3806690Y-7612500D01*
X3805064Y-7612494D01*
X3769518Y-7606195D01*
X3749097Y-7585812D01*
X3745942Y-7580146D01*
X3734382Y-7567654D01*
X3723848Y-7576437D01*
X3719432Y-7583981D01*
X3714870Y-7598913D01*
X1383134Y-7598913D01*
X1362558Y-7560263D01*
X1333943Y-7505826D01*
X1305504Y-7451118D01*
X1279570Y-7400597D01*
X1258467Y-7358725D01*
X1244527Y-7329963D01*
X1240075Y-7318770D01*
X1247311Y-7316941D01*
X1274920Y-7312093D01*
X1318079Y-7305349D01*
X1371426Y-7297575D01*
X1499101Y-7279544D01*
X1596426Y-7315425D01*
X1611474Y-7320957D01*
X1653142Y-7335382D01*
X1685696Y-7343321D01*
X1717613Y-7345592D01*
X1757370Y-7343015D01*
X1813444Y-7336410D01*
X1933137Y-7321514D01*
X1934762Y-7318610D01*
X2702298Y-7318610D01*
X2705797Y-7340453D01*
X2718636Y-7371875D01*
X2736294Y-7412500D01*
X2836897Y-7412500D01*
X2851553Y-7412431D01*
X2895370Y-7411277D01*
X2925985Y-7408996D01*
X2937500Y-7405973D01*
X2937162Y-7404570D01*
X2929600Y-7386913D01*
X2914380Y-7354649D01*
X2894537Y-7313895D01*
X2873103Y-7270769D01*
X2853111Y-7231388D01*
X2837596Y-7201871D01*
X2829589Y-7188334D01*
X2824979Y-7187647D01*
X2809792Y-7197709D01*
X2800287Y-7204620D01*
X2772755Y-7212500D01*
X2768534Y-7213102D01*
X2747145Y-7228876D01*
X2725255Y-7262003D01*
X2708788Y-7295610D01*
X2702298Y-7318610D01*
X1934762Y-7318610D01*
X1997627Y-7206250D01*
X1961904Y-7137500D01*
X1947536Y-7109196D01*
X1931735Y-7071458D01*
X1928171Y-7043196D01*
X1936581Y-7016673D01*
X1956701Y-6984152D01*
X1977902Y-6956760D01*
X2001088Y-6941316D01*
X2032141Y-6937500D01*
X2034973Y-6937497D01*
X2061797Y-6935946D01*
X2068929Y-6928399D01*
X2061295Y-6910248D01*
X2054060Y-6897634D01*
X2043981Y-6890724D01*
X2031352Y-6903998D01*
X2030851Y-6904667D01*
X2014201Y-6916786D01*
X1984106Y-6923153D01*
X1934896Y-6925001D01*
X1853797Y-6925000D01*
X1831250Y-6875000D01*
X1821317Y-6853996D01*
X1806737Y-6834135D01*
X1785701Y-6826346D01*
X1748944Y-6825000D01*
X1712028Y-6823178D01*
X1705259Y-6820776D01*
X4059358Y-6820776D01*
X4077061Y-6824126D01*
X4116107Y-6825000D01*
X4120686Y-6825002D01*
X4159345Y-6826027D01*
X4182085Y-6831973D01*
X4197234Y-6847236D01*
X4213118Y-6876212D01*
X4221581Y-6892180D01*
X4235811Y-6915742D01*
X4243179Y-6923087D01*
X4246559Y-6917445D01*
X4260482Y-6892700D01*
X4283532Y-6851137D01*
X4314012Y-6795827D01*
X4350227Y-6729841D01*
X4390483Y-6656250D01*
X4406737Y-6626508D01*
X4441741Y-6562524D01*
X4486839Y-6480145D01*
X4540845Y-6381535D01*
X4602572Y-6268862D01*
X4670834Y-6144289D01*
X4744442Y-6009984D01*
X4822211Y-5868112D01*
X4902954Y-5720839D01*
X4985484Y-5570329D01*
X5068615Y-5418750D01*
X5141358Y-5286077D01*
X5218058Y-5146084D01*
X5290766Y-5013273D01*
X5358588Y-4889281D01*
X5420631Y-4775744D01*
X5476002Y-4674300D01*
X5523806Y-4586586D01*
X5563152Y-4514238D01*
X5593144Y-4458893D01*
X5612891Y-4422187D01*
X5621498Y-4405759D01*
X5623368Y-4401771D01*
X5629992Y-4383616D01*
X5631263Y-4364537D01*
X5626190Y-4338965D01*
X5613779Y-4301333D01*
X5593039Y-4246072D01*
X5578033Y-4207585D01*
X5560818Y-4165468D01*
X5548359Y-4137448D01*
X5542647Y-4128187D01*
X5540599Y-4131605D01*
X5528004Y-4153834D01*
X5504834Y-4195183D01*
X5472089Y-4253856D01*
X5430767Y-4328056D01*
X5381868Y-4415989D01*
X5326390Y-4515858D01*
X5265333Y-4625867D01*
X5199694Y-4744221D01*
X5130475Y-4869124D01*
X5071212Y-4976094D01*
X4987050Y-5127994D01*
X4899575Y-5285861D01*
X4810991Y-5445717D01*
X4723501Y-5603588D01*
X4639310Y-5755496D01*
X4560621Y-5897464D01*
X4489637Y-6025516D01*
X4428563Y-6135675D01*
X4425675Y-6140885D01*
X4367143Y-6246933D01*
X4312457Y-6346866D01*
X4262812Y-6438439D01*
X4219402Y-6519412D01*
X4183423Y-6587539D01*
X4156069Y-6640580D01*
X4138534Y-6676290D01*
X4132014Y-6692427D01*
X4131935Y-6693099D01*
X4122928Y-6723110D01*
X4106007Y-6756752D01*
X4105301Y-6757882D01*
X4083790Y-6787998D01*
X4064111Y-6809375D01*
X4059376Y-6813863D01*
X4059358Y-6820776D01*
X1705259Y-6820776D01*
X1691077Y-6815744D01*
X1681292Y-6800132D01*
X1680315Y-6779000D01*
X1692226Y-6748383D01*
X1695551Y-6743439D01*
X1702218Y-6728050D01*
X1700949Y-6709675D01*
X1690424Y-6681978D01*
X1669319Y-6638629D01*
X1627584Y-6555755D01*
X1690494Y-6449229D01*
X1781448Y-6457471D01*
X1803142Y-6459377D01*
X1842125Y-6461665D01*
X1865039Y-6459523D01*
X1878138Y-6451756D01*
X1887678Y-6437169D01*
X1894084Y-6420144D01*
X1893266Y-6399561D01*
X1883222Y-6370000D01*
X1862508Y-6325015D01*
X1822061Y-6241407D01*
X1856947Y-6188691D01*
X1891832Y-6135975D01*
X1974041Y-6144648D01*
X2015268Y-6150571D01*
X2048729Y-6158525D01*
X2064673Y-6166482D01*
X2072736Y-6172308D01*
X2092887Y-6163217D01*
X2104644Y-6157883D01*
X2137603Y-6153634D01*
X2180039Y-6154366D01*
X2223351Y-6159342D01*
X2258944Y-6167827D01*
X2278217Y-6179083D01*
X2289113Y-6185185D01*
X2305693Y-6170574D01*
X2309229Y-6165685D01*
X2315944Y-6148825D01*
X2312096Y-6127232D01*
X2296715Y-6092449D01*
X2270019Y-6037500D01*
X2143004Y-6037500D01*
X2111549Y-6037285D01*
X2050745Y-6035787D01*
X1997279Y-6033177D01*
X1959981Y-6029824D01*
X1903972Y-6022147D01*
X1792611Y-5790561D01*
X1784139Y-5772938D01*
X1751152Y-5704212D01*
X1722299Y-5643934D01*
X1699257Y-5595621D01*
X1685757Y-5567121D01*
X2943070Y-5567121D01*
X2952682Y-5574507D01*
X2981276Y-5567011D01*
X2994521Y-5558679D01*
X2985424Y-5548452D01*
X2977240Y-5543771D01*
X2960713Y-5537692D01*
X2956028Y-5539864D01*
X2945480Y-5556250D01*
X2943070Y-5567121D01*
X1685757Y-5567121D01*
X1683707Y-5562794D01*
X1677328Y-5548971D01*
X1679831Y-5536290D01*
X1702338Y-5522002D01*
X1742689Y-5510485D01*
X1796913Y-5502798D01*
X1861037Y-5500000D01*
X1894461Y-5499847D01*
X1936563Y-5498410D01*
X1961635Y-5494611D01*
X1974750Y-5487427D01*
X1980986Y-5475835D01*
X1981200Y-5459341D01*
X1972419Y-5426559D01*
X1956245Y-5386766D01*
X1935816Y-5346080D01*
X1914274Y-5310619D01*
X1909165Y-5304306D01*
X2578311Y-5304306D01*
X2582309Y-5317672D01*
X2591695Y-5334725D01*
X2598814Y-5346941D01*
X2607443Y-5353773D01*
X2617760Y-5343708D01*
X2635002Y-5314273D01*
X2654831Y-5265036D01*
X2661894Y-5198299D01*
X2661287Y-5131250D01*
X2618750Y-5212500D01*
X2612248Y-5224899D01*
X2591921Y-5264062D01*
X2581062Y-5288483D01*
X2578311Y-5304306D01*
X1909165Y-5304306D01*
X1894757Y-5286501D01*
X1880406Y-5279845D01*
X1870970Y-5281949D01*
X1839279Y-5275914D01*
X1809456Y-5256730D01*
X1792455Y-5230538D01*
X1782688Y-5211550D01*
X1761438Y-5209157D01*
X1760308Y-5209438D01*
X1760062Y-5209499D01*
X1729108Y-5206242D01*
X1707881Y-5182761D01*
X1700000Y-5142958D01*
X1699979Y-5140491D01*
X1696080Y-5110436D01*
X1687500Y-5093750D01*
X1681442Y-5087294D01*
X1675000Y-5064527D01*
X1673103Y-5058031D01*
X1657559Y-5033970D01*
X1629740Y-5000408D01*
X1593750Y-4962500D01*
X1582348Y-4951315D01*
X1543602Y-4915949D01*
X1520290Y-4899985D01*
X1512500Y-4903487D01*
X1508329Y-4916503D01*
X1503905Y-4918239D01*
X1486679Y-4925000D01*
X1474291Y-4924505D01*
X1440224Y-4913737D01*
X1419073Y-4886113D01*
X1407491Y-4837955D01*
X1403800Y-4814871D01*
X1396757Y-4786268D01*
X1390195Y-4775162D01*
X1390058Y-4775169D01*
X1378144Y-4785696D01*
X1358036Y-4812215D01*
X1333389Y-4848871D01*
X1307857Y-4889809D01*
X1285095Y-4929173D01*
X1268758Y-4961108D01*
X1262500Y-4979757D01*
X1257517Y-5010377D01*
X1235466Y-5039540D01*
X1198568Y-5050000D01*
X1175373Y-5048632D01*
X1165208Y-5039159D01*
X1168414Y-5014034D01*
X1169740Y-5005502D01*
X1167382Y-4976684D01*
X1154494Y-4937780D01*
X1129468Y-4883394D01*
X1119275Y-4863013D01*
X1097897Y-4823560D01*
X1080995Y-4800525D01*
X1064522Y-4789227D01*
X1044436Y-4784986D01*
X1035433Y-4783760D01*
X1013303Y-4774953D01*
X993814Y-4754087D01*
X971051Y-4715568D01*
X953009Y-4675910D01*
X943752Y-4635837D01*
X949418Y-4609484D01*
X970033Y-4600000D01*
X972602Y-4599937D01*
X982017Y-4594122D01*
X974813Y-4574650D01*
X963810Y-4560104D01*
X950599Y-4555881D01*
X950321Y-4556073D01*
X938824Y-4569511D01*
X916662Y-4599233D01*
X886912Y-4641009D01*
X852651Y-4690606D01*
X816941Y-4741858D01*
X783391Y-4787890D01*
X756133Y-4823133D01*
X738925Y-4842563D01*
X721214Y-4863884D01*
X712500Y-4887037D01*
X706055Y-4902863D01*
X687470Y-4935811D01*
X658981Y-4982073D01*
X622828Y-5038015D01*
X581250Y-5100000D01*
X540033Y-5160887D01*
X503961Y-5215129D01*
X475457Y-5259012D01*
X456733Y-5289130D01*
X450000Y-5302080D01*
X450113Y-5302899D01*
X461881Y-5315378D01*
X487116Y-5331052D01*
X498830Y-5339365D01*
X512763Y-5354663D01*
X529829Y-5379001D01*
X551316Y-5414623D01*
X578513Y-5463777D01*
X612706Y-5528710D01*
X655185Y-5611666D01*
X707238Y-5714894D01*
X722969Y-5746252D01*
X770206Y-5840744D01*
X807545Y-5916352D01*
X836091Y-5975717D01*
X856949Y-6021476D01*
X871223Y-6056270D01*
X880017Y-6082736D01*
X884438Y-6103515D01*
X885588Y-6121244D01*
X884574Y-6138564D01*
X873866Y-6184565D01*
X839759Y-6250040D01*
X785119Y-6316048D01*
X712125Y-6379542D01*
X707773Y-6382804D01*
X670307Y-6410067D01*
X640368Y-6430497D01*
X624098Y-6439885D01*
X620794Y-6442874D01*
X622514Y-6463937D01*
X638654Y-6503163D01*
X667140Y-6561797D01*
X619548Y-6630899D01*
X608982Y-6646155D01*
X585929Y-6676693D01*
X566974Y-6692744D01*
X544909Y-6698962D01*
X512527Y-6700000D01*
X453097Y-6700000D01*
X407971Y-6614126D01*
X398111Y-6595541D01*
X381250Y-6566402D01*
X376776Y-6558670D01*
X359196Y-6537313D01*
X340248Y-6526328D01*
X314809Y-6520570D01*
X286718Y-6515213D01*
X261915Y-6507350D01*
X238966Y-6494820D01*
X216212Y-6475428D01*
X191992Y-6446977D01*
X164646Y-6407271D01*
X132514Y-6354114D01*
X93936Y-6285310D01*
X80332Y-6260061D01*
X47251Y-6198662D01*
X-9201Y-6091975D01*
X-201170Y-5727700D01*
X-246187Y-5741516D01*
X-285000Y-5761715D01*
X-327733Y-5805791D01*
X-340457Y-5822237D01*
X-366082Y-5849820D01*
X-385811Y-5864272D01*
X-386710Y-5864593D01*
X-420727Y-5865364D01*
X-463992Y-5851664D01*
X-508657Y-5826894D01*
X-546875Y-5794456D01*
X-566362Y-5771158D01*
X-583095Y-5737872D01*
X-587500Y-5697575D01*
X-587180Y-5685224D01*
X-582846Y-5658575D01*
X-571072Y-5630973D01*
X-548874Y-5596444D01*
X-513265Y-5549014D01*
X-439031Y-5453245D01*
X-465348Y-5400052D01*
X-465875Y-5398981D01*
X-487271Y-5331947D01*
X-488826Y-5263994D01*
X-470342Y-5202923D01*
X-460746Y-5183487D01*
X-456287Y-5163920D01*
X-463945Y-5144527D01*
X-485424Y-5115423D01*
X-503766Y-5088697D01*
X-531051Y-5044077D01*
X-562332Y-4989456D01*
X-593835Y-4931250D01*
X-615239Y-4890666D01*
X-647471Y-4829885D01*
X-687863Y-4753935D01*
X-734542Y-4666333D01*
X-785636Y-4570591D01*
X-839271Y-4470226D01*
X-893575Y-4368750D01*
X-923391Y-4313092D01*
X-953865Y-4256250D01*
X-23836Y-4256250D01*
X19281Y-4336824D01*
X22818Y-4343425D01*
X49196Y-4391181D01*
X67456Y-4419312D01*
X80332Y-4430295D01*
X90557Y-4426605D01*
X100865Y-4410717D01*
X113507Y-4389818D01*
X137436Y-4354145D01*
X165635Y-4314654D01*
X189635Y-4280903D01*
X205856Y-4255729D01*
X210487Y-4244993D01*
X206293Y-4244475D01*
X182210Y-4244665D01*
X141925Y-4246269D01*
X91207Y-4249089D01*
X-23836Y-4256250D01*
X-953865Y-4256250D01*
X-994856Y-4179790D01*
X-1055751Y-4066225D01*
X-1087854Y-4006250D01*
X375000Y-4006250D01*
X381250Y-4012500D01*
X387500Y-4006250D01*
X381250Y-4000000D01*
X375000Y-4006250D01*
X-1087854Y-4006250D01*
X-1106893Y-3970680D01*
X-1149101Y-3891442D01*
X-1183194Y-3826797D01*
X-1209989Y-3775031D01*
X-1230306Y-3734429D01*
X-1244963Y-3703279D01*
X-1254778Y-3679864D01*
X-1260569Y-3662472D01*
X-1263155Y-3649388D01*
X-1263354Y-3638899D01*
X-1261985Y-3629290D01*
X-1259866Y-3618846D01*
X-1257815Y-3605855D01*
X-1255568Y-3579182D01*
X-1255871Y-3547572D01*
X-1260276Y-3532625D01*
X-1270497Y-3536871D01*
X-1291178Y-3556803D01*
X-1316789Y-3588124D01*
X-1321576Y-3594522D01*
X-1346710Y-3625939D01*
X-1367172Y-3642560D01*
X-1391534Y-3649185D01*
X-1428367Y-3650613D01*
X-1493750Y-3651226D01*
X-1578837Y-3763113D01*
X-1663925Y-3875000D01*
X-1808526Y-3875000D01*
X-1840805Y-3815625D01*
X-1873083Y-3756250D01*
X-1847999Y-3721875D01*
X-1822914Y-3687500D01*
X-1853220Y-3687500D01*
X-1872562Y-3683162D01*
X-1893009Y-3664689D01*
X-1916324Y-3627240D01*
X-1931526Y-3598414D01*
X-1940765Y-3574814D01*
X-1939278Y-3559784D01*
X-1928132Y-3545990D01*
X-1917770Y-3534982D01*
X-1916828Y-3526542D01*
X-1938133Y-3525000D01*
X-1940223Y-3524966D01*
X-1961089Y-3518933D01*
X-1980568Y-3499132D01*
X-2003616Y-3460697D01*
X-2003735Y-3460474D01*
X-2022580Y-3423916D01*
X-2030253Y-3401650D01*
X-2027799Y-3386196D01*
X-2016261Y-3370072D01*
X-2015186Y-3368769D01*
X-2005998Y-3355902D01*
X-2012206Y-3359375D01*
X-2025313Y-3368976D01*
X-2055417Y-3375050D01*
X-2084952Y-3357156D01*
X-2115042Y-3314808D01*
X-2148834Y-3254640D01*
X-2059424Y-3146070D01*
X-2059226Y-3145830D01*
X-2018959Y-3097895D01*
X-1989864Y-3066446D01*
X-1967928Y-3048131D01*
X-1949141Y-3039600D01*
X-1929494Y-3037500D01*
X-1918212Y-3037177D01*
X-1887974Y-3029378D01*
X-1879973Y-3010499D01*
X-1893653Y-2979644D01*
X-1903041Y-2964104D01*
X-1907421Y-2945024D01*
X-1896610Y-2927068D01*
X-1889936Y-2919149D01*
X-1868024Y-2892836D01*
X-1835283Y-2853337D01*
X-1794864Y-2804456D01*
X-1749920Y-2750000D01*
X-1720942Y-2715148D01*
X-1679395Y-2666251D01*
X-1644633Y-2626633D01*
X-1619644Y-2599673D01*
X-1607415Y-2588751D01*
X-1603288Y-2586839D01*
X-1585018Y-2570305D01*
X-1576365Y-2558317D01*
X-1555674Y-2531214D01*
X-1529014Y-2497179D01*
X-1481743Y-2437500D01*
X-1324675Y-2437500D01*
X-1297346Y-2493750D01*
X-1277780Y-2528682D01*
X-1259471Y-2545615D01*
X-1236381Y-2550000D01*
X-1236102Y-2550001D01*
X-1217401Y-2552517D01*
X-1203477Y-2563443D01*
X-1190355Y-2587960D01*
X-1174060Y-2631250D01*
X-1173553Y-2632680D01*
X-1157266Y-2672946D01*
X-1141942Y-2701592D01*
X-1130836Y-2712500D01*
X-1125332Y-2714972D01*
X-1109545Y-2733856D01*
X-1092523Y-2765245D01*
X-1086906Y-2777128D01*
X-1064619Y-2817757D01*
X-1043015Y-2849620D01*
X-1038682Y-2855021D01*
X-1007755Y-2898501D01*
X-984580Y-2939544D01*
X-971920Y-2972570D01*
X-972536Y-2992000D01*
X-976768Y-2997462D01*
X-995068Y-3020692D01*
X-1022824Y-3055701D01*
X-1055898Y-3097265D01*
X-1128445Y-3188280D01*
X-1106540Y-3236857D01*
X-1103561Y-3243526D01*
X-1092481Y-3273232D01*
X-1092706Y-3292915D01*
X-1103874Y-3312902D01*
X-1104510Y-3313823D01*
X-1116300Y-3342750D01*
X-1112418Y-3365673D01*
X-1094063Y-3375000D01*
X-1087010Y-3373362D01*
X-1060018Y-3362714D01*
X-1019802Y-3344348D01*
X-972132Y-3320826D01*
X-960680Y-3315067D01*
X-847755Y-3268035D01*
X-743686Y-3243057D01*
X-649450Y-3240378D01*
X-640888Y-3241298D01*
X-590068Y-3252834D01*
X-549020Y-3276437D01*
X-512517Y-3316182D01*
X-475333Y-3376144D01*
X-431250Y-3456338D01*
X-387500Y-3434438D01*
X-375933Y-3429282D01*
X-355442Y-3423098D01*
X-328087Y-3418612D01*
X-290243Y-3415568D01*
X-238282Y-3413709D01*
X-168578Y-3412778D01*
X-77504Y-3412520D01*
X4059Y-3412780D01*
X80234Y-3413887D01*
X137171Y-3416036D01*
X177992Y-3419414D01*
X205817Y-3424211D01*
X223766Y-3430612D01*
X232117Y-3435263D01*
X281979Y-3476486D01*
X327489Y-3536075D01*
X364160Y-3608351D01*
X375644Y-3639581D01*
X384718Y-3674226D01*
X390149Y-3713781D01*
X392808Y-3764935D01*
X393566Y-3834379D01*
X393572Y-3838510D01*
X393801Y-3896525D01*
X394259Y-3943882D01*
X394882Y-3975803D01*
X395605Y-3987504D01*
X396433Y-3986551D01*
X407976Y-3971028D01*
X431666Y-3938430D01*
X465694Y-3891269D01*
X508253Y-3832053D01*
X557533Y-3763294D01*
X611726Y-3687500D01*
X628270Y-3664386D01*
X681802Y-3590297D01*
X730440Y-3524019D01*
X772282Y-3468078D01*
X805424Y-3424995D01*
X827964Y-3397295D01*
X837997Y-3387500D01*
X851258Y-3382340D01*
X847516Y-3368776D01*
X829062Y-3351464D01*
X799340Y-3335076D01*
X781574Y-3326872D01*
X763744Y-3314835D01*
X747494Y-3296690D01*
X743358Y-3290013D01*
X729882Y-3268257D01*
X707965Y-3225355D01*
X678802Y-3163803D01*
X608671Y-3013704D01*
X524264Y-3013971D01*
X491446Y-3013154D01*
X425543Y-3003614D01*
X356468Y-2980877D01*
X311607Y-2963953D01*
X278463Y-2955422D01*
X250418Y-2954949D01*
X218505Y-2961258D01*
X172688Y-2970567D01*
X102135Y-2972865D01*
X45999Y-2956460D01*
X27196Y-2947627D01*
X5480Y-2945118D01*
X-18093Y-2956970D01*
X-60818Y-2978817D01*
X-127575Y-2992043D01*
X-193627Y-2982188D01*
X-254168Y-2949405D01*
X-255984Y-2947980D01*
X-278939Y-2932684D01*
X-298057Y-2931759D01*
X-326063Y-2944300D01*
X-342179Y-2950533D01*
X-389240Y-2961154D01*
X-458559Y-2971044D01*
X-548387Y-2979923D01*
X-593991Y-2984018D01*
X-677217Y-2993771D01*
X-736147Y-3004513D01*
X-771254Y-3016319D01*
X-773230Y-3017346D01*
X-809724Y-3031615D01*
X-842167Y-3037500D01*
X-843280Y-3037486D01*
X-877690Y-3025761D01*
X-913047Y-2996323D01*
X-943596Y-2955275D01*
X-963584Y-2908719D01*
X-972524Y-2857116D01*
X-972141Y-2792481D01*
X-960950Y-2730710D01*
X-940538Y-2677237D01*
X-912490Y-2637494D01*
X-878392Y-2616916D01*
X-870327Y-2615615D01*
X-832841Y-2617989D01*
X-788800Y-2629499D01*
X-780260Y-2632355D01*
X-744184Y-2640755D01*
X-696817Y-2646331D01*
X-633606Y-2649488D01*
X-550000Y-2650626D01*
X-500096Y-2651128D01*
X-421026Y-2654025D01*
X-364322Y-2659388D01*
X-331250Y-2667121D01*
X-320058Y-2671622D01*
X-298050Y-2675914D01*
X-276290Y-2668705D01*
X-244999Y-2647807D01*
X-215085Y-2630358D01*
X-152248Y-2612871D01*
X-87034Y-2615152D01*
X-27751Y-2637591D01*
X-114Y-2652505D01*
X19932Y-2654966D01*
X40999Y-2644719D01*
X87557Y-2624753D01*
X147967Y-2616486D01*
X204744Y-2624503D01*
X237460Y-2630993D01*
X277196Y-2622910D01*
X303186Y-2595269D01*
X312500Y-2550093D01*
X312655Y-2543572D01*
X318163Y-2510104D01*
X329120Y-2489268D01*
X338940Y-2471448D01*
X340444Y-2439391D01*
X342723Y-2400219D01*
X364669Y-2349497D01*
X405063Y-2300947D01*
X407068Y-2299063D01*
X428119Y-2275788D01*
X435499Y-2253770D01*
X429574Y-2225389D01*
X410708Y-2183023D01*
X383916Y-2127876D01*
X251333Y-2133037D01*
X213348Y-2134597D01*
X153375Y-2137362D01*
X102127Y-2140076D01*
X67736Y-2142326D01*
X16721Y-2146454D01*
X-3357Y-2106250D01*
X1079189Y-2106250D01*
X1155220Y-2271481D01*
X1231250Y-2436711D01*
X1358353Y-2437106D01*
X1394925Y-2437482D01*
X1445373Y-2438944D01*
X1483262Y-2441213D01*
X1502372Y-2443992D01*
X1503905Y-2444440D01*
X1510164Y-2441055D01*
X1514116Y-2425831D01*
X1515999Y-2395487D01*
X1516049Y-2346742D01*
X1514506Y-2276315D01*
X1509722Y-2102147D01*
X1579861Y-2093383D01*
X1616105Y-2088218D01*
X1638949Y-2081336D01*
X1648241Y-2069755D01*
X1650000Y-2049730D01*
X1649652Y-2038485D01*
X1643521Y-2021296D01*
X1626156Y-2021076D01*
X1612397Y-2027911D01*
X1596588Y-2049200D01*
X1589676Y-2057216D01*
X1586565Y-2060824D01*
X1555279Y-2072249D01*
X1502140Y-2080631D01*
X1426146Y-2086118D01*
X1326292Y-2088857D01*
X1317556Y-2088990D01*
X1256166Y-2090908D01*
X1205118Y-2093700D01*
X1196009Y-2094198D01*
X1148970Y-2098232D01*
X1079189Y-2106250D01*
X-3357Y-2106250D01*
X-122889Y-1866905D01*
X-153035Y-1806146D01*
X-159347Y-1793226D01*
X1527134Y-1793226D01*
X1536610Y-1826572D01*
X1557964Y-1875000D01*
X1562890Y-1885295D01*
X1578585Y-1915346D01*
X1589676Y-1926788D01*
X1598366Y-1918113D01*
X1606862Y-1887811D01*
X1617369Y-1834375D01*
X1620750Y-1812234D01*
X1619036Y-1792716D01*
X1607526Y-1787500D01*
X1590077Y-1780317D01*
X1569107Y-1759375D01*
X1560661Y-1748113D01*
X1548178Y-1739533D01*
X1537340Y-1750000D01*
X1528492Y-1768647D01*
X1527134Y-1793226D01*
X-159347Y-1793226D01*
X-188390Y-1733780D01*
X-218533Y-1670819D01*
X-241946Y-1620487D01*
X-257108Y-1586011D01*
X-262500Y-1570616D01*
X-260583Y-1556786D01*
X-245282Y-1535467D01*
X-212615Y-1520106D01*
X-160102Y-1509764D01*
X-85266Y-1503503D01*
X-46535Y-1501167D01*
X3262Y-1497131D01*
X40056Y-1492876D01*
X57859Y-1489009D01*
X57458Y-1480128D01*
X46900Y-1449419D01*
X32929Y-1415625D01*
X1190911Y-1415625D01*
X1190993Y-1420236D01*
X1205118Y-1425000D01*
X1220439Y-1416817D01*
X1245289Y-1393131D01*
X1273251Y-1359375D01*
X1277905Y-1353274D01*
X1304798Y-1320385D01*
X2502492Y-1320385D01*
X2508617Y-1353125D01*
X2513062Y-1367588D01*
X2520140Y-1372663D01*
X2534212Y-1363165D01*
X2560577Y-1337500D01*
X2598077Y-1300000D01*
X2549039Y-1300000D01*
X2535719Y-1300184D01*
X2509950Y-1304810D01*
X2502492Y-1320385D01*
X1304798Y-1320385D01*
X1308120Y-1316322D01*
X1349742Y-1268159D01*
X1386824Y-1226719D01*
X1962500Y-1226719D01*
X2065625Y-1217760D01*
X2066612Y-1217674D01*
X2129986Y-1209165D01*
X2197109Y-1195638D01*
X2253612Y-1179980D01*
X2256060Y-1179155D01*
X2300341Y-1166043D01*
X2336436Y-1158511D01*
X2356737Y-1158167D01*
X2361825Y-1159909D01*
X2371022Y-1159817D01*
X2372759Y-1150088D01*
X2366235Y-1127478D01*
X2350647Y-1088744D01*
X2325194Y-1030644D01*
X2312469Y-1001369D01*
X2293355Y-954325D01*
X2280163Y-917707D01*
X2275194Y-897641D01*
X2275905Y-891960D01*
X2282523Y-883137D01*
X2298649Y-876136D01*
X2327378Y-870426D01*
X2371806Y-865478D01*
X2435028Y-860763D01*
X2520142Y-855752D01*
X2659033Y-848118D01*
X2678505Y-895934D01*
X2693513Y-932610D01*
X2714014Y-981247D01*
X2728293Y-1011772D01*
X2738199Y-1027487D01*
X2745584Y-1031697D01*
X2752296Y-1027705D01*
X2753587Y-1019672D01*
X2748482Y-995925D01*
X2735430Y-956016D01*
X2714003Y-898858D01*
X2683775Y-823365D01*
X2644320Y-728448D01*
X2595211Y-613020D01*
X2536023Y-475995D01*
X2512021Y-420739D01*
X2377886Y-562476D01*
X2371364Y-569399D01*
X2301451Y-647895D01*
X2239485Y-725175D01*
X2187558Y-798101D01*
X2147767Y-863535D01*
X2143429Y-872835D01*
X2122204Y-918339D01*
X2112966Y-959375D01*
X2112783Y-965972D01*
X2106831Y-992540D01*
X2090625Y-1000921D01*
X2073759Y-1008893D01*
X2046281Y-1031657D01*
X2015625Y-1063883D01*
X2004592Y-1077013D01*
X1978523Y-1112882D01*
X1965835Y-1143144D01*
X1962500Y-1176322D01*
X1962500Y-1226719D01*
X1386824Y-1226719D01*
X1397900Y-1214341D01*
X1447722Y-1160423D01*
X1482914Y-1122732D01*
X1522848Y-1078322D01*
X1549852Y-1044920D01*
X1566762Y-1018507D01*
X1576409Y-995066D01*
X1581630Y-970580D01*
X1586502Y-928855D01*
X1584902Y-905042D01*
X1575287Y-903974D01*
X1556852Y-925643D01*
X1528793Y-970042D01*
X1527741Y-971798D01*
X1498191Y-1015345D01*
X1456611Y-1069516D01*
X1408375Y-1127581D01*
X1358858Y-1182811D01*
X1350120Y-1192194D01*
X1304908Y-1242826D01*
X1265127Y-1290644D01*
X1234807Y-1330641D01*
X1217977Y-1357811D01*
X1212620Y-1369473D01*
X1198791Y-1399221D01*
X1190911Y-1415625D01*
X32929Y-1415625D01*
X25405Y-1397427D01*
X-5550Y-1327490D01*
X712500Y-1327490D01*
X717393Y-1340177D01*
X730135Y-1356293D01*
X743358Y-1367099D01*
X749603Y-1365045D01*
X751825Y-1359774D01*
X767646Y-1337515D01*
X796161Y-1302503D01*
X834396Y-1258327D01*
X879374Y-1208575D01*
X987138Y-1081962D01*
X1105648Y-912280D01*
X1113707Y-899388D01*
X1179227Y-801850D01*
X1246699Y-716074D01*
X1324543Y-631250D01*
X1335043Y-620368D01*
X1397642Y-550493D01*
X1457178Y-476111D01*
X1511242Y-400949D01*
X1557426Y-328731D01*
X1593324Y-263182D01*
X1616527Y-208027D01*
X1619962Y-190625D01*
X2137836Y-190625D01*
X2138060Y-210252D01*
X2140035Y-238784D01*
X2143429Y-250000D01*
X2144518Y-249569D01*
X2155068Y-236135D01*
X2170179Y-209739D01*
X2171665Y-206991D01*
X2192304Y-176621D01*
X2223803Y-137425D01*
X2259973Y-97165D01*
X2280054Y-75898D01*
X2751084Y-75898D01*
X2754966Y-88593D01*
X2766995Y-120785D01*
X2785456Y-167859D01*
X2808606Y-225579D01*
X2834700Y-289714D01*
X2861996Y-356029D01*
X2888750Y-420291D01*
X2913217Y-478266D01*
X2933654Y-525720D01*
X2948318Y-558420D01*
X2955465Y-572132D01*
X2956066Y-572050D01*
X2967380Y-560425D01*
X2990828Y-532227D01*
X3024088Y-490368D01*
X3064838Y-437761D01*
X3110757Y-377316D01*
X3151837Y-323027D01*
X3195182Y-267008D01*
X3228640Y-226128D01*
X3254928Y-197482D01*
X3276766Y-178163D01*
X3296873Y-165266D01*
X3317968Y-155885D01*
X3368196Y-142355D01*
X3422308Y-140554D01*
X3423721Y-140739D01*
X3466141Y-140100D01*
X3498794Y-123464D01*
X3523235Y-107361D01*
X3544369Y-100000D01*
X3548774Y-98593D01*
X3560756Y-79284D01*
X3569810Y-40625D01*
X3582274Y6015D01*
X3620576Y70037D01*
X3644272Y100015D01*
X3659131Y123172D01*
X3659531Y134573D01*
X3646875Y137843D01*
X3639871Y140597D01*
X3613679Y154962D01*
X3571665Y179929D01*
X3516939Y213602D01*
X3452609Y254084D01*
X3381785Y299480D01*
X3335074Y329499D01*
X3269022Y371280D01*
X3211909Y406605D01*
X3166728Y433660D01*
X3136469Y450633D01*
X3124124Y455708D01*
X3121657Y452873D01*
X3108234Y432525D01*
X3085944Y396113D01*
X3057186Y347598D01*
X3024362Y290946D01*
X3006401Y260100D01*
X2951304Y172684D01*
X2897883Y100383D01*
X2841398Y36602D01*
X2813186Y6452D01*
X2780799Y-31004D01*
X2758882Y-59969D01*
X2751084Y-75898D01*
X2280054Y-75898D01*
X2283816Y-71914D01*
X2308048Y-43928D01*
X2319201Y-24695D01*
X2320014Y-8730D01*
X2313226Y9448D01*
X2297506Y43750D01*
X2217839Y-43750D01*
X2184157Y-81408D01*
X2159106Y-112726D01*
X2145227Y-137346D01*
X2139232Y-161301D01*
X2137836Y-190625D01*
X1619962Y-190625D01*
X1624627Y-166990D01*
X1624254Y-118750D01*
X1574930Y-175000D01*
X1572114Y-178281D01*
X1545529Y-213039D01*
X1511202Y-262531D01*
X1473259Y-320640D01*
X1435824Y-381250D01*
X1408598Y-425609D01*
X1353764Y-506418D01*
X1295070Y-579689D01*
X1224184Y-656250D01*
X1171096Y-712663D01*
X1113933Y-780574D01*
X1061999Y-852612D01*
X1007994Y-938301D01*
X974528Y-991634D01*
X920291Y-1071158D01*
X864293Y-1146578D01*
X813082Y-1208805D01*
X811646Y-1210425D01*
X773093Y-1254345D01*
X741574Y-1291025D01*
X720305Y-1316671D01*
X712500Y-1327490D01*
X-5550Y-1327490D01*
X-6787Y-1324695D01*
X-49433Y-1231767D01*
X-102292Y-1119188D01*
X-165122Y-987500D01*
X-199584Y-915772D01*
X-246880Y-817475D01*
X-289997Y-728030D01*
X-327829Y-649719D01*
X-359273Y-584823D01*
X-383224Y-535626D01*
X-398578Y-504409D01*
X-404231Y-493454D01*
X-404529Y-493444D01*
X-419542Y-493993D01*
X-452369Y-495472D01*
X-496611Y-497594D01*
X-586972Y-502031D01*
X-562236Y-550518D01*
X-544975Y-587973D01*
X-540373Y-616459D01*
X-551158Y-642867D01*
X-578594Y-676956D01*
X-581442Y-680185D01*
X-604468Y-703677D01*
X-626614Y-717056D01*
X-656505Y-723835D01*
X-702768Y-727526D01*
X-717441Y-728292D01*
X-759787Y-728613D01*
X-783566Y-724246D01*
X-793653Y-714494D01*
X-796170Y-708949D01*
X-805764Y-704467D01*
X-824337Y-718151D01*
X-830861Y-722891D01*
X-863067Y-735604D01*
X-906543Y-744531D01*
X-952516Y-748718D01*
X-992215Y-747212D01*
X-1016868Y-739062D01*
X-1032528Y-731644D01*
X-1049872Y-743596D01*
X-1053947Y-747530D01*
X-1083958Y-758811D01*
X-1089071Y-759171D01*
X-1136421Y-762500D01*
X-1207281Y-762500D01*
X-1539910Y-1151146D01*
X-2263015Y-1996028D01*
X-2334908Y-2080026D01*
G37*
G36*
X1117805Y-6335634D02*
G01*
X1148530Y-6396268D01*
X1104156Y-6462160D01*
X1081189Y-6492993D01*
X1055106Y-6521092D01*
X1035790Y-6534326D01*
X1020663Y-6542605D01*
X1019213Y-6563959D01*
X1019990Y-6574073D01*
X1008386Y-6607805D01*
X978939Y-6656011D01*
X966987Y-6673129D01*
X944356Y-6702633D01*
X925335Y-6718000D01*
X902483Y-6723862D01*
X868357Y-6724852D01*
X805463Y-6725000D01*
X759725Y-6634375D01*
X753020Y-6621068D01*
X732984Y-6580983D01*
X718818Y-6552154D01*
X713243Y-6540100D01*
X715751Y-6534865D01*
X729167Y-6514149D01*
X750417Y-6483850D01*
X776502Y-6447572D01*
X810469Y-6400197D01*
X844141Y-6353125D01*
X899949Y-6275000D01*
X1087079Y-6275000D01*
X1117805Y-6335634D01*
G37*
G36*
X-6807757Y-608944D02*
G01*
X-6903080Y-454269D01*
X-6959922Y-361838D01*
X-6849523Y-361838D01*
X-6845334Y-370131D01*
X-6829986Y-396498D01*
X-6805651Y-437009D01*
X-6774738Y-487772D01*
X-6739655Y-544894D01*
X-6702812Y-604481D01*
X-6666616Y-662641D01*
X-6633476Y-715481D01*
X-6605802Y-759106D01*
X-6586001Y-789625D01*
X-6576483Y-803144D01*
X-6568626Y-796734D01*
X-6543776Y-774031D01*
X-6502990Y-735928D01*
X-6447340Y-683459D01*
X-6377901Y-617653D01*
X-6295745Y-539543D01*
X-6201946Y-450159D01*
X-6097579Y-350534D01*
X-5983715Y-241698D01*
X-5861428Y-124683D01*
X-5731792Y-519D01*
X-5595881Y129760D01*
X-5454767Y265125D01*
X-5309524Y404544D01*
X-5161225Y546985D01*
X-5010944Y691417D01*
X-4859755Y836809D01*
X-4708730Y982129D01*
X-4558944Y1126346D01*
X-4411468Y1268429D01*
X-4267378Y1407346D01*
X-4127746Y1542066D01*
X-3993646Y1671558D01*
X-3866151Y1794790D01*
X-3746334Y1910731D01*
X-3635270Y2018349D01*
X-3534031Y2116614D01*
X-3443690Y2204493D01*
X-3365322Y2280956D01*
X-3300000Y2344970D01*
X-3256250Y2387976D01*
X-3262291Y2386179D01*
X-3318750Y2369381D01*
X-3335122Y2364498D01*
X-3391186Y2347674D01*
X-3443750Y2331778D01*
X-3447715Y2330629D01*
X-3493952Y2321523D01*
X-3552728Y2315104D01*
X-3612883Y2312635D01*
X-3719517Y2312500D01*
X-3766397Y2407242D01*
X-3813277Y2501985D01*
X-3916757Y2404117D01*
X-3922295Y2398886D01*
X-3949483Y2373256D01*
X-3993416Y2331881D01*
X-4053017Y2275773D01*
X-4127212Y2205945D01*
X-4214924Y2123407D01*
X-4315077Y2029173D01*
X-4426597Y1924254D01*
X-4548407Y1809663D01*
X-4679431Y1686411D01*
X-4818594Y1555510D01*
X-4964820Y1417973D01*
X-5117033Y1274811D01*
X-5274158Y1127037D01*
X-5435118Y975662D01*
X-5511957Y903391D01*
X-5668705Y755891D01*
X-5819950Y613479D01*
X-5964714Y477080D01*
X-6102018Y347619D01*
X-6230884Y226021D01*
X-6350334Y113213D01*
X-6459388Y10118D01*
X-6557069Y-82338D01*
X-6642399Y-163229D01*
X-6714398Y-231631D01*
X-6772088Y-286618D01*
X-6814491Y-327265D01*
X-6840629Y-352647D01*
X-6849523Y-361838D01*
X-6959922Y-361838D01*
X-6994480Y-305644D01*
X-7081117Y-164452D01*
X-7162152Y-32074D01*
X-7236743Y90107D01*
X-7304052Y200708D01*
X-7363238Y298349D01*
X-7413463Y381645D01*
X-7453885Y449216D01*
X-7483665Y499678D01*
X-7501964Y531650D01*
X-7507941Y543750D01*
X-7500062Y551560D01*
X-7474304Y575376D01*
X-7431430Y614433D01*
X-7372251Y668004D01*
X-7297580Y735360D01*
X-7208230Y815775D01*
X-7105011Y908519D01*
X-6988737Y1012865D01*
X-6860220Y1128086D01*
X-6720272Y1253453D01*
X-6569706Y1388239D01*
X-6409332Y1531715D01*
X-6239965Y1683154D01*
X-6062415Y1841828D01*
X-5877496Y2007009D01*
X-5686019Y2177969D01*
X-5488797Y2353981D01*
X-5286642Y2534316D01*
X-5281788Y2538644D01*
X-5031339Y2761962D01*
X-4798903Y2969112D01*
X-4748515Y3013990D01*
X-3263075Y3013990D01*
X-3262291Y3012718D01*
X-3254234Y3014619D01*
X-3226261Y3022353D01*
X-3183504Y3034647D01*
X-3131250Y3050000D01*
X-3091133Y3061399D01*
X-3023762Y3076907D01*
X-2961356Y3084921D01*
X-2892113Y3087281D01*
X-2864189Y3087585D01*
X-2801997Y3091353D01*
X-2750212Y3100708D01*
X-2698363Y3117270D01*
X-2653479Y3132085D01*
X-2588681Y3149503D01*
X-2528125Y3162149D01*
X-2521195Y3163318D01*
X-2478768Y3171141D01*
X-2448834Y3177798D01*
X-2437500Y3181955D01*
X-2437907Y3183727D01*
X-2445143Y3201595D01*
X-2458565Y3230825D01*
X-2458761Y3231237D01*
X-2481188Y3264445D01*
X-2506716Y3275000D01*
X-2533129Y3279781D01*
X-2544703Y3286147D01*
X-2425000Y3286147D01*
X-2424932Y3285585D01*
X-2414177Y3273091D01*
X-2390625Y3255501D01*
X-2362751Y3234788D01*
X-2343476Y3215960D01*
X-2338956Y3211756D01*
X-2312607Y3204892D01*
X-2275128Y3207580D01*
X-2235114Y3218573D01*
X-2201164Y3236621D01*
X-2172370Y3258341D01*
X-2198685Y3309922D01*
X-2205479Y3324136D01*
X-2219442Y3360801D01*
X-2225000Y3387823D01*
X-2227430Y3407257D01*
X-2238762Y3439858D01*
X-2239391Y3441022D01*
X-2246876Y3451072D01*
X-2256796Y3452246D01*
X-2272910Y3442291D01*
X-2298979Y3418958D01*
X-2338762Y3379997D01*
X-2361712Y3356924D01*
X-2394290Y3322938D01*
X-2416677Y3297941D01*
X-2425000Y3286147D01*
X-2544703Y3286147D01*
X-2575050Y3302839D01*
X-2612034Y3339391D01*
X-2636559Y3383172D01*
X-2640253Y3393992D01*
X-2647649Y3424550D01*
X-2643728Y3448889D01*
X-2627210Y3480310D01*
X-2620489Y3491872D01*
X-2608240Y3518179D01*
X-2608362Y3538635D01*
X-2619860Y3564648D01*
X-2639669Y3602954D01*
X-2685459Y3560106D01*
X-2697571Y3548771D01*
X-2729546Y3518845D01*
X-2774576Y3476698D01*
X-2829486Y3425302D01*
X-2891102Y3367629D01*
X-2956250Y3306649D01*
X-2964452Y3298970D01*
X-3047331Y3221352D01*
X-3113786Y3159007D01*
X-3165522Y3110297D01*
X-3204244Y3073586D01*
X-3231655Y3047237D01*
X-3249461Y3029613D01*
X-3259366Y3019076D01*
X-3263075Y3013990D01*
X-4748515Y3013990D01*
X-4583895Y3160608D01*
X-4385730Y3336967D01*
X-4203820Y3498702D01*
X-4037581Y3646330D01*
X-3886427Y3780365D01*
X-3749771Y3901322D01*
X-3627028Y4009716D01*
X-3517612Y4106062D01*
X-3420937Y4190875D01*
X-3336418Y4264671D01*
X-3263467Y4327963D01*
X-3201500Y4381268D01*
X-3149931Y4425099D01*
X-3108173Y4459973D01*
X-3075641Y4486405D01*
X-3051749Y4504908D01*
X-3035911Y4515998D01*
X-3027542Y4520191D01*
X-3023834Y4520873D01*
X-2996223Y4524435D01*
X-2983215Y4523375D01*
X-2981963Y4520974D01*
X-2971710Y4500350D01*
X-2952154Y4460647D01*
X-2924464Y4404249D01*
X-2889809Y4333539D01*
X-2849357Y4250900D01*
X-2804276Y4158718D01*
X-2755736Y4059375D01*
X-2734731Y4016431D01*
X-2687362Y3920087D01*
X-2643771Y3832100D01*
X-2605146Y3754827D01*
X-2572674Y3690625D01*
X-2547545Y3641848D01*
X-2530947Y3610854D01*
X-2524068Y3600000D01*
X-2522107Y3600780D01*
X-2505424Y3613012D01*
X-2476706Y3636999D01*
X-2440789Y3668750D01*
X-2400704Y3702379D01*
X-2361849Y3728307D01*
X-2335190Y3737500D01*
X-2333137Y3737450D01*
X-2298752Y3728208D01*
X-2261951Y3707935D01*
X-2235947Y3683781D01*
X-2221500Y3681577D01*
X-2197083Y3692715D01*
X-2186683Y3698991D01*
X-2162563Y3706557D01*
X-2139668Y3699270D01*
X-2113563Y3674784D01*
X-2079810Y3630758D01*
X-2053565Y3597571D01*
X-2030679Y3574907D01*
X-2016512Y3568216D01*
X-2014833Y3568783D01*
X-1991008Y3574886D01*
X-1957137Y3581908D01*
X-1912500Y3590282D01*
X-1912500Y3662192D01*
X-1913519Y3690144D01*
X-1924181Y3749173D01*
X-1948883Y3813926D01*
X-1952366Y3821591D01*
X-1969477Y3861407D01*
X-1976702Y3886119D01*
X-1975092Y3902075D01*
X-1965696Y3915625D01*
X-1949434Y3928676D01*
X-1923062Y3937500D01*
X-1912922Y3939063D01*
X-1902716Y3952129D01*
X-1900000Y3983633D01*
X-1899009Y4000802D01*
X-1893732Y4019312D01*
X-1881315Y4039794D01*
X-1858923Y4065965D01*
X-1823720Y4101540D01*
X-1772871Y4150235D01*
X-1645743Y4270703D01*
X-1655846Y4293331D01*
X-1593666Y4293331D01*
X-1575454Y4281394D01*
X-1569111Y4279134D01*
X-1525667Y4252563D01*
X-1486993Y4212801D01*
X-1462718Y4169412D01*
X-1459640Y4159346D01*
X-1455640Y4122800D01*
X-1466894Y4083763D01*
X-1470675Y4074623D01*
X-1478496Y4050088D01*
X-1473455Y4036922D01*
X-1453421Y4025985D01*
X-1447082Y4022603D01*
X-1441366Y4019596D01*
X-1435233Y4018308D01*
X-1427332Y4019943D01*
X-1416312Y4025706D01*
X-1400823Y4036801D01*
X-1379514Y4054433D01*
X-1351036Y4079807D01*
X-1314038Y4114126D01*
X-1267169Y4158596D01*
X-1209078Y4214420D01*
X-1138417Y4282803D01*
X-1053834Y4364951D01*
X-953978Y4462066D01*
X-837500Y4575354D01*
X-790614Y4620936D01*
X-706674Y4702518D01*
X-611979Y4794528D01*
X-507894Y4895640D01*
X-395787Y5004528D01*
X-277023Y5119866D01*
X-152968Y5240328D01*
X-24989Y5364588D01*
X105548Y5491320D01*
X237278Y5619199D01*
X368833Y5746897D01*
X498849Y5873090D01*
X625958Y5996450D01*
X748794Y6115653D01*
X865992Y6229373D01*
X976185Y6336282D01*
X1078007Y6435056D01*
X1170091Y6524369D01*
X1251073Y6602893D01*
X1319585Y6669305D01*
X1374261Y6722276D01*
X1413736Y6760482D01*
X1436642Y6782597D01*
X1517034Y6859922D01*
X1444247Y7048711D01*
X1427375Y7091833D01*
X1403853Y7149709D01*
X1384009Y7195880D01*
X1369541Y7226444D01*
X1362145Y7237500D01*
X1355630Y7232106D01*
X1331902Y7210586D01*
X1291761Y7173490D01*
X1236166Y7121722D01*
X1166079Y7056185D01*
X1082461Y6977784D01*
X986273Y6887423D01*
X878475Y6786007D01*
X760028Y6674439D01*
X631894Y6553623D01*
X495033Y6424465D01*
X350406Y6287867D01*
X198975Y6144734D01*
X41699Y5995970D01*
X-120460Y5842480D01*
X-312526Y5660554D01*
X-494055Y5488463D01*
X-658748Y5332156D01*
X-807307Y5190953D01*
X-940434Y5064176D01*
X-1058831Y4951144D01*
X-1163202Y4851177D01*
X-1254247Y4763597D01*
X-1332671Y4687723D01*
X-1399175Y4622875D01*
X-1454461Y4568375D01*
X-1499232Y4523542D01*
X-1534191Y4487698D01*
X-1560039Y4460161D01*
X-1577479Y4440253D01*
X-1587214Y4427294D01*
X-1589946Y4420605D01*
X-1587705Y4403016D01*
X-1584311Y4368750D01*
X-1584874Y4350197D01*
X-1591761Y4316633D01*
X-1591975Y4316002D01*
X-1593666Y4293331D01*
X-1655846Y4293331D01*
X-1759717Y4525976D01*
X-1797234Y4609973D01*
X-1844403Y4715506D01*
X-1893234Y4824701D01*
X-1939779Y4928726D01*
X-1980088Y5018750D01*
X-2086486Y5256250D01*
X-2052618Y5288907D01*
X-2040322Y5300528D01*
X-2006302Y5331932D01*
X-1956382Y5377482D01*
X-1891751Y5436114D01*
X-1813598Y5506764D01*
X-1723113Y5588369D01*
X-1621487Y5679865D01*
X-1509908Y5780189D01*
X-1389568Y5888276D01*
X-1261654Y6003063D01*
X-1127359Y6123487D01*
X-987870Y6248483D01*
X-844378Y6376989D01*
X-698074Y6507940D01*
X-550145Y6640272D01*
X-401783Y6772922D01*
X-254177Y6904827D01*
X-108518Y7034922D01*
X34007Y7162144D01*
X172205Y7285429D01*
X304888Y7403714D01*
X430867Y7515935D01*
X548950Y7621027D01*
X657948Y7717929D01*
X756672Y7805575D01*
X843932Y7882902D01*
X918537Y7948846D01*
X979299Y8002344D01*
X1025027Y8042332D01*
X1054531Y8067747D01*
X1066622Y8077524D01*
X1070956Y8079815D01*
X1100174Y8093492D01*
X1118891Y8099399D01*
X1120697Y8096686D01*
X1130692Y8074783D01*
X1148481Y8032618D01*
X1173260Y7972252D01*
X1204222Y7895741D01*
X1240561Y7805145D01*
X1281471Y7702522D01*
X1326147Y7589930D01*
X1373781Y7469428D01*
X1423568Y7343074D01*
X1474702Y7212927D01*
X1526377Y7081045D01*
X1577788Y6949486D01*
X1628127Y6820309D01*
X1676590Y6695572D01*
X1722369Y6577334D01*
X1764660Y6467654D01*
X1802656Y6368588D01*
X1835551Y6282197D01*
X1862538Y6210538D01*
X1882813Y6155670D01*
X1895569Y6119651D01*
X1900000Y6104540D01*
X1899785Y6103187D01*
X1886446Y6091392D01*
X1858760Y6080329D01*
X1857375Y6079820D01*
X1846418Y6072723D01*
X1827805Y6057437D01*
X1800885Y6033311D01*
X1765008Y5999694D01*
X1719526Y5955936D01*
X1663788Y5901386D01*
X1597144Y5835394D01*
X1518945Y5757309D01*
X1428541Y5666480D01*
X1325281Y5562258D01*
X1208517Y5443991D01*
X1077599Y5311029D01*
X931876Y5162721D01*
X770700Y4998417D01*
X593419Y4817467D01*
X399385Y4619219D01*
X275337Y4492368D01*
X123013Y4336445D01*
X-23754Y4186037D01*
X-164045Y4042093D01*
X-296942Y3905562D01*
X-421524Y3777394D01*
X-536873Y3658535D01*
X-642071Y3549937D01*
X-736198Y3452547D01*
X-818335Y3367314D01*
X-887564Y3295187D01*
X-942965Y3237116D01*
X-983619Y3194048D01*
X-1008608Y3166933D01*
X-1017013Y3156719D01*
X-1014724Y3146566D01*
X-1005973Y3121021D01*
X-1002975Y3106513D01*
X-1013908Y3101144D01*
X-1044159Y3102271D01*
X-1091649Y3106250D01*
X-1301962Y3550000D01*
X-1314330Y3576100D01*
X-1360109Y3672765D01*
X-1402258Y3761865D01*
X-1435233Y3831655D01*
X-1439599Y3840895D01*
X-1470948Y3907352D01*
X-1495126Y3958732D01*
X-1510949Y3992533D01*
X-1517239Y4006250D01*
X-1517375Y4006533D01*
X-1528554Y4004136D01*
X-1551935Y3987311D01*
X-1582652Y3959534D01*
X-1591352Y3950981D01*
X-1619531Y3921670D01*
X-1633169Y3901550D01*
X-1635349Y3884242D01*
X-1629155Y3863371D01*
X-1624094Y3848452D01*
X-1622835Y3825349D01*
X-1636713Y3806961D01*
X-1652723Y3795242D01*
X-1673299Y3787500D01*
X-1674629Y3787469D01*
X-1682114Y3781284D01*
X-1674035Y3760698D01*
X-1672244Y3756846D01*
X-1665507Y3724235D01*
X-1666203Y3685345D01*
X-1672715Y3636795D01*
X-1626982Y3644923D01*
X-1620887Y3646003D01*
X-1588773Y3651552D01*
X-1569552Y3654651D01*
X-1568392Y3653193D01*
X-1558365Y3634502D01*
X-1539007Y3595796D01*
X-1511227Y3539004D01*
X-1475937Y3466055D01*
X-1434044Y3378877D01*
X-1386461Y3279399D01*
X-1334095Y3169548D01*
X-1277857Y3051254D01*
X-1218657Y2926446D01*
X-1157405Y2797051D01*
X-1095011Y2664997D01*
X-1032384Y2532215D01*
X-970434Y2400631D01*
X-910072Y2272174D01*
X-852207Y2148774D01*
X-797749Y2032358D01*
X-747607Y1924854D01*
X-702693Y1828192D01*
X-663914Y1744300D01*
X-632183Y1675106D01*
X-608407Y1622539D01*
X-593498Y1588528D01*
X-588364Y1575000D01*
X-588888Y1573869D01*
X-600780Y1559077D01*
X-625976Y1530575D01*
X-661313Y1491888D01*
X-703625Y1446543D01*
X-818750Y1324337D01*
X-1011602Y1299812D01*
X-1050584Y1294934D01*
X-1112012Y1287602D01*
X-1161570Y1282141D01*
X-1194954Y1279016D01*
X-1207856Y1278690D01*
X-1208501Y1279775D01*
X-1217480Y1297363D01*
X-1236109Y1334794D01*
X-1263380Y1390008D01*
X-1298281Y1460941D01*
X-1339805Y1545532D01*
X-1386939Y1641719D01*
X-1438675Y1747440D01*
X-1494002Y1860632D01*
X-1551911Y1979233D01*
X-1611392Y2101182D01*
X-1671434Y2224417D01*
X-1731027Y2346875D01*
X-1854132Y2600000D01*
X-1945816Y2600000D01*
X-1952815Y2599981D01*
X-1995743Y2598944D01*
X-2026031Y2596638D01*
X-2037500Y2593500D01*
X-2035145Y2586954D01*
X-2023714Y2561800D01*
X-2004946Y2522791D01*
X-1981250Y2475000D01*
X-1965445Y2443073D01*
X-1944600Y2399267D01*
X-1930306Y2367008D01*
X-1925000Y2351640D01*
X-1925258Y2350337D01*
X-1939020Y2340580D01*
X-1967282Y2332350D01*
X-1971784Y2330641D01*
X-1981551Y2324469D01*
X-1995972Y2313302D01*
X-2015692Y2296500D01*
X-2041355Y2273421D01*
X-2073606Y2243425D01*
X-2113089Y2205872D01*
X-2160448Y2160119D01*
X-2216328Y2105527D01*
X-2281375Y2041455D01*
X-2312607Y2010500D01*
X-2356231Y1967262D01*
X-2441541Y1882307D01*
X-2537951Y1785949D01*
X-2646104Y1677547D01*
X-2766645Y1556461D01*
X-2900218Y1422050D01*
X-3047468Y1273674D01*
X-3209040Y1110690D01*
X-3385577Y932460D01*
X-3577725Y738340D01*
X-3786127Y527692D01*
X-4011428Y299874D01*
X-6013293Y-1724669D01*
X-5992709Y-1756085D01*
X-5972124Y-1787500D01*
X-6026687Y-1786891D01*
X-6081250Y-1786281D01*
X-6576483Y-983735D01*
X-6796298Y-627516D01*
X-6807757Y-608944D01*
G37*
%TD*%
M02*
