%TF.GenerationSoftware,KiCad,Pcbnew,(6.0.7)*%
%TF.CreationDate,2022-10-21T23:48:19+08:00*%
%TF.ProjectId,pcb_rear,7063625f-7265-4617-922e-6b696361645f,rev?*%
%TF.SameCoordinates,Original*%
%TF.FileFunction,Drillmap*%
%TF.FilePolarity,Positive*%
%FSLAX45Y45*%
G04 Gerber Fmt 4.5, Leading zero omitted, Abs format (unit mm)*
G04 Created by KiCad (PCBNEW (6.0.7)) date 2022-10-21 23:48:19*
%MOMM*%
%LPD*%
G01*
G04 APERTURE LIST*
%ADD10C,0.100000*%
%ADD11C,0.200000*%
G04 APERTURE END LIST*
D10*
X1080000Y880000D02*
X1080000Y-2780000D01*
X-1060000Y900000D02*
G75*
G03*
X-1080000Y880000I0J-20000D01*
G01*
X860000Y-3000000D02*
G75*
G03*
X1080000Y-2780000I0J220000D01*
G01*
X860000Y-3000000D02*
X-860000Y-3000000D01*
X-1080000Y-2780000D02*
X-1080000Y880000D01*
X1080000Y880000D02*
G75*
G03*
X1060000Y900000I-20000J0D01*
G01*
X-1080000Y-2780000D02*
G75*
G03*
X-860000Y-3000000I220000J0D01*
G01*
X-1060000Y900000D02*
X1060000Y900000D01*
D11*
X-827381Y-3315476D02*
X-827381Y-3115476D01*
X-779762Y-3115476D01*
X-751190Y-3125000D01*
X-732143Y-3144048D01*
X-722619Y-3163095D01*
X-713095Y-3201190D01*
X-713095Y-3229762D01*
X-722619Y-3267857D01*
X-732143Y-3286905D01*
X-751190Y-3305952D01*
X-779762Y-3315476D01*
X-827381Y-3315476D01*
X-627381Y-3315476D02*
X-627381Y-3182143D01*
X-627381Y-3220238D02*
X-617857Y-3201190D01*
X-608333Y-3191667D01*
X-589286Y-3182143D01*
X-570238Y-3182143D01*
X-503571Y-3315476D02*
X-503571Y-3182143D01*
X-503571Y-3115476D02*
X-513095Y-3125000D01*
X-503571Y-3134524D01*
X-494048Y-3125000D01*
X-503571Y-3115476D01*
X-503571Y-3134524D01*
X-379762Y-3315476D02*
X-398809Y-3305952D01*
X-408333Y-3286905D01*
X-408333Y-3115476D01*
X-275000Y-3315476D02*
X-294048Y-3305952D01*
X-303571Y-3286905D01*
X-303571Y-3115476D01*
X-46428Y-3315476D02*
X-46428Y-3115476D01*
X20238Y-3258333D01*
X86905Y-3115476D01*
X86905Y-3315476D01*
X267857Y-3315476D02*
X267857Y-3210714D01*
X258333Y-3191667D01*
X239286Y-3182143D01*
X201190Y-3182143D01*
X182143Y-3191667D01*
X267857Y-3305952D02*
X248809Y-3315476D01*
X201190Y-3315476D01*
X182143Y-3305952D01*
X172619Y-3286905D01*
X172619Y-3267857D01*
X182143Y-3248809D01*
X201190Y-3239286D01*
X248809Y-3239286D01*
X267857Y-3229762D01*
X363095Y-3182143D02*
X363095Y-3382143D01*
X363095Y-3191667D02*
X382143Y-3182143D01*
X420238Y-3182143D01*
X439286Y-3191667D01*
X448809Y-3201190D01*
X458333Y-3220238D01*
X458333Y-3277381D01*
X448809Y-3296428D01*
X439286Y-3305952D01*
X420238Y-3315476D01*
X382143Y-3315476D01*
X363095Y-3305952D01*
X544048Y-3296428D02*
X553571Y-3305952D01*
X544048Y-3315476D01*
X534524Y-3305952D01*
X544048Y-3296428D01*
X544048Y-3315476D01*
X544048Y-3191667D02*
X553571Y-3201190D01*
X544048Y-3210714D01*
X534524Y-3201190D01*
X544048Y-3191667D01*
X544048Y-3210714D01*
M02*
