%TF.GenerationSoftware,KiCad,Pcbnew,(6.0.7)*%
%TF.CreationDate,2022-10-21T23:48:19+08:00*%
%TF.ProjectId,pcb_rear,7063625f-7265-4617-922e-6b696361645f,rev?*%
%TF.SameCoordinates,Original*%
%TF.FileFunction,Drillmap*%
%TF.FilePolarity,Positive*%
%FSLAX45Y45*%
G04 Gerber Fmt 4.5, Leading zero omitted, Abs format (unit mm)*
G04 Created by KiCad (PCBNEW (6.0.7)) date 2022-10-21 23:48:19*
%MOMM*%
%LPD*%
G01*
G04 APERTURE LIST*
%ADD10C,0.100000*%
%ADD11C,0.200000*%
%ADD12C,0.030000*%
%ADD13C,0.220000*%
G04 APERTURE END LIST*
D10*
X1080000Y880000D02*
X1080000Y-2780000D01*
X-1060000Y900000D02*
G75*
G03*
X-1080000Y880000I0J-20000D01*
G01*
X860000Y-3000000D02*
G75*
G03*
X1080000Y-2780000I0J220000D01*
G01*
X860000Y-3000000D02*
X-860000Y-3000000D01*
X-1080000Y-2780000D02*
X-1080000Y880000D01*
X1080000Y880000D02*
G75*
G03*
X1060000Y900000I-20000J0D01*
G01*
X-1080000Y-2780000D02*
G75*
G03*
X-860000Y-3000000I220000J0D01*
G01*
X-1060000Y900000D02*
X1060000Y900000D01*
D11*
D12*
X-615000Y-2445000D02*
X-585000Y-2475000D01*
X-585000Y-2445000D02*
X-615000Y-2475000D01*
X-565000Y-1995000D02*
X-535000Y-2025000D01*
X-535000Y-1995000D02*
X-565000Y-2025000D01*
X-565000Y-2095000D02*
X-535000Y-2125000D01*
X-535000Y-2095000D02*
X-565000Y-2125000D01*
X-475000Y-1290000D02*
X-445000Y-1320000D01*
X-445000Y-1290000D02*
X-475000Y-1320000D01*
X-380000Y-815000D02*
X-350000Y-845000D01*
X-350000Y-815000D02*
X-380000Y-845000D01*
X-365000Y-231450D02*
X-335000Y-261450D01*
X-335000Y-231450D02*
X-365000Y-261450D01*
X-315000Y-2055000D02*
X-285000Y-2085000D01*
X-285000Y-2055000D02*
X-315000Y-2085000D01*
X-155000Y-205000D02*
X-125000Y-235000D01*
X-125000Y-205000D02*
X-155000Y-235000D01*
X-65000Y-2745000D02*
X-35000Y-2775000D01*
X-35000Y-2745000D02*
X-65000Y-2775000D01*
X35000Y-2745000D02*
X65000Y-2775000D01*
X65000Y-2745000D02*
X35000Y-2775000D01*
X200000Y-1335000D02*
X230000Y-1365000D01*
X230000Y-1335000D02*
X200000Y-1365000D01*
X345000Y-1335000D02*
X375000Y-1365000D01*
X375000Y-1335000D02*
X345000Y-1365000D01*
X428550Y-1335000D02*
X458550Y-1365000D01*
X458550Y-1335000D02*
X428550Y-1365000D01*
D10*
X-890000Y762000D02*
G75*
G03*
X-890000Y762000I-50000J0D01*
G01*
X-890000Y508000D02*
G75*
G03*
X-890000Y508000I-50000J0D01*
G01*
X-890000Y254000D02*
G75*
G03*
X-890000Y254000I-50000J0D01*
G01*
X-890000Y0D02*
G75*
G03*
X-890000Y0I-50000J0D01*
G01*
X-890000Y-254000D02*
G75*
G03*
X-890000Y-254000I-50000J0D01*
G01*
X-890000Y-508000D02*
G75*
G03*
X-890000Y-508000I-50000J0D01*
G01*
X-890000Y-762000D02*
G75*
G03*
X-890000Y-762000I-50000J0D01*
G01*
X990000Y760000D02*
G75*
G03*
X990000Y760000I-50000J0D01*
G01*
X990000Y506000D02*
G75*
G03*
X990000Y506000I-50000J0D01*
G01*
X990000Y252000D02*
G75*
G03*
X990000Y252000I-50000J0D01*
G01*
X990000Y-2000D02*
G75*
G03*
X990000Y-2000I-50000J0D01*
G01*
X990000Y-256000D02*
G75*
G03*
X990000Y-256000I-50000J0D01*
G01*
X990000Y-510000D02*
G75*
G03*
X990000Y-510000I-50000J0D01*
G01*
X990000Y-764000D02*
G75*
G03*
X990000Y-764000I-50000J0D01*
G01*
D13*
X-860000Y-1130000D02*
X-860000Y-1350000D01*
X-970000Y-1240000D02*
X-750000Y-1240000D01*
X-860000Y-2670000D02*
X-860000Y-2890000D01*
X-970000Y-2780000D02*
X-750000Y-2780000D01*
X860000Y-1130000D02*
X860000Y-1350000D01*
X750000Y-1240000D02*
X970000Y-1240000D01*
X860000Y-2670000D02*
X860000Y-2890000D01*
X750000Y-2780000D02*
X970000Y-2780000D01*
D11*
X-827381Y-3315476D02*
X-827381Y-3115476D01*
X-779762Y-3115476D01*
X-751190Y-3125000D01*
X-732143Y-3144048D01*
X-722619Y-3163095D01*
X-713095Y-3201190D01*
X-713095Y-3229762D01*
X-722619Y-3267857D01*
X-732143Y-3286905D01*
X-751190Y-3305952D01*
X-779762Y-3315476D01*
X-827381Y-3315476D01*
X-627381Y-3315476D02*
X-627381Y-3182143D01*
X-627381Y-3220238D02*
X-617857Y-3201190D01*
X-608333Y-3191667D01*
X-589286Y-3182143D01*
X-570238Y-3182143D01*
X-503571Y-3315476D02*
X-503571Y-3182143D01*
X-503571Y-3115476D02*
X-513095Y-3125000D01*
X-503571Y-3134524D01*
X-494048Y-3125000D01*
X-503571Y-3115476D01*
X-503571Y-3134524D01*
X-379762Y-3315476D02*
X-398809Y-3305952D01*
X-408333Y-3286905D01*
X-408333Y-3115476D01*
X-275000Y-3315476D02*
X-294048Y-3305952D01*
X-303571Y-3286905D01*
X-303571Y-3115476D01*
X-46428Y-3315476D02*
X-46428Y-3115476D01*
X20238Y-3258333D01*
X86905Y-3115476D01*
X86905Y-3315476D01*
X267857Y-3315476D02*
X267857Y-3210714D01*
X258333Y-3191667D01*
X239286Y-3182143D01*
X201190Y-3182143D01*
X182143Y-3191667D01*
X267857Y-3305952D02*
X248809Y-3315476D01*
X201190Y-3315476D01*
X182143Y-3305952D01*
X172619Y-3286905D01*
X172619Y-3267857D01*
X182143Y-3248809D01*
X201190Y-3239286D01*
X248809Y-3239286D01*
X267857Y-3229762D01*
X363095Y-3182143D02*
X363095Y-3382143D01*
X363095Y-3191667D02*
X382143Y-3182143D01*
X420238Y-3182143D01*
X439286Y-3191667D01*
X448809Y-3201190D01*
X458333Y-3220238D01*
X458333Y-3277381D01*
X448809Y-3296428D01*
X439286Y-3305952D01*
X420238Y-3315476D01*
X382143Y-3315476D01*
X363095Y-3305952D01*
X544048Y-3296428D02*
X553571Y-3305952D01*
X544048Y-3315476D01*
X534524Y-3305952D01*
X544048Y-3296428D01*
X544048Y-3315476D01*
X544048Y-3191667D02*
X553571Y-3201190D01*
X544048Y-3210714D01*
X534524Y-3201190D01*
X544048Y-3191667D01*
X544048Y-3210714D01*
D12*
X-1115000Y-3630000D02*
X-1085000Y-3660000D01*
X-1085000Y-3630000D02*
X-1115000Y-3660000D01*
D11*
X-789286Y-3535476D02*
X-770238Y-3535476D01*
X-751190Y-3545000D01*
X-741667Y-3554524D01*
X-732143Y-3573571D01*
X-722619Y-3611667D01*
X-722619Y-3659286D01*
X-732143Y-3697381D01*
X-741667Y-3716428D01*
X-751190Y-3725952D01*
X-770238Y-3735476D01*
X-789286Y-3735476D01*
X-808333Y-3725952D01*
X-817857Y-3716428D01*
X-827381Y-3697381D01*
X-836905Y-3659286D01*
X-836905Y-3611667D01*
X-827381Y-3573571D01*
X-817857Y-3554524D01*
X-808333Y-3545000D01*
X-789286Y-3535476D01*
X-636905Y-3716428D02*
X-627381Y-3725952D01*
X-636905Y-3735476D01*
X-646429Y-3725952D01*
X-636905Y-3716428D01*
X-636905Y-3735476D01*
X-560714Y-3535476D02*
X-436905Y-3535476D01*
X-503571Y-3611667D01*
X-475000Y-3611667D01*
X-455952Y-3621190D01*
X-446428Y-3630714D01*
X-436905Y-3649762D01*
X-436905Y-3697381D01*
X-446428Y-3716428D01*
X-455952Y-3725952D01*
X-475000Y-3735476D01*
X-532143Y-3735476D01*
X-551190Y-3725952D01*
X-560714Y-3716428D01*
X-313095Y-3535476D02*
X-294048Y-3535476D01*
X-275000Y-3545000D01*
X-265476Y-3554524D01*
X-255952Y-3573571D01*
X-246428Y-3611667D01*
X-246428Y-3659286D01*
X-255952Y-3697381D01*
X-265476Y-3716428D01*
X-275000Y-3725952D01*
X-294048Y-3735476D01*
X-313095Y-3735476D01*
X-332143Y-3725952D01*
X-341667Y-3716428D01*
X-351190Y-3697381D01*
X-360714Y-3659286D01*
X-360714Y-3611667D01*
X-351190Y-3573571D01*
X-341667Y-3554524D01*
X-332143Y-3545000D01*
X-313095Y-3535476D01*
X-122619Y-3535476D02*
X-103571Y-3535476D01*
X-84524Y-3545000D01*
X-75000Y-3554524D01*
X-65476Y-3573571D01*
X-55952Y-3611667D01*
X-55952Y-3659286D01*
X-65476Y-3697381D01*
X-75000Y-3716428D01*
X-84524Y-3725952D01*
X-103571Y-3735476D01*
X-122619Y-3735476D01*
X-141667Y-3725952D01*
X-151190Y-3716428D01*
X-160714Y-3697381D01*
X-170238Y-3659286D01*
X-170238Y-3611667D01*
X-160714Y-3573571D01*
X-151190Y-3554524D01*
X-141667Y-3545000D01*
X-122619Y-3535476D01*
X29762Y-3735476D02*
X29762Y-3602143D01*
X29762Y-3621190D02*
X39286Y-3611667D01*
X58333Y-3602143D01*
X86905Y-3602143D01*
X105952Y-3611667D01*
X115476Y-3630714D01*
X115476Y-3735476D01*
X115476Y-3630714D02*
X125000Y-3611667D01*
X144048Y-3602143D01*
X172619Y-3602143D01*
X191667Y-3611667D01*
X201190Y-3630714D01*
X201190Y-3735476D01*
X296429Y-3735476D02*
X296429Y-3602143D01*
X296429Y-3621190D02*
X305952Y-3611667D01*
X325000Y-3602143D01*
X353571Y-3602143D01*
X372619Y-3611667D01*
X382143Y-3630714D01*
X382143Y-3735476D01*
X382143Y-3630714D02*
X391667Y-3611667D01*
X410714Y-3602143D01*
X439286Y-3602143D01*
X458333Y-3611667D01*
X467857Y-3630714D01*
X467857Y-3735476D01*
X858333Y-3525952D02*
X686905Y-3783095D01*
X1115476Y-3535476D02*
X1134524Y-3535476D01*
X1153571Y-3545000D01*
X1163095Y-3554524D01*
X1172619Y-3573571D01*
X1182143Y-3611667D01*
X1182143Y-3659286D01*
X1172619Y-3697381D01*
X1163095Y-3716428D01*
X1153571Y-3725952D01*
X1134524Y-3735476D01*
X1115476Y-3735476D01*
X1096429Y-3725952D01*
X1086905Y-3716428D01*
X1077381Y-3697381D01*
X1067857Y-3659286D01*
X1067857Y-3611667D01*
X1077381Y-3573571D01*
X1086905Y-3554524D01*
X1096429Y-3545000D01*
X1115476Y-3535476D01*
X1267857Y-3716428D02*
X1277381Y-3725952D01*
X1267857Y-3735476D01*
X1258333Y-3725952D01*
X1267857Y-3716428D01*
X1267857Y-3735476D01*
X1401190Y-3535476D02*
X1420238Y-3535476D01*
X1439286Y-3545000D01*
X1448809Y-3554524D01*
X1458333Y-3573571D01*
X1467857Y-3611667D01*
X1467857Y-3659286D01*
X1458333Y-3697381D01*
X1448809Y-3716428D01*
X1439286Y-3725952D01*
X1420238Y-3735476D01*
X1401190Y-3735476D01*
X1382143Y-3725952D01*
X1372619Y-3716428D01*
X1363095Y-3697381D01*
X1353571Y-3659286D01*
X1353571Y-3611667D01*
X1363095Y-3573571D01*
X1372619Y-3554524D01*
X1382143Y-3545000D01*
X1401190Y-3535476D01*
X1658333Y-3735476D02*
X1544048Y-3735476D01*
X1601190Y-3735476D02*
X1601190Y-3535476D01*
X1582143Y-3564048D01*
X1563095Y-3583095D01*
X1544048Y-3592619D01*
X1848809Y-3735476D02*
X1734524Y-3735476D01*
X1791667Y-3735476D02*
X1791667Y-3535476D01*
X1772619Y-3564048D01*
X1753571Y-3583095D01*
X1734524Y-3592619D01*
X1963095Y-3621190D02*
X1944048Y-3611667D01*
X1934524Y-3602143D01*
X1925000Y-3583095D01*
X1925000Y-3573571D01*
X1934524Y-3554524D01*
X1944048Y-3545000D01*
X1963095Y-3535476D01*
X2001190Y-3535476D01*
X2020238Y-3545000D01*
X2029762Y-3554524D01*
X2039286Y-3573571D01*
X2039286Y-3583095D01*
X2029762Y-3602143D01*
X2020238Y-3611667D01*
X2001190Y-3621190D01*
X1963095Y-3621190D01*
X1944048Y-3630714D01*
X1934524Y-3640238D01*
X1925000Y-3659286D01*
X1925000Y-3697381D01*
X1934524Y-3716428D01*
X1944048Y-3725952D01*
X1963095Y-3735476D01*
X2001190Y-3735476D01*
X2020238Y-3725952D01*
X2029762Y-3716428D01*
X2039286Y-3697381D01*
X2039286Y-3659286D01*
X2029762Y-3640238D01*
X2020238Y-3630714D01*
X2001190Y-3621190D01*
X2115476Y-3535476D02*
X2115476Y-3573571D01*
X2191667Y-3535476D02*
X2191667Y-3573571D01*
X2486905Y-3811667D02*
X2477381Y-3802143D01*
X2458333Y-3773571D01*
X2448810Y-3754524D01*
X2439286Y-3725952D01*
X2429762Y-3678333D01*
X2429762Y-3640238D01*
X2439286Y-3592619D01*
X2448810Y-3564048D01*
X2458333Y-3545000D01*
X2477381Y-3516428D01*
X2486905Y-3506905D01*
X2667857Y-3735476D02*
X2553571Y-3735476D01*
X2610714Y-3735476D02*
X2610714Y-3535476D01*
X2591667Y-3564048D01*
X2572619Y-3583095D01*
X2553571Y-3592619D01*
X2734524Y-3535476D02*
X2858333Y-3535476D01*
X2791667Y-3611667D01*
X2820238Y-3611667D01*
X2839286Y-3621190D01*
X2848809Y-3630714D01*
X2858333Y-3649762D01*
X2858333Y-3697381D01*
X2848809Y-3716428D01*
X2839286Y-3725952D01*
X2820238Y-3735476D01*
X2763095Y-3735476D01*
X2744048Y-3725952D01*
X2734524Y-3716428D01*
X3096428Y-3735476D02*
X3096428Y-3535476D01*
X3182143Y-3735476D02*
X3182143Y-3630714D01*
X3172619Y-3611667D01*
X3153571Y-3602143D01*
X3125000Y-3602143D01*
X3105952Y-3611667D01*
X3096428Y-3621190D01*
X3305952Y-3735476D02*
X3286905Y-3725952D01*
X3277381Y-3716428D01*
X3267857Y-3697381D01*
X3267857Y-3640238D01*
X3277381Y-3621190D01*
X3286905Y-3611667D01*
X3305952Y-3602143D01*
X3334524Y-3602143D01*
X3353571Y-3611667D01*
X3363095Y-3621190D01*
X3372619Y-3640238D01*
X3372619Y-3697381D01*
X3363095Y-3716428D01*
X3353571Y-3725952D01*
X3334524Y-3735476D01*
X3305952Y-3735476D01*
X3486905Y-3735476D02*
X3467857Y-3725952D01*
X3458333Y-3706905D01*
X3458333Y-3535476D01*
X3639286Y-3725952D02*
X3620238Y-3735476D01*
X3582143Y-3735476D01*
X3563095Y-3725952D01*
X3553571Y-3706905D01*
X3553571Y-3630714D01*
X3563095Y-3611667D01*
X3582143Y-3602143D01*
X3620238Y-3602143D01*
X3639286Y-3611667D01*
X3648809Y-3630714D01*
X3648809Y-3649762D01*
X3553571Y-3668809D01*
X3725000Y-3725952D02*
X3744048Y-3735476D01*
X3782143Y-3735476D01*
X3801190Y-3725952D01*
X3810714Y-3706905D01*
X3810714Y-3697381D01*
X3801190Y-3678333D01*
X3782143Y-3668809D01*
X3753571Y-3668809D01*
X3734524Y-3659286D01*
X3725000Y-3640238D01*
X3725000Y-3630714D01*
X3734524Y-3611667D01*
X3753571Y-3602143D01*
X3782143Y-3602143D01*
X3801190Y-3611667D01*
X3877381Y-3811667D02*
X3886905Y-3802143D01*
X3905952Y-3773571D01*
X3915476Y-3754524D01*
X3925000Y-3725952D01*
X3934524Y-3678333D01*
X3934524Y-3640238D01*
X3925000Y-3592619D01*
X3915476Y-3564048D01*
X3905952Y-3545000D01*
X3886905Y-3516428D01*
X3877381Y-3506905D01*
D10*
X-1085000Y-3909000D02*
G75*
G03*
X-1085000Y-3909000I-50000J0D01*
G01*
D11*
X-722619Y-3999476D02*
X-836905Y-3999476D01*
X-779762Y-3999476D02*
X-779762Y-3799476D01*
X-798809Y-3828048D01*
X-817857Y-3847095D01*
X-836905Y-3856619D01*
X-636905Y-3980428D02*
X-627381Y-3989952D01*
X-636905Y-3999476D01*
X-646429Y-3989952D01*
X-636905Y-3980428D01*
X-636905Y-3999476D01*
X-503571Y-3799476D02*
X-484524Y-3799476D01*
X-465476Y-3809000D01*
X-455952Y-3818524D01*
X-446428Y-3837571D01*
X-436905Y-3875667D01*
X-436905Y-3923286D01*
X-446428Y-3961381D01*
X-455952Y-3980428D01*
X-465476Y-3989952D01*
X-484524Y-3999476D01*
X-503571Y-3999476D01*
X-522619Y-3989952D01*
X-532143Y-3980428D01*
X-541667Y-3961381D01*
X-551190Y-3923286D01*
X-551190Y-3875667D01*
X-541667Y-3837571D01*
X-532143Y-3818524D01*
X-522619Y-3809000D01*
X-503571Y-3799476D01*
X-313095Y-3799476D02*
X-294048Y-3799476D01*
X-275000Y-3809000D01*
X-265476Y-3818524D01*
X-255952Y-3837571D01*
X-246428Y-3875667D01*
X-246428Y-3923286D01*
X-255952Y-3961381D01*
X-265476Y-3980428D01*
X-275000Y-3989952D01*
X-294048Y-3999476D01*
X-313095Y-3999476D01*
X-332143Y-3989952D01*
X-341667Y-3980428D01*
X-351190Y-3961381D01*
X-360714Y-3923286D01*
X-360714Y-3875667D01*
X-351190Y-3837571D01*
X-341667Y-3818524D01*
X-332143Y-3809000D01*
X-313095Y-3799476D01*
X-122619Y-3799476D02*
X-103571Y-3799476D01*
X-84524Y-3809000D01*
X-75000Y-3818524D01*
X-65476Y-3837571D01*
X-55952Y-3875667D01*
X-55952Y-3923286D01*
X-65476Y-3961381D01*
X-75000Y-3980428D01*
X-84524Y-3989952D01*
X-103571Y-3999476D01*
X-122619Y-3999476D01*
X-141667Y-3989952D01*
X-151190Y-3980428D01*
X-160714Y-3961381D01*
X-170238Y-3923286D01*
X-170238Y-3875667D01*
X-160714Y-3837571D01*
X-151190Y-3818524D01*
X-141667Y-3809000D01*
X-122619Y-3799476D01*
X29762Y-3999476D02*
X29762Y-3866143D01*
X29762Y-3885190D02*
X39286Y-3875667D01*
X58333Y-3866143D01*
X86905Y-3866143D01*
X105952Y-3875667D01*
X115476Y-3894714D01*
X115476Y-3999476D01*
X115476Y-3894714D02*
X125000Y-3875667D01*
X144048Y-3866143D01*
X172619Y-3866143D01*
X191667Y-3875667D01*
X201190Y-3894714D01*
X201190Y-3999476D01*
X296429Y-3999476D02*
X296429Y-3866143D01*
X296429Y-3885190D02*
X305952Y-3875667D01*
X325000Y-3866143D01*
X353571Y-3866143D01*
X372619Y-3875667D01*
X382143Y-3894714D01*
X382143Y-3999476D01*
X382143Y-3894714D02*
X391667Y-3875667D01*
X410714Y-3866143D01*
X439286Y-3866143D01*
X458333Y-3875667D01*
X467857Y-3894714D01*
X467857Y-3999476D01*
X858333Y-3789952D02*
X686905Y-4047095D01*
X1115476Y-3799476D02*
X1134524Y-3799476D01*
X1153571Y-3809000D01*
X1163095Y-3818524D01*
X1172619Y-3837571D01*
X1182143Y-3875667D01*
X1182143Y-3923286D01*
X1172619Y-3961381D01*
X1163095Y-3980428D01*
X1153571Y-3989952D01*
X1134524Y-3999476D01*
X1115476Y-3999476D01*
X1096429Y-3989952D01*
X1086905Y-3980428D01*
X1077381Y-3961381D01*
X1067857Y-3923286D01*
X1067857Y-3875667D01*
X1077381Y-3837571D01*
X1086905Y-3818524D01*
X1096429Y-3809000D01*
X1115476Y-3799476D01*
X1267857Y-3980428D02*
X1277381Y-3989952D01*
X1267857Y-3999476D01*
X1258333Y-3989952D01*
X1267857Y-3980428D01*
X1267857Y-3999476D01*
X1401190Y-3799476D02*
X1420238Y-3799476D01*
X1439286Y-3809000D01*
X1448809Y-3818524D01*
X1458333Y-3837571D01*
X1467857Y-3875667D01*
X1467857Y-3923286D01*
X1458333Y-3961381D01*
X1448809Y-3980428D01*
X1439286Y-3989952D01*
X1420238Y-3999476D01*
X1401190Y-3999476D01*
X1382143Y-3989952D01*
X1372619Y-3980428D01*
X1363095Y-3961381D01*
X1353571Y-3923286D01*
X1353571Y-3875667D01*
X1363095Y-3837571D01*
X1372619Y-3818524D01*
X1382143Y-3809000D01*
X1401190Y-3799476D01*
X1534524Y-3799476D02*
X1658333Y-3799476D01*
X1591667Y-3875667D01*
X1620238Y-3875667D01*
X1639286Y-3885190D01*
X1648809Y-3894714D01*
X1658333Y-3913762D01*
X1658333Y-3961381D01*
X1648809Y-3980428D01*
X1639286Y-3989952D01*
X1620238Y-3999476D01*
X1563095Y-3999476D01*
X1544048Y-3989952D01*
X1534524Y-3980428D01*
X1753571Y-3999476D02*
X1791667Y-3999476D01*
X1810714Y-3989952D01*
X1820238Y-3980428D01*
X1839286Y-3951857D01*
X1848809Y-3913762D01*
X1848809Y-3837571D01*
X1839286Y-3818524D01*
X1829762Y-3809000D01*
X1810714Y-3799476D01*
X1772619Y-3799476D01*
X1753571Y-3809000D01*
X1744048Y-3818524D01*
X1734524Y-3837571D01*
X1734524Y-3885190D01*
X1744048Y-3904238D01*
X1753571Y-3913762D01*
X1772619Y-3923286D01*
X1810714Y-3923286D01*
X1829762Y-3913762D01*
X1839286Y-3904238D01*
X1848809Y-3885190D01*
X2020238Y-3866143D02*
X2020238Y-3999476D01*
X1972619Y-3789952D02*
X1925000Y-3932809D01*
X2048809Y-3932809D01*
X2115476Y-3799476D02*
X2115476Y-3837571D01*
X2191667Y-3799476D02*
X2191667Y-3837571D01*
X2486905Y-4075667D02*
X2477381Y-4066143D01*
X2458333Y-4037571D01*
X2448810Y-4018524D01*
X2439286Y-3989952D01*
X2429762Y-3942333D01*
X2429762Y-3904238D01*
X2439286Y-3856619D01*
X2448810Y-3828048D01*
X2458333Y-3809000D01*
X2477381Y-3780428D01*
X2486905Y-3770905D01*
X2667857Y-3999476D02*
X2553571Y-3999476D01*
X2610714Y-3999476D02*
X2610714Y-3799476D01*
X2591667Y-3828048D01*
X2572619Y-3847095D01*
X2553571Y-3856619D01*
X2839286Y-3866143D02*
X2839286Y-3999476D01*
X2791667Y-3789952D02*
X2744048Y-3932809D01*
X2867857Y-3932809D01*
X3096428Y-3999476D02*
X3096428Y-3799476D01*
X3182143Y-3999476D02*
X3182143Y-3894714D01*
X3172619Y-3875667D01*
X3153571Y-3866143D01*
X3125000Y-3866143D01*
X3105952Y-3875667D01*
X3096428Y-3885190D01*
X3305952Y-3999476D02*
X3286905Y-3989952D01*
X3277381Y-3980428D01*
X3267857Y-3961381D01*
X3267857Y-3904238D01*
X3277381Y-3885190D01*
X3286905Y-3875667D01*
X3305952Y-3866143D01*
X3334524Y-3866143D01*
X3353571Y-3875667D01*
X3363095Y-3885190D01*
X3372619Y-3904238D01*
X3372619Y-3961381D01*
X3363095Y-3980428D01*
X3353571Y-3989952D01*
X3334524Y-3999476D01*
X3305952Y-3999476D01*
X3486905Y-3999476D02*
X3467857Y-3989952D01*
X3458333Y-3970905D01*
X3458333Y-3799476D01*
X3639286Y-3989952D02*
X3620238Y-3999476D01*
X3582143Y-3999476D01*
X3563095Y-3989952D01*
X3553571Y-3970905D01*
X3553571Y-3894714D01*
X3563095Y-3875667D01*
X3582143Y-3866143D01*
X3620238Y-3866143D01*
X3639286Y-3875667D01*
X3648809Y-3894714D01*
X3648809Y-3913762D01*
X3553571Y-3932809D01*
X3725000Y-3989952D02*
X3744048Y-3999476D01*
X3782143Y-3999476D01*
X3801190Y-3989952D01*
X3810714Y-3970905D01*
X3810714Y-3961381D01*
X3801190Y-3942333D01*
X3782143Y-3932809D01*
X3753571Y-3932809D01*
X3734524Y-3923286D01*
X3725000Y-3904238D01*
X3725000Y-3894714D01*
X3734524Y-3875667D01*
X3753571Y-3866143D01*
X3782143Y-3866143D01*
X3801190Y-3875667D01*
X3877381Y-4075667D02*
X3886905Y-4066143D01*
X3905952Y-4037571D01*
X3915476Y-4018524D01*
X3925000Y-3989952D01*
X3934524Y-3942333D01*
X3934524Y-3904238D01*
X3925000Y-3856619D01*
X3915476Y-3828048D01*
X3905952Y-3809000D01*
X3886905Y-3780428D01*
X3877381Y-3770905D01*
X-1185000Y-4073000D02*
X-1185000Y-4273000D01*
X-1285000Y-4173000D02*
X-1085000Y-4173000D01*
X-836905Y-4082524D02*
X-827381Y-4073000D01*
X-808333Y-4063476D01*
X-760714Y-4063476D01*
X-741667Y-4073000D01*
X-732143Y-4082524D01*
X-722619Y-4101571D01*
X-722619Y-4120619D01*
X-732143Y-4149190D01*
X-846428Y-4263476D01*
X-722619Y-4263476D01*
X-636905Y-4244429D02*
X-627381Y-4253952D01*
X-636905Y-4263476D01*
X-646429Y-4253952D01*
X-636905Y-4244429D01*
X-636905Y-4263476D01*
X-551190Y-4082524D02*
X-541667Y-4073000D01*
X-522619Y-4063476D01*
X-475000Y-4063476D01*
X-455952Y-4073000D01*
X-446428Y-4082524D01*
X-436905Y-4101571D01*
X-436905Y-4120619D01*
X-446428Y-4149190D01*
X-560714Y-4263476D01*
X-436905Y-4263476D01*
X-313095Y-4063476D02*
X-294048Y-4063476D01*
X-275000Y-4073000D01*
X-265476Y-4082524D01*
X-255952Y-4101571D01*
X-246428Y-4139667D01*
X-246428Y-4187286D01*
X-255952Y-4225381D01*
X-265476Y-4244429D01*
X-275000Y-4253952D01*
X-294048Y-4263476D01*
X-313095Y-4263476D01*
X-332143Y-4253952D01*
X-341667Y-4244429D01*
X-351190Y-4225381D01*
X-360714Y-4187286D01*
X-360714Y-4139667D01*
X-351190Y-4101571D01*
X-341667Y-4082524D01*
X-332143Y-4073000D01*
X-313095Y-4063476D01*
X-122619Y-4063476D02*
X-103571Y-4063476D01*
X-84524Y-4073000D01*
X-75000Y-4082524D01*
X-65476Y-4101571D01*
X-55952Y-4139667D01*
X-55952Y-4187286D01*
X-65476Y-4225381D01*
X-75000Y-4244429D01*
X-84524Y-4253952D01*
X-103571Y-4263476D01*
X-122619Y-4263476D01*
X-141667Y-4253952D01*
X-151190Y-4244429D01*
X-160714Y-4225381D01*
X-170238Y-4187286D01*
X-170238Y-4139667D01*
X-160714Y-4101571D01*
X-151190Y-4082524D01*
X-141667Y-4073000D01*
X-122619Y-4063476D01*
X29762Y-4263476D02*
X29762Y-4130143D01*
X29762Y-4149190D02*
X39286Y-4139667D01*
X58333Y-4130143D01*
X86905Y-4130143D01*
X105952Y-4139667D01*
X115476Y-4158714D01*
X115476Y-4263476D01*
X115476Y-4158714D02*
X125000Y-4139667D01*
X144048Y-4130143D01*
X172619Y-4130143D01*
X191667Y-4139667D01*
X201190Y-4158714D01*
X201190Y-4263476D01*
X296429Y-4263476D02*
X296429Y-4130143D01*
X296429Y-4149190D02*
X305952Y-4139667D01*
X325000Y-4130143D01*
X353571Y-4130143D01*
X372619Y-4139667D01*
X382143Y-4158714D01*
X382143Y-4263476D01*
X382143Y-4158714D02*
X391667Y-4139667D01*
X410714Y-4130143D01*
X439286Y-4130143D01*
X458333Y-4139667D01*
X467857Y-4158714D01*
X467857Y-4263476D01*
X858333Y-4053952D02*
X686905Y-4311095D01*
X1115476Y-4063476D02*
X1134524Y-4063476D01*
X1153571Y-4073000D01*
X1163095Y-4082524D01*
X1172619Y-4101571D01*
X1182143Y-4139667D01*
X1182143Y-4187286D01*
X1172619Y-4225381D01*
X1163095Y-4244429D01*
X1153571Y-4253952D01*
X1134524Y-4263476D01*
X1115476Y-4263476D01*
X1096429Y-4253952D01*
X1086905Y-4244429D01*
X1077381Y-4225381D01*
X1067857Y-4187286D01*
X1067857Y-4139667D01*
X1077381Y-4101571D01*
X1086905Y-4082524D01*
X1096429Y-4073000D01*
X1115476Y-4063476D01*
X1267857Y-4244429D02*
X1277381Y-4253952D01*
X1267857Y-4263476D01*
X1258333Y-4253952D01*
X1267857Y-4244429D01*
X1267857Y-4263476D01*
X1401190Y-4063476D02*
X1420238Y-4063476D01*
X1439286Y-4073000D01*
X1448809Y-4082524D01*
X1458333Y-4101571D01*
X1467857Y-4139667D01*
X1467857Y-4187286D01*
X1458333Y-4225381D01*
X1448809Y-4244429D01*
X1439286Y-4253952D01*
X1420238Y-4263476D01*
X1401190Y-4263476D01*
X1382143Y-4253952D01*
X1372619Y-4244429D01*
X1363095Y-4225381D01*
X1353571Y-4187286D01*
X1353571Y-4139667D01*
X1363095Y-4101571D01*
X1372619Y-4082524D01*
X1382143Y-4073000D01*
X1401190Y-4063476D01*
X1582143Y-4149190D02*
X1563095Y-4139667D01*
X1553571Y-4130143D01*
X1544048Y-4111095D01*
X1544048Y-4101571D01*
X1553571Y-4082524D01*
X1563095Y-4073000D01*
X1582143Y-4063476D01*
X1620238Y-4063476D01*
X1639286Y-4073000D01*
X1648809Y-4082524D01*
X1658333Y-4101571D01*
X1658333Y-4111095D01*
X1648809Y-4130143D01*
X1639286Y-4139667D01*
X1620238Y-4149190D01*
X1582143Y-4149190D01*
X1563095Y-4158714D01*
X1553571Y-4168238D01*
X1544048Y-4187286D01*
X1544048Y-4225381D01*
X1553571Y-4244429D01*
X1563095Y-4253952D01*
X1582143Y-4263476D01*
X1620238Y-4263476D01*
X1639286Y-4253952D01*
X1648809Y-4244429D01*
X1658333Y-4225381D01*
X1658333Y-4187286D01*
X1648809Y-4168238D01*
X1639286Y-4158714D01*
X1620238Y-4149190D01*
X1829762Y-4063476D02*
X1791667Y-4063476D01*
X1772619Y-4073000D01*
X1763095Y-4082524D01*
X1744048Y-4111095D01*
X1734524Y-4149190D01*
X1734524Y-4225381D01*
X1744048Y-4244429D01*
X1753571Y-4253952D01*
X1772619Y-4263476D01*
X1810714Y-4263476D01*
X1829762Y-4253952D01*
X1839286Y-4244429D01*
X1848809Y-4225381D01*
X1848809Y-4177762D01*
X1839286Y-4158714D01*
X1829762Y-4149190D01*
X1810714Y-4139667D01*
X1772619Y-4139667D01*
X1753571Y-4149190D01*
X1744048Y-4158714D01*
X1734524Y-4177762D01*
X2020238Y-4063476D02*
X1982143Y-4063476D01*
X1963095Y-4073000D01*
X1953571Y-4082524D01*
X1934524Y-4111095D01*
X1925000Y-4149190D01*
X1925000Y-4225381D01*
X1934524Y-4244429D01*
X1944048Y-4253952D01*
X1963095Y-4263476D01*
X2001190Y-4263476D01*
X2020238Y-4253952D01*
X2029762Y-4244429D01*
X2039286Y-4225381D01*
X2039286Y-4177762D01*
X2029762Y-4158714D01*
X2020238Y-4149190D01*
X2001190Y-4139667D01*
X1963095Y-4139667D01*
X1944048Y-4149190D01*
X1934524Y-4158714D01*
X1925000Y-4177762D01*
X2115476Y-4063476D02*
X2115476Y-4101571D01*
X2191667Y-4063476D02*
X2191667Y-4101571D01*
X2486905Y-4339667D02*
X2477381Y-4330143D01*
X2458333Y-4301571D01*
X2448810Y-4282524D01*
X2439286Y-4253952D01*
X2429762Y-4206333D01*
X2429762Y-4168238D01*
X2439286Y-4120619D01*
X2448810Y-4092048D01*
X2458333Y-4073000D01*
X2477381Y-4044428D01*
X2486905Y-4034905D01*
X2648810Y-4130143D02*
X2648810Y-4263476D01*
X2601190Y-4053952D02*
X2553571Y-4196810D01*
X2677381Y-4196810D01*
X2905952Y-4263476D02*
X2905952Y-4063476D01*
X2991667Y-4263476D02*
X2991667Y-4158714D01*
X2982143Y-4139667D01*
X2963095Y-4130143D01*
X2934524Y-4130143D01*
X2915476Y-4139667D01*
X2905952Y-4149190D01*
X3115476Y-4263476D02*
X3096428Y-4253952D01*
X3086905Y-4244429D01*
X3077381Y-4225381D01*
X3077381Y-4168238D01*
X3086905Y-4149190D01*
X3096428Y-4139667D01*
X3115476Y-4130143D01*
X3144048Y-4130143D01*
X3163095Y-4139667D01*
X3172619Y-4149190D01*
X3182143Y-4168238D01*
X3182143Y-4225381D01*
X3172619Y-4244429D01*
X3163095Y-4253952D01*
X3144048Y-4263476D01*
X3115476Y-4263476D01*
X3296428Y-4263476D02*
X3277381Y-4253952D01*
X3267857Y-4234905D01*
X3267857Y-4063476D01*
X3448809Y-4253952D02*
X3429762Y-4263476D01*
X3391667Y-4263476D01*
X3372619Y-4253952D01*
X3363095Y-4234905D01*
X3363095Y-4158714D01*
X3372619Y-4139667D01*
X3391667Y-4130143D01*
X3429762Y-4130143D01*
X3448809Y-4139667D01*
X3458333Y-4158714D01*
X3458333Y-4177762D01*
X3363095Y-4196810D01*
X3534524Y-4253952D02*
X3553571Y-4263476D01*
X3591667Y-4263476D01*
X3610714Y-4253952D01*
X3620238Y-4234905D01*
X3620238Y-4225381D01*
X3610714Y-4206333D01*
X3591667Y-4196810D01*
X3563095Y-4196810D01*
X3544048Y-4187286D01*
X3534524Y-4168238D01*
X3534524Y-4158714D01*
X3544048Y-4139667D01*
X3563095Y-4130143D01*
X3591667Y-4130143D01*
X3610714Y-4139667D01*
X3686905Y-4339667D02*
X3696428Y-4330143D01*
X3715476Y-4301571D01*
X3725000Y-4282524D01*
X3734524Y-4253952D01*
X3744048Y-4206333D01*
X3744048Y-4168238D01*
X3734524Y-4120619D01*
X3725000Y-4092048D01*
X3715476Y-4073000D01*
X3696428Y-4044428D01*
X3686905Y-4034905D01*
M02*
